<?xml version="1.0" encoding="UTF-8" standalone="no"?>
<!-- Created with Inkscape (http://www.inkscape.org/) -->

<svg
   xmlns:ns0="http://www.iki.fi/pav/software/textext/"
   xmlns:dc="http://purl.org/dc/elements/1.1/"
   xmlns:cc="http://creativecommons.org/ns#"
   xmlns:rdf="http://www.w3.org/1999/02/22-rdf-syntax-ns#"
   xmlns:svg="http://www.w3.org/2000/svg"
   xmlns="http://www.w3.org/2000/svg"
   xmlns:sodipodi="http://sodipodi.sourceforge.net/DTD/sodipodi-0.dtd"
   xmlns:inkscape="http://www.inkscape.org/namespaces/inkscape"
   width="326.24637"
   height="176.55402"
   id="svg2"
   version="1.1"
   inkscape:version="0.48.2 r9819"
   sodipodi:docname="low_pulses.svg">
  <sodipodi:namedview
     id="base"
     pagecolor="#ffffff"
     bordercolor="#666666"
     borderopacity="1.0"
     inkscape:pageopacity="0.0"
     inkscape:pageshadow="2"
     inkscape:zoom="2.4221377"
     inkscape:cx="159.84078"
     inkscape:cy="88.27701"
     inkscape:document-units="px"
     inkscape:current-layer="layer1"
     showgrid="false"
     inkscape:window-width="1366"
     inkscape:window-height="743"
     inkscape:window-x="0"
     inkscape:window-y="3"
     inkscape:window-maximized="1"
     inkscape:snap-global="false"
     inkscape:snap-bbox="true"
     inkscape:bbox-paths="true"
     inkscape:bbox-nodes="true"
     inkscape:snap-bbox-edge-midpoints="true"
     inkscape:snap-bbox-midpoints="true"
     inkscape:object-paths="true"
     inkscape:snap-intersection-paths="true"
     inkscape:object-nodes="true"
     inkscape:snap-smooth-nodes="true"
     inkscape:snap-midpoints="true"
     inkscape:snap-object-midpoints="true"
     inkscape:snap-center="true"
     fit-margin-top="0"
     fit-margin-left="0"
     fit-margin-right="0"
     fit-margin-bottom="0"
     showguides="true"
     inkscape:guide-bbox="true" />
  <defs
     id="defs4">
    <marker
       style="overflow:visible"
       id="Arrow1Send"
       refX="0"
       refY="0"
       orient="auto"
       inkscape:stockid="Arrow1Send">
      <path
         transform="matrix(-0.2,0,0,-0.2,-1.2,0)"
         style="fill-rule:evenodd;stroke:#000000;stroke-width:1pt;marker-start:none"
         d="M 0,0 5,-5 -12.5,0 5,5 0,0 z"
         id="path4336"
         inkscape:connector-curvature="0" />
    </marker>
    <marker
       style="overflow:visible"
       id="Arrow1Sstart"
       refX="0"
       refY="0"
       orient="auto"
       inkscape:stockid="Arrow1Sstart">
      <path
         transform="matrix(0.2,0,0,0.2,1.2,0)"
         style="fill-rule:evenodd;stroke:#000000;stroke-width:1pt;marker-start:none"
         d="M 0,0 5,-5 -12.5,0 5,5 0,0 z"
         id="path4333"
         inkscape:connector-curvature="0" />
    </marker>
    <marker
       style="overflow:visible"
       id="Arrow1Sstart-0"
       refX="0"
       refY="0"
       orient="auto"
       inkscape:stockid="Arrow1Sstart">
      <path
         transform="matrix(0.2,0,0,0.2,1.2,0)"
         style="fill-rule:evenodd;stroke:#000000;stroke-width:1pt;marker-start:none"
         d="M 0,0 5,-5 -12.5,0 5,5 0,0 z"
         id="path4333-7"
         inkscape:connector-curvature="0" />
    </marker>
    <marker
       style="overflow:visible"
       id="Arrow1Send-0"
       refX="0"
       refY="0"
       orient="auto"
       inkscape:stockid="Arrow1Send">
      <path
         transform="matrix(-0.2,0,0,-0.2,-1.2,0)"
         style="fill-rule:evenodd;stroke:#000000;stroke-width:1pt;marker-start:none"
         d="M 0,0 5,-5 -12.5,0 5,5 0,0 z"
         id="path4336-8"
         inkscape:connector-curvature="0" />
    </marker>
    <marker
       style="overflow:visible"
       id="Arrow1Send-8"
       refX="0"
       refY="0"
       orient="auto"
       inkscape:stockid="Arrow1Send">
      <path
         transform="matrix(-0.2,0,0,-0.2,-1.2,0)"
         style="fill-rule:evenodd;stroke:#000000;stroke-width:1pt;marker-start:none"
         d="M 0,0 5,-5 -12.5,0 5,5 0,0 z"
         id="path4336-4"
         inkscape:connector-curvature="0" />
    </marker>
    <marker
       style="overflow:visible"
       id="Arrow1Sstart-3"
       refX="0"
       refY="0"
       orient="auto"
       inkscape:stockid="Arrow1Sstart">
      <path
         transform="matrix(0.2,0,0,0.2,1.2,0)"
         style="fill-rule:evenodd;stroke:#000000;stroke-width:1pt;marker-start:none"
         d="M 0,0 5,-5 -12.5,0 5,5 0,0 z"
         id="path4333-5"
         inkscape:connector-curvature="0" />
    </marker>
    <marker
       style="overflow:visible"
       id="Arrow1Sstart-3-2"
       refX="0"
       refY="0"
       orient="auto"
       inkscape:stockid="Arrow1Sstart">
      <path
         transform="matrix(0.2,0,0,0.2,1.2,0)"
         style="fill-rule:evenodd;stroke:#000000;stroke-width:1pt;marker-start:none"
         d="M 0,0 5,-5 -12.5,0 5,5 0,0 z"
         id="path4333-5-8"
         inkscape:connector-curvature="0" />
    </marker>
    <marker
       style="overflow:visible"
       id="Arrow1Send-8-0"
       refX="0"
       refY="0"
       orient="auto"
       inkscape:stockid="Arrow1Send">
      <path
         transform="matrix(-0.2,0,0,-0.2,-1.2,0)"
         style="fill-rule:evenodd;stroke:#000000;stroke-width:1pt;marker-start:none"
         d="M 0,0 5,-5 -12.5,0 5,5 0,0 z"
         id="path4336-4-3"
         inkscape:connector-curvature="0" />
    </marker>
    <marker
       style="overflow:visible"
       id="Arrow1Sstart-3-0"
       refX="0"
       refY="0"
       orient="auto"
       inkscape:stockid="Arrow1Sstart">
      <path
         transform="matrix(0.2,0,0,0.2,1.2,0)"
         style="fill-rule:evenodd;stroke:#000000;stroke-width:1pt;marker-start:none"
         d="M 0,0 5,-5 -12.5,0 5,5 0,0 z"
         id="path4333-5-4"
         inkscape:connector-curvature="0" />
    </marker>
    <marker
       style="overflow:visible"
       id="Arrow1Send-8-8"
       refX="0"
       refY="0"
       orient="auto"
       inkscape:stockid="Arrow1Send">
      <path
         transform="matrix(-0.2,0,0,-0.2,-1.2,0)"
         style="fill-rule:evenodd;stroke:#000000;stroke-width:1pt;marker-start:none"
         d="M 0,0 5,-5 -12.5,0 5,5 0,0 z"
         id="path4336-4-4"
         inkscape:connector-curvature="0" />
    </marker>
    <marker
       style="overflow:visible"
       id="Arrow1Sstart-3Y"
       refX="0"
       refY="0"
       orient="auto"
       inkscape:stockid="Arrow1Sstart-3Y">
      <path
         transform="matrix(0.2,0,0,0.2,1.2,0)"
         style="fill:#ff0000;fill-rule:evenodd;stroke:#ff0000;stroke-width:1pt;marker-start:none"
         d="M 0,0 5,-5 -12.5,0 5,5 0,0 z"
         id="path9331"
         inkscape:connector-curvature="0" />
    </marker>
    <marker
       style="overflow:visible"
       id="Arrow1Send-8m"
       refX="0"
       refY="0"
       orient="auto"
       inkscape:stockid="Arrow1Send-8m">
      <path
         transform="matrix(-0.2,0,0,-0.2,-1.2,0)"
         style="fill:#ff0000;fill-rule:evenodd;stroke:#ff0000;stroke-width:1pt;marker-start:none"
         d="M 0,0 5,-5 -12.5,0 5,5 0,0 z"
         id="path9334"
         inkscape:connector-curvature="0" />
    </marker>
    <marker
       style="overflow:visible"
       id="Arrow1Sstart-3S"
       refX="0"
       refY="0"
       orient="auto"
       inkscape:stockid="Arrow1Sstart-3S">
      <path
         transform="matrix(0.2,0,0,0.2,1.2,0)"
         style="fill:#ff0000;fill-rule:evenodd;stroke:#ff0000;stroke-width:1pt;marker-start:none"
         d="M 0,0 5,-5 -12.5,0 5,5 0,0 z"
         id="path9337"
         inkscape:connector-curvature="0" />
    </marker>
    <marker
       style="overflow:visible"
       id="Arrow1Send-8p"
       refX="0"
       refY="0"
       orient="auto"
       inkscape:stockid="Arrow1Send-8p">
      <path
         transform="matrix(-0.2,0,0,-0.2,-1.2,0)"
         style="fill:#ff0000;fill-rule:evenodd;stroke:#ff0000;stroke-width:1pt;marker-start:none"
         d="M 0,0 5,-5 -12.5,0 5,5 0,0 z"
         id="path9340"
         inkscape:connector-curvature="0" />
    </marker>
    <marker
       style="overflow:visible"
       id="Arrow1Sstart-3c"
       refX="0"
       refY="0"
       orient="auto"
       inkscape:stockid="Arrow1Sstart-3c">
      <path
         transform="matrix(0.2,0,0,0.2,1.2,0)"
         style="fill:#ff0000;fill-rule:evenodd;stroke:#ff0000;stroke-width:1pt;marker-start:none"
         d="M 0,0 5,-5 -12.5,0 5,5 0,0 z"
         id="path9343"
         inkscape:connector-curvature="0" />
    </marker>
    <marker
       style="overflow:visible"
       id="Arrow1Send-8q"
       refX="0"
       refY="0"
       orient="auto"
       inkscape:stockid="Arrow1Send-8q">
      <path
         transform="matrix(-0.2,0,0,-0.2,-1.2,0)"
         style="fill:#ff0000;fill-rule:evenodd;stroke:#ff0000;stroke-width:1pt;marker-start:none"
         d="M 0,0 5,-5 -12.5,0 5,5 0,0 z"
         id="path9346"
         inkscape:connector-curvature="0" />
    </marker>
    <marker
       style="overflow:visible"
       id="Arrow1Sstart-39"
       refX="0"
       refY="0"
       orient="auto"
       inkscape:stockid="Arrow1Sstart">
      <path
         transform="matrix(0.2,0,0,0.2,1.2,0)"
         style="fill-rule:evenodd;stroke:#000000;stroke-width:1pt;marker-start:none"
         d="M 0,0 5,-5 -12.5,0 5,5 0,0 z"
         id="path4333-3"
         inkscape:connector-curvature="0" />
    </marker>
    <marker
       style="overflow:visible"
       id="Arrow1Send-3"
       refX="0"
       refY="0"
       orient="auto"
       inkscape:stockid="Arrow1Send">
      <path
         transform="matrix(-0.2,0,0,-0.2,-1.2,0)"
         style="fill-rule:evenodd;stroke:#000000;stroke-width:1pt;marker-start:none"
         d="M 0,0 5,-5 -12.5,0 5,5 0,0 z"
         id="path4336-46"
         inkscape:connector-curvature="0" />
    </marker>
    <marker
       style="overflow:visible"
       id="marker9883"
       refX="0"
       refY="0"
       orient="auto"
       inkscape:stockid="Arrow1Sstart">
      <path
         transform="matrix(0.2,0,0,0.2,1.2,0)"
         style="fill-rule:evenodd;stroke:#000000;stroke-width:1pt;marker-start:none"
         d="M 0,0 5,-5 -12.5,0 5,5 0,0 z"
         id="path9885"
         inkscape:connector-curvature="0" />
    </marker>
    <marker
       style="overflow:visible"
       id="marker9887"
       refX="0"
       refY="0"
       orient="auto"
       inkscape:stockid="Arrow1Send">
      <path
         transform="matrix(-0.2,0,0,-0.2,-1.2,0)"
         style="fill-rule:evenodd;stroke:#000000;stroke-width:1pt;marker-start:none"
         d="M 0,0 5,-5 -12.5,0 5,5 0,0 z"
         id="path9889"
         inkscape:connector-curvature="0" />
    </marker>
    <marker
       style="overflow:visible"
       id="marker9891"
       refX="0"
       refY="0"
       orient="auto"
       inkscape:stockid="Arrow1Sstart">
      <path
         transform="matrix(0.2,0,0,0.2,1.2,0)"
         style="fill-rule:evenodd;stroke:#000000;stroke-width:1pt;marker-start:none"
         d="M 0,0 5,-5 -12.5,0 5,5 0,0 z"
         id="path9893"
         inkscape:connector-curvature="0" />
    </marker>
    <marker
       style="overflow:visible"
       id="marker9895"
       refX="0"
       refY="0"
       orient="auto"
       inkscape:stockid="Arrow1Send">
      <path
         transform="matrix(-0.2,0,0,-0.2,-1.2,0)"
         style="fill-rule:evenodd;stroke:#000000;stroke-width:1pt;marker-start:none"
         d="M 0,0 5,-5 -12.5,0 5,5 0,0 z"
         id="path9897"
         inkscape:connector-curvature="0" />
    </marker>
    <marker
       style="overflow:visible"
       id="Arrow1Sstart-3S-1"
       refX="0"
       refY="0"
       orient="auto"
       inkscape:stockid="Arrow1Sstart-3S">
      <path
         transform="matrix(0.2,0,0,0.2,1.2,0)"
         style="fill:#ff0000;fill-rule:evenodd;stroke:#ff0000;stroke-width:1pt;marker-start:none"
         d="M 0,0 5,-5 -12.5,0 5,5 0,0 z"
         id="path9337-5"
         inkscape:connector-curvature="0" />
    </marker>
    <marker
       style="overflow:visible"
       id="Arrow1Send-8p-6"
       refX="0"
       refY="0"
       orient="auto"
       inkscape:stockid="Arrow1Send-8p">
      <path
         transform="matrix(-0.2,0,0,-0.2,-1.2,0)"
         style="fill:#ff0000;fill-rule:evenodd;stroke:#ff0000;stroke-width:1pt;marker-start:none"
         d="M 0,0 5,-5 -12.5,0 5,5 0,0 z"
         id="path9340-1"
         inkscape:connector-curvature="0" />
    </marker>
    <marker
       style="overflow:visible"
       id="Arrow1Sstart-3Y-7"
       refX="0"
       refY="0"
       orient="auto"
       inkscape:stockid="Arrow1Sstart-3Y">
      <path
         transform="matrix(0.2,0,0,0.2,1.2,0)"
         style="fill:#ff0000;fill-rule:evenodd;stroke:#ff0000;stroke-width:1pt;marker-start:none"
         d="M 0,0 5,-5 -12.5,0 5,5 0,0 z"
         id="path9331-2"
         inkscape:connector-curvature="0" />
    </marker>
    <marker
       style="overflow:visible"
       id="Arrow1Send-8m-2"
       refX="0"
       refY="0"
       orient="auto"
       inkscape:stockid="Arrow1Send-8m">
      <path
         transform="matrix(-0.2,0,0,-0.2,-1.2,0)"
         style="fill:#ff0000;fill-rule:evenodd;stroke:#ff0000;stroke-width:1pt;marker-start:none"
         d="M 0,0 5,-5 -12.5,0 5,5 0,0 z"
         id="path9334-9"
         inkscape:connector-curvature="0" />
    </marker>
    <marker
       style="overflow:visible"
       id="Arrow1Sstart-3c-2"
       refX="0"
       refY="0"
       orient="auto"
       inkscape:stockid="Arrow1Sstart-3c">
      <path
         transform="matrix(0.2,0,0,0.2,1.2,0)"
         style="fill:#ff0000;fill-rule:evenodd;stroke:#ff0000;stroke-width:1pt;marker-start:none"
         d="M 0,0 5,-5 -12.5,0 5,5 0,0 z"
         id="path9343-8"
         inkscape:connector-curvature="0" />
    </marker>
    <marker
       style="overflow:visible"
       id="Arrow1Send-8q-1"
       refX="0"
       refY="0"
       orient="auto"
       inkscape:stockid="Arrow1Send-8q">
      <path
         transform="matrix(-0.2,0,0,-0.2,-1.2,0)"
         style="fill:#ff0000;fill-rule:evenodd;stroke:#ff0000;stroke-width:1pt;marker-start:none"
         d="M 0,0 5,-5 -12.5,0 5,5 0,0 z"
         id="path9346-2"
         inkscape:connector-curvature="0" />
    </marker>
    <marker
       style="overflow:visible"
       id="Arrow1Send-5"
       refX="0"
       refY="0"
       orient="auto"
       inkscape:stockid="Arrow1Send">
      <path
         transform="matrix(-0.2,0,0,-0.2,-1.2,0)"
         style="fill-rule:evenodd;stroke:#000000;stroke-width:1pt;marker-start:none"
         d="M 0,0 5,-5 -12.5,0 5,5 0,0 z"
         id="path4336-5"
         inkscape:connector-curvature="0" />
    </marker>
    <marker
       style="overflow:visible"
       id="Arrow1Sstart-5"
       refX="0"
       refY="0"
       orient="auto"
       inkscape:stockid="Arrow1Sstart">
      <path
         transform="matrix(0.2,0,0,0.2,1.2,0)"
         style="fill-rule:evenodd;stroke:#000000;stroke-width:1pt;marker-start:none"
         d="M 0,0 5,-5 -12.5,0 5,5 0,0 z"
         id="path4333-8"
         inkscape:connector-curvature="0" />
    </marker>
    <marker
       style="overflow:visible"
       id="Arrow1Send-1"
       refX="0"
       refY="0"
       orient="auto"
       inkscape:stockid="Arrow1Send">
      <path
         transform="matrix(-0.2,0,0,-0.2,-1.2,0)"
         style="fill-rule:evenodd;stroke:#000000;stroke-width:1pt;marker-start:none"
         d="M 0,0 5,-5 -12.5,0 5,5 0,0 z"
         id="path4336-3"
         inkscape:connector-curvature="0" />
    </marker>
    <marker
       style="overflow:visible"
       id="Arrow1Sstart-1"
       refX="0"
       refY="0"
       orient="auto"
       inkscape:stockid="Arrow1Sstart">
      <path
         transform="matrix(0.2,0,0,0.2,1.2,0)"
         style="fill-rule:evenodd;stroke:#000000;stroke-width:1pt;marker-start:none"
         d="M 0,0 5,-5 -12.5,0 5,5 0,0 z"
         id="path4333-4"
         inkscape:connector-curvature="0" />
    </marker>
  </defs>
  <metadata
     id="metadata7">
    <rdf:RDF>
      <cc:Work
         rdf:about="">
        <dc:format>image/svg+xml</dc:format>
        <dc:type
           rdf:resource="http://purl.org/dc/dcmitype/StillImage" />
        <dc:title />
      </cc:Work>
    </rdf:RDF>
  </metadata>
  <g
     transform="translate(-135.28364,21.82454)"
     id="layer1"
     inkscape:groupmode="layer"
     inkscape:label="Layer 1">
    <path
       style="fill:none;stroke:#000000;stroke-width:1px;stroke-linecap:butt;stroke-linejoin:miter;stroke-opacity:1;marker-start:url(#Arrow1Sstart)"
       d="m 154.61192,40.505099 0,52.950039"
       id="path4185-1-0-8"
       inkscape:connector-curvature="0" />
    <g
       style="font-style:normal;font-variant:normal;font-weight:normal;font-stretch:normal;letter-spacing:normal;word-spacing:normal;text-anchor:start;fill:none;stroke:#000000;stroke-linecap:butt;stroke-linejoin:miter;stroke-miterlimit:10.43299961;stroke-opacity:1;stroke-dasharray:none;stroke-dashoffset:0"
       ns0:preamble="/home/josh/Desktop/preamble (copy).txt"
       ns0:text="\\[\nt\n\\]"
       word-spacing="normal"
       letter-spacing="normal"
       font-size-adjust="none"
       font-stretch="normal"
       font-weight="normal"
       font-variant="normal"
       font-style="normal"
       stroke-miterlimit="10.433"
       xml:space="preserve"
       transform="matrix(1,0,0,-1,-3.3592813,807.23488)"
       id="g4270-8-3-0">
<path
   style="fill:#000000;stroke-width:0"
   inkscape:connector-curvature="0"
   id="path4272-6-4-9"
   d="m 395.54,711.11 h 0.94 c 0.2,0 0.3,0 0.3,0.19 0,0.11 -0.1,0.11 -0.28,0.11 h -0.88 c 0.36,1.42 0.41,1.62 0.41,1.68 0,0.17 -0.12,0.26 -0.29,0.26 -0.03,0 -0.31,-0.01 -0.4,-0.35 l -0.39,-1.59 h -0.93 c -0.2,0 -0.3,0 -0.3,-0.19 0,-0.11 0.08,-0.11 0.28,-0.11 h 0.88 c -0.72,-2.83 -0.76,-3 -0.76,-3.18 0,-0.54 0.38,-0.91 0.91,-0.91 1.02,0 1.59,1.45 1.59,1.53 0,0.1 -0.08,0.1 -0.12,0.1 -0.09,0 -0.1,-0.03 -0.15,-0.14 -0.43,-1.04 -0.96,-1.28 -1.3,-1.28 -0.2,0 -0.31,0.13 -0.31,0.46 0,0.24 0.03,0.31 0.06,0.48 z" />
</g>    <path
       sodipodi:nodetypes="cc"
       style="fill:none;stroke:#000000;stroke-width:1px;stroke-linecap:butt;stroke-linejoin:miter;stroke-opacity:1;marker-end:url(#Arrow1Send)"
       d="m 143.16949,89.177843 253.7394,0"
       id="path4187-6-5-5"
       inkscape:connector-curvature="0" />
    <path
       style="fill:none;stroke:#000000;stroke-width:1px;stroke-linecap:butt;stroke-linejoin:miter;stroke-opacity:1;marker-start:url(#Arrow1Sstart)"
       d="m 154.61918,100.56364 0,45.71847"
       id="path4185-1-0-8-9"
       inkscape:connector-curvature="0" />
    <g
       style="font-style:normal;font-variant:normal;font-weight:normal;font-stretch:normal;letter-spacing:normal;word-spacing:normal;text-anchor:start;fill:none;stroke:#000000;stroke-linecap:butt;stroke-linejoin:miter;stroke-miterlimit:10.43299961;stroke-opacity:1;stroke-dasharray:none;stroke-dashoffset:0"
       ns0:preamble="/home/josh/Desktop/preamble (copy).txt"
       ns0:text="\\[\nt\n\\]"
       word-spacing="normal"
       letter-spacing="normal"
       font-size-adjust="none"
       font-stretch="normal"
       font-weight="normal"
       font-variant="normal"
       font-style="normal"
       stroke-miterlimit="10.433"
       xml:space="preserve"
       transform="matrix(1,0,0,-1,-2.3006915,861.74948)"
       id="g4270-8-3-0-3">
<path
   style="fill:#000000;stroke-width:0"
   inkscape:connector-curvature="0"
   id="path4272-6-4-9-9"
   d="m 395.54,711.11 h 0.94 c 0.2,0 0.3,0 0.3,0.19 0,0.11 -0.1,0.11 -0.28,0.11 h -0.88 c 0.36,1.42 0.41,1.62 0.41,1.68 0,0.17 -0.12,0.26 -0.29,0.26 -0.03,0 -0.31,-0.01 -0.4,-0.35 l -0.39,-1.59 h -0.93 c -0.2,0 -0.3,0 -0.3,-0.19 0,-0.11 0.08,-0.11 0.28,-0.11 h 0.88 c -0.72,-2.83 -0.76,-3 -0.76,-3.18 0,-0.54 0.38,-0.91 0.91,-0.91 1.02,0 1.59,1.45 1.59,1.53 0,0.1 -0.08,0.1 -0.12,0.1 -0.09,0 -0.1,-0.03 -0.15,-0.14 -0.43,-1.04 -0.96,-1.28 -1.3,-1.28 -0.2,0 -0.31,0.13 -0.31,0.46 0,0.24 0.03,0.31 0.06,0.48 z" />
</g>    <path
       sodipodi:nodetypes="cccccccccc"
       inkscape:connector-curvature="0"
       id="path4219-9-9-4-1"
       d="m 143.67214,141.28823 28.15014,-0.007 28.70146,-12.73372 28.67386,12.7118 28.70181,-12.75136 28.67988,12.73158 28.70781,-12.73158 28.67988,12.73158 28.70783,-12.73158 28.67352,12.72944"
       style="fill:none;stroke:#0000ff;stroke-width:1px;stroke-linecap:butt;stroke-linejoin:miter;stroke-opacity:1" />
    <path
       sodipodi:nodetypes="cc"
       style="fill:none;stroke:#000000;stroke-width:1px;stroke-linecap:butt;stroke-linejoin:miter;stroke-opacity:1;marker-end:url(#Arrow1Send)"
       d="m 143.17675,142.00482 253.73941,0"
       id="path4187-6-5-5-5"
       inkscape:connector-curvature="0" />
    <g
       style="font-style:normal;font-variant:normal;font-weight:normal;font-stretch:normal;letter-spacing:normal;word-spacing:normal;text-anchor:start;fill:none;stroke:#000000;stroke-linecap:butt;stroke-linejoin:miter;stroke-miterlimit:10.43299961;stroke-opacity:1;stroke-dasharray:none;stroke-dashoffset:0"
       ns0:preamble="/home/josh/Desktop/preamble (copy).txt"
       ns0:text="\\[\nV_{\\text{out}}\n\\]"
       word-spacing="normal"
       letter-spacing="normal"
       font-size-adjust="none"
       font-stretch="normal"
       font-weight="normal"
       font-variant="normal"
       font-style="normal"
       stroke-miterlimit="10.433"
       xml:space="preserve"
       transform="matrix(1,0,0,-1,-251.59934,752.21723)"
       id="content">
<path
   id="path16553"
   d="m 392.65,712.79 0.05,0.07 0.04,0.06 0.05,0.07 0.04,0.06 0.04,0.05 0.05,0.05 0.04,0.05 0.04,0.04 0.05,0.04 0.04,0.04 0.04,0.03 0.04,0.04 0.04,0.02 0.04,0.03 0.04,0.02 0.04,0.02 0.04,0.02 0.04,0.02 0.04,0.02 0.04,0.01 0.04,0.01 0.04,0.01 0.03,0.01 0.04,0.01 0.04,0 0.03,0.01 0.08,0 0.07,0.01 0.07,0 c 0.12,0.01 0.13,0.18 0.13,0.19 0,0.08 -0.05,0.12 -0.13,0.12 -0.26,0 -0.55,-0.03 -0.82,-0.03 -0.33,0 -0.67,0.03 -0.99,0.03 -0.06,0 -0.19,0 -0.19,-0.19 0,-0.11 0.09,-0.12 0.16,-0.12 0.27,-0.02 0.46,-0.12 0.46,-0.32 0,-0.15 -0.15,-0.37 -0.15,-0.38 l -3.06,-4.86 -0.68,5.27 c 0,0.16 0.23,0.29 0.69,0.29 0.14,0 0.25,0 0.25,0.2 0,0.09 -0.08,0.11 -0.14,0.11 -0.4,0 -0.83,-0.03 -1.24,-0.03 -0.17,0 -0.36,0.01 -0.54,0.01 -0.18,0 -0.37,0.02 -0.54,0.02 -0.07,0 -0.19,0 -0.19,-0.19 0,-0.12 0.09,-0.12 0.25,-0.12 0.56,0 0.57,-0.09 0.6,-0.33 l 0.78,-6.14 c 0.03,-0.2 0.07,-0.23 0.2,-0.23 0.16,0 0.2,0.05 0.28,0.18 z"
   inkscape:connector-curvature="0"
   style="fill:#000000;stroke-width:0" />
<path
   id="path16555"
   d="m 395.89,707.11 -0.01,0.08 0,0.08 -0.01,0.08 -0.02,0.08 -0.02,0.08 -0.02,0.07 -0.03,0.08 -0.03,0.07 -0.03,0.07 -0.04,0.07 -0.04,0.07 -0.04,0.07 -0.05,0.06 -0.05,0.06 -0.05,0.06 -0.06,0.06 -0.06,0.05 -0.06,0.05 -0.06,0.05 -0.07,0.05 -0.07,0.04 -0.07,0.04 -0.07,0.04 -0.08,0.03 -0.08,0.03 -0.08,0.03 -0.08,0.02 -0.08,0.02 -0.09,0.01 -0.08,0.01 -0.09,0.01 -0.09,0 v -0.19 c 0.41,0 0.7,-0.2 0.86,-0.41 0.19,-0.27 0.21,-0.62 0.21,-0.96 0,-0.33 -0.02,-0.7 -0.22,-0.98 -0.19,-0.27 -0.51,-0.41 -0.85,-0.41 h 0 c -0.26,0 -0.63,0.09 -0.86,0.43 -0.19,0.28 -0.21,0.64 -0.21,0.96 0,0.3 0,0.71 0.25,1.01 0.17,0.21 0.47,0.36 0.82,0.36 v 0.19 c -0.96,0 -1.71,-0.75 -1.71,-1.62 0,-0.86 0.77,-1.55 1.71,-1.55 0.94,0 1.71,0.69 1.71,1.55 z"
   inkscape:connector-curvature="0"
   style="fill:#000000;stroke-width:0" />
<path
   id="path16557"
   d="m 398.69,708.62 v -0.25 c 0.46,0 0.52,-0.05 0.52,-0.39 v -1.19 c 0,-0.61 -0.4,-1.03 -0.93,-1.03 -0.63,0 -0.66,0.29 -0.66,0.65 v 2.29 l -1.07,-0.08 v -0.25 c 0.52,0 0.52,-0.02 0.52,-0.64 v -1.04 c 0,-0.48 0,-1.13 1.16,-1.13 0.16,0 0.67,0 1,0.59 h 0.01 v -0.59 l 1.04,0.07 v 0.25 c -0.46,0 -0.52,0.05 -0.52,0.39 v 2.43 z"
   inkscape:connector-curvature="0"
   style="fill:#000000;stroke-width:0" />
<path
   id="path16559"
   d="m 401.97,708.38 h 1.09 v 0.25 h -1.09 v 1.28 h -0.23 c -0.01,-0.63 -0.29,-1.32 -0.96,-1.34 v -0.19 h 0.64 v -1.88 c 0,-0.78 0.59,-0.94 0.98,-0.94 0.46,0 0.79,0.4 0.79,0.95 v 0.38 h -0.24 v -0.38 c 0,-0.47 -0.22,-0.73 -0.5,-0.73 -0.48,0 -0.48,0.59 -0.48,0.71 z"
   inkscape:connector-curvature="0"
   style="fill:#000000;stroke-width:0" />
</g>    <g
       style="font-style:normal;font-variant:normal;font-weight:normal;font-stretch:normal;letter-spacing:normal;word-spacing:normal;text-anchor:start;fill:none;stroke:#000000;stroke-linecap:butt;stroke-linejoin:miter;stroke-miterlimit:10.43299961;stroke-opacity:1;stroke-dasharray:none;stroke-dashoffset:0"
       ns0:preamble="/home/josh/Desktop/preamble (copy).txt"
       ns0:text="\\[\nV_{\\text{out}}\n\\]"
       word-spacing="normal"
       letter-spacing="normal"
       font-size-adjust="none"
       font-stretch="normal"
       font-weight="normal"
       font-variant="normal"
       font-style="normal"
       stroke-miterlimit="10.433"
       xml:space="preserve"
       transform="matrix(1,0,0,-1,-251.66636,811.54029)"
       id="content-8">
<path
   id="path16553-2"
   d="m 392.65,712.79 0.05,0.07 0.04,0.06 0.05,0.07 0.04,0.06 0.04,0.05 0.05,0.05 0.04,0.05 0.04,0.04 0.05,0.04 0.04,0.04 0.04,0.03 0.04,0.04 0.04,0.02 0.04,0.03 0.04,0.02 0.04,0.02 0.04,0.02 0.04,0.02 0.04,0.02 0.04,0.01 0.04,0.01 0.04,0.01 0.03,0.01 0.04,0.01 0.04,0 0.03,0.01 0.08,0 0.07,0.01 0.07,0 c 0.12,0.01 0.13,0.18 0.13,0.19 0,0.08 -0.05,0.12 -0.13,0.12 -0.26,0 -0.55,-0.03 -0.82,-0.03 -0.33,0 -0.67,0.03 -0.99,0.03 -0.06,0 -0.19,0 -0.19,-0.19 0,-0.11 0.09,-0.12 0.16,-0.12 0.27,-0.02 0.46,-0.12 0.46,-0.32 0,-0.15 -0.15,-0.37 -0.15,-0.38 l -3.06,-4.86 -0.68,5.27 c 0,0.16 0.23,0.29 0.69,0.29 0.14,0 0.25,0 0.25,0.2 0,0.09 -0.08,0.11 -0.14,0.11 -0.4,0 -0.83,-0.03 -1.24,-0.03 -0.17,0 -0.36,0.01 -0.54,0.01 -0.18,0 -0.37,0.02 -0.54,0.02 -0.07,0 -0.19,0 -0.19,-0.19 0,-0.12 0.09,-0.12 0.25,-0.12 0.56,0 0.57,-0.09 0.6,-0.33 l 0.78,-6.14 c 0.03,-0.2 0.07,-0.23 0.2,-0.23 0.16,0 0.2,0.05 0.28,0.18 z"
   inkscape:connector-curvature="0"
   style="fill:#000000;stroke-width:0" />
<path
   id="path16555-5"
   d="m 395.89,707.11 -0.01,0.08 0,0.08 -0.01,0.08 -0.02,0.08 -0.02,0.08 -0.02,0.07 -0.03,0.08 -0.03,0.07 -0.03,0.07 -0.04,0.07 -0.04,0.07 -0.04,0.07 -0.05,0.06 -0.05,0.06 -0.05,0.06 -0.06,0.06 -0.06,0.05 -0.06,0.05 -0.06,0.05 -0.07,0.05 -0.07,0.04 -0.07,0.04 -0.07,0.04 -0.08,0.03 -0.08,0.03 -0.08,0.03 -0.08,0.02 -0.08,0.02 -0.09,0.01 -0.08,0.01 -0.09,0.01 -0.09,0 v -0.19 c 0.41,0 0.7,-0.2 0.86,-0.41 0.19,-0.27 0.21,-0.62 0.21,-0.96 0,-0.33 -0.02,-0.7 -0.22,-0.98 -0.19,-0.27 -0.51,-0.41 -0.85,-0.41 h 0 c -0.26,0 -0.63,0.09 -0.86,0.43 -0.19,0.28 -0.21,0.64 -0.21,0.96 0,0.3 0,0.71 0.25,1.01 0.17,0.21 0.47,0.36 0.82,0.36 v 0.19 c -0.96,0 -1.71,-0.75 -1.71,-1.62 0,-0.86 0.77,-1.55 1.71,-1.55 0.94,0 1.71,0.69 1.71,1.55 z"
   inkscape:connector-curvature="0"
   style="fill:#000000;stroke-width:0" />
<path
   id="path16557-3"
   d="m 398.69,708.62 v -0.25 c 0.46,0 0.52,-0.05 0.52,-0.39 v -1.19 c 0,-0.61 -0.4,-1.03 -0.93,-1.03 -0.63,0 -0.66,0.29 -0.66,0.65 v 2.29 l -1.07,-0.08 v -0.25 c 0.52,0 0.52,-0.02 0.52,-0.64 v -1.04 c 0,-0.48 0,-1.13 1.16,-1.13 0.16,0 0.67,0 1,0.59 h 0.01 v -0.59 l 1.04,0.07 v 0.25 c -0.46,0 -0.52,0.05 -0.52,0.39 v 2.43 z"
   inkscape:connector-curvature="0"
   style="fill:#000000;stroke-width:0" />
<path
   id="path16559-7"
   d="m 401.97,708.38 h 1.09 v 0.25 h -1.09 v 1.28 h -0.23 c -0.01,-0.63 -0.29,-1.32 -0.96,-1.34 v -0.19 h 0.64 v -1.88 c 0,-0.78 0.59,-0.94 0.98,-0.94 0.46,0 0.79,0.4 0.79,0.95 v 0.38 h -0.24 v -0.38 c 0,-0.47 -0.22,-0.73 -0.5,-0.73 -0.48,0 -0.48,0.59 -0.48,0.71 z"
   inkscape:connector-curvature="0"
   style="fill:#000000;stroke-width:0" />
</g>    <path
       style="fill:none;stroke:#000000;stroke-width:1px;stroke-linecap:butt;stroke-linejoin:miter;stroke-opacity:1;marker-start:url(#Arrow1Sstart)"
       d="m 154.63498,-19.616663 0,52.950037"
       id="path4185-1-0-8-91"
       inkscape:connector-curvature="0" />
    <path
       sodipodi:nodetypes="cc"
       style="fill:none;stroke:#000000;stroke-width:1px;stroke-linecap:butt;stroke-linejoin:miter;stroke-opacity:1;marker-end:url(#Arrow1Send)"
       d="m 143.19255,29.056084 253.7394,0"
       id="path4187-6-5-5-0"
       inkscape:connector-curvature="0" />
    <g
       style="font-style:normal;font-variant:normal;font-weight:normal;font-stretch:normal;letter-spacing:normal;word-spacing:normal;text-anchor:start;fill:none;stroke:#000000;stroke-linecap:butt;stroke-linejoin:miter;stroke-miterlimit:10.43299961;stroke-opacity:1;stroke-dasharray:none;stroke-dashoffset:0"
       ns0:preamble="/home/josh/Desktop/preamble (copy).txt"
       ns0:text="\\[\nV_{\\text{out}}\n\\]"
       word-spacing="normal"
       letter-spacing="normal"
       font-size-adjust="none"
       font-stretch="normal"
       font-weight="normal"
       font-variant="normal"
       font-style="normal"
       stroke-miterlimit="10.433"
       xml:space="preserve"
       transform="matrix(1,0,0,-1,-251.57628,692.09546)"
       id="content-2">
<path
   id="path16553-1"
   d="m 392.65,712.79 0.05,0.07 0.04,0.06 0.05,0.07 0.04,0.06 0.04,0.05 0.05,0.05 0.04,0.05 0.04,0.04 0.05,0.04 0.04,0.04 0.04,0.03 0.04,0.04 0.04,0.02 0.04,0.03 0.04,0.02 0.04,0.02 0.04,0.02 0.04,0.02 0.04,0.02 0.04,0.01 0.04,0.01 0.04,0.01 0.03,0.01 0.04,0.01 0.04,0 0.03,0.01 0.08,0 0.07,0.01 0.07,0 c 0.12,0.01 0.13,0.18 0.13,0.19 0,0.08 -0.05,0.12 -0.13,0.12 -0.26,0 -0.55,-0.03 -0.82,-0.03 -0.33,0 -0.67,0.03 -0.99,0.03 -0.06,0 -0.19,0 -0.19,-0.19 0,-0.11 0.09,-0.12 0.16,-0.12 0.27,-0.02 0.46,-0.12 0.46,-0.32 0,-0.15 -0.15,-0.37 -0.15,-0.38 l -3.06,-4.86 -0.68,5.27 c 0,0.16 0.23,0.29 0.69,0.29 0.14,0 0.25,0 0.25,0.2 0,0.09 -0.08,0.11 -0.14,0.11 -0.4,0 -0.83,-0.03 -1.24,-0.03 -0.17,0 -0.36,0.01 -0.54,0.01 -0.18,0 -0.37,0.02 -0.54,0.02 -0.07,0 -0.19,0 -0.19,-0.19 0,-0.12 0.09,-0.12 0.25,-0.12 0.56,0 0.57,-0.09 0.6,-0.33 l 0.78,-6.14 c 0.03,-0.2 0.07,-0.23 0.2,-0.23 0.16,0 0.2,0.05 0.28,0.18 z"
   inkscape:connector-curvature="0"
   style="fill:#000000;stroke-width:0" />
<path
   id="path16555-2"
   d="m 395.89,707.11 -0.01,0.08 0,0.08 -0.01,0.08 -0.02,0.08 -0.02,0.08 -0.02,0.07 -0.03,0.08 -0.03,0.07 -0.03,0.07 -0.04,0.07 -0.04,0.07 -0.04,0.07 -0.05,0.06 -0.05,0.06 -0.05,0.06 -0.06,0.06 -0.06,0.05 -0.06,0.05 -0.06,0.05 -0.07,0.05 -0.07,0.04 -0.07,0.04 -0.07,0.04 -0.08,0.03 -0.08,0.03 -0.08,0.03 -0.08,0.02 -0.08,0.02 -0.09,0.01 -0.08,0.01 -0.09,0.01 -0.09,0 v -0.19 c 0.41,0 0.7,-0.2 0.86,-0.41 0.19,-0.27 0.21,-0.62 0.21,-0.96 0,-0.33 -0.02,-0.7 -0.22,-0.98 -0.19,-0.27 -0.51,-0.41 -0.85,-0.41 h 0 c -0.26,0 -0.63,0.09 -0.86,0.43 -0.19,0.28 -0.21,0.64 -0.21,0.96 0,0.3 0,0.71 0.25,1.01 0.17,0.21 0.47,0.36 0.82,0.36 v 0.19 c -0.96,0 -1.71,-0.75 -1.71,-1.62 0,-0.86 0.77,-1.55 1.71,-1.55 0.94,0 1.71,0.69 1.71,1.55 z"
   inkscape:connector-curvature="0"
   style="fill:#000000;stroke-width:0" />
<path
   id="path16557-5"
   d="m 398.69,708.62 v -0.25 c 0.46,0 0.52,-0.05 0.52,-0.39 v -1.19 c 0,-0.61 -0.4,-1.03 -0.93,-1.03 -0.63,0 -0.66,0.29 -0.66,0.65 v 2.29 l -1.07,-0.08 v -0.25 c 0.52,0 0.52,-0.02 0.52,-0.64 v -1.04 c 0,-0.48 0,-1.13 1.16,-1.13 0.16,0 0.67,0 1,0.59 h 0.01 v -0.59 l 1.04,0.07 v 0.25 c -0.46,0 -0.52,0.05 -0.52,0.39 v 2.43 z"
   inkscape:connector-curvature="0"
   style="fill:#000000;stroke-width:0" />
<path
   id="path16559-73"
   d="m 401.97,708.38 h 1.09 v 0.25 h -1.09 v 1.28 h -0.23 c -0.01,-0.63 -0.29,-1.32 -0.96,-1.34 v -0.19 h 0.64 v -1.88 c 0,-0.78 0.59,-0.94 0.98,-0.94 0.46,0 0.79,0.4 0.79,0.95 v 0.38 h -0.24 v -0.38 c 0,-0.47 -0.22,-0.73 -0.5,-0.73 -0.48,0 -0.48,0.59 -0.48,0.71 z"
   inkscape:connector-curvature="0"
   style="fill:#000000;stroke-width:0" />
</g>    <path
       sodipodi:nodetypes="cccccccccccccccccc"
       inkscape:connector-curvature="0"
       id="path4219-9-9-4-1-5"
       d="m 147.67213,28.060814 24.20228,0 0,-34.2918468 28.69678,0 0,34.2918468 28.69678,0 0,-34.2918468 28.69678,0 0,34.2918468 28.69678,0 0,-34.2918468 28.69678,0 0,34.2918468 28.69678,0 0,-34.2918468 28.69679,0 0,34.2918468 17.5107,0"
       style="fill:none;stroke:#0000ff;stroke-width:1px;stroke-linecap:butt;stroke-linejoin:miter;stroke-opacity:1" />
    <path
       style="fill:none;stroke:#ff0000;stroke-width:1;stroke-linecap:butt;stroke-linejoin:miter;stroke-miterlimit:4;stroke-opacity:1;stroke-dasharray:2, 4;stroke-dashoffset:0"
       d="m 172.85899,-14.266165 0,162.305275"
       id="path16760"
       inkscape:connector-curvature="0" />
    <path
       style="fill:none;stroke:#0000ff;stroke-width:1px;stroke-linecap:butt;stroke-linejoin:miter;stroke-opacity:1"
       d="m 396.15246,87.611704 c -0.25217,-0.025 -0.50438,-0.05158 -0.75654,-0.0799 -0.25218,-0.0283 -0.50435,-0.05846 -0.75654,-0.0907 -0.25219,-0.03224 -0.50436,-0.06648 -0.75654,-0.103056 -0.25218,-0.03661 -0.50437,-0.07551 -0.75655,-0.117014 -0.25219,-0.04153 -0.50436,-0.08566 -0.75654,-0.132892 -0.25218,-0.04723 -0.50436,-0.09739 -0.75654,-0.150946 -0.2522,-0.05358 -0.50437,-0.110621 -0.75654,-0.171441 -0.25218,-0.06086 -0.50437,-0.125553 -0.75656,-0.194703 -0.25216,-0.06913 -0.50435,-0.142665 -0.75654,-0.221145 -0.25217,-0.07851 -0.50435,-0.161999 -0.75654,-0.251179 -0.25218,-0.08917 -0.50436,-0.183957 -0.75655,-0.285272 -0.25216,-0.101284 -0.50435,-0.208972 -0.75654,-0.324003 -0.25217,-0.11503 -0.50436,-0.237349 -0.75654,-0.368 -0.25218,-0.130643 -0.50435,-0.269575 -0.75653,-0.417964 -0.2522,-0.148387 -0.50436,-0.306166 -0.75654,-0.474716 -0.25219,-0.168534 -0.50437,-0.347738 -0.75655,-0.539158 -0.25218,-0.191419 -0.50436,-0.39497 -0.75654,-0.612374 -0.25219,-0.217396 -0.50437,-0.448581 -0.75655,-0.695503 -0.25219,-0.246923 -0.50435,-0.509484 -0.75654,-0.789939 -0.25218,-0.280447 -0.50438,-0.578665 -0.75654,-0.897186 -0.25218,-0.318522 -0.50437,-0.65723 -0.75654,-1.018999 -0.25219,-0.361777 -0.50438,-0.746466 -0.75654,-1.157356 -0.2522,-0.410898 -0.50437,-0.847815 -0.75654,-1.314501 -0.25219,-0.466666 -0.50437,-0.962911 -0.75656,-1.492964 -0.25218,-0.530043 -0.50436,-1.093663 -0.75653,-1.695665 -0.25219,-0.602009 -0.50437,-1.242151 -0.75655,-1.92589 -0.25219,-0.68374 -0.50436,-1.410802 -0.75654,-2.187377 -0.25217,-0.776558 -0.50436,-1.602338 -0.75655,-2.484362 -0.25216,-0.882007 -0.50436,-1.8199 -0.75653,-2.821661 -0.2522,-1.001762 -0.50437,-2.066998 -0.75655,-3.204767 -0.25217,-1.137769 -0.50435,-2.347637 -0.72919,-3.609221 -0.47899,0.223275 -0.73412,0.241952 -1.30171,0.460551 -0.56763,0.218584 -1.44773,0.636972 -2.01531,0.881757 -0.56764,0.244771 -1.13524,0.503336 -1.70287,0.77744 -0.5676,0.274097 -1.13523,0.563646 -1.70285,0.87059 -0.56761,0.306943 -1.1352,0.631186 -1.70281,0.974905 -0.56762,0.343725 -1.13522,0.70681 -1.70284,1.091722 -0.56759,0.384904 -1.13524,0.791497 -1.70282,1.222523 -0.56762,0.431027 -1.13524,0.886334 -1.70287,1.369011 -0.5676,0.482669 -1.1352,0.992533 -1.70279,1.533038 -0.56762,0.540504 -1.13526,1.11146 -1.70284,1.716723 -0.56764,0.60527 -1.13524,1.244643 -1.70287,1.922426 -0.56759,0.67779 -1.13521,1.393766 -1.70283,2.152767 -0.5676,0.759001 -1.13522,1.560765 -1.70283,2.41071 -0.5676,0.849946 -1.13521,1.747774 -1.70283,2.699559 -0.56761,0.951779 -1.13521,1.957186 -1.70282,3.023014 -0.56762,1.065827 -1.13524,2.191696 -1.70286,3.385228 -0.56758,1.193526 -1.13521,2.454453 -1.70136,3.79185 -0.24457,-0.03144 -3.72556,-0.249824 -3.97772,-0.278144 -0.25218,-0.0283 -2.40113,-0.314205 -2.65332,-0.346445 -0.25219,-0.03224 -0.50436,-0.06648 -0.75654,-0.103056 -0.25218,-0.03661 -0.50437,-0.07551 -0.75655,-0.117014 -0.25219,-0.04153 -0.50436,-0.08566 -0.75654,-0.132892 -0.25218,-0.04723 -0.50436,-0.09739 -0.75654,-0.150946 -0.2522,-0.05358 -0.50437,-0.110621 -0.75654,-0.171441 -0.25218,-0.06086 -0.50437,-0.125553 -0.75656,-0.194703 -0.25216,-0.06913 -0.50435,-0.142665 -0.75654,-0.221145 -0.25217,-0.07851 -0.50435,-0.161999 -0.75654,-0.251179 -0.25218,-0.08917 -0.50436,-0.183957 -0.75655,-0.285272 -0.25216,-0.101284 -0.50435,-0.208972 -0.75654,-0.324003 -0.25217,-0.11503 -0.50436,-0.237349 -0.75654,-0.368 -0.25218,-0.130643 -0.50435,-0.269575 -0.75653,-0.417964 -0.2522,-0.148387 -0.50436,-0.306166 -0.75654,-0.474716 -0.25219,-0.168534 -0.50437,-0.347738 -0.75655,-0.539158 -0.25218,-0.191419 -0.50436,-0.39497 -0.75654,-0.612374 -0.25219,-0.217396 -0.50437,-0.448581 -0.75655,-0.695503 -0.25219,-0.246923 -0.50435,-0.509484 -0.75654,-0.789939 -0.25218,-0.280447 -0.50438,-0.578665 -0.75654,-0.897186 -0.25218,-0.318522 -0.50437,-0.65723 -0.75654,-1.018999 -0.25219,-0.361777 -0.50438,-0.746466 -0.75654,-1.157356 -0.2522,-0.410898 -0.50437,-0.847815 -0.75654,-1.314501 -0.25219,-0.466666 -0.50437,-0.962911 -0.75656,-1.492964 -0.25218,-0.530043 -0.50436,-1.093663 -0.75653,-1.695665 -0.25219,-0.602009 -0.50437,-1.242151 -0.75655,-1.92589 -0.25219,-0.68374 -0.50436,-1.410802 -0.75654,-2.187377 -0.25217,-0.776558 -0.50436,-1.602338 -0.75655,-2.484362 -0.25216,-0.882007 -0.50436,-1.8199 -0.75653,-2.821661 -0.2522,-1.001762 -0.50437,-2.066998 -0.75655,-3.204767 -0.25217,-1.137769 -0.50435,-2.347637 -0.72919,-3.609221 -0.47899,0.223275 -0.73412,0.241952 -1.30171,0.460551 -0.56763,0.218584 -1.44773,0.636972 -2.01531,0.881757 -0.56764,0.244771 -1.13524,0.503336 -1.70287,0.77744 -0.5676,0.274097 -1.13523,0.563646 -1.70285,0.87059 -0.56761,0.306943 -1.1352,0.631186 -1.70281,0.974905 -0.56762,0.343725 -1.13522,0.70681 -1.70284,1.091722 -0.56759,0.384904 -1.13524,0.791497 -1.70282,1.222523 -0.56762,0.431027 -1.13524,0.886334 -1.70287,1.369011 -0.5676,0.482669 -1.1352,0.992533 -1.70279,1.533038 -0.56762,0.540504 -1.13526,1.11146 -1.70284,1.716723 -0.56764,0.60527 -1.13524,1.244643 -1.70287,1.922426 -0.56759,0.67779 -1.13521,1.393766 -1.70283,2.152767 -0.5676,0.759001 -1.13522,1.560765 -1.70283,2.41071 -0.5676,0.849946 -1.13521,1.747774 -1.70283,2.699559 -0.56761,0.951779 -1.13521,1.957186 -1.70282,3.023014 -0.56762,1.065827 -1.13524,2.191696 -1.70286,3.385228 -0.56758,1.193526 -0.96471,2.443797 -1.53845,3.787629 l -0.0488,0.01916 c -0.25217,-0.025 -4.03153,-0.296669 -4.28369,-0.324989 -0.25218,-0.0283 -2.20932,-0.282237 -2.46151,-0.314477 -0.25219,-0.03224 -0.50436,-0.06648 -0.75654,-0.103056 -0.25218,-0.03661 -0.50437,-0.07551 -0.75655,-0.117014 -0.25219,-0.04153 -0.50436,-0.08566 -0.75654,-0.132892 -0.25218,-0.04723 -0.50436,-0.09739 -0.75654,-0.150946 -0.2522,-0.05358 -0.50437,-0.110621 -0.75654,-0.171441 -0.25218,-0.06086 -0.50437,-0.125553 -0.75656,-0.194703 -0.25216,-0.06913 -0.50435,-0.142665 -0.75654,-0.221145 -0.25217,-0.07851 -0.50435,-0.161999 -0.75654,-0.251179 -0.25218,-0.08917 -0.50436,-0.183957 -0.75655,-0.285272 -0.25216,-0.101284 -0.50435,-0.208972 -0.75654,-0.324003 -0.25217,-0.11503 -0.50436,-0.237349 -0.75654,-0.368 -0.25218,-0.130643 -0.50435,-0.269575 -0.75653,-0.417964 -0.2522,-0.148387 -0.50436,-0.306166 -0.75654,-0.474716 -0.25219,-0.168534 -0.50437,-0.347738 -0.75655,-0.539158 -0.25218,-0.191419 -0.50436,-0.39497 -0.75654,-0.612374 -0.25219,-0.217396 -0.50437,-0.448581 -0.75655,-0.695503 -0.25219,-0.246923 -0.50435,-0.509484 -0.75654,-0.789939 -0.25218,-0.280447 -0.50438,-0.578665 -0.75654,-0.897186 -0.25218,-0.318522 -0.50437,-0.65723 -0.75654,-1.018999 -0.25219,-0.361777 -0.50438,-0.746466 -0.75654,-1.157356 -0.2522,-0.410898 -0.50437,-0.847815 -0.75654,-1.314501 -0.25219,-0.466666 -0.50437,-0.962911 -0.75656,-1.492964 -0.25218,-0.530043 -0.50436,-1.093663 -0.75653,-1.695665 -0.25219,-0.602009 -0.50437,-1.242151 -0.75655,-1.92589 -0.25219,-0.68374 -0.50436,-1.410802 -0.75654,-2.187377 -0.25217,-0.776558 -0.50436,-1.602338 -0.75655,-2.484362 -0.25216,-0.882007 -0.50436,-1.8199 -0.75653,-2.821661 -0.2522,-1.001762 -0.50437,-2.066998 -0.75655,-3.204767 -0.25217,-1.137769 -0.50435,-2.347637 -0.72919,-3.609221 -0.47899,0.223275 -0.73412,0.241952 -1.30171,0.460551 -0.56763,0.218584 -1.44773,0.636972 -2.01531,0.881757 -0.56764,0.244771 -1.13524,0.503336 -1.70287,0.77744 -0.5676,0.274097 -1.13523,0.563646 -1.70285,0.87059 -0.56761,0.306943 -1.1352,0.631186 -1.70281,0.974905 -0.56762,0.343725 -1.13522,0.70681 -1.70284,1.091722 -0.56759,0.384904 -1.13524,0.791497 -1.70282,1.222523 -0.56762,0.431027 -1.13524,0.886334 -1.70287,1.369011 -0.5676,0.482669 -1.1352,0.992533 -1.70279,1.533038 -0.56762,0.540504 -1.13526,1.11146 -1.70284,1.716723 -0.56764,0.60527 -1.13524,1.244643 -1.70287,1.922426 -0.56759,0.67779 -1.13521,1.393766 -1.70283,2.152767 -0.5676,0.759001 -1.13522,1.560765 -1.70283,2.41071 -0.5676,0.849946 -1.13521,1.747774 -1.70283,2.699559 -0.56761,0.951779 -1.13521,1.957186 -1.70282,3.023014 -0.56762,1.065827 -1.13524,2.191696 -1.70286,3.385228 -0.56758,1.193526 -1.13521,2.454453 -1.75357,3.76206 -0.29679,-0.06123 -3.61794,-0.173055 -3.8701,-0.201375 -0.25218,-0.0283 -2.37981,-0.207644 -2.632,-0.239884 -0.25219,-0.03224 -0.50436,-0.06648 -0.75654,-0.103056 -0.25218,-0.03661 -0.50437,-0.07551 -0.75655,-0.117014 -0.25219,-0.04153 -0.50436,-0.08566 -0.75654,-0.132892 -0.25218,-0.04723 -0.50436,-0.09739 -0.75654,-0.150946 -0.2522,-0.05358 -0.50437,-0.110621 -0.75654,-0.171441 -0.25218,-0.06086 -0.50437,-0.125553 -0.75656,-0.194703 -0.25216,-0.06913 -0.50435,-0.142665 -0.75654,-0.221145 -0.25217,-0.07851 -0.50435,-0.161999 -0.75654,-0.251179 -0.25218,-0.08917 -0.50436,-0.183957 -0.75655,-0.285272 -0.25216,-0.101284 -0.50435,-0.208972 -0.75654,-0.324003 -0.25217,-0.11503 -0.50436,-0.237349 -0.75654,-0.368 -0.25218,-0.130643 -0.50435,-0.269575 -0.75653,-0.417964 -0.2522,-0.148387 -0.50436,-0.306166 -0.75654,-0.474716 -0.25219,-0.168534 -0.50437,-0.347738 -0.75655,-0.539158 -0.25218,-0.191419 -0.50436,-0.39497 -0.75654,-0.612374 -0.25219,-0.217396 -0.50437,-0.448581 -0.75655,-0.695503 -0.25219,-0.246923 -0.50435,-0.509484 -0.75654,-0.789939 -0.25218,-0.280447 -0.50438,-0.578665 -0.75654,-0.897186 -0.25218,-0.318522 -0.50437,-0.65723 -0.75654,-1.018999 -0.25219,-0.361777 -0.50438,-0.746466 -0.75654,-1.157356 -0.2522,-0.410898 -0.50437,-0.847815 -0.75654,-1.314501 -0.25219,-0.466666 -0.50437,-0.962911 -0.75656,-1.492964 -0.25218,-0.530043 -0.50436,-1.093663 -0.75653,-1.695665 -0.25219,-0.602009 -0.50437,-1.242151 -0.75655,-1.92589 -0.25219,-0.68374 -0.50436,-1.410802 -0.75654,-2.187377 -0.25217,-0.776558 -0.50436,-1.602338 -0.75655,-2.484362 -0.25216,-0.882007 -0.50436,-1.8199 -0.75653,-2.821661 -0.2522,-1.001762 -0.50437,-2.066998 -0.75655,-3.204767 -0.25217,-1.137769 -0.50435,-2.347637 -0.72919,-3.609221 -0.47899,0.223275 -0.73412,0.241952 -1.30171,0.460551 -0.56763,0.218584 -1.44773,0.636972 -2.01531,0.881757 -0.56764,0.244771 -1.13524,0.503336 -1.70287,0.77744 -0.5676,0.274097 -1.13523,0.563646 -1.70285,0.87059 -0.56761,0.306943 -1.1352,0.631186 -1.70281,0.974905 -0.56762,0.343725 -1.13522,0.70681 -1.70284,1.091722 -0.56759,0.384904 -1.13524,0.791497 -1.70282,1.222523 -0.56762,0.431027 -1.13524,0.886334 -1.70287,1.369011 -0.5676,0.482669 -1.1352,0.992533 -1.70279,1.533038 -0.56762,0.540504 -1.13526,1.11146 -1.70284,1.716723 -0.56764,0.60527 -1.13524,1.244643 -1.70287,1.922426 -0.56759,0.67779 -1.13521,1.393766 -1.70283,2.152767 -0.5676,0.759001 -1.13522,1.560765 -1.70283,2.41071 -0.5676,0.849946 -1.13521,1.747774 -1.70283,2.699559 -0.56761,0.951779 -1.13521,1.957186 -1.70282,3.023014 -0.56762,1.065827 -1.13524,2.191696 -1.70286,3.385228 -0.56758,1.193526 -1.13521,2.454453 -1.70895,3.798285 l -25.32964,0"
       id="path16880"
       inkscape:connector-curvature="0"
       sodipodi:nodetypes="csscssccccssscscccssscssscssscscscscscccccccccsccsscssccccssscscccssscssscssscscscscscccccccccscccsscssccccssscscccssscssscssscscscscscccccccccsccsscssccccssscscccssscssscssscscscscscccccccccscc" />
    <path
       style="fill:none;stroke:#ff0000;stroke-width:1;stroke-linecap:butt;stroke-linejoin:miter;stroke-miterlimit:4;stroke-opacity:1;stroke-dasharray:2, 4;stroke-dashoffset:0"
       d="m 201.55955,-14.266171 0,162.305281"
       id="path16760-1"
       inkscape:connector-curvature="0" />
    <path
       style="fill:none;stroke:#ff0000;stroke-width:1;stroke-linecap:butt;stroke-linejoin:miter;stroke-miterlimit:4;stroke-opacity:1;stroke-dasharray:2, 4;stroke-dashoffset:0"
       d="m 230.26011,-14.266169 0,162.305279"
       id="path16760-18"
       inkscape:connector-curvature="0" />
    <path
       style="fill:none;stroke:#ff0000;stroke-width:1;stroke-linecap:butt;stroke-linejoin:miter;stroke-miterlimit:4;stroke-opacity:1;stroke-dasharray:2, 4;stroke-dashoffset:0"
       d="m 258.96068,-14.266169 0,162.305279"
       id="path16760-3"
       inkscape:connector-curvature="0" />
    <path
       style="fill:none;stroke:#ff0000;stroke-width:1;stroke-linecap:butt;stroke-linejoin:miter;stroke-miterlimit:4;stroke-opacity:1;stroke-dasharray:2, 4;stroke-dashoffset:0"
       d="m 287.66125,-14.26617 0,162.30528"
       id="path16760-8"
       inkscape:connector-curvature="0" />
    <path
       style="fill:none;stroke:#ff0000;stroke-width:1;stroke-linecap:butt;stroke-linejoin:miter;stroke-miterlimit:4;stroke-opacity:1;stroke-dasharray:2, 4;stroke-dashoffset:0"
       d="m 316.36181,-14.266164 0,162.305274"
       id="path16760-6"
       inkscape:connector-curvature="0" />
    <path
       style="fill:none;stroke:#ff0000;stroke-width:1;stroke-linecap:butt;stroke-linejoin:miter;stroke-miterlimit:4;stroke-opacity:1;stroke-dasharray:2, 4;stroke-dashoffset:0"
       d="m 345.06238,-14.26617 0,162.30528"
       id="path16760-0"
       inkscape:connector-curvature="0" />
    <path
       style="fill:none;stroke:#ff0000;stroke-width:1;stroke-linecap:butt;stroke-linejoin:miter;stroke-miterlimit:4;stroke-opacity:1;stroke-dasharray:2, 4;stroke-dashoffset:0"
       d="m 373.76293,-14.266167 0,162.305277"
       id="path16760-80"
       inkscape:connector-curvature="0" />
    <g
       style="font-style:normal;font-variant:normal;font-weight:normal;font-stretch:normal;letter-spacing:normal;word-spacing:normal;text-anchor:start;fill:none;stroke:#000000;stroke-linecap:butt;stroke-linejoin:miter;stroke-miterlimit:10.43299961;stroke-opacity:1;stroke-dasharray:none;stroke-dashoffset:0"
       id="g17798"
       transform="matrix(1,0,0,-1,198,768)"
       xml:space="preserve"
       stroke-miterlimit="10.433"
       font-style="normal"
       font-variant="normal"
       font-weight="normal"
       font-stretch="normal"
       font-size-adjust="none"
       letter-spacing="normal"
       word-spacing="normal"
       ns0:text="RC small\\\\\n$T\\gg RC$"
       ns0:preamble="/home/josh/Desktop/preamble (copy).txt">
<path
   style="fill:#000000;stroke-width:0"
   inkscape:connector-curvature="0"
   d="m 227.77,710.51 0.09,0.02 0.09,0.03 0.08,0.03 0.09,0.03 0.09,0.03 0.08,0.03 0.08,0.04 0.08,0.03 0.08,0.04 0.07,0.04 0.07,0.05 0.08,0.04 0.06,0.05 0.07,0.05 0.06,0.05 0.06,0.05 0.06,0.05 0.06,0.06 0.05,0.05 0.05,0.06 0.04,0.06 0.04,0.06 0.04,0.06 0.04,0.06 0.03,0.07 0.02,0.06 0.03,0.07 0.02,0.07 0.01,0.07 0.01,0.07 0.01,0.07 0,0.07 c 0,0.96 -1.13,1.79 -2.6,1.79 h -3.13 v -0.31 h 0.24 c 0.77,0 0.79,-0.1 0.79,-0.46 v -5.25 c 0,-0.36 -0.02,-0.47 -0.79,-0.47 h -0.24 v -0.31 c 0.36,0.04 1.07,0.04 1.46,0.04 0.38,0 1.09,0 1.45,-0.04 v 0.31 h -0.24 c -0.77,0 -0.79,0.11 -0.79,0.47 v 2.52 0.22 2.58 c 0,0.23 0,0.34 0.22,0.37 0.1,0.02 0.39,0.02 0.59,0.02 0.9,0 2.02,-0.04 2.02,-1.48 0,-0.69 -0.24,-1.49 -1.72,-1.49 h -1.11 v -0.22 h 1.15 c 0.16,0 0.58,0 0.93,-0.34 0.38,-0.36 0.38,-0.67 0.38,-1.33 0,-0.65 0,-1.05 0.41,-1.43 0.4,-0.35 0.95,-0.41 1.25,-0.41 0.78,0 0.95,0.81 0.95,1.09 0,0.06 0,0.17 -0.13,0.17 -0.11,0 -0.11,-0.09 -0.12,-0.16 -0.06,-0.71 -0.41,-0.89 -0.66,-0.89 -0.49,0 -0.57,0.51 -0.71,1.44 l -0.13,0.79 c -0.18,0.64 -0.66,0.97 -1.21,1.16 z"
   id="path17800" />
<path
   style="fill:#000000;stroke-width:0"
   inkscape:connector-curvature="0"
   d="m 231.04,710.53 0.01,-0.19 0.01,-0.19 0.03,-0.19 0.03,-0.18 0.04,-0.18 0.05,-0.17 0.05,-0.17 0.07,-0.17 0.07,-0.16 0.08,-0.15 0.08,-0.16 0.09,-0.14 0.1,-0.14 0.11,-0.14 0.11,-0.13 0.11,-0.13 0.13,-0.11 0.12,-0.12 0.14,-0.1 0.13,-0.1 0.14,-0.09 0.15,-0.09 0.15,-0.08 0.15,-0.07 0.16,-0.06 0.16,-0.06 0.16,-0.04 0.16,-0.04 0.17,-0.03 0.17,-0.03 0.17,-0.01 0.17,0 c 1.63,0 2.61,1.38 2.61,2.53 0,0.1 0,0.17 -0.13,0.17 -0.11,0 -0.11,-0.06 -0.12,-0.16 -0.08,-1.42 -1.15,-2.23 -2.24,-2.23 -0.61,0 -2.56,0.33 -2.56,3.3 0,2.97 1.94,3.31 2.55,3.31 1.09,0 1.98,-0.9 2.18,-2.36 0.02,-0.13 0.02,-0.17 0.16,-0.17 0.16,0 0.16,0.04 0.16,0.24 v 2.36 c 0,0.17 0,0.24 -0.11,0.24 -0.04,0 -0.08,0 -0.16,-0.12 l -0.5,-0.73 c -0.37,0.35 -0.88,0.85 -1.84,0.85 -1.86,0 -3.47,-1.58 -3.47,-3.61 z"
   id="path17802" />
<path
   style="fill:#000000;stroke-width:0"
   inkscape:connector-curvature="0"
   d="m 243.08,709.06 0.02,-0.01 0.03,0 0.03,-0.01 0.03,-0.01 0.03,0 0.04,-0.01 0.04,-0.01 0.04,-0.01 0.04,-0.02 0.04,-0.01 0.04,-0.02 0.05,-0.01 0.04,-0.02 0.05,-0.02 0.04,-0.02 0.04,-0.03 0.05,-0.02 0.04,-0.03 0.04,-0.03 0.04,-0.04 0.04,-0.03 0.03,-0.04 0.04,-0.04 0.03,-0.04 0.03,-0.04 0.01,-0.03 0.01,-0.02 0.01,-0.03 0.01,-0.02 0.01,-0.03 0.01,-0.03 0.01,-0.02 0.01,-0.03 0,-0.03 0.01,-0.03 0,-0.03 0.01,-0.03 0,-0.04 0,-0.03 c 0,-0.51 -0.35,-0.91 -1.13,-0.91 -0.84,0 -1.19,0.57 -1.38,1.42 -0.03,0.13 -0.04,0.17 -0.14,0.17 -0.13,0 -0.13,-0.07 -0.13,-0.25 v -1.32 c 0,-0.16 0,-0.23 0.11,-0.23 0.05,0 0.06,0.01 0.25,0.2 0.02,0.01 0.02,0.03 0.2,0.22 0.44,-0.41 0.88,-0.42 1.09,-0.42 1.15,0 1.61,0.66 1.61,1.38 0,0.53 -0.3,0.82 -0.42,0.94 -0.33,0.32 -0.72,0.4 -1.14,0.48 -0.56,0.11 -1.22,0.24 -1.22,0.82 0,0.35 0.26,0.76 1.11,0.76 1.1,0 1.15,-0.9 1.17,-1.21 0.01,-0.09 0.1,-0.09 0.12,-0.09 0.13,0 0.13,0.05 0.13,0.24 v 1 c 0,0.17 0,0.24 -0.11,0.24 -0.05,0 -0.07,0 -0.2,-0.12 -0.03,-0.04 -0.13,-0.12 -0.17,-0.16 -0.38,0.28 -0.79,0.28 -0.94,0.28 -1.21,0 -1.59,-0.66 -1.59,-1.22 0,-0.35 0.16,-0.63 0.43,-0.85 0.32,-0.25 0.6,-0.31 1.31,-0.45 z"
   id="path17804" />
<path
   style="fill:#000000;stroke-width:0"
   inkscape:connector-curvature="0"
   d="m 246.04,710.55 v -2.67 c 0,-0.45 -0.11,-0.45 -0.78,-0.45 v -0.31 c 0.35,0.02 0.85,0.04 1.12,0.04 0.26,0 0.78,-0.02 1.12,-0.04 v 0.31 c -0.67,0 -0.78,0 -0.78,0.45 v 1.83 c 0,1.04 0.71,1.59 1.35,1.59 0.63,0 0.74,-0.53 0.74,-1.1 v -2.32 c 0,-0.45 -0.11,-0.45 -0.78,-0.45 v -0.31 c 0.35,0.02 0.86,0.04 1.12,0.04 0.26,0 0.78,-0.02 1.12,-0.04 v 0.31 c -0.67,0 -0.78,0 -0.78,0.45 v 1.83 c 0,1.04 0.71,1.59 1.35,1.59 0.63,0 0.74,-0.53 0.74,-1.1 v -2.32 c 0,-0.45 -0.11,-0.45 -0.78,-0.45 v -0.31 c 0.35,0.02 0.86,0.04 1.13,0.04 0.25,0 0.77,-0.02 1.11,-0.04 v 0.31 c -0.52,0 -0.77,0 -0.78,0.3 v 1.9 c 0,0.86 0,1.17 -0.3,1.53 -0.14,0.17 -0.47,0.36 -1.05,0.36 -0.84,0 -1.28,-0.59 -1.45,-0.97 -0.14,0.86 -0.87,0.97 -1.32,0.97 -0.73,0 -1.2,-0.42 -1.48,-1.04 v 1.04 l -1.4,-0.11 v -0.3 c 0.7,0 0.78,-0.07 0.78,-0.56 z"
   id="path17806" />
<path
   style="fill:#000000;stroke-width:0"
   inkscape:connector-curvature="0"
   d="m 256.56,707.88 0,-0.04 0.01,-0.03 0.01,-0.04 0,-0.04 0.01,-0.04 0.02,-0.03 0.01,-0.04 0.01,-0.03 0.02,-0.04 0.01,-0.03 0.02,-0.04 0.02,-0.03 0.02,-0.03 0.02,-0.04 0.02,-0.03 0.03,-0.03 0.02,-0.02 0.03,-0.03 0.03,-0.03 0.03,-0.02 0.03,-0.02 0.03,-0.03 0.03,-0.02 0.03,-0.01 0.04,-0.02 0.03,-0.01 0.04,-0.02 0.04,-0.01 0.04,0 0.04,-0.01 0.04,0 0.05,0 c 0.21,0 0.81,0.14 0.81,0.94 v 0.56 h -0.25 v -0.56 c 0,-0.58 -0.24,-0.64 -0.35,-0.64 -0.33,0 -0.37,0.45 -0.37,0.5 v 1.99 c 0,0.42 0,0.81 -0.36,1.18 -0.39,0.38 -0.89,0.54 -1.37,0.54 -0.81,0 -1.5,-0.46 -1.5,-1.12 0,-0.3 0.2,-0.47 0.46,-0.47 0.27,0 0.46,0.2 0.46,0.46 0,0.12 -0.05,0.45 -0.51,0.46 0.27,0.35 0.75,0.45 1.07,0.45 0.49,0 1.06,-0.38 1.06,-1.27 v -0.37 -0.21 -0.99 c 0,-0.95 -0.72,-1.29 -1.17,-1.29 -0.48,0 -0.89,0.35 -0.89,0.85 0,0.55 0.42,1.37 2.06,1.43 h 0 v 0.21 c -0.51,-0.03 -1.21,-0.06 -1.83,-0.36 -0.75,-0.33 -1,-0.85 -1,-1.29 0,-0.81 0.97,-1.05 1.59,-1.05 0.66,0 1.12,0.39 1.31,0.86 z"
   id="path17808" />
<path
   style="fill:#000000;stroke-width:0"
   inkscape:connector-curvature="0"
   d="m 259.99,714.03 -1.44,-0.11 v -0.31 c 0.7,0 0.78,-0.07 0.78,-0.55 v -5.18 c 0,-0.45 -0.11,-0.45 -0.78,-0.45 v -0.31 c 0.33,0.02 0.86,0.04 1.11,0.04 0.25,0 0.73,-0.02 1.1,-0.04 v 0.31 c -0.66,0 -0.77,0 -0.77,0.45 z"
   id="path17810" />
<path
   style="fill:#000000;stroke-width:0"
   inkscape:connector-curvature="0"
   d="m 262.75,714.03 -1.43,-0.11 v -0.31 c 0.7,0 0.78,-0.07 0.78,-0.55 v -5.18 c 0,-0.45 -0.11,-0.45 -0.78,-0.45 v -0.31 c 0.33,0.02 0.85,0.04 1.1,0.04 0.25,0 0.74,-0.02 1.11,-0.04 v 0.31 c -0.67,0 -0.78,0 -0.78,0.45 z"
   id="path17812" />
<path
   style="fill:#000000;stroke-width:0"
   inkscape:connector-curvature="0"
   d="m 227.69,701.21 0,0.03 0.01,0.02 0.01,0.02 0,0.03 0.01,0.02 0,0.02 0.01,0.01 0.01,0.02 0,0.02 0.01,0.01 0,0.02 0.01,0.01 0.01,0.02 0,0.01 0.01,0.01 0,0.01 0.01,0.01 0.01,0.01 0,0.01 0.01,0 0.01,0.01 0.01,0.01 0,0 0.01,0.01 0.01,0 0.01,0.01 0.01,0 0.01,0.01 0.01,0 0.01,0 0.01,0.01 0.01,0 c 0.09,0.02 0.42,0.02 0.63,0.02 1,0 1.45,-0.04 1.45,-0.82 0,-0.15 -0.04,-0.53 -0.08,-0.79 -0.01,-0.04 -0.03,-0.16 -0.03,-0.19 0,-0.06 0.03,-0.13 0.12,-0.13 0.11,0 0.13,0.08 0.15,0.23 l 0.27,1.73 c 0.01,0.04 0.02,0.14 0.02,0.17 0,0.11 -0.1,0.11 -0.27,0.11 h -5.53 c -0.24,0 -0.25,-0.01 -0.32,-0.2 l -0.6,-1.75 c -0.01,-0.02 -0.06,-0.16 -0.06,-0.18 0,-0.06 0.05,-0.11 0.12,-0.11 0.1,0 0.11,0.05 0.17,0.21 0.54,1.54 0.8,1.72 2.27,1.72 h 0.39 c 0.28,0 0.28,-0.04 0.28,-0.12 0,-0.06 -0.03,-0.18 -0.04,-0.21 l -1.34,-5.31 c -0.08,-0.37 -0.11,-0.48 -1.18,-0.48 -0.36,0 -0.42,0 -0.42,-0.19 0,-0.12 0.11,-0.12 0.17,-0.12 0.27,0 0.55,0.02 0.82,0.02 0.28,0 0.57,0.01 0.85,0.01 0.27,0 0.55,-0.01 0.82,-0.01 0.29,0 0.59,-0.02 0.87,-0.02 0.1,0 0.22,0 0.22,0.2 0,0.11 -0.08,0.11 -0.34,0.11 -0.25,0 -0.38,0 -0.64,0.02 -0.29,0.03 -0.37,0.06 -0.37,0.22 0,0.01 0,0.06 0.04,0.21 z"
   id="path17814" />
<path
   style="fill:#000000;stroke-width:0"
   inkscape:connector-curvature="0"
   d="m 239.59,697.44 0.01,0.01 0.01,0 0.01,0.01 0.01,0 0.01,0.01 0.01,0.01 0.01,0 0.01,0.01 0,0 0.01,0.01 0.01,0 0.01,0.01 0.01,0 0,0.01 0.01,0 0,0.01 0.01,0.01 0.01,0 0,0.01 0.01,0 0,0.01 0.01,0.01 0,0.01 0,0 0.01,0.01 0,0.01 0,0.01 0,0.01 0,0.01 0,0.01 0,0.01 0,0.01 c 0,0.12 -0.06,0.15 -0.18,0.22 l -5.26,2.86 c -0.04,0.02 -0.11,0.06 -0.18,0.06 -0.09,0 -0.2,-0.06 -0.2,-0.2 0,-0.11 0.08,-0.14 0.2,-0.21 l 5.01,-2.73 -5.01,-2.73 c -0.12,-0.07 -0.2,-0.11 -0.2,-0.22 0,-0.2 0.19,-0.2 0.26,-0.2 z"
   id="path17816" />
<path
   style="fill:#000000;stroke-width:0"
   inkscape:connector-curvature="0"
   d="m 242.63,697.44 0.01,0.01 0.01,0 0.01,0.01 0.01,0 0.01,0.01 0.01,0.01 0.01,0 0.01,0.01 0,0 0.01,0.01 0.01,0 0.01,0.01 0.01,0 0,0.01 0.01,0 0.01,0.01 0,0.01 0.01,0 0,0.01 0.01,0 0,0.01 0.01,0.01 0,0.01 0,0 0.01,0.01 0,0.01 0,0.01 0,0.01 0,0.01 0,0.01 0,0.01 0.01,0.01 c 0,0.12 -0.08,0.15 -0.19,0.22 l -5.26,2.86 c -0.04,0.02 -0.11,0.06 -0.18,0.06 -0.09,0 -0.2,-0.06 -0.2,-0.2 0,-0.11 0.08,-0.14 0.2,-0.21 l 5.01,-2.73 -5.01,-2.73 c -0.12,-0.07 -0.2,-0.11 -0.2,-0.22 0,-0.2 0.19,-0.2 0.26,-0.2 z"
   id="path17818" />
<path
   style="fill:#000000;stroke-width:0"
   inkscape:connector-curvature="0"
   d="m 251.31,698.55 0.09,0.03 0.1,0.02 0.1,0.03 0.09,0.03 0.1,0.03 0.09,0.04 0.1,0.03 0.1,0.05 0.09,0.04 0.09,0.04 0.1,0.05 0.08,0.05 0.09,0.06 0.09,0.05 0.08,0.06 0.08,0.06 0.08,0.06 0.07,0.07 0.08,0.06 0.06,0.07 0.07,0.07 0.06,0.08 0.05,0.07 0.05,0.08 0.05,0.08 0.04,0.08 0.03,0.09 0.03,0.08 0.02,0.09 0.02,0.09 0.01,0.09 0,0.09 c 0,0.86 -0.9,1.5 -2.2,1.5 h -2.84 c -0.2,0 -0.29,0 -0.29,-0.2 0,-0.11 0.09,-0.11 0.28,-0.11 0.02,0 0.21,0 0.38,-0.02 0.18,-0.02 0.27,-0.03 0.27,-0.16 0,-0.04 -0.01,-0.07 -0.04,-0.19 l -1.34,-5.34 c -0.1,-0.39 -0.12,-0.47 -0.91,-0.47 -0.18,0 -0.27,0 -0.27,-0.2 0,-0.11 0.12,-0.11 0.14,-0.11 0.28,0 0.98,0.03 1.26,0.03 0.28,0 0.99,-0.03 1.27,-0.03 0.08,0 0.19,0 0.19,0.2 0,0.11 -0.08,0.11 -0.28,0.11 -0.36,0 -0.64,0 -0.64,0.18 0,0.06 0.02,0.11 0.03,0.17 l 0.65,2.63 h 1.19 l -0.01,0.22 h -1.11 l 0.64,2.6 c 0.06,0.24 0.09,0.34 0.28,0.37 0.09,0.01 0.41,0.01 0.61,0.01 0.71,0 1.81,0 1.81,-0.99 0,-0.33 -0.16,-1.02 -0.54,-1.41 -0.26,-0.26 -0.79,-0.58 -1.69,-0.58 l 0.01,-0.22 c 0.91,0 1.09,-0.55 1.09,-0.9 0,-0.15 -0.08,-0.46 -0.14,-0.69 -0.07,-0.28 -0.16,-0.65 -0.16,-0.84 0,-1.08 1.2,-1.08 1.32,-1.08 0.85,0 1.2,1.01 1.2,1.15 0,0.12 -0.11,0.12 -0.12,0.12 -0.09,0 -0.11,-0.07 -0.13,-0.14 -0.25,-0.74 -0.68,-0.91 -0.9,-0.91 -0.33,0 -0.4,0.22 -0.4,0.61 0,0.31 0.06,0.81 0.1,1.13 0.02,0.14 0.04,0.33 0.04,0.47 0,0.77 -0.67,1.07 -0.94,1.17 z"
   id="path17820" />
<path
   style="fill:#000000;stroke-width:0"
   inkscape:connector-curvature="0"
   d="m 261.36,702.09 -0.01,0 0,0 0,0.01 0,0 0,0 0,0.01 0,0 0,0.01 0,0 0,0 0,0.01 -0.01,0 0,0.01 0,0 0,0 -0.01,0.01 0,0 0,0.01 -0.01,0 0,0 0,0.01 -0.01,0 0,0 -0.01,0 0,0.01 -0.01,0 0,0 0,0 -0.01,0 0,0 0,0 -0.01,0 0,0 0,0 -0.01,0.01 0,0 -0.01,0 0,0 0,0 c -0.03,0 -0.04,-0.01 -0.15,-0.12 l -0.7,-0.77 c -0.09,0.14 -0.55,0.89 -1.66,0.89 -2.22,0 -4.46,-2.2 -4.46,-4.51 0,-1.64 1.17,-2.73 2.7,-2.73 0.87,0 1.62,0.4 2.15,0.86 0.93,0.81 1.1,1.72 1.1,1.75 0,0.1 -0.1,0.1 -0.12,0.1 -0.06,0 -0.11,-0.02 -0.13,-0.1 -0.09,-0.29 -0.32,-1 -1.01,-1.57 -0.68,-0.56 -1.31,-0.73 -1.83,-0.73 -0.9,0 -1.96,0.52 -1.96,2.07 0,0.57 0.21,2.18 1.21,3.34 0.61,0.71 1.55,1.21 2.43,1.21 1.02,0 1.61,-0.77 1.61,-1.92 0,-0.4 -0.03,-0.41 -0.03,-0.51 0,-0.1 0.11,-0.1 0.15,-0.1 0.13,0 0.13,0.02 0.18,0.2 z"
   id="path17822" />
</g>    <g
       style="font-style:normal;font-variant:normal;font-weight:normal;font-stretch:normal;letter-spacing:normal;word-spacing:normal;text-anchor:start;fill:none;stroke:#000000;stroke-linecap:butt;stroke-linejoin:miter;stroke-miterlimit:10.43299961;stroke-opacity:1;stroke-dasharray:none;stroke-dashoffset:0"
       ns0:preamble="/home/josh/Desktop/preamble (copy).txt"
       ns0:text="RC large\\\\\n$RC \\gg T$"
       word-spacing="normal"
       letter-spacing="normal"
       font-size-adjust="none"
       font-stretch="normal"
       font-weight="normal"
       font-variant="normal"
       font-style="normal"
       stroke-miterlimit="10.433"
       xml:space="preserve"
       transform="matrix(1,0,0,-1,196.39041,825.57579)"
       id="g18112">
<path
   id="path18114"
   d="m 227.77,710.51 0.09,0.02 0.09,0.03 0.08,0.03 0.09,0.03 0.09,0.03 0.08,0.03 0.08,0.04 0.08,0.03 0.08,0.04 0.07,0.04 0.07,0.05 0.08,0.04 0.06,0.05 0.07,0.05 0.06,0.05 0.06,0.05 0.06,0.05 0.06,0.06 0.05,0.05 0.05,0.06 0.04,0.06 0.04,0.06 0.04,0.06 0.04,0.06 0.03,0.07 0.02,0.06 0.03,0.07 0.02,0.07 0.01,0.07 0.01,0.07 0.01,0.07 0,0.07 c 0,0.96 -1.13,1.79 -2.6,1.79 h -3.13 v -0.31 h 0.24 c 0.77,0 0.79,-0.1 0.79,-0.46 v -5.25 c 0,-0.36 -0.02,-0.47 -0.79,-0.47 h -0.24 v -0.31 c 0.36,0.04 1.07,0.04 1.46,0.04 0.38,0 1.09,0 1.45,-0.04 v 0.31 h -0.24 c -0.77,0 -0.79,0.11 -0.79,0.47 v 2.52 0.22 2.58 c 0,0.23 0,0.34 0.22,0.37 0.1,0.02 0.39,0.02 0.59,0.02 0.9,0 2.02,-0.04 2.02,-1.48 0,-0.69 -0.24,-1.49 -1.72,-1.49 h -1.11 v -0.22 h 1.15 c 0.16,0 0.58,0 0.93,-0.34 0.38,-0.36 0.38,-0.67 0.38,-1.33 0,-0.65 0,-1.05 0.41,-1.43 0.4,-0.35 0.95,-0.41 1.25,-0.41 0.78,0 0.95,0.81 0.95,1.09 0,0.06 0,0.17 -0.13,0.17 -0.11,0 -0.11,-0.09 -0.12,-0.16 -0.06,-0.71 -0.41,-0.89 -0.66,-0.89 -0.49,0 -0.57,0.51 -0.71,1.44 l -0.13,0.79 c -0.18,0.64 -0.66,0.97 -1.21,1.16 z"
   inkscape:connector-curvature="0"
   style="fill:#000000;stroke-width:0" />
<path
   id="path18116"
   d="m 231.04,710.53 0.01,-0.19 0.01,-0.19 0.03,-0.19 0.03,-0.18 0.04,-0.18 0.05,-0.17 0.05,-0.17 0.07,-0.17 0.07,-0.16 0.08,-0.15 0.08,-0.16 0.09,-0.14 0.1,-0.14 0.11,-0.14 0.11,-0.13 0.11,-0.13 0.13,-0.11 0.12,-0.12 0.14,-0.1 0.13,-0.1 0.14,-0.09 0.15,-0.09 0.15,-0.08 0.15,-0.07 0.16,-0.06 0.16,-0.06 0.16,-0.04 0.16,-0.04 0.17,-0.03 0.17,-0.03 0.17,-0.01 0.17,0 c 1.63,0 2.61,1.38 2.61,2.53 0,0.1 0,0.17 -0.13,0.17 -0.11,0 -0.11,-0.06 -0.12,-0.16 -0.08,-1.42 -1.15,-2.23 -2.24,-2.23 -0.61,0 -2.56,0.33 -2.56,3.3 0,2.97 1.94,3.31 2.55,3.31 1.09,0 1.98,-0.9 2.18,-2.36 0.02,-0.13 0.02,-0.17 0.16,-0.17 0.16,0 0.16,0.04 0.16,0.24 v 2.36 c 0,0.17 0,0.24 -0.11,0.24 -0.04,0 -0.08,0 -0.16,-0.12 l -0.5,-0.73 c -0.37,0.35 -0.88,0.85 -1.84,0.85 -1.86,0 -3.47,-1.58 -3.47,-3.61 z"
   inkscape:connector-curvature="0"
   style="fill:#000000;stroke-width:0" />
<path
   id="path18118"
   d="m 242.77,714.03 -1.43,-0.11 v -0.31 c 0.7,0 0.78,-0.07 0.78,-0.55 v -5.18 c 0,-0.45 -0.11,-0.45 -0.78,-0.45 v -0.31 c 0.33,0.02 0.86,0.04 1.1,0.04 0.25,0 0.74,-0.02 1.11,-0.04 v 0.31 c -0.67,0 -0.78,0 -0.78,0.45 z"
   inkscape:connector-curvature="0"
   style="fill:#000000;stroke-width:0" />
<path
   id="path18120"
   d="m 247.1,707.88 0,-0.04 0.01,-0.03 0,-0.04 0.01,-0.04 0.01,-0.04 0.01,-0.03 0.01,-0.04 0.02,-0.03 0.01,-0.04 0.02,-0.03 0.02,-0.04 0.02,-0.03 0.02,-0.03 0.02,-0.04 0.02,-0.03 0.02,-0.03 0.03,-0.02 0.03,-0.03 0.02,-0.03 0.03,-0.02 0.03,-0.02 0.03,-0.03 0.04,-0.02 0.03,-0.01 0.04,-0.02 0.03,-0.01 0.04,-0.02 0.04,-0.01 0.04,0 0.04,-0.01 0.04,0 0.04,0 c 0.21,0 0.82,0.14 0.82,0.94 v 0.56 h -0.25 v -0.56 c 0,-0.58 -0.25,-0.64 -0.36,-0.64 -0.33,0 -0.37,0.45 -0.37,0.5 v 1.99 c 0,0.42 0,0.81 -0.36,1.18 -0.38,0.38 -0.88,0.54 -1.36,0.54 -0.82,0 -1.51,-0.46 -1.51,-1.12 0,-0.3 0.2,-0.47 0.46,-0.47 0.28,0 0.46,0.2 0.46,0.46 0,0.12 -0.05,0.45 -0.51,0.46 0.27,0.35 0.76,0.45 1.08,0.45 0.49,0 1.06,-0.38 1.06,-1.27 v -0.37 -0.21 -0.99 c 0,-0.95 -0.72,-1.29 -1.17,-1.29 -0.49,0 -0.9,0.35 -0.9,0.85 0,0.55 0.42,1.37 2.07,1.43 h 0 v 0.21 c -0.51,-0.03 -1.21,-0.06 -1.84,-0.36 -0.75,-0.33 -0.99,-0.85 -0.99,-1.29 0,-0.81 0.96,-1.05 1.59,-1.05 0.66,0 1.12,0.39 1.31,0.86 z"
   inkscape:connector-curvature="0"
   style="fill:#000000;stroke-width:0" />
<path
   id="path18122"
   d="m 250.42,710.43 v 1.09 l -1.38,-0.11 v -0.3 c 0.7,0 0.78,-0.07 0.78,-0.56 v -2.67 c 0,-0.45 -0.11,-0.45 -0.78,-0.45 v -0.31 c 0.39,0.02 0.85,0.04 1.13,0.04 0.4,0 0.87,0 1.27,-0.04 v 0.31 h -0.21 c -0.74,0 -0.76,0.11 -0.76,0.47 v 1.53 c 0,0.99 0.42,1.87 1.18,1.87 0.07,0 0.09,0 0.11,-0.01 -0.03,-0.01 -0.23,-0.12 -0.23,-0.38 0,-0.28 0.21,-0.43 0.43,-0.43 0.18,0 0.43,0.12 0.43,0.44 0,0.31 -0.31,0.6 -0.74,0.6 -0.73,0 -1.09,-0.66 -1.23,-1.09 z"
   inkscape:connector-curvature="0"
   style="fill:#000000;stroke-width:0" />
<path
   id="path18124"
   d="m 253.72,708.45 0,0 0,0.01 0,0 0,0.01 0,0.01 0,0.01 0,0.01 0,0.01 0,0.01 0,0.01 0,0.02 0.01,0.01 0,0.02 0,0.01 0,0.02 0.01,0.01 0,0.02 0.01,0.02 0,0.01 0.01,0.02 0,0.02 0.01,0.02 0.01,0.02 0.01,0.01 0.01,0.02 0.01,0.02 0.01,0.02 0.01,0.02 0.01,0.02 0.02,0.02 0.01,0.02 0.02,0.02 c 0.38,-0.28 0.79,-0.31 0.98,-0.31 v 0.23 c -0.86,0 -0.86,0.99 -0.86,1.22 0,0.27 0.01,0.59 0.15,0.84 0.08,0.12 0.31,0.39 0.71,0.39 0.87,0 0.87,-0.99 0.87,-1.22 0,-0.27 -0.01,-0.59 -0.16,-0.84 -0.08,-0.11 -0.31,-0.39 -0.71,-0.39 h 0 v -0.23 c 0.93,0 1.62,0.68 1.62,1.45 0,0.37 -0.16,0.74 -0.41,0.97 0.36,0.33 0.72,0.38 0.9,0.38 0.02,0 0.07,0 0.1,0 -0.11,-0.05 -0.16,-0.15 -0.16,-0.27 0,-0.17 0.13,-0.29 0.29,-0.29 0.09,0 0.28,0.07 0.28,0.3 0,0.17 -0.11,0.48 -0.5,0.48 -0.2,0 -0.64,-0.06 -1.06,-0.46 -0.42,0.32 -0.84,0.35 -1.06,0.35 -0.92,0 -1.61,-0.68 -1.61,-1.45 0,-0.44 0.22,-0.81 0.47,-1.02 -0.13,-0.15 -0.31,-0.48 -0.31,-0.83 0,-0.31 0.13,-0.69 0.44,-0.89 -0.6,-0.17 -0.92,-0.59 -0.92,-0.99 0,-0.72 0.99,-1.26 2.2,-1.26 l 0.01,0.22 c -1,0 -1.69,0.51 -1.69,1.04 0,0.46 0.38,0.82 0.81,0.86 h 0.59 c 0.86,0 1.98,0 1.98,-0.86 0,-0.54 -0.71,-1.04 -1.69,-1.04 h 0 l -0.01,-0.22 c 1.18,0 2.22,0.5 2.22,1.28 0,0.35 -0.14,0.86 -0.65,1.13 -0.53,0.28 -1.11,0.28 -1.72,0.28 -0.25,0 -0.67,0 -0.75,0.01 -0.31,0.04 -0.52,0.35 -0.52,0.67 z"
   inkscape:connector-curvature="0"
   style="fill:#000000;stroke-width:0" />
<path
   id="path18126"
   d="m 258.75,709.42 0.01,0.21 c 0.06,1.49 0.89,1.73 1.23,1.73 1.03,0 1.13,-1.34 1.13,-1.73 h -2.36 l -0.01,-0.21 h 2.78 c 0.22,0 0.25,0 0.25,0.21 0,0.99 -0.54,1.95 -1.79,1.95 -1.15,0 -2.07,-1.02 -2.07,-2.26 0,-1.34 1.05,-2.3 2.19,-2.3 1.22,0 1.67,1.1 1.67,1.29 0,0.1 -0.08,0.12 -0.13,0.12 -0.09,0 -0.11,-0.06 -0.13,-0.14 -0.35,-1.03 -1.25,-1.03 -1.35,-1.03 -0.5,0 -0.89,0.3 -1.12,0.67 -0.3,0.48 -0.3,1.14 -0.3,1.49 z"
   inkscape:connector-curvature="0"
   style="fill:#000000;stroke-width:0" />
<path
   id="path18128"
   d="m 228.61,698.55 0.09,0.03 0.1,0.02 0.09,0.03 0.1,0.03 0.1,0.03 0.09,0.04 0.1,0.03 0.09,0.05 0.1,0.04 0.09,0.04 0.09,0.05 0.09,0.05 0.09,0.06 0.09,0.05 0.08,0.06 0.08,0.06 0.08,0.06 0.07,0.07 0.07,0.06 0.07,0.07 0.06,0.07 0.06,0.08 0.06,0.07 0.05,0.08 0.04,0.08 0.04,0.08 0.04,0.09 0.03,0.08 0.02,0.09 0.02,0.09 0.01,0.09 0,0.09 c 0,0.86 -0.9,1.5 -2.2,1.5 h -2.84 c -0.21,0 -0.29,0 -0.29,-0.2 0,-0.11 0.08,-0.11 0.27,-0.11 0.02,0 0.21,0 0.38,-0.02 0.18,-0.02 0.27,-0.03 0.27,-0.16 0,-0.04 -0.01,-0.07 -0.04,-0.19 l -1.33,-5.34 c -0.1,-0.39 -0.12,-0.47 -0.91,-0.47 -0.18,0 -0.27,0 -0.27,-0.2 0,-0.11 0.12,-0.11 0.14,-0.11 0.28,0 0.98,0.03 1.26,0.03 0.27,0 0.98,-0.03 1.26,-0.03 0.08,0 0.2,0 0.2,0.2 0,0.11 -0.09,0.11 -0.28,0.11 -0.37,0 -0.65,0 -0.65,0.18 0,0.06 0.02,0.11 0.03,0.17 l 0.66,2.63 h 1.19 l -0.01,0.22 h -1.12 l 0.65,2.6 c 0.06,0.24 0.09,0.34 0.28,0.37 0.09,0.01 0.41,0.01 0.61,0.01 0.7,0 1.81,0 1.81,-0.99 0,-0.33 -0.16,-1.02 -0.55,-1.41 -0.26,-0.26 -0.78,-0.58 -1.68,-0.58 l 0.01,-0.22 c 0.91,0 1.09,-0.55 1.09,-0.9 0,-0.15 -0.09,-0.46 -0.14,-0.69 -0.07,-0.28 -0.16,-0.65 -0.16,-0.84 0,-1.08 1.19,-1.08 1.32,-1.08 0.85,0 1.2,1.01 1.2,1.15 0,0.12 -0.11,0.12 -0.12,0.12 -0.09,0 -0.11,-0.07 -0.13,-0.14 -0.25,-0.74 -0.68,-0.91 -0.91,-0.91 -0.33,0 -0.4,0.22 -0.4,0.61 0,0.31 0.06,0.81 0.1,1.13 0.02,0.14 0.04,0.33 0.04,0.47 0,0.77 -0.66,1.07 -0.93,1.17 z"
   inkscape:connector-curvature="0"
   style="fill:#000000;stroke-width:0" />
<path
   id="path18130"
   d="m 238.65,702.09 0,0 0,0 0,0.01 0,0 0,0 0,0.01 0,0 0,0.01 0,0 -0.01,0 0,0.01 0,0 0,0.01 0,0 -0.01,0 0,0.01 0,0 -0.01,0.01 0,0 0,0 -0.01,0.01 0,0 -0.01,0 0,0 -0.01,0.01 0,0 0,0 -0.01,0 0,0 0,0 -0.01,0 0,0 0,0 -0.01,0 0,0.01 0,0 -0.01,0 0,0 -0.01,0 c -0.03,0 -0.04,-0.01 -0.15,-0.12 l -0.69,-0.77 c -0.09,0.14 -0.55,0.89 -1.66,0.89 -2.22,0 -4.47,-2.2 -4.47,-4.51 0,-1.64 1.18,-2.73 2.71,-2.73 0.86,0 1.62,0.4 2.15,0.86 0.93,0.81 1.1,1.72 1.1,1.75 0,0.1 -0.1,0.1 -0.12,0.1 -0.06,0 -0.11,-0.02 -0.13,-0.1 -0.09,-0.29 -0.32,-1 -1.01,-1.57 -0.69,-0.56 -1.32,-0.73 -1.83,-0.73 -0.9,0 -1.96,0.52 -1.96,2.07 0,0.57 0.21,2.18 1.21,3.34 0.61,0.71 1.54,1.21 2.43,1.21 1.02,0 1.61,-0.77 1.61,-1.92 0,-0.4 -0.03,-0.41 -0.03,-0.51 0,-0.1 0.1,-0.1 0.15,-0.1 0.12,0 0.12,0.02 0.17,0.2 z"
   inkscape:connector-curvature="0"
   style="fill:#000000;stroke-width:0" />
<path
   id="path18132"
   d="m 247.85,697.44 0.02,0.01 0.01,0 0.01,0.01 0.01,0 0.01,0.01 0.01,0.01 0.01,0 0,0.01 0.01,0 0.01,0.01 0.01,0 0.01,0.01 0,0 0.01,0.01 0.01,0 0,0.01 0.01,0.01 0.01,0 0,0.01 0.01,0 0,0.01 0,0.01 0.01,0.01 0,0 0,0.01 0.01,0.01 0,0.01 0,0.01 0,0.01 0,0.01 0,0.01 0,0.01 c 0,0.12 -0.07,0.15 -0.19,0.22 l -5.25,2.86 c -0.04,0.02 -0.11,0.06 -0.18,0.06 -0.09,0 -0.2,-0.06 -0.2,-0.2 0,-0.11 0.08,-0.14 0.2,-0.21 l 5.01,-2.73 -5.01,-2.73 c -0.12,-0.07 -0.2,-0.11 -0.2,-0.22 0,-0.2 0.19,-0.2 0.26,-0.2 z"
   inkscape:connector-curvature="0"
   style="fill:#000000;stroke-width:0" />
<path
   id="path18134"
   d="m 250.9,697.44 0.01,0.01 0.01,0 0.01,0.01 0.01,0 0.01,0.01 0.01,0.01 0.01,0 0,0.01 0.01,0 0.01,0.01 0.01,0 0.01,0.01 0,0 0.01,0.01 0.01,0 0,0.01 0.01,0.01 0.01,0 0,0.01 0.01,0 0,0.01 0,0.01 0.01,0.01 0,0 0,0.01 0.01,0.01 0,0.01 0,0.01 0,0.01 0,0.01 0,0.01 0,0.01 c 0,0.12 -0.07,0.15 -0.18,0.22 l -5.26,2.86 c -0.04,0.02 -0.11,0.06 -0.18,0.06 -0.09,0 -0.2,-0.06 -0.2,-0.2 0,-0.11 0.08,-0.14 0.2,-0.21 l 5.01,-2.73 -5.01,-2.73 c -0.12,-0.07 -0.2,-0.11 -0.2,-0.22 0,-0.2 0.19,-0.2 0.26,-0.2 z"
   inkscape:connector-curvature="0"
   style="fill:#000000;stroke-width:0" />
<path
   id="path18136"
   d="m 258.66,701.21 0.01,0.03 0,0.02 0.01,0.02 0.01,0.03 0,0.02 0.01,0.02 0,0.01 0.01,0.02 0,0.02 0.01,0.01 0.01,0.02 0,0.01 0.01,0.02 0,0.01 0.01,0.01 0.01,0.01 0,0.01 0.01,0.01 0.01,0.01 0,0 0.01,0.01 0.01,0.01 0.01,0 0,0.01 0.01,0 0.01,0.01 0.01,0 0.01,0.01 0.01,0 0.01,0 0.01,0.01 0.01,0 c 0.09,0.02 0.42,0.02 0.63,0.02 1,0 1.45,-0.04 1.45,-0.82 0,-0.15 -0.04,-0.53 -0.08,-0.79 -0.01,-0.04 -0.03,-0.16 -0.03,-0.19 0,-0.06 0.03,-0.13 0.12,-0.13 0.11,0 0.13,0.08 0.15,0.23 l 0.27,1.73 c 0.01,0.04 0.02,0.14 0.02,0.17 0,0.11 -0.1,0.11 -0.27,0.11 h -5.53 c -0.24,0 -0.25,-0.01 -0.32,-0.2 l -0.6,-1.75 c -0.01,-0.02 -0.06,-0.16 -0.06,-0.18 0,-0.06 0.05,-0.11 0.12,-0.11 0.1,0 0.11,0.05 0.17,0.21 0.54,1.54 0.8,1.72 2.27,1.72 h 0.39 c 0.28,0 0.28,-0.04 0.28,-0.12 0,-0.06 -0.03,-0.18 -0.04,-0.21 l -1.33,-5.31 c -0.09,-0.37 -0.12,-0.48 -1.19,-0.48 -0.36,0 -0.42,0 -0.42,-0.19 0,-0.12 0.11,-0.12 0.17,-0.12 0.27,0 0.55,0.02 0.82,0.02 0.28,0 0.57,0.01 0.85,0.01 0.28,0 0.56,-0.01 0.82,-0.01 0.29,0 0.59,-0.02 0.87,-0.02 0.1,0 0.22,0 0.22,0.2 0,0.11 -0.08,0.11 -0.34,0.11 -0.25,0 -0.38,0 -0.64,0.02 -0.28,0.03 -0.36,0.06 -0.36,0.22 0,0.01 0,0.06 0.03,0.21 z"
   inkscape:connector-curvature="0"
   style="fill:#000000;stroke-width:0" />
</g>  </g>
</svg>
