<?xml version="1.0" encoding="UTF-8" standalone="no"?>
<svg
   xmlns:ns0="http://www.iki.fi/pav/software/textext/"
   xmlns:dc="http://purl.org/dc/elements/1.1/"
   xmlns:cc="http://creativecommons.org/ns#"
   xmlns:rdf="http://www.w3.org/1999/02/22-rdf-syntax-ns#"
   xmlns:svg="http://www.w3.org/2000/svg"
   xmlns="http://www.w3.org/2000/svg"
   xmlns:sodipodi="http://sodipodi.sourceforge.net/DTD/sodipodi-0.dtd"
   xmlns:inkscape="http://www.inkscape.org/namespaces/inkscape"
   width="217.44576"
   height="135.86171"
   version="1.1"
   id="svg3127"
   inkscape:version="0.48.2 r9819"
   sodipodi:docname="non-inverting_amp.pdf">
  <sodipodi:namedview
     pagecolor="#ffffff"
     bordercolor="#666666"
     borderopacity="1"
     objecttolerance="10"
     gridtolerance="10"
     guidetolerance="10"
     inkscape:pageopacity="0"
     inkscape:pageshadow="2"
     inkscape:window-width="1366"
     inkscape:window-height="743"
     id="namedview3227"
     showgrid="false"
     inkscape:zoom="3.011774"
     inkscape:cx="138.95465"
     inkscape:cy="92.225832"
     inkscape:window-x="0"
     inkscape:window-y="3"
     inkscape:window-maximized="1"
     inkscape:current-layer="svg3127"
     fit-margin-top="0"
     fit-margin-left="0"
     fit-margin-right="0"
     fit-margin-bottom="0" />
  <metadata
     id="metadata3229">
    <rdf:RDF>
      <cc:Work
         rdf:about="">
        <dc:format>image/svg+xml</dc:format>
        <dc:type
           rdf:resource="http://purl.org/dc/dcmitype/StillImage" />
        <dc:title></dc:title>
      </cc:Work>
    </rdf:RDF>
  </metadata>
  <defs
     id="defs3129" />
  <path
     style="fill:none;stroke:#000000;stroke-width:1.60000014;stroke-miterlimit:9.5714283;stroke-dasharray:none"
     inkscape:connector-curvature="0"
     d="m 105.61681,5.9447925 9.31824,0"
     shape-rendering="crispEdges"
     stroke-miterlimit="10"
     id="path3131" />
  <path
     style="fill:none;stroke:#000000;stroke-width:1.60000014;stroke-miterlimit:9.5714283;stroke-dasharray:none"
     inkscape:connector-curvature="0"
     d="m 148.06153,5.9447925 9.31824,0"
     shape-rendering="crispEdges"
     stroke-miterlimit="10"
     id="path3133" />
  <rect
     style="fill:#ffffff;stroke:#000000;stroke-width:1.60000014;stroke-miterlimit:9.5714283;stroke-dasharray:none"
     x="114.935"
     y="0.80000007"
     width="33.128166"
     height="10.287862"
     shape-rendering="crispEdges"
     id="rect3135" />
  <path
     style="fill:none;stroke:#000000;stroke-width:1.60000014;stroke-miterlimit:9.5714283;stroke-dasharray:none"
     inkscape:connector-curvature="0"
     d="m 48.680363,36.810049 9.316598,0"
     shape-rendering="crispEdges"
     stroke-miterlimit="10"
     id="path3137" />
  <path
     style="fill:none;stroke:#000000;stroke-width:1.60000014;stroke-miterlimit:9.5714283;stroke-dasharray:none"
     inkscape:connector-curvature="0"
     d="m 91.125088,36.810049 9.316602,0"
     shape-rendering="crispEdges"
     stroke-miterlimit="10"
     id="path3139" />
  <rect
     style="fill:#ffffff;stroke:#000000;stroke-width:1.60000014;stroke-miterlimit:9.5714283;stroke-dasharray:none"
     x="57.996895"
     y="31.665295"
     width="33.128166"
     height="10.287862"
     shape-rendering="crispEdges"
     id="rect3141" />
  <ellipse
     style="fill:#ffffff;stroke:#000000;stroke-width:9.54898357;stroke-miterlimit:9.5714283;stroke-dasharray:none"
     transform="matrix(0.16807796,0,0,0.16703786,0.74453669,0.81338746)"
     sodipodi:ry="92.389999"
     sodipodi:rx="92.389999"
     sodipodi:cy="526.53998"
     sodipodi:cx="439.17999"
     cx="439.17999"
     cy="526.53998"
     rx="92.389999"
     ry="92.389999"
     id="ellipse3143" />
  <path
     style="fill:none;stroke:#000000;stroke-width:1.60000014;stroke-miterlimit:9.5714283;stroke-dasharray:none"
     inkscape:connector-curvature="0"
     d="m 66.795798,88.765506 c 0.603379,-1.61359 2.151432,-2.68263 3.882593,-2.68263 1.731238,0 3.279214,1.06904 3.882593,2.68263 0.601738,1.61358 2.149714,2.68262 3.880956,2.68262 1.731161,0 3.280855,-1.06904 3.882593,-2.68262"
     stroke-miterlimit="10"
     id="path3145" />
  <path
     style="fill:none;stroke:#000000;stroke-width:1.60000014;stroke-miterlimit:9.5714283;stroke-dasharray:none"
     inkscape:connector-curvature="0"
     d="m 61.620673,119.63077 25.880703,0"
     shape-rendering="crispEdges"
     stroke-miterlimit="10"
     id="path3147" />
  <path
     style="fill:none;stroke:#000000;stroke-width:1.60000014;stroke-miterlimit:9.5714283;stroke-dasharray:none"
     inkscape:connector-curvature="0"
     d="m 63.69141,122.20148 21.739229,0"
     shape-rendering="crispEdges"
     stroke-miterlimit="10"
     id="path3149" />
  <path
     style="fill:none;stroke:#000000;stroke-width:1.60000014;stroke-miterlimit:9.5714283;stroke-dasharray:none"
     inkscape:connector-curvature="0"
     d="m 65.760429,124.77386 17.599473,0"
     shape-rendering="crispEdges"
     stroke-miterlimit="10"
     id="path3151" />
  <path
     style="fill:none;stroke:#000000;stroke-width:1.60000014;stroke-miterlimit:9.5714283;stroke-dasharray:none"
     inkscape:connector-curvature="0"
     d="m 70.160706,129.91863 8.798918,0"
     shape-rendering="crispEdges"
     stroke-miterlimit="10"
     id="path3153" />
  <path
     style="fill:none;stroke:#000000;stroke-width:1.60000014;stroke-miterlimit:9.5714283;stroke-dasharray:none"
     inkscape:connector-curvature="0"
     d="m 72.231443,132.49101 4.659159,0"
     shape-rendering="crispEdges"
     stroke-miterlimit="10"
     id="path3155" />
  <path
     style="fill:none;stroke:#000000;stroke-width:1.60000014;stroke-miterlimit:9.5714283;stroke-dasharray:none"
     inkscape:connector-curvature="0"
     d="m 74.560984,114.48599 0,5.14478"
     shape-rendering="crispEdges"
     stroke-miterlimit="10"
     id="path3157" />
  <path
     style="fill:none;stroke:#000000;stroke-width:1.60000014;stroke-miterlimit:9.5714283;stroke-dasharray:none"
     inkscape:connector-curvature="0"
     d="m 68.090047,127.34624 12.940315,0"
     shape-rendering="crispEdges"
     stroke-miterlimit="10"
     id="path3159" />
  <path
     style="fill:none;stroke:#000000;stroke-width:1.60000014;stroke-miterlimit:9.5714283;stroke-dasharray:none"
     inkscape:connector-curvature="0"
     d="m 74.302181,135.06172 0.517684,0"
     shape-rendering="crispEdges"
     stroke-miterlimit="10"
     id="path3161" />
  <path
     style="fill:none;stroke:#000000;stroke-width:1.60000014;stroke-miterlimit:9.5714283;stroke-dasharray:none"
     inkscape:connector-curvature="0"
     d="m 152.20293,47.097908 49.82166,0 c 1.68078,0 1.68078,0 1.68078,1.670376 l 0,18.390872"
     stroke-miterlimit="10"
     id="path3163" />
  <path
     style="fill:none;stroke:#000000;stroke-width:1.60000014;stroke-miterlimit:9.5714283;stroke-dasharray:none"
     inkscape:connector-curvature="0"
     d="m 100.44169,36.810049 10.35189,0"
     shape-rendering="crispEdges"
     stroke-miterlimit="10"
     id="path3165" />
  <path
     style="fill:none;stroke:#000000;stroke-width:1.60000014;stroke-miterlimit:9.5714283;stroke-dasharray:none"
     inkscape:connector-curvature="0"
     d="m 100.44169,57.385766 10.35189,0"
     shape-rendering="crispEdges"
     stroke-miterlimit="10"
     id="path3167" />
  <path
     style="fill:none;stroke:#000000;stroke-width:1.60000014;stroke-miterlimit:9.5714283;stroke-dasharray:none"
     inkscape:connector-curvature="0"
     d="m 141.85104,47.097908 10.35189,0"
     shape-rendering="crispEdges"
     stroke-miterlimit="10"
     id="path3169" />
  <path
     style="fill:#ffffff;stroke:#000000;stroke-width:1.60000014;stroke-miterlimit:9.5714283;stroke-dasharray:none"
     inkscape:connector-curvature="0"
     d="m 110.79358,31.665284 31.05746,15.432624 -31.05746,15.432628 z"
     stroke-miterlimit="10"
     id="path3171" />
  <path
     style="fill:none;stroke:#000000;stroke-width:1.60000014;stroke-miterlimit:9.5714283;stroke-dasharray:none"
     inkscape:connector-curvature="0"
     d="m 74.560984,114.48599 0,-3.47438 c 0,-1.67038 0,-1.67038 0,-1.67038 l 0,0 0,-5.1431"
     stroke-miterlimit="10"
     id="path3173" />
  <path
     style="fill:none;stroke:#000000;stroke-width:1.60000014;stroke-miterlimit:9.5714283;stroke-dasharray:none"
     inkscape:connector-curvature="0"
     d="m 74.560984,73.332876 0,-14.27672 c 0,-1.67039 0,-1.67039 1.680775,-1.67039 l 24.199931,0"
     stroke-miterlimit="10"
     id="path3175" />
  <path
     style="fill:none;stroke:#000000;stroke-width:1.60000014;stroke-miterlimit:9.5714283;stroke-dasharray:none"
     inkscape:connector-curvature="0"
     d="m 105.61681,5.9447925 -1.29253,0 c -1.29425,0 -1.29425,0 -1.29425,1.670375 l 0,27.5244975 c 0,1.670384 0,1.670384 -1.29417,1.670384 l -1.29417,0"
     stroke-miterlimit="10"
     id="path3177" />
  <path
     style="fill:none;stroke:#000000;stroke-width:1.60000014;stroke-miterlimit:9.5714283;stroke-dasharray:none"
     inkscape:connector-curvature="0"
     d="m 157.37977,5.9447925 13.93193,0 c 1.68078,0 1.68078,0 1.67578,1.670375 l -0.079,39.4827405"
     stroke-miterlimit="10"
     id="path3179" />
  <path
     style="fill:none;stroke:#000000;stroke-width:1.60000014;stroke-miterlimit:9.5714283;stroke-dasharray:none"
     inkscape:connector-curvature="0"
     d="m 48.680363,36.810049 -33.259282,0 c -1.680775,0 -1.680775,0 -1.680775,1.670375 l 0,8.617484"
     stroke-miterlimit="10"
     id="path3181" />
  <path
     style="fill:none;stroke:#000000;stroke-width:1.60000014;stroke-miterlimit:9.5714283;stroke-dasharray:none"
     inkscape:connector-curvature="0"
     d="m 0.80000007,52.242676 25.88061693,0"
     shape-rendering="crispEdges"
     stroke-miterlimit="10"
     id="path3183" />
  <path
     style="fill:none;stroke:#000000;stroke-width:1.60000014;stroke-miterlimit:9.5714283;stroke-dasharray:none"
     inkscape:connector-curvature="0"
     d="m 2.8707372,54.813386 21.7392208,0"
     shape-rendering="crispEdges"
     stroke-miterlimit="10"
     id="path3185" />
  <path
     style="fill:none;stroke:#000000;stroke-width:1.60000014;stroke-miterlimit:9.5714283;stroke-dasharray:none"
     inkscape:connector-curvature="0"
     d="m 4.9414744,57.385766 17.5993866,0"
     shape-rendering="crispEdges"
     stroke-miterlimit="10"
     id="path3187" />
  <path
     style="fill:none;stroke:#000000;stroke-width:1.60000014;stroke-miterlimit:9.5714283;stroke-dasharray:none"
     inkscape:connector-curvature="0"
     d="m 9.3417478,62.530536 8.7988362,0"
     shape-rendering="crispEdges"
     stroke-miterlimit="10"
     id="path3189" />
  <path
     style="fill:none;stroke:#000000;stroke-width:1.60000014;stroke-miterlimit:9.5714283;stroke-dasharray:none"
     inkscape:connector-curvature="0"
     d="m 11.410766,65.102916 4.659081,0"
     shape-rendering="crispEdges"
     stroke-miterlimit="10"
     id="path3191" />
  <path
     style="fill:none;stroke:#000000;stroke-width:1.60000014;stroke-miterlimit:9.5714283;stroke-dasharray:none"
     inkscape:connector-curvature="0"
     d="m 13.740306,47.097908 0,5.144768"
     shape-rendering="crispEdges"
     stroke-miterlimit="10"
     id="path3193" />
  <path
     style="fill:none;stroke:#000000;stroke-width:1.60000014;stroke-miterlimit:9.5714283;stroke-dasharray:none"
     inkscape:connector-curvature="0"
     d="m 7.2710107,59.958156 12.9403103,0"
     shape-rendering="crispEdges"
     stroke-miterlimit="10"
     id="path3195" />
  <path
     style="fill:none;stroke:#000000;stroke-width:1.60000014;stroke-miterlimit:9.5714283;stroke-dasharray:none"
     inkscape:connector-curvature="0"
     d="m 13.481503,67.673626 0.517685,0"
     shape-rendering="crispEdges"
     stroke-miterlimit="10"
     id="path3197" />
  <rect
     style="fill:none;stroke:none"
     x="99.406296"
     y="34.237682"
     width="10.093081"
     height="10.287862"
     shape-rendering="crispEdges"
     id="rect3199" />
  <rect
     style="fill:none;stroke:none"
     x="96.817886"
     y="46.583454"
     width="10.093081"
     height="10.287862"
     shape-rendering="crispEdges"
     id="rect3205" />
  <path
     style="fill:none;stroke:#000000;stroke-width:1.60000014;stroke-miterlimit:9.5714283;stroke-dasharray:none"
     inkscape:connector-curvature="0"
     d="m 190.76506,72.303926 25.88069,0"
     shape-rendering="crispEdges"
     stroke-miterlimit="10"
     id="path3211" />
  <path
     style="fill:none;stroke:#000000;stroke-width:1.60000014;stroke-miterlimit:9.5714283;stroke-dasharray:none"
     inkscape:connector-curvature="0"
     d="m 192.83579,74.876306 21.73923,0"
     shape-rendering="crispEdges"
     stroke-miterlimit="10"
     id="path3213" />
  <path
     style="fill:none;stroke:#000000;stroke-width:1.60000014;stroke-miterlimit:9.5714283;stroke-dasharray:none"
     inkscape:connector-curvature="0"
     d="m 194.90653,77.448686 17.59947,0"
     shape-rendering="crispEdges"
     stroke-miterlimit="10"
     id="path3215" />
  <path
     style="fill:none;stroke:#000000;stroke-width:1.60000014;stroke-miterlimit:9.5714283;stroke-dasharray:none"
     inkscape:connector-curvature="0"
     d="m 199.30681,82.591786 8.79883,0"
     shape-rendering="crispEdges"
     stroke-miterlimit="10"
     id="path3217" />
  <path
     style="fill:none;stroke:#000000;stroke-width:1.60000014;stroke-miterlimit:9.5714283;stroke-dasharray:none"
     inkscape:connector-curvature="0"
     d="m 201.37583,85.164166 4.65915,0"
     shape-rendering="crispEdges"
     stroke-miterlimit="10"
     id="path3219" />
  <path
     style="fill:none;stroke:#000000;stroke-width:1.60000014;stroke-miterlimit:9.5714283;stroke-dasharray:none"
     inkscape:connector-curvature="0"
     d="m 203.70537,67.159156 0,5.14477"
     shape-rendering="crispEdges"
     stroke-miterlimit="10"
     id="path3221" />
  <path
     style="fill:none;stroke:#000000;stroke-width:1.60000014;stroke-miterlimit:9.5714283;stroke-dasharray:none"
     inkscape:connector-curvature="0"
     d="m 197.23607,80.021076 12.94031,0"
     shape-rendering="crispEdges"
     stroke-miterlimit="10"
     id="path3223" />
  <path
     style="fill:none;stroke:#000000;stroke-width:1.60000014;stroke-miterlimit:9.5714283;stroke-dasharray:none"
     inkscape:connector-curvature="0"
     d="m 203.44656,87.736546 0.51769,0"
     shape-rendering="crispEdges"
     stroke-miterlimit="10"
     id="path3225" />
  <g
     style="font-style:normal;font-variant:normal;font-weight:normal;font-stretch:normal;letter-spacing:normal;word-spacing:normal;text-anchor:start;fill:none;stroke:#000000;stroke-linecap:butt;stroke-linejoin:miter;stroke-miterlimit:10.43299961;stroke-opacity:1;stroke-dasharray:none;stroke-dashoffset:0"
     id="content"
     transform="matrix(1,0,0,-1,-294.13903,753.78686)"
     xml:space="preserve"
     stroke-miterlimit="10.433"
     font-style="normal"
     font-variant="normal"
     font-weight="normal"
     font-stretch="normal"
     font-size-adjust="none"
     letter-spacing="normal"
     word-spacing="normal"
     ns0:text="\\[\nA\n\\]"
     ns0:preamble="/home/josh/Desktop/preamble (copy).txt">
<path
   style="fill:#000000;stroke-width:0"
   inkscape:connector-curvature="0"
   d="m 393.34,708.27 -0.04,-0.06 -0.04,-0.06 -0.04,-0.05 -0.03,-0.06 -0.04,-0.05 -0.04,-0.04 -0.03,-0.05 -0.04,-0.04 -0.04,-0.04 -0.04,-0.03 -0.03,-0.04 -0.04,-0.03 -0.04,-0.03 -0.04,-0.03 -0.03,-0.02 -0.04,-0.03 -0.04,-0.02 -0.04,-0.02 -0.04,-0.02 -0.03,-0.01 -0.04,-0.02 -0.04,-0.01 -0.04,-0.02 -0.04,-0.01 -0.04,-0.01 -0.04,-0.01 -0.04,0 -0.04,-0.01 -0.08,-0.01 -0.08,-0.01 c -0.12,-0.01 -0.21,-0.01 -0.21,-0.2 0,-0.06 0.05,-0.11 0.13,-0.11 0.27,0 0.58,0.04 0.86,0.04 0.33,0 0.68,-0.04 1,-0.04 0.05,0 0.18,0 0.18,0.19 0,0.11 -0.09,0.12 -0.16,0.12 -0.23,0.02 -0.46,0.1 -0.46,0.35 0,0.12 0.06,0.23 0.14,0.37 l 0.75,1.27 h 2.51 l -0.03,0.31 h -2.29 l 1.97,3.29 0.32,-3.29 0.03,-0.31 c 0.01,-0.2 0.16,-1.56 0.16,-1.66 0,-0.3 -0.52,-0.33 -0.72,-0.33 -0.14,0 -0.24,0 -0.24,-0.2 0,-0.11 0.12,-0.11 0.14,-0.11 0.41,0 0.83,0.04 1.24,0.04 0.25,0 0.88,-0.04 1.13,-0.04 0.06,0 0.18,0 0.18,0.2 0,0.11 -0.1,0.11 -0.23,0.11 -0.62,0 -0.62,0.07 -0.65,0.36 l -0.61,6.22 c -0.02,0.2 -0.02,0.24 -0.19,0.24 -0.16,0 -0.2,-0.07 -0.26,-0.17 z"
   id="path3280" />
</g>  <g
     style="font-style:normal;font-variant:normal;font-weight:normal;font-stretch:normal;letter-spacing:normal;word-spacing:normal;text-anchor:start;fill:none;stroke:#000000;stroke-linecap:butt;stroke-linejoin:miter;stroke-miterlimit:10.43299961;stroke-opacity:1;stroke-dasharray:none;stroke-dashoffset:0"
     ns0:preamble="/home/josh/Desktop/preamble (copy).txt"
     ns0:text="\\[\nB\n\\]"
     word-spacing="normal"
     letter-spacing="normal"
     font-size-adjust="none"
     font-stretch="normal"
     font-weight="normal"
     font-variant="normal"
     font-style="normal"
     stroke-miterlimit="10.433"
     xml:space="preserve"
     transform="matrix(1,0,0,-1,-296.48058,776.88593)"
     id="g4169">
<path
   id="path4171"
   d="m 392.85,707.9 -0.01,-0.03 0,-0.04 -0.01,-0.03 -0.01,-0.03 -0.01,-0.03 -0.01,-0.03 -0.01,-0.02 -0.01,-0.03 -0.01,-0.02 -0.01,-0.02 -0.02,-0.02 -0.01,-0.02 -0.02,-0.01 -0.01,-0.02 -0.02,-0.01 -0.02,-0.02 -0.02,-0.01 -0.03,-0.01 -0.03,-0.01 -0.03,-0.01 -0.03,-0.01 -0.02,0 -0.01,-0.01 -0.02,0 -0.02,0 -0.02,0 -0.02,-0.01 -0.03,0 -0.02,0 -0.02,0 -0.03,-0.01 -0.02,0 -0.03,0 -0.02,0 -0.03,0 -0.03,0 -0.03,0 -0.03,0 -0.03,0 -0.04,-0.01 -0.03,0 -0.04,0 -0.03,0 c -0.17,0 -0.27,0 -0.27,-0.2 0,-0.11 0.09,-0.11 0.27,-0.11 h 3.56 c 1.57,0 2.75,1.18 2.75,2.16 0,0.71 -0.58,1.29 -1.55,1.4 1.04,0.19 2.09,0.92 2.09,1.87 0,0.74 -0.66,1.37 -1.86,1.37 l -0.14,-0.31 c 0.88,0 1.09,-0.58 1.09,-1.02 0,-0.88 -0.86,-1.82 -2.07,-1.82 h -1.46 l -0.06,-0.22 h 1.88 c 0.96,0 1.15,-0.74 1.15,-1.17 0,-0.98 -0.89,-1.95 -2.06,-1.95 h -1.36 c -0.14,0 -0.16,0 -0.22,0.01 -0.1,0.01 -0.13,0.02 -0.13,0.1 0,0.03 0,0.05 0.05,0.23 l 0.69,2.78 0.06,0.22 0.62,2.47 c 0.09,0.34 0.11,0.37 0.54,0.37 h 1.28 l 0.14,0.31 h -3.35 c -0.19,0 -0.29,0 -0.29,-0.2 0,-0.11 0.09,-0.11 0.28,-0.11 0.02,0 0.21,0 0.38,-0.02 0.18,-0.02 0.27,-0.03 0.27,-0.16 0,-0.03 -0.01,-0.07 -0.04,-0.18 z"
   inkscape:connector-curvature="0"
   style="fill:#000000;stroke-width:0" />
</g>  <g
     id="g4296"
     transform="matrix(1,0,0,-1,-321.09631,735.24268)"
     xml:space="preserve"
     stroke-miterlimit="10.433"
     font-style="normal"
     font-variant="normal"
     font-weight="normal"
     font-stretch="normal"
     font-size-adjust="none"
     letter-spacing="normal"
     word-spacing="normal"
     ns0:text="\\[\nR_1\n\\]"
     ns0:preamble="/home/josh/Desktop/preamble (copy).txt"
     style="font-style:normal;font-variant:normal;font-weight:normal;font-stretch:normal;letter-spacing:normal;word-spacing:normal;text-anchor:start;fill:none;stroke:#000000;stroke-linecap:butt;stroke-linejoin:miter;stroke-miterlimit:10.43299961;stroke-opacity:1;stroke-dasharray:none;stroke-dashoffset:0">
<path
   d="m 394.45,710.51 0.09,0.02 0.1,0.03 0.09,0.02 0.1,0.03 0.09,0.04 0.1,0.03 0.1,0.04 0.09,0.04 0.1,0.04 0.09,0.05 0.09,0.05 0.09,0.05 0.09,0.05 0.08,0.06 0.09,0.05 0.08,0.06 0.08,0.07 0.07,0.06 0.07,0.07 0.07,0.07 0.06,0.07 0.06,0.07 0.06,0.08 0.05,0.08 0.04,0.08 0.04,0.08 0.04,0.08 0.03,0.09 0.02,0.09 0.01,0.09 0.01,0.09 0.01,0.09 c 0,0.86 -0.9,1.49 -2.21,1.49 h -2.84 c -0.2,0 -0.29,0 -0.29,-0.2 0,-0.11 0.09,-0.11 0.28,-0.11 0.02,0 0.21,0 0.38,-0.02 0.18,-0.02 0.27,-0.03 0.27,-0.16 0,-0.03 -0.01,-0.07 -0.04,-0.18 l -1.33,-5.35 c -0.1,-0.39 -0.12,-0.47 -0.91,-0.47 -0.18,0 -0.27,0 -0.27,-0.2 0,-0.11 0.12,-0.11 0.14,-0.11 0.28,0 0.98,0.04 1.26,0.04 0.27,0 0.98,-0.04 1.26,-0.04 0.08,0 0.2,0 0.2,0.2 0,0.11 -0.09,0.11 -0.28,0.11 -0.37,0 -0.65,0 -0.65,0.18 0,0.06 0.02,0.11 0.03,0.17 l 0.66,2.64 h 1.19 l -0.01,0.22 h -1.12 l 0.65,2.6 c 0.06,0.23 0.09,0.33 0.28,0.36 0.09,0.01 0.41,0.01 0.61,0.01 0.7,0 1.81,0 1.81,-0.98 0,-0.34 -0.16,-1.03 -0.55,-1.41 -0.26,-0.26 -0.78,-0.58 -1.68,-0.58 l 0.01,-0.22 c 0.9,0 1.08,-0.56 1.08,-0.91 0,-0.15 -0.08,-0.45 -0.14,-0.68 -0.07,-0.28 -0.16,-0.65 -0.16,-0.85 0,-1.07 1.2,-1.07 1.33,-1.07 0.85,0 1.2,1 1.2,1.14 0,0.12 -0.11,0.12 -0.12,0.12 -0.09,0 -0.11,-0.07 -0.13,-0.14 -0.25,-0.74 -0.68,-0.91 -0.91,-0.91 -0.33,0 -0.4,0.22 -0.4,0.61 0,0.31 0.06,0.82 0.1,1.14 0.02,0.14 0.04,0.33 0.04,0.46 0,0.77 -0.67,1.08 -0.93,1.18 z"
   id="path4298"
   inkscape:connector-curvature="0"
   style="fill:#000000;stroke-width:0" />
<path
   d="m 399.17,710.05 0,0.01 0,0.01 0,0.01 0,0.01 0,0 0,0.01 0,0.01 0,0.01 0,0 0,0.01 0,0 0,0.01 -0.01,0.01 0,0 0,0.01 0,0 0,0.01 0,0 0,0.01 0,0.01 -0.01,0.01 0,0 0,0.01 -0.01,0.01 0,0 -0.01,0.01 -0.01,0 0,0 -0.01,0.01 -0.01,0 -0.01,0 -0.01,0 0,0 -0.01,0 0,0 -0.01,0.01 0,0 -0.01,0 -0.01,0 0,0 -0.01,0 -0.01,0 0,0 -0.01,0 -0.01,0 -0.01,0 0,0 -0.01,0 -0.01,0 -0.01,0 c -0.45,-0.44 -1.08,-0.45 -1.37,-0.45 v -0.25 c 0.17,0 0.63,0 1.01,0.2 v -3.55 c 0,-0.23 0,-0.32 -0.69,-0.32 h -0.27 v -0.25 c 0.13,0.01 0.98,0.03 1.24,0.03 0.22,0 1.1,-0.02 1.25,-0.03 v 0.25 h -0.27 c -0.69,0 -0.69,0.09 -0.69,0.32 z"
   id="path4300"
   inkscape:connector-curvature="0"
   style="fill:#000000;stroke-width:0" />
</g>  <g
     style="font-style:normal;font-variant:normal;font-weight:normal;font-stretch:normal;letter-spacing:normal;word-spacing:normal;text-anchor:start;fill:none;stroke:#000000;stroke-linecap:butt;stroke-linejoin:miter;stroke-miterlimit:10.43299961;stroke-opacity:1;stroke-dasharray:none;stroke-dashoffset:0"
     ns0:preamble="/home/josh/Desktop/preamble (copy).txt"
     ns0:text="\\[\nR_2\n\\]"
     word-spacing="normal"
     letter-spacing="normal"
     font-size-adjust="none"
     font-stretch="normal"
     font-weight="normal"
     font-variant="normal"
     font-style="normal"
     stroke-miterlimit="10.433"
     xml:space="preserve"
     transform="matrix(1,0,0,-1,-256.76053,729.07986)"
     id="g4434">
<path
   id="path4436"
   d="m 394.45,710.51 0.09,0.02 0.1,0.03 0.09,0.02 0.1,0.03 0.09,0.04 0.1,0.03 0.1,0.04 0.09,0.04 0.1,0.04 0.09,0.05 0.09,0.05 0.09,0.05 0.09,0.05 0.08,0.06 0.09,0.05 0.08,0.06 0.08,0.07 0.07,0.06 0.07,0.07 0.07,0.07 0.06,0.07 0.06,0.07 0.06,0.08 0.05,0.08 0.04,0.08 0.04,0.08 0.04,0.08 0.03,0.09 0.02,0.09 0.01,0.09 0.01,0.09 0.01,0.09 c 0,0.86 -0.9,1.49 -2.21,1.49 h -2.84 c -0.2,0 -0.29,0 -0.29,-0.2 0,-0.11 0.09,-0.11 0.28,-0.11 0.02,0 0.21,0 0.38,-0.02 0.18,-0.02 0.27,-0.03 0.27,-0.16 0,-0.03 -0.01,-0.07 -0.04,-0.18 l -1.33,-5.35 c -0.1,-0.39 -0.12,-0.47 -0.91,-0.47 -0.18,0 -0.27,0 -0.27,-0.2 0,-0.11 0.12,-0.11 0.14,-0.11 0.28,0 0.98,0.04 1.26,0.04 0.27,0 0.98,-0.04 1.26,-0.04 0.08,0 0.2,0 0.2,0.2 0,0.11 -0.09,0.11 -0.28,0.11 -0.37,0 -0.65,0 -0.65,0.18 0,0.06 0.02,0.11 0.03,0.17 l 0.66,2.64 h 1.19 l -0.01,0.22 h -1.12 l 0.65,2.6 c 0.06,0.23 0.09,0.33 0.28,0.36 0.09,0.01 0.41,0.01 0.61,0.01 0.7,0 1.81,0 1.81,-0.98 0,-0.34 -0.16,-1.03 -0.55,-1.41 -0.26,-0.26 -0.78,-0.58 -1.68,-0.58 l 0.01,-0.22 c 0.9,0 1.08,-0.56 1.08,-0.91 0,-0.15 -0.08,-0.45 -0.14,-0.68 -0.07,-0.28 -0.16,-0.65 -0.16,-0.85 0,-1.07 1.2,-1.07 1.33,-1.07 0.85,0 1.2,1 1.2,1.14 0,0.12 -0.11,0.12 -0.12,0.12 -0.09,0 -0.11,-0.07 -0.13,-0.14 -0.25,-0.74 -0.68,-0.91 -0.91,-0.91 -0.33,0 -0.4,0.22 -0.4,0.61 0,0.31 0.06,0.82 0.1,1.14 0.02,0.14 0.04,0.33 0.04,0.46 0,0.77 -0.67,1.08 -0.93,1.18 z"
   inkscape:connector-curvature="0"
   style="fill:#000000;stroke-width:0" />
<path
   id="path4438"
   d="m 400.35,706.9 h -0.24 c -0.02,-0.16 -0.09,-0.57 -0.18,-0.64 -0.05,-0.04 -0.59,-0.04 -0.69,-0.04 h -1.28 c 0.74,0.65 0.98,0.84 1.4,1.17 0.51,0.41 0.99,0.84 0.99,1.5 0,0.84 -0.74,1.36 -1.63,1.36 -0.86,0 -1.45,-0.61 -1.45,-1.25 0,-0.35 0.3,-0.39 0.37,-0.39 0.17,0 0.37,0.12 0.37,0.37 0,0.13 -0.05,0.37 -0.41,0.37 0.22,0.49 0.69,0.65 1.02,0.65 0.69,0 1.06,-0.54 1.06,-1.11 0,-0.6 -0.44,-1.08 -0.66,-1.33 l -1.68,-1.66 c -0.07,-0.06 -0.07,-0.07 -0.07,-0.27 h 2.87 z"
   inkscape:connector-curvature="0"
   style="fill:#000000;stroke-width:0" />
</g>  <g
     id="g4575"
     transform="matrix(1,0,0,-1,-344.01623,798.85099)"
     xml:space="preserve"
     stroke-miterlimit="10.433"
     font-style="normal"
     font-variant="normal"
     font-weight="normal"
     font-stretch="normal"
     font-size-adjust="none"
     letter-spacing="normal"
     word-spacing="normal"
     ns0:text="\\[\nV_i\n\\]"
     ns0:preamble="/home/josh/Desktop/preamble (copy).txt"
     style="font-style:normal;font-variant:normal;font-weight:normal;font-stretch:normal;letter-spacing:normal;word-spacing:normal;text-anchor:start;fill:none;stroke:#000000;stroke-linecap:butt;stroke-linejoin:miter;stroke-miterlimit:10.43299961;stroke-opacity:1;stroke-dasharray:none;stroke-dashoffset:0">
<path
   style="fill:#000000;stroke-width:0"
   inkscape:connector-curvature="0"
   d="m 396.98,712.79 0.05,0.07 0.04,0.06 0.05,0.07 0.04,0.06 0.05,0.05 0.04,0.05 0.04,0.05 0.05,0.04 0.04,0.04 0.04,0.04 0.04,0.03 0.04,0.04 0.05,0.02 0.04,0.03 0.04,0.02 0.04,0.02 0.04,0.02 0.03,0.02 0.04,0.02 0.04,0.01 0.04,0.01 0.04,0.01 0.04,0.01 0.03,0.01 0.04,0 0.04,0.01 0.07,0 0.07,0.01 0.07,0 c 0.12,0.01 0.13,0.18 0.13,0.19 0,0.08 -0.05,0.12 -0.13,0.12 -0.26,0 -0.55,-0.03 -0.82,-0.03 -0.33,0 -0.67,0.03 -0.99,0.03 -0.06,0 -0.18,0 -0.18,-0.19 0,-0.11 0.09,-0.12 0.15,-0.12 0.27,-0.02 0.46,-0.12 0.46,-0.32 0,-0.15 -0.15,-0.37 -0.15,-0.38 l -3.06,-4.86 -0.67,5.27 c 0,0.16 0.23,0.29 0.68,0.29 0.14,0 0.25,0 0.25,0.2 0,0.09 -0.08,0.11 -0.14,0.11 -0.4,0 -0.82,-0.03 -1.23,-0.03 -0.18,0 -0.37,0.01 -0.55,0.01 -0.18,0 -0.37,0.02 -0.54,0.02 -0.07,0 -0.19,0 -0.19,-0.19 0,-0.12 0.09,-0.12 0.25,-0.12 0.56,0 0.57,-0.09 0.6,-0.33 l 0.79,-6.14 c 0.03,-0.2 0.07,-0.23 0.19,-0.23 0.16,0 0.21,0.05 0.28,0.18 z"
   id="path4577" />
<path
   style="fill:#000000;stroke-width:0"
   inkscape:connector-curvature="0"
   d="m 398.79,709.98 0,0.01 0,0.01 0,0.01 0,0.01 -0.01,0.01 0,0.01 0,0.01 -0.01,0.02 0,0.01 0,0.01 -0.01,0.01 -0.01,0.01 0,0.01 -0.01,0.01 -0.01,0.01 0,0.01 -0.01,0.01 -0.01,0.01 -0.01,0.01 -0.01,0.01 -0.01,0 -0.02,0.01 -0.01,0.01 -0.01,0.01 -0.01,0 -0.02,0.01 -0.01,0 -0.02,0 -0.02,0.01 -0.01,0 -0.02,0 -0.02,0 c -0.18,0 -0.39,-0.18 -0.39,-0.38 0,-0.12 0.09,-0.27 0.28,-0.27 0.2,0 0.39,0.2 0.39,0.39 z"
   id="path4579" />
<path
   style="fill:#000000;stroke-width:0"
   inkscape:connector-curvature="0"
   d="m 397.37,706.44 0,-0.01 -0.01,-0.02 -0.01,-0.03 -0.01,-0.02 0,-0.02 -0.01,-0.01 0,-0.02 -0.01,-0.02 0,-0.02 0,-0.02 -0.01,-0.01 0,-0.01 0,-0.01 0,-0.01 0,-0.01 0,-0.02 0,-0.01 0,-0.01 0,-0.01 c 0,-0.32 0.28,-0.59 0.66,-0.59 0.7,0 1,0.96 1,1.06 0,0.1 -0.09,0.1 -0.11,0.1 -0.1,0 -0.1,-0.05 -0.13,-0.12 -0.16,-0.56 -0.47,-0.84 -0.74,-0.84 -0.14,0 -0.17,0.09 -0.17,0.24 0,0.16 0.04,0.29 0.11,0.44 0.07,0.19 0.14,0.38 0.22,0.56 0.06,0.17 0.31,0.8 0.34,0.88 0.02,0.07 0.04,0.16 0.04,0.23 0,0.32 -0.27,0.59 -0.66,0.59 -0.69,0 -1.01,-0.95 -1.01,-1.07 0,-0.09 0.1,-0.09 0.12,-0.09 0.1,0 0.1,0.04 0.13,0.11 0.18,0.6 0.48,0.85 0.74,0.85 0.11,0 0.17,-0.05 0.17,-0.24 0,-0.16 -0.04,-0.27 -0.21,-0.7 z"
   id="path4581" />
</g>  <g
     style="font-style:normal;font-variant:normal;font-weight:normal;font-stretch:normal;letter-spacing:normal;word-spacing:normal;text-anchor:start;fill:none;stroke:#000000;stroke-linecap:butt;stroke-linejoin:miter;stroke-miterlimit:10.43299961;stroke-opacity:1;stroke-dasharray:none;stroke-dashoffset:0"
     ns0:preamble="/home/josh/Desktop/preamble (copy).txt"
     ns0:text="\\[\nV_o\n\\]"
     word-spacing="normal"
     letter-spacing="normal"
     font-size-adjust="none"
     font-stretch="normal"
     font-weight="normal"
     font-variant="normal"
     font-style="normal"
     stroke-miterlimit="10.433"
     xml:space="preserve"
     transform="matrix(1,0,0,-1,-183.90452,757.0858)"
     id="g4732">
<path
   id="path4734"
   d="m 396.43,712.79 0.04,0.07 0.05,0.06 0.04,0.07 0.05,0.06 0.04,0.05 0.04,0.05 0.05,0.05 0.04,0.04 0.04,0.04 0.05,0.04 0.04,0.03 0.04,0.04 0.04,0.02 0.04,0.03 0.04,0.02 0.04,0.02 0.04,0.02 0.04,0.02 0.04,0.02 0.04,0.01 0.03,0.01 0.04,0.01 0.04,0.01 0.04,0.01 0.03,0 0.04,0.01 0.07,0 0.07,0.01 0.07,0 c 0.12,0.01 0.13,0.18 0.13,0.19 0,0.08 -0.05,0.12 -0.13,0.12 -0.26,0 -0.55,-0.03 -0.81,-0.03 -0.33,0 -0.67,0.03 -0.99,0.03 -0.06,0 -0.19,0 -0.19,-0.19 0,-0.11 0.09,-0.12 0.16,-0.12 0.27,-0.02 0.46,-0.12 0.46,-0.32 0,-0.15 -0.15,-0.37 -0.15,-0.38 l -3.06,-4.86 -0.68,5.27 c 0,0.16 0.23,0.29 0.69,0.29 0.14,0 0.25,0 0.25,0.2 0,0.09 -0.08,0.11 -0.14,0.11 -0.4,0 -0.83,-0.03 -1.24,-0.03 -0.18,0 -0.37,0.01 -0.55,0.01 -0.18,0 -0.37,0.02 -0.53,0.02 -0.07,0 -0.19,0 -0.19,-0.19 0,-0.12 0.09,-0.12 0.24,-0.12 0.56,0 0.57,-0.09 0.6,-0.33 l 0.79,-6.14 c 0.03,-0.2 0.07,-0.23 0.2,-0.23 0.16,0 0.2,0.05 0.28,0.18 z"
   inkscape:connector-curvature="0"
   style="fill:#000000;stroke-width:0" />
<path
   id="path4736"
   d="m 399.68,707.48 -0.01,0.07 0,0.07 -0.01,0.07 -0.01,0.06 -0.01,0.07 -0.02,0.06 -0.02,0.06 -0.02,0.06 -0.03,0.05 -0.03,0.05 -0.03,0.06 -0.03,0.04 -0.04,0.05 -0.04,0.05 -0.04,0.04 -0.04,0.04 -0.04,0.04 -0.05,0.03 -0.05,0.03 -0.05,0.04 -0.05,0.02 -0.05,0.03 -0.05,0.02 -0.06,0.03 -0.06,0.01 -0.06,0.02 -0.05,0.01 -0.06,0.02 -0.07,0.01 -0.06,0 -0.06,0.01 -0.06,0 -0.01,-0.2 c 0.38,0 0.7,-0.26 0.7,-0.77 0,-0.17 -0.09,-0.85 -0.4,-1.34 -0.26,-0.41 -0.68,-0.63 -1.03,-0.63 h 0 c -0.34,0 -0.69,0.22 -0.69,0.77 0,0.28 0.13,0.96 0.4,1.36 0.3,0.43 0.71,0.61 1.02,0.61 l 0.01,0.2 c -1.03,0 -2.01,-0.97 -2.01,-1.92 0,-0.7 0.51,-1.22 1.27,-1.22 0.99,0 2,0.92 2,1.92 z"
   inkscape:connector-curvature="0"
   style="fill:#000000;stroke-width:0" />
</g></svg>
