<?xml version="1.0" encoding="UTF-8" standalone="no"?>
<!-- Created with Inkscape (http://www.inkscape.org/) -->

<svg
   xmlns:ns0="http://www.iki.fi/pav/software/textext/"
   xmlns:dc="http://purl.org/dc/elements/1.1/"
   xmlns:cc="http://creativecommons.org/ns#"
   xmlns:rdf="http://www.w3.org/1999/02/22-rdf-syntax-ns#"
   xmlns:svg="http://www.w3.org/2000/svg"
   xmlns="http://www.w3.org/2000/svg"
   xmlns:sodipodi="http://sodipodi.sourceforge.net/DTD/sodipodi-0.dtd"
   xmlns:inkscape="http://www.inkscape.org/namespaces/inkscape"
   width="291.94421"
   height="120.26546"
   id="svg2"
   version="1.1"
   inkscape:version="0.48.2 r9819"
   sodipodi:docname="phase_differences.pdf">
  <sodipodi:namedview
     id="base"
     pagecolor="#ffffff"
     bordercolor="#666666"
     borderopacity="1.0"
     inkscape:pageopacity="0.0"
     inkscape:pageshadow="2"
     inkscape:zoom="3.1756517"
     inkscape:cx="173.82259"
     inkscape:cy="49.568369"
     inkscape:document-units="px"
     inkscape:current-layer="layer1"
     showgrid="false"
     inkscape:window-width="1366"
     inkscape:window-height="743"
     inkscape:window-x="0"
     inkscape:window-y="3"
     inkscape:window-maximized="1"
     inkscape:snap-global="false"
     inkscape:snap-bbox="true"
     inkscape:bbox-paths="true"
     inkscape:bbox-nodes="true"
     inkscape:snap-bbox-edge-midpoints="true"
     inkscape:snap-bbox-midpoints="true"
     inkscape:object-paths="true"
     inkscape:snap-intersection-paths="true"
     inkscape:object-nodes="true"
     inkscape:snap-smooth-nodes="true"
     inkscape:snap-midpoints="true"
     inkscape:snap-object-midpoints="true"
     inkscape:snap-center="true"
     fit-margin-top="0"
     fit-margin-left="0"
     fit-margin-right="0"
     fit-margin-bottom="0"
     showguides="true"
     inkscape:guide-bbox="true" />
  <defs
     id="defs4">
    <marker
       inkscape:stockid="Arrow1Send"
       orient="auto"
       refY="0"
       refX="0"
       id="Arrow1Send"
       style="overflow:visible">
      <path
         inkscape:connector-curvature="0"
         id="path4336"
         d="M 0,0 5,-5 -12.5,0 5,5 0,0 z"
         style="fill-rule:evenodd;stroke:#000000;stroke-width:1pt;marker-start:none"
         transform="matrix(-0.2,0,0,-0.2,-1.2,0)" />
    </marker>
    <marker
       inkscape:stockid="Arrow1Sstart"
       orient="auto"
       refY="0"
       refX="0"
       id="Arrow1Sstart"
       style="overflow:visible">
      <path
         inkscape:connector-curvature="0"
         id="path4333"
         d="M 0,0 5,-5 -12.5,0 5,5 0,0 z"
         style="fill-rule:evenodd;stroke:#000000;stroke-width:1pt;marker-start:none"
         transform="matrix(0.2,0,0,0.2,1.2,0)" />
    </marker>
    <marker
       inkscape:stockid="Arrow1Sstart"
       orient="auto"
       refY="0"
       refX="0"
       id="Arrow1Sstart-0"
       style="overflow:visible">
      <path
         inkscape:connector-curvature="0"
         id="path4333-7"
         d="M 0,0 5,-5 -12.5,0 5,5 0,0 z"
         style="fill-rule:evenodd;stroke:#000000;stroke-width:1pt;marker-start:none"
         transform="matrix(0.2,0,0,0.2,1.2,0)" />
    </marker>
    <marker
       inkscape:stockid="Arrow1Send"
       orient="auto"
       refY="0"
       refX="0"
       id="Arrow1Send-0"
       style="overflow:visible">
      <path
         inkscape:connector-curvature="0"
         id="path4336-8"
         d="M 0,0 5,-5 -12.5,0 5,5 0,0 z"
         style="fill-rule:evenodd;stroke:#000000;stroke-width:1pt;marker-start:none"
         transform="matrix(-0.2,0,0,-0.2,-1.2,0)" />
    </marker>
    <marker
       inkscape:stockid="Arrow1Send"
       orient="auto"
       refY="0"
       refX="0"
       id="Arrow1Send-8"
       style="overflow:visible">
      <path
         inkscape:connector-curvature="0"
         id="path4336-4"
         d="M 0,0 5,-5 -12.5,0 5,5 0,0 z"
         style="fill-rule:evenodd;stroke:#000000;stroke-width:1pt;marker-start:none"
         transform="matrix(-0.2,0,0,-0.2,-1.2,0)" />
    </marker>
    <marker
       inkscape:stockid="Arrow1Sstart"
       orient="auto"
       refY="0"
       refX="0"
       id="Arrow1Sstart-3"
       style="overflow:visible">
      <path
         inkscape:connector-curvature="0"
         id="path4333-5"
         d="M 0,0 5,-5 -12.5,0 5,5 0,0 z"
         style="fill-rule:evenodd;stroke:#000000;stroke-width:1pt;marker-start:none"
         transform="matrix(0.2,0,0,0.2,1.2,0)" />
    </marker>
    <marker
       inkscape:stockid="Arrow1Sstart"
       orient="auto"
       refY="0"
       refX="0"
       id="Arrow1Sstart-3-2"
       style="overflow:visible">
      <path
         inkscape:connector-curvature="0"
         id="path4333-5-8"
         d="M 0,0 5,-5 -12.5,0 5,5 0,0 z"
         style="fill-rule:evenodd;stroke:#000000;stroke-width:1pt;marker-start:none"
         transform="matrix(0.2,0,0,0.2,1.2,0)" />
    </marker>
    <marker
       inkscape:stockid="Arrow1Send"
       orient="auto"
       refY="0"
       refX="0"
       id="Arrow1Send-8-0"
       style="overflow:visible">
      <path
         inkscape:connector-curvature="0"
         id="path4336-4-3"
         d="M 0,0 5,-5 -12.5,0 5,5 0,0 z"
         style="fill-rule:evenodd;stroke:#000000;stroke-width:1pt;marker-start:none"
         transform="matrix(-0.2,0,0,-0.2,-1.2,0)" />
    </marker>
    <marker
       inkscape:stockid="Arrow1Sstart"
       orient="auto"
       refY="0"
       refX="0"
       id="Arrow1Sstart-3-0"
       style="overflow:visible">
      <path
         inkscape:connector-curvature="0"
         id="path4333-5-4"
         d="M 0,0 5,-5 -12.5,0 5,5 0,0 z"
         style="fill-rule:evenodd;stroke:#000000;stroke-width:1pt;marker-start:none"
         transform="matrix(0.2,0,0,0.2,1.2,0)" />
    </marker>
    <marker
       inkscape:stockid="Arrow1Send"
       orient="auto"
       refY="0"
       refX="0"
       id="Arrow1Send-8-8"
       style="overflow:visible">
      <path
         inkscape:connector-curvature="0"
         id="path4336-4-4"
         d="M 0,0 5,-5 -12.5,0 5,5 0,0 z"
         style="fill-rule:evenodd;stroke:#000000;stroke-width:1pt;marker-start:none"
         transform="matrix(-0.2,0,0,-0.2,-1.2,0)" />
    </marker>
    <marker
       inkscape:stockid="Arrow1Sstart-3Y"
       orient="auto"
       refY="0"
       refX="0"
       id="Arrow1Sstart-3Y"
       style="overflow:visible">
      <path
         inkscape:connector-curvature="0"
         id="path9331"
         d="M 0,0 5,-5 -12.5,0 5,5 0,0 z"
         style="fill:#ff0000;fill-rule:evenodd;stroke:#ff0000;stroke-width:1pt;marker-start:none"
         transform="matrix(0.2,0,0,0.2,1.2,0)" />
    </marker>
    <marker
       inkscape:stockid="Arrow1Send-8m"
       orient="auto"
       refY="0"
       refX="0"
       id="Arrow1Send-8m"
       style="overflow:visible">
      <path
         inkscape:connector-curvature="0"
         id="path9334"
         d="M 0,0 5,-5 -12.5,0 5,5 0,0 z"
         style="fill:#ff0000;fill-rule:evenodd;stroke:#ff0000;stroke-width:1pt;marker-start:none"
         transform="matrix(-0.2,0,0,-0.2,-1.2,0)" />
    </marker>
    <marker
       inkscape:stockid="Arrow1Sstart-3S"
       orient="auto"
       refY="0"
       refX="0"
       id="Arrow1Sstart-3S"
       style="overflow:visible">
      <path
         inkscape:connector-curvature="0"
         id="path9337"
         d="M 0,0 5,-5 -12.5,0 5,5 0,0 z"
         style="fill:#ff0000;fill-rule:evenodd;stroke:#ff0000;stroke-width:1pt;marker-start:none"
         transform="matrix(0.2,0,0,0.2,1.2,0)" />
    </marker>
    <marker
       inkscape:stockid="Arrow1Send-8p"
       orient="auto"
       refY="0"
       refX="0"
       id="Arrow1Send-8p"
       style="overflow:visible">
      <path
         inkscape:connector-curvature="0"
         id="path9340"
         d="M 0,0 5,-5 -12.5,0 5,5 0,0 z"
         style="fill:#ff0000;fill-rule:evenodd;stroke:#ff0000;stroke-width:1pt;marker-start:none"
         transform="matrix(-0.2,0,0,-0.2,-1.2,0)" />
    </marker>
    <marker
       inkscape:stockid="Arrow1Sstart-3c"
       orient="auto"
       refY="0"
       refX="0"
       id="Arrow1Sstart-3c"
       style="overflow:visible">
      <path
         inkscape:connector-curvature="0"
         id="path9343"
         d="M 0,0 5,-5 -12.5,0 5,5 0,0 z"
         style="fill:#ff0000;fill-rule:evenodd;stroke:#ff0000;stroke-width:1pt;marker-start:none"
         transform="matrix(0.2,0,0,0.2,1.2,0)" />
    </marker>
    <marker
       inkscape:stockid="Arrow1Send-8q"
       orient="auto"
       refY="0"
       refX="0"
       id="Arrow1Send-8q"
       style="overflow:visible">
      <path
         inkscape:connector-curvature="0"
         id="path9346"
         d="M 0,0 5,-5 -12.5,0 5,5 0,0 z"
         style="fill:#ff0000;fill-rule:evenodd;stroke:#ff0000;stroke-width:1pt;marker-start:none"
         transform="matrix(-0.2,0,0,-0.2,-1.2,0)" />
    </marker>
    <marker
       inkscape:stockid="Arrow1Sstart"
       orient="auto"
       refY="0"
       refX="0"
       id="Arrow1Sstart-39"
       style="overflow:visible">
      <path
         inkscape:connector-curvature="0"
         id="path4333-3"
         d="M 0,0 5,-5 -12.5,0 5,5 0,0 z"
         style="fill-rule:evenodd;stroke:#000000;stroke-width:1pt;marker-start:none"
         transform="matrix(0.2,0,0,0.2,1.2,0)" />
    </marker>
    <marker
       inkscape:stockid="Arrow1Send"
       orient="auto"
       refY="0"
       refX="0"
       id="Arrow1Send-3"
       style="overflow:visible">
      <path
         inkscape:connector-curvature="0"
         id="path4336-46"
         d="M 0,0 5,-5 -12.5,0 5,5 0,0 z"
         style="fill-rule:evenodd;stroke:#000000;stroke-width:1pt;marker-start:none"
         transform="matrix(-0.2,0,0,-0.2,-1.2,0)" />
    </marker>
    <marker
       inkscape:stockid="Arrow1Sstart"
       orient="auto"
       refY="0"
       refX="0"
       id="marker9883"
       style="overflow:visible">
      <path
         inkscape:connector-curvature="0"
         id="path9885"
         d="M 0,0 5,-5 -12.5,0 5,5 0,0 z"
         style="fill-rule:evenodd;stroke:#000000;stroke-width:1pt;marker-start:none"
         transform="matrix(0.2,0,0,0.2,1.2,0)" />
    </marker>
    <marker
       inkscape:stockid="Arrow1Send"
       orient="auto"
       refY="0"
       refX="0"
       id="marker9887"
       style="overflow:visible">
      <path
         inkscape:connector-curvature="0"
         id="path9889"
         d="M 0,0 5,-5 -12.5,0 5,5 0,0 z"
         style="fill-rule:evenodd;stroke:#000000;stroke-width:1pt;marker-start:none"
         transform="matrix(-0.2,0,0,-0.2,-1.2,0)" />
    </marker>
    <marker
       inkscape:stockid="Arrow1Sstart"
       orient="auto"
       refY="0"
       refX="0"
       id="marker9891"
       style="overflow:visible">
      <path
         inkscape:connector-curvature="0"
         id="path9893"
         d="M 0,0 5,-5 -12.5,0 5,5 0,0 z"
         style="fill-rule:evenodd;stroke:#000000;stroke-width:1pt;marker-start:none"
         transform="matrix(0.2,0,0,0.2,1.2,0)" />
    </marker>
    <marker
       inkscape:stockid="Arrow1Send"
       orient="auto"
       refY="0"
       refX="0"
       id="marker9895"
       style="overflow:visible">
      <path
         inkscape:connector-curvature="0"
         id="path9897"
         d="M 0,0 5,-5 -12.5,0 5,5 0,0 z"
         style="fill-rule:evenodd;stroke:#000000;stroke-width:1pt;marker-start:none"
         transform="matrix(-0.2,0,0,-0.2,-1.2,0)" />
    </marker>
    <marker
       inkscape:stockid="Arrow1Sstart-3S"
       orient="auto"
       refY="0"
       refX="0"
       id="Arrow1Sstart-3S-1"
       style="overflow:visible">
      <path
         inkscape:connector-curvature="0"
         id="path9337-5"
         d="M 0,0 5,-5 -12.5,0 5,5 0,0 z"
         style="fill:#ff0000;fill-rule:evenodd;stroke:#ff0000;stroke-width:1pt;marker-start:none"
         transform="matrix(0.2,0,0,0.2,1.2,0)" />
    </marker>
    <marker
       inkscape:stockid="Arrow1Send-8p"
       orient="auto"
       refY="0"
       refX="0"
       id="Arrow1Send-8p-6"
       style="overflow:visible">
      <path
         inkscape:connector-curvature="0"
         id="path9340-1"
         d="M 0,0 5,-5 -12.5,0 5,5 0,0 z"
         style="fill:#ff0000;fill-rule:evenodd;stroke:#ff0000;stroke-width:1pt;marker-start:none"
         transform="matrix(-0.2,0,0,-0.2,-1.2,0)" />
    </marker>
    <marker
       inkscape:stockid="Arrow1Sstart-3Y"
       orient="auto"
       refY="0"
       refX="0"
       id="Arrow1Sstart-3Y-7"
       style="overflow:visible">
      <path
         inkscape:connector-curvature="0"
         id="path9331-2"
         d="M 0,0 5,-5 -12.5,0 5,5 0,0 z"
         style="fill:#ff0000;fill-rule:evenodd;stroke:#ff0000;stroke-width:1pt;marker-start:none"
         transform="matrix(0.2,0,0,0.2,1.2,0)" />
    </marker>
    <marker
       inkscape:stockid="Arrow1Send-8m"
       orient="auto"
       refY="0"
       refX="0"
       id="Arrow1Send-8m-2"
       style="overflow:visible">
      <path
         inkscape:connector-curvature="0"
         id="path9334-9"
         d="M 0,0 5,-5 -12.5,0 5,5 0,0 z"
         style="fill:#ff0000;fill-rule:evenodd;stroke:#ff0000;stroke-width:1pt;marker-start:none"
         transform="matrix(-0.2,0,0,-0.2,-1.2,0)" />
    </marker>
    <marker
       inkscape:stockid="Arrow1Sstart-3c"
       orient="auto"
       refY="0"
       refX="0"
       id="Arrow1Sstart-3c-2"
       style="overflow:visible">
      <path
         inkscape:connector-curvature="0"
         id="path9343-8"
         d="M 0,0 5,-5 -12.5,0 5,5 0,0 z"
         style="fill:#ff0000;fill-rule:evenodd;stroke:#ff0000;stroke-width:1pt;marker-start:none"
         transform="matrix(0.2,0,0,0.2,1.2,0)" />
    </marker>
    <marker
       inkscape:stockid="Arrow1Send-8q"
       orient="auto"
       refY="0"
       refX="0"
       id="Arrow1Send-8q-1"
       style="overflow:visible">
      <path
         inkscape:connector-curvature="0"
         id="path9346-2"
         d="M 0,0 5,-5 -12.5,0 5,5 0,0 z"
         style="fill:#ff0000;fill-rule:evenodd;stroke:#ff0000;stroke-width:1pt;marker-start:none"
         transform="matrix(-0.2,0,0,-0.2,-1.2,0)" />
    </marker>
    <marker
       inkscape:stockid="Arrow1Send"
       orient="auto"
       refY="0"
       refX="0"
       id="Arrow1Send-5"
       style="overflow:visible">
      <path
         inkscape:connector-curvature="0"
         id="path4336-5"
         d="M 0,0 5,-5 -12.5,0 5,5 0,0 z"
         style="fill-rule:evenodd;stroke:#000000;stroke-width:1pt;marker-start:none"
         transform="matrix(-0.2,0,0,-0.2,-1.2,0)" />
    </marker>
    <marker
       inkscape:stockid="Arrow1Sstart"
       orient="auto"
       refY="0"
       refX="0"
       id="Arrow1Sstart-5"
       style="overflow:visible">
      <path
         inkscape:connector-curvature="0"
         id="path4333-8"
         d="M 0,0 5,-5 -12.5,0 5,5 0,0 z"
         style="fill-rule:evenodd;stroke:#000000;stroke-width:1pt;marker-start:none"
         transform="matrix(0.2,0,0,0.2,1.2,0)" />
    </marker>
    <marker
       inkscape:stockid="Arrow1Send"
       orient="auto"
       refY="0"
       refX="0"
       id="Arrow1Send-1"
       style="overflow:visible">
      <path
         inkscape:connector-curvature="0"
         id="path4336-3"
         d="M 0,0 5,-5 -12.5,0 5,5 0,0 z"
         style="fill-rule:evenodd;stroke:#000000;stroke-width:1pt;marker-start:none"
         transform="matrix(-0.2,0,0,-0.2,-1.2,0)" />
    </marker>
    <marker
       inkscape:stockid="Arrow1Sstart"
       orient="auto"
       refY="0"
       refX="0"
       id="Arrow1Sstart-1"
       style="overflow:visible">
      <path
         inkscape:connector-curvature="0"
         id="path4333-4"
         d="M 0,0 5,-5 -12.5,0 5,5 0,0 z"
         style="fill-rule:evenodd;stroke:#000000;stroke-width:1pt;marker-start:none"
         transform="matrix(0.2,0,0,0.2,1.2,0)" />
    </marker>
  </defs>
  <metadata
     id="metadata7">
    <rdf:RDF>
      <cc:Work
         rdf:about="">
        <dc:format>image/svg+xml</dc:format>
        <dc:type
           rdf:resource="http://purl.org/dc/dcmitype/StillImage" />
        <dc:title></dc:title>
      </cc:Work>
    </rdf:RDF>
  </metadata>
  <g
     inkscape:label="Layer 1"
     inkscape:groupmode="layer"
     id="layer1"
     transform="translate(-64.930249,61.613998)">
    <path
       inkscape:connector-curvature="0"
       id="path4185-1-0-8-9"
       d="m 101.55437,-60.188998 0,118.340466"
       style="fill:#0000ff;stroke:#0000ff;stroke-width:0.99999994000000003px;stroke-linecap:butt;stroke-linejoin:miter;stroke-opacity:1;marker-start:url(#Arrow1Sstart)" />
    <path
       inkscape:connector-curvature="0"
       id="path4187-6-5-5-5"
       d="m 65.430249,3.03589 290.019211,0"
       style="fill:#0000ff;stroke:#0000ff;stroke-width:1px;stroke-linecap:butt;stroke-linejoin:miter;stroke-opacity:1;marker-end:url(#Arrow1Send)"
       sodipodi:nodetypes="cc" />
    <g
       id="content-8"
       transform="matrix(1,0,0,-1,-304.82662,653.99409)"
       xml:space="preserve"
       stroke-miterlimit="10.433"
       font-style="normal"
       font-variant="normal"
       font-weight="normal"
       font-stretch="normal"
       font-size-adjust="none"
       letter-spacing="normal"
       word-spacing="normal"
       ns0:text="\\[\nV_{\\text{out}}\n\\]"
       ns0:preamble="/home/josh/Desktop/preamble (copy).txt"
       style="font-style:normal;font-variant:normal;font-weight:normal;font-stretch:normal;letter-spacing:normal;word-spacing:normal;text-anchor:start;fill:none;stroke:#000000;stroke-linecap:butt;stroke-linejoin:miter;stroke-miterlimit:10.43299961;stroke-opacity:1;stroke-dasharray:none;stroke-dashoffset:0">
<path
   style="fill:#000000;stroke-width:0"
   inkscape:connector-curvature="0"
   d="m 392.65,712.79 0.05,0.07 0.04,0.06 0.05,0.07 0.04,0.06 0.04,0.05 0.05,0.05 0.04,0.05 0.04,0.04 0.05,0.04 0.04,0.04 0.04,0.03 0.04,0.04 0.04,0.02 0.04,0.03 0.04,0.02 0.04,0.02 0.04,0.02 0.04,0.02 0.04,0.02 0.04,0.01 0.04,0.01 0.04,0.01 0.03,0.01 0.04,0.01 0.04,0 0.03,0.01 0.08,0 0.07,0.01 0.07,0 c 0.12,0.01 0.13,0.18 0.13,0.19 0,0.08 -0.05,0.12 -0.13,0.12 -0.26,0 -0.55,-0.03 -0.82,-0.03 -0.33,0 -0.67,0.03 -0.99,0.03 -0.06,0 -0.19,0 -0.19,-0.19 0,-0.11 0.09,-0.12 0.16,-0.12 0.27,-0.02 0.46,-0.12 0.46,-0.32 0,-0.15 -0.15,-0.37 -0.15,-0.38 l -3.06,-4.86 -0.68,5.27 c 0,0.16 0.23,0.29 0.69,0.29 0.14,0 0.25,0 0.25,0.2 0,0.09 -0.08,0.11 -0.14,0.11 -0.4,0 -0.83,-0.03 -1.24,-0.03 -0.17,0 -0.36,0.01 -0.54,0.01 -0.18,0 -0.37,0.02 -0.54,0.02 -0.07,0 -0.19,0 -0.19,-0.19 0,-0.12 0.09,-0.12 0.25,-0.12 0.56,0 0.57,-0.09 0.6,-0.33 l 0.78,-6.14 c 0.03,-0.2 0.07,-0.23 0.2,-0.23 0.16,0 0.2,0.05 0.28,0.18 z"
   id="path16553-2" />
<path
   style="fill:#000000;stroke-width:0"
   inkscape:connector-curvature="0"
   d="m 395.89,707.11 -0.01,0.08 0,0.08 -0.01,0.08 -0.02,0.08 -0.02,0.08 -0.02,0.07 -0.03,0.08 -0.03,0.07 -0.03,0.07 -0.04,0.07 -0.04,0.07 -0.04,0.07 -0.05,0.06 -0.05,0.06 -0.05,0.06 -0.06,0.06 -0.06,0.05 -0.06,0.05 -0.06,0.05 -0.07,0.05 -0.07,0.04 -0.07,0.04 -0.07,0.04 -0.08,0.03 -0.08,0.03 -0.08,0.03 -0.08,0.02 -0.08,0.02 -0.09,0.01 -0.08,0.01 -0.09,0.01 -0.09,0 v -0.19 c 0.41,0 0.7,-0.2 0.86,-0.41 0.19,-0.27 0.21,-0.62 0.21,-0.96 0,-0.33 -0.02,-0.7 -0.22,-0.98 -0.19,-0.27 -0.51,-0.41 -0.85,-0.41 h 0 c -0.26,0 -0.63,0.09 -0.86,0.43 -0.19,0.28 -0.21,0.64 -0.21,0.96 0,0.3 0,0.71 0.25,1.01 0.17,0.21 0.47,0.36 0.82,0.36 v 0.19 c -0.96,0 -1.71,-0.75 -1.71,-1.62 0,-0.86 0.77,-1.55 1.71,-1.55 0.94,0 1.71,0.69 1.71,1.55 z"
   id="path16555-5" />
<path
   style="fill:#000000;stroke-width:0"
   inkscape:connector-curvature="0"
   d="m 398.69,708.62 v -0.25 c 0.46,0 0.52,-0.05 0.52,-0.39 v -1.19 c 0,-0.61 -0.4,-1.03 -0.93,-1.03 -0.63,0 -0.66,0.29 -0.66,0.65 v 2.29 l -1.07,-0.08 v -0.25 c 0.52,0 0.52,-0.02 0.52,-0.64 v -1.04 c 0,-0.48 0,-1.13 1.16,-1.13 0.16,0 0.67,0 1,0.59 h 0.01 v -0.59 l 1.04,0.07 v 0.25 c -0.46,0 -0.52,0.05 -0.52,0.39 v 2.43 z"
   id="path16557-3" />
<path
   style="fill:#000000;stroke-width:0"
   inkscape:connector-curvature="0"
   d="m 401.97,708.38 h 1.09 v 0.25 h -1.09 v 1.28 h -0.23 c -0.01,-0.63 -0.29,-1.32 -0.96,-1.34 v -0.19 h 0.64 v -1.88 c 0,-0.78 0.59,-0.94 0.98,-0.94 0.46,0 0.79,0.4 0.79,0.95 v 0.38 h -0.24 v -0.38 c 0,-0.47 -0.22,-0.73 -0.5,-0.73 -0.48,0 -0.48,0.59 -0.48,0.71 z"
   id="path16559-7" />
</g>    <path
       sodipodi:nodetypes="csssssssssssssssssssssssssssssssssssssssssssssssc"
       inkscape:connector-curvature="0"
       style="fill:none;stroke:#0000ff;stroke-width:1;stroke-linecap:butt;stroke-linejoin:miter;stroke-miterlimit:4;stroke-opacity:1;stroke-dasharray:none;stroke-dashoffset:0"
       d="m 77.917801,48.368323 c 1.77364,-1.293306 3.54728,-3.221509 5.32092,-5.701861 1.77364,-2.480356 3.54727,-5.515541 5.32089,-8.977907 1.77364,-3.462366 3.54728,-7.35363 5.32092,-11.511798 1.773649,-4.158167 3.547291,-8.583843 5.320923,-13.0940754 1.773616,-4.5102326 3.547256,-9.10447674 5.320896,-13.5939399 1.77364,-4.4894675 3.54727,-8.8724977 5.32091,-12.9700757 1.77362,-4.097577 3.54726,-7.907074 5.3209,-11.274043 1.77364,-3.36697 3.54727,-6.288022 5.32091,-8.646053 1.77364,-2.358032 3.54726,-4.149173 5.3209,-5.303342 1.77364,-1.154169 3.54727,-1.667337 5.32091,-1.522233 1.77364,0.145113 3.54726,0.952325 5.3209,2.384706 1.77364,1.432382 3.54727,3.493271 5.32091,6.094521 1.77364,2.601249 3.54728,5.745446 5.3209,9.300532 1.77364,3.555091 3.54727,7.522677 5.32091,11.737725 1.77364,4.215049 3.54728,8.6780482 5.32092,13.2046228 1.77362,4.5265747 3.54725,9.1160585 5.32089,13.5799732 1.77364,4.463914 3.54728,8.800494 5.32092,12.832745 1.77362,4.032246 3.54725,7.757445 5.32089,11.024704 1.77364,3.267258 3.54728,6.073131 5.32092,8.305316 1.77363,2.23218 3.54725,3.886786 5.32089,4.899372 1.77364,1.012586 3.54728,1.379143 5.32092,1.088429 1.77363,-0.290696 3.54727,-1.242505 5.32089,-2.812493 1.77364,-1.569983 3.54728,-3.761441 5.32092,-6.480913 1.77363,-2.719476 3.54727,-5.969449 5.32089,-9.613608 1.77364,-3.644154 3.54728,-7.683982 5.32092,-11.951587 1.77363,-4.267601 3.54727,-8.763332 5.32091,-13.3016008 1.77362,-4.5382646 3.54726,-9.1182697 5.3209,-13.552049 1.77363,-4.4337792 3.54727,-8.7194502 5.32091,-12.6822292 1.77364,-3.962774 3.54726,-7.599839 5.3209,-10.764035 1.77363,-3.164196 3.54727,-5.851997 5.32091,-7.956044 1.77364,-2.104044 3.54726,-3.620404 5.3209,-4.49037 1.77363,-0.869965 3.54727,-1.089532 5.32091,-0.653507 1.77364,0.436044 3.54728,1.531407 5.3209,3.237382 1.77363,1.705979 3.54727,4.025753 5.32091,6.860658 1.77364,2.8349 3.54728,6.187311 5.32091,9.916791 1.77362,3.729485 3.54726,7.837405 5.3209,12.153174 1.77364,4.3157692 3.54728,8.8396207 5.32091,13.3849132 1.77362,4.5452972 3.54726,9.1111148 5.3209,13.5101998 1.77364,4.39909 3.54728,8.629448 5.32091,12.51868 1.77364,3.889231 3.54726,7.43443 5.3209,10.492305 1.77364,3.05788 3.54728,5.624854 5.32091,7.5986 1.77364,1.973742 3.54728,3.350298 5.3209,4.076752 1.77364,0.726453 3.54728,0.798803 5.32091,0.217928 1.77364,-0.58089 3.54728,-1.818732 5.3209,-3.658947 1.77364,-1.840215 3.54728,-4.285924 5.32091,-7.233342 1.77364,-2.947419 3.54728,-6.398822 5.32092,-10.209798 1.77362,-3.810975 3.54726,-7.982762 5.32089,-12.342266 1.77364,-4.3595 3.54728,-8.9068157 5.32092,-13.4544697"
       title="sin(x)"
       id="path25938" />
    <path
       sodipodi:nodetypes="cssssssssssssssscssssssssssssssssssssscsssssssssc"
       id="path26098"
       title="sin(x)"
       d="m 78.876483,-9.1009695 c 1.70693,-4.3716495 3.41387,-8.5622455 5.1208,-12.4085655 1.70694,-3.84632 3.41387,-7.34551 5.1208,-10.36243 1.70694,-3.01692 3.41388,-5.54808 5.1208,-7.4971 1.70694,-1.94901 3.41388,-3.31204 5.12081,-4.03907 1.706947,-0.72703 3.413877,-0.81416 5.120817,-0.26174 1.70692,0.55242 3.41386,1.74807 5.1208,3.53628 1.70694,1.78821 3.41386,4.17212 5.1208,7.05475 1.70694,2.88263 3.41387,6.26633 5.12081,10.01549 1.70693,3.74916 3.41386,7.865163 5.1208,12.184467 1.70694,4.3193015 3.41388,8.8422045 5.12081,13.3901835 1.70694,4.547983 3.41387,9.1202315 5.12079,13.5373435 1.70694,4.417116 3.41388,8.677253 5.12081,12.614304 1.70694,3.937055 3.41387,7.548289 5.1208,10.694037 1.70694,3.145747 3.41388,5.822597 5.12082,7.92835 1.70693,2.105754 3.41386,3.636594 5.1208,4.535884 1.70692,0.899286 3.41386,1.163102 5.1208,0.784831 1.70692,-0.378292 3.41386,-1.402338 5.1208,-3.028263 1.70693,-1.625925 3.41387,-3.856919 5.12081,-6.601959 1.70693,-2.745043 3.41386,-6.006588 5.1208,-9.653735 1.70694,-3.647147 3.41387,-7.681407 5.1208,-11.942335 1.70693,-4.260928 3.41386,-8.748964 5.1208,-13.2868235 1.70694,-4.537859 3.41387,-9.124875 5.1208,-13.580926 1.70694,-4.456046 3.41388,-8.7794155 5.12081,-12.8013785 1.70694,-4.02197 3.41387,-7.7399 5.1208,-11.00982 1.70694,-3.26992 3.41388,-6.0885 5.1208,-8.34787 1.70694,-2.25938 3.41387,-3.95578 5.12081,-5.02599 1.70693,-1.07021 3.41387,-1.51032 5.12081,-1.30676 1.70692,0.20355 3.41386,1.05453 5.1208,2.51576 1.70693,1.46123 3.41387,3.53601 5.12081,6.13941 1.70692,2.60338 3.41386,5.73795 5.12079,9.27768 1.70694,3.53974 3.41387,7.48629 5.1208,11.682544 1.70694,4.196248 3.41387,8.6427805 5.12081,13.1638065 1.70694,4.521022 3.41387,9.116022 5.1208,13.6044085 1.70694,4.488391 3.41387,8.868594 5.12081,12.969518 1.70694,4.100919 3.41388,7.920052 5.12079,11.309308 1.70694,3.389257 3.41388,6.345391 5.12081,8.755044 1.70694,2.409654 3.41387,4.269097 5.1208,5.508648 1.70694,1.239555 3.41388,1.855304 5.12081,1.826765 1.70693,-0.02872 3.41387,-0.705163 5.12081,-1.999542 1.70693,-1.294375 3.41386,-3.209877 5.1208,-5.667763 1.70692,-2.457886 3.41386,-5.46084 5.1208,-8.887926 1.70693,-3.427085 3.41387,-7.280089 5.1208,-11.405448 1.70694,-4.125358 3.41387,-8.523811 5.12081,-13.021307 1.70694,-4.4974995 3.41387,-9.0936795 5.1208,-13.6077685 1.70694,-4.514085 3.41386,-8.9446465 5.1208,-13.1184575 1.70694,-4.17382 3.41386,-8.08849 5.1208,-11.59208 1.70694,-3.50357 3.41388,-6.59289 5.12081,-9.14926 1.70694,-2.55636 3.41387,-4.57609 5.1208,-5.98315"
       style="fill:none;stroke:#ff0000;stroke-width:0.99999988;stroke-linecap:butt;stroke-linejoin:miter;stroke-miterlimit:4;stroke-opacity:1;stroke-dasharray:none;stroke-dashoffset:0"
       inkscape:connector-curvature="0" />
    <path
       sodipodi:nodetypes="csssssssssssssssssssssssssscsssssssssscsssssssssc"
       inkscape:connector-curvature="0"
       style="fill:none;stroke:#000000;stroke-width:0.99999994000000003;stroke-linecap:butt;stroke-linejoin:miter;stroke-miterlimit:4;stroke-opacity:1;stroke-dasharray:none;stroke-dashoffset:0"
       d="m 77.773744,16.944032 c 1.731189,4.51254 3.462378,8.8382 5.193567,12.80848 1.731189,3.97028 3.462379,7.58225 5.193568,10.69639 1.73119,3.11415 3.462379,5.7269 5.193569,7.73872 1.731186,2.01183 3.462372,3.41878 5.193562,4.16925 1.73118,0.75046 3.46238,0.8404 5.19357,0.27019 1.73119,-0.57023 3.46237,-1.80441 5.19357,-3.65026 1.73119,-1.84584 3.46237,-4.30658 5.19357,-7.28211 1.73119,-2.97554 3.46237,-6.46829 5.19356,-10.33828 1.73119,-3.86999 3.46238,-8.11864 5.19357,-12.57715 1.7312,-4.45851 3.46238,-9.1271801 5.19358,-13.8217311 1.7312,-4.69455404 3.46238,-9.414166 5.19356,-13.973639 1.73119,-4.5594739 3.46238,-8.9569049 5.19357,-13.0208429 1.73119,-4.063944 3.46239,-7.791564 5.19357,-11.038696 1.73119,-3.247132 3.46239,-6.010253 5.19358,-8.183869 1.73117,-2.173616 3.46236,-3.753797 5.19356,-4.682069 1.73119,-0.928272 3.46237,-1.20059 5.19357,-0.810126 1.73119,0.390464 3.46238,1.447531 5.19356,3.125858 1.73119,1.678326 3.46238,3.981224 5.19357,6.814734 1.73119,2.83351 3.46238,6.200172 5.19357,9.964865 1.73119,3.764687 3.46238,7.928967 5.19357,12.327216 1.73119,4.398254 3.46237,9.0309359 5.19356,13.71504686 1.73119,4.68410504 3.46238,9.41896304 5.19358,14.01862314 1.73118,4.59966 3.46237,9.06236 5.19357,13.21395 1.73119,4.15158 3.46237,7.98934 5.19355,11.36465 1.7312,3.3753 3.46239,6.28472 5.19357,8.61691 1.7312,2.33219 3.46239,4.08326 5.19358,5.18796 1.73119,1.10471 3.46238,1.559 5.19357,1.34889 1.73118,-0.21013 3.46237,-1.08852 5.19356,-2.59684 1.73119,-1.50833 3.46239,-3.64998 5.19357,-6.33728 1.73119,-2.68729 3.46238,-5.92288 5.19358,-9.5767 1.73118,-3.65382 3.46236,-7.72756 5.19356,-12.05905 1.73119,-4.33148 3.46237,-8.92132 5.19356,-13.5880501 1.7312,-4.666729 3.46239,-9.40981904 5.19357,-14.042867 1.7312,-4.633042 3.46238,-9.1544129 5.19357,-13.3875019 1.73118,-4.23309 3.46238,-8.175308 5.19357,-11.673796 1.73118,-3.498489 3.46238,-6.549897 5.19357,-9.037211 1.73119,-2.487314 3.46238,-4.40668 5.19356,-5.686186 1.73119,-1.279501 3.46238,-1.915093 5.19357,-1.885632 1.73119,0.02974 3.46238,0.727886 5.19358,2.06398 1.73118,1.336089 3.46237,3.313329 5.19357,5.85043 1.73118,2.537102 3.46236,5.636833 5.19355,9.174368 1.7312,3.537541 3.46239,7.514722 5.19357,11.773034 1.73119,4.258312 3.46239,8.7985229 5.19358,13.4409679 1.73118,4.64244996 3.46237,9.386758 5.19356,14.046334 1.73119,4.6595701 3.46237,9.2329201 5.19357,13.5412501 1.73119,4.30832 3.46238,8.34917 5.19357,11.96566 1.73119,3.6165 3.46238,6.80538 5.19356,9.44413 1.73119,2.63876 3.46238,4.72358 5.19357,6.17599"
       title="-sin(x)"
       id="path26260" />
    <g
       style="font-style:normal;font-variant:normal;font-weight:normal;font-stretch:normal;letter-spacing:normal;word-spacing:normal;text-anchor:start;fill:none;stroke:#000000;stroke-linecap:butt;stroke-linejoin:miter;stroke-miterlimit:10.43299961;stroke-opacity:1;stroke-dasharray:none;stroke-dashoffset:0"
       ns0:preamble="/home/josh/Desktop/preamble (copy).txt"
       ns0:text="\\[\n\\omega t\n\\]"
       word-spacing="normal"
       letter-spacing="normal"
       font-size-adjust="none"
       font-stretch="normal"
       font-weight="normal"
       font-variant="normal"
       font-style="normal"
       stroke-miterlimit="10.433"
       xml:space="preserve"
       transform="matrix(1,0,0,-1,-46.390458,722.62654)"
       id="content">
<path
   style="fill:#000000;stroke-width:0"
   inkscape:connector-curvature="0"
   id="path26423"
   d="m 396.24,710.83 0,0.04 0,0.04 0,0.04 -0.01,0.04 0,0.03 -0.01,0.04 0,0.03 -0.01,0.03 -0.01,0.04 -0.01,0.03 -0.01,0.03 -0.01,0.02 -0.01,0.03 -0.01,0.03 -0.01,0.02 -0.02,0.02 -0.01,0.03 -0.02,0.02 -0.01,0.01 -0.02,0.02 -0.01,0.02 -0.02,0.01 -0.02,0.02 -0.01,0.01 -0.02,0.01 -0.02,0.01 -0.02,0.01 -0.02,0 -0.02,0.01 -0.02,0 -0.02,0 -0.02,0 c -0.26,0 -0.53,-0.24 -0.53,-0.46 0,-0.1 0.05,-0.21 0.15,-0.3 0.17,-0.15 0.35,-0.42 0.35,-0.84 0,-0.4 -0.19,-0.96 -0.5,-1.42 -0.3,-0.43 -0.67,-0.77 -1.13,-0.77 -0.57,0 -0.88,0.36 -0.97,0.9 0.11,0.26 0.34,0.89 0.34,1.17 0,0.12 -0.05,0.22 -0.18,0.22 -0.08,0 -0.19,-0.02 -0.27,-0.17 -0.11,-0.2 -0.23,-0.84 -0.23,-1.2 -0.33,-0.47 -0.73,-0.92 -1.35,-0.92 -0.66,0 -0.87,0.59 -0.87,1.15 0,1.24 1.01,2.29 1.01,2.41 0,0.12 -0.08,0.19 -0.18,0.19 -0.13,0 -0.2,-0.13 -0.26,-0.21 -0.51,-0.74 -0.89,-1.93 -0.89,-2.83 0,-0.69 0.23,-1.42 1.05,-1.42 0.7,0 1.17,0.49 1.53,1.04 0.09,-0.58 0.48,-1.04 1.1,-1.04 0.77,0 1.25,0.6 1.61,1.35 0.24,0.49 0.62,1.84 0.62,2.46 z" />
<path
   style="fill:#000000;stroke-width:0"
   inkscape:connector-curvature="0"
   id="path26425"
   d="m 398.82,711.11 h 0.94 c 0.2,0 0.3,0 0.3,0.19 0,0.11 -0.1,0.11 -0.28,0.11 h -0.88 c 0.36,1.42 0.41,1.62 0.41,1.68 0,0.17 -0.12,0.26 -0.29,0.26 -0.03,0 -0.31,-0.01 -0.4,-0.35 l -0.39,-1.59 h -0.93 c -0.2,0 -0.3,0 -0.3,-0.19 0,-0.11 0.08,-0.11 0.28,-0.11 h 0.87 c -0.71,-2.83 -0.75,-3 -0.75,-3.18 0,-0.54 0.38,-0.91 0.91,-0.91 1.02,0 1.59,1.45 1.59,1.53 0,0.1 -0.08,0.1 -0.12,0.1 -0.09,0 -0.1,-0.03 -0.15,-0.14 -0.43,-1.04 -0.96,-1.28 -1.3,-1.28 -0.21,0 -0.31,0.13 -0.31,0.46 0,0.24 0.03,0.31 0.06,0.48 z" />
</g>    <g
       id="g26682"
       transform="matrix(1,0,0,-1,-289.45043,720.07956)"
       xml:space="preserve"
       stroke-miterlimit="10.433"
       font-style="normal"
       font-variant="normal"
       font-weight="normal"
       font-stretch="normal"
       font-size-adjust="none"
       letter-spacing="normal"
       word-spacing="normal"
       ns0:text="\\[\n0\n\\]"
       ns0:preamble="/home/josh/Desktop/preamble (copy).txt"
       style="font-style:normal;font-variant:normal;font-weight:normal;font-stretch:normal;letter-spacing:normal;word-spacing:normal;text-anchor:start;fill:none;stroke:#000000;stroke-linecap:butt;stroke-linejoin:miter;stroke-miterlimit:10.43299961;stroke-opacity:1;stroke-dasharray:none;stroke-dashoffset:0">
<path
   style="fill:#000000;stroke-width:0"
   inkscape:connector-curvature="0"
   d="m 397.38,710.31 0,0.15 0,0.15 0,0.15 -0.01,0.15 -0.01,0.14 -0.01,0.15 -0.02,0.15 -0.02,0.15 -0.02,0.14 -0.03,0.15 -0.03,0.14 -0.04,0.15 -0.04,0.14 -0.05,0.14 -0.05,0.14 -0.03,0.07 -0.04,0.07 c -0.46,0.95 -1.27,1.11 -1.69,1.11 -0.6,0 -1.33,-0.26 -1.74,-1.18 -0.31,-0.69 -0.36,-1.46 -0.36,-2.26 0,-0.75 0.04,-1.64 0.44,-2.4 0.43,-0.81 1.16,-1 1.65,-1 v 0.21 c -0.39,0 -0.98,0.25 -1.16,1.21 -0.11,0.6 -0.11,1.51 -0.11,2.1 0,0.64 0,1.29 0.08,1.83 0.19,1.19 0.94,1.27 1.19,1.27 0.33,0 0.99,-0.18 1.17,-1.16 0.1,-0.56 0.1,-1.31 0.1,-1.94 0,-0.75 0,-1.42 -0.1,-2.06 -0.15,-0.95 -0.72,-1.25 -1.17,-1.25 h 0 v -0.21 c 0.54,0 1.3,0.2 1.73,1.15 0.32,0.69 0.37,1.46 0.37,2.25 z"
   id="path26684" />
</g>    <g
       style="font-style:normal;font-variant:normal;font-weight:normal;font-stretch:normal;letter-spacing:normal;word-spacing:normal;text-anchor:start;fill:none;stroke:#000000;stroke-linecap:butt;stroke-linejoin:miter;stroke-miterlimit:10.43299961;stroke-opacity:1;stroke-dasharray:none;stroke-dashoffset:0"
       ns0:preamble="/home/josh/Desktop/preamble (copy).txt"
       ns0:text="\\[\n\\frac{\\pi}{2}\n\\]"
       word-spacing="normal"
       letter-spacing="normal"
       font-size-adjust="none"
       font-stretch="normal"
       font-weight="normal"
       font-variant="normal"
       font-style="normal"
       stroke-miterlimit="10.433"
       xml:space="preserve"
       transform="matrix(1,0,0,-1,-254.68719,721.86228)"
       id="g26873">
<path
   id="path26875"
   d="m 394.91,716.51 h 1.13 c -0.33,-1.47 -0.42,-1.9 -0.42,-2.57 0,-0.15 0,-0.41 0.08,-0.75 0.1,-0.44 0.21,-0.5 0.36,-0.5 0.2,0 0.41,0.18 0.41,0.38 0,0.06 0,0.08 -0.06,0.22 -0.29,0.71 -0.29,1.36 -0.29,1.64 0,0.53 0.07,1.06 0.18,1.58 h 1.13 c 0.13,0 0.49,0 0.49,0.34 0,0.24 -0.21,0.24 -0.4,0.24 h -3.34 c -0.22,0 -0.6,0 -1.03,-0.47 -0.35,-0.39 -0.61,-0.85 -0.61,-0.9 0,-0.01 0,-0.1 0.12,-0.1 0.08,0 0.1,0.04 0.16,0.12 0.49,0.77 1.06,0.77 1.26,0.77 h 0.57 c -0.32,-1.2 -0.86,-2.41 -1.27,-3.31 -0.08,-0.15 -0.08,-0.17 -0.08,-0.24 0,-0.19 0.15,-0.27 0.28,-0.27 0.3,0 0.38,0.28 0.5,0.65 0.14,0.45 0.14,0.47 0.27,0.97 z"
   inkscape:connector-curvature="0"
   style="fill:#000000;stroke-width:0" />
<line
   id="line26877"
   y2="708.54999"
   x2="398.29999"
   y1="708.54999"
   x1="392.26999"
   style="stroke-width:0.398" />
<path
   id="path26879"
   d="m 394.06,699.99 1.06,1.03 c 1.55,1.37 2.15,1.91 2.15,2.9 0,1.14 -0.89,1.93 -2.11,1.93 -1.13,0 -1.86,-0.91 -1.86,-1.8 0,-0.56 0.49,-0.56 0.52,-0.56 0.17,0 0.52,0.12 0.52,0.53 0,0.26 -0.18,0.52 -0.53,0.52 -0.08,0 -0.1,0 -0.13,-0.01 0.23,0.65 0.77,1.01 1.35,1.01 0.91,0 1.34,-0.8 1.34,-1.62 0,-0.79 -0.5,-1.58 -1.05,-2.2 l -1.92,-2.13 c -0.1,-0.11 -0.1,-0.13 -0.1,-0.37 h 3.69 l 0.28,1.74 h -0.25 c -0.05,-0.3 -0.12,-0.74 -0.22,-0.89 -0.07,-0.08 -0.72,-0.08 -0.94,-0.08 z"
   inkscape:connector-curvature="0"
   style="fill:#000000;stroke-width:0" />
</g>    <g
       id="g27070"
       transform="matrix(1,0,0,-1,-229.72895,716.5141)"
       xml:space="preserve"
       stroke-miterlimit="10.433"
       font-style="normal"
       font-variant="normal"
       font-weight="normal"
       font-stretch="normal"
       font-size-adjust="none"
       letter-spacing="normal"
       word-spacing="normal"
       ns0:text="\\[\n\\pi\n\\]"
       ns0:preamble="/home/josh/Desktop/preamble (copy).txt"
       style="font-style:normal;font-variant:normal;font-weight:normal;font-stretch:normal;letter-spacing:normal;word-spacing:normal;text-anchor:start;fill:none;stroke:#000000;stroke-linecap:butt;stroke-linejoin:miter;stroke-miterlimit:10.43299961;stroke-opacity:1;stroke-dasharray:none;stroke-dashoffset:0">
<path
   style="fill:#000000;stroke-width:0"
   inkscape:connector-curvature="0"
   d="m 394.91,710.84 h 1.13 c -0.33,-1.48 -0.42,-1.9 -0.42,-2.57 0,-0.15 0,-0.42 0.08,-0.76 0.1,-0.43 0.21,-0.49 0.36,-0.49 0.2,0 0.41,0.18 0.41,0.37 0,0.06 0,0.08 -0.06,0.22 -0.29,0.72 -0.29,1.37 -0.29,1.65 0,0.52 0.07,1.06 0.18,1.58 h 1.13 c 0.13,0 0.49,0 0.49,0.34 0,0.23 -0.21,0.23 -0.4,0.23 h -3.34 c -0.22,0 -0.6,0 -1.03,-0.46 -0.35,-0.39 -0.61,-0.85 -0.61,-0.9 0,-0.01 0,-0.1 0.12,-0.1 0.08,0 0.1,0.04 0.16,0.12 0.49,0.77 1.06,0.77 1.26,0.77 h 0.57 c -0.32,-1.21 -0.86,-2.41 -1.27,-3.32 -0.08,-0.15 -0.08,-0.17 -0.08,-0.24 0,-0.19 0.15,-0.26 0.28,-0.26 0.3,0 0.38,0.27 0.5,0.64 0.14,0.46 0.14,0.48 0.27,0.98 z"
   id="path27072" />
</g>    <g
       style="font-style:normal;font-variant:normal;font-weight:normal;font-stretch:normal;letter-spacing:normal;word-spacing:normal;text-anchor:start;fill:none;stroke:#000000;stroke-linecap:butt;stroke-linejoin:miter;stroke-miterlimit:10.43299961;stroke-opacity:1;stroke-dasharray:none;stroke-dashoffset:0"
       ns0:preamble="/home/josh/Desktop/preamble (copy).txt"
       ns0:text="\\[\n\\frac{3\\pi}{2}\n\\]"
       word-spacing="normal"
       letter-spacing="normal"
       font-size-adjust="none"
       font-stretch="normal"
       font-weight="normal"
       font-variant="normal"
       font-style="normal"
       stroke-miterlimit="10.433"
       xml:space="preserve"
       transform="matrix(1,0,0,-1,-194.61001,722.50638)"
       id="g27291">
<path
   id="path27293"
   d="m 392.67,714.17 0.08,0.03 0.07,0.03 0.07,0.03 0.07,0.03 0.07,0.04 0.07,0.03 0.07,0.04 0.06,0.05 0.07,0.04 0.06,0.05 0.05,0.05 0.06,0.05 0.05,0.05 0.06,0.05 0.05,0.06 0.04,0.05 0.05,0.06 0.04,0.06 0.04,0.06 0.04,0.06 0.03,0.07 0.04,0.06 0.03,0.07 0.02,0.06 0.03,0.07 0.02,0.07 0.01,0.07 0.02,0.07 0.01,0.07 0.01,0.08 0,0.07 0.01,0.07 c 0,0.82 -0.88,1.37 -1.84,1.37 -1.01,0 -1.76,-0.59 -1.76,-1.35 0,-0.33 0.22,-0.52 0.51,-0.52 0.3,0 0.5,0.22 0.5,0.51 0,0.5 -0.46,0.5 -0.61,0.5 0.3,0.49 0.96,0.62 1.32,0.62 0.41,0 0.96,-0.22 0.96,-1.12 0,-0.12 -0.02,-0.7 -0.28,-1.13 -0.3,-0.48 -0.64,-0.51 -0.89,-0.52 -0.08,-0.01 -0.32,-0.03 -0.39,-0.03 -0.08,-0.01 -0.15,-0.02 -0.15,-0.12 0,-0.11 0.07,-0.11 0.24,-0.11 h 0.44 c 0.82,0 1.19,-0.68 1.19,-1.65 0,-1.35 -0.69,-1.64 -1.13,-1.64 -0.43,0 -1.17,0.17 -1.52,0.75 0.35,-0.05 0.65,0.17 0.65,0.55 0,0.36 -0.26,0.56 -0.55,0.56 -0.24,0 -0.56,-0.14 -0.56,-0.58 0,-0.91 0.92,-1.56 2.01,-1.56 1.22,0 2.12,0.9 2.12,1.92 0,0.81 -0.62,1.59 -1.66,1.8 z"
   inkscape:connector-curvature="0"
   style="fill:#000000;stroke-width:0" />
<path
   id="path27295"
   d="m 397.4,714.38 h 1.13 c -0.33,-1.47 -0.42,-1.9 -0.42,-2.57 0,-0.15 0,-0.42 0.08,-0.76 0.1,-0.43 0.21,-0.49 0.36,-0.49 0.2,0 0.41,0.18 0.41,0.38 0,0.05 0,0.08 -0.06,0.22 -0.29,0.71 -0.29,1.36 -0.29,1.64 0,0.52 0.07,1.06 0.18,1.58 h 1.13 c 0.13,0 0.49,0 0.49,0.34 0,0.24 -0.21,0.24 -0.4,0.24 h -3.34 c -0.22,0 -0.59,0 -1.03,-0.47 -0.35,-0.39 -0.61,-0.85 -0.61,-0.9 0,-0.01 0,-0.1 0.12,-0.1 0.08,0 0.1,0.04 0.16,0.12 0.49,0.77 1.07,0.77 1.26,0.77 h 0.57 c -0.32,-1.21 -0.85,-2.41 -1.27,-3.31 -0.08,-0.15 -0.08,-0.17 -0.08,-0.24 0,-0.19 0.16,-0.27 0.29,-0.27 0.3,0 0.37,0.28 0.49,0.64 0.14,0.46 0.14,0.48 0.27,0.98 z"
   inkscape:connector-curvature="0"
   style="fill:#000000;stroke-width:0" />
<line
   id="line27297"
   y2="706.41998"
   x2="400.79999"
   y1="706.41998"
   x1="389.78"
   style="stroke-width:0.398" />
<path
   id="path27299"
   d="m 394.06,697.86 1.06,1.03 c 1.55,1.37 2.15,1.91 2.15,2.9 0,1.14 -0.89,1.93 -2.11,1.93 -1.13,0 -1.86,-0.91 -1.86,-1.8 0,-0.56 0.49,-0.56 0.52,-0.56 0.17,0 0.52,0.12 0.52,0.53 0,0.26 -0.18,0.52 -0.53,0.52 -0.08,0 -0.1,0 -0.13,-0.01 0.23,0.65 0.77,1.01 1.35,1.01 0.91,0 1.34,-0.8 1.34,-1.62 0,-0.8 -0.5,-1.58 -1.05,-2.2 l -1.92,-2.13 c -0.1,-0.11 -0.1,-0.13 -0.1,-0.37 h 3.69 l 0.28,1.74 h -0.25 c -0.05,-0.3 -0.12,-0.74 -0.22,-0.89 -0.07,-0.08 -0.72,-0.08 -0.94,-0.08 z"
   inkscape:connector-curvature="0"
   style="fill:#000000;stroke-width:0" />
</g>    <g
       id="g27516"
       transform="matrix(1,0,0,-1,-170.93383,721.33797)"
       xml:space="preserve"
       stroke-miterlimit="10.433"
       font-style="normal"
       font-variant="normal"
       font-weight="normal"
       font-stretch="normal"
       font-size-adjust="none"
       letter-spacing="normal"
       word-spacing="normal"
       ns0:text="\\[\n2\\pi\n\\]"
       ns0:preamble="/home/josh/Desktop/preamble (copy).txt"
       style="font-style:normal;font-variant:normal;font-weight:normal;font-stretch:normal;letter-spacing:normal;word-spacing:normal;text-anchor:start;fill:none;stroke:#000000;stroke-linecap:butt;stroke-linejoin:miter;stroke-miterlimit:10.43299961;stroke-opacity:1;stroke-dasharray:none;stroke-dashoffset:0">
<path
   style="fill:#000000;stroke-width:0"
   inkscape:connector-curvature="0"
   d="m 391.05,707.89 1.05,1.03 c 1.56,1.37 2.16,1.91 2.16,2.9 0,1.14 -0.9,1.93 -2.12,1.93 -1.12,0 -1.86,-0.91 -1.86,-1.8 0,-0.55 0.5,-0.55 0.53,-0.55 0.17,0 0.51,0.11 0.51,0.52 0,0.26 -0.18,0.52 -0.52,0.52 -0.08,0 -0.1,0 -0.13,-0.01 0.22,0.65 0.76,1.02 1.34,1.02 0.91,0 1.34,-0.81 1.34,-1.63 0,-0.79 -0.5,-1.58 -1.05,-2.2 l -1.91,-2.13 c -0.11,-0.11 -0.11,-0.13 -0.11,-0.37 h 3.7 l 0.28,1.74 h -0.25 c -0.05,-0.3 -0.12,-0.74 -0.22,-0.89 -0.07,-0.08 -0.73,-0.08 -0.95,-0.08 z"
   id="path27518" />
<path
   style="fill:#000000;stroke-width:0"
   inkscape:connector-curvature="0"
   d="m 397.4,710.84 h 1.13 c -0.33,-1.48 -0.42,-1.9 -0.42,-2.57 0,-0.15 0,-0.42 0.08,-0.76 0.1,-0.43 0.21,-0.49 0.36,-0.49 0.2,0 0.41,0.18 0.41,0.37 0,0.06 0,0.08 -0.06,0.22 -0.29,0.72 -0.29,1.37 -0.29,1.65 0,0.52 0.07,1.06 0.18,1.58 h 1.13 c 0.13,0 0.49,0 0.49,0.34 0,0.23 -0.21,0.23 -0.4,0.23 h -3.34 c -0.22,0 -0.59,0 -1.03,-0.46 -0.35,-0.39 -0.61,-0.85 -0.61,-0.9 0,-0.01 0,-0.1 0.12,-0.1 0.08,0 0.1,0.04 0.16,0.12 0.49,0.77 1.07,0.77 1.26,0.77 h 0.57 c -0.32,-1.21 -0.85,-2.41 -1.27,-3.32 -0.08,-0.15 -0.08,-0.17 -0.08,-0.24 0,-0.19 0.16,-0.26 0.29,-0.26 0.3,0 0.37,0.27 0.49,0.64 0.14,0.46 0.14,0.48 0.27,0.98 z"
   id="path27520" />
</g>    <path
       inkscape:connector-curvature="0"
       id="path27618"
       d="m 130.34293,0.64702387 0,8.08749483"
       style="fill:none;stroke:#0000ff;stroke-width:1px;stroke-linecap:butt;stroke-linejoin:miter;stroke-opacity:1" />
    <path
       inkscape:connector-curvature="0"
       id="path27618-1"
       d="m 159.57265,0.10456982 0,8.08749548"
       style="fill:none;stroke:#0000ff;stroke-width:1px;stroke-linecap:butt;stroke-linejoin:miter;stroke-opacity:1" />
    <path
       inkscape:connector-curvature="0"
       id="path27618-7"
       d="m 188.25087,0.49850192 0,8.08749498"
       style="fill:none;stroke:#0000ff;stroke-width:1px;stroke-linecap:butt;stroke-linejoin:miter;stroke-opacity:1" />
    <path
       inkscape:connector-curvature="0"
       id="path27618-19"
       d="m 217.4806,0.73486087 0,8.08749503"
       style="fill:none;stroke:#0000ff;stroke-width:1px;stroke-linecap:butt;stroke-linejoin:miter;stroke-opacity:1" />
    <g
       style="font-style:normal;font-variant:normal;font-weight:normal;font-stretch:normal;letter-spacing:normal;word-spacing:normal;text-anchor:start;fill:#0000ff;stroke:#0000ff;stroke-linecap:butt;stroke-linejoin:miter;stroke-miterlimit:10.43299961;stroke-opacity:1;stroke-dasharray:none;stroke-dashoffset:0"
       ns0:preamble="/home/josh/Desktop/preamble (copy).txt"
       ns0:text="\\[\ni\n\\]"
       word-spacing="normal"
       letter-spacing="normal"
       font-size-adjust="none"
       font-stretch="normal"
       font-weight="normal"
       font-variant="normal"
       font-style="normal"
       stroke-miterlimit="10.433"
       xml:space="preserve"
       transform="matrix(1,0,0,-1,-321.32267,757.37011)"
       id="g27803">
<path
   id="path27805"
   d="m 396.4,713.34 0,0.02 0,0.02 0,0.02 0,0.02 -0.01,0.01 0,0.02 -0.01,0.02 0,0.02 -0.01,0.01 -0.01,0.02 0,0.01 -0.01,0.02 -0.01,0.01 -0.01,0.01 -0.01,0.02 -0.02,0.01 -0.01,0.01 -0.01,0.01 -0.01,0.01 -0.02,0.01 -0.01,0.01 -0.02,0.01 -0.02,0.01 -0.01,0.01 -0.02,0 -0.02,0.01 -0.02,0 -0.01,0.01 -0.02,0 -0.02,0 -0.02,0 -0.03,0 c -0.26,0 -0.53,-0.25 -0.53,-0.52 0,-0.19 0.14,-0.36 0.38,-0.36 0.22,0 0.52,0.23 0.52,0.52 z"
   inkscape:connector-curvature="0"
   style="fill:#0000ff;stroke:#0000ff;stroke-width:0" />
<path
   id="path27807"
   d="m 395.64,709.6 0.02,0.03 0.01,0.02 0.01,0.03 0,0.02 0.01,0.02 0.01,0.02 0.01,0.02 0.01,0.02 0,0.01 0.01,0.02 0.01,0.02 0,0.01 0.01,0.02 0,0.01 0.01,0.03 0.01,0.03 0.01,0.03 0.01,0.01 0,0.02 0.01,0.01 0.01,0.02 0,0.01 0.01,0.02 0,0.02 0.01,0.02 0.01,0.02 0.01,0.02 0.01,0.03 0,0.02 c 0.08,0.2 0.13,0.34 0.13,0.53 0,0.45 -0.32,0.81 -0.81,0.81 -0.94,0 -1.32,-1.44 -1.32,-1.53 0,-0.1 0.1,-0.1 0.12,-0.1 0.1,0 0.11,0.02 0.16,0.18 0.27,0.94 0.67,1.23 1.01,1.23 0.08,0 0.25,0 0.25,-0.31 0,-0.21 -0.07,-0.42 -0.11,-0.52 -0.08,-0.26 -0.53,-1.41 -0.69,-1.84 -0.1,-0.26 -0.23,-0.59 -0.23,-0.8 0,-0.47 0.34,-0.81 0.82,-0.81 0.93,0 1.3,1.44 1.3,1.53 0,0.1 -0.09,0.1 -0.12,0.1 -0.1,0 -0.1,-0.03 -0.15,-0.18 -0.18,-0.63 -0.51,-1.24 -1.01,-1.24 -0.17,0 -0.24,0.1 -0.24,0.33 0,0.25 0.06,0.39 0.29,1 z"
   inkscape:connector-curvature="0"
   style="fill:#0000ff;stroke:#0000ff;stroke-width:0" />
</g>    <g
       id="g28032"
       transform="matrix(1,0,0,-1,-319.11839,676.75672)"
       xml:space="preserve"
       stroke-miterlimit="10.433"
       font-style="normal"
       font-variant="normal"
       font-weight="normal"
       font-stretch="normal"
       font-size-adjust="none"
       letter-spacing="normal"
       word-spacing="normal"
       ns0:text="\\[\nV_c\n\\]"
       ns0:preamble="/home/josh/Desktop/preamble (copy).txt"
       style="font-style:normal;font-variant:normal;font-weight:normal;font-stretch:normal;letter-spacing:normal;word-spacing:normal;text-anchor:start;fill:#ff0000;fill-opacity:1;fill-rule:evenodd;stroke:#000000;stroke-linecap:butt;stroke-linejoin:miter;stroke-miterlimit:10.43299961;stroke-opacity:1;stroke-dasharray:none;stroke-dashoffset:0">
<path
   inkscape:connector-curvature="0"
   style="fill:#ff0000;stroke-width:0"
   d="m 396.61,712.79 0.05,0.07 0.04,0.06 0.05,0.07 0.04,0.06 0.05,0.05 0.04,0.05 0.04,0.05 0.05,0.04 0.04,0.04 0.04,0.04 0.04,0.03 0.04,0.04 0.05,0.02 0.04,0.03 0.04,0.02 0.04,0.02 0.04,0.02 0.03,0.02 0.04,0.02 0.04,0.01 0.04,0.01 0.04,0.01 0.04,0.01 0.03,0.01 0.04,0 0.04,0.01 0.07,0 0.07,0.01 0.07,0 c 0.12,0.01 0.13,0.18 0.13,0.19 0,0.08 -0.05,0.12 -0.13,0.12 -0.26,0 -0.55,-0.03 -0.82,-0.03 -0.33,0 -0.67,0.03 -0.99,0.03 -0.06,0 -0.19,0 -0.19,-0.19 0,-0.11 0.09,-0.12 0.16,-0.12 0.27,-0.02 0.46,-0.12 0.46,-0.32 0,-0.15 -0.15,-0.37 -0.15,-0.38 l -3.06,-4.86 -0.67,5.27 c 0,0.16 0.23,0.29 0.68,0.29 0.14,0 0.25,0 0.25,0.2 0,0.09 -0.08,0.11 -0.14,0.11 -0.4,0 -0.82,-0.03 -1.23,-0.03 -0.18,0 -0.37,0.01 -0.55,0.01 -0.18,0 -0.37,0.02 -0.54,0.02 -0.07,0 -0.19,0 -0.19,-0.19 0,-0.12 0.09,-0.12 0.25,-0.12 0.56,0 0.57,-0.09 0.6,-0.33 l 0.79,-6.14 c 0.03,-0.2 0.07,-0.23 0.19,-0.23 0.16,0 0.21,0.05 0.28,0.18 z"
   id="path28034" />
<path
   inkscape:connector-curvature="0"
   style="fill:#ff0000;stroke-width:0"
   d="m 399.21,708.29 -0.02,0 -0.02,-0.01 -0.02,0 -0.02,-0.01 -0.02,-0.01 -0.02,0 -0.02,-0.01 -0.02,-0.01 -0.01,-0.01 -0.02,-0.01 -0.01,-0.02 -0.02,-0.01 -0.01,-0.01 -0.01,-0.01 -0.02,-0.02 -0.01,-0.01 -0.01,-0.01 -0.01,-0.02 -0.01,-0.01 0,-0.02 -0.01,-0.01 -0.01,-0.02 -0.01,-0.01 0,-0.02 -0.01,-0.01 0,-0.02 0,-0.01 -0.01,-0.02 0,-0.01 0,-0.02 0,-0.01 0,-0.01 c 0,-0.19 0.15,-0.26 0.27,-0.26 0.15,0 0.4,0.11 0.4,0.44 0,0.48 -0.55,0.61 -0.92,0.61 -1.05,0 -2.01,-0.96 -2.01,-1.93 0,-0.6 0.41,-1.21 1.28,-1.21 1.18,0 1.73,0.69 1.73,0.79 0,0.04 -0.06,0.12 -0.12,0.12 -0.04,0 -0.05,-0.02 -0.11,-0.07 -0.54,-0.64 -1.36,-0.64 -1.48,-0.64 -0.5,0 -0.73,0.34 -0.73,0.77 0,0.2 0.1,0.96 0.46,1.44 0.27,0.34 0.63,0.53 0.98,0.53 0.1,0 0.43,-0.01 0.6,-0.21 z"
   id="path28036" />
</g>    <g
       style="font-style:normal;font-variant:normal;font-weight:normal;font-stretch:normal;letter-spacing:normal;word-spacing:normal;text-anchor:start;fill:none;stroke:#000000;stroke-linecap:butt;stroke-linejoin:miter;stroke-miterlimit:10.43299961;stroke-opacity:1;stroke-dasharray:none;stroke-dashoffset:0"
       ns0:preamble="/home/josh/Desktop/preamble (copy).txt"
       ns0:text="\\[\nV_L\n\\]"
       word-spacing="normal"
       letter-spacing="normal"
       font-size-adjust="none"
       font-stretch="normal"
       font-weight="normal"
       font-variant="normal"
       font-style="normal"
       stroke-miterlimit="10.433"
       xml:space="preserve"
       transform="matrix(1,0,0,-1,-324.58224,725.8805)"
       id="g28267">
<path
   id="path28269"
   d="m 395.66,712.79 0.05,0.07 0.04,0.06 0.05,0.07 0.04,0.06 0.04,0.05 0.05,0.05 0.04,0.05 0.04,0.04 0.05,0.04 0.04,0.04 0.04,0.03 0.04,0.04 0.04,0.02 0.04,0.03 0.04,0.02 0.04,0.02 0.04,0.02 0.04,0.02 0.04,0.02 0.04,0.01 0.04,0.01 0.04,0.01 0.03,0.01 0.04,0.01 0.04,0 0.03,0.01 0.08,0 0.07,0.01 0.07,0 c 0.12,0.01 0.13,0.18 0.13,0.19 0,0.08 -0.05,0.12 -0.13,0.12 -0.26,0 -0.55,-0.03 -0.82,-0.03 -0.33,0 -0.67,0.03 -0.99,0.03 -0.06,0 -0.19,0 -0.19,-0.19 0,-0.11 0.09,-0.12 0.16,-0.12 0.27,-0.02 0.46,-0.12 0.46,-0.32 0,-0.15 -0.15,-0.37 -0.15,-0.38 l -3.06,-4.86 -0.68,5.27 c 0,0.16 0.23,0.29 0.69,0.29 0.14,0 0.25,0 0.25,0.2 0,0.09 -0.08,0.11 -0.14,0.11 -0.4,0 -0.83,-0.03 -1.24,-0.03 -0.18,0 -0.37,0.01 -0.54,0.01 -0.18,0 -0.37,0.02 -0.54,0.02 -0.07,0 -0.19,0 -0.19,-0.19 0,-0.12 0.09,-0.12 0.25,-0.12 0.56,0 0.57,-0.09 0.6,-0.33 l 0.78,-6.14 c 0.03,-0.2 0.07,-0.23 0.2,-0.23 0.16,0 0.2,0.05 0.28,0.18 z"
   inkscape:connector-curvature="0"
   style="fill:#000000;stroke-width:0" />
<path
   id="path28271"
   d="m 398.08,709.81 0.01,0.02 0,0.02 0.01,0.03 0,0.02 0.01,0.01 0.01,0.02 0,0.02 0.01,0.02 0.01,0.01 0.01,0.01 0.01,0.02 0.01,0.01 0.01,0.01 0.02,0.01 0.01,0.01 0.02,0.01 0.02,0.01 0.02,0.01 0.02,0.01 0.02,0 0.01,0.01 0.02,0 0.01,0 0.02,0.01 0.01,0 0.02,0 0.01,0 0.02,0.01 0.02,0 0.02,0 0.02,0 0.02,0 0.02,0 0.02,0 0.02,0.01 0.02,0 0.03,0 0.02,0 0.03,0 0.02,0 0.03,0 0.03,0 0.03,0 0.03,0 c 0.21,0 0.28,0 0.28,0.15 0,0.01 -0.01,0.1 -0.12,0.1 -0.16,0 -0.35,-0.01 -0.51,-0.02 -0.18,-0.01 -0.39,-0.01 -0.56,-0.01 -0.15,0 -0.33,0.01 -0.48,0.01 -0.15,0 -0.31,0.02 -0.45,0.02 -0.05,0 -0.15,0 -0.15,-0.15 0,-0.1 0.08,-0.1 0.22,-0.1 0.01,0 0.14,0 0.27,-0.01 0.14,-0.02 0.16,-0.03 0.16,-0.1 0,-0.01 0,-0.05 -0.03,-0.15 l -0.93,-3.7 c -0.06,-0.23 -0.07,-0.29 -0.61,-0.29 -0.12,0 -0.21,0 -0.21,-0.15 0,-0.1 0.09,-0.1 0.21,-0.1 h 3.5 c 0.18,0 0.19,0.01 0.24,0.14 0.07,0.19 0.59,1.54 0.59,1.59 0,0.02 -0.01,0.1 -0.12,0.1 -0.08,0 -0.09,-0.04 -0.13,-0.15 -0.27,-0.66 -0.58,-1.43 -1.85,-1.43 h -0.79 c -0.21,0 -0.22,0.01 -0.22,0.07 0,0.01 0,0.04 0.03,0.15 z"
   inkscape:connector-curvature="0"
   style="fill:#000000;stroke-width:0" />
</g>  </g>
</svg>
