<?xml version="1.0" encoding="UTF-8" standalone="no"?>
<!-- Created with Inkscape (http://www.inkscape.org/) -->

<svg
   xmlns:ns0="http://www.iki.fi/pav/software/textext/"
   xmlns:dc="http://purl.org/dc/elements/1.1/"
   xmlns:cc="http://creativecommons.org/ns#"
   xmlns:rdf="http://www.w3.org/1999/02/22-rdf-syntax-ns#"
   xmlns:svg="http://www.w3.org/2000/svg"
   xmlns="http://www.w3.org/2000/svg"
   xmlns:sodipodi="http://sodipodi.sourceforge.net/DTD/sodipodi-0.dtd"
   xmlns:inkscape="http://www.inkscape.org/namespaces/inkscape"
   width="348.25632"
   height="103.79965"
   id="svg2"
   version="1.1"
   inkscape:version="0.48.2 r9819"
   sodipodi:docname="thevenin.svg">
  <sodipodi:namedview
     id="base"
     pagecolor="#ffffff"
     bordercolor="#666666"
     borderopacity="1.0"
     inkscape:pageopacity="0.0"
     inkscape:pageshadow="2"
     inkscape:zoom="3.382566"
     inkscape:cx="174.12816"
     inkscape:cy="51.899827"
     inkscape:document-units="px"
     inkscape:current-layer="layer1"
     showgrid="false"
     inkscape:window-width="1366"
     inkscape:window-height="743"
     inkscape:window-x="0"
     inkscape:window-y="3"
     inkscape:window-maximized="1"
     fit-margin-top="0"
     fit-margin-left="0"
     fit-margin-right="0"
     fit-margin-bottom="0"
     inkscape:snap-bbox="true"
     inkscape:bbox-paths="true"
     inkscape:bbox-nodes="true"
     inkscape:snap-bbox-edge-midpoints="true"
     inkscape:snap-bbox-midpoints="true"
     inkscape:object-paths="true"
     inkscape:snap-intersection-paths="true"
     inkscape:snap-smooth-nodes="true"
     inkscape:object-nodes="true"
     inkscape:snap-midpoints="true"
     inkscape:snap-object-midpoints="true"
     inkscape:snap-center="true"
     inkscape:snap-global="false" />
  <defs
     id="defs4">
    <marker
       inkscape:stockid="Arrow1Send"
       orient="auto"
       refY="0.0"
       refX="0.0"
       id="Arrow1Send"
       style="overflow:visible;">
      <path
         id="path6183"
         d="M 0.0,0.0 L 5.0,-5.0 L -12.5,0.0 L 5.0,5.0 L 0.0,0.0 z "
         style="fill-rule:evenodd;stroke:#000000;stroke-width:1.0pt;marker-start:none;"
         transform="scale(0.2) rotate(180) translate(6,0)" />
    </marker>
    <marker
       style="overflow:visible"
       id="Arrow1Mstart"
       refX="0"
       refY="0"
       orient="auto"
       inkscape:stockid="Arrow1Mstart">
      <path
         inkscape:connector-curvature="0"
         transform="matrix(0.4,0,0,0.4,4,0)"
         style="fill-rule:evenodd;stroke:#000000;stroke-width:1pt;marker-start:none"
         d="M 0,0 5,-5 -12.5,0 5,5 0,0 z"
         id="path6174" />
    </marker>
    <marker
       inkscape:stockid="Arrow1Mend"
       orient="auto"
       refY="0"
       refX="0"
       id="Arrow1Mend"
       style="overflow:visible">
      <path
         inkscape:connector-curvature="0"
         id="path6177"
         d="M 0,0 5,-5 -12.5,0 5,5 0,0 z"
         style="fill-rule:evenodd;stroke:#000000;stroke-width:1pt;marker-start:none"
         transform="matrix(-0.4,0,0,-0.4,-4,0)" />
    </marker>
    <marker
       inkscape:stockid="Arrow2Send"
       orient="auto"
       refY="0"
       refX="0"
       id="Arrow2Send"
       style="overflow:visible">
      <path
         inkscape:connector-curvature="0"
         id="path6201"
         style="font-size:12px;fill-rule:evenodd;stroke-width:0.625;stroke-linejoin:round"
         d="M 8.7185878,4.0337352 -2.2072895,0.01601326 8.7185884,-4.0017078 c -1.7454984,2.3720609 -1.7354408,5.6174519 -6e-7,8.035443 z"
         transform="matrix(-0.3,0,0,-0.3,0.69,0)" />
    </marker>
    <marker
       inkscape:stockid="Arrow1Mendd"
       orient="auto"
       refY="0"
       refX="0"
       id="Arrow1Mendd"
       style="overflow:visible">
      <path
         inkscape:connector-curvature="0"
         id="path6803"
         d="M 0,0 5,-5 -12.5,0 5,5 0,0 z"
         style="fill:#0000ff;fill-rule:evenodd;stroke:#0000ff;stroke-width:1pt;marker-start:none"
         transform="matrix(-0.4,0,0,-0.4,-4,0)" />
    </marker>
    <marker
       inkscape:stockid="Arrow1MendI"
       orient="auto"
       refY="0"
       refX="0"
       id="Arrow1MendI"
       style="overflow:visible">
      <path
         inkscape:connector-curvature="0"
         id="path6806"
         d="M 0,0 5,-5 -12.5,0 5,5 0,0 z"
         style="fill:#0000ff;fill-rule:evenodd;stroke:#0000ff;stroke-width:1pt;marker-start:none"
         transform="matrix(-0.4,0,0,-0.4,-4,0)" />
    </marker>
    <marker
       inkscape:stockid="Arrow1Mendo"
       orient="auto"
       refY="0"
       refX="0"
       id="Arrow1Mendo"
       style="overflow:visible">
      <path
         inkscape:connector-curvature="0"
         id="path6809"
         d="M 0,0 5,-5 -12.5,0 5,5 0,0 z"
         style="fill:#0000ff;fill-rule:evenodd;stroke:#0000ff;stroke-width:1pt;marker-start:none"
         transform="matrix(-0.4,0,0,-0.4,-4,0)" />
    </marker>
    <marker
       inkscape:stockid="Arrow2Send"
       orient="auto"
       refY="0"
       refX="0"
       id="Arrow2Send-6"
       style="overflow:visible">
      <path
         inkscape:connector-curvature="0"
         id="path6201-6"
         style="font-size:12px;fill-rule:evenodd;stroke-width:0.625;stroke-linejoin:round"
         d="M 8.7185878,4.0337352 -2.2072895,0.01601326 8.7185884,-4.0017078 c -1.7454984,2.3720609 -1.7354408,5.6174519 -6e-7,8.035443 z"
         transform="matrix(-0.3,0,0,-0.3,0.69,0)" />
    </marker>
    <marker
       inkscape:stockid="Arrow1Send"
       orient="auto"
       refY="0"
       refX="0"
       id="Arrow1Send-8"
       style="overflow:visible">
      <path
         inkscape:connector-curvature="0"
         id="path6183-2"
         d="M 0,0 5,-5 -12.5,0 5,5 0,0 z"
         style="fill-rule:evenodd;stroke:#000000;stroke-width:1pt;marker-start:none"
         transform="matrix(-0.2,0,0,-0.2,-1.2,0)" />
    </marker>
    <marker
       inkscape:stockid="Arrow1Sendc"
       orient="auto"
       refY="0.0"
       refX="0.0"
       id="Arrow1Sendc"
       style="overflow:visible;">
      <path
         id="path11660"
         d="M 0.0,0.0 L 5.0,-5.0 L -12.5,0.0 L 5.0,5.0 L 0.0,0.0 z "
         style="marker-start:none;stroke:#ff0000;stroke-width:1.0pt;fill:#ff0000;fill-rule:evenodd"
         transform="scale(0.2) rotate(180) translate(6,0)" />
    </marker>
    <marker
       inkscape:stockid="Arrow1Sendc"
       orient="auto"
       refY="0"
       refX="0"
       id="Arrow1Sendc-6"
       style="overflow:visible">
      <path
         id="path11660-6"
         d="M 0,0 5,-5 -12.5,0 5,5 0,0 z"
         style="fill:#ff0000;fill-rule:evenodd;stroke:#ff0000;stroke-width:1pt;marker-start:none"
         transform="matrix(-0.2,0,0,-0.2,-1.2,0)"
         inkscape:connector-curvature="0" />
    </marker>
    <marker
       inkscape:stockid="Arrow1Sendc"
       orient="auto"
       refY="0"
       refX="0"
       id="Arrow1Sendc-1"
       style="overflow:visible">
      <path
         id="path11660-5"
         d="M 0,0 5,-5 -12.5,0 5,5 0,0 z"
         style="fill:#ff0000;fill-rule:evenodd;stroke:#ff0000;stroke-width:1pt;marker-start:none"
         transform="matrix(-0.2,0,0,-0.2,-1.2,0)"
         inkscape:connector-curvature="0" />
    </marker>
  </defs>
  <metadata
     id="metadata7">
    <rdf:RDF>
      <cc:Work
         rdf:about="">
        <dc:format>image/svg+xml</dc:format>
        <dc:type
           rdf:resource="http://purl.org/dc/dcmitype/StillImage" />
        <dc:title />
      </cc:Work>
    </rdf:RDF>
  </metadata>
  <g
     transform="translate(-39.99,-53.86)"
     id="layer1"
     inkscape:groupmode="layer"
     inkscape:label="Layer 1">
    <g
       id="g9284">
      <g
         id="g9261"
         transform="matrix(0,0.48541893,-0.47534982,0,219.10981,10.924943)"
         style="stroke-width:1.60000002;stroke-miterlimit:4;stroke-dasharray:none">
        <path
           transform="matrix(2.285714,0,0,2.285714,-83.502163,-47.600246)"
           d="m 131.10237,72.952759 c 0,6.849201 -5.55238,12.401575 -12.40158,12.401575 -6.8492,0 -12.40157,-5.552374 -12.40157,-12.401575 0,-6.849201 5.55237,-12.401575 12.40157,-12.401575 6.8492,0 12.40158,5.552374 12.40158,12.401575 z"
           sodipodi:ry="12.401575"
           sodipodi:rx="12.401575"
           sodipodi:cy="72.952759"
           sodipodi:cx="118.70079"
           id="path3708"
           style="color:#000000;fill:none;stroke:#000000;stroke-width:1.45724666;stroke-linecap:butt;stroke-linejoin:round;stroke-miterlimit:4;stroke-opacity:1;stroke-dasharray:none;stroke-dashoffset:0;marker:none;visibility:visible;display:inline;overflow:visible"
           sodipodi:type="arc" />
        <path
           inkscape:connector-curvature="0"
           sodipodi:nodetypes="cc"
           id="path3710"
           d="m 159.46751,119.14888 -7.0866,0"
           style="fill:none;stroke:#000000;stroke-width:3.33084917;stroke-linecap:square;stroke-linejoin:miter;stroke-miterlimit:4;stroke-opacity:1;stroke-dasharray:none" />
        <path
           inkscape:connector-curvature="0"
           sodipodi:nodetypes="cc"
           id="path3712"
           d="m 216.16043,119.14888 7.08662,0"
           style="fill:none;stroke:#000000;stroke-width:3.33084917;stroke-linecap:square;stroke-linejoin:miter;stroke-miterlimit:4;stroke-opacity:1;stroke-dasharray:none" />
      </g>
      <path
         style="fill:none;stroke:#000000;stroke-width:1.60000002;stroke-linecap:square;stroke-linejoin:miter;stroke-miterlimit:4;stroke-opacity:1;stroke-dasharray:none;marker-end:none"
         d="m 155.73516,102.0934 c 6.73724,-13.759914 6.73724,13.75991 13.47448,0"
         id="path3714"
         sodipodi:nodetypes="cc"
         inkscape:connector-curvature="0" />
    </g>
    <g
       transform="translate(-13.868237,1.652413)"
       id="g9291">
      <path
         style="fill:none;stroke:#000000;stroke-width:1.60000002;stroke-linecap:square;stroke-linejoin:miter;stroke-miterlimit:4;stroke-opacity:1;stroke-dasharray:none"
         d="m 195.65907,70.632486 6.73723,0"
         id="path5036"
         sodipodi:nodetypes="cc"
         inkscape:connector-curvature="0" />
      <path
         style="fill:none;stroke:#000000;stroke-width:1.60000002;stroke-linecap:square;stroke-linejoin:miter;stroke-miterlimit:4;stroke-opacity:1;stroke-dasharray:none"
         d="m 219.23941,70.632486 6.73724,1e-5"
         id="path5038"
         sodipodi:nodetypes="cc"
         inkscape:connector-curvature="0" />
      <rect
         style="color:#000000;fill:none;stroke:#000000;stroke-width:1.60000002;stroke-linecap:square;stroke-linejoin:round;stroke-miterlimit:4;stroke-opacity:1;stroke-dasharray:none;stroke-dashoffset:0;marker:none;visibility:visible;display:inline;overflow:visible"
         id="rect5044"
         width="16.843094"
         height="6.87995"
         x="202.39632"
         y="67.192513" />
    </g>
    <g
       transform="translate(-10.947,-15.460831)"
       id="g9296">
      <path
         style="fill:none;stroke:#000000;stroke-width:1.60000002;stroke-linecap:square;stroke-linejoin:miter;stroke-miterlimit:4;stroke-opacity:1;stroke-dasharray:none"
         d="m 255.84533,101.13402 0,6.87995"
         id="path5036-6"
         sodipodi:nodetypes="cc"
         inkscape:connector-curvature="0" />
      <path
         style="fill:none;stroke:#000000;stroke-width:1.60000002;stroke-linecap:square;stroke-linejoin:miter;stroke-miterlimit:4;stroke-opacity:1;stroke-dasharray:none"
         d="m 255.84533,125.21386 -1e-5,6.87995"
         id="path5038-0"
         sodipodi:nodetypes="cc"
         inkscape:connector-curvature="0" />
      <rect
         style="color:#000000;fill:none;stroke:#000000;stroke-width:1.60000002;stroke-linecap:square;stroke-linejoin:round;stroke-miterlimit:4;stroke-opacity:1;stroke-dasharray:none;stroke-dashoffset:0;marker:none;visibility:visible;display:inline;overflow:visible"
         id="rect5044-4"
         width="17.199873"
         height="6.7372384"
         x="108.014"
         y="-259.21396"
         transform="matrix(0,1,-1,0,0,0)" />
    </g>
    <path
       inkscape:connector-curvature="0"
       id="path9301"
       d="m 162.47241,84.893521 0,-12.608622 22.33854,0"
       style="fill:none;stroke:#000000;stroke-width:1.60000002;stroke-linecap:butt;stroke-linejoin:miter;stroke-miterlimit:4;stroke-opacity:1;stroke-dasharray:none" />
    <path
       sodipodi:nodetypes="cccc"
       inkscape:connector-curvature="0"
       id="path9303"
       d="m 162.47241,117.28574 0,15.10649 82.42591,0 0,-16.39165"
       style="fill:none;stroke:#000000;stroke-width:1.60000002;stroke-linecap:butt;stroke-linejoin:miter;stroke-miterlimit:4;stroke-opacity:1;stroke-dasharray:none" />
    <path
       inkscape:connector-curvature="0"
       id="path9305"
       d="m 209.95504,72.284909 81.6128,0"
       style="fill:none;stroke:#000000;stroke-width:1.60000002;stroke-linecap:butt;stroke-linejoin:miter;stroke-miterlimit:4;stroke-opacity:1;stroke-dasharray:none" />
    <path
       inkscape:connector-curvature="0"
       id="path9307"
       d="m 244.91882,132.39223 47.20428,0"
       style="fill:none;stroke:#000000;stroke-width:1.60000002;stroke-linecap:butt;stroke-linejoin:miter;stroke-miterlimit:4;stroke-opacity:1;stroke-dasharray:none" />
    <path
       inkscape:connector-curvature="0"
       id="path9309"
       d="m 244.89833,86.529725 0,-14.447454"
       style="fill:none;stroke:#000000;stroke-width:1.60000014;stroke-linecap:butt;stroke-linejoin:miter;stroke-miterlimit:4;stroke-opacity:1;stroke-dasharray:none" />
    <g
       id="content"
       transform="matrix(1,0,0,-1,-256.05208,807.58336)"
       xml:space="preserve"
       stroke-miterlimit="10.433"
       font-style="normal"
       font-variant="normal"
       font-weight="normal"
       font-stretch="normal"
       font-size-adjust="none"
       letter-spacing="normal"
       word-spacing="normal"
       ns0:text="\\[\nV_S\n\\]"
       ns0:preamble="/home/josh/Desktop/preamble (copy).txt"
       style="font-style:normal;font-variant:normal;font-weight:normal;font-stretch:normal;letter-spacing:normal;word-spacing:normal;text-anchor:start;fill:none;stroke:#000000;stroke-linecap:butt;stroke-linejoin:miter;stroke-miterlimit:10.43299961;stroke-opacity:1;stroke-dasharray:none;stroke-dashoffset:0">
<path
   style="fill:#000000;stroke-width:0"
   inkscape:connector-curvature="0"
   d="m 395.76,712.79 0.04,0.07 0.05,0.06 0.04,0.07 0.05,0.06 0.04,0.05 0.04,0.05 0.05,0.05 0.04,0.04 0.04,0.04 0.04,0.04 0.05,0.03 0.04,0.04 0.04,0.02 0.04,0.03 0.04,0.02 0.04,0.02 0.04,0.02 0.04,0.02 0.04,0.02 0.04,0.01 0.03,0.01 0.04,0.01 0.04,0.01 0.04,0.01 0.03,0 0.04,0.01 0.07,0 0.07,0.01 0.07,0 c 0.12,0.01 0.13,0.18 0.13,0.19 0,0.08 -0.05,0.12 -0.13,0.12 -0.26,0 -0.55,-0.03 -0.82,-0.03 -0.32,0 -0.66,0.03 -0.98,0.03 -0.06,0 -0.19,0 -0.19,-0.19 0,-0.11 0.09,-0.12 0.16,-0.12 0.27,-0.02 0.46,-0.12 0.46,-0.32 0,-0.15 -0.15,-0.37 -0.15,-0.38 l -3.06,-4.86 -0.68,5.27 c 0,0.16 0.23,0.29 0.69,0.29 0.14,0 0.25,0 0.25,0.2 0,0.09 -0.08,0.11 -0.14,0.11 -0.4,0 -0.83,-0.03 -1.24,-0.03 -0.18,0 -0.37,0.01 -0.55,0.01 -0.18,0 -0.37,0.02 -0.54,0.02 -0.07,0 -0.19,0 -0.19,-0.19 0,-0.12 0.09,-0.12 0.25,-0.12 0.56,0 0.57,-0.09 0.6,-0.33 l 0.79,-6.14 c 0.03,-0.2 0.07,-0.23 0.2,-0.23 0.16,0 0.2,0.05 0.28,0.18 z"
   id="path9428" />
<path
   style="fill:#000000;stroke-width:0"
   inkscape:connector-curvature="0"
   d="m 400.25,710.43 0,0 0,0.01 0,0 0,0 0,0.01 0,0 0,0 0,0.01 0,0 0,0.01 -0.01,0 0,0 0,0.01 0,0 0,0 -0.01,0.01 0,0 0,0 -0.01,0.01 0,0 0,0 -0.01,0.01 0,0 0,0 -0.01,0 0,0 -0.01,0.01 0,0 -0.01,0 0,0 0,0 -0.01,0 0,0 0,0 0,0 -0.01,0 c -0.04,0 -0.05,-0.01 -0.14,-0.1 l -0.34,-0.39 c -0.26,0.36 -0.7,0.49 -1.13,0.49 -0.98,0 -1.85,-0.79 -1.85,-1.59 0,-0.11 0.02,-0.39 0.23,-0.64 0.24,-0.28 0.49,-0.34 0.97,-0.45 0.14,-0.04 0.49,-0.12 0.59,-0.14 0.22,-0.06 0.65,-0.21 0.65,-0.73 0,-0.57 -0.59,-1.23 -1.39,-1.23 -0.61,0 -1.35,0.22 -1.35,0.99 0,0.07 0.02,0.22 0.04,0.35 0.01,0.02 0.01,0.03 0.01,0.04 0,0.09 -0.08,0.09 -0.11,0.09 -0.1,0 -0.11,-0.01 -0.13,-0.14 l -0.36,-1.39 c -0.01,-0.03 -0.02,-0.07 -0.02,-0.1 0,-0.05 0.03,-0.09 0.1,-0.09 0.04,0 0.05,0.01 0.14,0.1 0.07,0.08 0.26,0.31 0.33,0.39 0.37,-0.4 0.91,-0.49 1.33,-0.49 1.05,0 1.9,0.91 1.9,1.73 0,0.3 -0.12,0.58 -0.28,0.74 -0.24,0.25 -0.34,0.28 -1.24,0.49 -0.15,0.03 -0.38,0.09 -0.44,0.11 -0.18,0.06 -0.47,0.23 -0.47,0.63 0,0.55 0.62,1.11 1.35,1.11 0.75,0 1.11,-0.43 1.11,-1.09 0,-0.09 -0.03,-0.25 -0.03,-0.31 0,-0.1 0.09,-0.1 0.12,-0.1 0.11,0 0.11,0.04 0.14,0.16 z"
   id="path9430" />
</g>    <g
       style="font-style:normal;font-variant:normal;font-weight:normal;font-stretch:normal;letter-spacing:normal;word-spacing:normal;text-anchor:start;fill:none;stroke:#000000;stroke-linecap:butt;stroke-linejoin:miter;stroke-miterlimit:10.43299961;stroke-opacity:1;stroke-dasharray:none;stroke-dashoffset:0"
       ns0:preamble="/home/josh/Desktop/preamble (copy).txt"
       ns0:text="\\[\nR_S\n\\]"
       word-spacing="normal"
       letter-spacing="normal"
       font-size-adjust="none"
       font-stretch="normal"
       font-weight="normal"
       font-variant="normal"
       font-style="normal"
       stroke-miterlimit="10.433"
       xml:space="preserve"
       transform="matrix(1,0,0,-1,-196.82573,772.41559)"
       id="g9532">
<path
   id="path9534"
   d="m 393.79,710.51 0.1,0.02 0.09,0.03 0.1,0.02 0.1,0.03 0.09,0.04 0.1,0.03 0.1,0.04 0.09,0.04 0.1,0.04 0.09,0.05 0.09,0.05 0.09,0.05 0.09,0.05 0.08,0.06 0.09,0.05 0.08,0.06 0.08,0.07 0.07,0.06 0.07,0.07 0.07,0.07 0.06,0.07 0.06,0.07 0.06,0.08 0.05,0.08 0.04,0.08 0.04,0.08 0.04,0.08 0.02,0.09 0.03,0.09 0.01,0.09 0.01,0.09 0.01,0.09 c 0,0.86 -0.9,1.49 -2.21,1.49 h -2.84 c -0.2,0 -0.29,0 -0.29,-0.2 0,-0.11 0.09,-0.11 0.28,-0.11 0.02,0 0.21,0 0.38,-0.02 0.18,-0.02 0.27,-0.03 0.27,-0.16 0,-0.03 -0.01,-0.07 -0.04,-0.18 l -1.34,-5.35 c -0.09,-0.39 -0.12,-0.47 -0.9,-0.47 -0.18,0 -0.27,0 -0.27,-0.2 0,-0.11 0.12,-0.11 0.14,-0.11 0.28,0 0.97,0.04 1.25,0.04 0.28,0 0.99,-0.04 1.27,-0.04 0.08,0 0.2,0 0.2,0.2 0,0.11 -0.09,0.11 -0.28,0.11 -0.37,0 -0.65,0 -0.65,0.18 0,0.06 0.02,0.11 0.03,0.17 l 0.66,2.64 h 1.19 l -0.01,0.22 h -1.12 l 0.65,2.6 c 0.06,0.23 0.09,0.33 0.28,0.36 0.09,0.01 0.41,0.01 0.6,0.01 0.71,0 1.82,0 1.82,-0.98 0,-0.34 -0.16,-1.03 -0.55,-1.41 -0.26,-0.26 -0.79,-0.58 -1.68,-0.58 l 0.01,-0.22 c 0.9,0 1.08,-0.56 1.08,-0.91 0,-0.15 -0.08,-0.45 -0.14,-0.68 -0.07,-0.28 -0.16,-0.65 -0.16,-0.85 0,-1.07 1.2,-1.07 1.33,-1.07 0.85,0 1.2,1 1.2,1.14 0,0.12 -0.11,0.12 -0.12,0.12 -0.09,0 -0.11,-0.07 -0.13,-0.14 -0.25,-0.74 -0.68,-0.91 -0.91,-0.91 -0.33,0 -0.4,0.22 -0.4,0.61 0,0.31 0.06,0.82 0.1,1.14 0.02,0.14 0.04,0.33 0.04,0.46 0,0.77 -0.67,1.08 -0.94,1.18 z"
   inkscape:connector-curvature="0"
   style="fill:#000000;stroke-width:0" />
<path
   id="path9536"
   d="m 401.13,710.43 0,0 0,0.01 0,0 0,0 0,0.01 0,0 0,0 -0.01,0.01 0,0 0,0.01 0,0 0,0 0,0.01 -0.01,0 0,0 0,0.01 0,0 -0.01,0 0,0.01 0,0 -0.01,0 0,0.01 0,0 -0.01,0 0,0 -0.01,0 0,0.01 -0.01,0 0,0 0,0 -0.01,0 0,0 0,0 -0.01,0 0,0 0,0 c -0.04,0 -0.05,-0.01 -0.14,-0.1 l -0.34,-0.39 c -0.27,0.36 -0.71,0.49 -1.13,0.49 -0.98,0 -1.85,-0.79 -1.85,-1.59 0,-0.11 0.02,-0.39 0.23,-0.64 0.23,-0.28 0.49,-0.34 0.96,-0.45 0.14,-0.04 0.49,-0.12 0.6,-0.14 0.22,-0.06 0.64,-0.21 0.64,-0.73 0,-0.57 -0.59,-1.23 -1.38,-1.23 -0.61,0 -1.35,0.22 -1.35,0.99 0,0.07 0.01,0.22 0.04,0.35 0.01,0.02 0.01,0.03 0.01,0.04 0,0.09 -0.09,0.09 -0.12,0.09 -0.09,0 -0.1,-0.01 -0.13,-0.14 l -0.35,-1.39 c -0.01,-0.03 -0.02,-0.07 -0.02,-0.1 0,-0.05 0.02,-0.09 0.09,-0.09 0.05,0 0.05,0.01 0.14,0.1 0.08,0.08 0.26,0.31 0.34,0.39 0.37,-0.4 0.91,-0.49 1.33,-0.49 1.05,0 1.9,0.91 1.9,1.73 0,0.3 -0.13,0.58 -0.28,0.74 -0.24,0.25 -0.35,0.28 -1.25,0.49 -0.14,0.03 -0.37,0.09 -0.43,0.11 -0.18,0.06 -0.47,0.23 -0.47,0.63 0,0.55 0.62,1.11 1.34,1.11 0.75,0 1.12,-0.43 1.12,-1.09 0,-0.09 -0.03,-0.25 -0.03,-0.31 0,-0.1 0.08,-0.1 0.12,-0.1 0.1,0 0.11,0.04 0.14,0.16 z"
   inkscape:connector-curvature="0"
   style="fill:#000000;stroke-width:0" />
</g>    <g
       id="g9644"
       transform="matrix(1,0,0,-1,-139.56819,809.48762)"
       xml:space="preserve"
       stroke-miterlimit="10.433"
       font-style="normal"
       font-variant="normal"
       font-weight="normal"
       font-stretch="normal"
       font-size-adjust="none"
       letter-spacing="normal"
       word-spacing="normal"
       ns0:text="\\[\nR_L\n\\]"
       ns0:preamble="/home/josh/Desktop/preamble (copy).txt"
       style="font-style:normal;font-variant:normal;font-weight:normal;font-stretch:normal;letter-spacing:normal;word-spacing:normal;text-anchor:start;fill:none;stroke:#000000;stroke-linecap:butt;stroke-linejoin:miter;stroke-miterlimit:10.43299961;stroke-opacity:1;stroke-dasharray:none;stroke-dashoffset:0">
<path
   d="m 393.7,710.51 0.09,0.02 0.1,0.03 0.09,0.02 0.1,0.03 0.1,0.04 0.09,0.03 0.1,0.04 0.1,0.04 0.09,0.04 0.09,0.05 0.09,0.05 0.09,0.05 0.09,0.05 0.09,0.06 0.08,0.05 0.08,0.06 0.08,0.07 0.07,0.06 0.08,0.07 0.06,0.07 0.07,0.07 0.05,0.07 0.06,0.08 0.05,0.08 0.04,0.08 0.04,0.08 0.04,0.08 0.03,0.09 0.02,0.09 0.02,0.09 0.01,0.09 0,0.09 c 0,0.86 -0.9,1.49 -2.2,1.49 h -2.84 c -0.2,0 -0.29,0 -0.29,-0.2 0,-0.11 0.09,-0.11 0.28,-0.11 0.02,0 0.21,0 0.37,-0.02 0.18,-0.02 0.27,-0.03 0.27,-0.16 0,-0.03 0,-0.07 -0.03,-0.18 l -1.34,-5.35 c -0.1,-0.39 -0.12,-0.47 -0.91,-0.47 -0.18,0 -0.27,0 -0.27,-0.2 0,-0.11 0.12,-0.11 0.14,-0.11 0.28,0 0.98,0.04 1.26,0.04 0.28,0 0.99,-0.04 1.26,-0.04 0.08,0 0.2,0 0.2,0.2 0,0.11 -0.09,0.11 -0.28,0.11 -0.36,0 -0.64,0 -0.64,0.18 0,0.06 0.02,0.11 0.03,0.17 l 0.65,2.64 h 1.19 l -0.01,0.22 h -1.12 l 0.65,2.6 c 0.06,0.23 0.09,0.33 0.28,0.36 0.09,0.01 0.41,0.01 0.61,0.01 0.71,0 1.81,0 1.81,-0.98 0,-0.34 -0.16,-1.03 -0.54,-1.41 -0.26,-0.26 -0.79,-0.58 -1.69,-0.58 l 0.01,-0.22 c 0.91,0 1.09,-0.56 1.09,-0.91 0,-0.15 -0.08,-0.45 -0.14,-0.68 -0.07,-0.28 -0.16,-0.65 -0.16,-0.85 0,-1.07 1.19,-1.07 1.32,-1.07 0.85,0 1.2,1 1.2,1.14 0,0.12 -0.11,0.12 -0.12,0.12 -0.09,0 -0.11,-0.07 -0.13,-0.14 -0.25,-0.74 -0.68,-0.91 -0.91,-0.91 -0.32,0 -0.4,0.22 -0.4,0.61 0,0.31 0.06,0.82 0.11,1.14 0.01,0.14 0.04,0.33 0.04,0.46 0,0.77 -0.67,1.08 -0.94,1.18 z"
   id="path9646"
   inkscape:connector-curvature="0"
   style="fill:#000000;stroke-width:0" />
<path
   d="m 398.96,709.81 0,0.02 0.01,0.02 0,0.03 0.01,0.02 0.01,0.01 0,0.02 0.01,0.02 0.01,0.02 0,0.01 0.01,0.01 0.01,0.02 0.02,0.01 0.01,0.01 0.01,0.01 0.02,0.01 0.01,0.01 0.02,0.01 0.02,0.01 0.02,0.01 0.03,0 0.01,0.01 0.01,0 0.02,0 0.01,0.01 0.02,0 0.01,0 0.02,0 0.02,0.01 0.01,0 0.02,0 0.02,0 0.02,0 0.02,0 0.02,0 0.03,0.01 0.02,0 0.02,0 0.03,0 0.02,0 0.03,0 0.03,0 0.02,0 0.03,0 0.03,0 c 0.22,0 0.29,0 0.29,0.15 0,0.01 -0.01,0.1 -0.12,0.1 -0.16,0 -0.35,-0.01 -0.52,-0.02 -0.17,-0.01 -0.38,-0.01 -0.55,-0.01 -0.15,0 -0.34,0.01 -0.48,0.01 -0.15,0 -0.32,0.02 -0.46,0.02 -0.04,0 -0.14,0 -0.14,-0.15 0,-0.1 0.08,-0.1 0.22,-0.1 0.01,0 0.14,0 0.26,-0.01 0.15,-0.02 0.16,-0.03 0.16,-0.1 0,-0.01 0,-0.05 -0.02,-0.15 l -0.93,-3.7 c -0.06,-0.23 -0.08,-0.29 -0.61,-0.29 -0.12,0 -0.21,0 -0.21,-0.15 0,-0.1 0.08,-0.1 0.21,-0.1 h 3.5 c 0.17,0 0.18,0.01 0.24,0.14 0.07,0.19 0.59,1.54 0.59,1.59 0,0.02 -0.01,0.1 -0.12,0.1 -0.08,0 -0.1,-0.04 -0.14,-0.15 -0.26,-0.66 -0.57,-1.43 -1.84,-1.43 h -0.79 c -0.22,0 -0.22,0.01 -0.22,0.07 0,0.01 0,0.04 0.02,0.15 z"
   id="path9648"
   inkscape:connector-curvature="0"
   style="fill:#000000;stroke-width:0" />
</g>    <g
       style="font-style:normal;font-variant:normal;font-weight:normal;font-stretch:normal;letter-spacing:normal;word-spacing:normal;text-anchor:start;fill:none;stroke:#000000;stroke-linecap:butt;stroke-linejoin:miter;stroke-miterlimit:10.43299961;stroke-opacity:1;stroke-dasharray:none;stroke-dashoffset:0"
       ns0:preamble="/home/josh/Desktop/preamble (copy).txt"
       ns0:text="\\[\nV_{\\text{out}}\n\\]"
       word-spacing="normal"
       letter-spacing="normal"
       font-size-adjust="none"
       font-stretch="normal"
       font-weight="normal"
       font-variant="normal"
       font-style="normal"
       stroke-miterlimit="10.433"
       xml:space="preserve"
       transform="matrix(1,0,0,-1,-104.45982,810.67516)"
       id="g9749">
<path
   id="path9751"
   d="m 392.65,712.79 0.05,0.07 0.04,0.06 0.05,0.07 0.04,0.06 0.04,0.05 0.05,0.05 0.04,0.05 0.04,0.04 0.05,0.04 0.04,0.04 0.04,0.03 0.04,0.04 0.04,0.02 0.04,0.03 0.04,0.02 0.04,0.02 0.04,0.02 0.04,0.02 0.04,0.02 0.04,0.01 0.04,0.01 0.04,0.01 0.03,0.01 0.04,0.01 0.04,0 0.03,0.01 0.08,0 0.07,0.01 0.07,0 c 0.12,0.01 0.13,0.18 0.13,0.19 0,0.08 -0.05,0.12 -0.13,0.12 -0.26,0 -0.55,-0.03 -0.82,-0.03 -0.33,0 -0.67,0.03 -0.99,0.03 -0.06,0 -0.19,0 -0.19,-0.19 0,-0.11 0.09,-0.12 0.16,-0.12 0.27,-0.02 0.46,-0.12 0.46,-0.32 0,-0.15 -0.15,-0.37 -0.15,-0.38 l -3.06,-4.86 -0.68,5.27 c 0,0.16 0.23,0.29 0.69,0.29 0.14,0 0.25,0 0.25,0.2 0,0.09 -0.08,0.11 -0.14,0.11 -0.4,0 -0.83,-0.03 -1.24,-0.03 -0.17,0 -0.36,0.01 -0.54,0.01 -0.18,0 -0.37,0.02 -0.54,0.02 -0.07,0 -0.19,0 -0.19,-0.19 0,-0.12 0.09,-0.12 0.25,-0.12 0.56,0 0.57,-0.09 0.6,-0.33 l 0.78,-6.14 c 0.03,-0.2 0.07,-0.23 0.2,-0.23 0.16,0 0.2,0.05 0.28,0.18 z"
   inkscape:connector-curvature="0"
   style="fill:#000000;stroke-width:0" />
<path
   id="path9753"
   d="m 395.89,707.11 -0.01,0.08 0,0.08 -0.01,0.08 -0.02,0.08 -0.02,0.08 -0.02,0.07 -0.03,0.08 -0.03,0.07 -0.03,0.07 -0.04,0.07 -0.04,0.07 -0.04,0.07 -0.05,0.06 -0.05,0.06 -0.05,0.06 -0.06,0.06 -0.06,0.05 -0.06,0.05 -0.06,0.05 -0.07,0.05 -0.07,0.04 -0.07,0.04 -0.07,0.04 -0.08,0.03 -0.08,0.03 -0.08,0.03 -0.08,0.02 -0.08,0.02 -0.09,0.01 -0.08,0.01 -0.09,0.01 -0.09,0 v -0.19 c 0.41,0 0.7,-0.2 0.86,-0.41 0.19,-0.27 0.21,-0.62 0.21,-0.96 0,-0.33 -0.02,-0.7 -0.22,-0.98 -0.19,-0.27 -0.51,-0.41 -0.85,-0.41 h 0 c -0.26,0 -0.63,0.09 -0.86,0.43 -0.19,0.28 -0.21,0.64 -0.21,0.96 0,0.3 0,0.71 0.25,1.01 0.17,0.21 0.47,0.36 0.82,0.36 v 0.19 c -0.96,0 -1.71,-0.75 -1.71,-1.62 0,-0.86 0.77,-1.55 1.71,-1.55 0.94,0 1.71,0.69 1.71,1.55 z"
   inkscape:connector-curvature="0"
   style="fill:#000000;stroke-width:0" />
<path
   id="path9755"
   d="m 398.69,708.62 v -0.25 c 0.46,0 0.52,-0.05 0.52,-0.39 v -1.19 c 0,-0.61 -0.4,-1.03 -0.93,-1.03 -0.63,0 -0.66,0.29 -0.66,0.65 v 2.29 l -1.07,-0.08 v -0.25 c 0.52,0 0.52,-0.02 0.52,-0.64 v -1.04 c 0,-0.48 0,-1.13 1.16,-1.13 0.16,0 0.67,0 1,0.59 h 0.01 v -0.59 l 1.04,0.07 v 0.25 c -0.46,0 -0.52,0.05 -0.52,0.39 v 2.43 z"
   inkscape:connector-curvature="0"
   style="fill:#000000;stroke-width:0" />
<path
   id="path9757"
   d="m 401.97,708.38 h 1.09 v 0.25 h -1.09 v 1.28 h -0.23 c -0.01,-0.63 -0.29,-1.32 -0.96,-1.34 v -0.19 h 0.64 v -1.88 c 0,-0.78 0.59,-0.94 0.98,-0.94 0.46,0 0.79,0.4 0.79,0.95 v 0.38 h -0.24 v -0.38 c 0,-0.47 -0.22,-0.73 -0.5,-0.73 -0.48,0 -0.48,0.59 -0.48,0.71 z"
   inkscape:connector-curvature="0"
   style="fill:#000000;stroke-width:0" />
</g>    <rect
       style="fill:none;stroke:#0000ff;stroke-width:1.60000002;stroke-linecap:butt;stroke-linejoin:round;stroke-miterlimit:4;stroke-opacity:1;stroke-dasharray:6.40000009, 12.80000017;stroke-dashoffset:0"
       id="rect9807"
       width="84.423088"
       height="87.107094"
       x="129.33661"
       y="56.170681" />
    <rect
       style="fill:none;stroke:#0000ff;stroke-width:1.60000002;stroke-linecap:butt;stroke-linejoin:round;stroke-miterlimit:4;stroke-opacity:1;stroke-dasharray:6.40000012, 12.80000025;stroke-dashoffset:0"
       id="rect9807-1"
       width="69.29525"
       height="79.543167"
       x="234.49948"
       y="63.734589" />
    <g
       style="font-style:normal;font-variant:normal;font-weight:normal;font-stretch:normal;letter-spacing:normal;word-spacing:normal;text-anchor:start;fill:none;stroke:#000000;stroke-linecap:butt;stroke-linejoin:miter;stroke-miterlimit:10.43299961;stroke-opacity:1;stroke-dasharray:none;stroke-dashoffset:0"
       id="g9879"
       transform="matrix(1,0,0,-1,-184,768)"
       xml:space="preserve"
       stroke-miterlimit="10.433"
       font-style="normal"
       font-variant="normal"
       font-weight="normal"
       font-stretch="normal"
       font-size-adjust="none"
       letter-spacing="normal"
       word-spacing="normal"
       ns0:text="Output impedance\\\\\n(of sensor)"
       ns0:preamble="/home/josh/Desktop/preamble (copy).txt">
<path
   style="fill:#000000;stroke-width:0"
   inkscape:connector-curvature="0"
   d="m 230.62,710.5 -0.01,0.19 -0.01,0.18 -0.02,0.19 -0.03,0.18 -0.04,0.18 -0.04,0.17 -0.05,0.17 -0.06,0.16 -0.07,0.17 -0.08,0.15 -0.08,0.16 -0.08,0.14 -0.1,0.15 -0.1,0.13 -0.1,0.14 -0.11,0.12 -0.12,0.12 -0.12,0.12 -0.12,0.1 -0.13,0.1 -0.14,0.1 -0.14,0.09 -0.14,0.08 -0.15,0.07 -0.15,0.06 -0.15,0.06 -0.16,0.05 -0.16,0.04 -0.16,0.03 -0.16,0.02 -0.17,0.02 -0.17,0 v -0.25 c 0.87,0 2.29,-0.7 2.29,-3.25 0,-2.64 -1.36,-3.48 -2.28,-3.48 h 0 c -0.96,0 -2.29,0.88 -2.29,3.48 0,2.58 1.45,3.25 2.28,3.25 v 0.25 c -1.79,0 -3.31,-1.59 -3.31,-3.64 0,-2.04 1.53,-3.59 3.31,-3.59 1.81,0 3.32,1.58 3.32,3.59 z"
   id="path9881" />
<path
   style="fill:#000000;stroke-width:0"
   inkscape:connector-curvature="0"
   d="m 235.08,707.91 v -0.89 l 1.43,0.1 v 0.31 c -0.69,0 -0.77,0.07 -0.77,0.56 v 3.53 l -1.47,-0.11 v -0.3 c 0.7,0 0.78,-0.07 0.78,-0.56 v -1.77 c 0,-0.87 -0.48,-1.55 -1.21,-1.55 -0.83,0 -0.88,0.47 -0.88,0.99 v 3.3 l -1.46,-0.11 v -0.3 c 0.78,0 0.78,-0.03 0.78,-0.92 v -1.49 c 0,-0.78 0,-1.68 1.51,-1.68 0.56,0 1,0.27 1.29,0.89 z"
   id="path9883" />
<path
   style="fill:#000000;stroke-width:0"
   inkscape:connector-curvature="0"
   d="m 238.44,711.11 h 1.43 v 0.3 h -1.43 v 1.84 h -0.25 c -0.01,-0.82 -0.31,-1.89 -1.28,-1.92 v -0.22 h 0.84 v -2.75 c 0,-1.22 0.93,-1.34 1.29,-1.34 0.71,0 0.99,0.7 0.99,1.34 v 0.57 h -0.25 v -0.55 c 0,-0.74 -0.3,-1.12 -0.67,-1.12 -0.67,0 -0.67,0.91 -0.67,1.08 z"
   id="path9885" />
<path
   style="fill:#000000;stroke-width:0"
   inkscape:connector-curvature="0"
   d="m 242.3,710.87 v 0.65 l -1.43,-0.11 v -0.3 c 0.71,0 0.78,-0.06 0.78,-0.5 v -4.66 c 0,-0.45 -0.11,-0.45 -0.78,-0.45 v -0.31 c 0.34,0.01 0.86,0.03 1.12,0.03 0.27,0 0.77,-0.02 1.12,-0.03 v 0.31 c -0.66,0 -0.77,0 -0.77,0.45 v 1.67 0.09 l 0.14,0.13 c -0.14,0.21 -0.14,0.22 -0.14,0.42 h 0 v 2.22 c 0.28,0.51 0.77,0.8 1.28,0.8 0.73,0 1.34,-0.88 1.34,-2 0,-1.21 -0.7,-2.05 -1.44,-2.05 -0.4,0 -0.78,0.2 -1.04,0.61 l -0.14,-0.13 c 0.04,-0.16 0.46,-0.69 1.22,-0.69 1.19,0 2.22,0.97 2.22,2.26 0,1.26 -0.96,2.24 -2.08,2.24 -0.78,0 -1.2,-0.43 -1.4,-0.65 z"
   id="path9887" />
<path
   style="fill:#000000;stroke-width:0"
   inkscape:connector-curvature="0"
   d="m 250.02,707.91 v -0.89 l 1.44,0.1 v 0.31 c -0.7,0 -0.78,0.07 -0.78,0.56 v 3.53 l -1.46,-0.11 v -0.3 c 0.69,0 0.77,-0.07 0.77,-0.56 v -1.77 c 0,-0.87 -0.48,-1.55 -1.2,-1.55 -0.84,0 -0.88,0.47 -0.88,0.99 v 3.3 l -1.46,-0.11 v -0.3 c 0.77,0 0.77,-0.03 0.77,-0.92 v -1.49 c 0,-0.78 0,-1.68 1.52,-1.68 0.56,0 0.99,0.27 1.28,0.89 z"
   id="path9889" />
<path
   style="fill:#000000;stroke-width:0"
   inkscape:connector-curvature="0"
   d="m 253.39,711.11 h 1.42 v 0.3 h -1.42 v 1.84 h -0.25 c -0.01,-0.82 -0.31,-1.89 -1.29,-1.92 v -0.22 h 0.85 v -2.75 c 0,-1.22 0.92,-1.34 1.28,-1.34 0.71,0 0.99,0.7 0.99,1.34 v 0.57 h -0.25 v -0.55 c 0,-0.74 -0.3,-1.12 -0.67,-1.12 -0.66,0 -0.66,0.91 -0.66,1.08 z"
   id="path9891" />
<path
   style="fill:#000000;stroke-width:0"
   inkscape:connector-curvature="0"
   d="m 260.62,711.52 -1.4,-0.11 v -0.3 c 0.65,0 0.74,-0.06 0.74,-0.55 v -2.68 c 0,-0.45 -0.11,-0.45 -0.78,-0.45 v -0.31 c 0.32,0.02 0.86,0.04 1.1,0.04 0.35,0 0.7,-0.02 1.04,-0.04 v 0.31 c -0.66,0 -0.7,0.05 -0.7,0.44 z"
   id="path9893" />
<path
   style="fill:#000000;stroke-width:0"
   inkscape:connector-curvature="0"
   d="m 260.66,713.26 0,0.03 -0.01,0.02 0,0.03 0,0.03 -0.01,0.03 -0.01,0.02 -0.01,0.03 -0.01,0.02 -0.01,0.03 -0.01,0.02 -0.01,0.02 -0.02,0.02 -0.01,0.02 -0.02,0.02 -0.01,0.02 -0.02,0.02 -0.02,0.02 -0.02,0.01 -0.02,0.02 -0.02,0.01 -0.02,0.01 -0.02,0.01 -0.03,0.02 -0.02,0.01 -0.02,0 -0.03,0.01 -0.02,0.01 -0.03,0 -0.02,0.01 -0.03,0 -0.02,0 -0.03,0 c -0.31,0 -0.53,-0.26 -0.53,-0.52 0,-0.27 0.22,-0.53 0.53,-0.53 0.28,0 0.53,0.21 0.53,0.53 z"
   id="path9895" />
<path
   style="fill:#000000;stroke-width:0"
   inkscape:connector-curvature="0"
   d="m 262.72,710.55 v -2.67 c 0,-0.45 -0.11,-0.45 -0.78,-0.45 v -0.31 c 0.35,0.02 0.86,0.04 1.13,0.04 0.26,0 0.77,-0.02 1.11,-0.04 v 0.31 c -0.66,0 -0.78,0 -0.78,0.45 v 1.83 c 0,1.04 0.71,1.59 1.35,1.59 0.63,0 0.74,-0.53 0.74,-1.1 v -2.32 c 0,-0.45 -0.11,-0.45 -0.78,-0.45 v -0.31 c 0.35,0.02 0.86,0.04 1.13,0.04 0.26,0 0.77,-0.02 1.11,-0.04 v 0.31 c -0.66,0 -0.77,0 -0.77,0.45 v 1.83 c 0,1.04 0.7,1.59 1.34,1.59 0.63,0 0.74,-0.53 0.74,-1.1 v -2.32 c 0,-0.45 -0.11,-0.45 -0.78,-0.45 v -0.31 c 0.35,0.02 0.86,0.04 1.13,0.04 0.26,0 0.78,-0.02 1.12,-0.04 v 0.31 c -0.52,0 -0.77,0 -0.78,0.3 v 1.9 c 0,0.86 0,1.17 -0.31,1.53 -0.14,0.17 -0.47,0.36 -1.05,0.36 -0.84,0 -1.27,-0.59 -1.44,-0.97 -0.14,0.86 -0.88,0.97 -1.33,0.97 -0.73,0 -1.2,-0.42 -1.47,-1.04 v 1.04 l -1.41,-0.11 v -0.3 c 0.7,0 0.78,-0.07 0.78,-0.56 z"
   id="path9897" />
<path
   style="fill:#000000;stroke-width:0"
   inkscape:connector-curvature="0"
   d="m 271.64,710.87 v 0.65 l -1.44,-0.11 v -0.3 c 0.71,0 0.78,-0.06 0.78,-0.5 v -4.66 c 0,-0.45 -0.11,-0.45 -0.78,-0.45 v -0.31 c 0.34,0.01 0.86,0.03 1.12,0.03 0.27,0 0.78,-0.02 1.12,-0.03 v 0.31 c -0.66,0 -0.77,0 -0.77,0.45 v 1.67 0.09 l 0.14,0.13 c -0.14,0.21 -0.14,0.22 -0.14,0.42 h 0 v 2.22 c 0.29,0.51 0.77,0.8 1.28,0.8 0.73,0 1.34,-0.88 1.34,-2 0,-1.21 -0.7,-2.05 -1.44,-2.05 -0.4,0 -0.77,0.2 -1.04,0.61 l -0.14,-0.13 c 0.05,-0.16 0.47,-0.69 1.22,-0.69 1.19,0 2.23,0.97 2.23,2.26 0,1.26 -0.97,2.24 -2.09,2.24 -0.77,0 -1.19,-0.43 -1.39,-0.65 z"
   id="path9899" />
<path
   style="fill:#000000;stroke-width:0"
   inkscape:connector-curvature="0"
   d="m 276.84,709.42 0.01,0.21 c 0.06,1.49 0.9,1.73 1.24,1.73 1.03,0 1.13,-1.34 1.13,-1.73 h -2.37 l -0.01,-0.21 h 2.78 c 0.22,0 0.25,0 0.25,0.21 0,0.99 -0.54,1.95 -1.78,1.95 -1.16,0 -2.07,-1.02 -2.07,-2.26 0,-1.34 1.04,-2.3 2.19,-2.3 1.21,0 1.66,1.1 1.66,1.29 0,0.1 -0.08,0.12 -0.13,0.12 -0.09,0 -0.11,-0.06 -0.13,-0.14 -0.34,-1.03 -1.24,-1.03 -1.34,-1.03 -0.5,0 -0.9,0.3 -1.13,0.67 -0.3,0.48 -0.3,1.14 -0.3,1.49 z"
   id="path9901" />
<path
   style="fill:#000000;stroke-width:0"
   inkscape:connector-curvature="0"
   d="m 283.95,707.67 v -0.65 l 1.47,0.1 v 0.31 c -0.7,0 -0.78,0.07 -0.78,0.56 v 6.04 l -1.44,-0.11 v -0.31 c 0.7,0 0.78,-0.07 0.78,-0.55 v -2.15 c -0.29,0.36 -0.72,0.61 -1.25,0.61 l 0.04,-0.22 c 0.34,0 0.76,-0.14 1.07,-0.59 0.11,-0.17 0.11,-0.19 0.11,-0.37 h 0 v -2.04 c 0,-0.18 0,-0.2 -0.11,-0.37 -0.3,-0.48 -0.74,-0.7 -1.17,-0.7 -0.45,0 -0.81,0.26 -1.05,0.64 -0.26,0.41 -0.29,0.98 -0.29,1.39 0,0.36 0.02,0.96 0.31,1.41 0.21,0.31 0.59,0.63 1.13,0.63 l -0.04,0.22 c -1.18,0 -2.23,-0.97 -2.23,-2.25 0,-1.27 0.98,-2.25 2.12,-2.25 0.63,0 1.08,0.33 1.33,0.65 z"
   id="path9903" />
<path
   style="fill:#000000;stroke-width:0"
   inkscape:connector-curvature="0"
   d="m 289.02,707.88 0,-0.04 0.01,-0.03 0.01,-0.04 0,-0.04 0.01,-0.04 0.02,-0.03 0.01,-0.04 0.01,-0.03 0.02,-0.04 0.01,-0.03 0.02,-0.04 0.02,-0.03 0.02,-0.03 0.02,-0.04 0.02,-0.03 0.03,-0.03 0.02,-0.02 0.03,-0.03 0.03,-0.03 0.02,-0.02 0.03,-0.02 0.04,-0.03 0.03,-0.02 0.03,-0.01 0.04,-0.02 0.03,-0.01 0.04,-0.02 0.04,-0.01 0.04,0 0.04,-0.01 0.04,0 0.05,0 c 0.21,0 0.81,0.14 0.81,0.94 v 0.56 h -0.25 v -0.56 c 0,-0.58 -0.25,-0.64 -0.35,-0.64 -0.33,0 -0.37,0.45 -0.37,0.5 v 1.99 c 0,0.42 0,0.81 -0.36,1.18 -0.39,0.38 -0.89,0.54 -1.37,0.54 -0.81,0 -1.5,-0.46 -1.5,-1.12 0,-0.3 0.2,-0.47 0.45,-0.47 0.28,0 0.46,0.2 0.46,0.46 0,0.12 -0.05,0.45 -0.5,0.46 0.26,0.35 0.75,0.45 1.07,0.45 0.49,0 1.06,-0.38 1.06,-1.27 v -0.37 -0.21 -0.99 c 0,-0.95 -0.72,-1.29 -1.17,-1.29 -0.49,0 -0.89,0.35 -0.89,0.85 0,0.55 0.41,1.37 2.06,1.43 h 0 v 0.21 c -0.51,-0.03 -1.21,-0.06 -1.84,-0.36 -0.74,-0.33 -0.99,-0.85 -0.99,-1.29 0,-0.81 0.96,-1.05 1.59,-1.05 0.66,0 1.12,0.39 1.31,0.86 z"
   id="path9905" />
<path
   style="fill:#000000;stroke-width:0"
   inkscape:connector-curvature="0"
   d="m 291.78,710.55 v -2.67 c 0,-0.45 -0.11,-0.45 -0.78,-0.45 v -0.31 c 0.35,0.02 0.86,0.04 1.13,0.04 0.26,0 0.77,-0.02 1.11,-0.04 v 0.31 c -0.67,0 -0.78,0 -0.78,0.45 v 1.83 c 0,1.04 0.71,1.59 1.35,1.59 0.63,0 0.74,-0.53 0.74,-1.1 v -2.32 c 0,-0.45 -0.11,-0.45 -0.78,-0.45 v -0.31 c 0.35,0.02 0.86,0.04 1.13,0.04 0.26,0 0.77,-0.02 1.11,-0.04 v 0.31 c -0.52,0 -0.76,0 -0.77,0.3 v 1.9 c 0,0.86 0,1.17 -0.31,1.53 -0.14,0.17 -0.47,0.36 -1.05,0.36 -0.73,0 -1.2,-0.42 -1.48,-1.04 v 1.04 l -1.4,-0.11 v -0.3 c 0.7,0 0.78,-0.07 0.78,-0.56 z"
   id="path9907" />
<path
   style="fill:#000000;stroke-width:0"
   inkscape:connector-curvature="0"
   d="m 297.38,709.29 0,0.08 0,0.07 0.01,0.08 0,0.07 0.01,0.06 0,0.07 0.01,0.07 0.01,0.06 0.01,0.06 0.01,0.06 0.01,0.06 0.01,0.06 0.03,0.1 0.03,0.11 0.03,0.1 0.04,0.09 0.04,0.08 0.04,0.08 0.04,0.08 0.05,0.07 0.05,0.06 0.05,0.06 0.05,0.06 0.05,0.05 0.05,0.05 0.06,0.04 0.06,0.03 0.05,0.04 0.06,0.03 0.05,0.02 0.06,0.03 0.06,0.02 0.05,0.01 0.06,0.01 0.05,0.01 0.06,0.01 0.05,0 0.05,0.01 c 0.09,0 0.72,-0.01 1.06,-0.37 -0.4,-0.03 -0.46,-0.33 -0.46,-0.46 0,-0.26 0.18,-0.46 0.45,-0.46 0.26,0 0.46,0.17 0.46,0.47 0,0.68 -0.76,1.06 -1.52,1.06 -1.25,0 -2.17,-1.07 -2.17,-2.3 0,-1.28 0.99,-2.26 2.15,-2.26 1.33,0 1.65,1.19 1.65,1.29 0,0.1 -0.1,0.1 -0.13,0.1 -0.09,0 -0.11,-0.04 -0.13,-0.1 -0.29,-0.93 -0.93,-1.05 -1.3,-1.05 -0.53,0 -1.41,0.43 -1.41,2.03 z"
   id="path9909" />
<path
   style="fill:#000000;stroke-width:0"
   inkscape:connector-curvature="0"
   d="m 301.75,709.42 0.01,0.21 c 0.06,1.49 0.9,1.73 1.24,1.73 1.02,0 1.12,-1.34 1.12,-1.73 h -2.36 l -0.01,-0.21 h 2.78 c 0.22,0 0.25,0 0.25,0.21 0,0.99 -0.54,1.95 -1.78,1.95 -1.16,0 -2.08,-1.02 -2.08,-2.26 0,-1.34 1.05,-2.3 2.19,-2.3 1.22,0 1.67,1.1 1.67,1.29 0,0.1 -0.08,0.12 -0.13,0.12 -0.09,0 -0.11,-0.06 -0.13,-0.14 -0.35,-1.03 -1.25,-1.03 -1.35,-1.03 -0.49,0 -0.89,0.3 -1.12,0.67 -0.3,0.48 -0.3,1.14 -0.3,1.49 z"
   id="path9911" />
<path
   style="fill:#000000;stroke-width:0"
   inkscape:connector-curvature="0"
   d="m 226.73,692.78 0,0.01 0,0 0,0 0,0.01 0,0 0,0 0,0.01 0,0 0,0 -0.01,0.01 0,0 0,0.01 -0.01,0 0,0.01 0,0 -0.01,0.01 0,0.01 -0.01,0 0,0.01 -0.01,0 0,0.01 0,0 -0.01,0 0,0.01 -0.01,0 0,0.01 0,0 -0.01,0.01 0,0 -0.01,0.01 0,0.01 -0.01,0 -0.01,0.01 0,0 -0.01,0.01 0,0.01 -0.01,0 -0.01,0.01 -0.01,0.01 0,0 -0.01,0.01 -0.01,0.01 c -1.24,1.25 -1.56,3.14 -1.56,4.66 0,1.73 0.38,3.46 1.6,4.71 0.13,0.11 0.13,0.14 0.13,0.16 0,0.07 -0.04,0.1 -0.1,0.1 -0.1,0 -1,-0.67 -1.58,-1.94 -0.51,-1.09 -0.63,-2.2 -0.63,-3.03 0,-0.78 0.11,-1.98 0.66,-3.11 0.6,-1.22 1.45,-1.87 1.55,-1.87 0.06,0 0.1,0.03 0.1,0.1 z"
   id="path9913" />
<path
   style="fill:#000000;stroke-width:0"
   inkscape:connector-curvature="0"
   d="m 232,697.3 0,0.12 -0.01,0.12 -0.01,0.11 -0.02,0.12 -0.03,0.11 -0.03,0.11 -0.03,0.11 -0.04,0.1 -0.05,0.1 -0.05,0.1 -0.05,0.1 -0.06,0.1 -0.06,0.09 -0.06,0.09 -0.07,0.08 -0.08,0.08 -0.07,0.08 -0.08,0.07 -0.09,0.07 -0.08,0.07 -0.09,0.06 -0.1,0.06 -0.09,0.05 -0.1,0.04 -0.1,0.05 -0.1,0.03 -0.1,0.03 -0.11,0.03 -0.11,0.02 -0.11,0.02 -0.11,0.01 -0.11,0 -0.01,-0.22 c 0.44,0 0.87,-0.22 1.12,-0.65 0.26,-0.42 0.26,-1 0.26,-1.38 0,-0.36 0,-0.9 -0.21,-1.33 -0.22,-0.45 -0.66,-0.74 -1.16,-0.74 h 0 c -0.43,0 -0.87,0.21 -1.14,0.67 -0.25,0.43 -0.25,1.04 -0.25,1.4 0,0.39 0,0.92 0.24,1.36 0.27,0.46 0.74,0.67 1.14,0.67 l 0.01,0.22 c -1.25,0 -2.21,-1.09 -2.21,-2.33 0,-1.28 1.03,-2.24 2.2,-2.24 1.2,0 2.21,0.98 2.21,2.24 z"
   id="path9915" />
<path
   style="fill:#000000;stroke-width:0"
   inkscape:connector-curvature="0"
   d="m 234.03,699.46 v 1.15 c 0,0.88 0.48,1.36 0.92,1.36 0.03,0 0.18,0 0.33,-0.07 -0.12,-0.04 -0.3,-0.17 -0.3,-0.42 0,-0.23 0.16,-0.43 0.43,-0.43 0.29,0 0.44,0.2 0.44,0.44 0,0.37 -0.37,0.7 -0.9,0.7 -0.7,0 -1.55,-0.53 -1.55,-1.59 v -1.14 h -0.78 v -0.31 h 0.78 v -3.22 c 0,-0.45 -0.11,-0.45 -0.77,-0.45 v -0.31 c 0.38,0.01 0.85,0.03 1.13,0.03 0.4,0 0.87,0 1.27,-0.03 v 0.31 h -0.21 c -0.74,0 -0.76,0.11 -0.76,0.47 v 3.2 h 1.14 v 0.31 z"
   id="path9917" />
<path
   style="fill:#000000;stroke-width:0"
   inkscape:connector-curvature="0"
   d="m 240.72,697.1 0.03,0 0.02,-0.01 0.03,0 0.03,-0.01 0.03,-0.01 0.04,-0.01 0.04,-0.01 0.04,-0.01 0.04,-0.01 0.04,-0.01 0.04,-0.02 0.05,-0.02 0.04,-0.02 0.05,-0.02 0.04,-0.02 0.04,-0.02 0.05,-0.03 0.04,-0.03 0.04,-0.03 0.04,-0.03 0.04,-0.04 0.03,-0.03 0.04,-0.04 0.03,-0.05 0.03,-0.04 0.01,-0.02 0.01,-0.03 0.01,-0.02 0.02,-0.03 0.01,-0.02 0,-0.03 0.01,-0.03 0.01,-0.03 0.01,-0.03 0,-0.03 0,-0.03 0.01,-0.03 0,-0.03 0,-0.04 c 0,-0.5 -0.35,-0.9 -1.13,-0.9 -0.83,0 -1.19,0.57 -1.38,1.41 -0.03,0.13 -0.04,0.17 -0.14,0.17 -0.13,0 -0.13,-0.07 -0.13,-0.25 v -1.31 c 0,-0.17 0,-0.24 0.11,-0.24 0.05,0 0.06,0.01 0.25,0.2 0.02,0.02 0.02,0.04 0.2,0.23 0.44,-0.42 0.88,-0.43 1.09,-0.43 1.15,0 1.61,0.67 1.61,1.38 0,0.53 -0.3,0.83 -0.42,0.95 -0.33,0.32 -0.72,0.4 -1.14,0.48 -0.56,0.11 -1.22,0.24 -1.22,0.81 0,0.35 0.26,0.76 1.11,0.76 1.1,0 1.15,-0.9 1.17,-1.21 0.01,-0.08 0.1,-0.08 0.12,-0.08 0.13,0 0.13,0.05 0.13,0.24 v 1 c 0,0.17 0,0.24 -0.11,0.24 -0.05,0 -0.07,0 -0.2,-0.12 -0.03,-0.04 -0.13,-0.13 -0.17,-0.16 -0.38,0.28 -0.79,0.28 -0.94,0.28 -1.21,0 -1.59,-0.67 -1.59,-1.22 0,-0.35 0.16,-0.63 0.43,-0.85 0.32,-0.26 0.6,-0.32 1.31,-0.46 z"
   id="path9919" />
<path
   style="fill:#000000;stroke-width:0"
   inkscape:connector-curvature="0"
   d="m 243.69,697.47 0.01,0.21 c 0.06,1.48 0.89,1.73 1.23,1.73 1.03,0 1.13,-1.34 1.13,-1.73 h -2.36 l -0.01,-0.21 h 2.78 c 0.22,0 0.25,0 0.25,0.21 0,0.98 -0.54,1.95 -1.79,1.95 -1.16,0 -2.07,-1.03 -2.07,-2.27 0,-1.33 1.04,-2.3 2.19,-2.3 1.22,0 1.67,1.1 1.67,1.29 0,0.1 -0.08,0.12 -0.13,0.12 -0.09,0 -0.11,-0.06 -0.13,-0.14 -0.35,-1.02 -1.25,-1.02 -1.35,-1.02 -0.5,0 -0.9,0.3 -1.12,0.67 -0.3,0.47 -0.3,1.13 -0.3,1.49 z"
   id="path9921" />
<path
   style="fill:#000000;stroke-width:0"
   inkscape:connector-curvature="0"
   d="m 248.1,698.59 v -2.66 c 0,-0.45 -0.11,-0.45 -0.78,-0.45 v -0.31 c 0.35,0.01 0.86,0.03 1.13,0.03 0.26,0 0.78,-0.02 1.12,-0.03 v 0.31 c -0.67,0 -0.78,0 -0.78,0.45 v 1.83 c 0,1.03 0.71,1.59 1.35,1.59 0.62,0 0.73,-0.54 0.73,-1.11 v -2.31 c 0,-0.45 -0.11,-0.45 -0.77,-0.45 v -0.31 c 0.35,0.01 0.85,0.03 1.12,0.03 0.26,0 0.78,-0.02 1.12,-0.03 v 0.31 c -0.52,0 -0.77,0 -0.78,0.3 v 1.9 c 0,0.85 0,1.16 -0.31,1.52 -0.14,0.17 -0.47,0.37 -1.04,0.37 -0.73,0 -1.2,-0.43 -1.48,-1.05 v 1.05 l -1.41,-0.11 v -0.31 c 0.7,0 0.78,-0.07 0.78,-0.56 z"
   id="path9923" />
<path
   style="fill:#000000;stroke-width:0"
   inkscape:connector-curvature="0"
   d="m 254.62,697.1 0.02,0 0.02,-0.01 0.03,0 0.03,-0.01 0.04,-0.01 0.03,-0.01 0.04,-0.01 0.04,-0.01 0.04,-0.01 0.04,-0.01 0.05,-0.02 0.04,-0.02 0.04,-0.02 0.05,-0.02 0.04,-0.02 0.05,-0.02 0.04,-0.03 0.04,-0.03 0.04,-0.03 0.04,-0.03 0.04,-0.04 0.04,-0.03 0.03,-0.04 0.03,-0.05 0.03,-0.04 0.01,-0.02 0.02,-0.03 0.01,-0.02 0.01,-0.03 0.01,-0.02 0.01,-0.03 0,-0.03 0.01,-0.03 0.01,-0.03 0,-0.03 0.01,-0.03 0,-0.03 0,-0.03 0,-0.04 c 0,-0.5 -0.35,-0.9 -1.13,-0.9 -0.83,0 -1.19,0.57 -1.38,1.41 -0.03,0.13 -0.04,0.17 -0.14,0.17 -0.13,0 -0.13,-0.07 -0.13,-0.25 v -1.31 c 0,-0.17 0,-0.24 0.11,-0.24 0.05,0 0.06,0.01 0.25,0.2 0.02,0.02 0.02,0.04 0.2,0.23 0.44,-0.42 0.89,-0.43 1.09,-0.43 1.15,0 1.61,0.67 1.61,1.38 0,0.53 -0.3,0.83 -0.42,0.95 -0.33,0.32 -0.72,0.4 -1.14,0.48 -0.55,0.11 -1.22,0.24 -1.22,0.81 0,0.35 0.26,0.76 1.12,0.76 1.09,0 1.14,-0.9 1.16,-1.21 0.01,-0.08 0.1,-0.08 0.12,-0.08 0.13,0 0.13,0.05 0.13,0.24 v 1 c 0,0.17 0,0.24 -0.11,0.24 -0.05,0 -0.07,0 -0.2,-0.12 -0.03,-0.04 -0.13,-0.13 -0.17,-0.16 -0.38,0.28 -0.78,0.28 -0.93,0.28 -1.22,0 -1.6,-0.67 -1.6,-1.22 0,-0.35 0.16,-0.63 0.43,-0.85 0.32,-0.26 0.6,-0.32 1.32,-0.46 z"
   id="path9925" />
<path
   style="fill:#000000;stroke-width:0"
   inkscape:connector-curvature="0"
   d="m 261.17,697.3 -0.01,0.12 -0.01,0.12 -0.01,0.11 -0.02,0.12 -0.02,0.11 -0.03,0.11 -0.04,0.11 -0.04,0.1 -0.04,0.1 -0.05,0.1 -0.06,0.1 -0.05,0.1 -0.06,0.09 -0.07,0.09 -0.07,0.08 -0.07,0.08 -0.08,0.08 -0.08,0.07 -0.08,0.07 -0.09,0.07 -0.09,0.06 -0.09,0.06 -0.1,0.05 -0.09,0.04 -0.1,0.05 -0.11,0.03 -0.1,0.03 -0.11,0.03 -0.1,0.02 -0.11,0.02 -0.11,0.01 -0.12,0 -0.01,-0.22 c 0.44,0 0.87,-0.22 1.13,-0.65 0.26,-0.42 0.26,-1 0.26,-1.38 0,-0.36 0,-0.9 -0.22,-1.33 -0.22,-0.45 -0.66,-0.74 -1.16,-0.74 h 0 c -0.43,0 -0.86,0.21 -1.13,0.67 -0.25,0.43 -0.25,1.04 -0.25,1.4 0,0.39 0,0.92 0.24,1.36 0.27,0.46 0.73,0.67 1.13,0.67 l 0.01,0.22 c -1.24,0 -2.21,-1.09 -2.21,-2.33 0,-1.28 1.04,-2.24 2.2,-2.24 1.21,0 2.22,0.98 2.22,2.24 z"
   id="path9927" />
<path
   style="fill:#000000;stroke-width:0"
   inkscape:connector-curvature="0"
   d="m 263.12,698.47 v 1.1 l -1.39,-0.11 v -0.31 c 0.7,0 0.78,-0.07 0.78,-0.56 v -2.66 c 0,-0.45 -0.11,-0.45 -0.78,-0.45 v -0.31 c 0.39,0.01 0.86,0.03 1.14,0.03 0.4,0 0.86,0 1.26,-0.03 v 0.31 h -0.21 c -0.73,0 -0.75,0.11 -0.75,0.47 v 1.53 c 0,0.98 0.41,1.87 1.17,1.87 0.07,0 0.09,0 0.11,-0.01 -0.03,-0.01 -0.23,-0.13 -0.23,-0.39 0,-0.28 0.21,-0.43 0.43,-0.43 0.18,0 0.43,0.12 0.43,0.44 0,0.32 -0.31,0.61 -0.74,0.61 -0.73,0 -1.08,-0.67 -1.22,-1.1 z"
   id="path9929" />
<path
   style="fill:#000000;stroke-width:0"
   inkscape:connector-curvature="0"
   d="m 268.23,697.66 0,0.07 0,0.08 0,0.08 0,0.08 -0.01,0.17 -0.01,0.17 -0.02,0.19 -0.02,0.19 -0.03,0.19 -0.03,0.2 -0.04,0.2 -0.04,0.21 -0.06,0.21 -0.06,0.21 -0.07,0.22 -0.08,0.21 -0.04,0.11 -0.05,0.1 -0.04,0.11 -0.05,0.1 c -0.6,1.23 -1.46,1.87 -1.56,1.87 -0.06,0 -0.1,-0.04 -0.1,-0.1 0,-0.02 0,-0.05 0.19,-0.22 0.98,-0.99 1.55,-2.57 1.55,-4.65 0,-1.7 -0.37,-3.45 -1.61,-4.71 -0.13,-0.12 -0.13,-0.14 -0.13,-0.17 0,-0.06 0.04,-0.1 0.1,-0.1 0.1,0 1,0.68 1.59,1.94 0.51,1.1 0.62,2.2 0.62,3.04 z"
   id="path9931" />
</g>    <path
       transform="translate(111.0368,50.753)"
       inkscape:connector-curvature="0"
       id="path10010"
       d="M 4.1407728,13.621661 71.428331,17.41737"
       style="fill:none;stroke:#000000;stroke-width:1px;stroke-linecap:butt;stroke-linejoin:miter;stroke-opacity:1;marker-end:url(#Arrow2Send)" />
    <path
       sodipodi:nodetypes="cc"
       inkscape:connector-curvature="0"
       id="path10010-8"
       d="M 312.15939,118.59537 252.46325,109.6237"
       style="fill:none;stroke:#000000;stroke-width:1px;stroke-linecap:butt;stroke-linejoin:miter;stroke-opacity:1;marker-end:url(#Arrow2Send)" />
    <g
       style="font-style:normal;font-variant:normal;font-weight:normal;font-stretch:normal;letter-spacing:normal;word-spacing:normal;text-anchor:start;fill:none;stroke:#000000;stroke-linecap:butt;stroke-linejoin:miter;stroke-miterlimit:10.43299961;stroke-opacity:1;stroke-dasharray:none;stroke-dashoffset:0"
       ns0:preamble="/home/josh/Desktop/preamble (copy).txt"
       ns0:text="Input impedance\\\\\n(of converter)"
       word-spacing="normal"
       letter-spacing="normal"
       font-size-adjust="none"
       font-stretch="normal"
       font-weight="normal"
       font-variant="normal"
       font-style="normal"
       stroke-miterlimit="10.433"
       xml:space="preserve"
       transform="matrix(1,0,0,-1,91.496327,829.122)"
       id="g10584">
<path
   id="path10586"
   d="m 225.68,713.15 0,0.03 0,0.03 0,0.03 0,0.03 0,0.03 0,0.02 0.01,0.03 0,0.02 0.01,0.02 0.01,0.02 0.01,0.02 0.01,0.02 0.01,0.02 0.01,0.02 0.02,0.01 0.02,0.01 0.02,0.02 0.02,0.01 0.02,0.01 0.01,0 0.01,0.01 0.02,0 0.01,0.01 0.02,0 0.02,0 0.01,0.01 0.02,0 0.02,0.01 0.02,0 0.02,0 0.02,0 0.03,0.01 0.02,0 0.02,0 0.03,0 0.03,0.01 0.02,0 0.03,0 0.03,0 0.03,0 0.03,0 0.03,0 0.04,0 0.03,0 0.04,0 0.03,0 h 0.26 v 0.31 c -0.35,-0.03 -1.13,-0.03 -1.51,-0.03 -0.39,0 -1.18,0 -1.53,0.03 v -0.31 h 0.26 c 0.79,0 0.82,-0.1 0.82,-0.46 v -5.25 c 0,-0.36 -0.03,-0.47 -0.82,-0.47 h -0.26 v -0.31 c 0.35,0.04 1.14,0.04 1.52,0.04 0.39,0 1.17,0 1.52,-0.04 v 0.31 h -0.26 c -0.78,0 -0.81,0.11 -0.81,0.47 z"
   inkscape:connector-curvature="0"
   style="fill:#000000;stroke-width:0" />
<path
   id="path10588"
   d="m 228.13,710.55 v -2.67 c 0,-0.45 -0.11,-0.45 -0.78,-0.45 v -0.31 c 0.35,0.02 0.86,0.04 1.13,0.04 0.25,0 0.77,-0.02 1.11,-0.04 v 0.31 c -0.67,0 -0.78,0 -0.78,0.45 v 1.83 c 0,1.04 0.71,1.59 1.35,1.59 0.63,0 0.74,-0.53 0.74,-1.1 v -2.32 c 0,-0.45 -0.11,-0.45 -0.78,-0.45 v -0.31 c 0.35,0.02 0.86,0.04 1.13,0.04 0.26,0 0.77,-0.02 1.11,-0.04 v 0.31 c -0.52,0 -0.76,0 -0.77,0.3 v 1.9 c 0,0.86 0,1.17 -0.31,1.53 -0.14,0.17 -0.47,0.36 -1.05,0.36 -0.73,0 -1.2,-0.42 -1.48,-1.04 v 1.04 l -1.4,-0.11 v -0.3 c 0.7,0 0.78,-0.07 0.78,-0.56 z"
   inkscape:connector-curvature="0"
   style="fill:#000000;stroke-width:0" />
<path
   id="path10590"
   d="m 234.28,710.87 v 0.65 l -1.44,-0.11 v -0.3 c 0.71,0 0.78,-0.06 0.78,-0.5 v -4.66 c 0,-0.45 -0.11,-0.45 -0.78,-0.45 v -0.31 c 0.34,0.01 0.86,0.03 1.12,0.03 0.27,0 0.78,-0.02 1.13,-0.03 v 0.31 c -0.67,0 -0.78,0 -0.78,0.45 v 1.67 0.09 l 0.14,0.13 c -0.14,0.21 -0.14,0.22 -0.14,0.42 h 0 v 2.22 c 0.29,0.51 0.78,0.8 1.29,0.8 0.72,0 1.33,-0.88 1.33,-2 0,-1.21 -0.7,-2.05 -1.44,-2.05 -0.39,0 -0.77,0.2 -1.04,0.61 l -0.14,-0.13 c 0.05,-0.16 0.47,-0.69 1.23,-0.69 1.18,0 2.22,0.97 2.22,2.26 0,1.26 -0.97,2.24 -2.08,2.24 -0.78,0 -1.2,-0.43 -1.4,-0.65 z"
   inkscape:connector-curvature="0"
   style="fill:#000000;stroke-width:0" />
<path
   id="path10592"
   d="m 242,707.91 v -0.89 l 1.43,0.1 v 0.31 c -0.69,0 -0.78,0.07 -0.78,0.56 v 3.53 l -1.46,-0.11 v -0.3 c 0.7,0 0.78,-0.07 0.78,-0.56 v -1.77 c 0,-0.87 -0.48,-1.55 -1.21,-1.55 -0.84,0 -0.88,0.47 -0.88,0.99 v 3.3 l -1.46,-0.11 v -0.3 c 0.78,0 0.78,-0.03 0.78,-0.92 v -1.49 c 0,-0.78 0,-1.68 1.51,-1.68 0.56,0 1,0.27 1.29,0.89 z"
   inkscape:connector-curvature="0"
   style="fill:#000000;stroke-width:0" />
<path
   id="path10594"
   d="m 245.36,711.11 h 1.43 v 0.3 h -1.43 v 1.84 h -0.25 c -0.01,-0.82 -0.31,-1.89 -1.29,-1.92 v -0.22 h 0.85 v -2.75 c 0,-1.22 0.93,-1.34 1.29,-1.34 0.7,0 0.99,0.7 0.99,1.34 v 0.57 h -0.25 v -0.55 c 0,-0.74 -0.3,-1.12 -0.67,-1.12 -0.67,0 -0.67,0.91 -0.67,1.08 z"
   inkscape:connector-curvature="0"
   style="fill:#000000;stroke-width:0" />
<path
   id="path10596"
   d="m 252.59,711.52 -1.39,-0.11 v -0.3 c 0.64,0 0.73,-0.06 0.73,-0.55 v -2.68 c 0,-0.45 -0.11,-0.45 -0.77,-0.45 v -0.31 c 0.32,0.02 0.85,0.04 1.09,0.04 0.35,0 0.7,-0.02 1.04,-0.04 v 0.31 c -0.66,0 -0.7,0.05 -0.7,0.44 z"
   inkscape:connector-curvature="0"
   style="fill:#000000;stroke-width:0" />
<path
   id="path10598"
   d="m 252.63,713.26 0,0.03 0,0.02 -0.01,0.03 0,0.03 -0.01,0.03 0,0.02 -0.01,0.03 -0.01,0.02 -0.01,0.03 -0.02,0.02 -0.01,0.02 -0.01,0.02 -0.02,0.02 -0.01,0.02 -0.02,0.02 -0.02,0.02 -0.02,0.02 -0.02,0.01 -0.02,0.02 -0.02,0.01 -0.02,0.01 -0.02,0.01 -0.02,0.02 -0.03,0.01 -0.02,0 -0.02,0.01 -0.03,0.01 -0.02,0 -0.03,0.01 -0.03,0 -0.02,0 -0.03,0 c -0.31,0 -0.53,-0.26 -0.53,-0.52 0,-0.27 0.22,-0.53 0.53,-0.53 0.28,0 0.53,0.21 0.53,0.53 z"
   inkscape:connector-curvature="0"
   style="fill:#000000;stroke-width:0" />
<path
   id="path10600"
   d="m 254.69,710.55 v -2.67 c 0,-0.45 -0.11,-0.45 -0.78,-0.45 v -0.31 c 0.35,0.02 0.86,0.04 1.13,0.04 0.26,0 0.78,-0.02 1.12,-0.04 v 0.31 c -0.67,0 -0.78,0 -0.78,0.45 v 1.83 c 0,1.04 0.71,1.59 1.35,1.59 0.62,0 0.73,-0.53 0.73,-1.1 v -2.32 c 0,-0.45 -0.11,-0.45 -0.78,-0.45 v -0.31 c 0.35,0.02 0.86,0.04 1.13,0.04 0.26,0 0.78,-0.02 1.12,-0.04 v 0.31 c -0.67,0 -0.78,0 -0.78,0.45 v 1.83 c 0,1.04 0.71,1.59 1.35,1.59 0.62,0 0.73,-0.53 0.73,-1.1 v -2.32 c 0,-0.45 -0.11,-0.45 -0.77,-0.45 v -0.31 c 0.34,0.02 0.85,0.04 1.12,0.04 0.26,0 0.78,-0.02 1.12,-0.04 v 0.31 c -0.52,0 -0.77,0 -0.78,0.3 v 1.9 c 0,0.86 0,1.17 -0.31,1.53 -0.14,0.17 -0.47,0.36 -1.04,0.36 -0.84,0 -1.28,-0.59 -1.45,-0.97 -0.14,0.86 -0.88,0.97 -1.33,0.97 -0.72,0 -1.19,-0.42 -1.47,-1.04 v 1.04 l -1.41,-0.11 v -0.3 c 0.7,0 0.78,-0.07 0.78,-0.56 z"
   inkscape:connector-curvature="0"
   style="fill:#000000;stroke-width:0" />
<path
   id="path10602"
   d="m 263.61,710.87 v 0.65 l -1.43,-0.11 v -0.3 c 0.7,0 0.77,-0.06 0.77,-0.5 v -4.66 c 0,-0.45 -0.11,-0.45 -0.77,-0.45 v -0.31 c 0.34,0.01 0.85,0.03 1.11,0.03 0.27,0 0.78,-0.02 1.13,-0.03 v 0.31 c -0.67,0 -0.78,0 -0.78,0.45 v 1.67 0.09 l 0.14,0.13 c -0.14,0.21 -0.14,0.22 -0.14,0.42 h 0 v 2.22 c 0.29,0.51 0.78,0.8 1.29,0.8 0.72,0 1.33,-0.88 1.33,-2 0,-1.21 -0.69,-2.05 -1.43,-2.05 -0.4,0 -0.78,0.2 -1.05,0.61 l -0.14,-0.13 c 0.05,-0.16 0.47,-0.69 1.23,-0.69 1.18,0 2.22,0.97 2.22,2.26 0,1.26 -0.97,2.24 -2.08,2.24 -0.78,0 -1.2,-0.43 -1.4,-0.65 z"
   inkscape:connector-curvature="0"
   style="fill:#000000;stroke-width:0" />
<path
   id="path10604"
   d="m 268.82,709.42 0.01,0.21 c 0.06,1.49 0.89,1.73 1.23,1.73 1.03,0 1.13,-1.34 1.13,-1.73 h -2.36 l -0.01,-0.21 h 2.78 c 0.22,0 0.25,0 0.25,0.21 0,0.99 -0.54,1.95 -1.79,1.95 -1.15,0 -2.07,-1.02 -2.07,-2.26 0,-1.34 1.05,-2.3 2.19,-2.3 1.22,0 1.67,1.1 1.67,1.29 0,0.1 -0.08,0.12 -0.13,0.12 -0.09,0 -0.11,-0.06 -0.13,-0.14 -0.35,-1.03 -1.25,-1.03 -1.35,-1.03 -0.5,0 -0.89,0.3 -1.12,0.67 -0.3,0.48 -0.3,1.14 -0.3,1.49 z"
   inkscape:connector-curvature="0"
   style="fill:#000000;stroke-width:0" />
<path
   id="path10606"
   d="m 275.93,707.67 v -0.65 l 1.46,0.1 v 0.31 c -0.7,0 -0.78,0.07 -0.78,0.56 v 6.04 l -1.43,-0.11 v -0.31 c 0.7,0 0.78,-0.07 0.78,-0.55 v -2.15 c -0.29,0.36 -0.72,0.61 -1.26,0.61 l 0.04,-0.22 c 0.35,0 0.77,-0.14 1.08,-0.59 0.11,-0.17 0.11,-0.19 0.11,-0.37 h 0 v -2.04 c 0,-0.18 0,-0.2 -0.11,-0.37 -0.3,-0.48 -0.75,-0.7 -1.18,-0.7 -0.45,0 -0.81,0.26 -1.05,0.64 -0.26,0.41 -0.29,0.98 -0.29,1.39 0,0.36 0.02,0.96 0.31,1.41 0.21,0.31 0.59,0.63 1.13,0.63 l -0.04,0.22 c -1.18,0 -2.22,-0.97 -2.22,-2.25 0,-1.27 0.97,-2.25 2.11,-2.25 0.64,0 1.09,0.33 1.34,0.65 z"
   inkscape:connector-curvature="0"
   style="fill:#000000;stroke-width:0" />
<path
   id="path10608"
   d="m 280.99,707.88 0.01,-0.04 0,-0.03 0.01,-0.04 0.01,-0.04 0.01,-0.04 0.01,-0.03 0.01,-0.04 0.02,-0.03 0.01,-0.04 0.02,-0.03 0.01,-0.04 0.02,-0.03 0.02,-0.03 0.02,-0.04 0.03,-0.03 0.02,-0.03 0.03,-0.02 0.02,-0.03 0.03,-0.03 0.03,-0.02 0.03,-0.02 0.03,-0.03 0.03,-0.02 0.04,-0.01 0.03,-0.02 0.04,-0.01 0.04,-0.02 0.03,-0.01 0.04,0 0.04,-0.01 0.05,0 0.04,0 c 0.21,0 0.82,0.14 0.82,0.94 v 0.56 h -0.25 v -0.56 c 0,-0.58 -0.25,-0.64 -0.36,-0.64 -0.33,0 -0.37,0.45 -0.37,0.5 v 1.99 c 0,0.42 0,0.81 -0.36,1.18 -0.39,0.38 -0.89,0.54 -1.36,0.54 -0.82,0 -1.51,-0.46 -1.51,-1.12 0,-0.3 0.2,-0.47 0.46,-0.47 0.28,0 0.46,0.2 0.46,0.46 0,0.12 -0.05,0.45 -0.51,0.46 0.27,0.35 0.76,0.45 1.08,0.45 0.49,0 1.05,-0.38 1.05,-1.27 v -0.37 -0.21 -0.99 c 0,-0.95 -0.72,-1.29 -1.16,-1.29 -0.49,0 -0.9,0.35 -0.9,0.85 0,0.55 0.42,1.37 2.06,1.43 h 0 v 0.21 c -0.5,-0.03 -1.2,-0.06 -1.83,-0.36 -0.75,-0.33 -1,-0.85 -1,-1.29 0,-0.81 0.97,-1.05 1.6,-1.05 0.66,0 1.11,0.39 1.3,0.86 z"
   inkscape:connector-curvature="0"
   style="fill:#000000;stroke-width:0" />
<path
   id="path10610"
   d="m 283.75,710.55 v -2.67 c 0,-0.45 -0.11,-0.45 -0.78,-0.45 v -0.31 c 0.35,0.02 0.86,0.04 1.13,0.04 0.26,0 0.78,-0.02 1.12,-0.04 v 0.31 c -0.67,0 -0.78,0 -0.78,0.45 v 1.83 c 0,1.04 0.71,1.59 1.35,1.59 0.62,0 0.73,-0.53 0.73,-1.1 v -2.32 c 0,-0.45 -0.11,-0.45 -0.78,-0.45 v -0.31 c 0.35,0.02 0.86,0.04 1.13,0.04 0.26,0 0.78,-0.02 1.12,-0.04 v 0.31 c -0.52,0 -0.77,0 -0.78,0.3 v 1.9 c 0,0.86 0,1.17 -0.31,1.53 -0.14,0.17 -0.47,0.36 -1.05,0.36 -0.72,0 -1.19,-0.42 -1.47,-1.04 v 1.04 l -1.41,-0.11 v -0.3 c 0.7,0 0.78,-0.07 0.78,-0.56 z"
   inkscape:connector-curvature="0"
   style="fill:#000000;stroke-width:0" />
<path
   id="path10612"
   d="m 289.36,709.29 0,0.08 0,0.07 0,0.08 0.01,0.07 0,0.06 0.01,0.07 0,0.07 0.01,0.06 0.01,0.06 0.01,0.06 0.01,0.06 0.01,0.06 0.03,0.1 0.03,0.11 0.04,0.1 0.03,0.09 0.04,0.08 0.04,0.08 0.05,0.08 0.04,0.07 0.05,0.06 0.05,0.06 0.05,0.06 0.06,0.05 0.05,0.05 0.05,0.04 0.06,0.03 0.06,0.04 0.05,0.03 0.06,0.02 0.06,0.03 0.05,0.02 0.06,0.01 0.05,0.01 0.06,0.01 0.05,0.01 0.05,0 0.05,0.01 c 0.09,0 0.72,-0.01 1.07,-0.37 -0.41,-0.03 -0.47,-0.33 -0.47,-0.46 0,-0.26 0.18,-0.46 0.46,-0.46 0.26,0 0.46,0.17 0.46,0.47 0,0.68 -0.76,1.06 -1.53,1.06 -1.24,0 -2.16,-1.07 -2.16,-2.3 0,-1.28 0.99,-2.26 2.14,-2.26 1.34,0 1.66,1.19 1.66,1.29 0,0.1 -0.1,0.1 -0.13,0.1 -0.09,0 -0.11,-0.04 -0.13,-0.1 -0.29,-0.93 -0.94,-1.05 -1.31,-1.05 -0.53,0 -1.4,0.43 -1.4,2.03 z"
   inkscape:connector-curvature="0"
   style="fill:#000000;stroke-width:0" />
<path
   id="path10614"
   d="m 293.72,709.42 0.01,0.21 c 0.06,1.49 0.9,1.73 1.24,1.73 1.03,0 1.13,-1.34 1.13,-1.73 h -2.37 l -0.01,-0.21 h 2.79 c 0.21,0 0.24,0 0.24,0.21 0,0.99 -0.53,1.95 -1.78,1.95 -1.16,0 -2.07,-1.02 -2.07,-2.26 0,-1.34 1.04,-2.3 2.19,-2.3 1.21,0 1.66,1.1 1.66,1.29 0,0.1 -0.08,0.12 -0.13,0.12 -0.08,0 -0.1,-0.06 -0.13,-0.14 -0.34,-1.03 -1.24,-1.03 -1.34,-1.03 -0.5,0 -0.9,0.3 -1.13,0.67 -0.3,0.48 -0.3,1.14 -0.3,1.49 z"
   inkscape:connector-curvature="0"
   style="fill:#000000;stroke-width:0" />
<path
   id="path10616"
   d="m 226.73,692.78 0,0.01 0,0 0,0 0,0.01 0,0 0,0 0,0.01 0,0 0,0 -0.01,0.01 0,0 0,0.01 -0.01,0 0,0.01 0,0 -0.01,0.01 0,0.01 -0.01,0 0,0.01 -0.01,0 0,0.01 0,0 -0.01,0 0,0.01 -0.01,0 0,0.01 0,0 -0.01,0.01 0,0 -0.01,0.01 0,0.01 -0.01,0 -0.01,0.01 0,0 -0.01,0.01 0,0.01 -0.01,0 -0.01,0.01 -0.01,0.01 0,0 -0.01,0.01 -0.01,0.01 c -1.24,1.25 -1.56,3.14 -1.56,4.66 0,1.73 0.38,3.46 1.6,4.71 0.13,0.11 0.13,0.14 0.13,0.16 0,0.07 -0.04,0.1 -0.1,0.1 -0.1,0 -1,-0.67 -1.58,-1.94 -0.51,-1.09 -0.63,-2.2 -0.63,-3.03 0,-0.78 0.11,-1.98 0.66,-3.11 0.6,-1.22 1.45,-1.87 1.55,-1.87 0.06,0 0.1,0.03 0.1,0.1 z"
   inkscape:connector-curvature="0"
   style="fill:#000000;stroke-width:0" />
<path
   id="path10618"
   d="m 232,697.3 0,0.12 -0.01,0.12 -0.01,0.11 -0.02,0.12 -0.03,0.11 -0.03,0.11 -0.03,0.11 -0.04,0.1 -0.05,0.1 -0.05,0.1 -0.05,0.1 -0.06,0.1 -0.06,0.09 -0.06,0.09 -0.07,0.08 -0.08,0.08 -0.07,0.08 -0.08,0.07 -0.09,0.07 -0.08,0.07 -0.09,0.06 -0.1,0.06 -0.09,0.05 -0.1,0.04 -0.1,0.05 -0.1,0.03 -0.1,0.03 -0.11,0.03 -0.11,0.02 -0.11,0.02 -0.11,0.01 -0.11,0 -0.01,-0.22 c 0.44,0 0.87,-0.22 1.12,-0.65 0.26,-0.42 0.26,-1 0.26,-1.38 0,-0.36 0,-0.9 -0.21,-1.33 -0.22,-0.45 -0.66,-0.74 -1.16,-0.74 h 0 c -0.43,0 -0.87,0.21 -1.14,0.67 -0.25,0.43 -0.25,1.04 -0.25,1.4 0,0.39 0,0.92 0.24,1.36 0.27,0.46 0.74,0.67 1.14,0.67 l 0.01,0.22 c -1.25,0 -2.21,-1.09 -2.21,-2.33 0,-1.28 1.03,-2.24 2.2,-2.24 1.2,0 2.21,0.98 2.21,2.24 z"
   inkscape:connector-curvature="0"
   style="fill:#000000;stroke-width:0" />
<path
   id="path10620"
   d="m 234.03,699.46 v 1.15 c 0,0.88 0.48,1.36 0.92,1.36 0.03,0 0.18,0 0.33,-0.07 -0.12,-0.04 -0.3,-0.17 -0.3,-0.42 0,-0.23 0.16,-0.43 0.43,-0.43 0.29,0 0.44,0.2 0.44,0.44 0,0.37 -0.37,0.7 -0.9,0.7 -0.7,0 -1.55,-0.53 -1.55,-1.59 v -1.14 h -0.78 v -0.31 h 0.78 v -3.22 c 0,-0.45 -0.11,-0.45 -0.77,-0.45 v -0.31 c 0.38,0.01 0.85,0.03 1.13,0.03 0.4,0 0.87,0 1.27,-0.03 v 0.31 h -0.21 c -0.74,0 -0.76,0.11 -0.76,0.47 v 3.2 h 1.14 v 0.31 z"
   inkscape:connector-curvature="0"
   style="fill:#000000;stroke-width:0" />
<path
   id="path10622"
   d="m 239.82,697.34 0,0.08 0,0.07 0,0.07 0.01,0.07 0,0.07 0.01,0.07 0,0.06 0.01,0.06 0.01,0.07 0.01,0.06 0.01,0.05 0.01,0.06 0.03,0.11 0.03,0.1 0.04,0.1 0.03,0.09 0.04,0.09 0.04,0.08 0.05,0.07 0.04,0.07 0.05,0.07 0.05,0.06 0.05,0.05 0.06,0.05 0.05,0.05 0.05,0.04 0.06,0.04 0.06,0.03 0.05,0.03 0.06,0.03 0.06,0.02 0.05,0.02 0.06,0.02 0.05,0.01 0.06,0.01 0.05,0 0.05,0.01 0.05,0 c 0.09,0 0.72,-0.01 1.07,-0.37 -0.41,-0.03 -0.47,-0.33 -0.47,-0.46 0,-0.26 0.18,-0.45 0.46,-0.45 0.26,0 0.46,0.17 0.46,0.46 0,0.68 -0.76,1.07 -1.53,1.07 -1.24,0 -2.16,-1.08 -2.16,-2.31 0,-1.27 0.99,-2.26 2.14,-2.26 1.34,0 1.66,1.2 1.66,1.29 0,0.1 -0.1,0.1 -0.13,0.1 -0.09,0 -0.11,-0.04 -0.13,-0.1 -0.29,-0.92 -0.94,-1.04 -1.31,-1.04 -0.53,0 -1.4,0.43 -1.4,2.03 z"
   inkscape:connector-curvature="0"
   style="fill:#000000;stroke-width:0" />
<path
   id="path10624"
   d="m 247.77,697.3 0,0.12 -0.01,0.12 -0.01,0.11 -0.02,0.12 -0.03,0.11 -0.03,0.11 -0.03,0.11 -0.04,0.1 -0.05,0.1 -0.05,0.1 -0.05,0.1 -0.06,0.1 -0.06,0.09 -0.06,0.09 -0.07,0.08 -0.08,0.08 -0.07,0.08 -0.08,0.07 -0.09,0.07 -0.08,0.07 -0.09,0.06 -0.1,0.06 -0.09,0.05 -0.1,0.04 -0.1,0.05 -0.1,0.03 -0.1,0.03 -0.11,0.03 -0.11,0.02 -0.11,0.02 -0.11,0.01 -0.11,0 -0.01,-0.22 c 0.44,0 0.87,-0.22 1.13,-0.65 0.26,-0.42 0.26,-1 0.26,-1.38 0,-0.36 0,-0.9 -0.22,-1.33 -0.22,-0.45 -0.66,-0.74 -1.16,-0.74 h 0 c -0.43,0 -0.87,0.21 -1.14,0.67 -0.25,0.43 -0.25,1.04 -0.25,1.4 0,0.39 0,0.92 0.24,1.36 0.27,0.46 0.74,0.67 1.14,0.67 l 0.01,0.22 c -1.25,0 -2.21,-1.09 -2.21,-2.33 0,-1.28 1.03,-2.24 2.2,-2.24 1.2,0 2.21,0.98 2.21,2.24 z"
   inkscape:connector-curvature="0"
   style="fill:#000000;stroke-width:0" />
<path
   id="path10626"
   d="m 249.15,698.59 v -2.66 c 0,-0.45 -0.11,-0.45 -0.77,-0.45 v -0.31 c 0.35,0.01 0.86,0.03 1.12,0.03 0.26,0 0.78,-0.02 1.12,-0.03 v 0.31 c -0.67,0 -0.78,0 -0.78,0.45 v 1.83 c 0,1.03 0.71,1.59 1.35,1.59 0.63,0 0.74,-0.54 0.74,-1.11 v -2.31 c 0,-0.45 -0.11,-0.45 -0.78,-0.45 v -0.31 c 0.35,0.01 0.86,0.03 1.12,0.03 0.26,0 0.78,-0.02 1.12,-0.03 v 0.31 c -0.52,0 -0.77,0 -0.78,0.3 v 1.9 c 0,0.85 0,1.16 -0.31,1.52 -0.14,0.17 -0.46,0.37 -1.04,0.37 -0.73,0 -1.2,-0.43 -1.48,-1.05 v 1.05 l -1.4,-0.11 v -0.31 c 0.69,0 0.77,-0.07 0.77,-0.56 z"
   inkscape:connector-curvature="0"
   style="fill:#000000;stroke-width:0" />
<path
   id="path10628"
   d="m 257.47,698.48 0.01,0.03 0.01,0.02 0.01,0.02 0.01,0.03 0.01,0.02 0.01,0.03 0.02,0.03 0.01,0.02 0.02,0.03 0.01,0.03 0.02,0.03 0.02,0.02 0.02,0.03 0.02,0.03 0.02,0.02 0.03,0.03 0.02,0.02 0.03,0.03 0.03,0.02 0.03,0.03 0.04,0.02 0.03,0.02 0.04,0.02 0.04,0.01 0.04,0.02 0.05,0.02 0.04,0.01 0.05,0.01 0.06,0.01 0.02,0 0.03,0 0.03,0.01 0.03,0 0.03,0 0.03,0 v 0.31 c -0.23,-0.02 -0.52,-0.03 -0.75,-0.03 -0.24,0 -0.7,0.02 -0.87,0.03 v -0.31 c 0.37,-0.01 0.48,-0.24 0.48,-0.43 0,-0.09 -0.02,-0.13 -0.06,-0.24 l -1.01,-2.53 -1.12,2.77 c -0.06,0.13 -0.06,0.15 -0.06,0.17 0,0.26 0.39,0.26 0.57,0.26 v 0.31 c -0.3,-0.01 -0.86,-0.03 -1.09,-0.03 -0.27,0 -0.67,0.01 -0.97,0.03 v -0.31 c 0.63,0 0.67,-0.06 0.8,-0.37 l 1.44,-3.53 c 0.06,-0.14 0.08,-0.19 0.21,-0.19 0.13,0 0.17,0.09 0.21,0.19 z"
   inkscape:connector-curvature="0"
   style="fill:#000000;stroke-width:0" />
<path
   id="path10630"
   d="m 259.41,697.47 0.01,0.21 c 0.06,1.48 0.9,1.73 1.24,1.73 1.02,0 1.12,-1.34 1.12,-1.73 h -2.36 l -0.01,-0.21 h 2.78 c 0.22,0 0.25,0 0.25,0.21 0,0.98 -0.54,1.95 -1.78,1.95 -1.16,0 -2.08,-1.03 -2.08,-2.27 0,-1.33 1.05,-2.3 2.2,-2.3 1.21,0 1.66,1.1 1.66,1.29 0,0.1 -0.08,0.12 -0.13,0.12 -0.09,0 -0.11,-0.06 -0.13,-0.14 -0.35,-1.02 -1.24,-1.02 -1.34,-1.02 -0.5,0 -0.9,0.3 -1.13,0.67 -0.3,0.47 -0.3,1.13 -0.3,1.49 z"
   inkscape:connector-curvature="0"
   style="fill:#000000;stroke-width:0" />
<path
   id="path10632"
   d="m 264.4,698.47 v 1.1 l -1.39,-0.11 v -0.31 c 0.7,0 0.78,-0.07 0.78,-0.56 v -2.66 c 0,-0.45 -0.11,-0.45 -0.78,-0.45 v -0.31 c 0.39,0.01 0.86,0.03 1.14,0.03 0.4,0 0.86,0 1.26,-0.03 v 0.31 h -0.21 c -0.73,0 -0.75,0.11 -0.75,0.47 v 1.53 c 0,0.98 0.41,1.87 1.17,1.87 0.07,0 0.09,0 0.11,-0.01 -0.03,-0.01 -0.23,-0.13 -0.23,-0.39 0,-0.28 0.21,-0.43 0.43,-0.43 0.18,0 0.43,0.12 0.43,0.44 0,0.32 -0.31,0.61 -0.74,0.61 -0.73,0 -1.08,-0.67 -1.22,-1.1 z"
   inkscape:connector-curvature="0"
   style="fill:#000000;stroke-width:0" />
<path
   id="path10634"
   d="m 268.36,699.15 h 1.42 v 0.31 h -1.42 v 1.83 h -0.25 c -0.01,-0.82 -0.31,-1.88 -1.29,-1.92 v -0.22 h 0.85 v -2.75 c 0,-1.22 0.93,-1.34 1.29,-1.34 0.7,0 0.98,0.71 0.98,1.34 v 0.57 h -0.25 v -0.55 c 0,-0.73 -0.3,-1.11 -0.66,-1.11 -0.67,0 -0.67,0.91 -0.67,1.07 z"
   inkscape:connector-curvature="0"
   style="fill:#000000;stroke-width:0" />
<path
   id="path10636"
   d="m 271.61,697.47 0.01,0.21 c 0.06,1.48 0.9,1.73 1.24,1.73 1.03,0 1.13,-1.34 1.13,-1.73 h -2.37 l -0.01,-0.21 h 2.79 c 0.21,0 0.24,0 0.24,0.21 0,0.98 -0.53,1.95 -1.78,1.95 -1.16,0 -2.07,-1.03 -2.07,-2.27 0,-1.33 1.04,-2.3 2.19,-2.3 1.22,0 1.66,1.1 1.66,1.29 0,0.1 -0.07,0.12 -0.12,0.12 -0.09,0 -0.11,-0.06 -0.13,-0.14 -0.35,-1.02 -1.25,-1.02 -1.35,-1.02 -0.5,0 -0.9,0.3 -1.13,0.67 -0.3,0.47 -0.3,1.13 -0.3,1.49 z"
   inkscape:connector-curvature="0"
   style="fill:#000000;stroke-width:0" />
<path
   id="path10638"
   d="m 276.6,698.47 v 1.1 l -1.39,-0.11 v -0.31 c 0.7,0 0.78,-0.07 0.78,-0.56 v -2.66 c 0,-0.45 -0.11,-0.45 -0.78,-0.45 v -0.31 c 0.39,0.01 0.86,0.03 1.14,0.03 0.4,0 0.87,0 1.27,-0.03 v 0.31 h -0.21 c -0.74,0 -0.76,0.11 -0.76,0.47 v 1.53 c 0,0.98 0.42,1.87 1.18,1.87 0.07,0 0.09,0 0.11,-0.01 -0.03,-0.01 -0.23,-0.13 -0.23,-0.39 0,-0.28 0.21,-0.43 0.43,-0.43 0.18,0 0.42,0.12 0.42,0.44 0,0.32 -0.3,0.61 -0.73,0.61 -0.73,0 -1.09,-0.67 -1.23,-1.1 z"
   inkscape:connector-curvature="0"
   style="fill:#000000;stroke-width:0" />
<path
   id="path10640"
   d="m 281.72,697.66 0,0.07 0,0.08 0,0.08 -0.01,0.08 0,0.17 -0.02,0.17 -0.01,0.19 -0.02,0.19 -0.03,0.19 -0.03,0.2 -0.04,0.2 -0.05,0.21 -0.05,0.21 -0.06,0.21 -0.07,0.22 -0.08,0.21 -0.05,0.11 -0.04,0.1 -0.05,0.11 -0.05,0.1 c -0.6,1.23 -1.45,1.87 -1.55,1.87 -0.06,0 -0.1,-0.04 -0.1,-0.1 0,-0.02 0,-0.05 0.19,-0.22 0.97,-0.99 1.54,-2.57 1.54,-4.65 0,-1.7 -0.37,-3.45 -1.6,-4.71 -0.13,-0.12 -0.13,-0.14 -0.13,-0.17 0,-0.06 0.04,-0.1 0.1,-0.1 0.1,0 0.99,0.68 1.58,1.94 0.51,1.1 0.63,2.2 0.63,3.04 z"
   inkscape:connector-curvature="0"
   style="fill:#000000;stroke-width:0" />
</g>    <g
       id="g10960"
       transform="matrix(1,0,0,-1,-73.03602,862.78801)"
       xml:space="preserve"
       stroke-miterlimit="10.433"
       font-style="normal"
       font-variant="normal"
       font-weight="normal"
       font-stretch="normal"
       font-size-adjust="none"
       letter-spacing="normal"
       word-spacing="normal"
       ns0:text="Sensor"
       ns0:preamble="/home/josh/Desktop/preamble (copy).txt"
       style="font-style:normal;font-variant:normal;font-weight:normal;font-stretch:normal;letter-spacing:normal;word-spacing:normal;text-anchor:start;fill:none;stroke:#000000;stroke-linecap:butt;stroke-linejoin:miter;stroke-miterlimit:10.43299961;stroke-opacity:1;stroke-dasharray:none;stroke-dashoffset:0">
<path
   style="fill:#000000;stroke-width:0"
   inkscape:connector-curvature="0"
   d="m 226.91,710.99 -1.28,0.3 c -0.61,0.15 -1,0.69 -1,1.27 0,0.7 0.54,1.3 1.31,1.3 1.67,0 1.89,-1.63 1.95,-2.08 0.01,-0.06 0.01,-0.12 0.12,-0.12 0.13,0 0.13,0.05 0.13,0.24 v 2 c 0,0.17 0,0.24 -0.11,0.24 -0.07,0 -0.08,-0.01 -0.15,-0.13 l -0.35,-0.56 c -0.3,0.28 -0.71,0.69 -1.6,0.69 -1.1,0 -1.94,-0.87 -1.94,-1.93 0,-0.82 0.53,-1.55 1.31,-1.82 0.11,-0.04 0.61,-0.16 1.31,-0.33 0.27,-0.07 0.57,-0.14 0.85,-0.51 0.21,-0.26 0.31,-0.58 0.31,-0.91 0,-0.71 -0.5,-1.42 -1.34,-1.42 -0.29,0 -1.04,0.04 -1.57,0.53 -0.58,0.54 -0.61,1.18 -0.62,1.53 -0.01,0.1 -0.09,0.1 -0.12,0.1 -0.13,0 -0.13,-0.06 -0.13,-0.24 v -1.99 c 0,-0.17 0,-0.24 0.11,-0.24 0.07,0 0.08,0.02 0.15,0.12 0,0.01 0.03,0.05 0.36,0.57 0.31,-0.34 0.94,-0.69 1.83,-0.69 1.17,0 1.97,0.97 1.97,2.07 0,0.99 -0.66,1.81 -1.5,2.01 z"
   id="path10962" />
<path
   style="fill:#000000;stroke-width:0"
   inkscape:connector-curvature="0"
   d="m 230.07,709.42 0.01,0.21 c 0.06,1.49 0.9,1.73 1.24,1.73 1.03,0 1.13,-1.34 1.13,-1.73 h -2.37 l -0.01,-0.21 h 2.78 c 0.22,0 0.25,0 0.25,0.21 0,0.99 -0.53,1.95 -1.78,1.95 -1.16,0 -2.07,-1.02 -2.07,-2.26 0,-1.34 1.04,-2.3 2.19,-2.3 1.21,0 1.66,1.1 1.66,1.29 0,0.1 -0.08,0.12 -0.13,0.12 -0.09,0 -0.1,-0.06 -0.12,-0.14 -0.35,-1.03 -1.25,-1.03 -1.35,-1.03 -0.5,0 -0.9,0.3 -1.13,0.67 -0.3,0.48 -0.3,1.14 -0.3,1.49 z"
   id="path10964" />
<path
   style="fill:#000000;stroke-width:0"
   inkscape:connector-curvature="0"
   d="m 234.49,710.55 v -2.67 c 0,-0.45 -0.11,-0.45 -0.78,-0.45 v -0.31 c 0.35,0.02 0.86,0.04 1.13,0.04 0.26,0 0.78,-0.02 1.12,-0.04 v 0.31 c -0.67,0 -0.78,0 -0.78,0.45 v 1.83 c 0,1.04 0.71,1.59 1.34,1.59 0.63,0 0.74,-0.53 0.74,-1.1 v -2.32 c 0,-0.45 -0.11,-0.45 -0.77,-0.45 v -0.31 c 0.34,0.02 0.85,0.04 1.12,0.04 0.26,0 0.78,-0.02 1.12,-0.04 v 0.31 c -0.52,0 -0.77,0 -0.78,0.3 v 1.9 c 0,0.86 0,1.17 -0.31,1.53 -0.14,0.17 -0.47,0.36 -1.05,0.36 -0.72,0 -1.19,-0.42 -1.47,-1.04 v 1.04 l -1.41,-0.11 v -0.3 c 0.7,0 0.78,-0.07 0.78,-0.56 z"
   id="path10966" />
<path
   style="fill:#000000;stroke-width:0"
   inkscape:connector-curvature="0"
   d="m 241,709.06 0.03,-0.01 0.02,0 0.03,-0.01 0.03,-0.01 0.03,0 0.04,-0.01 0.04,-0.01 0.04,-0.01 0.04,-0.02 0.04,-0.01 0.04,-0.02 0.05,-0.01 0.04,-0.02 0.05,-0.02 0.04,-0.02 0.04,-0.03 0.05,-0.02 0.04,-0.03 0.04,-0.03 0.04,-0.04 0.04,-0.03 0.03,-0.04 0.04,-0.04 0.03,-0.04 0.03,-0.04 0.01,-0.03 0.01,-0.02 0.01,-0.03 0.02,-0.02 0.01,-0.03 0,-0.03 0.01,-0.02 0.01,-0.03 0.01,-0.03 0,-0.03 0,-0.03 0.01,-0.03 0,-0.04 0,-0.03 c 0,-0.51 -0.35,-0.91 -1.13,-0.91 -0.83,0 -1.19,0.57 -1.38,1.42 -0.03,0.13 -0.04,0.17 -0.14,0.17 -0.13,0 -0.13,-0.07 -0.13,-0.25 v -1.32 c 0,-0.16 0,-0.23 0.11,-0.23 0.05,0 0.06,0.01 0.25,0.2 0.02,0.01 0.02,0.03 0.2,0.22 0.44,-0.41 0.88,-0.42 1.09,-0.42 1.15,0 1.61,0.66 1.61,1.38 0,0.53 -0.3,0.82 -0.42,0.94 -0.33,0.32 -0.72,0.4 -1.14,0.48 -0.56,0.11 -1.22,0.24 -1.22,0.82 0,0.35 0.26,0.76 1.11,0.76 1.1,0 1.15,-0.9 1.17,-1.21 0.01,-0.09 0.1,-0.09 0.12,-0.09 0.13,0 0.13,0.05 0.13,0.24 v 1 c 0,0.17 0,0.24 -0.11,0.24 -0.05,0 -0.07,0 -0.2,-0.12 -0.03,-0.04 -0.13,-0.12 -0.17,-0.16 -0.38,0.28 -0.79,0.28 -0.94,0.28 -1.21,0 -1.59,-0.66 -1.59,-1.22 0,-0.35 0.16,-0.63 0.43,-0.85 0.32,-0.25 0.6,-0.31 1.31,-0.45 z"
   id="path10968" />
<path
   style="fill:#000000;stroke-width:0"
   inkscape:connector-curvature="0"
   d="m 247.55,709.26 0,0.11 -0.01,0.12 -0.01,0.12 -0.02,0.11 -0.03,0.11 -0.03,0.11 -0.03,0.11 -0.04,0.11 -0.05,0.1 -0.04,0.1 -0.06,0.1 -0.06,0.09 -0.06,0.09 -0.06,0.09 -0.07,0.09 -0.08,0.08 -0.07,0.07 -0.08,0.08 -0.09,0.07 -0.08,0.06 -0.09,0.06 -0.09,0.06 -0.1,0.05 -0.1,0.05 -0.1,0.04 -0.1,0.04 -0.1,0.03 -0.11,0.03 -0.11,0.02 -0.11,0.01 -0.11,0.01 -0.11,0 -0.01,-0.22 c 0.44,0 0.87,-0.21 1.13,-0.64 0.26,-0.43 0.26,-1.01 0.26,-1.39 0,-0.35 0,-0.89 -0.22,-1.33 -0.22,-0.45 -0.66,-0.74 -1.16,-0.74 h 0 c -0.43,0 -0.87,0.21 -1.14,0.67 -0.24,0.44 -0.24,1.05 -0.24,1.4 0,0.39 0,0.93 0.24,1.37 0.26,0.46 0.73,0.66 1.13,0.66 l 0.01,0.22 c -1.25,0 -2.21,-1.08 -2.21,-2.32 0,-1.29 1.04,-2.24 2.2,-2.24 1.21,0 2.21,0.97 2.21,2.24 z"
   id="path10970" />
<path
   style="fill:#000000;stroke-width:0"
   inkscape:connector-curvature="0"
   d="m 249.51,710.43 v 1.09 l -1.39,-0.11 v -0.3 c 0.7,0 0.78,-0.07 0.78,-0.56 v -2.67 c 0,-0.45 -0.11,-0.45 -0.78,-0.45 v -0.31 c 0.39,0.02 0.86,0.04 1.14,0.04 0.39,0 0.86,0 1.26,-0.04 v 0.31 h -0.21 c -0.74,0 -0.76,0.11 -0.76,0.47 v 1.53 c 0,0.99 0.42,1.87 1.18,1.87 0.07,0 0.09,0 0.11,-0.01 -0.03,-0.01 -0.23,-0.12 -0.23,-0.38 0,-0.28 0.21,-0.43 0.43,-0.43 0.18,0 0.43,0.12 0.43,0.44 0,0.31 -0.31,0.6 -0.74,0.6 -0.73,0 -1.08,-0.66 -1.22,-1.09 z"
   id="path10972" />
</g>    <g
       style="font-style:normal;font-variant:normal;font-weight:normal;font-stretch:normal;letter-spacing:normal;word-spacing:normal;text-anchor:start;fill:none;stroke:#000000;stroke-linecap:butt;stroke-linejoin:miter;stroke-miterlimit:10.43299961;stroke-opacity:1;stroke-dasharray:none;stroke-dashoffset:0"
       ns0:preamble="/home/josh/Desktop/preamble (copy).txt"
       ns0:text="Signal Converter"
       word-spacing="normal"
       letter-spacing="normal"
       font-size-adjust="none"
       font-stretch="normal"
       font-weight="normal"
       font-variant="normal"
       font-style="normal"
       stroke-miterlimit="10.433"
       xml:space="preserve"
       transform="matrix(1,0,0,-1,9.014145,862.73965)"
       id="g11246">
<path
   id="path11248"
   d="m 226.91,710.99 -1.28,0.3 c -0.61,0.15 -1,0.69 -1,1.27 0,0.7 0.54,1.3 1.31,1.3 1.67,0 1.89,-1.63 1.95,-2.08 0.01,-0.06 0.01,-0.12 0.12,-0.12 0.13,0 0.13,0.05 0.13,0.24 v 2 c 0,0.17 0,0.24 -0.11,0.24 -0.07,0 -0.08,-0.01 -0.15,-0.13 l -0.35,-0.56 c -0.3,0.28 -0.71,0.69 -1.6,0.69 -1.1,0 -1.94,-0.87 -1.94,-1.93 0,-0.82 0.53,-1.55 1.31,-1.82 0.11,-0.04 0.61,-0.16 1.31,-0.33 0.27,-0.07 0.57,-0.14 0.85,-0.51 0.21,-0.26 0.31,-0.58 0.31,-0.91 0,-0.71 -0.5,-1.42 -1.34,-1.42 -0.29,0 -1.04,0.04 -1.57,0.53 -0.58,0.54 -0.61,1.18 -0.62,1.53 -0.01,0.1 -0.09,0.1 -0.12,0.1 -0.13,0 -0.13,-0.06 -0.13,-0.24 v -1.99 c 0,-0.17 0,-0.24 0.11,-0.24 0.07,0 0.08,0.02 0.15,0.12 0,0.01 0.03,0.05 0.36,0.57 0.31,-0.34 0.94,-0.69 1.83,-0.69 1.17,0 1.97,0.97 1.97,2.07 0,0.99 -0.66,1.81 -1.5,2.01 z"
   inkscape:connector-curvature="0"
   style="fill:#000000;stroke-width:0" />
<path
   id="path11250"
   d="m 230.73,711.52 -1.39,-0.11 v -0.3 c 0.64,0 0.73,-0.06 0.73,-0.55 v -2.68 c 0,-0.45 -0.11,-0.45 -0.77,-0.45 v -0.31 c 0.32,0.02 0.85,0.04 1.09,0.04 0.35,0 0.7,-0.02 1.04,-0.04 v 0.31 c -0.66,0 -0.7,0.05 -0.7,0.44 z"
   inkscape:connector-curvature="0"
   style="fill:#000000;stroke-width:0" />
<path
   id="path11252"
   d="m 230.77,713.26 0,0.03 0,0.02 -0.01,0.03 0,0.03 -0.01,0.03 0,0.02 -0.01,0.03 -0.01,0.02 -0.01,0.03 -0.02,0.02 -0.01,0.02 -0.01,0.02 -0.02,0.02 -0.01,0.02 -0.02,0.02 -0.02,0.02 -0.02,0.02 -0.02,0.01 -0.02,0.02 -0.02,0.01 -0.02,0.01 -0.02,0.01 -0.02,0.02 -0.03,0.01 -0.02,0 -0.02,0.01 -0.03,0.01 -0.02,0 -0.03,0.01 -0.03,0 -0.02,0 -0.03,0 c -0.31,0 -0.53,-0.26 -0.53,-0.52 0,-0.27 0.22,-0.53 0.53,-0.53 0.28,0 0.53,0.21 0.53,0.53 z"
   inkscape:connector-curvature="0"
   style="fill:#000000;stroke-width:0" />
<path
   id="path11254"
   d="m 232.79,708.45 0,0 0,0.01 0,0 0,0.01 0,0.01 0,0.01 0,0.01 0,0.01 0,0.01 0.01,0.01 0,0.02 0,0.01 0,0.02 0.01,0.01 0,0.02 0,0.01 0.01,0.02 0,0.02 0.01,0.01 0,0.02 0.01,0.02 0.01,0.02 0,0.02 0.01,0.01 0.01,0.02 0.01,0.02 0.01,0.02 0.01,0.02 0.02,0.02 0.01,0.02 0.02,0.02 0.01,0.02 c 0.39,-0.28 0.8,-0.31 0.99,-0.31 v 0.23 c -0.87,0 -0.87,0.99 -0.87,1.22 0,0.27 0.01,0.59 0.16,0.84 0.08,0.12 0.31,0.39 0.71,0.39 0.87,0 0.87,-0.99 0.87,-1.22 0,-0.27 -0.02,-0.59 -0.16,-0.84 -0.08,-0.11 -0.31,-0.39 -0.71,-0.39 h 0 v -0.23 c 0.93,0 1.61,0.68 1.61,1.45 0,0.37 -0.16,0.74 -0.41,0.97 0.36,0.33 0.72,0.38 0.9,0.38 0.02,0 0.07,0 0.1,0 -0.11,-0.05 -0.16,-0.15 -0.16,-0.27 0,-0.17 0.13,-0.29 0.29,-0.29 0.1,0 0.29,0.07 0.29,0.3 0,0.17 -0.12,0.48 -0.51,0.48 -0.2,0 -0.64,-0.06 -1.06,-0.46 -0.41,0.32 -0.83,0.35 -1.05,0.35 -0.93,0 -1.62,-0.68 -1.62,-1.45 0,-0.44 0.22,-0.81 0.47,-1.02 -0.13,-0.15 -0.31,-0.48 -0.31,-0.83 0,-0.31 0.13,-0.69 0.44,-0.89 -0.6,-0.17 -0.92,-0.59 -0.92,-0.99 0,-0.72 0.99,-1.26 2.21,-1.26 l 0.01,0.22 c -1.01,0 -1.7,0.51 -1.7,1.04 0,0.46 0.38,0.82 0.82,0.86 h 0.59 c 0.85,0 1.97,0 1.97,-0.86 0,-0.54 -0.71,-1.04 -1.68,-1.04 h 0 l -0.01,-0.22 c 1.17,0 2.21,0.5 2.21,1.28 0,0.35 -0.14,0.86 -0.65,1.13 -0.53,0.28 -1.1,0.28 -1.71,0.28 -0.25,0 -0.68,0 -0.75,0.01 -0.32,0.04 -0.53,0.35 -0.53,0.67 z"
   inkscape:connector-curvature="0"
   style="fill:#000000;stroke-width:0" />
<path
   id="path11256"
   d="m 237.81,710.55 v -2.67 c 0,-0.45 -0.11,-0.45 -0.77,-0.45 v -0.31 c 0.34,0.02 0.85,0.04 1.12,0.04 0.26,0 0.78,-0.02 1.12,-0.04 v 0.31 c -0.67,0 -0.78,0 -0.78,0.45 v 1.83 c 0,1.04 0.71,1.59 1.35,1.59 0.62,0 0.73,-0.53 0.73,-1.1 v -2.32 c 0,-0.45 -0.11,-0.45 -0.77,-0.45 v -0.31 c 0.34,0.02 0.85,0.04 1.12,0.04 0.26,0 0.78,-0.02 1.12,-0.04 v 0.31 c -0.52,0 -0.77,0 -0.78,0.3 v 1.9 c 0,0.86 0,1.17 -0.31,1.53 -0.14,0.17 -0.47,0.36 -1.04,0.36 -0.73,0 -1.2,-0.42 -1.48,-1.04 v 1.04 l -1.4,-0.11 v -0.3 c 0.69,0 0.77,-0.07 0.77,-0.56 z"
   inkscape:connector-curvature="0"
   style="fill:#000000;stroke-width:0" />
<path
   id="path11258"
   d="m 245.57,707.88 0.01,-0.04 0,-0.03 0.01,-0.04 0.01,-0.04 0.01,-0.04 0.01,-0.03 0.01,-0.04 0.01,-0.03 0.02,-0.04 0.01,-0.03 0.02,-0.04 0.02,-0.03 0.02,-0.03 0.02,-0.04 0.03,-0.03 0.02,-0.03 0.02,-0.02 0.03,-0.03 0.03,-0.03 0.03,-0.02 0.03,-0.02 0.03,-0.03 0.03,-0.02 0.03,-0.01 0.04,-0.02 0.04,-0.01 0.03,-0.02 0.04,-0.01 0.04,0 0.04,-0.01 0.04,0 0.05,0 c 0.21,0 0.82,0.14 0.82,0.94 v 0.56 h -0.25 v -0.56 c 0,-0.58 -0.25,-0.64 -0.36,-0.64 -0.33,0 -0.37,0.45 -0.37,0.5 v 1.99 c 0,0.42 0,0.81 -0.36,1.18 -0.39,0.38 -0.89,0.54 -1.37,0.54 -0.81,0 -1.5,-0.46 -1.5,-1.12 0,-0.3 0.2,-0.47 0.46,-0.47 0.28,0 0.46,0.2 0.46,0.46 0,0.12 -0.05,0.45 -0.51,0.46 0.27,0.35 0.75,0.45 1.07,0.45 0.49,0 1.06,-0.38 1.06,-1.27 v -0.37 -0.21 -0.99 c 0,-0.95 -0.72,-1.29 -1.16,-1.29 -0.49,0 -0.9,0.35 -0.9,0.85 0,0.55 0.42,1.37 2.06,1.43 h 0 v 0.21 c -0.51,-0.03 -1.21,-0.06 -1.83,-0.36 -0.75,-0.33 -1,-0.85 -1,-1.29 0,-0.81 0.97,-1.05 1.59,-1.05 0.66,0 1.12,0.39 1.31,0.86 z"
   inkscape:connector-curvature="0"
   style="fill:#000000;stroke-width:0" />
<path
   id="path11260"
   d="m 249,714.03 -1.44,-0.11 v -0.31 c 0.7,0 0.78,-0.07 0.78,-0.55 v -5.18 c 0,-0.45 -0.11,-0.45 -0.78,-0.45 v -0.31 c 0.33,0.02 0.86,0.04 1.11,0.04 0.25,0 0.74,-0.02 1.1,-0.04 v 0.31 c -0.66,0 -0.77,0 -0.77,0.45 z"
   inkscape:connector-curvature="0"
   style="fill:#000000;stroke-width:0" />
<path
   id="path11262"
   d="m 253.88,710.53 0,-0.19 0.01,-0.19 0.03,-0.19 0.03,-0.18 0.04,-0.18 0.05,-0.17 0.05,-0.17 0.07,-0.17 0.07,-0.16 0.08,-0.15 0.08,-0.16 0.09,-0.14 0.1,-0.14 0.11,-0.14 0.11,-0.13 0.12,-0.13 0.12,-0.11 0.12,-0.12 0.14,-0.1 0.13,-0.1 0.14,-0.09 0.15,-0.09 0.15,-0.08 0.15,-0.07 0.16,-0.06 0.16,-0.06 0.16,-0.04 0.16,-0.04 0.17,-0.03 0.17,-0.03 0.17,-0.01 0.18,0 c 1.62,0 2.6,1.38 2.6,2.53 0,0.1 0,0.17 -0.13,0.17 -0.11,0 -0.11,-0.06 -0.12,-0.16 -0.08,-1.42 -1.15,-2.23 -2.24,-2.23 -0.6,0 -2.56,0.33 -2.56,3.3 0,2.97 1.95,3.31 2.55,3.31 1.09,0 1.98,-0.9 2.18,-2.36 0.02,-0.13 0.02,-0.17 0.16,-0.17 0.16,0 0.16,0.04 0.16,0.24 v 2.36 c 0,0.17 0,0.24 -0.11,0.24 -0.04,0 -0.08,0 -0.16,-0.12 l -0.5,-0.73 c -0.37,0.35 -0.88,0.85 -1.83,0.85 -1.87,0 -3.47,-1.58 -3.47,-3.61 z"
   inkscape:connector-curvature="0"
   style="fill:#000000;stroke-width:0" />
<path
   id="path11264"
   d="m 265.21,709.26 0,0.11 -0.01,0.12 -0.02,0.12 -0.02,0.11 -0.02,0.11 -0.03,0.11 -0.04,0.11 -0.04,0.11 -0.04,0.1 -0.05,0.1 -0.05,0.1 -0.06,0.09 -0.06,0.09 -0.07,0.09 -0.07,0.09 -0.07,0.08 -0.08,0.07 -0.08,0.08 -0.08,0.07 -0.09,0.06 -0.09,0.06 -0.09,0.06 -0.09,0.05 -0.1,0.05 -0.1,0.04 -0.1,0.04 -0.11,0.03 -0.1,0.03 -0.11,0.02 -0.11,0.01 -0.11,0.01 -0.11,0 -0.02,-0.22 c 0.44,0 0.87,-0.21 1.13,-0.64 0.26,-0.43 0.26,-1.01 0.26,-1.39 0,-0.35 0,-0.89 -0.22,-1.33 -0.22,-0.45 -0.66,-0.74 -1.15,-0.74 h 0 c -0.43,0 -0.87,0.21 -1.14,0.67 -0.25,0.44 -0.25,1.05 -0.25,1.4 0,0.39 0,0.93 0.24,1.37 0.27,0.46 0.74,0.66 1.13,0.66 l 0.02,0.22 c -1.25,0 -2.22,-1.08 -2.22,-2.32 0,-1.29 1.04,-2.24 2.2,-2.24 1.21,0 2.22,0.97 2.22,2.24 z"
   inkscape:connector-curvature="0"
   style="fill:#000000;stroke-width:0" />
<path
   id="path11266"
   d="m 266.59,710.55 v -2.67 c 0,-0.45 -0.11,-0.45 -0.78,-0.45 v -0.31 c 0.35,0.02 0.86,0.04 1.13,0.04 0.26,0 0.78,-0.02 1.12,-0.04 v 0.31 c -0.67,0 -0.78,0 -0.78,0.45 v 1.83 c 0,1.04 0.71,1.59 1.34,1.59 0.63,0 0.74,-0.53 0.74,-1.1 v -2.32 c 0,-0.45 -0.11,-0.45 -0.78,-0.45 v -0.31 c 0.35,0.02 0.86,0.04 1.13,0.04 0.26,0 0.78,-0.02 1.12,-0.04 v 0.31 c -0.52,0 -0.77,0 -0.78,0.3 v 1.9 c 0,0.86 0,1.17 -0.31,1.53 -0.14,0.17 -0.47,0.36 -1.05,0.36 -0.72,0 -1.19,-0.42 -1.47,-1.04 v 1.04 l -1.41,-0.11 v -0.3 c 0.7,0 0.78,-0.07 0.78,-0.56 z"
   inkscape:connector-curvature="0"
   style="fill:#000000;stroke-width:0" />
<path
   id="path11268"
   d="m 274.9,710.44 0.01,0.02 0,0.02 0.01,0.03 0.02,0.02 0.01,0.03 0.01,0.02 0.01,0.03 0.02,0.03 0.01,0.03 0.02,0.02 0.01,0.03 0.02,0.03 0.02,0.03 0.02,0.02 0.03,0.03 0.02,0.02 0.03,0.03 0.03,0.02 0.03,0.03 0.03,0.02 0.03,0.02 0.04,0.02 0.04,0.02 0.04,0.02 0.04,0.02 0.04,0.01 0.05,0.01 0.05,0.01 0.05,0.01 0.03,0.01 0.03,0 0.02,0 0.03,0 0.03,0.01 0.03,0 v 0.3 c -0.23,-0.01 -0.51,-0.02 -0.74,-0.02 -0.24,0 -0.7,0.02 -0.87,0.02 v -0.3 c 0.37,-0.01 0.48,-0.24 0.48,-0.43 0,-0.09 -0.02,-0.13 -0.06,-0.24 l -1.02,-2.54 -1.12,2.78 c -0.06,0.13 -0.06,0.15 -0.06,0.17 0,0.26 0.39,0.26 0.57,0.26 v 0.3 c -0.3,0 -0.85,-0.02 -1.08,-0.02 -0.27,0 -0.67,0.01 -0.97,0.02 v -0.3 c 0.63,0 0.67,-0.06 0.8,-0.37 l 1.43,-3.53 c 0.06,-0.14 0.08,-0.19 0.21,-0.19 0.13,0 0.17,0.08 0.21,0.19 z"
   inkscape:connector-curvature="0"
   style="fill:#000000;stroke-width:0" />
<path
   id="path11270"
   d="m 276.85,709.42 0.01,0.21 c 0.06,1.49 0.89,1.73 1.23,1.73 1.03,0 1.13,-1.34 1.13,-1.73 h -2.36 l -0.01,-0.21 h 2.78 c 0.22,0 0.25,0 0.25,0.21 0,0.99 -0.54,1.95 -1.79,1.95 -1.15,0 -2.07,-1.02 -2.07,-2.26 0,-1.34 1.05,-2.3 2.19,-2.3 1.22,0 1.67,1.1 1.67,1.29 0,0.1 -0.08,0.12 -0.13,0.12 -0.09,0 -0.11,-0.06 -0.13,-0.14 -0.35,-1.03 -1.25,-1.03 -1.35,-1.03 -0.5,0 -0.9,0.3 -1.13,0.67 -0.29,0.48 -0.29,1.14 -0.29,1.49 z"
   inkscape:connector-curvature="0"
   style="fill:#000000;stroke-width:0" />
<path
   id="path11272"
   d="m 281.83,710.43 v 1.09 l -1.38,-0.11 v -0.3 c 0.69,0 0.77,-0.07 0.77,-0.56 v -2.67 c 0,-0.45 -0.11,-0.45 -0.77,-0.45 v -0.31 c 0.38,0.02 0.85,0.04 1.13,0.04 0.4,0 0.87,0 1.27,-0.04 v 0.31 h -0.21 c -0.74,0 -0.76,0.11 -0.76,0.47 v 1.53 c 0,0.99 0.42,1.87 1.18,1.87 0.07,0 0.09,0 0.11,-0.01 -0.03,-0.01 -0.23,-0.12 -0.23,-0.38 0,-0.28 0.21,-0.43 0.43,-0.43 0.18,0 0.43,0.12 0.43,0.44 0,0.31 -0.31,0.6 -0.74,0.6 -0.73,0 -1.09,-0.66 -1.23,-1.09 z"
   inkscape:connector-curvature="0"
   style="fill:#000000;stroke-width:0" />
<path
   id="path11274"
   d="m 285.79,711.11 h 1.43 v 0.3 h -1.43 v 1.84 h -0.25 c 0,-0.82 -0.31,-1.89 -1.28,-1.92 v -0.22 h 0.85 v -2.75 c 0,-1.22 0.92,-1.34 1.28,-1.34 0.71,0 0.99,0.7 0.99,1.34 v 0.57 h -0.25 v -0.55 c 0,-0.74 -0.3,-1.12 -0.67,-1.12 -0.67,0 -0.67,0.91 -0.67,1.08 z"
   inkscape:connector-curvature="0"
   style="fill:#000000;stroke-width:0" />
<path
   id="path11276"
   d="m 289.05,709.42 0.01,0.21 c 0.06,1.49 0.9,1.73 1.24,1.73 1.02,0 1.12,-1.34 1.12,-1.73 h -2.36 l -0.01,-0.21 h 2.78 c 0.22,0 0.25,0 0.25,0.21 0,0.99 -0.54,1.95 -1.78,1.95 -1.16,0 -2.08,-1.02 -2.08,-2.26 0,-1.34 1.05,-2.3 2.2,-2.3 1.21,0 1.66,1.1 1.66,1.29 0,0.1 -0.08,0.12 -0.13,0.12 -0.09,0 -0.11,-0.06 -0.13,-0.14 -0.35,-1.03 -1.24,-1.03 -1.34,-1.03 -0.5,0 -0.9,0.3 -1.13,0.67 -0.3,0.48 -0.3,1.14 -0.3,1.49 z"
   inkscape:connector-curvature="0"
   style="fill:#000000;stroke-width:0" />
<path
   id="path11278"
   d="m 294.04,710.43 v 1.09 l -1.39,-0.11 v -0.3 c 0.7,0 0.78,-0.07 0.78,-0.56 v -2.67 c 0,-0.45 -0.11,-0.45 -0.78,-0.45 v -0.31 c 0.39,0.02 0.86,0.04 1.14,0.04 0.39,0 0.86,0 1.26,-0.04 v 0.31 h -0.21 c -0.73,0 -0.75,0.11 -0.75,0.47 v 1.53 c 0,0.99 0.41,1.87 1.17,1.87 0.07,0 0.09,0 0.11,-0.01 -0.03,-0.01 -0.23,-0.12 -0.23,-0.38 0,-0.28 0.21,-0.43 0.43,-0.43 0.18,0 0.43,0.12 0.43,0.44 0,0.31 -0.31,0.6 -0.74,0.6 -0.73,0 -1.09,-0.66 -1.22,-1.09 z"
   inkscape:connector-curvature="0"
   style="fill:#000000;stroke-width:0" />
</g>    <path
       style="fill:none;stroke:#ff0000;stroke-width:1px;stroke-linecap:butt;stroke-linejoin:miter;stroke-opacity:1;marker-end:url(#Arrow1Sendc)"
       d="m 190.76312,80.203661 10.12511,0"
       id="path11414"
       inkscape:connector-curvature="0" />
    <path
       style="fill:none;stroke:#ff0000;stroke-width:1px;stroke-linecap:butt;stroke-linejoin:miter;stroke-opacity:1;marker-end:url(#Arrow1Sendc)"
       d="m 237.47321,94.781688 0,10.125112"
       id="path11414-4"
       inkscape:connector-curvature="0" />
    <path
       style="fill:none;stroke:#ff0000;stroke-width:1px;stroke-linecap:butt;stroke-linejoin:miter;stroke-opacity:1;marker-end:url(#Arrow1Sendc)"
       d="m 200.42704,128.39193 -10.12511,0"
       id="path11414-0"
       inkscape:connector-curvature="0" />
    <g
       style="font-style:normal;font-variant:normal;font-weight:normal;font-stretch:normal;letter-spacing:normal;word-spacing:normal;text-anchor:start;fill:none;stroke:#000000;stroke-linecap:butt;stroke-linejoin:miter;stroke-miterlimit:10.43299961;stroke-opacity:1;stroke-dasharray:none;stroke-dashoffset:0"
       ns0:preamble="/home/josh/Desktop/preamble (copy).txt"
       ns0:text="\\[\ni\n\\]"
       word-spacing="normal"
       letter-spacing="normal"
       font-size-adjust="none"
       font-stretch="normal"
       font-weight="normal"
       font-variant="normal"
       font-style="normal"
       stroke-miterlimit="10.433"
       xml:space="preserve"
       transform="matrix(1,0,0,-1,-197.67408,797.64882)"
       id="g12131">
<path
   id="path12133"
   d="m 396.4,713.34 0,0.02 0,0.02 0,0.02 0,0.02 -0.01,0.01 0,0.02 -0.01,0.02 0,0.02 -0.01,0.01 -0.01,0.02 0,0.01 -0.01,0.02 -0.01,0.01 -0.01,0.01 -0.01,0.02 -0.02,0.01 -0.01,0.01 -0.01,0.01 -0.01,0.01 -0.02,0.01 -0.01,0.01 -0.02,0.01 -0.02,0.01 -0.01,0.01 -0.02,0 -0.02,0.01 -0.02,0 -0.01,0.01 -0.02,0 -0.02,0 -0.02,0 -0.03,0 c -0.26,0 -0.53,-0.25 -0.53,-0.52 0,-0.19 0.14,-0.36 0.38,-0.36 0.22,0 0.52,0.23 0.52,0.52 z"
   inkscape:connector-curvature="0"
   style="fill:#000000;stroke-width:0" />
<path
   id="path12135"
   d="m 395.64,709.6 0.02,0.03 0.01,0.02 0.01,0.03 0,0.02 0.01,0.02 0.01,0.02 0.01,0.02 0.01,0.02 0,0.01 0.01,0.02 0.01,0.02 0,0.01 0.01,0.02 0,0.01 0.01,0.03 0.01,0.03 0.01,0.03 0.01,0.01 0,0.02 0.01,0.01 0.01,0.02 0,0.01 0.01,0.02 0,0.02 0.01,0.02 0.01,0.02 0.01,0.02 0.01,0.03 0,0.02 c 0.08,0.2 0.13,0.34 0.13,0.53 0,0.45 -0.32,0.81 -0.81,0.81 -0.94,0 -1.32,-1.44 -1.32,-1.53 0,-0.1 0.1,-0.1 0.12,-0.1 0.1,0 0.11,0.02 0.16,0.18 0.27,0.94 0.67,1.23 1.01,1.23 0.08,0 0.25,0 0.25,-0.31 0,-0.21 -0.07,-0.42 -0.11,-0.52 -0.08,-0.26 -0.53,-1.41 -0.69,-1.84 -0.1,-0.26 -0.23,-0.59 -0.23,-0.8 0,-0.47 0.34,-0.81 0.82,-0.81 0.93,0 1.3,1.44 1.3,1.53 0,0.1 -0.09,0.1 -0.12,0.1 -0.1,0 -0.1,-0.03 -0.15,-0.18 -0.18,-0.63 -0.51,-1.24 -1.01,-1.24 -0.17,0 -0.24,0.1 -0.24,0.33 0,0.25 0.06,0.39 0.29,1 z"
   inkscape:connector-curvature="0"
   style="fill:#000000;stroke-width:0" />
</g>  </g>
</svg>
