<?xml version="1.0" encoding="UTF-8" standalone="no"?>
<svg
   xmlns:ns0="http://www.iki.fi/pav/software/textext/"
   xmlns:dc="http://purl.org/dc/elements/1.1/"
   xmlns:cc="http://creativecommons.org/ns#"
   xmlns:rdf="http://www.w3.org/1999/02/22-rdf-syntax-ns#"
   xmlns:svg="http://www.w3.org/2000/svg"
   xmlns="http://www.w3.org/2000/svg"
   xmlns:sodipodi="http://sodipodi.sourceforge.net/DTD/sodipodi-0.dtd"
   xmlns:inkscape="http://www.inkscape.org/namespaces/inkscape"
   width="134.63441"
   height="98.331818"
   version="1.1"
   id="svg4939"
   inkscape:version="0.48.2 r9819"
   sodipodi:docname="unity_gain_buffer.pdf">
  <sodipodi:namedview
     pagecolor="#ffffff"
     bordercolor="#666666"
     borderopacity="1"
     objecttolerance="10"
     gridtolerance="10"
     guidetolerance="10"
     inkscape:pageopacity="0"
     inkscape:pageshadow="2"
     inkscape:window-width="1366"
     inkscape:window-height="743"
     id="namedview4997"
     showgrid="false"
     inkscape:zoom="3.8558619"
     inkscape:cx="96.862834"
     inkscape:cy="21.824927"
     inkscape:window-x="0"
     inkscape:window-y="3"
     inkscape:window-maximized="1"
     inkscape:current-layer="svg4939"
     fit-margin-top="0"
     fit-margin-left="0"
     fit-margin-right="0"
     fit-margin-bottom="0" />
  <metadata
     id="metadata4999">
    <rdf:RDF>
      <cc:Work
         rdf:about="">
        <dc:format>image/svg+xml</dc:format>
        <dc:type
           rdf:resource="http://purl.org/dc/dcmitype/StillImage" />
        <dc:title></dc:title>
      </cc:Work>
    </rdf:RDF>
  </metadata>
  <defs
     id="defs4941" />
  <ellipse
     style="fill:#ffffff;stroke:#000000;stroke-width:6.2577076;stroke-miterlimit:9.77777767;stroke-dasharray:none"
     transform="matrix(0.25595189,0,0,0.25541778,11.629566,0.70549514)"
     sodipodi:ry="45.259998"
     sodipodi:rx="45.259998"
     sodipodi:cy="243.28999"
     sodipodi:cx="45.32"
     cx="45.32"
     cy="243.28999"
     rx="45.259998"
     ry="45.259998"
     id="ellipse4943" />
  <path
     style="fill:none;stroke:#000000;stroke-width:1.60000002;stroke-miterlimit:9.77777767;stroke-dasharray:none"
     inkscape:connector-curvature="0"
     d="m 17.437118,62.846084 c 0.447916,-1.208125 1.604815,-2.010137 2.894812,-2.010137 1.292561,0 2.446902,0.802012 2.897376,2.010137 0.450475,1.208126 1.604823,2.010137 2.897377,2.010137 1.289997,0 2.446903,-0.802011 2.894812,-2.010137"
     stroke-miterlimit="10"
     id="path4945" />
  <path
     style="fill:none;stroke:#000000;stroke-width:1.60000002;stroke-miterlimit:9.77777767;stroke-dasharray:none"
     inkscape:connector-curvature="0"
     d="m 13.574801,85.969052 19.309011,0"
     shape-rendering="crispEdges"
     stroke-miterlimit="10"
     id="path4947" />
  <path
     style="fill:none;stroke:#000000;stroke-width:1.60000002;stroke-miterlimit:9.77777767;stroke-dasharray:none"
     inkscape:connector-curvature="0"
     d="m 15.120748,87.897456 16.219675,0"
     shape-rendering="crispEdges"
     stroke-miterlimit="10"
     id="path4949" />
  <path
     style="fill:none;stroke:#000000;stroke-width:1.60000002;stroke-miterlimit:9.77777767;stroke-dasharray:none"
     inkscape:connector-curvature="0"
     d="m 16.664144,89.823312 13.130331,0"
     shape-rendering="crispEdges"
     stroke-miterlimit="10"
     id="path4951" />
  <path
     style="fill:none;stroke:#000000;stroke-width:1.60000002;stroke-miterlimit:9.77777767;stroke-dasharray:none"
     inkscape:connector-curvature="0"
     d="m 19.948004,93.677564 6.565163,0"
     shape-rendering="crispEdges"
     stroke-miterlimit="10"
     id="path4953" />
  <path
     style="fill:none;stroke:#000000;stroke-width:1.60000002;stroke-miterlimit:9.77777767;stroke-dasharray:none"
     inkscape:connector-curvature="0"
     d="m 21.491393,95.603412 3.475826,0"
     shape-rendering="crispEdges"
     stroke-miterlimit="10"
     id="path4955" />
  <path
     style="fill:none;stroke:#000000;stroke-width:1.60000002;stroke-miterlimit:9.77777767;stroke-dasharray:none"
     inkscape:connector-curvature="0"
     d="m 23.229306,82.1148 0,3.854252"
     shape-rendering="crispEdges"
     stroke-miterlimit="10"
     id="path4957" />
  <path
     style="fill:none;stroke:#000000;stroke-width:1.60000002;stroke-miterlimit:9.77777767;stroke-dasharray:none"
     inkscape:connector-curvature="0"
     d="m 18.402057,91.74916 9.654505,0"
     shape-rendering="crispEdges"
     stroke-miterlimit="10"
     id="path4959" />
  <path
     style="fill:none;stroke:#000000;stroke-width:1.60000002;stroke-miterlimit:9.77777767;stroke-dasharray:none"
     inkscape:connector-curvature="0"
     d="m 23.037341,97.531816 0.383931,0"
     shape-rendering="crispEdges"
     stroke-miterlimit="10"
     id="path4961" />
  <path
     style="fill:none;stroke:#000000;stroke-width:1.60000002;stroke-miterlimit:9.77777767;stroke-dasharray:none"
     inkscape:connector-curvature="0"
     d="m 81.156338,31.631478 35.871662,0 c 2.5544,0 2.5544,0 2.5544,2.54907 l 0,12.479713"
     stroke-miterlimit="10"
     id="path4963" />
  <path
     style="fill:none;stroke:#000000;stroke-width:1.60000002;stroke-miterlimit:9.77777767;stroke-dasharray:none"
     inkscape:connector-curvature="0"
     d="m 42.538317,23.922971 7.724633,0"
     shape-rendering="crispEdges"
     stroke-miterlimit="10"
     id="path4965" />
  <path
     style="fill:none;stroke:#000000;stroke-width:1.60000002;stroke-miterlimit:9.77777767;stroke-dasharray:none"
     inkscape:connector-curvature="0"
     d="m 42.538317,39.337433 7.724633,0"
     shape-rendering="crispEdges"
     stroke-miterlimit="10"
     id="path4967" />
  <path
     style="fill:none;stroke:#000000;stroke-width:1.60000002;stroke-miterlimit:9.77777767;stroke-dasharray:none"
     inkscape:connector-curvature="0"
     d="m 73.43427,31.631478 7.722068,0"
     shape-rendering="crispEdges"
     stroke-miterlimit="10"
     id="path4969" />
  <path
     style="fill:#ffffff;stroke:#000000;stroke-width:1.60000002;stroke-miterlimit:9.77777767;stroke-dasharray:none"
     inkscape:connector-curvature="0"
     d="M 50.26295,20.068717 73.43427,31.631478 50.26295,43.191687 z"
     stroke-miterlimit="10"
     id="path4971" />
  <path
     style="fill:none;stroke:#000000;stroke-width:1.60000002;stroke-miterlimit:9.77777767;stroke-dasharray:none"
     inkscape:connector-curvature="0"
     d="m 23.229306,82.1148 0,-1.925848 c 0,-1.925849 0,-1.925849 0,-1.925849 l 0,0 0,-3.854259"
     stroke-miterlimit="10"
     id="path4973" />
  <path
     style="fill:none;stroke:#000000;stroke-width:1.60000002;stroke-miterlimit:9.77777767;stroke-dasharray:none"
     inkscape:connector-curvature="0"
     d="m 23.229306,51.285877 0,-9.396821 c 0,-2.551623 0,-2.551623 2.554401,-2.551623 l 16.75461,0"
     stroke-miterlimit="10"
     id="path4975" />
  <path
     style="fill:none;stroke:#000000;stroke-width:1.60000002;stroke-miterlimit:9.77777767;stroke-dasharray:none"
     inkscape:connector-curvature="0"
     d="m 109.9279,50.514514 19.30901,0"
     shape-rendering="crispEdges"
     stroke-miterlimit="10"
     id="path4977" />
  <path
     style="fill:none;stroke:#000000;stroke-width:1.60000002;stroke-miterlimit:9.77777767;stroke-dasharray:none"
     inkscape:connector-curvature="0"
     d="m 111.47385,52.440365 16.21967,0"
     shape-rendering="crispEdges"
     stroke-miterlimit="10"
     id="path4979" />
  <path
     style="fill:none;stroke:#000000;stroke-width:1.60000002;stroke-miterlimit:9.77777767;stroke-dasharray:none"
     inkscape:connector-curvature="0"
     d="m 113.01723,54.368769 13.13033,0"
     shape-rendering="crispEdges"
     stroke-miterlimit="10"
     id="path4981" />
  <path
     style="fill:none;stroke:#000000;stroke-width:1.60000002;stroke-miterlimit:9.77777767;stroke-dasharray:none"
     inkscape:connector-curvature="0"
     d="m 116.3011,58.223023 6.56516,0"
     shape-rendering="crispEdges"
     stroke-miterlimit="10"
     id="path4983" />
  <path
     style="fill:none;stroke:#000000;stroke-width:1.60000002;stroke-miterlimit:9.77777767;stroke-dasharray:none"
     inkscape:connector-curvature="0"
     d="m 117.84449,60.148872 3.47582,0"
     shape-rendering="crispEdges"
     stroke-miterlimit="10"
     id="path4985" />
  <path
     style="fill:none;stroke:#000000;stroke-width:1.60000002;stroke-miterlimit:9.77777767;stroke-dasharray:none"
     inkscape:connector-curvature="0"
     d="m 119.5824,46.660261 0,3.854253"
     shape-rendering="crispEdges"
     stroke-miterlimit="10"
     id="path4987" />
  <path
     style="fill:none;stroke:#000000;stroke-width:1.60000002;stroke-miterlimit:9.77777767;stroke-dasharray:none"
     inkscape:connector-curvature="0"
     d="m 114.75515,56.294619 9.6545,0"
     shape-rendering="crispEdges"
     stroke-miterlimit="10"
     id="path4989" />
  <path
     style="fill:none;stroke:#000000;stroke-width:1.60000002;stroke-miterlimit:9.77777767;stroke-dasharray:none"
     inkscape:connector-curvature="0"
     d="m 119.39044,62.077277 0.38648,0"
     shape-rendering="crispEdges"
     stroke-miterlimit="10"
     id="path4991" />
  <path
     style="fill:none;stroke:#000000;stroke-width:1.60000002;stroke-miterlimit:9.77777767;stroke-dasharray:none"
     inkscape:connector-curvature="0"
     d="m 45.435694,23.922971 -9.029984,0 c -2.556959,0 -2.556959,0 -2.556959,-2.54907 l 0,-18.0222777 c 0,-2.55162329 0,-2.55162329 2.556959,-2.55162329 l 11.154388,0"
     stroke-miterlimit="10"
     id="path4993" />
  <path
     style="fill:none;stroke:#000000;stroke-width:1.60000002;stroke-miterlimit:9.77777767;stroke-dasharray:none"
     inkscape:connector-curvature="0"
     d="m 84.053715,31.631478 0,-28.2798547 c 0,-2.55162329 0,-2.55162329 -2.5544,-2.55162329 l -39.925938,0"
     stroke-miterlimit="10"
     id="path4995" />
  <g
     id="content"
     transform="matrix(1,0,0,-1,-391.28,767.30082)"
     xml:space="preserve"
     stroke-miterlimit="10.433"
     font-style="normal"
     font-variant="normal"
     font-weight="normal"
     font-stretch="normal"
     font-size-adjust="none"
     letter-spacing="normal"
     word-spacing="normal"
     ns0:text="\\[\nV_i\n\\]"
     ns0:preamble="/home/josh/Desktop/preamble (copy).txt"
     style="font-style:normal;font-variant:normal;font-weight:normal;font-stretch:normal;letter-spacing:normal;word-spacing:normal;text-anchor:start;fill:none;stroke:#000000;stroke-linecap:butt;stroke-linejoin:miter;stroke-miterlimit:10.43299961;stroke-opacity:1;stroke-dasharray:none;stroke-dashoffset:0">
<path
   d="m 396.98,712.79 0.05,0.07 0.04,0.06 0.05,0.07 0.04,0.06 0.05,0.05 0.04,0.05 0.04,0.05 0.05,0.04 0.04,0.04 0.04,0.04 0.04,0.03 0.04,0.04 0.05,0.02 0.04,0.03 0.04,0.02 0.04,0.02 0.04,0.02 0.03,0.02 0.04,0.02 0.04,0.01 0.04,0.01 0.04,0.01 0.04,0.01 0.03,0.01 0.04,0 0.04,0.01 0.07,0 0.07,0.01 0.07,0 c 0.12,0.01 0.13,0.18 0.13,0.19 0,0.08 -0.05,0.12 -0.13,0.12 -0.26,0 -0.55,-0.03 -0.82,-0.03 -0.33,0 -0.67,0.03 -0.99,0.03 -0.06,0 -0.18,0 -0.18,-0.19 0,-0.11 0.09,-0.12 0.15,-0.12 0.27,-0.02 0.46,-0.12 0.46,-0.32 0,-0.15 -0.15,-0.37 -0.15,-0.38 l -3.06,-4.86 -0.67,5.27 c 0,0.16 0.23,0.29 0.68,0.29 0.14,0 0.25,0 0.25,0.2 0,0.09 -0.08,0.11 -0.14,0.11 -0.4,0 -0.82,-0.03 -1.23,-0.03 -0.18,0 -0.37,0.01 -0.55,0.01 -0.18,0 -0.37,0.02 -0.54,0.02 -0.07,0 -0.19,0 -0.19,-0.19 0,-0.12 0.09,-0.12 0.25,-0.12 0.56,0 0.57,-0.09 0.6,-0.33 l 0.79,-6.14 c 0.03,-0.2 0.07,-0.23 0.19,-0.23 0.16,0 0.21,0.05 0.28,0.18 z"
   id="path5033"
   inkscape:connector-curvature="0"
   style="fill:#000000;stroke-width:0" />
<path
   d="m 398.79,709.98 0,0.01 0,0.01 0,0.01 0,0.01 -0.01,0.01 0,0.01 0,0.01 -0.01,0.02 0,0.01 0,0.01 -0.01,0.01 -0.01,0.01 0,0.01 -0.01,0.01 -0.01,0.01 0,0.01 -0.01,0.01 -0.01,0.01 -0.01,0.01 -0.01,0.01 -0.01,0 -0.02,0.01 -0.01,0.01 -0.01,0.01 -0.01,0 -0.02,0.01 -0.01,0 -0.02,0 -0.02,0.01 -0.01,0 -0.02,0 -0.02,0 c -0.18,0 -0.39,-0.18 -0.39,-0.38 0,-0.12 0.09,-0.27 0.28,-0.27 0.2,0 0.39,0.2 0.39,0.39 z"
   id="path5035"
   inkscape:connector-curvature="0"
   style="fill:#000000;stroke-width:0" />
<path
   d="m 397.37,706.44 0,-0.01 -0.01,-0.02 -0.01,-0.03 -0.01,-0.02 0,-0.02 -0.01,-0.01 0,-0.02 -0.01,-0.02 0,-0.02 0,-0.02 -0.01,-0.01 0,-0.01 0,-0.01 0,-0.01 0,-0.01 0,-0.02 0,-0.01 0,-0.01 0,-0.01 c 0,-0.32 0.28,-0.59 0.66,-0.59 0.7,0 1,0.96 1,1.06 0,0.1 -0.09,0.1 -0.11,0.1 -0.1,0 -0.1,-0.05 -0.13,-0.12 -0.16,-0.56 -0.47,-0.84 -0.74,-0.84 -0.14,0 -0.17,0.09 -0.17,0.24 0,0.16 0.04,0.29 0.11,0.44 0.07,0.19 0.14,0.38 0.22,0.56 0.06,0.17 0.31,0.8 0.34,0.88 0.02,0.07 0.04,0.16 0.04,0.23 0,0.32 -0.27,0.59 -0.66,0.59 -0.69,0 -1.01,-0.95 -1.01,-1.07 0,-0.09 0.1,-0.09 0.12,-0.09 0.1,0 0.1,0.04 0.13,0.11 0.18,0.6 0.48,0.85 0.74,0.85 0.11,0 0.17,-0.05 0.17,-0.24 0,-0.16 -0.04,-0.27 -0.21,-0.7 z"
   id="path5037"
   inkscape:connector-curvature="0"
   style="fill:#000000;stroke-width:0" />
</g>  <g
     style="font-style:normal;font-variant:normal;font-weight:normal;font-stretch:normal;letter-spacing:normal;word-spacing:normal;text-anchor:start;fill:none;stroke:#000000;stroke-linecap:butt;stroke-linejoin:miter;stroke-miterlimit:10.43299961;stroke-opacity:1;stroke-dasharray:none;stroke-dashoffset:0"
     ns0:preamble="/home/josh/Desktop/preamble (copy).txt"
     ns0:text="\\[\nV_o\n\\]"
     word-spacing="normal"
     letter-spacing="normal"
     font-size-adjust="none"
     font-stretch="normal"
     font-weight="normal"
     font-variant="normal"
     font-style="normal"
     stroke-miterlimit="10.433"
     xml:space="preserve"
     transform="matrix(1,0,0,-1,-265.04558,742.49012)"
     id="g5642">
<path
   id="path5644"
   d="m 396.43,712.79 0.04,0.07 0.05,0.06 0.04,0.07 0.05,0.06 0.04,0.05 0.04,0.05 0.05,0.05 0.04,0.04 0.04,0.04 0.05,0.04 0.04,0.03 0.04,0.04 0.04,0.02 0.04,0.03 0.04,0.02 0.04,0.02 0.04,0.02 0.04,0.02 0.04,0.02 0.04,0.01 0.03,0.01 0.04,0.01 0.04,0.01 0.04,0.01 0.03,0 0.04,0.01 0.07,0 0.07,0.01 0.07,0 c 0.12,0.01 0.13,0.18 0.13,0.19 0,0.08 -0.05,0.12 -0.13,0.12 -0.26,0 -0.55,-0.03 -0.81,-0.03 -0.33,0 -0.67,0.03 -0.99,0.03 -0.06,0 -0.19,0 -0.19,-0.19 0,-0.11 0.09,-0.12 0.16,-0.12 0.27,-0.02 0.46,-0.12 0.46,-0.32 0,-0.15 -0.15,-0.37 -0.15,-0.38 l -3.06,-4.86 -0.68,5.27 c 0,0.16 0.23,0.29 0.69,0.29 0.14,0 0.25,0 0.25,0.2 0,0.09 -0.08,0.11 -0.14,0.11 -0.4,0 -0.83,-0.03 -1.24,-0.03 -0.18,0 -0.37,0.01 -0.55,0.01 -0.18,0 -0.37,0.02 -0.53,0.02 -0.07,0 -0.19,0 -0.19,-0.19 0,-0.12 0.09,-0.12 0.24,-0.12 0.56,0 0.57,-0.09 0.6,-0.33 l 0.79,-6.14 c 0.03,-0.2 0.07,-0.23 0.2,-0.23 0.16,0 0.2,0.05 0.28,0.18 z"
   inkscape:connector-curvature="0"
   style="fill:#000000;stroke-width:0" />
<path
   id="path5646"
   d="m 399.68,707.48 -0.01,0.07 0,0.07 -0.01,0.07 -0.01,0.06 -0.01,0.07 -0.02,0.06 -0.02,0.06 -0.02,0.06 -0.03,0.05 -0.03,0.05 -0.03,0.06 -0.03,0.04 -0.04,0.05 -0.04,0.05 -0.04,0.04 -0.04,0.04 -0.04,0.04 -0.05,0.03 -0.05,0.03 -0.05,0.04 -0.05,0.02 -0.05,0.03 -0.05,0.02 -0.06,0.03 -0.06,0.01 -0.06,0.02 -0.05,0.01 -0.06,0.02 -0.07,0.01 -0.06,0 -0.06,0.01 -0.06,0 -0.01,-0.2 c 0.38,0 0.7,-0.26 0.7,-0.77 0,-0.17 -0.09,-0.85 -0.4,-1.34 -0.26,-0.41 -0.68,-0.63 -1.03,-0.63 h 0 c -0.34,0 -0.69,0.22 -0.69,0.77 0,0.28 0.13,0.96 0.4,1.36 0.3,0.43 0.71,0.61 1.02,0.61 l 0.01,0.2 c -1.03,0 -2.01,-0.97 -2.01,-1.92 0,-0.7 0.51,-1.22 1.27,-1.22 0.99,0 2,0.92 2,1.92 z"
   inkscape:connector-curvature="0"
   style="fill:#000000;stroke-width:0" />
</g></svg>
