<?xml version="1.0" encoding="UTF-8" standalone="no"?>
<!-- Created with Inkscape (http://www.inkscape.org/) -->

<svg
   xmlns:dc="http://purl.org/dc/elements/1.1/"
   xmlns:cc="http://creativecommons.org/ns#"
   xmlns:rdf="http://www.w3.org/1999/02/22-rdf-syntax-ns#"
   xmlns:svg="http://www.w3.org/2000/svg"
   xmlns="http://www.w3.org/2000/svg"
   xmlns:sodipodi="http://sodipodi.sourceforge.net/DTD/sodipodi-0.dtd"
   xmlns:inkscape="http://www.inkscape.org/namespaces/inkscape"
   sodipodi:docname="3 different wells.svg"
   inkscape:version="0.48.2 r9819"
   version="1.1"
   id="svg2"
   height="126.48724"
   width="448.44949">
  <sodipodi:namedview
     id="base"
     pagecolor="#ffffff"
     bordercolor="#666666"
     borderopacity="1.0"
     inkscape:pageopacity="0.0"
     inkscape:pageshadow="2"
     inkscape:zoom="2.1607364"
     inkscape:cx="103.67649"
     inkscape:cy="99.828905"
     inkscape:document-units="px"
     inkscape:current-layer="layer1"
     showgrid="false"
     inkscape:snap-midpoints="false"
     inkscape:window-width="1366"
     inkscape:window-height="743"
     inkscape:window-x="0"
     inkscape:window-y="3"
     inkscape:window-maximized="1"
     fit-margin-top="0"
     fit-margin-left="0"
     fit-margin-right="0"
     fit-margin-bottom="0" />
  <defs
     id="defs4">
    <marker
       inkscape:stockid="Arrow2Lend"
       orient="auto"
       refY="0"
       refX="0"
       id="Arrow2Lend"
       style="overflow:visible">
      <path
         id="path3961"
         style="font-size:12px;fill-rule:evenodd;stroke-width:0.625;stroke-linejoin:round"
         d="M 8.7185878,4.0337352 -2.2072895,0.01601326 8.7185884,-4.0017078 c -1.7454984,2.3720609 -1.7354408,5.6174519 -6e-7,8.035443 z"
         transform="matrix(-1.1,0,0,-1.1,-1.1,0)"
         inkscape:connector-curvature="0" />
    </marker>
    <marker
       inkscape:stockid="Arrow1Sstart"
       orient="auto"
       refY="0"
       refX="0"
       id="Arrow1Sstart"
       style="overflow:visible">
      <path
         id="path3952"
         d="M 0,0 5,-5 -12.5,0 5,5 0,0 z"
         style="fill-rule:evenodd;stroke:#000000;stroke-width:1pt;marker-start:none"
         transform="matrix(0.2,0,0,0.2,1.2,0)"
         inkscape:connector-curvature="0" />
    </marker>
    <marker
       inkscape:stockid="Arrow2Sstart"
       orient="auto"
       refY="0"
       refX="0"
       id="Arrow2Sstart"
       style="overflow:visible">
      <path
         id="path3970"
         style="font-size:12px;fill-rule:evenodd;stroke-width:0.625;stroke-linejoin:round"
         d="M 8.7185878,4.0337352 -2.2072895,0.01601326 8.7185884,-4.0017078 c -1.7454984,2.3720609 -1.7354408,5.6174519 -6e-7,8.035443 z"
         transform="matrix(0.3,0,0,0.3,-0.69,0)"
         inkscape:connector-curvature="0" />
    </marker>
    <marker
       inkscape:stockid="Arrow1Send"
       orient="auto"
       refY="0"
       refX="0"
       id="Arrow1Send"
       style="overflow:visible">
      <path
         id="path3955"
         d="M 0,0 5,-5 -12.5,0 5,5 0,0 z"
         style="fill-rule:evenodd;stroke:#000000;stroke-width:1pt;marker-start:none"
         transform="matrix(-0.2,0,0,-0.2,-1.2,0)"
         inkscape:connector-curvature="0" />
    </marker>
  </defs>
  <metadata
     id="metadata7">
    <rdf:RDF>
      <cc:Work
         rdf:about="">
        <dc:format>image/svg+xml</dc:format>
        <dc:type
           rdf:resource="http://purl.org/dc/dcmitype/StillImage" />
        <dc:title />
      </cc:Work>
    </rdf:RDF>
  </metadata>
  <g
     inkscape:label="Layer 1"
     inkscape:groupmode="layer"
     id="layer1"
     transform="translate(-99.14833,-775.46374)">
    <path
       style="fill:none;stroke:#000000;stroke-width:0.99999988px;stroke-linecap:butt;stroke-linejoin:miter;stroke-opacity:1"
       d="m 114.5344,801.01807 83.0242,0"
       id="path4957-7"
       inkscape:connector-curvature="0" />
    <path
       style="fill:none;stroke:#000000;stroke-width:0.99999994px;stroke-linecap:butt;stroke-linejoin:miter;stroke-opacity:1"
       d="m 264.94493,817.07722 115.34384,0"
       id="path4957-75"
       inkscape:connector-curvature="0" />
    <path
       style="fill:none;stroke:#000000;stroke-width:0.99999994px;stroke-linecap:butt;stroke-linejoin:miter;stroke-opacity:1"
       d="m 291.09596,860.64362 63.10908,0"
       id="path4957-22"
       inkscape:connector-curvature="0" />
    <path
       style="fill:none;stroke:#000000;stroke-width:0.99999994px;stroke-linecap:butt;stroke-linejoin:miter;stroke-opacity:1"
       d="m 276.0644,838.86042 93.03402,0"
       id="path4957-8"
       inkscape:connector-curvature="0" />
    <path
       style="fill:none;stroke:#000000;stroke-width:0.99999994px;stroke-linecap:butt;stroke-linejoin:miter;stroke-opacity:1"
       d="m 255.59456,795.29402 134.15894,0"
       id="path4957-6"
       inkscape:connector-curvature="0" />
    <path
       style="fill:none;stroke:#000000;stroke-width:0.99999988px;stroke-linecap:butt;stroke-linejoin:miter;stroke-opacity:1"
       d="m 114.5344,833.45437 83.0242,0"
       id="path4957-0"
       inkscape:connector-curvature="0" />
    <path
       style="fill:none;stroke:#000000;stroke-width:0.99999988px;stroke-linecap:butt;stroke-linejoin:miter;stroke-opacity:1"
       d="m 114.5344,857.78158 83.0242,0"
       id="path4957-81"
       inkscape:connector-curvature="0" />
    <path
       style="fill:none;stroke:#000000;stroke-width:0.99999988px;stroke-linecap:butt;stroke-linejoin:miter;stroke-opacity:1"
       d="m 114.5344,873.99973 83.0242,0"
       id="path4957-81-9"
       inkscape:connector-curvature="0" />
    <path
       sodipodi:nodetypes="cccccc"
       inkscape:connector-curvature="0"
       id="path3998"
       d="m 213.94734,783.69162 -16.46021,0 0,95.48455 -83.2527,-0.0501 0.72117,-95.69571 -15.30727,0.0121"
       style="fill:none;stroke:#0000ff;stroke-width:0.99999994px;stroke-linecap:butt;stroke-linejoin:miter;stroke-opacity:1" />
    <path
       inkscape:connector-curvature="0"
       style="fill:none;stroke:#0000ff;stroke-width:0.99999994;stroke-linecap:butt;stroke-linejoin:miter;stroke-miterlimit:4;stroke-opacity:1;stroke-dasharray:none;stroke-dashoffset:0"
       d="m 251.09436,783.74927 c 0.48173,1.28497 0.96345,2.55696 1.44518,3.816 0.48172,1.25904 0.96345,2.50506 1.44517,3.73813 0.48173,1.23307 0.96344,2.45313 1.44517,3.66025 0.48173,1.20711 0.96346,2.40121 1.44518,3.58237 0.48172,1.18115 0.96345,2.34929 1.44517,3.50449 0.48173,1.1552 0.96345,2.29738 1.44517,3.42662 0.48173,1.12923 0.96346,2.24546 1.44518,3.34873 0.48173,1.10328 0.96345,2.19354 1.44518,3.27087 0.48172,1.07732 0.96345,2.14162 1.44517,3.19297 0.48173,1.05137 0.96345,2.08972 1.44518,3.11511 0.48172,1.02541 0.96344,2.03779 1.44518,3.03723 0.48171,0.99945 0.96344,1.98587 1.44516,2.95934 0.48173,0.97349 0.96346,1.93395 1.44519,2.88148 0.48172,0.94753 0.96344,1.88203 1.44517,2.80359 0.48173,0.92157 0.96344,1.83011 1.44517,2.72572 0.48172,0.8956 0.96345,1.77819 1.44518,2.64784 0.48172,0.86964 0.96344,1.72627 1.44517,2.56996 0.48173,0.84369 0.96346,1.67435 1.44517,2.49209 0.48173,0.81772 0.96346,1.62243 1.44518,2.4142 0.48173,0.79176 0.96345,1.57052 1.44517,2.33633 0.48173,0.76581 0.96346,1.51859 1.44518,2.25845 0.48172,0.73985 0.96344,1.46668 1.44518,2.18057 0.48172,0.7139 0.96344,1.41476 1.44517,2.10271 0.48172,0.68793 0.96345,1.36283 1.44517,2.02481 0.48173,0.66197 0.96344,1.31093 1.44518,1.94693 0.48173,0.63602 0.96345,1.25902 1.44517,1.86907 0.48173,0.61006 0.96346,1.20709 1.44518,1.79119 0.48172,0.58409 0.96344,1.15516 1.44517,1.7133 0.48173,0.55814 0.96346,1.10326 1.44518,1.63543 0.48172,0.53219 0.96345,1.05134 1.44518,1.55755 0.48172,0.50622 0.96345,0.99942 1.44516,1.47969 0.48173,0.48025 0.96346,0.94749 1.44518,1.40179 0.48172,0.4543 0.96345,0.89558 1.44518,1.32392 0.48172,0.42834 0.96345,0.84366 1.44518,1.24604 0.48171,0.40238 0.96345,0.79174 1.44517,1.16817 0.48172,0.37641 0.96345,0.73982 1.44517,1.09029 0.48173,0.35046 0.96345,0.68791 1.44518,1.0124 0.48173,0.32451 0.96345,0.63599 1.44518,0.93453 0.48172,0.29855 0.96344,0.58408 1.44517,0.85666 0.48172,0.27258 0.96345,0.53215 1.44517,0.77878 0.48173,0.24662 0.96345,0.48022 1.44518,0.70089 0.48173,0.22067 0.96346,0.42831 1.44517,0.62302 0.48173,0.19471 0.96346,0.3764 1.44518,0.54514 0.48172,0.16875 0.96345,0.32449 1.44517,0.46727 0.48173,0.14279 0.96346,0.27256 1.44518,0.38939 0.48172,0.11683 0.96345,0.22064 1.44518,0.31151 0.48172,0.0909 0.96345,0.16872 1.44517,0.23363 0.48173,0.0649 0.96345,0.1168 1.44518,0.15575 0.48172,0.039 0.96344,0.0649 1.44517,0.0779 0.48174,0.013 0.96345,0.013 1.44518,0 0.48172,-0.013 0.96345,-0.039 1.44517,-0.0779 0.48173,-0.039 0.96345,-0.0909 1.44517,-0.15575 0.48174,-0.0649 0.96345,-0.14279 1.44518,-0.23363 0.48172,-0.0908 0.96345,-0.1947 1.44517,-0.31151 0.48173,-0.11681 0.96345,-0.24663 1.44517,-0.38939 0.48174,-0.14276 0.96346,-0.29854 1.44518,-0.46727 0.48172,-0.16872 0.96345,-0.35046 1.44518,-0.54514 0.48173,-0.19468 0.96345,-0.40238 1.44517,-0.62302 0.48173,-0.22064 0.96346,-0.4543 1.44518,-0.70089 0.48172,-0.24661 0.96344,-0.50622 1.44518,-0.77878 0.48172,-0.27256 0.96345,-0.55814 1.44516,-0.85666 0.48173,-0.29851 0.96346,-0.61005 1.44518,-0.93453 0.48173,-0.32448 0.96345,-0.66197 1.44518,-1.0124 0.48173,-0.35044 0.96345,-0.71389 1.44517,-1.09029 0.48173,-0.3764 0.96345,-0.76581 1.44518,-1.16817 0.48172,-0.40235 0.96345,-0.81773 1.44517,-1.24604 0.48173,-0.42832 0.96346,-0.86965 1.44518,-1.32392 0.48172,-0.45427 0.96345,-0.92157 1.44517,-1.40179 0.48173,-0.48024 0.96345,-0.97349 1.44517,-1.47969 0.48173,-0.50618 0.96346,-1.02539 1.44519,-1.55755 0.48171,-0.53215 0.96344,-1.07731 1.44517,-1.63543 0.48173,-0.5581 0.96344,-1.12923 1.44517,-1.7133 0.48172,-0.58407 0.96345,-1.18116 1.44518,-1.79119 0.48172,-0.61003 0.96344,-1.23308 1.44517,-1.86907 0.48173,-0.63598 0.96345,-1.28498 1.44518,-1.94693 0.48172,-0.66195 0.96344,-1.33691 1.44517,-2.02481 0.48173,-0.68791 0.96344,-1.38884 1.44518,-2.10271 0.48172,-0.71387 0.96345,-1.44075 1.44517,-2.18057 0.48173,-0.73982 0.96345,-1.49267 1.44518,-2.25845 0.48172,-0.76579 0.96345,-1.54458 1.44517,-2.33633 0.48172,-0.79174 0.96345,-1.5965 1.44517,-2.4142 0.48173,-0.81771 0.96345,-1.64843 1.44518,-2.49209 0.48172,-0.84367 0.96345,-1.70035 1.44518,-2.56996 0.48172,-0.86962 0.96345,-1.75226 1.44518,-2.64784 0.48171,-0.89557 0.96344,-1.80417 1.44516,-2.72572 0.48173,-0.92154 0.96345,-1.8561 1.44518,-2.80359 0.48172,-0.94749 0.96345,-1.90801 1.44518,-2.88148 0.48172,-0.97345 0.96344,-1.95993 1.44517,-2.95934 0.48172,-0.99941 0.96345,-2.01185 1.44518,-3.03723 0.48172,-1.02538 0.96344,-2.06377 1.44517,-3.11511 0.48173,-1.05133 0.96345,-2.11568 1.44517,-3.19297 0.48172,-1.0773 0.96346,-2.16761 1.44518,-3.27087 0.48172,-1.10325 0.96345,-2.21952 1.44517,-3.34873 0.48173,-1.12921 0.96346,-2.27145 1.44518,-3.42662 0.48172,-1.15516 0.96345,-2.32336 1.44518,-3.50449 0.48172,-1.18113 0.96344,-2.37528 1.44517,-3.58237 0.48172,-1.20709 0.96345,-2.4272 1.44517,-3.66025 0.48173,-1.23305 0.96345,-2.47912 1.44518,-3.73813 0.48172,-1.25901 0.96344,-2.53103 1.44517,-3.816"
       title="pow(x,2)"
       id="path4641" />
    <path
       style="fill:none;stroke:#000000;stroke-width:0.99999988px;stroke-linecap:butt;stroke-linejoin:miter;stroke-opacity:1"
       d="m 484.29889,868.83709 8.85983,0"
       id="path4957-7-8"
       inkscape:connector-curvature="0" />
    <path
       style="fill:none;stroke:#000000;stroke-width:0.99999994px;stroke-linecap:butt;stroke-linejoin:miter;stroke-opacity:1"
       d="m 468.5486,802.17705 40.36651,0"
       id="path4957-81-9-6"
       inkscape:connector-curvature="0" />
    <path
       style="fill:none;stroke:#000000;stroke-width:0.99999994px;stroke-linecap:butt;stroke-linejoin:miter;stroke-opacity:1"
       d="m 481.39149,841.06207 14.74363,0"
       id="path4957-0-1-4"
       inkscape:connector-curvature="0" />
    <path
       style="fill:none;stroke:#000000;stroke-width:0.99999988px;stroke-linecap:butt;stroke-linejoin:miter;stroke-opacity:1"
       d="m 476.70966,818.84205 23.98719,0"
       id="path4957-81-5-8"
       inkscape:connector-curvature="0" />
    <path
       style="fill:none;stroke:#000000;stroke-width:0.99999988px;stroke-linecap:butt;stroke-linejoin:miter;stroke-opacity:1"
       d="m 439.29921,785.51203 98.84465,0"
       id="path4957-81-9-6-1"
       inkscape:connector-curvature="0" />
    <path
       style="fill:none;stroke:#000000;stroke-width:0.99999988px;stroke-linecap:butt;stroke-linejoin:miter;stroke-opacity:1"
       d="m 454.94353,791.06704 67.55696,0"
       id="path4957-81-9-6-9"
       inkscape:connector-curvature="0" />
    <path
       id="path4901-1"
       title="1/x"
       d="m 547.09782,783.62104 c -0.24601,0.0444 -0.49202,0.0892 -0.73803,0.13465 -0.24603,0.0454 -0.49203,0.0914 -0.73804,0.138 -0.24602,0.0465 -0.49202,0.0937 -0.73804,0.14146 -0.24601,0.0477 -0.49202,0.0961 -0.73803,0.14507 -0.24601,0.049 -0.49202,0.0986 -0.73804,0.14882 -0.246,0.0502 -0.49202,0.10114 -0.73803,0.1527 -0.24601,0.0516 -0.49202,0.10381 -0.73803,0.15674 -0.24601,0.0529 -0.49203,0.10659 -0.73803,0.16097 -0.24602,0.0544 -0.49203,0.10946 -0.73803,0.16533 -0.24603,0.0559 -0.49203,0.11249 -0.73804,0.1699 -0.24602,0.0574 -0.49202,0.11562 -0.73804,0.17465 -0.24601,0.059 -0.49202,0.11889 -0.73804,0.1796 -0.246,0.0607 -0.49201,0.1223 -0.73803,0.18478 -0.246,0.0625 -0.49202,0.12585 -0.73804,0.19017 -0.246,0.0643 -0.49201,0.12957 -0.73803,0.19579 -0.246,0.0663 -0.49202,0.13345 -0.73803,0.2017 -0.24601,0.0683 -0.49203,0.13751 -0.73803,0.20785 -0.24601,0.0703 -0.49203,0.14176 -0.73804,0.2143 -0.24601,0.0726 -0.49202,0.1462 -0.73803,0.22103 -0.24601,0.0748 -0.49202,0.15087 -0.73804,0.22812 -0.24601,0.0773 -0.49202,0.15576 -0.73803,0.23554 -0.24601,0.0798 -0.49201,0.16088 -0.73804,0.24333 -0.246,0.0824 -0.49202,0.16626 -0.73803,0.2515 -0.246,0.0852 -0.49202,0.17192 -0.73803,0.2601 -0.24601,0.0882 -0.49203,0.17787 -0.73803,0.26914 -0.24602,0.0913 -0.49203,0.18414 -0.73803,0.27868 -0.24603,0.0945 -0.49203,0.19074 -0.73804,0.28872 -0.24602,0.098 -0.49203,0.19771 -0.73803,0.2993 -0.24602,0.10161 -0.49203,0.20507 -0.73804,0.31051 -0.24602,0.10543 -0.49202,0.21284 -0.73804,0.32233 -0.24601,0.10948 -0.49202,0.22106 -0.73803,0.33485 -0.24601,0.11377 -0.49202,0.22977 -0.73804,0.3481 -0.246,0.11834 -0.49202,0.23902 -0.73803,0.36218 -0.24601,0.12316 -0.49202,0.24881 -0.73803,0.3771 -0.24601,0.12829 -0.49203,0.25924 -0.73804,0.39299 -0.24601,0.13375 -0.49202,0.27032 -0.73803,0.40989 -0.24601,0.13956 -0.49202,0.28214 -0.73804,0.4279 -0.24601,0.14577 -0.49201,0.29475 -0.73803,0.44714 -0.24601,0.1524 -0.49201,0.30822 -0.73804,0.4677 -0.24601,0.15948 -0.49202,0.32264 -0.73803,0.48971 -0.24601,0.16707 -0.49202,0.33808 -0.73803,0.5133 -0.24602,0.17522 -0.49203,0.35468 -0.73804,0.53865 -0.246,0.18398 -0.49202,0.37252 -0.73803,0.56593 -0.24601,0.19342 -0.49203,0.39174 -0.73803,0.59533 -0.24602,0.20358 -0.49203,0.41248 -0.73803,0.62708 -0.24602,0.21459 -0.49203,0.43492 -0.73805,0.66143 -0.246,0.22652 -0.49201,0.45925 -0.73803,0.69871 -0.246,0.23945 -0.49202,0.48567 -0.73803,0.7392 -0.24601,0.25354 -0.49202,0.51444 -0.73803,0.78334 -0.24601,0.2689 -0.49203,0.54585 -0.73804,0.83155 -0.24601,0.2857 -0.49202,0.5802 -0.73803,0.88433 -0.24601,0.30413 -0.49202,0.61793 -0.73804,0.94233 -0.24601,0.32441 -0.49202,0.65946 -0.73803,1.00622 -0.24601,0.34676 -0.49202,0.7053 -0.73804,1.07683 -0.246,0.37152 -0.49202,0.75611 -0.73803,1.15514 -0.24601,0.39903 -0.49202,0.8126 -0.73803,1.24232 -0.24602,0.42971 -0.49203,0.87568 -0.73804,1.33976 -0.24601,0.46408 -0.49201,0.94639 -0.73803,1.44913 -0.24601,0.50274 -0.49202,1.02602 -0.73804,1.57246 -0.246,0.54643 -0.49202,1.11615 -0.73802,1.71222 -0.24602,0.59609 -0.49203,1.21869 -0.73804,1.87152 -0.24601,0.65282 -0.49202,1.33604 -0.73803,2.05409 -0.24602,0.71807 -0.49204,1.47118 -0.73804,2.26478 -0.24601,0.79359 -0.49203,1.6279 -0.73803,2.50961 -0.24601,0.88171 -0.49203,1.81108 -0.73804,2.79643 -0.24602,0.98535 -0.49202,2.02698 -0.73803,3.13539 -0.24601,1.1084 -0.49202,2.28391 -0.73804,3.53995 -0.24601,1.25603 -0.49202,2.59297 -0.73803,4.02822 -0.24601,1.43524 -0.49202,2.96925 -0.73804,4.62499 -0.24601,1.65574 -0.49202,3.43376 -0.73803,5.365 -0.24601,1.93124 -0.49202,4.01634 -0.73803,6.29803 -0.24601,2.2817 -0.49203,4.76068 -0.73804,7.49767 -0.24601,2.73698 -0.49202,5.73263 -0.73803,9.07612 -0.24602,3.34348 -0.49202,7.03526 -0.73803,11.21167"
       style="fill:none;stroke:#0000ff;stroke-width:0.99999994;stroke-linecap:butt;stroke-linejoin:bevel;stroke-miterlimit:4;stroke-opacity:1;stroke-dasharray:none;stroke-dashoffset:0"
       inkscape:connector-curvature="0"
       sodipodi:nodetypes="csssssssssssssssssssssssssssssssssssssssssssssssssssssssssssssssssssssssssc" />
    <path
       id="path4901-1-7"
       title="1/x"
       d="m 430.33057,783.62102 c 0.24601,0.0444 0.49202,0.0892 0.73802,0.13465 0.24602,0.0455 0.49203,0.0914 0.73804,0.13799 0.24602,0.0466 0.49202,0.0937 0.73804,0.14147 0.24601,0.0477 0.49202,0.0961 0.73803,0.14507 0.24602,0.0489 0.49203,0.0986 0.73803,0.14881 0.24602,0.0502 0.49203,0.10113 0.73804,0.15271 0.24601,0.0516 0.49202,0.1038 0.73804,0.15674 0.246,0.0529 0.49202,0.10659 0.73803,0.16096 0.24601,0.0544 0.49203,0.10947 0.73803,0.16534 0.24601,0.0559 0.49202,0.11248 0.73803,0.1699 0.24602,0.0574 0.49203,0.11562 0.73804,0.17464 0.24601,0.059 0.49202,0.11889 0.73803,0.1796 0.24601,0.0608 0.49202,0.12231 0.73804,0.18478 0.24601,0.0625 0.49202,0.12586 0.73803,0.19017 0.24601,0.0643 0.49202,0.12956 0.73804,0.19581 0.24601,0.0662 0.49202,0.13344 0.73803,0.20169 0.24601,0.0683 0.49202,0.1375 0.73803,0.20784 0.24602,0.0703 0.49203,0.14176 0.73804,0.2143 0.24601,0.0726 0.49202,0.14621 0.73803,0.22104 0.24601,0.0748 0.49203,0.15086 0.73804,0.22812 0.24601,0.0773 0.49202,0.15575 0.73803,0.23554 0.24602,0.0798 0.49202,0.16087 0.73803,0.24331 0.24602,0.0824 0.49203,0.16627 0.73804,0.25151 0.24601,0.0852 0.49202,0.17192 0.73804,0.2601 0.246,0.0882 0.49201,0.17788 0.73803,0.26915 0.24601,0.0913 0.49202,0.18413 0.73803,0.27868 0.24601,0.0945 0.49202,0.19073 0.73803,0.28871 0.24601,0.098 0.49203,0.19771 0.73804,0.29931 0.24601,0.1016 0.49203,0.20507 0.73803,0.3105 0.24601,0.10544 0.49203,0.21285 0.73804,0.32233 0.24601,0.10949 0.49202,0.22107 0.73803,0.33485 0.24601,0.11378 0.49202,0.22978 0.73804,0.3481 0.24601,0.11834 0.49202,0.23901 0.73803,0.36218 0.24601,0.12316 0.49202,0.24882 0.73803,0.37711 0.24601,0.12829 0.49203,0.25923 0.73804,0.39299 0.24601,0.13374 0.49202,0.27032 0.73803,0.40988 0.24601,0.13958 0.49203,0.28215 0.73803,0.42791 0.24602,0.14577 0.49203,0.29475 0.73804,0.44714 0.24601,0.15239 0.49202,0.30822 0.73803,0.4677 0.24602,0.15947 0.49202,0.32263 0.73803,0.4897 0.24602,0.16708 0.49203,0.33808 0.73804,0.51331 0.24602,0.17521 0.49202,0.35466 0.73804,0.53865 0.24601,0.18398 0.49202,0.37252 0.73804,0.56593 0.246,0.19341 0.49202,0.39174 0.73803,0.59532 0.246,0.2036 0.49202,0.41249 0.73803,0.62708 0.24601,0.2146 0.49202,0.43492 0.73803,0.66144 0.24601,0.22652 0.49203,0.45925 0.73804,0.6987 0.24601,0.23946 0.49202,0.48567 0.73802,0.7392 0.24603,0.25355 0.49203,0.51445 0.73804,0.78334 0.24602,0.2689 0.49202,0.54585 0.73804,0.83155 0.24601,0.2857 0.49201,0.58021 0.73803,0.88434 0.24601,0.30413 0.49203,0.61792 0.73804,0.94232 0.246,0.32441 0.49202,0.65946 0.73803,1.00622 0.24602,0.34677 0.49203,0.7053 0.73804,1.07683 0.246,0.37153 0.49202,0.75611 0.73803,1.15515 0.246,0.39903 0.49203,0.8126 0.73803,1.24232 0.24602,0.42971 0.49203,0.87567 0.73803,1.33975 0.24602,0.46409 0.49203,0.9464 0.73805,1.44913 0.24601,0.50274 0.49201,1.02603 0.73803,1.57246 0.24601,0.54643 0.49201,1.11615 0.73803,1.71224 0.24601,0.59608 0.49202,1.21868 0.73804,1.87151 0.246,0.65282 0.49201,1.33603 0.73803,2.05409 0.24601,0.71806 0.49203,1.47117 0.73803,2.26477 0.24601,0.7936 0.49203,1.62791 0.73803,2.50961 0.24602,0.88171 0.49203,1.81108 0.73804,2.79643 0.24602,0.98535 0.49203,2.02699 0.73803,3.13539 0.24602,1.1084 0.49203,2.28392 0.73804,3.53995 0.24601,1.25603 0.49202,2.59298 0.73803,4.02822 0.24602,1.43525 0.49202,2.96926 0.73804,4.62499 0.24601,1.65575 0.49202,3.43376 0.73804,5.36501 0.246,1.93124 0.49202,4.01633 0.73803,6.29803 0.246,2.2817 0.49202,4.76068 0.73803,7.49766 0.24601,2.73698 0.49203,5.73263 0.73803,9.07612 0.24602,3.34348 0.49203,7.03528 0.73803,11.2117"
       style="fill:none;stroke:#0000ff;stroke-width:0.99999994;stroke-linecap:butt;stroke-linejoin:bevel;stroke-miterlimit:4;stroke-opacity:1;stroke-dasharray:none;stroke-dashoffset:0"
       inkscape:connector-curvature="0"
       sodipodi:nodetypes="csssssssssssssssssssssssssssssssssssssssssssssssssssssssssssssssssssssssssc" />
    <g
       id="g5229"
       transform="matrix(0.80970912,0,0,0.80970912,183.45421,389.82221)">
      <g
         id="content"
         transform="matrix(0.25021344,0,0,-0.25021344,-43.787352,585.63684)"
         xml:space="preserve"
         stroke-miterlimit="10.433"
         font-style="normal"
         font-variant="normal"
         font-weight="normal"
         font-stretch="normal"
         font-size-adjust="none"
         letter-spacing="normal"
         word-spacing="normal"
         style="font-style:normal;font-variant:normal;font-weight:normal;font-stretch:normal;letter-spacing:normal;word-spacing:normal;text-anchor:start;fill:none;stroke:#000000;stroke-width:1.23501134;stroke-linecap:butt;stroke-linejoin:miter;stroke-miterlimit:10.43299961;stroke-opacity:1;stroke-dasharray:none;stroke-dashoffset:0"><path
           d="m 475.89,417.65 h 13.91 c 0.69,0 1.64,0 1.64,1 0,1 -0.95,1 -1.64,1 h -13.91 v 13.96 c 0,0.68 0,1.64 -1,1.64 -0.98,0 -0.98,-0.96 -0.98,-1.64 v -13.96 h -13.95 c -0.71,0 -1.64,0 -1.64,-1 0,-1 0.93,-1 1.64,-1 h 13.95 v -13.94 c 0,-0.7 0,-1.65 0.98,-1.65 1,0 1,0.95 1,1.65 z"
           id="path5232"
           inkscape:connector-curvature="0"
           style="fill:#000000;stroke-width:0" /><path
           d="m 519.59,419.7 -0.25,0.31 -0.23,0.29 -0.22,0.29 -0.22,0.26 -0.2,0.26 -0.19,0.24 -0.19,0.23 -0.17,0.22 -0.17,0.2 -0.16,0.2 -0.16,0.19 -0.15,0.17 -0.14,0.17 -0.14,0.16 -0.13,0.16 -0.13,0.15 -0.12,0.14 -0.13,0.13 -0.12,0.13 -0.12,0.13 -0.23,0.23 -0.24,0.23 -0.23,0.22 -0.25,0.22 -0.26,0.22 -0.14,0.11 -0.14,0.11 c -2.8,2.25 -5.59,3.14 -8.12,3.14 -5.83,0 -9.63,-5.46 -9.63,-11.29 h 1.11 c 0,4.87 3.33,8.9 7.72,8.9 2.89,0 5.12,-2.09 6.17,-3.14 1.25,-1.34 2.39,-2.89 5.44,-6.81 h 0 c -2.05,-3.59 -5.74,-8.62 -11.36,-8.62 -5.28,0 -7.97,5.18 -7.97,9.67 h -1.11 c 0,-5.74 3.69,-11.27 9.42,-11.27 5.74,0 9.86,4.53 12.32,8.52 2.68,-3.39 3.28,-4.13 4.82,-5.38 2.78,-2.25 5.58,-3.14 8.13,-3.14 5.83,0 9.61,5.49 9.61,11.31 h -1.09 c 0,-4.89 -3.35,-8.92 -7.72,-8.92 -2.9,0 -5.15,2.1 -6.19,3.14 -1.24,1.35 -2.39,2.89 -5.42,6.83 h 0 c 2.03,3.58 5.71,8.61 11.36,8.61 5.28,0 7.97,-5.17 7.97,-9.66 h 1.09 c 0,5.72 -3.69,11.25 -9.42,11.25 -5.72,0 -9.86,-4.53 -12.3,-8.51 z"
           id="path5234"
           inkscape:connector-curvature="0"
           style="fill:#000000;stroke-width:0" /></g>    </g>
    <g
       id="g5304"
       transform="matrix(0.80970912,0,0,0.80970912,331.43843,389.44995)">
      <g
         word-spacing="normal"
         letter-spacing="normal"
         font-size-adjust="none"
         font-stretch="normal"
         font-weight="normal"
         font-variant="normal"
         font-style="normal"
         stroke-miterlimit="10.433"
         xml:space="preserve"
         transform="matrix(0.25021344,0,0,-0.25021344,-43.787352,585.63684)"
         id="g5306"
         style="font-style:normal;font-variant:normal;font-weight:normal;font-stretch:normal;letter-spacing:normal;word-spacing:normal;text-anchor:start;fill:none;stroke:#000000;stroke-width:1.23501134;stroke-linecap:butt;stroke-linejoin:miter;stroke-miterlimit:10.43299961;stroke-opacity:1;stroke-dasharray:none;stroke-dashoffset:0"><path
           id="path5308"
           d="m 475.89,417.65 h 13.91 c 0.69,0 1.64,0 1.64,1 0,1 -0.95,1 -1.64,1 h -13.91 v 13.96 c 0,0.68 0,1.64 -1,1.64 -0.98,0 -0.98,-0.96 -0.98,-1.64 v -13.96 h -13.95 c -0.71,0 -1.64,0 -1.64,-1 0,-1 0.93,-1 1.64,-1 h 13.95 v -13.94 c 0,-0.7 0,-1.65 0.98,-1.65 1,0 1,0.95 1,1.65 z"
           inkscape:connector-curvature="0"
           style="fill:#000000;stroke-width:0" /><path
           id="path5310"
           d="m 519.59,419.7 -0.25,0.31 -0.23,0.29 -0.22,0.29 -0.22,0.26 -0.2,0.26 -0.19,0.24 -0.19,0.23 -0.17,0.22 -0.17,0.2 -0.16,0.2 -0.16,0.19 -0.15,0.17 -0.14,0.17 -0.14,0.16 -0.13,0.16 -0.13,0.15 -0.12,0.14 -0.13,0.13 -0.12,0.13 -0.12,0.13 -0.23,0.23 -0.24,0.23 -0.23,0.22 -0.25,0.22 -0.26,0.22 -0.14,0.11 -0.14,0.11 c -2.8,2.25 -5.59,3.14 -8.12,3.14 -5.83,0 -9.63,-5.46 -9.63,-11.29 h 1.11 c 0,4.87 3.33,8.9 7.72,8.9 2.89,0 5.12,-2.09 6.17,-3.14 1.25,-1.34 2.39,-2.89 5.44,-6.81 h 0 c -2.05,-3.59 -5.74,-8.62 -11.36,-8.62 -5.28,0 -7.97,5.18 -7.97,9.67 h -1.11 c 0,-5.74 3.69,-11.27 9.42,-11.27 5.74,0 9.86,4.53 12.32,8.52 2.68,-3.39 3.28,-4.13 4.82,-5.38 2.78,-2.25 5.58,-3.14 8.13,-3.14 5.83,0 9.61,5.49 9.61,11.31 h -1.09 c 0,-4.89 -3.35,-8.92 -7.72,-8.92 -2.9,0 -5.15,2.1 -6.19,3.14 -1.24,1.35 -2.39,2.89 -5.42,6.83 h 0 c 2.03,3.58 5.71,8.61 11.36,8.61 5.28,0 7.97,-5.17 7.97,-9.66 h 1.09 c 0,5.72 -3.69,11.25 -9.42,11.25 -5.72,0 -9.86,-4.53 -12.3,-8.51 z"
           inkscape:connector-curvature="0"
           style="fill:#000000;stroke-width:0" /></g>    </g>
    <g
       id="g5388"
       transform="matrix(0.80970912,0,0,0.80970912,412.48511,491.65439)">
      <g
         id="g5390"
         transform="matrix(0.25021344,0,0,-0.25021344,-43.787352,585.63684)"
         xml:space="preserve"
         stroke-miterlimit="10.433"
         font-style="normal"
         font-variant="normal"
         font-weight="normal"
         font-stretch="normal"
         font-size-adjust="none"
         letter-spacing="normal"
         word-spacing="normal"
         style="font-style:normal;font-variant:normal;font-weight:normal;font-stretch:normal;letter-spacing:normal;word-spacing:normal;text-anchor:start;fill:none;stroke:#000000;stroke-width:1.23501134;stroke-linecap:butt;stroke-linejoin:miter;stroke-miterlimit:10.43299961;stroke-opacity:1;stroke-dasharray:none;stroke-dashoffset:0"><path
           d="m 488.35,417.65 0.16,0 0.16,0 0.15,0.01 0.08,0 0.08,0.01 0.07,0 0.08,0.01 0.07,0.01 0.07,0.01 0.07,0.02 0.07,0.02 0.07,0.02 0.06,0.02 0.06,0.02 0.06,0.03 0.05,0.03 0.06,0.04 0.05,0.03 0.04,0.05 0.04,0.04 0.04,0.05 0.02,0.03 0.02,0.03 0.01,0.03 0.02,0.03 0.01,0.03 0.02,0.03 0.01,0.04 0.01,0.03 0.01,0.04 0,0.04 0.01,0.04 0.01,0.04 0,0.04 0.01,0.04 0,0.05 0,0.04 c 0,1 -0.91,1 -1.75,1 h -26.96 c -0.84,0 -1.73,0 -1.73,-1 0,-1 0.89,-1 1.73,-1 z"
           id="path5392"
           inkscape:connector-curvature="0"
           style="fill:#000000;stroke-width:0" /><path
           d="m 519.59,415.86 -0.25,0.31 -0.23,0.29 -0.22,0.29 -0.22,0.26 -0.2,0.26 -0.19,0.24 -0.19,0.23 -0.17,0.22 -0.17,0.2 -0.16,0.2 -0.16,0.19 -0.15,0.17 -0.14,0.17 -0.14,0.16 -0.13,0.16 -0.13,0.15 -0.12,0.14 -0.13,0.13 -0.12,0.13 -0.12,0.13 -0.23,0.23 -0.24,0.23 -0.23,0.22 -0.25,0.22 -0.26,0.22 -0.14,0.11 -0.14,0.11 c -2.8,2.25 -5.59,3.15 -8.12,3.15 -5.83,0 -9.63,-5.47 -9.63,-11.3 h 1.11 c 0,4.87 3.33,8.9 7.72,8.9 2.89,0 5.12,-2.09 6.17,-3.14 1.25,-1.34 2.39,-2.89 5.44,-6.81 h 0 c -2.05,-3.59 -5.74,-8.62 -11.36,-8.62 -5.28,0 -7.97,5.18 -7.97,9.67 h -1.11 c 0,-5.74 3.69,-11.27 9.42,-11.27 5.74,0 9.86,4.53 12.32,8.52 2.68,-3.39 3.28,-4.13 4.82,-5.38 2.78,-2.25 5.58,-3.14 8.13,-3.14 5.83,0 9.61,5.49 9.61,11.31 h -1.09 c 0,-4.89 -3.35,-8.92 -7.72,-8.92 -2.9,0 -5.15,2.1 -6.19,3.14 -1.24,1.35 -2.39,2.89 -5.42,6.83 h 0 c 2.03,3.58 5.71,8.61 11.36,8.61 5.28,0 7.97,-5.17 7.97,-9.66 h 1.09 c 0,5.72 -3.69,11.26 -9.42,11.26 -5.72,0 -9.86,-4.54 -12.3,-8.52 z"
           id="path5394"
           inkscape:connector-curvature="0"
           style="fill:#000000;stroke-width:0" /></g>    </g>
    <g
       id="g5480"
       transform="matrix(0.80970912,0,0,0.80970912,435.69614,491.65439)">
      <g
         word-spacing="normal"
         letter-spacing="normal"
         font-size-adjust="none"
         font-stretch="normal"
         font-weight="normal"
         font-variant="normal"
         font-style="normal"
         stroke-miterlimit="10.433"
         xml:space="preserve"
         transform="matrix(0.25021344,0,0,-0.25021344,-43.787352,585.63684)"
         id="g5482"
         style="font-style:normal;font-variant:normal;font-weight:normal;font-stretch:normal;letter-spacing:normal;word-spacing:normal;text-anchor:start;fill:none;stroke:#000000;stroke-width:1.23501134;stroke-linecap:butt;stroke-linejoin:miter;stroke-miterlimit:10.43299961;stroke-opacity:1;stroke-dasharray:none;stroke-dashoffset:0"><path
           id="path5484"
           d="m 488.35,417.65 0.16,0 0.16,0 0.15,0.01 0.08,0 0.08,0.01 0.07,0 0.08,0.01 0.07,0.01 0.07,0.01 0.07,0.02 0.07,0.02 0.07,0.02 0.06,0.02 0.06,0.02 0.06,0.03 0.05,0.03 0.06,0.04 0.05,0.03 0.04,0.05 0.04,0.04 0.04,0.05 0.02,0.03 0.02,0.03 0.01,0.03 0.02,0.03 0.01,0.03 0.02,0.03 0.01,0.04 0.01,0.03 0.01,0.04 0,0.04 0.01,0.04 0.01,0.04 0,0.04 0.01,0.04 0,0.05 0,0.04 c 0,1 -0.91,1 -1.75,1 h -26.96 c -0.84,0 -1.73,0 -1.73,-1 0,-1 0.89,-1 1.73,-1 z"
           inkscape:connector-curvature="0"
           style="fill:#000000;stroke-width:0" /><path
           id="path5486"
           d="m 519.59,415.86 -0.25,0.31 -0.23,0.29 -0.22,0.29 -0.22,0.26 -0.2,0.26 -0.19,0.24 -0.19,0.23 -0.17,0.22 -0.17,0.2 -0.16,0.2 -0.16,0.19 -0.15,0.17 -0.14,0.17 -0.14,0.16 -0.13,0.16 -0.13,0.15 -0.12,0.14 -0.13,0.13 -0.12,0.13 -0.12,0.13 -0.23,0.23 -0.24,0.23 -0.23,0.22 -0.25,0.22 -0.26,0.22 -0.14,0.11 -0.14,0.11 c -2.8,2.25 -5.59,3.15 -8.12,3.15 -5.83,0 -9.63,-5.47 -9.63,-11.3 h 1.11 c 0,4.87 3.33,8.9 7.72,8.9 2.89,0 5.12,-2.09 6.17,-3.14 1.25,-1.34 2.39,-2.89 5.44,-6.81 h 0 c -2.05,-3.59 -5.74,-8.62 -11.36,-8.62 -5.28,0 -7.97,5.18 -7.97,9.67 h -1.11 c 0,-5.74 3.69,-11.27 9.42,-11.27 5.74,0 9.86,4.53 12.32,8.52 2.68,-3.39 3.28,-4.13 4.82,-5.38 2.78,-2.25 5.58,-3.14 8.13,-3.14 5.83,0 9.61,5.49 9.61,11.31 h -1.09 c 0,-4.89 -3.35,-8.92 -7.72,-8.92 -2.9,0 -5.15,2.1 -6.19,3.14 -1.24,1.35 -2.39,2.89 -5.42,6.83 h 0 c 2.03,3.58 5.71,8.61 11.36,8.61 5.28,0 7.97,-5.17 7.97,-9.66 h 1.09 c 0,5.72 -3.69,11.26 -9.42,11.26 -5.72,0 -9.86,-4.54 -12.3,-8.52 z"
           inkscape:connector-curvature="0"
           style="fill:#000000;stroke-width:0" /></g>    </g>
    <g
       id="g5669"
       transform="matrix(1.1758363,0,0,1.1758363,77.240684,572.07581)">
      <g
         id="g5671"
         transform="matrix(0.15427243,0,0,-0.15427243,-26.997675,336.33712)"
         xml:space="preserve"
         stroke-miterlimit="10.433"
         font-style="normal"
         font-variant="normal"
         font-weight="normal"
         font-stretch="normal"
         font-size-adjust="none"
         letter-spacing="normal"
         word-spacing="normal"
         style="font-style:normal;font-variant:normal;font-weight:normal;font-stretch:normal;letter-spacing:normal;word-spacing:normal;text-anchor:start;fill:none;stroke:#000000;stroke-width:0.8504585;stroke-linecap:butt;stroke-linejoin:miter;stroke-miterlimit:10.43299961;stroke-opacity:1;stroke-dasharray:none;stroke-dashoffset:0"><path
           d="m 472.91,425.53 -6.37,1.54 c -3.1,0.75 -5.04,3.44 -5.04,6.33 0,3.49 2.69,6.53 6.58,6.53 8.31,0 9.41,-8.17 9.71,-10.42 0.04,-0.3 0.04,-0.59 0.6,-0.59 0.65,0 0.65,0.25 0.65,1.2 v 10 c 0,0.86 0,1.2 -0.55,1.2 -0.35,0 -0.41,-0.04 -0.75,-0.65 L 476,437.84 c -1.5,1.44 -3.54,3.48 -7.98,3.48 -5.53,0 -9.7,-4.39 -9.7,-9.67 0,-4.12 2.64,-7.76 6.51,-9.11 0.55,-0.2 3.1,-0.79 6.58,-1.64 1.34,-0.36 2.84,-0.7 4.23,-2.54 1.05,-1.3 1.55,-2.94 1.55,-4.58 0,-3.55 -2.48,-7.13 -6.67,-7.13 -1.45,0 -5.23,0.25 -7.88,2.69 -2.89,2.69 -3.04,5.87 -3.09,7.67 -0.05,0.5 -0.44,0.5 -0.59,0.5 -0.64,0 -0.64,-0.36 -0.64,-1.25 v -9.97 c 0,-0.84 0,-1.18 0.54,-1.18 0.35,0 0.39,0.09 0.74,0.64 0,0.04 0.15,0.2 1.79,2.84 1.55,-1.69 4.74,-3.48 9.18,-3.48 5.82,0 9.81,4.87 9.81,10.35 0,4.99 -3.28,9.07 -7.47,10.07 z"
           id="path5673"
           inkscape:connector-curvature="0"
           style="fill:#000000;stroke-width:0" /><path
           d="m 502.18,409.25 v -8.93 c 0,-2.25 -0.55,-2.25 -3.89,-2.25 v -1.54 c 1.68,0.06 4.28,0.15 5.57,0.15 1.35,0 3.89,-0.09 5.63,-0.15 v 1.54 c -3.33,0 -3.88,0 -3.88,2.25 v 27.89 h -1.09 l -1.91,-4.53 c -0.64,1.39 -2.68,4.53 -6.67,4.53 -5.78,0 -11.01,-4.82 -11.01,-11.29 0,-6.24 4.84,-11.27 10.62,-11.27 l 0.19,1.1 c -3.63,0 -6.67,4.43 -6.67,10.17 0,5.92 3.48,10.06 7.17,10.06 3.98,0 6.08,-4.34 6.08,-6.98 h 0 v -7.02 c 0,-1.59 -0.89,-3 -1.99,-4.19 -0.65,-0.7 -2.25,-2.04 -4.59,-2.04 l -0.19,-1.1 c 3.49,0 5.53,2.14 6.63,3.6 z"
           id="path5675"
           inkscape:connector-curvature="0"
           style="fill:#000000;stroke-width:0" /><path
           d="m 529,410.14 v -4.49 l 7.17,0.55 v 1.55 c -3.48,0 -3.89,0.34 -3.89,2.78 v 17.68 l -7.33,-0.54 v -1.55 c 3.5,0 3.89,-0.34 3.89,-2.78 v -8.88 c 0,-4.32 -2.39,-7.71 -6.03,-7.71 -4.17,0 -4.37,2.34 -4.37,4.93 v 16.53 l -7.33,-0.54 v -1.55 c 3.89,0 3.89,-0.14 3.89,-4.58 v -7.47 c 0,-3.89 0,-8.42 7.56,-8.42 2.8,0 4.99,1.39 6.44,4.49 z"
           id="path5677"
           inkscape:connector-curvature="0"
           style="fill:#000000;stroke-width:0" /><path
           d="m 553.83,409.98 0.02,-0.19 0.03,-0.18 0.04,-0.19 0.04,-0.18 0.05,-0.19 0.05,-0.18 0.06,-0.18 0.07,-0.18 0.08,-0.18 0.08,-0.17 0.09,-0.18 0.09,-0.16 0.1,-0.16 0.11,-0.16 0.11,-0.16 0.12,-0.14 0.13,-0.14 0.13,-0.14 0.14,-0.13 0.14,-0.12 0.15,-0.12 0.16,-0.1 0.16,-0.1 0.17,-0.09 0.18,-0.08 0.18,-0.07 0.18,-0.06 0.2,-0.05 0.2,-0.04 0.2,-0.03 0.21,-0.02 0.22,-0.01 c 1.03,0 4.08,0.71 4.08,4.74 v 2.78 h -1.25 v -2.78 c 0,-2.89 -1.24,-3.19 -1.8,-3.19 -1.64,0 -1.84,2.23 -1.84,2.48 v 9.97 c 0,2.1 0,4.03 -1.79,5.88 -1.95,1.93 -4.43,2.73 -6.82,2.73 -4.1,0 -7.53,-2.33 -7.53,-5.62 0,-1.49 1,-2.35 2.29,-2.35 1.39,0 2.3,1 2.3,2.3 0,0.59 -0.25,2.23 -2.55,2.3 1.35,1.73 3.78,2.28 5.38,2.28 2.45,0 5.28,-1.94 5.28,-6.38 v -1.84 -1.05 -4.98 c 0,-4.74 -3.58,-6.42 -5.83,-6.42 -2.44,0 -4.48,1.75 -4.48,4.23 0,2.73 2.09,6.88 10.31,7.17 h 0 v 1.05 c -2.53,-0.14 -6.02,-0.3 -9.16,-1.8 -3.73,-1.69 -4.98,-4.28 -4.98,-6.47 0,-4.03 4.83,-5.28 7.97,-5.28 3.29,0 5.58,1.99 6.53,4.33 z"
           id="path5679"
           inkscape:connector-curvature="0"
           style="fill:#000000;stroke-width:0" /><path
           d="m 570.5,422.75 v 5.46 l -6.92,-0.54 v -1.55 c 3.49,0 3.89,-0.34 3.89,-2.78 v -13.36 c 0,-2.23 -0.54,-2.23 -3.89,-2.23 v -1.55 c 1.95,0.05 4.28,0.16 5.69,0.16 1.98,0 4.33,0 6.33,-0.16 v 1.55 h -1.05 c -3.69,0 -3.8,0.54 -3.8,2.34 v 7.67 c 0,4.92 2.1,9.36 5.9,9.36 0.34,0 0.43,0 0.54,-0.05 -0.16,-0.04 -1.16,-0.64 -1.16,-1.93 0,-1.41 1.05,-2.14 2.16,-2.14 0.89,0 2.14,0.59 2.14,2.18 0,1.6 -1.55,3.03 -3.68,3.03 -3.65,0 -5.44,-3.32 -6.15,-5.46 z"
           id="path5681"
           inkscape:connector-curvature="0"
           style="fill:#000000;stroke-width:0" /><path
           d="m 587.28,417.71 0.05,1.05 c 0.29,7.42 4.48,8.66 6.19,8.66 5.12,0 5.62,-6.72 5.62,-8.66 h -11.81 l -0.05,-1.05 h 13.91 c 1.09,0 1.23,0 1.23,1.05 0,4.92 -2.69,9.75 -8.9,9.75 -5.79,0 -10.38,-5.12 -10.38,-11.36 0,-6.67 5.24,-11.5 10.97,-11.5 6.08,0 8.31,5.53 8.31,6.47 0,0.5 -0.39,0.61 -0.64,0.61 -0.45,0 -0.55,-0.3 -0.66,-0.7 -1.73,-5.13 -6.21,-5.13 -6.71,-5.13 -2.5,0 -4.49,1.49 -5.63,3.33 -1.5,2.39 -1.5,5.69 -1.5,7.48 z"
           id="path5683"
           inkscape:connector-curvature="0"
           style="fill:#000000;stroke-width:0" /><path
           d="m 665.67,435.34 0.09,0.26 0.09,0.25 0.1,0.23 0.11,0.22 0.12,0.21 0.12,0.19 0.12,0.19 0.14,0.17 0.13,0.16 0.15,0.16 0.14,0.14 0.15,0.13 0.16,0.12 0.16,0.11 0.16,0.1 0.16,0.1 0.17,0.08 0.17,0.08 0.18,0.07 0.17,0.07 0.18,0.05 0.18,0.05 0.18,0.04 0.18,0.04 0.19,0.03 0.18,0.03 0.18,0.02 0.19,0.02 0.37,0.02 0.36,0 v 1.55 c -1.48,-0.11 -3.03,-0.16 -4.53,-0.16 -1.44,0 -4.62,0.11 -5.92,0.16 v -1.55 c 3.33,-0.04 4.33,-1.68 4.33,-2.64 0,-0.29 -0.14,-0.7 -0.25,-1 l -7.47,-23.01 -7.97,24.4 c -0.06,0.21 -0.16,0.5 -0.16,0.75 0,1.5 2.89,1.5 4.19,1.5 v 1.55 c -1.8,-0.16 -5.19,-0.16 -7.08,-0.16 -1.89,0 -4.03,0.11 -6.07,0.16 v -1.55 c 2.84,0 3.88,0 4.48,-1.79 l 1.09,-3.49 -6.92,-21.37 -8.02,24.51 c -0.04,0.14 -0.1,0.5 -0.1,0.64 0,1.5 2.89,1.5 4.18,1.5 v 1.55 c -1.79,-0.16 -5.17,-0.16 -7.08,-0.16 -1.88,0 -4.03,0.11 -6.07,0.16 v -1.55 c 3.75,0 3.94,-0.25 4.54,-2.09 l 9.96,-30.55 c 0.15,-0.43 0.29,-0.93 0.95,-0.93 0.69,0 0.8,0.34 1,1 l 8.22,25.29 8.27,-25.36 c 0.15,-0.43 0.29,-0.93 0.95,-0.93 0.68,0 0.8,0.34 0.98,1 z"
           id="path5685"
           inkscape:connector-curvature="0"
           style="fill:#000000;stroke-width:0" /><path
           d="m 672.96,417.71 0.04,1.05 c 0.3,7.42 4.49,8.66 6.19,8.66 5.13,0 5.63,-6.72 5.63,-8.66 H 673 l -0.04,-1.05 h 13.9 c 1.1,0 1.24,0 1.24,1.05 0,4.92 -2.69,9.75 -8.91,9.75 -5.78,0 -10.37,-5.12 -10.37,-11.36 0,-6.67 5.23,-11.5 10.96,-11.5 6.08,0 8.32,5.53 8.32,6.47 0,0.5 -0.39,0.61 -0.64,0.61 -0.46,0 -0.55,-0.3 -0.66,-0.7 -1.73,-5.13 -6.22,-5.13 -6.72,-5.13 -2.5,0 -4.48,1.49 -5.62,3.33 -1.5,2.39 -1.5,5.69 -1.5,7.48 z"
           id="path5687"
           inkscape:connector-curvature="0"
           style="fill:#000000;stroke-width:0" /><path
           d="m 698.32,440.78 -7.17,-0.55 v -1.55 c 3.48,0 3.88,-0.34 3.88,-2.79 v -25.91 c 0,-2.23 -0.54,-2.23 -3.88,-2.23 v -1.55 c 1.63,0.05 4.28,0.16 5.53,0.16 1.25,0 3.68,-0.11 5.53,-0.16 v 1.55 c -3.35,0 -3.89,0 -3.89,2.23 z"
           id="path5689"
           inkscape:connector-curvature="0"
           style="fill:#000000;stroke-width:0" /><path
           d="m 712.11,440.78 -7.17,-0.55 v -1.55 c 3.49,0 3.89,-0.34 3.89,-2.79 v -25.91 c 0,-2.23 -0.55,-2.23 -3.89,-2.23 v -1.55 c 1.64,0.05 4.28,0.16 5.53,0.16 1.25,0 3.69,-0.11 5.53,-0.16 v 1.55 c -3.34,0 -3.89,0 -3.89,2.23 z"
           id="path5691"
           inkscape:connector-curvature="0"
           style="fill:#000000;stroke-width:0" /></g>    </g>
    <g
       id="g6316"
       transform="matrix(1.1758363,0,0,1.1758363,-56.491398,-156.87899)">
      <g
         transform="translate(251.04707,618.24489)"
         id="g5809">
        <g
           style="font-style:normal;font-variant:normal;font-weight:normal;font-stretch:normal;letter-spacing:normal;word-spacing:normal;text-anchor:start;fill:none;stroke:#000000;stroke-width:0.8504585;stroke-linecap:butt;stroke-linejoin:miter;stroke-miterlimit:10.43299961;stroke-opacity:1;stroke-dasharray:none;stroke-dashoffset:0"
           id="g5811"
           transform="matrix(0.15427243,0,0,-0.15427243,-26.997675,336.33712)"
           xml:space="preserve"
           stroke-miterlimit="10.433"
           font-style="normal"
           font-variant="normal"
           font-weight="normal"
           font-stretch="normal"
           font-size-adjust="none"
           letter-spacing="normal"
           word-spacing="normal"><path
             style="fill:#000000;stroke-width:0"
             inkscape:connector-curvature="0"
             d="m 472.91,425.53 -6.37,1.54 c -3.1,0.75 -5.04,3.44 -5.04,6.33 0,3.49 2.69,6.53 6.58,6.53 8.31,0 9.41,-8.17 9.71,-10.42 0.04,-0.3 0.04,-0.59 0.6,-0.59 0.65,0 0.65,0.25 0.65,1.2 v 10 c 0,0.86 0,1.2 -0.55,1.2 -0.35,0 -0.41,-0.04 -0.75,-0.65 L 476,437.84 c -1.5,1.44 -3.54,3.48 -7.98,3.48 -5.53,0 -9.7,-4.39 -9.7,-9.67 0,-4.12 2.64,-7.76 6.51,-9.11 0.55,-0.2 3.1,-0.79 6.58,-1.64 1.34,-0.36 2.84,-0.7 4.23,-2.54 1.05,-1.3 1.55,-2.94 1.55,-4.58 0,-3.55 -2.48,-7.13 -6.67,-7.13 -1.45,0 -5.23,0.25 -7.88,2.69 -2.89,2.69 -3.04,5.87 -3.09,7.67 -0.05,0.5 -0.44,0.5 -0.59,0.5 -0.64,0 -0.64,-0.36 -0.64,-1.25 v -9.97 c 0,-0.84 0,-1.18 0.54,-1.18 0.35,0 0.39,0.09 0.74,0.64 0,0.04 0.15,0.2 1.79,2.84 1.55,-1.69 4.74,-3.48 9.18,-3.48 5.82,0 9.81,4.87 9.81,10.35 0,4.99 -3.28,9.07 -7.47,10.07 z"
             id="path5813" /><path
             style="fill:#000000;stroke-width:0"
             inkscape:connector-curvature="0"
             d="m 492.05,428.21 -6.97,-0.54 v -1.55 c 3.24,0 3.69,-0.3 3.69,-2.73 v -13.41 c 0,-2.23 -0.55,-2.23 -3.89,-2.23 v -1.55 c 1.59,0.05 4.28,0.16 5.48,0.16 1.75,0 3.49,-0.11 5.19,-0.16 v 1.55 c -3.3,0 -3.5,0.25 -3.5,2.18 z"
             id="path5815" /><path
             style="fill:#000000;stroke-width:0"
             inkscape:connector-curvature="0"
             d="m 492.25,436.89 0,0.14 -0.01,0.15 -0.02,0.14 -0.02,0.14 -0.03,0.13 -0.04,0.13 -0.04,0.13 -0.05,0.12 -0.06,0.12 -0.06,0.12 -0.06,0.11 -0.07,0.1 -0.08,0.1 -0.08,0.1 -0.09,0.1 -0.08,0.08 -0.1,0.09 -0.1,0.08 -0.1,0.07 -0.1,0.07 -0.11,0.07 -0.11,0.06 -0.11,0.05 -0.12,0.05 -0.12,0.04 -0.12,0.04 -0.12,0.03 -0.12,0.03 -0.13,0.02 -0.13,0.01 -0.13,0.01 -0.13,0.01 c -1.54,0 -2.64,-1.35 -2.64,-2.64 0,-1.35 1.1,-2.64 2.64,-2.64 1.39,0 2.64,1.04 2.64,2.64 z"
             id="path5817" /><path
             style="fill:#000000;stroke-width:0"
             inkscape:connector-curvature="0"
             d="m 502.52,423.34 v -13.36 c 0,-2.23 -0.55,-2.23 -3.89,-2.23 v -1.55 c 1.75,0.05 4.28,0.16 5.62,0.16 1.3,0 3.89,-0.11 5.58,-0.16 v 1.55 c -3.33,0 -3.87,0 -3.87,2.23 v 9.17 c 0,5.19 3.53,7.97 6.72,7.97 3.14,0 3.68,-2.69 3.68,-5.53 v -11.61 c 0,-2.23 -0.54,-2.23 -3.89,-2.23 v -1.55 c 1.75,0.05 4.3,0.16 5.64,0.16 1.3,0 3.88,-0.11 5.58,-0.16 v 1.55 c -3.34,0 -3.89,0 -3.89,2.23 v 9.17 c 0,5.19 3.55,7.97 6.73,7.97 3.15,0 3.69,-2.69 3.69,-5.53 v -11.61 c 0,-2.23 -0.54,-2.23 -3.89,-2.23 v -1.55 c 1.74,0.05 4.28,0.16 5.63,0.16 1.29,0 3.89,-0.11 5.57,-0.16 v 1.55 c -2.57,0 -3.82,0 -3.87,1.5 v 9.51 c 0,4.28 0,5.83 -1.55,7.61 -0.7,0.86 -2.34,1.84 -5.23,1.84 -4.19,0 -6.38,-2.98 -7.22,-4.87 -0.7,4.33 -4.39,4.87 -6.63,4.87 -3.64,0 -5.98,-2.14 -7.37,-5.21 v 5.21 l -7.03,-0.54 v -1.55 c 3.48,0 3.89,-0.34 3.89,-2.78 z"
             id="path5819" /><path
             style="fill:#000000;stroke-width:0"
             inkscape:connector-curvature="0"
             d="m 547.12,424.93 v 3.28 l -7.17,-0.54 v -1.55 c 3.54,0 3.89,-0.3 3.89,-2.48 v -23.32 c 0,-2.25 -0.55,-2.25 -3.89,-2.25 v -1.54 c 1.7,0.06 4.28,0.15 5.57,0.15 1.35,0 3.89,-0.09 5.64,-0.15 v 1.54 c -3.34,0 -3.89,0 -3.89,2.25 v 8.36 0.46 l 0.71,0.65 c -0.71,1.05 -0.71,1.1 -0.71,2.08 h 0 V 423 c 1.44,2.53 3.89,3.98 6.43,3.98 3.64,0 6.68,-4.39 6.68,-10.02 0,-6.03 -3.5,-10.21 -7.18,-10.21 -1.99,0 -3.88,1 -5.22,3.04 l -0.71,-0.65 c 0.25,-0.8 2.35,-3.49 6.13,-3.49 5.94,0 11.11,4.88 11.11,11.31 0,6.33 -4.83,11.25 -10.41,11.25 -3.89,0 -5.98,-2.18 -6.98,-3.28 z"
             id="path5821" /><path
             style="fill:#000000;stroke-width:0"
             inkscape:connector-curvature="0"
             d="m 575.09,440.78 -7.18,-0.55 v -1.55 c 3.49,0 3.89,-0.34 3.89,-2.79 v -25.91 c 0,-2.23 -0.54,-2.23 -3.89,-2.23 v -1.55 c 1.64,0.05 4.29,0.16 5.54,0.16 1.25,0 3.68,-0.11 5.53,-0.16 v 1.55 c -3.35,0 -3.89,0 -3.89,2.23 z"
             id="path5823" /><path
             style="fill:#000000;stroke-width:0"
             inkscape:connector-curvature="0"
             d="m 585.6,417.71 0.05,1.05 c 0.3,7.42 4.48,8.66 6.19,8.66 5.12,0 5.62,-6.72 5.62,-8.66 h -11.81 l -0.05,-1.05 h 13.91 c 1.09,0 1.23,0 1.23,1.05 0,4.92 -2.69,9.75 -8.9,9.75 -5.79,0 -10.38,-5.12 -10.38,-11.36 0,-6.67 5.24,-11.5 10.97,-11.5 6.08,0 8.31,5.53 8.31,6.47 0,0.5 -0.39,0.61 -0.64,0.61 -0.45,0 -0.55,-0.3 -0.65,-0.7 -1.74,-5.13 -6.22,-5.13 -6.72,-5.13 -2.5,0 -4.49,1.49 -5.63,3.33 -1.5,2.39 -1.5,5.69 -1.5,7.48 z"
             id="path5825" /><path
             style="fill:#000000;stroke-width:0"
             inkscape:connector-curvature="0"
             d="m 649.38,436.34 0,0.16 0,0.16 0,0.15 0.01,0.15 0.01,0.13 0.01,0.13 0.02,0.13 0.02,0.11 0.03,0.12 0.03,0.1 0.05,0.1 0.05,0.09 0.06,0.09 0.06,0.08 0.08,0.08 0.09,0.07 0.1,0.06 0.11,0.06 0.06,0.03 0.07,0.03 0.06,0.02 0.07,0.03 0.08,0.02 0.08,0.02 0.08,0.02 0.08,0.02 0.09,0.02 0.09,0.02 0.1,0.02 0.1,0.01 0.1,0.01 0.11,0.02 0.12,0.01 0.11,0.01 0.13,0.01 0.12,0.01 0.13,0.01 0.14,0.01 0.14,0 0.15,0.01 0.15,0 0.15,0.01 0.16,0 0.17,0 0.17,0 0.18,0 h 1.2 v 1.55 c -1.75,-0.16 -5.44,-0.16 -7.33,-0.16 -1.89,0 -5.62,0 -7.37,0.16 v -1.55 h 1.2 c 3.83,0 3.94,-0.54 3.94,-2.34 v -11.66 h -14.91 v 11.66 c 0,1.8 0.11,2.34 3.94,2.34 h 1.2 v 1.55 c -1.75,-0.16 -5.44,-0.16 -7.33,-0.16 -1.89,0 -5.62,0 -7.37,0.16 v -1.55 h 1.2 c 3.83,0 3.94,-0.54 3.94,-2.34 v -26.25 c 0,-1.8 -0.11,-2.34 -3.94,-2.34 h -1.2 v -1.55 c 1.75,0.16 5.44,0.16 7.33,0.16 1.89,0 5.62,0 7.37,-0.16 v 1.55 h -1.2 c -3.83,0 -3.94,0.54 -3.94,2.34 v 13.05 h 14.91 v -13.05 c 0,-1.8 -0.11,-2.34 -3.94,-2.34 h -1.2 v -1.55 c 1.75,0.16 5.43,0.16 7.32,0.16 1.9,0 5.63,0 7.38,-0.16 v 1.55 h -1.2 c -3.83,0 -3.92,0.54 -3.92,2.34 z"
             id="path5827" /><path
             style="fill:#000000;stroke-width:0"
             inkscape:connector-curvature="0"
             d="m 672.74,409.98 0.02,-0.19 0.03,-0.18 0.04,-0.19 0.04,-0.18 0.05,-0.19 0.05,-0.18 0.06,-0.18 0.07,-0.18 0.08,-0.18 0.08,-0.17 0.09,-0.18 0.09,-0.16 0.1,-0.16 0.11,-0.16 0.11,-0.16 0.12,-0.14 0.13,-0.14 0.13,-0.14 0.14,-0.13 0.14,-0.12 0.15,-0.12 0.16,-0.1 0.16,-0.1 0.17,-0.09 0.18,-0.08 0.18,-0.07 0.18,-0.06 0.2,-0.05 0.2,-0.04 0.2,-0.03 0.21,-0.02 0.22,-0.01 c 1.03,0 4.08,0.71 4.08,4.74 v 2.78 h -1.25 v -2.78 c 0,-2.89 -1.24,-3.19 -1.8,-3.19 -1.64,0 -1.84,2.23 -1.84,2.48 v 9.97 c 0,2.1 0,4.03 -1.79,5.88 -1.95,1.93 -4.43,2.73 -6.82,2.73 -4.1,0 -7.53,-2.33 -7.53,-5.62 0,-1.49 1,-2.35 2.29,-2.35 1.39,0 2.3,1 2.3,2.3 0,0.59 -0.25,2.23 -2.55,2.3 1.35,1.73 3.78,2.28 5.38,2.28 2.45,0 5.28,-1.94 5.28,-6.38 v -1.84 -1.05 -4.98 c 0,-4.74 -3.58,-6.42 -5.83,-6.42 -2.44,0 -4.48,1.75 -4.48,4.23 0,2.73 2.09,6.88 10.31,7.17 h 0 v 1.05 c -2.53,-0.14 -6.02,-0.3 -9.16,-1.8 -3.73,-1.69 -4.98,-4.28 -4.98,-6.47 0,-4.03 4.83,-5.28 7.97,-5.28 3.29,0 5.57,1.99 6.53,4.33 z"
             id="path5829" /><path
             style="fill:#000000;stroke-width:0"
             inkscape:connector-curvature="0"
             d="m 689.41,422.75 v 5.46 l -6.92,-0.54 v -1.55 c 3.49,0 3.89,-0.34 3.89,-2.78 v -13.36 c 0,-2.23 -0.54,-2.23 -3.89,-2.23 v -1.55 c 1.96,0.05 4.28,0.16 5.69,0.16 1.98,0 4.33,0 6.33,-0.16 v 1.55 h -1.05 c -3.69,0 -3.8,0.54 -3.8,2.34 v 7.67 c 0,4.92 2.1,9.36 5.89,9.36 0.35,0 0.44,0 0.55,-0.05 -0.15,-0.04 -1.15,-0.64 -1.15,-1.93 0,-1.41 1.04,-2.14 2.15,-2.14 0.89,0 2.14,0.59 2.14,2.18 0,1.6 -1.54,3.03 -3.69,3.03 -3.64,0 -5.43,-3.32 -6.14,-5.46 z"
             id="path5831" /><path
             style="fill:#000000;stroke-width:0"
             inkscape:connector-curvature="0"
             d="m 706.15,423.34 v -13.36 c 0,-2.23 -0.55,-2.23 -3.9,-2.23 v -1.55 c 1.75,0.05 4.28,0.16 5.63,0.16 1.3,0 3.89,-0.11 5.58,-0.16 v 1.55 c -3.33,0 -3.88,0 -3.88,2.23 v 9.17 c 0,5.19 3.53,7.97 6.72,7.97 3.14,0 3.69,-2.69 3.69,-5.53 v -11.61 c 0,-2.23 -0.55,-2.23 -3.89,-2.23 v -1.55 c 1.75,0.05 4.3,0.16 5.64,0.16 1.29,0 3.87,-0.11 5.58,-0.16 v 1.55 c -3.35,0 -3.89,0 -3.89,2.23 v 9.17 c 0,5.19 3.54,7.97 6.73,7.97 3.14,0 3.69,-2.69 3.69,-5.53 v -11.61 c 0,-2.23 -0.55,-2.23 -3.89,-2.23 v -1.55 c 1.73,0.05 4.28,0.16 5.62,0.16 1.3,0 3.89,-0.11 5.58,-0.16 v 1.55 c -2.58,0 -3.83,0 -3.88,1.5 v 9.51 c 0,4.28 0,5.83 -1.54,7.61 -0.71,0.86 -2.34,1.84 -5.24,1.84 -4.18,0 -6.37,-2.98 -7.22,-4.87 -0.7,4.33 -4.38,4.87 -6.62,4.87 -3.64,0 -5.98,-2.14 -7.38,-5.21 v 5.21 l -7.03,-0.54 v -1.55 c 3.49,0 3.9,-0.34 3.9,-2.78 z"
             id="path5833" /><path
             style="fill:#000000;stroke-width:0"
             inkscape:connector-curvature="0"
             d="m 765.65,416.86 -0.02,0.59 -0.04,0.59 -0.07,0.58 -0.1,0.57 -0.12,0.56 -0.15,0.55 -0.18,0.54 -0.19,0.53 -0.23,0.51 -0.24,0.5 -0.27,0.49 -0.29,0.47 -0.31,0.46 -0.32,0.44 -0.35,0.43 -0.37,0.4 -0.38,0.39 -0.4,0.37 -0.42,0.35 -0.43,0.32 -0.45,0.31 -0.46,0.28 -0.47,0.26 -0.49,0.24 -0.5,0.21 -0.51,0.18 -0.52,0.16 -0.53,0.13 -0.54,0.11 -0.55,0.07 -0.55,0.05 -0.57,0.01 -0.04,-1.09 c 2.18,0 4.32,-1.1 5.62,-3.24 1.3,-2.14 1.3,-5.03 1.3,-6.92 0,-1.8 0,-4.48 -1.1,-6.67 -1.09,-2.25 -3.28,-3.69 -5.78,-3.69 h 0 c -2.14,0 -4.33,1.05 -5.67,3.33 -1.25,2.2 -1.25,5.23 -1.25,7.03 0,1.94 0,4.63 1.19,6.83 1.36,2.28 3.69,3.33 5.69,3.33 l 0.04,1.09 c -6.22,0 -11.06,-5.42 -11.06,-11.65 0,-6.43 5.19,-11.21 11.02,-11.21 6.03,0 11.06,4.88 11.06,11.21 z"
             id="path5835" /><path
             style="fill:#000000;stroke-width:0"
             inkscape:connector-curvature="0"
             d="m 772.62,423.34 v -13.36 c 0,-2.23 -0.55,-2.23 -3.89,-2.23 v -1.55 c 1.75,0.05 4.28,0.16 5.62,0.16 1.3,0 3.9,-0.11 5.58,-0.16 v 1.55 c -3.33,0 -3.87,0 -3.87,2.23 v 9.17 c 0,5.19 3.53,7.97 6.72,7.97 3.14,0 3.69,-2.69 3.69,-5.53 v -11.61 c 0,-2.23 -0.55,-2.23 -3.9,-2.23 v -1.55 c 1.75,0.05 4.3,0.16 5.65,0.16 1.29,0 3.87,-0.11 5.57,-0.16 v 1.55 c -2.59,0 -3.84,0 -3.89,1.5 v 9.51 c 0,4.28 0,5.83 -1.55,7.61 -0.68,0.86 -2.34,1.84 -5.21,1.84 -3.64,0 -5.99,-2.14 -7.38,-5.21 v 5.21 l -7.03,-0.54 v -1.55 c 3.49,0 3.89,-0.34 3.89,-2.78 z"
             id="path5837" /><path
             style="fill:#000000;stroke-width:0"
             inkscape:connector-curvature="0"
             d="m 803.67,428.21 -6.97,-0.54 v -1.55 c 3.23,0 3.69,-0.3 3.69,-2.73 v -13.41 c 0,-2.23 -0.55,-2.23 -3.89,-2.23 v -1.55 c 1.59,0.05 4.28,0.16 5.48,0.16 1.75,0 3.49,-0.11 5.19,-0.16 v 1.55 c -3.3,0 -3.5,0.25 -3.5,2.18 z"
             id="path5839" /><path
             style="fill:#000000;stroke-width:0"
             inkscape:connector-curvature="0"
             d="m 803.87,436.89 0,0.14 -0.01,0.15 -0.02,0.14 -0.03,0.14 -0.03,0.13 -0.03,0.13 -0.05,0.13 -0.05,0.12 -0.05,0.12 -0.06,0.12 -0.07,0.11 -0.07,0.1 -0.07,0.1 -0.08,0.1 -0.09,0.1 -0.09,0.08 -0.09,0.09 -0.1,0.08 -0.1,0.07 -0.1,0.07 -0.11,0.07 -0.11,0.06 -0.11,0.05 -0.12,0.05 -0.12,0.04 -0.12,0.04 -0.12,0.03 -0.13,0.03 -0.12,0.02 -0.13,0.01 -0.13,0.01 -0.13,0.01 c -1.55,0 -2.64,-1.35 -2.64,-2.64 0,-1.35 1.09,-2.64 2.64,-2.64 1.39,0 2.64,1.04 2.64,2.64 z"
             id="path5841" /><path
             style="fill:#000000;stroke-width:0"
             inkscape:connector-curvature="0"
             d="m 814.48,417.06 0,0.38 0.01,0.36 0.02,0.36 0.02,0.35 0.02,0.34 0.03,0.34 0.04,0.32 0.04,0.32 0.05,0.31 0.05,0.3 0.05,0.29 0.07,0.29 0.13,0.55 0.15,0.51 0.17,0.49 0.18,0.46 0.2,0.43 0.2,0.4 0.23,0.38 0.23,0.35 0.24,0.32 0.25,0.3 0.25,0.28 0.27,0.26 0.27,0.23 0.27,0.21 0.28,0.19 0.28,0.16 0.29,0.15 0.28,0.13 0.28,0.12 0.28,0.09 0.28,0.08 0.28,0.06 0.27,0.05 0.26,0.03 0.26,0.02 0.26,0.01 c 0.43,0 3.57,-0.05 5.32,-1.85 -2.04,-0.15 -2.34,-1.64 -2.34,-2.29 0,-1.3 0.89,-2.3 2.3,-2.3 1.28,0 2.28,0.86 2.28,2.34 0,3.39 -3.78,5.33 -7.63,5.33 -6.22,0 -10.81,-5.37 -10.81,-11.55 0,-6.37 4.94,-11.31 10.72,-11.31 6.67,0 8.26,5.99 8.26,6.47 0,0.5 -0.5,0.5 -0.64,0.5 -0.45,0 -0.54,-0.19 -0.65,-0.5 -1.44,-4.62 -4.68,-5.22 -6.52,-5.22 -2.64,0 -7.03,2.14 -7.03,10.16 z"
             id="path5843" /></g>      </g>
      <g
         transform="translate(263.73752,626.65116)"
         id="g5997">
        <g
           style="font-style:normal;font-variant:normal;font-weight:normal;font-stretch:normal;letter-spacing:normal;word-spacing:normal;text-anchor:start;fill:none;stroke:#000000;stroke-width:0.8504585;stroke-linecap:butt;stroke-linejoin:miter;stroke-miterlimit:10.43299961;stroke-opacity:1;stroke-dasharray:none;stroke-dashoffset:0"
           word-spacing="normal"
           letter-spacing="normal"
           font-size-adjust="none"
           font-stretch="normal"
           font-weight="normal"
           font-variant="normal"
           font-style="normal"
           stroke-miterlimit="10.433"
           xml:space="preserve"
           transform="matrix(0.15427243,0,0,-0.15427243,-26.997675,336.33712)"
           id="g5999"><path
             style="fill:#000000;stroke-width:0"
             inkscape:connector-curvature="0"
             id="path6001"
             d="m 491.44,423.09 -0.02,0.95 -0.07,0.93 -0.1,0.92 -0.15,0.9 -0.19,0.89 -0.22,0.86 -0.27,0.85 -0.3,0.83 -0.33,0.81 -0.37,0.79 -0.4,0.76 -0.44,0.74 -0.47,0.72 -0.49,0.68 -0.53,0.66 -0.55,0.64 -0.58,0.6 -0.6,0.57 -0.63,0.54 -0.65,0.5 -0.67,0.47 -0.7,0.44 -0.71,0.4 -0.74,0.36 -0.75,0.33 -0.77,0.28 -0.78,0.25 -0.8,0.2 -0.81,0.16 -0.82,0.11 -0.84,0.07 -0.84,0.02 v -1.25 c 4.34,0 11.47,-3.53 11.47,-16.28 0,-13.2 -6.83,-17.39 -11.43,-17.39 h 0 c -4.78,0 -11.45,4.38 -11.45,17.39 0,12.89 7.28,16.28 11.41,16.28 v 1.25 c -8.92,0 -16.53,-7.96 -16.53,-18.23 0,-10.22 7.67,-17.98 16.53,-17.98 9.06,0 16.59,7.92 16.59,17.98 z" /><path
             style="fill:#000000;stroke-width:0"
             inkscape:connector-curvature="0"
             id="path6003"
             d="m 504.64,415.87 0.11,-0.02 0.13,-0.02 0.14,-0.03 0.15,-0.04 0.17,-0.04 0.18,-0.04 0.19,-0.05 0.2,-0.06 0.2,-0.06 0.21,-0.07 0.22,-0.08 0.22,-0.08 0.22,-0.1 0.22,-0.1 0.22,-0.11 0.22,-0.12 0.22,-0.14 0.21,-0.14 0.2,-0.15 0.2,-0.16 0.19,-0.18 0.18,-0.19 0.17,-0.2 0.16,-0.21 0.14,-0.22 0.07,-0.12 0.06,-0.12 0.06,-0.13 0.05,-0.12 0.05,-0.14 0.05,-0.13 0.04,-0.14 0.03,-0.14 0.03,-0.15 0.03,-0.15 0.02,-0.16 0.01,-0.15 0.01,-0.17 0,-0.16 c 0,-2.53 -1.75,-4.53 -5.62,-4.53 -4.19,0 -5.99,2.84 -6.94,7.07 -0.14,0.64 -0.19,0.85 -0.69,0.85 -0.65,0 -0.65,-0.35 -0.65,-1.25 v -6.58 c 0,-0.84 0,-1.19 0.54,-1.19 0.25,0 0.3,0.05 1.25,1 0.1,0.1 0.1,0.19 1,1.14 2.19,-2.09 4.44,-2.14 5.49,-2.14 5.72,0 8.02,3.35 8.02,6.92 0,2.64 -1.51,4.14 -2.1,4.74 -1.64,1.59 -3.59,2 -5.69,2.39 -2.78,0.55 -6.12,1.2 -6.12,4.09 0,1.74 1.3,3.78 5.58,3.78 5.48,0 5.73,-4.48 5.82,-6.03 0.07,-0.45 0.5,-0.45 0.61,-0.45 0.64,0 0.64,0.25 0.64,1.2 v 5.03 c 0,0.85 0,1.19 -0.54,1.19 -0.25,0 -0.35,0 -1,-0.59 -0.14,-0.21 -0.64,-0.64 -0.85,-0.8 -1.89,1.39 -3.93,1.39 -4.68,1.39 -6.08,0 -7.97,-3.33 -7.97,-6.12 0,-1.74 0.79,-3.14 2.14,-4.24 1.59,-1.29 3,-1.59 6.58,-2.28 z" /><path
             style="fill:#000000;stroke-width:0"
             inkscape:connector-curvature="0"
             id="path6005"
             d="m 519.78,417.06 0.01,0.38 0.01,0.36 0.01,0.36 0.02,0.35 0.03,0.34 0.03,0.34 0.03,0.32 0.05,0.32 0.04,0.31 0.05,0.3 0.06,0.29 0.06,0.29 0.13,0.55 0.16,0.51 0.16,0.49 0.19,0.46 0.19,0.43 0.21,0.4 0.22,0.38 0.23,0.35 0.24,0.32 0.25,0.3 0.26,0.28 0.26,0.26 0.27,0.23 0.28,0.21 0.28,0.19 0.28,0.16 0.28,0.15 0.28,0.13 0.29,0.12 0.28,0.09 0.28,0.08 0.27,0.06 0.27,0.05 0.27,0.03 0.26,0.02 0.25,0.01 c 0.44,0 3.58,-0.05 5.33,-1.85 -2.05,-0.15 -2.35,-1.64 -2.35,-2.29 0,-1.3 0.9,-2.3 2.3,-2.3 1.28,0 2.28,0.86 2.28,2.34 0,3.39 -3.78,5.33 -7.62,5.33 -6.22,0 -10.81,-5.37 -10.81,-11.55 0,-6.37 4.93,-11.31 10.71,-11.31 6.67,0 8.27,5.99 8.27,6.47 0,0.5 -0.5,0.5 -0.64,0.5 -0.46,0 -0.55,-0.19 -0.66,-0.5 -1.43,-4.62 -4.67,-5.22 -6.51,-5.22 -2.64,0 -7.04,2.14 -7.04,10.16 z" /><path
             style="fill:#000000;stroke-width:0"
             inkscape:connector-curvature="0"
             id="path6007"
             d="m 544.85,428.21 -6.97,-0.54 v -1.55 c 3.23,0 3.69,-0.3 3.69,-2.73 v -13.41 c 0,-2.23 -0.55,-2.23 -3.89,-2.23 v -1.55 c 1.59,0.05 4.28,0.16 5.48,0.16 1.75,0 3.49,-0.11 5.19,-0.16 v 1.55 c -3.3,0 -3.5,0.25 -3.5,2.18 z" /><path
             style="fill:#000000;stroke-width:0"
             inkscape:connector-curvature="0"
             id="path6009"
             d="m 545.05,436.89 0,0.14 -0.01,0.15 -0.02,0.14 -0.03,0.14 -0.03,0.13 -0.03,0.13 -0.05,0.13 -0.05,0.12 -0.05,0.12 -0.06,0.12 -0.07,0.11 -0.07,0.1 -0.07,0.1 -0.08,0.1 -0.09,0.1 -0.09,0.08 -0.09,0.09 -0.1,0.08 -0.1,0.07 -0.1,0.07 -0.11,0.07 -0.11,0.06 -0.11,0.05 -0.12,0.05 -0.12,0.04 -0.12,0.04 -0.12,0.03 -0.13,0.03 -0.12,0.02 -0.13,0.01 -0.13,0.01 -0.13,0.01 c -1.55,0 -2.64,-1.35 -2.64,-2.64 0,-1.35 1.09,-2.64 2.64,-2.64 1.39,0 2.64,1.04 2.64,2.64 z" /><path
             style="fill:#000000;stroke-width:0"
             inkscape:connector-curvature="0"
             id="path6011"
             d="m 558.65,440.78 -7.18,-0.55 v -1.55 c 3.49,0 3.89,-0.34 3.89,-2.79 v -25.91 c 0,-2.23 -0.54,-2.23 -3.89,-2.23 v -1.55 c 1.64,0.05 4.28,0.16 5.53,0.16 1.25,0 3.69,-0.11 5.53,-0.16 v 1.55 c -3.34,0 -3.88,0 -3.88,2.23 z" /><path
             style="fill:#000000;stroke-width:0"
             inkscape:connector-curvature="0"
             id="path6013"
             d="m 572.44,440.78 -7.17,-0.55 v -1.55 c 3.48,0 3.89,-0.34 3.89,-2.79 v -25.91 c 0,-2.23 -0.55,-2.23 -3.89,-2.23 v -1.55 c 1.64,0.05 4.28,0.16 5.53,0.16 1.25,0 3.69,-0.11 5.53,-0.16 v 1.55 c -3.34,0 -3.89,0 -3.89,2.23 z" /><path
             style="fill:#000000;stroke-width:0"
             inkscape:connector-curvature="0"
             id="path6015"
             d="m 594.02,409.98 0.02,-0.19 0.03,-0.18 0.04,-0.19 0.04,-0.18 0.05,-0.19 0.05,-0.18 0.07,-0.18 0.06,-0.18 0.08,-0.18 0.08,-0.17 0.09,-0.18 0.09,-0.16 0.1,-0.16 0.11,-0.16 0.11,-0.16 0.12,-0.14 0.13,-0.14 0.13,-0.14 0.14,-0.13 0.14,-0.12 0.15,-0.12 0.16,-0.1 0.16,-0.1 0.17,-0.09 0.18,-0.08 0.18,-0.07 0.19,-0.06 0.19,-0.05 0.2,-0.04 0.2,-0.03 0.21,-0.02 0.22,-0.01 c 1.03,0 4.08,0.71 4.08,4.74 v 2.78 h -1.25 v -2.78 c 0,-2.89 -1.24,-3.19 -1.8,-3.19 -1.64,0 -1.84,2.23 -1.84,2.48 v 9.97 c 0,2.1 0,4.03 -1.78,5.88 -1.96,1.93 -4.44,2.73 -6.83,2.73 -4.09,0 -7.53,-2.33 -7.53,-5.62 0,-1.49 1,-2.35 2.29,-2.35 1.4,0 2.3,1 2.3,2.3 0,0.59 -0.25,2.23 -2.55,2.3 1.35,1.73 3.78,2.28 5.38,2.28 2.45,0 5.28,-1.94 5.28,-6.38 v -1.84 -1.05 -4.98 c 0,-4.74 -3.58,-6.42 -5.83,-6.42 -2.43,0 -4.48,1.75 -4.48,4.23 0,2.73 2.09,6.88 10.31,7.17 h 0 v 1.05 c -2.53,-0.14 -6.01,-0.3 -9.16,-1.8 -3.73,-1.69 -4.98,-4.28 -4.98,-6.47 0,-4.03 4.83,-5.28 7.97,-5.28 3.29,0 5.58,1.99 6.53,4.33 z" /><path
             style="fill:#000000;stroke-width:0"
             inkscape:connector-curvature="0"
             id="path6017"
             d="m 611.01,426.12 h 7.12 v 1.55 h -7.12 v 9.17 h -1.25 c -0.05,-4.08 -1.55,-9.42 -6.42,-9.61 v -1.11 h 4.23 v -13.75 c 0,-6.12 4.63,-6.72 6.42,-6.72 3.53,0 4.94,3.53 4.94,6.72 v 2.84 h -1.25 v -2.73 c 0,-3.69 -1.5,-5.58 -3.34,-5.58 -3.33,0 -3.33,4.53 -3.33,5.38 z" /><path
             style="fill:#000000;stroke-width:0"
             inkscape:connector-curvature="0"
             id="path6019"
             d="m 645.17,416.86 -0.02,0.59 -0.04,0.59 -0.07,0.58 -0.1,0.57 -0.12,0.56 -0.15,0.55 -0.18,0.54 -0.19,0.53 -0.23,0.51 -0.24,0.5 -0.27,0.49 -0.29,0.47 -0.31,0.46 -0.32,0.44 -0.35,0.43 -0.37,0.4 -0.38,0.39 -0.4,0.37 -0.42,0.35 -0.43,0.32 -0.45,0.31 -0.46,0.28 -0.47,0.26 -0.49,0.24 -0.5,0.21 -0.51,0.18 -0.52,0.16 -0.53,0.13 -0.54,0.11 -0.55,0.07 -0.56,0.05 -0.56,0.01 -0.05,-1.09 c 2.19,0 4.33,-1.1 5.63,-3.24 1.3,-2.14 1.3,-5.03 1.3,-6.92 0,-1.8 0,-4.48 -1.1,-6.67 -1.09,-2.25 -3.28,-3.69 -5.78,-3.69 h 0 c -2.14,0 -4.33,1.05 -5.67,3.33 -1.25,2.2 -1.25,5.23 -1.25,7.03 0,1.94 0,4.63 1.19,6.83 1.36,2.28 3.68,3.33 5.68,3.33 l 0.05,1.09 c -6.22,0 -11.06,-5.42 -11.06,-11.65 0,-6.43 5.19,-11.21 11.01,-11.21 6.04,0 11.07,4.88 11.07,11.21 z" /><path
             style="fill:#000000;stroke-width:0"
             inkscape:connector-curvature="0"
             id="path6021"
             d="m 654.97,422.75 v 5.46 l -6.92,-0.54 v -1.55 c 3.48,0 3.89,-0.34 3.89,-2.78 v -13.36 c 0,-2.23 -0.55,-2.23 -3.89,-2.23 v -1.55 c 1.95,0.05 4.28,0.16 5.68,0.16 1.99,0 4.33,0 6.33,-0.16 v 1.55 h -1.04 c -3.69,0 -3.8,0.54 -3.8,2.34 v 7.67 c 0,4.92 2.09,9.36 5.89,9.36 0.34,0 0.44,0 0.55,-0.05 -0.16,-0.04 -1.16,-0.64 -1.16,-1.93 0,-1.41 1.05,-2.14 2.16,-2.14 0.89,0 2.14,0.59 2.14,2.18 0,1.6 -1.55,3.03 -3.69,3.03 -3.64,0 -5.44,-3.32 -6.14,-5.46 z" /></g>      </g>
    </g>
    <g
       id="g6201"
       transform="matrix(1.1758363,0,0,1.1758363,422.02672,576.07581)">
      <g
         word-spacing="normal"
         letter-spacing="normal"
         font-size-adjust="none"
         font-stretch="normal"
         font-weight="normal"
         font-variant="normal"
         font-style="normal"
         stroke-miterlimit="10.433"
         xml:space="preserve"
         transform="matrix(0.15427243,0,0,-0.15427243,-26.997675,336.33712)"
         id="g6203"
         style="font-style:normal;font-variant:normal;font-weight:normal;font-stretch:normal;letter-spacing:normal;word-spacing:normal;text-anchor:start;fill:none;stroke:#000000;stroke-width:0.8504585;stroke-linecap:butt;stroke-linejoin:miter;stroke-miterlimit:10.43299961;stroke-opacity:1;stroke-dasharray:none;stroke-dashoffset:0"><path
           id="path6205"
           d="m 458.32,423.23 0.02,-0.96 0.07,-0.94 0.11,-0.93 0.16,-0.91 0.2,-0.89 0.24,-0.87 0.28,-0.85 0.32,-0.83 0.36,-0.81 0.39,-0.78 0.43,-0.76 0.46,-0.74 0.49,-0.7 0.52,-0.68 0.55,-0.66 0.59,-0.62 0.6,-0.59 0.64,-0.56 0.66,-0.53 0.68,-0.5 0.7,-0.46 0.73,-0.43 0.74,-0.39 0.77,-0.35 0.78,-0.32 0.79,-0.28 0.82,-0.23 0.82,-0.2 0.84,-0.15 0.84,-0.11 0.86,-0.07 0.86,-0.02 c 8.13,0 13,6.92 13,12.7 0,0.5 0,0.84 -0.64,0.84 -0.54,0 -0.54,-0.29 -0.59,-0.79 -0.41,-7.13 -5.73,-11.21 -11.17,-11.21 -3.03,0 -12.8,1.69 -12.8,16.53 0,14.91 9.72,16.6 12.75,16.6 5.44,0 9.88,-4.53 10.86,-11.82 0.11,-0.68 0.11,-0.84 0.8,-0.84 0.79,0 0.79,0.16 0.79,1.2 v 11.8 c 0,0.86 0,1.2 -0.54,1.2 -0.19,0 -0.39,0 -0.8,-0.59 l -2.48,-3.69 c -1.85,1.8 -4.39,4.28 -9.18,4.28 -9.31,0 -17.32,-7.92 -17.32,-18.09 z"
           inkscape:connector-curvature="0"
           style="fill:#000000;stroke-width:0" /><path
           id="path6207"
           d="m 514.99,416.86 -0.02,0.59 -0.04,0.59 -0.07,0.58 -0.1,0.57 -0.12,0.56 -0.15,0.55 -0.18,0.54 -0.2,0.53 -0.22,0.51 -0.24,0.5 -0.27,0.49 -0.29,0.47 -0.31,0.46 -0.32,0.44 -0.35,0.43 -0.37,0.4 -0.38,0.39 -0.4,0.37 -0.42,0.35 -0.43,0.32 -0.45,0.31 -0.46,0.28 -0.47,0.26 -0.49,0.24 -0.5,0.21 -0.51,0.18 -0.52,0.16 -0.53,0.13 -0.54,0.11 -0.55,0.07 -0.55,0.05 -0.57,0.01 -0.04,-1.09 c 2.18,0 4.32,-1.1 5.62,-3.24 1.3,-2.14 1.3,-5.03 1.3,-6.92 0,-1.8 0,-4.48 -1.1,-6.67 -1.09,-2.25 -3.28,-3.69 -5.78,-3.69 h 0 c -2.14,0 -4.33,1.05 -5.67,3.33 -1.25,2.2 -1.25,5.23 -1.25,7.03 0,1.94 0,4.63 1.19,6.83 1.36,2.28 3.69,3.33 5.69,3.33 l 0.04,1.09 c -6.22,0 -11.06,-5.42 -11.06,-11.65 0,-6.43 5.19,-11.21 11.02,-11.21 6.03,0 11.06,4.88 11.06,11.21 z"
           inkscape:connector-curvature="0"
           style="fill:#000000;stroke-width:0" /><path
           id="path6209"
           d="m 535.96,410.14 v -4.49 l 7.17,0.55 v 1.55 c -3.48,0 -3.89,0.34 -3.89,2.78 v 17.68 l -7.33,-0.54 v -1.55 c 3.5,0 3.89,-0.34 3.89,-2.78 v -8.88 c 0,-4.32 -2.39,-7.71 -6.03,-7.71 -4.17,0 -4.37,2.34 -4.37,4.93 v 16.53 l -7.33,-0.54 v -1.55 c 3.89,0 3.89,-0.14 3.89,-4.58 v -7.47 c 0,-3.89 0,-8.42 7.56,-8.42 2.8,0 4.99,1.39 6.44,4.49 z"
           inkscape:connector-curvature="0"
           style="fill:#000000;stroke-width:0" /><path
           id="path6211"
           d="m 553.01,440.78 -7.17,-0.55 v -1.55 c 3.48,0 3.89,-0.34 3.89,-2.79 v -25.91 c 0,-2.23 -0.55,-2.23 -3.89,-2.23 v -1.55 c 1.64,0.05 4.28,0.16 5.53,0.16 1.25,0 3.68,-0.11 5.53,-0.16 v 1.55 c -3.35,0 -3.89,0 -3.89,2.23 z"
           inkscape:connector-curvature="0"
           style="fill:#000000;stroke-width:0" /><path
           id="path6213"
           d="m 581.46,416.86 -0.01,0.59 -0.05,0.59 -0.07,0.58 -0.09,0.57 -0.13,0.56 -0.15,0.55 -0.17,0.54 -0.2,0.53 -0.22,0.51 -0.25,0.5 -0.27,0.49 -0.28,0.47 -0.31,0.46 -0.33,0.44 -0.35,0.43 -0.37,0.4 -0.38,0.39 -0.4,0.37 -0.42,0.35 -0.43,0.32 -0.45,0.31 -0.46,0.28 -0.47,0.26 -0.49,0.24 -0.5,0.21 -0.51,0.18 -0.52,0.16 -0.53,0.13 -0.54,0.11 -0.55,0.07 -0.55,0.05 -0.56,0.01 -0.05,-1.09 c 2.19,0 4.33,-1.1 5.62,-3.24 1.3,-2.14 1.3,-5.03 1.3,-6.92 0,-1.8 0,-4.48 -1.09,-6.67 -1.1,-2.25 -3.28,-3.69 -5.78,-3.69 h 0 c -2.15,0 -4.33,1.05 -5.68,3.33 -1.25,2.2 -1.25,5.23 -1.25,7.03 0,1.94 0,4.63 1.19,6.83 1.36,2.28 3.69,3.33 5.69,3.33 l 0.05,1.09 c -6.22,0 -11.07,-5.42 -11.07,-11.65 0,-6.43 5.19,-11.21 11.02,-11.21 6.03,0 11.06,4.88 11.06,11.21 z"
           inkscape:connector-curvature="0"
           style="fill:#000000;stroke-width:0" /><path
           id="path6215"
           d="m 588.43,423.34 v -13.36 c 0,-2.23 -0.54,-2.23 -3.89,-2.23 v -1.55 c 1.75,0.05 4.28,0.16 5.63,0.16 1.3,0 3.89,-0.11 5.58,-0.16 v 1.55 c -3.33,0 -3.88,0 -3.88,2.23 v 9.17 c 0,5.19 3.53,7.97 6.72,7.97 3.14,0 3.69,-2.69 3.69,-5.53 v -11.61 c 0,-2.23 -0.55,-2.23 -3.89,-2.23 v -1.55 c 1.75,0.05 4.29,0.16 5.64,0.16 1.29,0 3.87,-0.11 5.57,-0.16 v 1.55 c -3.34,0 -3.88,0 -3.88,2.23 v 9.17 c 0,5.19 3.54,7.97 6.73,7.97 3.14,0 3.69,-2.69 3.69,-5.53 v -11.61 c 0,-2.23 -0.55,-2.23 -3.89,-2.23 v -1.55 c 1.73,0.05 4.28,0.16 5.62,0.16 1.3,0 3.89,-0.11 5.58,-0.16 v 1.55 c -2.58,0 -3.83,0 -3.88,1.5 v 9.51 c 0,4.28 0,5.83 -1.54,7.61 -0.71,0.86 -2.35,1.84 -5.24,1.84 -4.19,0 -6.37,-2.98 -7.22,-4.87 -0.7,4.33 -4.39,4.87 -6.62,4.87 -3.64,0 -5.98,-2.14 -7.38,-5.21 v 5.21 l -7.03,-0.54 v -1.55 c 3.49,0 3.89,-0.34 3.89,-2.78 z"
           inkscape:connector-curvature="0"
           style="fill:#000000;stroke-width:0" /><path
           id="path6217"
           d="m 631.59,424.98 v 15.8 l -7.17,-0.55 v -1.55 c 3.48,0 3.89,-0.34 3.89,-2.79 V 406.2 h 1.25 c 0.04,0.05 0.44,0.75 1.78,3.09 0.75,-1.15 2.84,-3.64 6.53,-3.64 l -0.2,1.1 c -2.24,0 -4.03,1.2 -5.22,3.04 -0.7,1.05 -0.7,1.19 -0.7,2.08 h 0 v 10.27 c 0,0.95 0,1 0.54,1.79 1.94,2.8 4.69,3.19 5.88,3.19 2.25,0 4.05,-1.3 5.23,-3.19 1.3,-2.04 1.45,-4.87 1.45,-6.92 0,-1.84 -0.1,-4.83 -1.54,-7.08 -1.05,-1.54 -2.94,-3.18 -5.64,-3.18 l 0.2,-1.1 c 5.94,0 11.11,4.88 11.11,11.31 0,6.33 -4.88,11.25 -10.56,11.25 -3.88,0 -6.03,-2.34 -6.83,-3.23 z"
           inkscape:connector-curvature="0"
           style="fill:#000000;stroke-width:0" /></g>    </g>
  </g>
</svg>
