<?xml version="1.0" encoding="UTF-8" standalone="no"?>
<!-- Created with Inkscape (http://www.inkscape.org/) -->

<svg
   xmlns:dc="http://purl.org/dc/elements/1.1/"
   xmlns:cc="http://creativecommons.org/ns#"
   xmlns:rdf="http://www.w3.org/1999/02/22-rdf-syntax-ns#"
   xmlns:svg="http://www.w3.org/2000/svg"
   xmlns="http://www.w3.org/2000/svg"
   xmlns:sodipodi="http://sodipodi.sourceforge.net/DTD/sodipodi-0.dtd"
   xmlns:inkscape="http://www.inkscape.org/namespaces/inkscape"
   sodipodi:docname="particle in a cube.svg"
   inkscape:version="0.48.2 r9819"
   version="1.1"
   id="svg2"
   height="203.27164"
   width="424.8364">
  <sodipodi:namedview
     id="base"
     pagecolor="#ffffff"
     bordercolor="#666666"
     borderopacity="1.0"
     inkscape:pageopacity="0.0"
     inkscape:pageshadow="2"
     inkscape:zoom="1.8783701"
     inkscape:cx="212.4182"
     inkscape:cy="104.81363"
     inkscape:document-units="px"
     inkscape:current-layer="svg2"
     showgrid="false"
     inkscape:window-width="1366"
     inkscape:window-height="721"
     inkscape:window-x="0"
     inkscape:window-y="21"
     inkscape:window-maximized="1"
     fit-margin-top="0"
     fit-margin-left="0"
     fit-margin-right="0"
     fit-margin-bottom="0"
     showguides="true"
     inkscape:guide-bbox="true"
     inkscape:snap-bbox="true"
     inkscape:bbox-nodes="true"
     inkscape:snap-bbox-edge-midpoints="true"
     inkscape:object-nodes="true"
     inkscape:snap-midpoints="true"
     inkscape:snap-smooth-nodes="true"
     inkscape:snap-object-midpoints="true"
     inkscape:snap-center="true"
     inkscape:snap-global="false" />
  <defs
     id="defs4">
    <inkscape:perspective
       sodipodi:type="inkscape:persp3d"
       inkscape:vp_x="-231.16401 : 55.3584 : 0"
       inkscape:vp_y="0 : 1000 : 0"
       inkscape:vp_z="236.64631 : 40.12977 : 0"
       inkscape:persp3d-origin="352.45213 : 186.55943 : 1"
       id="perspective9012" />
    <inkscape:perspective
       sodipodi:type="inkscape:persp3d"
       inkscape:vp_x="-231.16401 : 55.3584 : 0"
       inkscape:vp_y="0 : 1000 : 0"
       inkscape:vp_z="236.64631 : 40.12977 : 0"
       inkscape:persp3d-origin="358.54359 : 196.9149 : 1"
       id="perspective8968" />
    <marker
       inkscape:stockid="StopM"
       orient="auto"
       refY="0"
       refX="0"
       id="StopM"
       style="overflow:visible">
      <path
         id="path7406"
         d="M 0,5.65 0,-5.65"
         style="fill:none;stroke:#000000;stroke-width:1pt"
         transform="scale(0.4,0.4)"
         inkscape:connector-curvature="0" />
    </marker>
    <marker
       inkscape:stockid="StopL"
       orient="auto"
       refY="0"
       refX="0"
       id="StopL"
       style="overflow:visible">
      <path
         inkscape:connector-curvature="0"
         id="path3932"
         d="M 0,5.65 0,-5.65"
         style="fill:none;stroke:#000000;stroke-width:1pt"
         transform="scale(0.8,0.8)" />
    </marker>
    <marker
       style="overflow:visible"
       id="DistanceEnd"
       refX="0"
       refY="0"
       orient="auto"
       inkscape:stockid="DistanceEnd">
      <g
         id="g3818">
        <path
           inkscape:connector-curvature="0"
           style="fill:none;stroke:#ffffff;stroke-width:1.14999998;stroke-linecap:square"
           d="M 0,0 -2,0"
           id="path2316" />
        <path
           inkscape:connector-curvature="0"
           style="fill:#000000;fill-rule:evenodd;stroke:none"
           d="M 0,0 -13,4 -9,0 -13,-4 0,0 z"
           id="path2312" />
        <path
           inkscape:connector-curvature="0"
           style="fill:none;stroke:#000000;stroke-width:1;stroke-linecap:square"
           d="M 0,-4 0,40"
           id="path2314" />
      </g>
    </marker>
    <marker
       style="overflow:visible"
       id="DistanceStart"
       refX="0"
       refY="0"
       orient="auto"
       inkscape:stockid="DistanceStart">
      <g
         id="g2300">
        <path
           inkscape:connector-curvature="0"
           style="fill:none;stroke:#ffffff;stroke-width:1.14999998;stroke-linecap:square"
           d="M 0,0 2,0"
           id="path2306" />
        <path
           inkscape:connector-curvature="0"
           style="fill:#000000;fill-rule:evenodd;stroke:none"
           d="M 0,0 13,4 9,0 13,-4 0,0 z"
           id="path2302" />
        <path
           inkscape:connector-curvature="0"
           style="fill:none;stroke:#000000;stroke-width:1;stroke-linecap:square"
           d="M 0,-4 0,40"
           id="path2304" />
      </g>
    </marker>
    <marker
       inkscape:stockid="Arrow2Mstart"
       orient="auto"
       refY="0"
       refX="0"
       id="Arrow2Mstart"
       style="overflow:visible">
      <path
         inkscape:connector-curvature="0"
         id="path3786"
         style="font-size:12px;fill-rule:evenodd;stroke-width:0.625;stroke-linejoin:round"
         d="M 8.7185878,4.0337352 -2.2072895,0.01601326 8.7185884,-4.0017078 c -1.7454984,2.3720609 -1.7354408,5.6174519 -6e-7,8.035443 z"
         transform="scale(0.6,0.6)" />
    </marker>
    <marker
       inkscape:stockid="Arrow1Sstart"
       orient="auto"
       refY="0"
       refX="0"
       id="Arrow1Sstart"
       style="overflow:visible">
      <path
         inkscape:connector-curvature="0"
         id="path3774"
         d="M 0,0 5,-5 -12.5,0 5,5 0,0 z"
         style="fill-rule:evenodd;stroke:#000000;stroke-width:1pt;marker-start:none"
         transform="matrix(0.2,0,0,0.2,1.2,0)" />
    </marker>
    <marker
       inkscape:stockid="Arrow2Sstart"
       orient="auto"
       refY="0"
       refX="0"
       id="Arrow2Sstart"
       style="overflow:visible">
      <path
         inkscape:connector-curvature="0"
         id="path3792"
         style="font-size:12px;fill-rule:evenodd;stroke-width:0.625;stroke-linejoin:round"
         d="M 8.7185878,4.0337352 -2.2072895,0.01601326 8.7185884,-4.0017078 c -1.7454984,2.3720609 -1.7354408,5.6174519 -6e-7,8.035443 z"
         transform="matrix(0.3,0,0,0.3,-0.69,0)" />
    </marker>
    <marker
       inkscape:stockid="Arrow2Mend"
       orient="auto"
       refY="0"
       refX="0"
       id="Arrow2Mend"
       style="overflow:visible">
      <path
         inkscape:connector-curvature="0"
         id="path3789"
         style="font-size:12px;fill-rule:evenodd;stroke-width:0.625;stroke-linejoin:round"
         d="M 8.7185878,4.0337352 -2.2072895,0.01601326 8.7185884,-4.0017078 c -1.7454984,2.3720609 -1.7354408,5.6174519 -6e-7,8.035443 z"
         transform="scale(-0.6,-0.6)" />
    </marker>
    <marker
       inkscape:stockid="Arrow2Mstartw"
       orient="auto"
       refY="0"
       refX="0"
       id="Arrow2Mstartw"
       style="overflow:visible">
      <path
         inkscape:connector-curvature="0"
         id="path7255"
         style="font-size:12px;fill:#0000ff;fill-rule:evenodd;stroke:#0000ff;stroke-width:0.625;stroke-linejoin:round"
         d="M 8.7185878,4.0337352 -2.2072895,0.01601326 8.7185884,-4.0017078 c -1.7454984,2.3720609 -1.7354408,5.6174519 -6e-7,8.035443 z"
         transform="scale(0.6,0.6)" />
    </marker>
    <marker
       inkscape:stockid="Arrow2MendM"
       orient="auto"
       refY="0"
       refX="0"
       id="Arrow2MendM"
       style="overflow:visible">
      <path
         inkscape:connector-curvature="0"
         id="path7598"
         style="font-size:12px;fill:#0000ff;fill-rule:evenodd;stroke:#0000ff;stroke-width:0.625;stroke-linejoin:round"
         d="M 8.7185878,4.0337352 -2.2072895,0.01601326 8.7185884,-4.0017078 c -1.7454984,2.3720609 -1.7354408,5.6174519 -6e-7,8.035443 z"
         transform="scale(-0.6,-0.6)" />
    </marker>
    <marker
       inkscape:stockid="StopLQ"
       orient="auto"
       refY="0"
       refX="0"
       id="StopLQ"
       style="overflow:visible">
      <path
         inkscape:connector-curvature="0"
         id="path16328"
         d="M 0,5.65 0,-5.65"
         style="fill:none;stroke:#0000ff;stroke-width:1pt"
         transform="scale(0.8,0.8)" />
    </marker>
    <marker
       inkscape:stockid="StopLg"
       orient="auto"
       refY="0"
       refX="0"
       id="StopLg"
       style="overflow:visible">
      <path
         inkscape:connector-curvature="0"
         id="path16331"
         d="M 0,5.65 0,-5.65"
         style="fill:none;stroke:#0000ff;stroke-width:1pt"
         transform="scale(0.8,0.8)" />
    </marker>
    <marker
       inkscape:stockid="StopMM"
       orient="auto"
       refY="0"
       refX="0"
       id="StopMM"
       style="overflow:visible">
      <path
         id="path7946"
         d="M 0,5.65 0,-5.65"
         style="fill:none;stroke:#ff0000;stroke-width:1pt"
         transform="scale(0.4,0.4)"
         inkscape:connector-curvature="0" />
    </marker>
    <marker
       inkscape:stockid="StopMU"
       orient="auto"
       refY="0"
       refX="0"
       id="StopMU"
       style="overflow:visible">
      <path
         id="path7949"
         d="M 0,5.65 0,-5.65"
         style="fill:none;stroke:#ff0000;stroke-width:1pt"
         transform="scale(0.4,0.4)"
         inkscape:connector-curvature="0" />
    </marker>
    <marker
       inkscape:stockid="Arrow2MendM"
       orient="auto"
       refY="0"
       refX="0"
       id="Arrow2MendM-2"
       style="overflow:visible">
      <path
         inkscape:connector-curvature="0"
         id="path7598-9"
         style="font-size:12px;fill:#0000ff;fill-rule:evenodd;stroke:#0000ff;stroke-width:0.625;stroke-linejoin:round"
         d="M 8.7185878,4.0337352 -2.2072895,0.01601326 8.7185884,-4.0017078 c -1.7454984,2.3720609 -1.7354408,5.6174519 -6e-7,8.035443 z"
         transform="scale(-0.6,-0.6)" />
    </marker>
    <marker
       inkscape:stockid="StopMW"
       orient="auto"
       refY="0"
       refX="0"
       id="StopMW"
       style="overflow:visible">
      <path
         id="path9536"
         d="M 0,5.65 0,-5.65"
         style="fill:none;stroke:#0000ff;stroke-width:1pt"
         transform="scale(0.4,0.4)"
         inkscape:connector-curvature="0" />
    </marker>
    <marker
       inkscape:stockid="StopMR"
       orient="auto"
       refY="0"
       refX="0"
       id="StopMR"
       style="overflow:visible">
      <path
         id="path9539"
         d="M 0,5.65 0,-5.65"
         style="fill:none;stroke:#0000ff;stroke-width:1pt"
         transform="scale(0.4,0.4)"
         inkscape:connector-curvature="0" />
    </marker>
    <marker
       inkscape:stockid="StopMW"
       orient="auto"
       refY="0"
       refX="0"
       id="StopMW-5"
       style="overflow:visible">
      <path
         id="path9536-6"
         d="M 0,5.65 0,-5.65"
         style="fill:none;stroke:#0000ff;stroke-width:1pt"
         transform="scale(0.4,0.4)"
         inkscape:connector-curvature="0" />
    </marker>
    <marker
       inkscape:stockid="StopMR"
       orient="auto"
       refY="0"
       refX="0"
       id="StopMR-0"
       style="overflow:visible">
      <path
         id="path9539-4"
         d="M 0,5.65 0,-5.65"
         style="fill:none;stroke:#0000ff;stroke-width:1pt"
         transform="scale(0.4,0.4)"
         inkscape:connector-curvature="0" />
    </marker>
    <marker
       inkscape:stockid="StopMW"
       orient="auto"
       refY="0"
       refX="0"
       id="StopMW-9"
       style="overflow:visible">
      <path
         id="path9536-9"
         d="M 0,5.65 0,-5.65"
         style="fill:none;stroke:#0000ff;stroke-width:1pt"
         transform="scale(0.4,0.4)"
         inkscape:connector-curvature="0" />
    </marker>
    <marker
       inkscape:stockid="StopMR"
       orient="auto"
       refY="0"
       refX="0"
       id="StopMR-2"
       style="overflow:visible">
      <path
         id="path9539-0"
         d="M 0,5.65 0,-5.65"
         style="fill:none;stroke:#0000ff;stroke-width:1pt"
         transform="scale(0.4,0.4)"
         inkscape:connector-curvature="0" />
    </marker>
  </defs>
  <metadata
     id="metadata7">
    <rdf:RDF>
      <cc:Work
         rdf:about="">
        <dc:format>image/svg+xml</dc:format>
        <dc:type
           rdf:resource="http://purl.org/dc/dcmitype/StillImage" />
        <dc:title />
      </cc:Work>
    </rdf:RDF>
  </metadata>
  <g
     inkscape:label="Layer 1"
     inkscape:groupmode="layer"
     id="layer1"
     transform="translate(-257.81874,-739.22253)" />
  <path
     inkscape:connector-curvature="0"
     id="path4370"
     d="m 27.538438,1.5118737 0,189.1724663"
     style="fill:none;stroke:#0000ff;stroke-width:1px;stroke-linecap:butt;stroke-linejoin:miter;stroke-opacity:1;marker-start:url(#Arrow2Mstartw);marker-mid:none" />
  <path
     inkscape:connector-curvature="0"
     id="path4374"
     d="m 16.544898,180.23789 197.232292,0"
     style="fill:none;stroke:#0000ff;stroke-width:1px;stroke-linecap:butt;stroke-linejoin:miter;stroke-opacity:1;marker-start:none;marker-mid:none;marker-end:url(#Arrow2MendM)" />
  <path
     inkscape:connector-curvature="0"
     id="path4374-2"
     d="M 17.110908,190.57678 114.63221,93.024091"
     style="fill:none;stroke:#0000ff;stroke-width:0.99999994px;stroke-linecap:butt;stroke-linejoin:miter;stroke-opacity:1;marker-start:none;marker-mid:none;marker-end:url(#Arrow2MendM)" />
  <path
     style="fill:none;stroke:#ff0000;stroke-width:1px;stroke-linecap:butt;stroke-linejoin:miter;stroke-opacity:1"
     d="m 27.535918,67.385181 38.51843,-38.62312"
     id="path9036"
     inkscape:connector-curvature="0" />
  <path
     style="fill:none;stroke:#ff0000;stroke-width:1px;stroke-linecap:butt;stroke-linejoin:miter;stroke-opacity:1"
     d="m 140.26038,180.34135 38.51839,-38.62313"
     id="path9038"
     inkscape:connector-curvature="0" />
  <path
     style="fill:none;stroke:#ff0000;stroke-width:1px;stroke-linecap:butt;stroke-linejoin:miter;stroke-opacity:1"
     d="M 139.98126,67.385181 178.49965,28.762062"
     id="path9040"
     inkscape:connector-curvature="0" />
  <path
     style="fill:none;stroke:#ff0000;stroke-width:1px;stroke-linecap:butt;stroke-linejoin:miter;stroke-opacity:1"
     d="m 27.535918,180.1483 38.51843,-38.62313"
     id="path9042"
     inkscape:connector-curvature="0" />
  <path
     style="fill:#0000ff;stroke:#0000ff;stroke-width:1px;stroke-linecap:butt;stroke-linejoin:miter;stroke-opacity:1;marker-start:url(#StopMW);marker-end:url(#StopMR)"
     d="m 29.434008,165.6044 33.79291,-33.88509"
     id="path9042-4"
     inkscape:connector-curvature="0" />
  <path
     style="fill:#0000ff;stroke:#0000ff;stroke-width:0.99999988px;stroke-linecap:butt;stroke-linejoin:miter;stroke-opacity:1;marker-start:url(#StopMW);marker-end:url(#StopMR)"
     d="m 7.7877686,180.15068 -10e-4,-111.983719"
     id="path9042-4-2"
     inkscape:connector-curvature="0" />
  <path
     style="fill:#0000ff;stroke:#0000ff;stroke-width:0.99999976px;stroke-linecap:butt;stroke-linejoin:miter;stroke-opacity:1;marker-start:url(#StopMW);marker-end:url(#StopMR)"
     d="m 27.532248,195.14075 112.972052,-0.001"
     id="path9042-4-2-1"
     inkscape:connector-curvature="0" />
  <g
     transform="matrix(0.69808431,0,0,0.69808431,18.114635,52.877546)"
     id="g9749">
    <g
       style="font-style:normal;font-variant:normal;font-weight:normal;font-stretch:normal;letter-spacing:normal;word-spacing:normal;text-anchor:start;fill:none;stroke:#000000;stroke-width:1.43249178;stroke-linecap:butt;stroke-linejoin:miter;stroke-miterlimit:10.43299961;stroke-opacity:1;stroke-dasharray:none;stroke-dashoffset:0"
       word-spacing="normal"
       letter-spacing="normal"
       font-size-adjust="none"
       font-stretch="normal"
       font-weight="normal"
       font-variant="normal"
       font-style="normal"
       stroke-miterlimit="10.433"
       xml:space="preserve"
       transform="matrix(0.3439694,0,0,-0.3439694,-60.194645,354.96947)"
       id="content"><path
         style="fill:#000000;stroke-width:0"
         inkscape:connector-curvature="0"
         id="path9752"
         d="m 474.1,425.03 -0.09,0.17 -0.09,0.17 -0.09,0.16 -0.09,0.16 -0.1,0.16 -0.1,0.16 -0.11,0.15 -0.11,0.14 -0.11,0.15 -0.12,0.13 -0.12,0.14 -0.12,0.13 -0.13,0.12 -0.13,0.12 -0.14,0.11 -0.14,0.11 -0.14,0.11 -0.15,0.09 -0.15,0.1 -0.15,0.08 -0.16,0.08 -0.17,0.08 -0.17,0.06 -0.17,0.07 -0.17,0.05 -0.18,0.05 -0.19,0.04 -0.19,0.03 -0.19,0.03 -0.2,0.02 -0.2,0.01 -0.21,0 0.05,-1.09 c 3.23,0 3.93,-4.08 3.93,-4.37 0,-0.32 -0.09,-0.61 -0.14,-0.86 l -2.5,-9.77 c -0.25,-0.89 -0.25,-0.98 -1,-1.84 -2.18,-2.74 -4.23,-3.53 -5.62,-3.53 -2.49,0 -3.19,2.73 -3.19,4.68 0,2.49 1.59,8.61 2.74,10.91 1.54,2.94 3.79,4.78 5.78,4.78 l -0.05,1.09 c -5.83,0 -12,-7.31 -12,-14.59 0,-4.69 2.73,-7.97 6.62,-7.97 0.99,0 3.49,0.21 6.47,3.74 0.41,-2.1 2.14,-3.74 4.53,-3.74 1.75,0 2.9,1.14 3.69,2.74 0.85,1.79 1.5,4.84 1.5,4.93 0,0.5 -0.45,0.5 -0.59,0.5 -0.5,0 -0.55,-0.2 -0.7,-0.9 -0.85,-3.24 -1.75,-6.17 -3.79,-6.17 -1.34,0 -1.5,1.29 -1.5,2.29 0,1.1 0.1,1.49 0.64,3.69 0.57,2.09 0.66,2.59 1.11,4.48 l 1.79,6.97 c 0.35,1.39 0.35,1.5 0.35,1.69 0,0.86 -0.6,1.36 -1.45,1.36 -1.19,0 -1.94,-1.11 -2.09,-2.2 z" /></g>  </g>
  <g
     transform="matrix(0.69808431,0,0,0.69808431,-67.920242,-21.088184)"
     id="g9892">
    <g
       style="font-style:normal;font-variant:normal;font-weight:normal;font-stretch:normal;letter-spacing:normal;word-spacing:normal;text-anchor:start;fill:none;stroke:#000000;stroke-width:1.43249178;stroke-linecap:butt;stroke-linejoin:miter;stroke-miterlimit:10.43299961;stroke-opacity:1;stroke-dasharray:none;stroke-dashoffset:0"
       id="g9894"
       transform="matrix(0.3439694,0,0,-0.3439694,-60.194645,354.96947)"
       xml:space="preserve"
       stroke-miterlimit="10.433"
       font-style="normal"
       font-variant="normal"
       font-weight="normal"
       font-stretch="normal"
       font-size-adjust="none"
       letter-spacing="normal"
       word-spacing="normal"><path
         style="fill:#000000;stroke-width:0"
         inkscape:connector-curvature="0"
         d="m 467.43,440.23 0,0 0,0.01 0,0 0,0.01 -0.01,0.02 0,0.01 0,0.02 0,0.02 0,0.02 -0.01,0.02 0,0.02 -0.01,0.02 -0.01,0.02 -0.01,0.03 -0.01,0.02 -0.01,0.03 -0.01,0.02 -0.02,0.03 -0.02,0.02 -0.02,0.02 -0.02,0.03 -0.01,0.01 -0.02,0.01 -0.01,0.01 -0.01,0.01 -0.02,0.01 -0.01,0.01 -0.02,0.01 -0.01,0.01 -0.02,0.01 -0.02,0.01 -0.02,0 -0.02,0.01 -0.02,0.01 -0.02,0 -0.02,0.01 -0.02,0.01 -0.03,0 -0.02,0 -0.03,0.01 -0.02,0 -0.03,0 -0.03,0.01 -0.03,0 -0.02,0 c -1.16,0 -4.79,-0.41 -6.08,-0.5 -0.41,-0.05 -0.96,-0.1 -0.96,-1 0,-0.6 0.46,-0.6 1.21,-0.6 2.39,0 2.48,-0.34 2.48,-0.84 0,-0.36 -0.45,-2.05 -0.7,-3.09 l -4.08,-16.24 c -0.59,-2.5 -0.8,-3.3 -0.8,-5.03 0,-4.73 2.64,-7.83 6.33,-7.83 v 1.1 c -1.7,0 -3.34,1.34 -3.34,5.03 0,0.95 0,1.89 0.79,5.03 l 1.1,4.59 c 0.3,1.1 0.3,1.19 0.75,1.74 2.44,3.23 4.69,3.98 5.98,3.98 1.8,0 3.14,-1.48 3.14,-4.69 0,-2.93 -1.65,-8.65 -2.54,-10.56 -1.64,-3.33 -3.94,-5.12 -5.88,-5.12 v -1.1 c 5.88,0 12,7.42 12,14.6 0,4.53 -2.64,7.96 -6.62,7.96 -2.28,0 -4.33,-1.43 -5.83,-2.98 z"
         id="path9896" /></g>  </g>
  <g
     transform="matrix(0.69808431,0,0,0.69808431,-25.775282,-6.9956037)"
     id="g10042">
    <g
       style="font-style:normal;font-variant:normal;font-weight:normal;font-stretch:normal;letter-spacing:normal;word-spacing:normal;text-anchor:start;fill:none;stroke:#000000;stroke-width:1.43249178;stroke-linecap:butt;stroke-linejoin:miter;stroke-miterlimit:10.43299961;stroke-opacity:1;stroke-dasharray:none;stroke-dashoffset:0"
       word-spacing="normal"
       letter-spacing="normal"
       font-size-adjust="none"
       font-stretch="normal"
       font-weight="normal"
       font-variant="normal"
       font-style="normal"
       stroke-miterlimit="10.433"
       xml:space="preserve"
       transform="matrix(0.3439694,0,0,-0.3439694,-60.194645,354.96947)"
       id="g10044"><path
         style="fill:#000000;stroke-width:0"
         inkscape:connector-curvature="0"
         id="path10046"
         d="m 475.25,425.14 -0.14,0 -0.15,0 -0.15,-0.01 -0.14,0 -0.14,-0.01 -0.14,-0.02 -0.07,-0.01 -0.07,-0.01 -0.06,-0.02 -0.07,-0.01 -0.07,-0.02 -0.07,-0.02 -0.07,-0.02 -0.06,-0.02 -0.07,-0.03 -0.07,-0.03 -0.06,-0.03 -0.07,-0.04 -0.07,-0.04 -0.06,-0.04 -0.07,-0.05 -0.07,-0.04 -0.06,-0.06 -0.07,-0.05 -0.06,-0.06 -0.07,-0.07 c -0.8,-0.75 -0.89,-1.59 -0.89,-1.93 0,-1.21 0.89,-1.75 1.84,-1.75 1.44,0 2.8,1.2 2.8,3.18 0,2.44 -2.34,4.28 -5.89,4.28 -6.72,0 -13.34,-7.12 -13.34,-14.14 0,-4.48 2.89,-8.42 8.06,-8.42 7.12,0 11.31,5.28 11.31,5.88 0,0.29 -0.3,0.65 -0.59,0.65 -0.25,0 -0.35,-0.11 -0.66,-0.5 -3.94,-4.93 -9.36,-4.93 -9.95,-4.93 -3.14,0 -4.49,2.43 -4.49,5.43 0,2.03 0.99,6.88 2.69,9.96 1.55,2.84 4.28,4.98 7.02,4.98 1.7,0 3.59,-0.64 4.29,-1.98 z" /></g>  </g>
  <g
     transform="matrix(0.69808431,0,0,0.69808431,135.45795,39.87756)"
     id="g10198">
    <g
       style="font-style:normal;font-variant:normal;font-weight:normal;font-stretch:normal;letter-spacing:normal;word-spacing:normal;text-anchor:start;fill:none;stroke:#000000;stroke-width:1.43249178;stroke-linecap:butt;stroke-linejoin:miter;stroke-miterlimit:10.43299961;stroke-opacity:1;stroke-dasharray:none;stroke-dashoffset:0"
       id="g10200"
       transform="matrix(0.3439694,0,0,-0.3439694,-60.194645,354.96947)"
       xml:space="preserve"
       stroke-miterlimit="10.433"
       font-style="normal"
       font-variant="normal"
       font-weight="normal"
       font-stretch="normal"
       font-size-adjust="none"
       letter-spacing="normal"
       word-spacing="normal"><path
         style="fill:#000000;stroke-width:0"
         inkscape:connector-curvature="0"
         d="m 472.16,421.25 0.03,0.13 0.04,0.15 0.04,0.16 0.04,0.18 0.06,0.19 0.06,0.21 0.06,0.22 0.07,0.22 0.08,0.23 0.09,0.24 0.1,0.25 0.1,0.24 0.11,0.25 0.12,0.25 0.13,0.25 0.14,0.25 0.15,0.24 0.15,0.24 0.17,0.23 0.18,0.22 0.18,0.22 0.2,0.2 0.21,0.19 0.22,0.18 0.23,0.16 0.25,0.14 0.12,0.07 0.13,0.06 0.14,0.05 0.13,0.05 0.14,0.05 0.14,0.04 0.15,0.03 0.15,0.03 0.15,0.02 0.16,0.02 0.16,0.01 0.16,0 c 0.25,0 1.44,0 2.48,-0.64 -1.39,-0.25 -2.39,-1.5 -2.39,-2.69 0,-0.79 0.55,-1.75 1.89,-1.75 1.1,0 2.69,0.89 2.69,2.89 0,2.6 -2.94,3.28 -4.63,3.28 -2.89,0 -4.64,-2.64 -5.23,-3.78 -1.25,3.28 -3.94,3.78 -5.37,3.78 -5.19,0 -8.04,-6.42 -8.04,-7.67 0,-0.5 0.5,-0.5 0.61,-0.5 0.39,0 0.55,0.11 0.64,0.55 1.69,5.28 4.99,6.53 6.68,6.53 0.95,0 2.68,-0.44 2.68,-3.33 0,-1.54 -0.84,-4.89 -2.68,-11.86 -0.8,-3.09 -2.54,-5.18 -4.74,-5.18 -0.3,0 -1.44,0 -2.48,0.65 1.25,0.24 2.34,1.28 2.34,2.69 0,1.34 -1.09,1.73 -1.84,1.73 -1.5,0 -2.75,-1.29 -2.75,-2.89 0,-2.28 2.5,-3.28 4.68,-3.28 3.3,0 5.08,3.49 5.24,3.78 0.59,-1.84 2.39,-3.78 5.37,-3.78 5.14,0 7.99,6.42 7.99,7.67 0,0.5 -0.45,0.5 -0.61,0.5 -0.44,0 -0.55,-0.2 -0.64,-0.54 -1.64,-5.33 -5.03,-6.53 -6.63,-6.53 -1.95,0 -2.75,1.59 -2.75,3.29 0,1.1 0.3,2.19 0.86,4.38 z"
         id="path10202" /></g>  </g>
  <g
     transform="matrix(0.69808431,0,0,0.69808431,42.941818,-45.088986)"
     id="g10360">
    <g
       style="font-style:normal;font-variant:normal;font-weight:normal;font-stretch:normal;letter-spacing:normal;word-spacing:normal;text-anchor:start;fill:none;stroke:#000000;stroke-width:1.43249178;stroke-linecap:butt;stroke-linejoin:miter;stroke-miterlimit:10.43299961;stroke-opacity:1;stroke-dasharray:none;stroke-dashoffset:0"
       word-spacing="normal"
       letter-spacing="normal"
       font-size-adjust="none"
       font-stretch="normal"
       font-weight="normal"
       font-variant="normal"
       font-style="normal"
       stroke-miterlimit="10.433"
       xml:space="preserve"
       transform="matrix(0.3439694,0,0,-0.3439694,-60.194645,354.96947)"
       id="g10362"><path
         style="fill:#000000;stroke-width:0"
         inkscape:connector-curvature="0"
         id="path10364"
         d="m 479.74,425.18 0.01,0.04 0.01,0.03 0.01,0.06 0.02,0.05 0.01,0.06 0.01,0.05 0.02,0.04 0.01,0.05 0.01,0.04 0.01,0.04 0,0.04 0.01,0.04 0.01,0.04 0.01,0.03 0,0.03 0.01,0.03 0,0.03 0.01,0.03 0,0.03 0.01,0.05 0,0.06 0,0.05 0,0.05 0.01,0.05 0,0.03 0,0.03 0,0.03 0,0.03 c 0,0.91 -0.69,1.35 -1.44,1.35 -0.5,0 -1.3,-0.3 -1.75,-1.05 -0.1,-0.25 -0.5,-1.78 -0.69,-2.69 -0.36,-1.29 -0.7,-2.64 -1,-3.98 l -2.25,-8.97 c -0.19,-0.75 -2.33,-4.23 -5.62,-4.23 -2.54,0 -3.1,2.18 -3.1,4.03 0,2.29 0.86,5.39 2.55,9.76 0.8,2.05 1,2.6 1,3.6 0,2.23 -1.59,4.07 -4.09,4.07 -4.74,0 -6.58,-7.21 -6.58,-7.67 0,-0.5 0.5,-0.5 0.61,-0.5 0.5,0 0.54,0.11 0.79,0.91 1.35,4.69 3.33,6.17 5.03,6.17 0.4,0 1.25,0 1.25,-1.59 0,-1.25 -0.5,-2.53 -0.85,-3.49 -1.99,-5.28 -2.9,-8.12 -2.9,-10.47 0,-4.42 3.15,-5.92 6.08,-5.92 1.96,0 3.64,0.85 5.03,2.24 -0.64,-2.58 -1.23,-5.03 -3.23,-7.68 -1.3,-1.68 -3.19,-3.14 -5.48,-3.14 -0.69,0 -2.94,0.16 -3.79,2.1 0.8,0 1.46,0 2.14,0.61 0.5,0.43 1,1.09 1,2.03 0,1.55 -1.34,1.75 -1.84,1.75 -1.14,0 -2.8,-0.8 -2.8,-3.24 0,-2.5 2.21,-4.34 5.29,-4.34 5.14,0 10.26,4.55 11.67,10.17 z" /></g>  </g>
  <g
     transform="matrix(0.69808431,0,0,0.69808431,-53.928752,-142.85999)"
     id="g10528">
    <g
       style="font-style:normal;font-variant:normal;font-weight:normal;font-stretch:normal;letter-spacing:normal;word-spacing:normal;text-anchor:start;fill:none;stroke:#000000;stroke-width:1.43249178;stroke-linecap:butt;stroke-linejoin:miter;stroke-miterlimit:10.43299961;stroke-opacity:1;stroke-dasharray:none;stroke-dashoffset:0"
       id="g10530"
       transform="matrix(0.3439694,0,0,-0.3439694,-60.194645,354.96947)"
       xml:space="preserve"
       stroke-miterlimit="10.433"
       font-style="normal"
       font-variant="normal"
       font-weight="normal"
       font-stretch="normal"
       font-size-adjust="none"
       letter-spacing="normal"
       word-spacing="normal"><path
         style="fill:#000000;stroke-width:0"
         inkscape:connector-curvature="0"
         d="m 462.14,410.34 0.25,0.27 0.24,0.25 0.24,0.25 0.23,0.24 0.22,0.23 0.22,0.22 0.21,0.22 0.2,0.21 0.2,0.2 0.2,0.19 0.19,0.19 0.19,0.19 0.18,0.17 0.19,0.18 0.35,0.33 0.34,0.32 0.33,0.3 0.33,0.29 0.32,0.29 0.65,0.56 0.33,0.29 0.33,0.28 c 0,0.05 3.08,2.69 4.88,4.49 4.73,4.64 5.83,7.03 5.83,7.21 0,0.5 -0.46,0.5 -0.55,0.5 -0.35,0 -0.5,-0.09 -0.75,-0.54 -1.49,-2.39 -2.53,-3.19 -3.74,-3.19 -1.2,0 -1.79,0.75 -2.54,1.59 -0.94,1.16 -1.78,2.14 -3.44,2.14 -3.73,0 -6.02,-4.62 -6.02,-5.67 0,-0.25 0.14,-0.54 0.6,-0.54 0.45,0 0.54,0.25 0.64,0.54 0.95,2.3 3.84,2.35 4.23,2.35 1.05,0 2,-0.36 3.14,-0.75 2,-0.75 2.55,-0.75 3.85,-0.75 -1.8,-2.14 -5.99,-5.74 -6.92,-6.53 l -4.49,-4.18 c -3.39,-3.34 -5.14,-6.18 -5.14,-6.53 0,-0.5 0.5,-0.5 0.59,-0.5 0.41,0 0.5,0.1 0.8,0.64 1.16,1.75 2.64,3.1 4.24,3.1 1.15,0 1.65,-0.46 2.89,-1.89 0.86,-1.05 1.75,-1.85 3.18,-1.85 4.94,0 7.83,6.33 7.83,7.67 0,0.25 -0.2,0.5 -0.59,0.5 -0.46,0 -0.55,-0.29 -0.71,-0.65 -1.14,-3.24 -4.32,-4.17 -5.98,-4.17 -0.98,0 -1.89,0.29 -2.94,0.64 -1.68,0.64 -2.43,0.84 -3.48,0.84 -0.1,0 -0.89,0 -1.35,-0.14 z"
         id="path10532" /></g>  </g>
  <g
     id="g10702"
     transform="matrix(0.73171843,0,0,0.73171843,190.86654,-94.441333)">
    <g
       word-spacing="normal"
       letter-spacing="normal"
       font-size-adjust="none"
       font-stretch="normal"
       font-weight="normal"
       font-variant="normal"
       font-style="normal"
       stroke-miterlimit="10.433"
       xml:space="preserve"
       transform="matrix(0.3439694,0,0,-0.3439694,-60.194645,354.96947)"
       id="g10704"
       style="font-style:normal;font-variant:normal;font-weight:normal;font-stretch:normal;letter-spacing:normal;word-spacing:normal;text-anchor:start;fill:none;stroke:#000000;stroke-width:1.36664593;stroke-linecap:butt;stroke-linejoin:miter;stroke-miterlimit:10.43299961;stroke-opacity:1;stroke-dasharray:none;stroke-dashoffset:0"><path
         id="path10706"
         d="m 486.8,328.46 0.23,0.36 0.23,0.33 0.22,0.31 0.22,0.3 0.22,0.27 0.22,0.25 0.22,0.24 0.22,0.22 0.21,0.2 0.21,0.19 0.21,0.17 0.2,0.16 0.21,0.14 0.2,0.13 0.21,0.12 0.19,0.11 0.2,0.09 0.2,0.09 0.19,0.07 0.2,0.07 0.19,0.06 0.19,0.05 0.18,0.04 0.19,0.04 0.18,0.03 0.19,0.02 0.36,0.04 0.35,0.03 0.35,0.02 c 0.6,0.04 0.64,0.89 0.64,0.95 0,0.39 -0.25,0.59 -0.64,0.59 -1.3,0 -2.75,-0.15 -4.09,-0.15 -1.64,0 -3.35,0.15 -4.94,0.15 -0.3,0 -0.94,0 -0.94,-0.95 0,-0.55 0.46,-0.59 0.8,-0.59 1.34,-0.1 2.3,-0.6 2.3,-1.65 0,-0.75 -0.75,-1.84 -0.75,-1.89 l -15.3,-24.31 -3.39,26.35 c 0,0.84 1.14,1.5 3.44,1.5 0.7,0 1.25,0 1.25,1 0,0.43 -0.41,0.54 -0.71,0.54 -1.98,0 -4.14,-0.15 -6.17,-0.15 -0.9,0 -1.84,0.04 -2.75,0.04 -0.89,0 -1.84,0.11 -2.69,0.11 -0.34,0 -0.93,0 -0.93,-0.95 0,-0.59 0.43,-0.59 1.23,-0.59 2.8,0 2.84,-0.46 3,-1.69 l 3.92,-30.75 c 0.16,-1 0.36,-1.14 1,-1.14 0.8,0 1,0.25 1.41,0.89 z"
         inkscape:connector-curvature="0"
         style="fill:#000000;stroke-width:0" /><path
         id="path10708"
         d="m 512.2,288.17 0,0.02 0,0.03 0,0.01 0,0.02 -0.01,0.01 0,0.02 -0.01,0.02 0,0.01 -0.01,0.02 -0.01,0.02 -0.01,0.03 -0.02,0.02 -0.01,0.02 -0.02,0.03 -0.02,0.03 -0.03,0.03 -0.02,0.04 -0.03,0.03 -0.02,0.02 -0.02,0.02 -0.01,0.02 -0.02,0.02 -0.02,0.02 -0.02,0.03 -0.02,0.02 -0.02,0.02 -0.03,0.03 -0.02,0.03 -0.02,0.02 -0.03,0.03 -0.03,0.03 -0.02,0.03 -0.03,0.03 -0.03,0.03 -0.03,0.03 -0.04,0.03 -0.03,0.04 -0.03,0.03 -0.04,0.04 -0.03,0.03 -0.04,0.04 -0.04,0.04 c -6.22,6.28 -7.81,15.69 -7.81,23.31 0,8.68 1.89,17.35 8.01,23.57 0.64,0.61 0.64,0.7 0.64,0.86 0,0.34 -0.18,0.48 -0.48,0.48 -0.5,0 -4.99,-3.37 -7.92,-9.7 -2.55,-5.49 -3.14,-11.02 -3.14,-15.21 0,-3.89 0.54,-9.9 3.28,-15.54 2.98,-6.13 7.28,-9.36 7.78,-9.36 0.3,0 0.48,0.14 0.48,0.5 z"
         inkscape:connector-curvature="0"
         style="fill:#000000;stroke-width:0" /><path
         id="path10710"
         d="m 519.43,303.06 -0.02,-0.07 -0.01,-0.08 -0.02,-0.07 -0.02,-0.08 -0.03,-0.16 -0.04,-0.16 -0.04,-0.16 -0.04,-0.16 -0.03,-0.16 -0.04,-0.16 -0.02,-0.08 -0.01,-0.07 -0.02,-0.07 -0.01,-0.07 -0.02,-0.07 -0.01,-0.07 -0.02,-0.06 -0.01,-0.06 -0.01,-0.05 -0.01,-0.06 -0.01,-0.04 0,-0.05 -0.01,-0.04 0,-0.03 -0.01,-0.04 0,-0.02 c 0,-0.89 0.71,-1.35 1.44,-1.35 0.61,0 1.5,0.39 1.84,1.39 0.11,0.21 1.8,6.99 2,7.88 0.4,1.64 1.3,5.12 1.6,6.48 0.2,0.64 1.59,2.99 2.78,4.08 0.4,0.35 1.84,1.64 4,1.64 1.28,0 2.03,-0.59 2.08,-0.59 -1.49,-0.25 -2.58,-1.45 -2.58,-2.74 0,-0.79 0.55,-1.75 1.89,-1.75 1.34,0 2.73,1.15 2.73,2.94 0,1.75 -1.59,3.24 -4.12,3.24 -3.25,0 -5.44,-2.44 -6.39,-3.83 -0.39,2.23 -2.19,3.83 -4.53,3.83 -2.28,0 -3.24,-1.94 -3.69,-2.83 -0.89,-1.7 -1.55,-4.69 -1.55,-4.85 0,-0.5 0.5,-0.5 0.61,-0.5 0.5,0 0.55,0.07 0.85,1.16 0.84,3.53 1.84,5.92 3.64,5.92 0.84,0 1.54,-0.39 1.54,-2.28 0,-1.05 -0.15,-1.61 -0.79,-4.19 z"
         inkscape:connector-curvature="0"
         style="fill:#000000;stroke-width:0" /><polyline
         id="polyline10712"
         points="515,292 538.88,292 538.88,294.04 515,294.04 "
         style="fill:#000000;fill-rule:nonzero;stroke-width:0" /><path
         id="path10714"
         d="m 553.3,312.57 0,0.37 0,0.39 -0.01,0.39 -0.01,0.41 -0.04,0.84 -0.06,0.88 -0.09,0.92 -0.1,0.95 -0.14,0.98 -0.16,1 -0.2,1.02 -0.23,1.04 -0.26,1.05 -0.31,1.06 -0.35,1.06 -0.39,1.07 -0.21,0.53 -0.23,0.53 -0.24,0.53 -0.25,0.53 c -2.98,6.13 -7.26,9.36 -7.76,9.36 -0.3,0 -0.5,-0.19 -0.5,-0.48 0,-0.16 0,-0.25 0.94,-1.16 4.89,-4.92 7.73,-12.84 7.73,-23.27 0,-8.51 -1.84,-17.28 -8.03,-23.56 -0.64,-0.59 -0.64,-0.7 -0.64,-0.84 0,-0.3 0.2,-0.5 0.5,-0.5 0.5,0 4.97,3.39 7.92,9.72 2.53,5.47 3.12,11 3.12,15.18 z"
         inkscape:connector-curvature="0"
         style="fill:#000000;stroke-width:0" /><path
         id="path10716"
         d="m 606.38,316.42 0.14,0 0.15,0 0.14,0 0.07,0.01 0.08,0 0.07,0.01 0.07,0.01 0.07,0.01 0.07,0.01 0.07,0.01 0.06,0.02 0.07,0.02 0.06,0.02 0.06,0.03 0.06,0.02 0.06,0.03 0.05,0.04 0.05,0.04 0.05,0.04 0.04,0.04 0.04,0.05 0.02,0.03 0.02,0.03 0.01,0.03 0.02,0.03 0.01,0.03 0.01,0.03 0.02,0.03 0.01,0.04 0.01,0.03 0.01,0.04 0,0.04 0.01,0.04 0,0.04 0.01,0.04 0,0.05 0,0.04 c 0,1 -0.95,1 -1.64,1 h -29.84 c -0.71,0 -1.64,0 -1.64,-1 0,-0.98 0.93,-0.98 1.68,-0.98 z"
         inkscape:connector-curvature="0"
         style="fill:#000000;stroke-width:0" /><path
         id="path10718"
         d="m 606.43,306.75 0.07,0 0.06,0 0.14,0 0.14,0 0.07,0.01 0.07,0 0.07,0.01 0.06,0.01 0.07,0.01 0.07,0.01 0.07,0.01 0.06,0.02 0.07,0.02 0.06,0.02 0.06,0.03 0.05,0.02 0.06,0.04 0.05,0.03 0.05,0.04 0.05,0.04 0.04,0.05 0.02,0.02 0.02,0.03 0.02,0.02 0.02,0.03 0.01,0.03 0.02,0.03 0.01,0.03 0.01,0.04 0.02,0.03 0.01,0.04 0.01,0.03 0.01,0.04 0,0.04 0.01,0.04 0,0.04 0.01,0.05 0,0.04 0,0.05 c 0,1 -0.95,1 -1.69,1 h -29.75 c -0.75,0 -1.68,0 -1.68,-1 0,-1 0.93,-1 1.64,-1 z"
         inkscape:connector-curvature="0"
         style="fill:#000000;stroke-width:0" /><path
         id="path10720"
         d="m 649.83,424.44 0,0.4 0.01,0.42 0.02,0.46 0.03,0.49 0.04,0.5 0.06,0.54 0.07,0.55 0.08,0.58 0.1,0.6 0.11,0.61 0.14,0.63 0.15,0.64 0.18,0.66 0.2,0.67 0.22,0.67 0.24,0.69 0.28,0.69 0.3,0.7 0.32,0.7 0.36,0.7 0.39,0.7 0.42,0.7 0.46,0.7 0.49,0.69 0.52,0.69 0.56,0.68 0.6,0.66 0.64,0.66 0.68,0.65 0.72,0.63 0.77,0.61 0.81,0.6 c 0.64,0.5 0.68,0.55 0.68,1.44 0,1.16 -0.04,1.2 -1.29,1.2 h -0.8 c -10.7,-5.78 -14.55,-15.2 -14.55,-22.51 V 403 c 0,-1.28 0.07,-1.34 1.41,-1.34 h 3.19 c 1.34,0 1.39,0.06 1.39,1.34 z"
         inkscape:connector-curvature="0"
         style="fill:#000000;stroke-width:0" /><path
         id="path10722"
         d="m 649.83,401.39 0,0.06 0,0.06 0,0.06 0,0.05 0,0.06 0,0.05 -0.01,0.05 0,0.04 0,0.05 0,0.05 0,0.04 -0.01,0.04 0,0.04 0,0.04 -0.01,0.04 0,0.03 -0.01,0.04 0,0.03 -0.01,0.03 0,0.03 -0.02,0.06 -0.02,0.05 -0.02,0.05 -0.02,0.04 -0.03,0.04 -0.03,0.03 -0.04,0.03 -0.04,0.03 -0.04,0.02 -0.05,0.02 -0.06,0.02 -0.02,0.01 -0.03,0.01 -0.04,0 -0.03,0.01 -0.03,0.01 -0.04,0 -0.04,0 -0.03,0.01 -0.04,0 -0.05,0.01 -0.04,0 -0.04,0 -0.05,0 -0.05,0 -0.05,0 -0.05,0.01 -0.05,0 -0.06,0 -0.05,0 -0.06,0 -0.06,0 -0.06,0 h -3.19 c -1.34,0 -1.41,-0.05 -1.41,-1.35 v -13.25 c 0,-1.29 0.07,-1.34 1.41,-1.34 h 3.19 c 1.34,0 1.39,0.05 1.39,1.34 z"
         inkscape:connector-curvature="0"
         style="fill:#000000;stroke-width:0" /><path
         id="path10724"
         d="m 649.83,386.39 0,0.06 0,0.06 0,0.06 0,0.05 0,0.06 0,0.05 -0.01,0.05 0,0.04 0,0.05 0,0.05 0,0.04 -0.01,0.04 0,0.04 0,0.04 -0.01,0.04 0,0.03 -0.01,0.04 0,0.03 -0.01,0.03 0,0.03 -0.02,0.06 -0.02,0.05 -0.02,0.05 -0.02,0.04 -0.03,0.04 -0.03,0.03 -0.04,0.03 -0.04,0.03 -0.04,0.02 -0.05,0.02 -0.06,0.02 -0.02,0.01 -0.03,0.01 -0.04,0 -0.03,0.01 -0.03,0.01 -0.04,0 -0.04,0 -0.03,0.01 -0.04,0 -0.05,0.01 -0.04,0 -0.04,0 -0.05,0 -0.05,0 -0.05,0 -0.05,0.01 -0.05,0 -0.06,0 -0.05,0 -0.06,0 -0.06,0 -0.06,0 h -3.19 c -1.34,0 -1.41,-0.05 -1.41,-1.35 v -13.25 c 0,-1.29 0.07,-1.34 1.41,-1.34 h 3.19 c 1.34,0 1.39,0.05 1.39,1.34 z"
         inkscape:connector-curvature="0"
         style="fill:#000000;stroke-width:0" /><path
         id="path10726"
         d="m 649.83,371.52 0,0.06 0,0.05 0,0.06 0,0.05 0,0.06 0,0.05 -0.01,0.05 0,0.05 0,0.04 0,0.05 0,0.04 -0.01,0.04 0,0.04 0,0.04 -0.01,0.04 0,0.03 -0.01,0.04 0,0.03 -0.01,0.03 0,0.03 -0.02,0.06 -0.02,0.05 -0.02,0.05 -0.02,0.04 -0.03,0.04 -0.03,0.03 -0.04,0.03 -0.04,0.03 -0.04,0.03 -0.05,0.02 -0.06,0.01 -0.02,0.01 -0.03,0.01 -0.04,0.01 -0.03,0 -0.03,0.01 -0.04,0 -0.04,0.01 -0.03,0 -0.04,0 -0.05,0.01 -0.04,0 -0.04,0 -0.05,0 -0.05,0 -0.05,0.01 -0.05,0 -0.05,0 -0.06,0 -0.05,0 -0.06,0 -0.06,0 -0.06,0 h -3.19 c -1.34,0 -1.41,-0.05 -1.41,-1.34 v -13.25 c 0,-1.3 0.07,-1.35 1.41,-1.35 h 3.19 c 1.34,0 1.39,0.05 1.39,1.35 z"
         inkscape:connector-curvature="0"
         style="fill:#000000;stroke-width:0" /><path
         id="path10728"
         d="m 643.84,268.53 0,-0.06 0,-0.06 0,-0.05 0.01,-0.06 0,-0.05 0,-0.05 0,-0.05 0,-0.05 0,-0.05 0,-0.04 0.01,-0.04 0,-0.04 0,-0.04 0.01,-0.04 0,-0.04 0,-0.04 0.01,-0.03 0.01,-0.03 0,-0.03 0.01,-0.04 0.02,-0.05 0.01,-0.05 0.03,-0.05 0.02,-0.04 0.03,-0.04 0.03,-0.04 0.04,-0.03 0.04,-0.02 0.04,-0.03 0.05,-0.02 0.06,-0.02 0.06,-0.01 0.03,-0.01 0.03,0 0.04,-0.01 0.03,0 0.04,-0.01 0.04,0 0.04,-0.01 0.04,0 0.04,0 0.05,0 0.05,-0.01 0.04,0 0.05,0 0.05,0 0.06,0 0.05,0 0.06,0 0.06,0 0.06,0 0.06,0 h 3.19 c 1.34,0 1.39,0.04 1.39,1.34 v 21.02 c 0,6.03 -2.55,16.2 -13.71,22.97 11.27,6.82 13.71,17.09 13.71,22.96 v 21.04 c 0,1.29 -0.05,1.34 -1.39,1.34 h -3.19 c -1.34,0 -1.41,-0.05 -1.41,-1.34 v -21.08 c 0,-4.19 -0.89,-14.55 -10.06,-21.52 -0.55,-0.45 -0.59,-0.5 -0.59,-1.4 0,-0.9 0.04,-0.94 0.59,-1.4 1.3,-1 4.74,-3.64 7.13,-8.67 1.95,-3.98 2.93,-8.42 2.93,-12.84 z"
         inkscape:connector-curvature="0"
         style="fill:#000000;stroke-width:0" /><path
         id="path10730"
         d="m 649.83,266.88 0,0.05 0,0.06 0,0.06 0,0.05 0,0.06 0,0.05 -0.01,0.05 0,0.05 0,0.04 0,0.05 0,0.04 -0.01,0.04 0,0.04 0,0.04 -0.01,0.04 0,0.03 -0.01,0.04 0,0.03 -0.01,0.03 0,0.03 -0.02,0.06 -0.02,0.05 -0.02,0.05 -0.02,0.04 -0.03,0.04 -0.03,0.03 -0.04,0.03 -0.04,0.03 -0.04,0.03 -0.05,0.02 -0.06,0.01 -0.02,0.01 -0.03,0.01 -0.04,0.01 -0.03,0 -0.03,0.01 -0.04,0 -0.04,0.01 -0.03,0 -0.04,0 -0.05,0.01 -0.04,0 -0.04,0 -0.05,0 -0.05,0 -0.05,0.01 -0.05,0 -0.05,0 -0.06,0 -0.05,0 -0.06,0 -0.06,0 -0.06,0 h -3.19 c -1.34,0 -1.41,-0.05 -1.41,-1.34 v -13.26 c 0,-1.29 0.07,-1.34 1.41,-1.34 h 3.19 c 1.34,0 1.39,0.05 1.39,1.34 z"
         inkscape:connector-curvature="0"
         style="fill:#000000;stroke-width:0" /><path
         id="path10732"
         d="m 649.83,251.88 0,0.05 0,0.06 0,0.06 0,0.05 0,0.06 0,0.05 -0.01,0.05 0,0.05 0,0.04 0,0.05 0,0.04 -0.01,0.04 0,0.04 0,0.04 -0.01,0.04 0,0.03 -0.01,0.04 0,0.03 -0.01,0.03 0,0.03 -0.02,0.06 -0.02,0.05 -0.02,0.05 -0.02,0.04 -0.03,0.04 -0.03,0.03 -0.04,0.03 -0.04,0.03 -0.04,0.03 -0.05,0.02 -0.06,0.01 -0.02,0.01 -0.03,0.01 -0.04,0.01 -0.03,0 -0.03,0.01 -0.04,0 -0.04,0.01 -0.03,0 -0.04,0 -0.05,0.01 -0.04,0 -0.04,0 -0.05,0 -0.05,0 -0.05,0.01 -0.05,0 -0.05,0 -0.06,0 -0.05,0 -0.06,0 -0.06,0 -0.06,0 h -3.19 c -1.34,0 -1.41,-0.05 -1.41,-1.34 v -13.26 c 0,-1.29 0.07,-1.34 1.41,-1.34 h 3.19 c 1.34,0 1.39,0.05 1.39,1.34 z"
         inkscape:connector-curvature="0"
         style="fill:#000000;stroke-width:0" /><path
         id="path10734"
         d="m 649.83,237 0,0.06 0,0.05 0,0.06 0,0.05 0,0.06 0,0.05 -0.01,0.05 0,0.05 0,0.04 0,0.05 0,0.04 -0.01,0.04 0,0.04 0,0.04 -0.01,0.04 0,0.03 -0.01,0.04 0,0.03 -0.01,0.03 0,0.03 -0.02,0.06 -0.02,0.05 -0.02,0.05 -0.02,0.04 -0.03,0.04 -0.03,0.03 -0.04,0.04 -0.04,0.02 -0.04,0.03 -0.05,0.02 -0.06,0.01 -0.02,0.01 -0.03,0.01 -0.04,0.01 -0.03,0 -0.03,0.01 -0.04,0 -0.04,0.01 -0.03,0 -0.04,0 -0.05,0.01 -0.04,0 -0.04,0 -0.05,0 -0.05,0.01 -0.05,0 -0.05,0 -0.05,0 -0.06,0 -0.05,0 -0.06,0 -0.06,0 -0.06,0 h -3.19 c -1.34,0 -1.41,-0.05 -1.41,-1.34 v -13.25 c 0,-1.3 0.07,-1.35 1.41,-1.35 h 3.19 c 1.34,0 1.39,0.05 1.39,1.35 z"
         inkscape:connector-curvature="0"
         style="fill:#000000;stroke-width:0" /><path
         id="path10736"
         d="m 659.19,178.04 0.06,0 0.05,0 0.06,0 0.05,0 0.05,0 0.05,0.01 0.05,0 0.04,0 0.05,0 0.04,0 0.04,0 0.04,0.01 0.04,0 0.04,0 0.03,0.01 0.04,0 0.03,0.01 0.03,0 0.03,0.01 0.03,0 0.03,0.01 0.03,0.01 0.05,0.01 0.04,0.02 0.04,0.02 0.04,0.03 0.03,0.03 0.03,0.03 0.03,0.03 0.02,0.04 0.02,0.04 0.02,0.05 0.02,0.05 0.01,0.06 0.01,0.06 0,0.03 0.01,0.03 0,0.04 0,0.03 0,0.04 0.01,0.04 0,0.04 0,0.04 0,0.04 0,0.04 0,0.05 0,0.04 0,0.05 0,0.05 0,0.05 0,0.06 c 0,0.89 -0.04,0.95 -0.25,1.09 -1.53,1.14 -5.12,3.69 -7.46,8.26 -1.94,3.8 -2.94,7.63 -2.94,11.97 V 222 c 0,1.29 -0.05,1.34 -1.39,1.34 h -3.19 c -1.34,0 -1.41,-0.05 -1.41,-1.34 v -21.43 c 0,-7.37 3.85,-16.79 14.55,-22.53 z"
         inkscape:connector-curvature="0"
         style="fill:#000000;stroke-width:0" /><path
         id="path10738"
         d="m 691.92,351.94 0,0.75 -0.01,0.74 -0.02,0.75 -0.03,0.74 -0.05,0.75 -0.06,0.74 -0.08,0.74 -0.09,0.73 -0.12,0.73 -0.14,0.73 -0.16,0.73 -0.19,0.71 -0.21,0.72 -0.25,0.7 -0.28,0.7 -0.15,0.35 -0.16,0.34 c -2.28,4.8 -6.37,5.6 -8.47,5.6 -2.98,0 -6.62,-1.3 -8.67,-5.94 -1.59,-3.44 -1.84,-7.33 -1.84,-11.31 0,-3.74 0.2,-8.22 2.25,-12 2.14,-4.03 5.78,-5.03 8.22,-5.03 V 336 c -1.94,0 -4.89,1.25 -5.79,6.03 -0.54,2.99 -0.54,7.56 -0.54,10.52 0,3.18 0,6.47 0.4,9.15 0.94,5.94 4.68,6.38 5.93,6.38 1.64,0 4.93,-0.89 5.87,-5.83 0.5,-2.78 0.5,-6.58 0.5,-9.7 0,-3.75 0,-7.13 -0.55,-10.32 -0.75,-4.73 -3.59,-6.23 -5.82,-6.23 h 0 v -1.09 c 2.68,0 6.47,1.04 8.67,5.78 1.59,3.43 1.84,7.31 1.84,11.25 z"
         inkscape:connector-curvature="0"
         style="fill:#000000;stroke-width:0" /><path
         id="path10740"
         d="m 793.71,430.44 0,0.4 0.02,0.42 0.02,0.46 0.03,0.49 0.04,0.5 0.05,0.54 0.07,0.55 0.08,0.58 0.1,0.6 0.12,0.61 0.13,0.63 0.16,0.64 0.17,0.66 0.2,0.67 0.22,0.67 0.25,0.69 0.27,0.69 0.3,0.7 0.33,0.7 0.36,0.7 0.38,0.7 0.43,0.7 0.45,0.7 0.49,0.69 0.52,0.69 0.56,0.68 0.6,0.66 0.64,0.66 0.68,0.65 0.73,0.63 0.76,0.61 0.81,0.6 c 0.64,0.5 0.69,0.55 0.69,1.44 0,1.16 -0.05,1.2 -1.3,1.2 h -0.8 c -10.7,-5.78 -14.54,-15.2 -14.54,-22.51 V 409 c 0,-1.28 0.06,-1.34 1.4,-1.34 h 3.19 c 1.34,0 1.39,0.06 1.39,1.34 z"
         inkscape:connector-curvature="0"
         style="fill:#000000;stroke-width:0" /><path
         id="path10742"
         d="m 793.71,407.28 0,0.06 0,0.05 0,0.06 0,0.06 0,0.05 0,0.05 0,0.05 0,0.05 -0.01,0.04 0,0.05 0,0.04 0,0.04 -0.01,0.04 0,0.04 0,0.04 -0.01,0.03 0,0.04 -0.01,0.03 0,0.03 -0.01,0.03 -0.02,0.06 -0.01,0.05 -0.03,0.05 -0.02,0.04 -0.03,0.04 -0.03,0.04 -0.04,0.03 -0.04,0.02 -0.04,0.03 -0.05,0.02 -0.05,0.02 -0.03,0 -0.03,0.01 -0.03,0.01 -0.04,0 -0.03,0.01 -0.04,0 -0.03,0.01 -0.04,0 -0.04,0.01 -0.04,0 -0.05,0 -0.04,0 -0.05,0 -0.04,0.01 -0.05,0 -0.06,0 -0.05,0 -0.05,0 -0.06,0 -0.06,0 -0.06,0 -0.06,0 h -3.19 c -1.34,0 -1.4,-0.05 -1.4,-1.34 v -13.25 c 0,-1.3 0.06,-1.35 1.4,-1.35 h 3.19 c 1.34,0 1.39,0.05 1.39,1.35 z"
         inkscape:connector-curvature="0"
         style="fill:#000000;stroke-width:0" /><path
         id="path10744"
         d="m 787.73,304.41 0,-0.06 0,-0.06 0,-0.05 0,-0.06 0,-0.05 0,-0.05 0,-0.05 0,-0.05 0,-0.05 0.01,-0.04 0,-0.04 0,-0.05 0,-0.04 0.01,-0.03 0,-0.04 0.01,-0.04 0,-0.03 0.01,-0.03 0.01,-0.04 0,-0.03 0.02,-0.05 0.02,-0.06 0.02,-0.04 0.02,-0.05 0.03,-0.03 0.04,-0.04 0.03,-0.03 0.04,-0.03 0.05,-0.02 0.05,-0.02 0.05,-0.02 0.06,-0.01 0.03,-0.01 0.04,-0.01 0.03,0 0.04,-0.01 0.03,0 0.04,0 0.04,-0.01 0.04,0 0.05,0 0.04,-0.01 0.05,0 0.05,0 0.05,0 0.05,0 0.05,0 0.06,0 0.05,0 0.06,0 0.06,0 0.06,0 h 3.19 c 1.34,0 1.39,0.04 1.39,1.34 v 21.02 c 0,6.03 -2.55,16.2 -13.7,22.96 11.26,6.83 13.7,17.1 13.7,22.97 v 21.03 c 0,1.3 -0.05,1.35 -1.39,1.35 h -3.19 c -1.34,0 -1.4,-0.05 -1.4,-1.35 v -21.07 c 0,-4.19 -0.89,-14.55 -10.07,-21.52 -0.54,-0.45 -0.59,-0.5 -0.59,-1.41 0,-0.89 0.05,-0.93 0.59,-1.39 1.3,-1 4.74,-3.64 7.13,-8.67 1.95,-3.98 2.94,-8.42 2.94,-12.84 z"
         inkscape:connector-curvature="0"
         style="fill:#000000;stroke-width:0" /><path
         id="path10746"
         d="m 793.71,302.76 0,0.06 0,0.06 0,0.05 0,0.06 0,0.05 0,0.05 0,0.05 0,0.05 -0.01,0.04 0,0.05 0,0.04 0,0.04 -0.01,0.04 0,0.04 0,0.04 -0.01,0.04 0,0.03 -0.01,0.03 0,0.03 -0.01,0.03 -0.02,0.06 -0.01,0.05 -0.03,0.05 -0.02,0.04 -0.03,0.04 -0.03,0.04 -0.04,0.03 -0.04,0.02 -0.04,0.03 -0.05,0.02 -0.05,0.02 -0.03,0 -0.03,0.01 -0.03,0.01 -0.04,0 -0.03,0.01 -0.04,0 -0.03,0.01 -0.04,0 -0.04,0.01 -0.04,0 -0.05,0 -0.04,0 -0.05,0.01 -0.04,0 -0.05,0 -0.06,0 -0.05,0 -0.05,0 -0.06,0 -0.06,0 -0.06,0 -0.06,0 h -3.19 c -1.34,0 -1.4,-0.05 -1.4,-1.34 v -13.25 c 0,-1.3 0.06,-1.35 1.4,-1.35 h 3.19 c 1.34,0 1.39,0.05 1.39,1.35 z"
         inkscape:connector-curvature="0"
         style="fill:#000000;stroke-width:0" /><path
         id="path10748"
         d="m 803.07,243.8 0.06,0.01 0.05,0 0.06,0 0.05,0 0.05,0 0.05,0 0.05,0 0.04,0 0.05,0 0.04,0 0.04,0.01 0.04,0 0.04,0 0.04,0 0.04,0.01 0.03,0 0.03,0.01 0.03,0 0.04,0.01 0.02,0 0.03,0.01 0.03,0.01 0.05,0.01 0.05,0.02 0.04,0.03 0.03,0.02 0.04,0.03 0.03,0.03 0.02,0.03 0.03,0.04 0.02,0.05 0.01,0.04 0.02,0.05 0.01,0.06 0.01,0.06 0,0.03 0.01,0.03 0,0.04 0,0.03 0.01,0.04 0,0.04 0,0.04 0,0.04 0,0.04 0,0.04 0.01,0.05 0,0.05 0,0.04 0,0.05 0,0.06 0,0.05 c 0,0.89 -0.05,0.95 -0.25,1.09 -1.53,1.14 -5.13,3.69 -7.47,8.27 -1.94,3.79 -2.94,7.62 -2.94,11.97 v 21.42 c 0,1.29 -0.05,1.34 -1.39,1.34 h -3.19 c -1.34,0 -1.4,-0.05 -1.4,-1.34 v -21.42 c 0,-7.38 3.84,-16.8 14.54,-22.54 z"
         inkscape:connector-curvature="0"
         style="fill:#000000;stroke-width:0" /><path
         id="path10750"
         d="m 835.8,421.66 0,0.74 -0.01,0.75 -0.02,0.75 -0.04,0.74 -0.04,0.75 -0.06,0.74 -0.08,0.74 -0.09,0.73 -0.12,0.73 -0.14,0.73 -0.16,0.72 -0.19,0.72 -0.21,0.71 -0.25,0.71 -0.28,0.7 -0.15,0.35 -0.16,0.34 c -2.28,4.8 -6.37,5.6 -8.47,5.6 -2.98,0 -6.62,-1.3 -8.67,-5.94 -1.59,-3.44 -1.84,-7.33 -1.84,-11.31 0,-3.74 0.2,-8.22 2.25,-12 2.14,-4.04 5.78,-5.04 8.21,-5.04 v 1.1 c -1.93,0 -4.88,1.25 -5.78,6.03 -0.54,2.98 -0.54,7.56 -0.54,10.52 0,3.18 0,6.46 0.4,9.15 0.94,5.94 4.67,6.38 5.92,6.38 1.65,0 4.94,-0.89 5.88,-5.83 0.5,-2.78 0.5,-6.58 0.5,-9.7 0,-3.75 0,-7.13 -0.55,-10.32 -0.75,-4.73 -3.59,-6.23 -5.83,-6.23 h 0 v -1.1 c 2.69,0 6.47,1.05 8.68,5.79 1.59,3.43 1.84,7.31 1.84,11.25 z"
         inkscape:connector-curvature="0"
         style="fill:#000000;stroke-width:0" /><path
         id="path10752"
         d="m 885.26,435.31 0.1,0.05 0.1,0.05 0.05,0.02 0.04,0.02 0.05,0.03 0.04,0.02 0.04,0.03 0.05,0.03 0.04,0.02 0.03,0.03 0.04,0.03 0.04,0.03 0.03,0.03 0.03,0.03 0.03,0.03 0.03,0.04 0.03,0.03 0.03,0.03 0.02,0.04 0.02,0.04 0.02,0.04 0.02,0.04 0.02,0.04 0.01,0.05 0.02,0.04 0.01,0.05 0,0.05 0.01,0.05 0,0.05 0.01,0.06 c 0,0.54 -0.41,1 -1,1 -0.25,0 -0.71,-0.21 -0.9,-0.3 l -27.56,-13 c -0.84,-0.41 -0.98,-0.75 -0.98,-1.16 0,-0.43 0.29,-0.79 0.98,-1.09 l 27.56,-12.95 c 0.65,-0.35 0.75,-0.35 0.9,-0.35 0.54,0 1,0.44 1,1 0,0.44 -0.21,0.74 -1.05,1.14 l -26.07,12.25 z"
         inkscape:connector-curvature="0"
         style="fill:#000000;stroke-width:0" /><path
         id="path10754"
         d="m 884.47,398.89 0.15,0 0.16,0 0.16,0.01 0.08,0 0.07,0.01 0.08,0 0.07,0.01 0.08,0.01 0.07,0.01 0.07,0.02 0.07,0.01 0.06,0.02 0.07,0.03 0.06,0.02 0.06,0.03 0.05,0.03 0.05,0.04 0.05,0.03 0.05,0.05 0.04,0.04 0.04,0.05 0.02,0.03 0.02,0.03 0.01,0.03 0.02,0.03 0.01,0.03 0.01,0.03 0.01,0.04 0.01,0.03 0.01,0.04 0.01,0.04 0.01,0.03 0,0.04 0.01,0.05 0,0.04 0,0.04 0.01,0.05 c 0,1 -1.05,1 -1.8,1 h -26.86 c -0.74,0 -1.78,0 -1.78,-1 0,-1 0.89,-1 1.73,-1 z"
         inkscape:connector-curvature="0"
         style="fill:#000000;stroke-width:0" /><path
         id="path10756"
         d="m 920.84,420.77 0.03,0.13 0.03,0.15 0.04,0.16 0.05,0.18 0.05,0.19 0.06,0.21 0.07,0.22 0.07,0.22 0.08,0.23 0.09,0.24 0.09,0.25 0.11,0.24 0.11,0.25 0.12,0.25 0.13,0.25 0.13,0.25 0.15,0.24 0.16,0.24 0.16,0.23 0.18,0.22 0.19,0.22 0.2,0.2 0.21,0.19 0.22,0.18 0.23,0.16 0.24,0.14 0.13,0.07 0.13,0.06 0.13,0.05 0.14,0.05 0.14,0.05 0.14,0.04 0.15,0.03 0.14,0.03 0.16,0.02 0.15,0.02 0.16,0.01 0.16,0 c 0.25,0 1.44,0 2.49,-0.64 -1.39,-0.25 -2.39,-1.5 -2.39,-2.69 0,-0.79 0.54,-1.75 1.89,-1.75 1.09,0 2.69,0.89 2.69,2.89 0,2.6 -2.94,3.28 -4.63,3.28 -2.89,0 -4.64,-2.64 -5.23,-3.78 -1.25,3.28 -3.94,3.78 -5.38,3.78 -5.19,0 -8.03,-6.42 -8.03,-7.67 0,-0.5 0.5,-0.5 0.61,-0.5 0.39,0 0.55,0.11 0.64,0.55 1.69,5.28 4.98,6.53 6.67,6.53 0.95,0 2.69,-0.44 2.69,-3.33 0,-1.54 -0.84,-4.89 -2.69,-11.86 -0.8,-3.09 -2.53,-5.18 -4.73,-5.18 -0.3,0 -1.44,0 -2.49,0.65 1.25,0.24 2.35,1.28 2.35,2.69 0,1.34 -1.1,1.73 -1.85,1.73 -1.5,0 -2.75,-1.29 -2.75,-2.89 0,-2.28 2.5,-3.28 4.69,-3.28 3.3,0 5.08,3.49 5.23,3.78 0.6,-1.84 2.4,-3.78 5.38,-3.78 5.14,0 7.98,6.42 7.98,7.67 0,0.5 -0.45,0.5 -0.61,0.5 -0.43,0 -0.54,-0.2 -0.64,-0.54 -1.64,-5.33 -5.03,-6.53 -6.62,-6.53 -1.95,0 -2.75,1.59 -2.75,3.29 0,1.1 0.3,2.19 0.86,4.38 z"
         inkscape:connector-curvature="0"
         style="fill:#000000;stroke-width:0" /><path
         id="path10758"
         d="m 980.18,435.31 0.1,0.05 0.09,0.05 0.05,0.02 0.05,0.02 0.04,0.03 0.05,0.02 0.04,0.03 0.04,0.03 0.04,0.02 0.04,0.03 0.04,0.03 0.03,0.03 0.04,0.03 0.03,0.03 0.03,0.03 0.03,0.04 0.03,0.03 0.02,0.03 0.03,0.04 0.02,0.04 0.02,0.04 0.02,0.04 0.01,0.04 0.02,0.05 0.01,0.04 0.01,0.05 0.01,0.05 0,0.05 0.01,0.05 0,0.06 c 0,0.54 -0.41,1 -1,1 -0.25,0 -0.7,-0.21 -0.89,-0.3 l -27.56,-13 c -0.85,-0.41 -0.99,-0.75 -0.99,-1.16 0,-0.43 0.3,-0.79 0.99,-1.09 l 27.56,-12.95 c 0.64,-0.35 0.75,-0.35 0.89,-0.35 0.55,0 1,0.44 1,1 0,0.44 -0.2,0.74 -1.05,1.14 l -26.06,12.25 z"
         inkscape:connector-curvature="0"
         style="fill:#000000;stroke-width:0" /><path
         id="path10760"
         d="m 979.38,398.89 0.16,0 0.16,0 0.15,0.01 0.08,0 0.08,0.01 0.07,0 0.08,0.01 0.07,0.01 0.07,0.01 0.07,0.02 0.07,0.01 0.07,0.02 0.06,0.03 0.06,0.02 0.06,0.03 0.06,0.03 0.05,0.04 0.05,0.03 0.04,0.05 0.05,0.04 0.03,0.05 0.02,0.03 0.02,0.03 0.01,0.03 0.02,0.03 0.01,0.03 0.02,0.03 0.01,0.04 0.01,0.03 0.01,0.04 0.01,0.04 0,0.03 0.01,0.04 0,0.05 0.01,0.04 0,0.04 0,0.05 c 0,1 -1.05,1 -1.8,1 h -26.86 c -0.73,0 -1.78,0 -1.78,-1 0,-1 0.89,-1 1.74,-1 z"
         inkscape:connector-curvature="0"
         style="fill:#000000;stroke-width:0" /><path
         id="path10762"
         d="m 1017.7,424.55 -0.1,0.17 -0.1,0.17 -0.1,0.16 -0.1,0.16 -0.1,0.16 -0.1,0.16 -0.1,0.15 -0.1,0.14 -0.1,0.15 -0.1,0.13 -0.1,0.14 -0.2,0.13 -0.1,0.12 -0.1,0.12 -0.2,0.11 -0.1,0.11 -0.1,0.11 -0.2,0.09 -0.1,0.1 -0.2,0.08 -0.2,0.08 -0.1,0.08 -0.2,0.06 -0.2,0.07 -0.1,0.05 -0.2,0.05 -0.2,0.04 -0.2,0.03 -0.2,0.03 -0.2,0.02 -0.2,0.01 -0.2,0 0.1,-1.09 c 3.2,0 3.9,-4.08 3.9,-4.37 0,-0.32 -0.1,-0.61 -0.1,-0.86 l -2.5,-9.77 c -0.3,-0.89 -0.3,-0.98 -1,-1.84 -2.2,-2.74 -4.3,-3.53 -5.7,-3.53 -2.5,0 -3.2,2.73 -3.2,4.68 0,2.49 1.6,8.61 2.8,10.91 1.5,2.94 3.8,4.78 5.8,4.78 l -0.1,1.09 c -5.8,0 -12,-7.31 -12,-14.59 0,-4.69 2.7,-7.97 6.6,-7.97 1,0 3.5,0.21 6.5,3.74 0.4,-2.1 2.1,-3.74 4.5,-3.74 1.8,0 2.9,1.14 3.7,2.74 0.9,1.79 1.5,4.84 1.5,4.93 0,0.5 -0.4,0.5 -0.6,0.5 -0.5,0 -0.5,-0.2 -0.7,-0.9 -0.8,-3.24 -1.7,-6.17 -3.8,-6.17 -1.3,0 -1.5,1.29 -1.5,2.29 0,1.1 0.1,1.49 0.7,3.69 0.5,2.09 0.6,2.59 1.1,4.48 l 1.8,6.97 c 0.3,1.39 0.3,1.5 0.3,1.69 0,0.86 -0.6,1.36 -1.4,1.36 -1.2,0 -2,-1.11 -2.1,-2.2 z"
         inkscape:connector-curvature="0"
         style="fill:#000000;stroke-width:0" /><path
         id="path10764"
         d="m 835.8,350.02 0,0.74 -0.01,0.75 -0.02,0.75 -0.04,0.74 -0.04,0.75 -0.06,0.74 -0.08,0.74 -0.09,0.73 -0.12,0.73 -0.14,0.73 -0.16,0.72 -0.19,0.72 -0.21,0.71 -0.25,0.71 -0.28,0.7 -0.15,0.35 -0.16,0.34 c -2.28,4.8 -6.37,5.6 -8.47,5.6 -2.98,0 -6.62,-1.3 -8.67,-5.94 -1.59,-3.44 -1.84,-7.33 -1.84,-11.31 0,-3.74 0.2,-8.22 2.25,-12 2.14,-4.04 5.78,-5.04 8.21,-5.04 v 1.1 c -1.93,0 -4.88,1.25 -5.78,6.03 -0.54,2.98 -0.54,7.56 -0.54,10.51 0,3.19 0,6.47 0.4,9.16 0.94,5.94 4.67,6.38 5.92,6.38 1.65,0 4.94,-0.89 5.88,-5.83 0.5,-2.78 0.5,-6.58 0.5,-9.71 0,-3.74 0,-7.12 -0.55,-10.31 -0.75,-4.73 -3.59,-6.23 -5.83,-6.23 h 0 v -1.1 c 2.69,0 6.47,1.05 8.68,5.79 1.59,3.43 1.84,7.31 1.84,11.25 z"
         inkscape:connector-curvature="0"
         style="fill:#000000;stroke-width:0" /><path
         id="path10766"
         d="m 885.26,363.67 0.1,0.05 0.1,0.05 0.05,0.02 0.04,0.02 0.05,0.03 0.04,0.02 0.04,0.03 0.05,0.03 0.04,0.02 0.03,0.03 0.04,0.03 0.04,0.03 0.03,0.03 0.03,0.03 0.03,0.03 0.03,0.04 0.03,0.03 0.03,0.03 0.02,0.04 0.02,0.04 0.02,0.04 0.02,0.04 0.02,0.04 0.01,0.05 0.02,0.04 0.01,0.05 0,0.05 0.01,0.05 0,0.05 0.01,0.06 c 0,0.54 -0.41,1 -1,1 -0.25,0 -0.71,-0.21 -0.9,-0.3 l -27.56,-13 c -0.84,-0.41 -0.98,-0.75 -0.98,-1.16 0,-0.43 0.29,-0.79 0.98,-1.09 l 27.56,-12.95 c 0.65,-0.35 0.75,-0.35 0.9,-0.35 0.54,0 1,0.44 1,1 0,0.44 -0.21,0.74 -1.05,1.14 l -26.07,12.25 z"
         inkscape:connector-curvature="0"
         style="fill:#000000;stroke-width:0" /><path
         id="path10768"
         d="m 884.47,327.25 0.15,0 0.16,0 0.16,0.01 0.08,0 0.07,0.01 0.08,0 0.07,0.01 0.08,0.01 0.07,0.01 0.07,0.02 0.07,0.01 0.06,0.02 0.07,0.03 0.06,0.02 0.06,0.03 0.05,0.03 0.05,0.03 0.05,0.04 0.05,0.04 0.04,0.05 0.04,0.05 0.02,0.03 0.02,0.03 0.01,0.03 0.02,0.03 0.01,0.03 0.01,0.03 0.01,0.03 0.01,0.04 0.01,0.04 0.01,0.03 0.01,0.04 0,0.04 0.01,0.05 0,0.04 0,0.04 0.01,0.05 c 0,1 -1.05,1 -1.8,1 h -26.86 c -0.74,0 -1.78,0 -1.78,-1 0,-1 0.89,-1 1.73,-1 z"
         inkscape:connector-curvature="0"
         style="fill:#000000;stroke-width:0" /><path
         id="path10770"
         d="m 920.84,349.12 0.03,0.14 0.03,0.14 0.04,0.17 0.05,0.18 0.05,0.19 0.06,0.21 0.07,0.21 0.07,0.23 0.08,0.23 0.09,0.24 0.09,0.25 0.11,0.24 0.11,0.25 0.12,0.25 0.13,0.25 0.13,0.25 0.15,0.24 0.16,0.24 0.16,0.23 0.18,0.22 0.19,0.22 0.2,0.2 0.21,0.19 0.22,0.17 0.23,0.17 0.24,0.14 0.13,0.06 0.13,0.06 0.13,0.06 0.14,0.05 0.14,0.05 0.14,0.04 0.15,0.03 0.14,0.03 0.16,0.02 0.15,0.02 0.16,0.01 0.16,0 c 0.25,0 1.44,0 2.49,-0.64 -1.39,-0.25 -2.39,-1.5 -2.39,-2.69 0,-0.79 0.54,-1.75 1.89,-1.75 1.09,0 2.69,0.89 2.69,2.89 0,2.6 -2.94,3.28 -4.63,3.28 -2.89,0 -4.64,-2.64 -5.23,-3.78 -1.25,3.28 -3.94,3.78 -5.38,3.78 -5.19,0 -8.03,-6.42 -8.03,-7.67 0,-0.5 0.5,-0.5 0.61,-0.5 0.39,0 0.55,0.11 0.64,0.55 1.69,5.28 4.98,6.53 6.67,6.53 0.95,0 2.69,-0.44 2.69,-3.33 0,-1.55 -0.84,-4.89 -2.69,-11.86 -0.8,-3.09 -2.53,-5.19 -4.73,-5.19 -0.3,0 -1.44,0 -2.49,0.66 1.25,0.24 2.35,1.28 2.35,2.69 0,1.34 -1.1,1.73 -1.85,1.73 -1.5,0 -2.75,-1.29 -2.75,-2.89 0,-2.28 2.5,-3.28 4.69,-3.28 3.3,0 5.08,3.49 5.23,3.78 0.6,-1.84 2.4,-3.78 5.38,-3.78 5.14,0 7.98,6.42 7.98,7.67 0,0.5 -0.45,0.5 -0.61,0.5 -0.43,0 -0.54,-0.2 -0.64,-0.54 -1.64,-5.33 -5.03,-6.54 -6.62,-6.54 -1.95,0 -2.75,1.6 -2.75,3.3 0,1.1 0.3,2.19 0.86,4.38 z"
         inkscape:connector-curvature="0"
         style="fill:#000000;stroke-width:0" /><path
         id="path10772"
         d="m 980.18,363.67 0.1,0.05 0.09,0.05 0.05,0.02 0.05,0.02 0.04,0.03 0.05,0.02 0.04,0.03 0.04,0.03 0.04,0.02 0.04,0.03 0.04,0.03 0.03,0.03 0.04,0.03 0.03,0.03 0.03,0.03 0.03,0.04 0.03,0.03 0.02,0.03 0.03,0.04 0.02,0.04 0.02,0.04 0.02,0.04 0.01,0.04 0.02,0.05 0.01,0.04 0.01,0.05 0.01,0.05 0,0.05 0.01,0.05 0,0.06 c 0,0.54 -0.41,1 -1,1 -0.25,0 -0.7,-0.21 -0.89,-0.3 l -27.56,-13 c -0.85,-0.41 -0.99,-0.75 -0.99,-1.16 0,-0.43 0.3,-0.79 0.99,-1.09 l 27.56,-12.95 c 0.64,-0.35 0.75,-0.35 0.89,-0.35 0.55,0 1,0.44 1,1 0,0.44 -0.2,0.74 -1.05,1.14 l -26.06,12.25 z"
         inkscape:connector-curvature="0"
         style="fill:#000000;stroke-width:0" /><path
         id="path10774"
         d="m 979.38,327.25 0.16,0 0.16,0 0.15,0.01 0.08,0 0.08,0.01 0.07,0 0.08,0.01 0.07,0.01 0.07,0.01 0.07,0.02 0.07,0.01 0.07,0.02 0.06,0.03 0.06,0.02 0.06,0.03 0.06,0.03 0.05,0.03 0.05,0.04 0.04,0.04 0.05,0.05 0.03,0.05 0.02,0.03 0.02,0.03 0.01,0.03 0.02,0.03 0.01,0.03 0.02,0.03 0.01,0.03 0.01,0.04 0.01,0.04 0.01,0.03 0,0.04 0.01,0.04 0,0.05 0.01,0.04 0,0.04 0,0.05 c 0,1 -1.05,1 -1.8,1 h -26.86 c -0.73,0 -1.78,0 -1.78,-1 0,-1 0.89,-1 1.74,-1 z"
         inkscape:connector-curvature="0"
         style="fill:#000000;stroke-width:0" /><path
         id="path10776"
         d="m 1011,368.11 0,0 0,0 0,0.01 0,0.01 0,0.02 0,0.01 0,0.02 0,0.01 0,0.02 0,0.02 0,0.03 0,0.02 0,0.02 0,0.03 0,0.02 0,0.03 -0.1,0.02 0,0.02 0,0.03 0,0.02 0,0.03 0,0.01 -0.1,0.01 0,0.01 0,0.01 0,0.01 0,0.01 0,0.01 0,0.01 -0.1,0.01 0,0 0,0.01 0,0.01 0,0.01 -0.1,0 0,0.01 0,0 0,0.01 -0.1,0 0,0.01 0,0 0,0 -0.1,0 0,0.01 0,0 c -1.2,0 -4.8,-0.41 -6.1,-0.5 -0.4,-0.05 -1,-0.1 -1,-1 0,-0.6 0.5,-0.6 1.2,-0.6 2.4,0 2.5,-0.34 2.5,-0.84 0,-0.36 -0.4,-2.05 -0.7,-3.1 l -4.1,-16.23 c -0.5,-2.5 -0.7,-3.3 -0.7,-5.03 0,-4.74 2.6,-7.83 6.3,-7.83 v 1.09 c -1.7,0 -3.4,1.35 -3.4,5.04 0,0.95 0,1.89 0.8,5.03 l 1.1,4.59 c 0.3,1.1 0.3,1.19 0.8,1.74 2.4,3.23 4.7,3.98 6,3.98 1.8,0 3.1,-1.48 3.1,-4.69 0,-2.93 -1.7,-8.65 -2.5,-10.56 -1.7,-3.33 -4,-5.13 -5.9,-5.13 v -1.09 c 5.9,0 12,7.42 12,14.59 0,4.54 -2.7,7.97 -6.6,7.97 -2.3,0 -4.4,-1.43 -5.9,-2.98 z"
         inkscape:connector-curvature="0"
         style="fill:#000000;stroke-width:0" /><path
         id="path10778"
         d="m 835.8,278.26 0,0.75 -0.01,0.74 -0.02,0.75 -0.04,0.74 -0.04,0.75 -0.06,0.74 -0.08,0.74 -0.09,0.73 -0.12,0.73 -0.14,0.73 -0.16,0.73 -0.19,0.71 -0.21,0.72 -0.25,0.7 -0.28,0.7 -0.15,0.35 -0.16,0.34 c -2.28,4.8 -6.37,5.6 -8.47,5.6 -2.98,0 -6.62,-1.3 -8.67,-5.94 -1.59,-3.44 -1.84,-7.33 -1.84,-11.31 0,-3.74 0.2,-8.22 2.25,-12 2.14,-4.03 5.78,-5.03 8.21,-5.03 v 1.09 c -1.93,0 -4.88,1.25 -5.78,6.03 -0.54,2.99 -0.54,7.56 -0.54,10.52 0,3.18 0,6.47 0.4,9.15 0.94,5.94 4.67,6.38 5.92,6.38 1.65,0 4.94,-0.89 5.88,-5.83 0.5,-2.78 0.5,-6.58 0.5,-9.7 0,-3.75 0,-7.13 -0.55,-10.32 -0.75,-4.73 -3.59,-6.23 -5.83,-6.23 h 0 v -1.09 c 2.69,0 6.47,1.04 8.68,5.78 1.59,3.44 1.84,7.31 1.84,11.25 z"
         inkscape:connector-curvature="0"
         style="fill:#000000;stroke-width:0" /><path
         id="path10780"
         d="m 885.26,291.91 0.1,0.05 0.1,0.05 0.05,0.02 0.04,0.03 0.05,0.02 0.04,0.03 0.04,0.02 0.05,0.03 0.04,0.03 0.03,0.02 0.04,0.03 0.04,0.03 0.03,0.03 0.03,0.03 0.03,0.03 0.03,0.04 0.03,0.03 0.03,0.04 0.02,0.03 0.02,0.04 0.02,0.04 0.02,0.04 0.02,0.04 0.01,0.05 0.02,0.04 0.01,0.05 0,0.05 0.01,0.05 0,0.05 0.01,0.06 c 0,0.54 -0.41,1 -1,1 -0.25,0 -0.71,-0.21 -0.9,-0.3 l -27.56,-13 c -0.84,-0.41 -0.98,-0.75 -0.98,-1.16 0,-0.43 0.29,-0.79 0.98,-1.09 l 27.56,-12.95 c 0.65,-0.35 0.75,-0.35 0.9,-0.35 0.54,0 1,0.44 1,1 0,0.44 -0.21,0.74 -1.05,1.14 l -26.07,12.25 z"
         inkscape:connector-curvature="0"
         style="fill:#000000;stroke-width:0" /><path
         id="path10782"
         d="m 884.47,255.49 0.15,0 0.16,0 0.16,0.01 0.08,0 0.07,0.01 0.08,0 0.07,0.01 0.08,0.01 0.07,0.01 0.07,0.02 0.07,0.02 0.06,0.02 0.07,0.02 0.06,0.02 0.06,0.03 0.05,0.03 0.05,0.04 0.05,0.03 0.05,0.05 0.04,0.04 0.04,0.05 0.02,0.03 0.02,0.03 0.01,0.03 0.02,0.03 0.01,0.03 0.01,0.03 0.01,0.04 0.01,0.03 0.01,0.04 0.01,0.04 0.01,0.04 0,0.04 0.01,0.04 0,0.04 0,0.05 0.01,0.04 c 0,1 -1.05,1 -1.8,1 h -26.86 c -0.74,0 -1.78,0 -1.78,-1 0,-1 0.89,-1 1.73,-1 z"
         inkscape:connector-curvature="0"
         style="fill:#000000;stroke-width:0" /><path
         id="path10784"
         d="m 920.84,277.37 0.03,0.13 0.03,0.15 0.04,0.16 0.05,0.18 0.05,0.2 0.06,0.2 0.07,0.22 0.07,0.22 0.08,0.24 0.09,0.23 0.09,0.25 0.11,0.25 0.11,0.25 0.12,0.25 0.13,0.24 0.13,0.25 0.15,0.24 0.16,0.24 0.16,0.23 0.18,0.23 0.19,0.21 0.2,0.2 0.21,0.19 0.22,0.18 0.23,0.16 0.24,0.14 0.13,0.07 0.13,0.06 0.13,0.05 0.14,0.05 0.14,0.05 0.14,0.04 0.15,0.03 0.14,0.03 0.16,0.02 0.15,0.02 0.16,0.01 0.16,0 c 0.25,0 1.44,0 2.49,-0.64 -1.39,-0.25 -2.39,-1.5 -2.39,-2.69 0,-0.79 0.54,-1.75 1.89,-1.75 1.09,0 2.69,0.89 2.69,2.89 0,2.6 -2.94,3.29 -4.63,3.29 -2.89,0 -4.64,-2.64 -5.23,-3.79 -1.25,3.29 -3.94,3.79 -5.38,3.79 -5.19,0 -8.03,-6.43 -8.03,-7.68 0,-0.5 0.5,-0.5 0.61,-0.5 0.39,0 0.55,0.11 0.64,0.55 1.69,5.28 4.98,6.53 6.67,6.53 0.95,0 2.69,-0.44 2.69,-3.33 0,-1.54 -0.84,-4.89 -2.69,-11.86 -0.8,-3.09 -2.53,-5.18 -4.73,-5.18 -0.3,0 -1.44,0 -2.49,0.65 1.25,0.24 2.35,1.28 2.35,2.69 0,1.34 -1.1,1.74 -1.85,1.74 -1.5,0 -2.75,-1.3 -2.75,-2.9 0,-2.28 2.5,-3.28 4.69,-3.28 3.3,0 5.08,3.49 5.23,3.78 0.6,-1.84 2.4,-3.78 5.38,-3.78 5.14,0 7.98,6.43 7.98,7.68 0,0.5 -0.45,0.5 -0.61,0.5 -0.43,0 -0.54,-0.21 -0.64,-0.55 -1.64,-5.33 -5.03,-6.53 -6.62,-6.53 -1.95,0 -2.75,1.59 -2.75,3.29 0,1.1 0.3,2.19 0.86,4.38 z"
         inkscape:connector-curvature="0"
         style="fill:#000000;stroke-width:0" /><path
         id="path10786"
         d="m 980.18,291.91 0.1,0.05 0.09,0.05 0.05,0.02 0.05,0.03 0.04,0.02 0.05,0.03 0.04,0.02 0.04,0.03 0.04,0.03 0.04,0.02 0.04,0.03 0.03,0.03 0.04,0.03 0.03,0.03 0.03,0.03 0.03,0.04 0.03,0.03 0.02,0.04 0.03,0.03 0.02,0.04 0.02,0.04 0.02,0.04 0.01,0.04 0.02,0.05 0.01,0.04 0.01,0.05 0.01,0.05 0,0.05 0.01,0.05 0,0.06 c 0,0.54 -0.41,1 -1,1 -0.25,0 -0.7,-0.21 -0.89,-0.3 l -27.56,-13 c -0.85,-0.41 -0.99,-0.75 -0.99,-1.16 0,-0.43 0.3,-0.79 0.99,-1.09 l 27.56,-12.95 c 0.64,-0.35 0.75,-0.35 0.89,-0.35 0.55,0 1,0.44 1,1 0,0.44 -0.2,0.74 -1.05,1.14 l -26.06,12.25 z"
         inkscape:connector-curvature="0"
         style="fill:#000000;stroke-width:0" /><path
         id="path10788"
         d="m 979.38,255.49 0.16,0 0.16,0 0.15,0.01 0.08,0 0.08,0.01 0.07,0 0.08,0.01 0.07,0.01 0.07,0.01 0.07,0.02 0.07,0.02 0.07,0.02 0.06,0.02 0.06,0.02 0.06,0.03 0.06,0.03 0.05,0.04 0.05,0.03 0.04,0.05 0.05,0.04 0.03,0.05 0.02,0.03 0.02,0.03 0.01,0.03 0.02,0.03 0.01,0.03 0.02,0.03 0.01,0.04 0.01,0.03 0.01,0.04 0.01,0.04 0,0.04 0.01,0.04 0,0.04 0.01,0.04 0,0.05 0,0.04 c 0,1 -1.05,1 -1.8,1 h -26.86 c -0.73,0 -1.78,0 -1.78,-1 0,-1 0.89,-1 1.74,-1 z"
         inkscape:connector-curvature="0"
         style="fill:#000000;stroke-width:0" /><path
         id="path10790"
         d="m 1018.8,281.26 -0.1,0 -0.2,0 -0.1,-0.01 -0.1,0 -0.2,-0.01 -0.1,-0.02 -0.1,-0.01 -0.1,-0.01 0,-0.01 -0.1,-0.02 -0.1,-0.02 0,-0.02 -0.1,-0.02 -0.1,-0.02 0,-0.03 -0.1,-0.03 -0.1,-0.03 0,-0.04 -0.1,-0.04 -0.1,-0.04 0,-0.04 -0.1,-0.05 -0.1,-0.06 0,-0.05 -0.1,-0.06 -0.1,-0.07 c -0.8,-0.75 -0.8,-1.59 -0.8,-1.93 0,-1.21 0.8,-1.75 1.8,-1.75 1.4,0 2.8,1.2 2.8,3.18 0,2.44 -2.4,4.29 -5.9,4.29 -6.7,0 -13.3,-7.13 -13.3,-14.14 0,-4.49 2.8,-8.43 8,-8.43 7.1,0 11.3,5.28 11.3,5.88 0,0.3 -0.3,0.65 -0.6,0.65 -0.2,0 -0.3,-0.1 -0.6,-0.5 -4,-4.93 -9.4,-4.93 -10,-4.93 -3.1,0 -4.5,2.43 -4.5,5.43 0,2.04 1,6.88 2.7,9.96 1.6,2.84 4.3,4.98 7,4.98 1.7,0 3.6,-0.64 4.3,-1.98 z"
         inkscape:connector-curvature="0"
         style="fill:#000000;stroke-width:0" /><path
         id="path10792"
         d="m 694.31,204.06 -0.24,0.31 -0.24,0.29 -0.22,0.29 -0.21,0.26 -0.21,0.26 -0.19,0.24 -0.18,0.23 -0.18,0.22 -0.17,0.2 -0.16,0.2 -0.15,0.19 -0.15,0.17 -0.15,0.17 -0.13,0.16 -0.14,0.16 -0.13,0.14 -0.12,0.15 -0.12,0.13 -0.12,0.13 -0.12,0.12 -0.24,0.24 -0.23,0.23 -0.24,0.22 -0.25,0.22 -0.26,0.22 -0.13,0.11 -0.15,0.11 c -2.79,2.25 -5.59,3.14 -8.12,3.14 -5.83,0 -9.63,-5.47 -9.63,-11.29 h 1.11 c 0,4.87 3.33,8.9 7.72,8.9 2.89,0 5.13,-2.09 6.17,-3.14 1.25,-1.34 2.39,-2.89 5.44,-6.81 h 0 c -2.05,-3.59 -5.73,-8.63 -11.36,-8.63 -5.28,0 -7.97,5.19 -7.97,9.68 h -1.11 c 0,-5.74 3.69,-11.27 9.43,-11.27 5.73,0 9.86,4.53 12.31,8.52 2.69,-3.39 3.28,-4.13 4.83,-5.38 2.78,-2.25 5.58,-3.14 8.12,-3.14 5.83,0 9.61,5.49 9.61,11.31 h -1.09 c 0,-4.89 -3.35,-8.92 -7.72,-8.92 -2.89,0 -5.14,2.1 -6.19,3.14 -1.23,1.35 -2.39,2.89 -5.42,6.83 h 0 c 2.03,3.58 5.72,8.61 11.36,8.61 5.28,0 7.97,-5.17 7.97,-9.66 h 1.09 c 0,5.72 -3.69,11.25 -9.42,11.25 -5.72,0 -9.86,-4.53 -12.3,-8.51 z"
         inkscape:connector-curvature="0"
         style="fill:#000000;stroke-width:0" /><path
         id="path10794"
         d="m 792.07,201.21 -0.02,0.6 -0.04,0.59 -0.07,0.58 -0.1,0.57 -0.12,0.56 -0.15,0.55 -0.18,0.54 -0.2,0.53 -0.22,0.51 -0.24,0.5 -0.27,0.49 -0.29,0.47 -0.31,0.46 -0.33,0.44 -0.34,0.43 -0.37,0.4 -0.38,0.39 -0.4,0.37 -0.42,0.35 -0.43,0.32 -0.45,0.31 -0.46,0.28 -0.48,0.26 -0.48,0.24 -0.5,0.21 -0.51,0.18 -0.52,0.16 -0.53,0.13 -0.54,0.11 -0.55,0.07 -0.56,0.05 -0.56,0.01 -0.05,-1.09 c 2.19,0 4.33,-1.1 5.63,-3.24 1.3,-2.14 1.3,-5.03 1.3,-6.92 0,-1.8 0,-4.48 -1.1,-6.67 -1.09,-2.25 -3.28,-3.69 -5.78,-3.69 h 0 c -2.14,0 -4.33,1.05 -5.67,3.33 -1.25,2.2 -1.25,5.23 -1.25,7.03 0,1.94 0,4.63 1.19,6.83 1.36,2.28 3.68,3.33 5.68,3.33 l 0.05,1.09 c -6.22,0 -11.06,-5.42 -11.06,-11.66 0,-6.42 5.19,-11.2 11.01,-11.2 6.03,0 11.07,4.88 11.07,11.2 z"
         inkscape:connector-curvature="0"
         style="fill:#000000;stroke-width:0" /><path
         id="path10796"
         d="m 813.04,194.5 v -4.49 l 7.17,0.55 v 1.54 c -3.48,0 -3.89,0.35 -3.89,2.79 v 17.68 l -7.33,-0.54 v -1.55 c 3.5,0 3.89,-0.34 3.89,-2.78 v -8.88 c 0,-4.32 -2.39,-7.72 -6.03,-7.72 -4.17,0 -4.37,2.35 -4.37,4.94 v 16.53 l -7.33,-0.54 v -1.55 c 3.89,0 3.89,-0.14 3.89,-4.58 v -7.47 c 0,-3.89 0,-8.42 7.56,-8.42 2.8,0 4.99,1.39 6.44,4.49 z"
         inkscape:connector-curvature="0"
         style="fill:#000000;stroke-width:0" /><path
         id="path10798"
         d="m 829.9,210.48 h 7.12 v 1.55 h -7.12 v 9.17 h -1.25 c -0.05,-4.08 -1.55,-9.42 -6.42,-9.61 v -1.11 h 4.23 v -13.75 c 0,-6.13 4.63,-6.72 6.42,-6.72 3.53,0 4.94,3.53 4.94,6.72 v 2.84 h -1.25 v -2.73 c 0,-3.69 -1.5,-5.58 -3.34,-5.58 -3.33,0 -3.33,4.53 -3.33,5.38 z"
         inkscape:connector-curvature="0"
         style="fill:#000000;stroke-width:0" /><path
         id="path10800"
         d="m 850.95,200.23 0.11,-0.02 0.13,-0.03 0.14,-0.02 0.16,-0.04 0.16,-0.04 0.18,-0.04 0.19,-0.05 0.2,-0.06 0.21,-0.06 0.21,-0.07 0.21,-0.08 0.22,-0.09 0.22,-0.09 0.22,-0.1 0.22,-0.11 0.22,-0.13 0.22,-0.13 0.21,-0.14 0.21,-0.15 0.19,-0.16 0.19,-0.18 0.18,-0.19 0.17,-0.2 0.16,-0.21 0.14,-0.22 0.07,-0.12 0.06,-0.12 0.06,-0.13 0.05,-0.13 0.05,-0.13 0.05,-0.13 0.04,-0.14 0.03,-0.14 0.04,-0.15 0.02,-0.15 0.02,-0.16 0.02,-0.15 0,-0.17 0.01,-0.16 c 0,-2.54 -1.75,-4.54 -5.63,-4.54 -4.19,0 -5.98,2.85 -6.94,7.08 -0.14,0.64 -0.18,0.85 -0.68,0.85 -0.66,0 -0.66,-0.35 -0.66,-1.25 v -6.58 c 0,-0.85 0,-1.19 0.55,-1.19 0.25,0 0.29,0.05 1.25,1 0.09,0.09 0.09,0.19 1,1.14 2.19,-2.09 4.44,-2.14 5.48,-2.14 5.72,0 8.02,3.34 8.02,6.92 0,2.64 -1.5,4.14 -2.1,4.74 -1.64,1.59 -3.59,2 -5.68,2.39 -2.78,0.54 -6.13,1.2 -6.13,4.09 0,1.74 1.3,3.78 5.58,3.78 5.48,0 5.73,-4.48 5.83,-6.03 0.06,-0.45 0.5,-0.45 0.61,-0.45 0.64,0 0.64,0.25 0.64,1.2 v 5.03 c 0,0.85 0,1.19 -0.55,1.19 -0.25,0 -0.34,0 -1,-0.59 -0.14,-0.21 -0.64,-0.64 -0.84,-0.8 -1.89,1.39 -3.94,1.39 -4.69,1.39 -6.08,0 -7.97,-3.33 -7.97,-6.12 0,-1.74 0.8,-3.15 2.14,-4.24 1.6,-1.3 3,-1.59 6.58,-2.28 z"
         inkscape:connector-curvature="0"
         style="fill:#000000;stroke-width:0" /><path
         id="path10802"
         d="m 869.08,212.57 -6.97,-0.54 v -1.55 c 3.24,0 3.69,-0.3 3.69,-2.73 v -13.41 c 0,-2.24 -0.55,-2.24 -3.89,-2.24 v -1.54 c 1.59,0.04 4.28,0.15 5.49,0.15 1.75,0 3.48,-0.11 5.18,-0.15 v 1.54 c -3.3,0 -3.5,0.25 -3.5,2.19 z"
         inkscape:connector-curvature="0"
         style="fill:#000000;stroke-width:0" /><path
         id="path10804"
         d="m 869.28,221.25 0,0.14 -0.01,0.15 -0.02,0.14 -0.02,0.14 -0.03,0.13 -0.04,0.13 -0.04,0.13 -0.05,0.12 -0.06,0.12 -0.06,0.11 -0.06,0.12 -0.07,0.1 -0.08,0.1 -0.08,0.1 -0.08,0.1 -0.09,0.08 -0.1,0.09 -0.09,0.08 -0.1,0.07 -0.11,0.07 -0.11,0.07 -0.11,0.06 -0.11,0.05 -0.12,0.05 -0.11,0.04 -0.13,0.04 -0.12,0.03 -0.12,0.03 -0.13,0.02 -0.13,0.01 -0.13,0.01 -0.12,0.01 c -1.55,0 -2.65,-1.35 -2.65,-2.64 0,-1.35 1.1,-2.65 2.65,-2.65 1.38,0 2.63,1.05 2.63,2.65 z"
         inkscape:connector-curvature="0"
         style="fill:#000000;stroke-width:0" /><path
         id="path10806"
         d="m 893,193.29 v -3.28 l 7.32,0.55 v 1.54 c -3.49,0 -3.88,0.35 -3.88,2.79 v 30.25 l -7.17,-0.55 v -1.55 c 3.48,0 3.88,-0.34 3.88,-2.79 V 209.5 c -1.44,1.78 -3.58,3.07 -6.29,3.07 l 0.21,-1.09 c 1.75,0 3.84,-0.75 5.39,-2.98 0.54,-0.85 0.54,-0.96 0.54,-1.85 h 0 v -10.22 c 0,-0.89 0,-1 -0.54,-1.84 -1.5,-2.39 -3.75,-3.49 -5.89,-3.49 -2.24,0 -4.04,1.3 -5.22,3.19 -1.3,2.05 -1.45,4.89 -1.45,6.92 0,1.85 0.09,4.85 1.54,7.08 1.05,1.55 2.94,3.19 5.63,3.19 l -0.21,1.09 c -5.87,0 -11.11,-4.87 -11.11,-11.29 0,-6.33 4.9,-11.27 10.57,-11.27 3.18,0 5.43,1.69 6.68,3.28 z"
         inkscape:connector-curvature="0"
         style="fill:#000000;stroke-width:0" /><path
         id="path10808"
         d="m 907.32,202.07 0.04,1.05 c 0.3,7.42 4.49,8.66 6.19,8.66 5.13,0 5.63,-6.72 5.63,-8.66 h -11.82 l -0.04,-1.05 h 13.9 c 1.1,0 1.24,0 1.24,1.05 0,4.92 -2.69,9.75 -8.91,9.75 -5.78,0 -10.37,-5.12 -10.37,-11.36 0,-6.67 5.23,-11.5 10.97,-11.5 6.07,0 8.31,5.53 8.31,6.47 0,0.5 -0.39,0.61 -0.64,0.61 -0.46,0 -0.55,-0.3 -0.66,-0.7 -1.73,-5.13 -6.22,-5.13 -6.72,-5.13 -2.5,0 -4.48,1.49 -5.62,3.33 -1.5,2.39 -1.5,5.69 -1.5,7.48 z"
         inkscape:connector-curvature="0"
         style="fill:#000000;stroke-width:0" /><path
         id="path10810"
         d="m 949.05,210.48 h 7.12 v 1.55 h -7.12 v 9.17 h -1.25 c -0.05,-4.08 -1.55,-9.42 -6.42,-9.61 v -1.11 h 4.23 v -13.75 c 0,-6.13 4.62,-6.72 6.42,-6.72 3.53,0 4.94,3.53 4.94,6.72 v 2.84 h -1.25 v -2.73 c 0,-3.69 -1.5,-5.58 -3.34,-5.58 -3.33,0 -3.33,4.53 -3.33,5.38 z"
         inkscape:connector-curvature="0"
         style="fill:#000000;stroke-width:0" /><path
         id="path10812"
         d="m 965.22,194.34 0,-0.1 0,-0.1 0,-0.19 -0.01,-0.18 -0.02,-0.17 -0.02,-0.15 -0.02,-0.15 -0.03,-0.13 -0.03,-0.12 -0.05,-0.12 -0.05,-0.1 -0.05,-0.09 -0.07,-0.09 -0.07,-0.08 -0.08,-0.07 -0.09,-0.06 -0.1,-0.06 -0.11,-0.04 -0.12,-0.05 -0.13,-0.04 -0.14,-0.03 -0.15,-0.02 -0.16,-0.03 -0.18,-0.02 -0.09,0 -0.1,-0.01 -0.1,-0.01 -0.1,0 -0.11,-0.01 -0.11,0 -0.11,0 -0.12,-0.01 -0.12,0 -0.12,0 -0.13,0 -0.13,0 -0.13,0 -0.14,0 -0.15,0 -0.14,0 -0.15,0 -0.16,-0.01 v -1.54 c 1.75,0.04 4.28,0.15 5.63,0.15 1.29,0 3.89,-0.11 5.57,-0.15 v 1.54 c -3.32,0 -3.87,0 -3.87,2.24 v 9.17 c 0,5.19 3.53,7.97 6.72,7.97 3.14,0 3.69,-2.69 3.69,-5.53 v -11.61 c 0,-2.24 -0.55,-2.24 -3.89,-2.24 v -1.54 c 1.75,0.04 4.29,0.15 5.64,0.15 1.29,0 3.87,-0.11 5.58,-0.15 v 1.54 c -2.6,0 -3.85,0 -3.9,1.5 v 9.52 c 0,4.28 0,5.83 -1.54,7.61 -0.69,0.86 -2.35,1.84 -5.22,1.84 -4.19,0 -6.39,-2.98 -7.24,-4.87 v 17.44 l -7.17,-0.55 v -1.55 c 3.49,0 3.89,-0.34 3.89,-2.79 z"
         inkscape:connector-curvature="0"
         style="fill:#000000;stroke-width:0" /><path
         id="path10814"
         d="m 992.99,202.07 0.04,1.05 c 0.3,7.42 4.49,8.66 6.19,8.66 5.08,0 5.58,-6.72 5.58,-8.66 h -11.77 l -0.04,-1.05 h 13.91 c 1.1,0 1.2,0 1.2,1.05 0,4.92 -2.7,9.75 -8.88,9.75 -5.78,0 -10.37,-5.12 -10.37,-11.36 0,-6.67 5.23,-11.5 10.97,-11.5 6.08,0 8.28,5.53 8.28,6.47 0,0.5 -0.4,0.61 -0.6,0.61 -0.5,0 -0.6,-0.3 -0.7,-0.7 -1.7,-5.13 -6.2,-5.13 -6.7,-5.13 -2.49,0 -4.47,1.49 -5.61,3.33 -1.5,2.39 -1.5,5.69 -1.5,7.48 z"
         inkscape:connector-curvature="0"
         style="fill:#000000;stroke-width:0" /><path
         id="path10816"
         d="m 1034.8,209.34 v 15.8 l -7.2,-0.55 v -1.55 c 3.5,0 3.9,-0.34 3.9,-2.79 v -29.69 h 1.3 c 0,0.04 0.4,0.75 1.7,3.09 0.8,-1.15 2.9,-3.64 6.6,-3.64 l -0.2,1.09 c -2.3,0 -4.1,1.21 -5.3,3.05 -0.7,1.05 -0.7,1.19 -0.7,2.08 h 0 v 10.27 c 0,0.95 0,1 0.6,1.79 1.9,2.8 4.7,3.19 5.9,3.19 2.2,0 4,-1.3 5.2,-3.19 1.3,-2.04 1.4,-4.87 1.4,-6.92 0,-1.84 -0.1,-4.83 -1.5,-7.08 -1.1,-1.54 -2.9,-3.19 -5.6,-3.19 l 0.2,-1.09 c 5.9,0 11.1,4.88 11.1,11.31 0,6.33 -4.9,11.25 -10.6,11.25 -3.9,0 -6,-2.34 -6.8,-3.23 z"
         inkscape:connector-curvature="0"
         style="fill:#000000;stroke-width:0" /><path
         id="path10818"
         d="m 1078.8,201.21 0,0.6 0,0.59 -0.1,0.58 -0.1,0.57 -0.1,0.56 -0.2,0.55 -0.1,0.54 -0.2,0.53 -0.3,0.51 -0.2,0.5 -0.3,0.49 -0.3,0.47 -0.3,0.46 -0.3,0.44 -0.3,0.43 -0.4,0.4 -0.4,0.39 -0.4,0.37 -0.4,0.35 -0.4,0.32 -0.5,0.31 -0.4,0.28 -0.5,0.26 -0.5,0.24 -0.5,0.21 -0.5,0.18 -0.5,0.16 -0.6,0.13 -0.5,0.11 -0.6,0.07 -0.5,0.05 -0.6,0.01 0,-1.09 c 2.2,0 4.3,-1.1 5.6,-3.24 1.3,-2.14 1.3,-5.03 1.3,-6.92 0,-1.8 0,-4.48 -1.1,-6.67 -1.1,-2.25 -3.3,-3.69 -5.8,-3.69 h 0 c -2.1,0 -4.3,1.05 -5.6,3.33 -1.3,2.2 -1.3,5.23 -1.3,7.03 0,1.94 0,4.63 1.2,6.83 1.3,2.28 3.7,3.33 5.7,3.33 l 0,1.09 c -6.2,0 -11,-5.42 -11,-11.66 0,-6.42 5.1,-11.2 11,-11.2 6,0 11,4.88 11,11.2 z"
         inkscape:connector-curvature="0"
         style="fill:#000000;stroke-width:0" /><path
         id="path10820"
         d="m 1093.2,202.26 0.3,0.36 0.3,0.37 0.3,0.38 0.3,0.39 0.6,0.78 0.3,0.38 0.3,0.38 0.3,0.38 0.3,0.37 0.3,0.35 0.3,0.34 0.1,0.16 0.1,0.16 0.2,0.16 0.1,0.14 0.1,0.15 0.1,0.14 0.2,0.13 0.1,0.12 c 1.5,1.78 3.6,2.53 5.9,2.58 v 1.55 c -1.3,-0.1 -2.8,-0.14 -4.1,-0.14 -1.5,0 -4.1,0.09 -4.8,0.14 v -1.55 c 1.1,-0.09 1.5,-0.73 1.5,-1.53 0,-0.8 -0.5,-1.45 -0.8,-1.75 l -3.1,-3.89 -3.8,5.03 c -0.5,0.5 -0.5,0.61 -0.5,0.91 0,0.75 0.8,1.18 1.7,1.23 v 1.55 c -1.2,-0.05 -4.5,-0.14 -5.3,-0.14 -1.1,0 -3.4,0.04 -4.8,0.14 v -1.55 c 3.5,0 3.6,-0.05 5.9,-3.03 l 5,-6.42 -4.7,-5.94 c -2.4,-2.89 -5.4,-2.99 -6.4,-2.99 v -1.54 c 1.3,0.09 2.8,0.15 4.1,0.15 1.5,0 3.6,-0.11 4.8,-0.15 v 1.54 c -1.1,0.15 -1.5,0.8 -1.5,1.55 0,1.1 1.5,2.74 4.5,6.33 l 3.8,-4.98 c 0.4,-0.55 1,-1.35 1,-1.65 0,-0.45 -0.4,-1.2 -1.8,-1.25 v -1.54 c 1.5,0.04 4.3,0.15 5.4,0.15 1.4,0 3.3,-0.06 4.8,-0.15 v 1.54 c -2.7,0 -3.6,0.1 -4.7,1.55 z"
         inkscape:connector-curvature="0"
         style="fill:#000000;stroke-width:0" /></g>  </g>
  <rect
     style="fill:none;stroke:#ff0000;stroke-width:0.99999994;stroke-linecap:butt;stroke-linejoin:miter;stroke-miterlimit:4;stroke-opacity:1;stroke-dasharray:none;stroke-dashoffset:0"
     id="rect3124"
     width="112.62531"
     height="112.62531"
     x="27.537205"
     y="67.58847" />
  <rect
     style="fill:none;stroke:#ff0000;stroke-width:0.99999994;stroke-linecap:butt;stroke-linejoin:miter;stroke-miterlimit:4;stroke-opacity:1;stroke-dasharray:none;stroke-dashoffset:0"
     id="rect3124-2"
     width="112.62531"
     height="112.62531"
     x="66.190742"
     y="28.912958" />
</svg>
