<?xml version="1.0" encoding="UTF-8" standalone="no"?>
<!-- Created with Inkscape (http://www.inkscape.org/) -->

<svg
   xmlns:dc="http://purl.org/dc/elements/1.1/"
   xmlns:cc="http://creativecommons.org/ns#"
   xmlns:rdf="http://www.w3.org/1999/02/22-rdf-syntax-ns#"
   xmlns:svg="http://www.w3.org/2000/svg"
   xmlns="http://www.w3.org/2000/svg"
   xmlns:sodipodi="http://sodipodi.sourceforge.net/DTD/sodipodi-0.dtd"
   xmlns:inkscape="http://www.inkscape.org/namespaces/inkscape"
   sodipodi:docname="rho meson.svg"
   inkscape:version="0.48.2 r9819"
   version="1.1"
   id="svg2"
   height="240.77858"
   width="473.29263">
  <sodipodi:namedview
     id="base"
     pagecolor="#ffffff"
     bordercolor="#666666"
     borderopacity="1.0"
     inkscape:pageopacity="0.0"
     inkscape:pageshadow="2"
     inkscape:zoom="1.6921748"
     inkscape:cx="222.03089"
     inkscape:cy="122.69382"
     inkscape:document-units="px"
     inkscape:current-layer="svg2"
     showgrid="false"
     inkscape:window-width="1366"
     inkscape:window-height="721"
     inkscape:window-x="0"
     inkscape:window-y="21"
     inkscape:window-maximized="1"
     fit-margin-top="0"
     fit-margin-left="0"
     fit-margin-right="0"
     fit-margin-bottom="0"
     showguides="true"
     inkscape:guide-bbox="true" />
  <defs
     id="defs4">
    <marker
       inkscape:stockid="StopM"
       orient="auto"
       refY="0"
       refX="0"
       id="StopM"
       style="overflow:visible">
      <path
         id="path7406"
         d="M 0,5.65 0,-5.65"
         style="fill:none;stroke:#000000;stroke-width:1pt"
         transform="scale(0.4,0.4)"
         inkscape:connector-curvature="0" />
    </marker>
    <marker
       inkscape:stockid="StopL"
       orient="auto"
       refY="0"
       refX="0"
       id="StopL"
       style="overflow:visible">
      <path
         inkscape:connector-curvature="0"
         id="path3932"
         d="M 0,5.65 0,-5.65"
         style="fill:none;stroke:#000000;stroke-width:1pt"
         transform="scale(0.8,0.8)" />
    </marker>
    <marker
       style="overflow:visible"
       id="DistanceEnd"
       refX="0"
       refY="0"
       orient="auto"
       inkscape:stockid="DistanceEnd">
      <g
         id="g3818">
        <path
           inkscape:connector-curvature="0"
           style="fill:none;stroke:#ffffff;stroke-width:1.14999998;stroke-linecap:square"
           d="M 0,0 -2,0"
           id="path2316" />
        <path
           inkscape:connector-curvature="0"
           style="fill:#000000;fill-rule:evenodd;stroke:none"
           d="M 0,0 -13,4 -9,0 -13,-4 0,0 z"
           id="path2312" />
        <path
           inkscape:connector-curvature="0"
           style="fill:none;stroke:#000000;stroke-width:1;stroke-linecap:square"
           d="M 0,-4 0,40"
           id="path2314" />
      </g>
    </marker>
    <marker
       style="overflow:visible"
       id="DistanceStart"
       refX="0"
       refY="0"
       orient="auto"
       inkscape:stockid="DistanceStart">
      <g
         id="g2300">
        <path
           inkscape:connector-curvature="0"
           style="fill:none;stroke:#ffffff;stroke-width:1.14999998;stroke-linecap:square"
           d="M 0,0 2,0"
           id="path2306" />
        <path
           inkscape:connector-curvature="0"
           style="fill:#000000;fill-rule:evenodd;stroke:none"
           d="M 0,0 13,4 9,0 13,-4 0,0 z"
           id="path2302" />
        <path
           inkscape:connector-curvature="0"
           style="fill:none;stroke:#000000;stroke-width:1;stroke-linecap:square"
           d="M 0,-4 0,40"
           id="path2304" />
      </g>
    </marker>
    <marker
       inkscape:stockid="Arrow2Mstart"
       orient="auto"
       refY="0"
       refX="0"
       id="Arrow2Mstart"
       style="overflow:visible">
      <path
         inkscape:connector-curvature="0"
         id="path3786"
         style="font-size:12px;fill-rule:evenodd;stroke-width:0.625;stroke-linejoin:round"
         d="M 8.7185878,4.0337352 -2.2072895,0.01601326 8.7185884,-4.0017078 c -1.7454984,2.3720609 -1.7354408,5.6174519 -6e-7,8.035443 z"
         transform="scale(0.6,0.6)" />
    </marker>
    <marker
       inkscape:stockid="Arrow1Sstart"
       orient="auto"
       refY="0"
       refX="0"
       id="Arrow1Sstart"
       style="overflow:visible">
      <path
         inkscape:connector-curvature="0"
         id="path3774"
         d="M 0,0 5,-5 -12.5,0 5,5 0,0 z"
         style="fill-rule:evenodd;stroke:#000000;stroke-width:1pt;marker-start:none"
         transform="matrix(0.2,0,0,0.2,1.2,0)" />
    </marker>
    <marker
       inkscape:stockid="Arrow2Sstart"
       orient="auto"
       refY="0"
       refX="0"
       id="Arrow2Sstart"
       style="overflow:visible">
      <path
         inkscape:connector-curvature="0"
         id="path3792"
         style="font-size:12px;fill-rule:evenodd;stroke-width:0.625;stroke-linejoin:round"
         d="M 8.7185878,4.0337352 -2.2072895,0.01601326 8.7185884,-4.0017078 c -1.7454984,2.3720609 -1.7354408,5.6174519 -6e-7,8.035443 z"
         transform="matrix(0.3,0,0,0.3,-0.69,0)" />
    </marker>
    <marker
       inkscape:stockid="Arrow2Mend"
       orient="auto"
       refY="0"
       refX="0"
       id="Arrow2Mend"
       style="overflow:visible">
      <path
         inkscape:connector-curvature="0"
         id="path3789"
         style="font-size:12px;fill-rule:evenodd;stroke-width:0.625;stroke-linejoin:round"
         d="M 8.7185878,4.0337352 -2.2072895,0.01601326 8.7185884,-4.0017078 c -1.7454984,2.3720609 -1.7354408,5.6174519 -6e-7,8.035443 z"
         transform="scale(-0.6,-0.6)" />
    </marker>
    <marker
       inkscape:stockid="Arrow2Mstartw"
       orient="auto"
       refY="0"
       refX="0"
       id="Arrow2Mstartw"
       style="overflow:visible">
      <path
         inkscape:connector-curvature="0"
         id="path7255"
         style="font-size:12px;fill:#0000ff;fill-rule:evenodd;stroke:#0000ff;stroke-width:0.625;stroke-linejoin:round"
         d="M 8.7185878,4.0337352 -2.2072895,0.01601326 8.7185884,-4.0017078 c -1.7454984,2.3720609 -1.7354408,5.6174519 -6e-7,8.035443 z"
         transform="scale(0.6,0.6)" />
    </marker>
    <marker
       inkscape:stockid="Arrow2MendM"
       orient="auto"
       refY="0"
       refX="0"
       id="Arrow2MendM"
       style="overflow:visible">
      <path
         inkscape:connector-curvature="0"
         id="path7598"
         style="font-size:12px;fill:#0000ff;fill-rule:evenodd;stroke:#0000ff;stroke-width:0.625;stroke-linejoin:round"
         d="M 8.7185878,4.0337352 -2.2072895,0.01601326 8.7185884,-4.0017078 c -1.7454984,2.3720609 -1.7354408,5.6174519 -6e-7,8.035443 z"
         transform="scale(-0.6,-0.6)" />
    </marker>
    <marker
       inkscape:stockid="StopLQ"
       orient="auto"
       refY="0"
       refX="0"
       id="StopLQ"
       style="overflow:visible">
      <path
         inkscape:connector-curvature="0"
         id="path16328"
         d="M 0,5.65 0,-5.65"
         style="fill:none;stroke:#0000ff;stroke-width:1pt"
         transform="scale(0.8,0.8)" />
    </marker>
    <marker
       inkscape:stockid="StopLg"
       orient="auto"
       refY="0"
       refX="0"
       id="StopLg"
       style="overflow:visible">
      <path
         inkscape:connector-curvature="0"
         id="path16331"
         d="M 0,5.65 0,-5.65"
         style="fill:none;stroke:#0000ff;stroke-width:1pt"
         transform="scale(0.8,0.8)" />
    </marker>
    <marker
       inkscape:stockid="StopMM"
       orient="auto"
       refY="0"
       refX="0"
       id="StopMM"
       style="overflow:visible">
      <path
         id="path7946"
         d="M 0,5.65 0,-5.65"
         style="fill:none;stroke:#ff0000;stroke-width:1pt"
         transform="scale(0.4,0.4)"
         inkscape:connector-curvature="0" />
    </marker>
    <marker
       inkscape:stockid="StopMU"
       orient="auto"
       refY="0"
       refX="0"
       id="StopMU"
       style="overflow:visible">
      <path
         id="path7949"
         d="M 0,5.65 0,-5.65"
         style="fill:none;stroke:#ff0000;stroke-width:1pt"
         transform="scale(0.4,0.4)"
         inkscape:connector-curvature="0" />
    </marker>
  </defs>
  <metadata
     id="metadata7">
    <rdf:RDF>
      <cc:Work
         rdf:about="">
        <dc:format>image/svg+xml</dc:format>
        <dc:type
           rdf:resource="http://purl.org/dc/dcmitype/StillImage" />
        <dc:title />
      </cc:Work>
    </rdf:RDF>
  </metadata>
  <g
     inkscape:label="Layer 1"
     inkscape:groupmode="layer"
     id="layer1"
     transform="translate(-259.09577,-705.69569)" />
  <path
     inkscape:connector-curvature="0"
     id="path4370"
     d="m 26.261427,1.5118737 0,222.6993063"
     style="fill:none;stroke:#0000ff;stroke-width:1px;stroke-linecap:butt;stroke-linejoin:miter;stroke-opacity:1;marker-start:url(#Arrow2Mstartw);marker-mid:none" />
  <path
     inkscape:connector-curvature="0"
     id="path4374"
     d="m 7.267882,213.76473 379.396048,0"
     style="fill:none;stroke:#0000ff;stroke-width:1px;stroke-linecap:butt;stroke-linejoin:miter;stroke-opacity:1;marker-start:none;marker-mid:none;marker-end:url(#Arrow2MendM)" />
  <g
     id="g6801"
     transform="matrix(0.63295223,0,0,1.0098033,14.270319,5.3084807)">
    <path
       sodipodi:nodetypes="cssssssssssssssssssscsssscssssssssscccsccssssssscssssssssssssssccssssssssssc"
       id="path6599"
       title="-pow(x,2)"
       d="m 254.67177,101.19949 c 0.3869,-1.351722 0.77381,-2.685362 1.16072,-4.001032 0.3869,-1.31567 0.77381,-2.61327 1.16071,-3.89289 0.38691,-1.27963 0.77382,-2.54118 1.16072,-3.78476 0.3869,-1.24358 0.77381,-2.46908 1.16071,-3.67662 0.38691,-1.20753 0.77382,-2.39699 1.16072,-3.56848 0.38691,-1.17149 0.77381,-2.32491 1.16072,-3.46035 0.38691,-1.13545 0.77381,-2.25281 1.16072,-3.35221 0.3869,-1.0994 0.7738,-2.18073 1.16071,-3.24408 0.38691,-1.06335 0.77381,-2.10863 1.16072,-3.13594 0.3869,-1.02731 0.77381,-2.03654 1.16072,-3.02781 0.3869,-0.99126 0.77381,-1.96445 1.16071,-2.91966 0.38691,-0.95522 0.77381,-1.89236 1.16072,-2.81154 0.3869,-0.91917 0.77381,-1.820267 1.16071,-2.703394 0.38691,-0.883128 0.77382,-1.748179 1.16072,-2.595261 0.38691,-0.847083 0.77381,-1.676089 1.16072,-2.487126 0.38691,-0.811037 0.77381,-1.603997 1.16071,-2.378989 0.38691,-0.774992 0.77382,-1.531907 1.16072,-2.270853 0.38691,-0.738947 0.77381,-1.459817 1.16072,-2.162718 0.3869,-0.702901 0.77381,-1.387726 1.16072,-2.054582 0.3869,-0.666856 0.77381,-1.315635 1.16071,-1.946446 0.38691,-0.63081 0.77381,-1.243544 1.16072,-1.83831 0.3869,-0.594765 0.77381,-1.171454 1.16072,-1.730174 0.3869,-0.55872 0.77381,-1.099363 1.16071,-1.622038 0.38691,-0.522675 0.77382,-1.027273 1.16072,-1.513902 0.38691,-0.48663 0.77381,-0.955182 1.16071,-1.405767 0.38691,-0.450584 0.77382,-0.883091 1.16072,-1.29763 0.38691,-0.414539 0.77381,-0.811001 1.16072,-1.189495 0.38691,-0.378494 0.77381,-0.73891 1.16072,-1.081359 0.3869,-0.342448 0.77381,-0.66682 1.16071,-0.973223 0.38691,-0.306403 0.77381,-0.594729 1.16072,-0.865087 0.3869,-0.270357 0.77381,-0.522638 1.16072,-0.756951 0.3869,-0.234312 0.77381,-0.450548 1.16071,-0.648815 0.38691,-0.198267 0.77382,-0.378458 1.16072,-0.540679 0.3869,-0.162222 0.77381,-0.306367 1.16071,-0.432544 0.38691,-0.126177 0.77382,-0.234276 1.16072,-0.324408 0.38691,-0.09013 0.77381,-0.162185 1.16072,-0.216271 0.38691,-0.05409 0.77381,-0.0901 1.16072,-0.108136 0.3869,-0.01804 0.7738,-0.018 1.16071,0 0.38691,0.018 0.77381,0.05409 1.16072,0.108136 0.3869,0.05405 0.77381,0.126176 1.16072,0.216271 0.3869,0.0901 0.77381,0.198267 1.16071,0.324408 0.38691,0.12614 0.77382,0.270358 1.16072,0.432544 0.3869,0.162185 0.77381,0.342448 1.16071,0.540679 0.38691,0.198231 0.77382,0.414539 1.16072,0.648815 0.38691,0.234277 0.77381,0.48663 1.16072,0.756951 0.38691,0.270322 0.77381,0.55872 1.16072,0.865087 0.3869,0.306367 0.7738,0.630811 1.16071,0.973223 0.38691,0.342413 0.77381,0.702902 1.16072,1.081359 0.3869,0.378458 0.77381,0.774992 1.16072,1.189495 0.3869,0.414503 0.77381,0.847082 1.16071,1.29763 0.38691,0.450548 0.77381,0.919173 1.16072,1.405767 0.3869,0.486593 0.77381,0.991263 1.16071,1.513902 0.38691,0.522639 0.77382,1.063354 1.16072,1.622038 0.38691,0.558684 0.77381,1.135445 1.16072,1.730174 0.38691,0.59473 0.77381,1.207536 1.16071,1.83831 0.38691,0.630775 0.77381,1.279626 1.16072,1.946446 0.38691,0.66682 0.77381,1.351717 1.16072,2.054582 0.3869,0.702865 0.77381,1.423807 1.16072,2.162718 0.3869,0.73891 0.77381,1.495897 1.16071,2.270853 0.3869,0.774956 0.77381,1.567988 1.16072,2.378989 0.3869,0.811001 0.77381,1.640079 1.16071,2.487126 0.38691,0.847046 0.77382,1.712169 1.16072,2.595261 0.38691,0.883091 0.77381,1.78426 1.16072,2.703394 0.3869,0.91914 0.77381,1.85635 1.16071,2.81154 0.38691,0.95518 0.77382,1.92844 1.16072,2.91966 0.38691,0.99123 0.77381,2.00054 1.16072,3.02781 0.3869,1.02727 0.77381,2.07262 1.16072,3.13594 0.3869,1.06332 0.7738,2.14471 1.16071,3.24408 0.38691,1.09936 0.77381,2.2168 1.16072,3.35221 0.3869,1.13541 0.77381,2.28889 1.16072,3.46035 0.3869,1.17145 0.77381,2.36098 1.16071,3.56848 0.38691,1.2075 0.77382,2.43308 1.16072,3.67662 0.3869,1.24355 0.77381,2.50517 1.16071,3.78476 0.38691,1.27959 0.77382,2.57725 1.16072,3.89289 0.38691,1.31563 0.77381,2.64935 1.16072,4.001032"
       style="fill:none;stroke:#0000ff;stroke-width:1.25082386;stroke-linecap:butt;stroke-linejoin:bevel;stroke-miterlimit:4;stroke-opacity:1;stroke-dasharray:none;stroke-dashoffset:0"
       inkscape:connector-curvature="0" />
    <path
       sodipodi:nodetypes="ccccccccccccccccssscccssscsssscsccsccccccsccccssssssssscsscsssssssssssssssssssssssssssssc"
       inkscape:connector-curvature="0"
       style="fill:none;stroke:#0000ff;stroke-width:1.25082386;stroke-linecap:butt;stroke-linejoin:bevel;stroke-miterlimit:4;stroke-opacity:1;stroke-dasharray:none;stroke-dashoffset:0"
       d="m 41.092233,205.01018 c 0.810583,-0.003 1.621166,-0.006 2.431749,-0.01 0.810583,-0.003 1.621166,-0.007 2.431749,-0.0104 0.810583,-0.004 1.621167,-0.007 2.43175,-0.0112 0.810583,-0.004 1.621166,-0.008 2.431749,-0.0121 0.810583,-0.004 1.621166,-0.009 2.431749,-0.0131 0.810583,-0.005 1.621166,-0.009 2.43175,-0.0141 0.810583,-0.005 1.621166,-0.01 2.431749,-0.0153 0.810583,-0.005 1.621166,-0.0108 2.431749,-0.0165 0.810583,-0.006 1.621166,-0.0116 2.431749,-0.0178 0.810583,-0.006 1.621167,-0.0126 2.43175,-0.0192 0.810583,-0.007 1.621166,-0.0136 2.431749,-0.0208 0.810583,-0.007 1.621166,-0.0147 2.431749,-0.0224 0.810583,-0.008 1.621166,-0.0158 2.43175,-0.0242 0.810583,-0.008 1.621166,-0.0171 2.431749,-0.0262 0.810583,-0.009 1.621166,-0.0185 2.431749,-0.0283 0.810583,-0.01 1.621166,-0.0199 2.431749,-0.0305 0.810584,-0.0106 1.621167,-0.0216 2.43175,-0.033 0.810583,-0.0114 1.621166,-0.0233 2.431749,-0.0356 0.810583,-0.0123 1.621166,-0.0251 2.431749,-0.0385 0.810583,-0.0133 1.621167,-0.0272 2.43175,-0.0415 0.810583,-0.0144 1.621166,-0.0293 2.431749,-0.0449 0.810583,-0.0155 1.621166,-0.0317 2.431749,-0.0485 0.810583,-0.0168 1.621166,-0.0342 2.431749,-0.0523 0.810584,-0.0181 1.621167,-0.0369 2.43175,-0.0565 0.810354,-0.0196 1.620944,-0.0399 2.431524,-0.0611 0.81058,-0.0211 1.62117,-0.0431 2.43175,-0.0659 0.81058,-0.0228 1.62117,-0.0465 2.43175,-0.0712 0.81058,-0.0247 1.62117,-0.0503 2.43175,-0.0769 0.81058,-0.0266 1.62117,-0.0543 2.43175,-0.0831 0.81058,-0.0288 1.62116,-0.0587 2.43175,-0.0897 0.81058,-0.0311 1.62116,-0.0633 2.43175,-0.0969 0.81058,-0.0336 1.62116,-0.0684 2.43175,-0.10467 0.81058,-0.0362 1.62116,-0.0739 2.43175,-0.11306 0.81058,-0.0391 1.62116,-0.0798 2.43174,-0.1221 0.81059,-0.0423 1.62117,-0.0862 2.43175,-0.13188 0.81059,-0.0457 1.62117,-0.0931 2.43175,-0.14244 0.81059,-0.0493 1.62117,-0.10057 2.43175,-0.15385 0.81059,-0.0533 1.62117,-0.10861 2.43175,-0.16616 0.81058,-0.0575 1.62117,-0.11731 2.43175,-0.17946 0.81058,-0.0622 1.62117,-0.1267 2.43175,-0.19383 0.81058,-0.0671 1.62117,-0.13685 2.43175,-0.20935 0.81058,-0.0725 1.62117,-0.1478 2.43175,-0.22611 0.81058,-0.0783 1.62117,-0.15964 2.43175,-0.24421 0.81058,-0.0846 1.62116,-0.17242 2.43175,-0.26377 0.81058,-0.0913 1.62116,-0.18622 2.43175,-0.28488 0.81058,-0.0987 1.62116,-0.20112 2.43175,-0.30768 0.81058,-0.10656 1.62116,-0.21723 2.43175,-0.33232 0.81058,-0.11509 1.62116,-0.23463 2.43174,-0.35893 0.81059,-0.1243 1.62117,-0.25341 2.43175,-0.38766 0.81059,-0.13426 1.62117,-0.2737 2.43175,-0.4187 0.81059,-0.145 1.62117,-0.29561 2.43175,-0.45222 0.81059,-0.15661 1.62117,-0.31927 2.43175,-0.48842 0.81059,-0.16915 1.62117,-0.34484 2.43175,-0.52753 0.81058,-0.18269 1.62117,-0.37244 2.43175,-0.56976 0.81058,-0.19732 1.62117,-0.40226 2.43175,-0.61538 0.81058,-0.21311 1.62117,-0.43446 2.43175,-0.66464 0.81058,-0.23018 1.62117,-0.46924 2.43175,-0.71785 0.81058,-0.24861 1.62116,-0.50681 2.43175,-0.77532 0.81058,-0.26852 1.62116,-0.54739 2.43175,-0.8374 0.81058,-0.29001 1.62116,-0.59121 2.43175,-0.90444 0.81058,-0.31323 1.62116,-0.63854 2.43175,-0.97685 0.81058,-0.3383 1.62116,-0.68966 2.43174,-1.05505 0.81059,-0.36539 1.62117,-0.74488 2.43175,-1.13952 0.81059,-0.39464 1.62117,-0.80452 2.43175,-1.23075 0.81059,-0.42624 1.62117,-0.86893 2.43175,-1.32928 0.81059,-0.46036 1.62117,-0.9385 2.43175,-1.43571 0.81059,-0.49722 1.62117,-1.01363 2.43175,-1.55065 0.81058,-0.53702 1.62117,-1.09478 2.43175,-1.67479 0.81058,-0.58002 1.62117,-1.18243 2.43175,-1.80888 0.81058,-0.62645 1.62117,-1.27709 2.43175,-1.95369 0.81058,-0.67661 1.62117,-1.37934 2.43175,-2.11011 0.81058,-0.73077 1.62116,-1.48976 2.43175,-2.27904 0.81058,-0.78928 1.62116,-1.60903 2.43175,-2.4615 0.81058,-0.85247 1.62116,-1.73785 2.43175,-2.65857 0.81058,-0.92072 1.62116,-1.87698 2.43175,-2.87141 0.81058,-0.99443 1.62116,-2.02725 2.43175,-3.1013 0.81058,-1.07404 1.62116,-2.18955 2.43174,-3.34958 0.81059,-1.16003 1.62117,-2.36485 2.43175,-3.61776 0.81059,-1.2529 1.62117,-2.55417 2.43175,-3.90738 0.81059,-1.35321 1.62117,-2.75867 2.43175,-4.22022 0.81059,-1.46155 1.62117,-2.97952 2.43175,-4.55808 0.81058,-1.57856 1.62117,-3.21806 2.43175,-4.923 0.81058,-1.70494 1.62117,-3.4757 2.43175,-5.31714 0.81058,-1.84143 1.62117,-3.75396 2.43175,-5.74282 0.81058,-1.98886 1.62117,-4.05451 2.43175,-6.20259 0.81058,-2.14809 1.62116,-4.37911 2.43175,-6.69918 0.81058,-2.32006 1.62116,-4.7297 2.43175,-7.2355 0.81058,-2.50581 1.62116,-5.10836 2.43175,-7.814779"
       title="pow(2,x)"
       id="path6746" />
    <path
       sodipodi:nodetypes="ccccccccccccccccssscccssscsssscsccsccccccsccccssssssssscsscsssssssssssssssssssssssssssssc"
       inkscape:connector-curvature="0"
       style="fill:none;stroke:#0000ff;stroke-width:1.25082386;stroke-linecap:butt;stroke-linejoin:bevel;stroke-miterlimit:4;stroke-opacity:1;stroke-dasharray:none;stroke-dashoffset:0"
       d="m 555.27854,205.01018 c -0.81058,-0.003 -1.62117,-0.006 -2.43175,-0.01 -0.81058,-0.003 -1.62116,-0.007 -2.43175,-0.0104 -0.81058,-0.004 -1.62116,-0.007 -2.43175,-0.0112 -0.81058,-0.004 -1.62116,-0.008 -2.43175,-0.0121 -0.81058,-0.004 -1.62116,-0.009 -2.43175,-0.0131 -0.81058,-0.005 -1.62116,-0.009 -2.43175,-0.0141 -0.81058,-0.005 -1.62116,-0.01 -2.43175,-0.0153 -0.81058,-0.005 -1.62116,-0.0108 -2.43174,-0.0165 -0.81059,-0.006 -1.62117,-0.0116 -2.43175,-0.0178 -0.81059,-0.006 -1.62117,-0.0126 -2.43175,-0.0192 -0.81059,-0.007 -1.62117,-0.0136 -2.43175,-0.0208 -0.81059,-0.007 -1.62117,-0.0147 -2.43175,-0.0224 -0.81058,-0.008 -1.62117,-0.0158 -2.43175,-0.0242 -0.81058,-0.008 -1.62117,-0.0171 -2.43175,-0.0262 -0.81058,-0.009 -1.62117,-0.0185 -2.43175,-0.0283 -0.81058,-0.01 -1.62117,-0.0199 -2.43175,-0.0305 -0.81058,-0.0106 -1.62117,-0.0216 -2.43175,-0.033 -0.81058,-0.0114 -1.62116,-0.0233 -2.43175,-0.0356 -0.81058,-0.0123 -1.62116,-0.0251 -2.43175,-0.0385 -0.81058,-0.0133 -1.62116,-0.0272 -2.43175,-0.0415 -0.81058,-0.0144 -1.62116,-0.0293 -2.43175,-0.0449 -0.81058,-0.0155 -1.62116,-0.0317 -2.43174,-0.0485 -0.81059,-0.0168 -1.62117,-0.0342 -2.43175,-0.0523 -0.81059,-0.0181 -1.62117,-0.0369 -2.43175,-0.0565 -0.81058,-0.0196 -1.62117,-0.0399 -2.43175,-0.0611 -0.81058,-0.0211 -1.62117,-0.0431 -2.43175,-0.0659 -0.81058,-0.0228 -1.62117,-0.0465 -2.43175,-0.0712 -0.81058,-0.0247 -1.62117,-0.0503 -2.43175,-0.0769 -0.81058,-0.0266 -1.62117,-0.0543 -2.43175,-0.0831 -0.81058,-0.0288 -1.62116,-0.0587 -2.43175,-0.0897 -0.81058,-0.0311 -1.62116,-0.0633 -2.43175,-0.0969 -0.81058,-0.0336 -1.62116,-0.0684 -2.43175,-0.10467 -0.81058,-0.0362 -1.62116,-0.0739 -2.43175,-0.11306 -0.81058,-0.0391 -1.62116,-0.0798 -2.43174,-0.1221 -0.81059,-0.0423 -1.62117,-0.0862 -2.43175,-0.13188 -0.81059,-0.0457 -1.62117,-0.0931 -2.43175,-0.14244 -0.81059,-0.0493 -1.62117,-0.10057 -2.43175,-0.15385 -0.81059,-0.0533 -1.62117,-0.10861 -2.43175,-0.16616 -0.81058,-0.0575 -1.62117,-0.11731 -2.43175,-0.17946 -0.81058,-0.0622 -1.62117,-0.1267 -2.43175,-0.19383 -0.81058,-0.0671 -1.62117,-0.13685 -2.43175,-0.20935 -0.81058,-0.0725 -1.62117,-0.1478 -2.43175,-0.22611 -0.81058,-0.0783 -1.62117,-0.15964 -2.43175,-0.24421 -0.81058,-0.0846 -1.62116,-0.17242 -2.43175,-0.26377 -0.81058,-0.0913 -1.62116,-0.18622 -2.43175,-0.28488 -0.81058,-0.0987 -1.62116,-0.20112 -2.43175,-0.30768 -0.81058,-0.10656 -1.62116,-0.21723 -2.43175,-0.33232 -0.81058,-0.11509 -1.62116,-0.23463 -2.43174,-0.35893 -0.81059,-0.1243 -1.62117,-0.25341 -2.43175,-0.38766 -0.81059,-0.13426 -1.62117,-0.2737 -2.43175,-0.4187 -0.81059,-0.145 -1.62117,-0.29561 -2.43175,-0.45222 -0.81059,-0.15661 -1.62117,-0.31927 -2.43175,-0.48842 -0.81059,-0.16915 -1.62117,-0.34484 -2.43175,-0.52753 -0.81058,-0.18269 -1.62117,-0.37244 -2.43175,-0.56976 -0.81058,-0.19732 -1.62117,-0.40226 -2.43175,-0.61538 -0.81058,-0.21311 -1.62117,-0.43446 -2.43175,-0.66464 -0.81058,-0.23018 -1.62117,-0.46924 -2.43175,-0.71785 -0.81058,-0.24861 -1.62116,-0.50681 -2.43175,-0.77532 -0.81058,-0.26852 -1.62116,-0.54739 -2.43175,-0.8374 -0.81058,-0.29001 -1.62116,-0.59121 -2.43175,-0.90444 -0.81058,-0.31323 -1.62116,-0.63854 -2.43175,-0.97685 -0.81058,-0.3383 -1.62116,-0.68966 -2.43174,-1.05505 -0.81059,-0.36539 -1.62117,-0.74488 -2.43175,-1.13952 -0.81059,-0.39464 -1.62117,-0.80452 -2.43175,-1.23075 -0.81059,-0.42624 -1.62117,-0.86893 -2.43175,-1.32928 -0.81059,-0.46036 -1.62117,-0.9385 -2.43175,-1.43571 -0.81059,-0.49722 -1.62117,-1.01363 -2.43175,-1.55065 -0.81058,-0.53702 -1.62117,-1.09478 -2.43175,-1.67479 -0.81058,-0.58002 -1.62117,-1.18243 -2.43175,-1.80888 -0.81058,-0.62645 -1.62117,-1.27709 -2.43175,-1.95369 -0.81058,-0.67661 -1.62117,-1.37934 -2.43175,-2.11011 -0.81058,-0.73077 -1.62116,-1.48976 -2.43175,-2.27904 -0.81058,-0.78928 -1.62116,-1.60903 -2.43175,-2.4615 -0.81058,-0.85247 -1.62116,-1.73785 -2.43175,-2.65857 -0.81058,-0.92072 -1.62116,-1.87698 -2.43175,-2.87141 -0.81058,-0.99443 -1.62116,-2.02725 -2.43175,-3.1013 -0.81058,-1.07404 -1.62116,-2.18955 -2.43174,-3.34958 -0.81059,-1.16003 -1.62117,-2.36485 -2.43175,-3.61776 -0.81059,-1.2529 -1.62117,-2.55417 -2.43175,-3.90738 -0.81059,-1.35321 -1.62117,-2.75867 -2.43175,-4.22022 -0.81059,-1.46155 -1.62117,-2.97952 -2.43175,-4.55808 -0.81058,-1.57856 -1.62117,-3.21806 -2.43175,-4.923 -0.81058,-1.70494 -1.62117,-3.4757 -2.43175,-5.31714 -0.81058,-1.84143 -1.62117,-3.75396 -2.43175,-5.74282 -0.81058,-1.98886 -1.62117,-4.05451 -2.43175,-6.20259 -0.81058,-2.14809 -1.62116,-4.37911 -2.43175,-6.69918 -0.81058,-2.32006 -1.62116,-4.7297 -2.43175,-7.2355 -0.81058,-2.50581 -1.62116,-5.10836 -2.43175,-7.814782"
       title="pow(2,x)"
       id="path6746-7" />
  </g>
  <path
     style="fill:#ff0000;stroke:#ff0000;stroke-width:1px;stroke-linecap:butt;stroke-linejoin:miter;stroke-opacity:1;marker-start:url(#StopMM);marker-end:url(#StopMU)"
     d="m 172.31634,122.2462 61.33503,0"
     id="path6810"
     inkscape:connector-curvature="0" />
  <path
     inkscape:connector-curvature="0"
     id="path8004"
     d="m 202.88457,21.560974 0,195.672496"
     style="fill:none;stroke:#ff0000;stroke-width:1;stroke-linecap:butt;stroke-linejoin:miter;stroke-miterlimit:4;stroke-opacity:1;stroke-dasharray:8, 8;stroke-dashoffset:0" />
  <g
     id="g8053"
     transform="matrix(0.64337453,0,0,0.64337453,91.908468,77.811658)">
    <g
       word-spacing="normal"
       letter-spacing="normal"
       font-size-adjust="none"
       font-stretch="normal"
       font-weight="normal"
       font-variant="normal"
       font-style="normal"
       stroke-miterlimit="10.433"
       xml:space="preserve"
       transform="matrix(0.37919254,0,0,-0.37919254,-66.358695,387.37134)"
       id="content"
       style="font-style:normal;font-variant:normal;font-weight:normal;font-stretch:normal;letter-spacing:normal;word-spacing:normal;text-anchor:start;fill:none;stroke:#000000;stroke-width:1.5543046;stroke-linecap:butt;stroke-linejoin:miter;stroke-miterlimit:10.43299961;stroke-opacity:1;stroke-dasharray:none;stroke-dashoffset:0"><path
         id="path8056"
         d="m 459.91,391.14 -0.02,-0.07 -0.01,-0.08 -0.02,-0.07 -0.01,-0.08 -0.04,-0.16 -0.04,-0.16 -0.03,-0.16 -0.04,-0.16 -0.04,-0.16 -0.04,-0.16 -0.01,-0.08 -0.02,-0.07 -0.02,-0.07 -0.01,-0.07 -0.02,-0.07 -0.01,-0.07 -0.01,-0.06 -0.01,-0.06 -0.01,-0.06 -0.01,-0.05 -0.01,-0.05 -0.01,-0.04 -0.01,-0.04 0,-0.04 0,-0.03 0,-0.02 c 0,-0.89 0.7,-1.35 1.43,-1.35 0.61,0 1.5,0.39 1.85,1.39 0.06,0.11 0.65,2.44 0.95,3.69 l 1.1,4.48 c 0.29,1.1 0.59,2.19 0.84,3.35 0.2,0.84 0.61,2.28 0.66,2.48 0.75,1.55 3.39,6.08 8.1,6.08 2.25,0 2.71,-1.84 2.71,-3.48 0,-1.25 -0.36,-2.64 -0.75,-4.14 l -1.39,-5.79 -1,-3.78 c -0.21,-1 -0.66,-2.68 -0.66,-2.93 0,-0.89 0.7,-1.35 1.45,-1.35 1.55,0 1.85,1.25 2.24,2.85 0.7,2.78 2.55,10.06 3,12 0.14,0.65 2.78,6.62 8.22,6.62 2.14,0 2.68,-1.69 2.68,-3.48 0,-2.85 -2.09,-8.52 -3.09,-11.16 -0.45,-1.2 -0.64,-1.75 -0.64,-2.75 0,-2.33 1.73,-4.08 4.08,-4.08 4.69,0 6.53,7.27 6.53,7.67 0,0.5 -0.45,0.5 -0.59,0.5 -0.5,0 -0.5,-0.15 -0.75,-0.9 -0.75,-2.64 -2.35,-6.17 -5.08,-6.17 -0.86,0 -1.21,0.5 -1.21,1.64 0,1.25 0.46,2.45 0.9,3.54 0.95,2.58 3.04,8.11 3.04,10.96 0,3.23 -2,5.32 -5.73,5.32 -3.74,0 -6.27,-2.18 -8.11,-4.82 -0.06,0.65 -0.2,2.34 -1.61,3.53 -1.24,1.04 -2.83,1.29 -4.08,1.29 -4.48,0 -6.92,-3.18 -7.76,-4.32 -0.25,2.84 -2.35,4.32 -4.6,4.32 -2.28,0 -3.23,-1.93 -3.69,-2.82 -0.89,-1.75 -1.54,-4.69 -1.54,-4.85 0,-0.5 0.5,-0.5 0.61,-0.5 0.5,0 0.54,0.07 0.84,1.16 0.84,3.53 1.84,5.92 3.64,5.92 0.8,0 1.55,-0.39 1.55,-2.28 0,-1.05 -0.16,-1.61 -0.8,-4.19 z"
         inkscape:connector-curvature="0"
         style="fill:#000000;stroke-width:0" /><path
         id="path8058"
         d="m 501.07,375.15 -0.01,-0.05 -0.01,-0.04 -0.01,-0.04 -0.01,-0.05 -0.01,-0.04 0,-0.03 -0.01,-0.04 -0.01,-0.04 0,-0.03 -0.01,-0.03 -0.01,-0.03 0,-0.03 0,-0.03 -0.01,-0.02 0,-0.02 -0.01,-0.03 0,-0.02 0,-0.02 0,-0.02 0,-0.01 -0.01,-0.02 0,-0.01 0,-0.01 0,-0.02 0,-0.01 0,-0.01 0,-0.01 0,0 0,-0.01 0,0 0,-0.01 0,0 c 0,-0.77 0.62,-1.11 1.17,-1.11 1.27,0 1.53,1.05 1.78,2.15 0.49,1.82 1.47,5.79 1.81,7.11 0.32,-0.51 1.43,-2.15 3.83,-2.15 l -0.03,0.97 c -2.58,0 -3.34,2.57 -3.34,3.03 0,0.08 0.2,0.84 0.31,1.25 1.05,4.29 1.25,5.09 2.27,6.62 1.25,1.85 3,2.86 4.39,2.86 1.42,0 2.78,-1.01 2.78,-3.51 0,-1.61 -0.91,-5.47 -1.99,-7.22 -1.59,-2.47 -3.34,-3.03 -4.42,-3.03 h 0 l 0.03,-0.97 c 4.47,0 9.21,4.73 9.21,9.83 0,3.68 -2.47,5.87 -5.55,5.87 -3.41,0 -7.63,-2.98 -8.84,-7.91 z"
         inkscape:connector-curvature="0"
         style="fill:#000000;stroke-width:0" /><path
         id="path8060"
         d="m 572.25,410.71 0,0.1 0,0.09 -0.01,0.09 -0.01,0.09 0,0.08 -0.01,0.08 -0.02,0.08 -0.01,0.07 -0.01,0.07 -0.02,0.07 -0.02,0.06 -0.02,0.06 -0.02,0.06 -0.02,0.05 -0.02,0.05 -0.02,0.05 -0.03,0.04 -0.03,0.04 -0.02,0.04 -0.03,0.04 -0.03,0.03 -0.03,0.03 -0.03,0.02 -0.03,0.03 -0.03,0.02 -0.03,0.02 -0.03,0.01 -0.03,0.01 -0.03,0.01 -0.03,0.01 -0.04,0 -0.03,0 c -0.2,0 -0.65,-0.2 -0.7,-1.34 -0.2,-3.44 -3.69,-5.48 -6.92,-5.48 -2.89,0 -5.39,1.54 -7.99,3.29 -2.68,1.78 -5.37,3.58 -8.61,3.58 -4.64,0 -8.32,-3.53 -8.32,-8.12 0,-1.1 0.4,-1.49 0.7,-1.49 0.5,0 0.7,0.94 0.7,1.14 0.25,4.19 4.33,5.69 6.92,5.69 2.89,0 5.38,-1.55 7.97,-3.3 2.69,-1.79 5.38,-3.59 8.63,-3.59 4.62,0 8.31,3.55 8.31,8.12 z"
         inkscape:connector-curvature="0"
         style="fill:#000000;stroke-width:0" /><path
         id="path8062"
         d="m 572.25,399.06 0,0.07 0,0.06 0,0.06 -0.01,0.07 0,0.06 0,0.05 -0.01,0.06 -0.01,0.05 0,0.05 -0.01,0.06 -0.01,0.04 -0.01,0.05 0,0.05 -0.01,0.04 -0.01,0.04 -0.01,0.04 -0.02,0.04 -0.01,0.04 -0.01,0.04 -0.01,0.03 -0.01,0.03 -0.02,0.04 -0.01,0.03 -0.01,0.03 -0.02,0.02 -0.01,0.03 -0.03,0.05 -0.03,0.05 -0.03,0.04 -0.03,0.03 -0.03,0.04 -0.03,0.02 -0.03,0.03 -0.03,0.02 -0.03,0.02 -0.02,0.01 -0.03,0.02 -0.03,0.01 -0.02,0.01 -0.02,0 -0.02,0.01 -0.02,0 -0.01,0 -0.02,0 -0.01,0.01 c -0.2,0 -0.65,-0.25 -0.7,-1.35 -0.2,-3.44 -3.69,-5.48 -6.92,-5.48 -2.89,0 -5.39,1.54 -7.99,3.29 -2.68,1.79 -5.37,3.58 -8.61,3.58 -4.64,0 -8.32,-3.53 -8.32,-8.12 0,-1.1 0.4,-1.49 0.7,-1.49 0.5,0 0.7,0.94 0.7,1.14 0.25,4.19 4.33,5.69 6.92,5.69 2.89,0 5.38,-1.55 7.97,-3.3 2.69,-1.79 5.38,-3.57 8.63,-3.57 4.73,0 8.31,3.68 8.31,8.06 z"
         inkscape:connector-curvature="0"
         style="fill:#000000;stroke-width:0" /><path
         id="path8064"
         d="m 612.55,418.54 0.04,0.06 0.04,0.05 0.04,0.05 0.03,0.05 0.03,0.04 0.03,0.04 0.02,0.05 0.03,0.04 0.02,0.04 0.02,0.04 0.02,0.04 0.02,0.04 0.01,0.04 0.01,0.04 0.02,0.04 0.01,0.04 0.01,0.04 0.01,0.05 0,0.05 0.01,0.04 0,0.06 0.01,0.05 0,0.06 0.01,0.06 0,0.06 0,0.07 0,0.07 0,0.08 0,0.08 0,0.08 0,0.09 0,0.05 0,0.05 H 600.9 c -6.08,0 -6.19,0.65 -6.39,1.59 h -1.24 l -1.64,-10.25 h 1.24 c 0.15,0.8 0.61,3.94 1.25,4.53 0.34,0.3 4.23,0.3 4.87,0.3 h 10.33 c -0.56,-0.8 -4.48,-6.24 -5.59,-7.88 -4.49,-6.71 -6.13,-13.65 -6.13,-18.73 0,-0.5 0,-2.73 2.3,-2.73 2.3,0 2.3,2.23 2.3,2.73 v 2.55 c 0,2.73 0.14,5.48 0.54,8.17 0.19,1.14 0.89,5.42 3.08,8.51 z"
         inkscape:connector-curvature="0"
         style="fill:#000000;stroke-width:0" /><path
         id="path8066"
         d="m 637.51,418.54 0.04,0.06 0.04,0.05 0.03,0.05 0.04,0.05 0.03,0.04 0.02,0.04 0.03,0.05 0.02,0.04 0.03,0.04 0.02,0.04 0.02,0.04 0.01,0.04 0.02,0.04 0.01,0.04 0.01,0.04 0.01,0.04 0.01,0.04 0.01,0.05 0.01,0.05 0.01,0.04 0,0.06 0.01,0.05 0,0.06 0,0.06 0,0.06 0.01,0.07 0,0.07 0,0.08 0,0.08 0,0.08 0,0.09 0,0.05 0,0.05 h -12.1 c -6.07,0 -6.18,0.65 -6.38,1.59 h -1.24 l -1.64,-10.25 h 1.23 c 0.16,0.8 0.61,3.94 1.25,4.53 0.35,0.3 4.24,0.3 4.88,0.3 h 10.33 c -0.56,-0.8 -4.49,-6.24 -5.6,-7.88 -4.48,-6.71 -6.12,-13.65 -6.12,-18.73 0,-0.5 0,-2.73 2.29,-2.73 2.3,0 2.3,2.23 2.3,2.73 v 2.55 c 0,2.73 0.14,5.48 0.55,8.17 0.19,1.14 0.89,5.42 3.08,8.51 z"
         inkscape:connector-curvature="0"
         style="fill:#000000;stroke-width:0" /><path
         id="path8068"
         d="m 661.67,404.14 0,0.74 -0.01,0.75 -0.02,0.75 -0.03,0.74 -0.05,0.75 -0.06,0.74 -0.08,0.74 -0.09,0.73 -0.12,0.73 -0.14,0.73 -0.16,0.72 -0.19,0.72 -0.21,0.72 -0.25,0.7 -0.28,0.7 -0.15,0.35 -0.16,0.34 c -2.28,4.8 -6.37,5.6 -8.47,5.6 -2.98,0 -6.62,-1.3 -8.67,-5.94 -1.59,-3.44 -1.84,-7.33 -1.84,-11.31 0,-3.74 0.2,-8.22 2.25,-12 2.14,-4.03 5.78,-5.03 8.22,-5.03 v 1.09 c -1.94,0 -4.89,1.25 -5.78,6.03 -0.55,2.98 -0.55,7.56 -0.55,10.52 0,3.18 0,6.46 0.4,9.15 0.94,5.94 4.68,6.38 5.93,6.38 1.64,0 4.93,-0.89 5.87,-5.83 0.5,-2.78 0.5,-6.58 0.5,-9.7 0,-3.75 0,-7.13 -0.55,-10.32 -0.75,-4.73 -3.59,-6.23 -5.82,-6.23 h 0 v -1.09 c 2.68,0 6.46,1.04 8.67,5.78 1.59,3.43 1.84,7.31 1.84,11.25 z"
         inkscape:connector-curvature="0"
         style="fill:#000000;stroke-width:0" /><path
         id="path8070"
         d="m 715.86,452.11 0.04,0.16 0.04,0.16 0.04,0.15 0.04,0.14 0.04,0.14 0.04,0.13 0.04,0.12 0.05,0.12 0.05,0.11 0.05,0.1 0.06,0.09 0.07,0.1 0.08,0.08 0.08,0.08 0.09,0.07 0.09,0.07 0.11,0.06 0.12,0.06 0.13,0.06 0.14,0.04 0.15,0.05 0.09,0.02 0.08,0.02 0.09,0.01 0.09,0.02 0.1,0.02 0.1,0.01 0.1,0.01 0.11,0.02 0.11,0.01 0.12,0.01 0.12,0.01 0.12,0.01 0.13,0 0.13,0.01 0.14,0.01 0.14,0 0.15,0.01 0.15,0 0.16,0 0.16,0 0.17,0.01 0.17,0 c 1.14,0 1.59,0 1.59,1 0,0.54 -0.5,0.54 -1.34,0.54 h -6.58 c -1.29,0 -1.34,0 -1.93,-0.95 l -18.19,-28.39 -3.89,28.19 c -0.16,1.15 -0.25,1.15 -1.55,1.15 h -6.83 c -0.94,0 -1.48,0 -1.48,-0.95 0,-0.59 0.44,-0.59 1.44,-0.59 0.65,0 1.54,-0.05 2.14,-0.1 0.79,-0.11 1.09,-0.25 1.09,-0.79 0,-0.21 -0.05,-0.36 -0.19,-0.96 l -6.33,-25.36 c -0.5,-2 -1.34,-3.59 -5.39,-3.73 -0.25,0 -0.89,-0.05 -0.89,-0.95 0,-0.44 0.3,-0.6 0.71,-0.6 1.59,0 3.32,0.16 4.96,0.16 1.71,0 3.5,-0.16 5.14,-0.16 0.26,0 0.9,0 0.9,1 0,0.55 -0.55,0.55 -0.9,0.55 -2.84,0.05 -3.39,1.05 -3.39,2.19 0,0.34 0.05,0.59 0.21,1.14 l 6.76,27.15 h 0.07 l 4.28,-30.89 c 0.09,-0.59 0.14,-1.14 0.75,-1.14 0.54,0 0.84,0.55 1.09,0.89 l 20.13,31.55 h 0.04 l -7.12,-28.55 c -0.5,-1.95 -0.6,-2.34 -4.53,-2.34 -0.85,0 -1.39,0 -1.39,-0.95 0,-0.6 0.59,-0.6 0.75,-0.6 1.39,0 4.78,0.16 6.17,0.16 2.04,0 4.18,-0.16 6.23,-0.16 0.3,0 0.94,0 0.94,1 0,0.55 -0.45,0.55 -1.39,0.55 -1.84,0 -3.24,0 -3.24,0.89 0,0.2 0,0.3 0.25,1.2 z"
         inkscape:connector-curvature="0"
         style="fill:#000000;stroke-width:0" /><path
         id="path8072"
         d="m 732.79,433.44 0.15,0 0.15,0 0.17,0 0.18,0 0.18,0.01 0.2,0 0.21,0.01 0.22,0.01 0.22,0.01 0.24,0.01 0.23,0.02 0.25,0.01 0.25,0.02 0.26,0.02 0.52,0.06 0.53,0.06 0.55,0.08 0.54,0.09 0.54,0.11 0.54,0.12 0.26,0.07 0.26,0.08 0.25,0.08 0.25,0.08 0.24,0.09 0.24,0.1 c 3.48,1.5 3.73,4.44 3.73,5.12 0,2.21 -1.89,4.24 -5.33,4.24 v -1.1 c 2.35,0 3.69,-1.43 3.69,-3.14 0,-5.17 -7.97,-5.17 -10.01,-5.17 h -2.05 c 1.95,7.56 7.08,8.31 8.37,8.31 v 1.1 c -5.53,0 -13.04,-4.83 -13.04,-13.55 0,-5.08 2.94,-9.01 7.81,-9.01 7.13,0 11.31,5.28 11.31,5.87 0,0.3 -0.3,0.66 -0.59,0.66 -0.25,0 -0.34,-0.11 -0.66,-0.5 -3.93,-4.94 -9.36,-4.94 -9.95,-4.94 -3.89,0 -4.35,4.19 -4.35,5.78 0,0.59 0.05,2.14 0.8,5.19 z"
         inkscape:connector-curvature="0"
         style="fill:#000000;stroke-width:0" /><path
         id="path8074"
         d="m 777.92,450.27 0.23,0.35 0.22,0.33 0.23,0.31 0.22,0.3 0.22,0.27 0.22,0.25 0.22,0.24 0.21,0.22 0.21,0.2 0.22,0.19 0.2,0.17 0.21,0.16 0.21,0.14 0.2,0.13 0.2,0.12 0.2,0.11 0.2,0.09 0.2,0.09 0.19,0.07 0.19,0.07 0.19,0.06 0.19,0.05 0.19,0.04 0.19,0.04 0.18,0.03 0.18,0.02 0.37,0.04 0.35,0.03 0.35,0.02 c 0.59,0.04 0.64,0.89 0.64,0.95 0,0.39 -0.25,0.59 -0.64,0.59 -1.3,0 -2.75,-0.15 -4.09,-0.15 -1.65,0 -3.35,0.15 -4.94,0.15 -0.3,0 -0.94,0 -0.94,-0.95 0,-0.55 0.45,-0.59 0.8,-0.59 1.34,-0.1 2.29,-0.6 2.29,-1.64 0,-0.75 -0.75,-1.85 -0.75,-1.89 L 761.39,426.56 758,452.91 c 0,0.84 1.14,1.5 3.43,1.5 0.71,0 1.25,0 1.25,1 0,0.43 -0.4,0.54 -0.7,0.54 -1.98,0 -4.14,-0.15 -6.17,-0.15 -0.91,0 -1.84,0.04 -2.75,0.04 -0.89,0 -1.84,0.11 -2.69,0.11 -0.34,0 -0.94,0 -0.94,-0.95 0,-0.59 0.44,-0.59 1.24,-0.59 2.8,0 2.84,-0.46 3,-1.69 l 3.92,-30.75 c 0.16,-1 0.36,-1.14 1,-1.14 0.8,0 1,0.25 1.41,0.89 z"
         inkscape:connector-curvature="0"
         style="fill:#000000;stroke-width:0" /><polyline
         id="polyline8076"
         points="670,400 787.12,400 787.12,402.04 670,402.04 "
         style="fill:#000000;fill-rule:nonzero;stroke-width:0" /><path
         id="path8078"
         d="m 725.93,373.06 -0.14,0 -0.15,0 -0.15,-0.01 -0.14,0 -0.14,-0.01 -0.14,-0.02 -0.07,-0.01 -0.07,-0.01 -0.06,-0.01 -0.07,-0.02 -0.07,-0.02 -0.07,-0.02 -0.07,-0.02 -0.06,-0.02 -0.07,-0.03 -0.07,-0.03 -0.06,-0.03 -0.07,-0.04 -0.07,-0.04 -0.06,-0.04 -0.07,-0.04 -0.07,-0.05 -0.06,-0.05 -0.07,-0.06 -0.06,-0.06 -0.07,-0.06 c -0.8,-0.75 -0.89,-1.6 -0.89,-1.94 0,-1.21 0.89,-1.75 1.84,-1.75 1.44,0 2.8,1.2 2.8,3.19 0,2.43 -2.34,4.28 -5.89,4.28 -6.72,0 -13.34,-7.13 -13.34,-14.14 0,-4.49 2.89,-8.43 8.06,-8.43 7.12,0 11.31,5.29 11.31,5.88 0,0.3 -0.3,0.66 -0.59,0.66 -0.25,0 -0.35,-0.11 -0.66,-0.5 -3.94,-4.94 -9.36,-4.94 -9.95,-4.94 -3.14,0 -4.49,2.44 -4.49,5.44 0,2.03 0.99,6.87 2.69,9.95 1.55,2.84 4.28,4.98 7.02,4.98 1.7,0 3.59,-0.64 4.29,-1.98 z"
         inkscape:connector-curvature="0"
         style="fill:#000000;stroke-width:0" /><path
         id="path8080"
         d="m 745.4,374.86 h -1.19 c -0.1,-0.76 -0.46,-2.82 -0.91,-3.17 -0.27,-0.2 -2.95,-0.2 -3.44,-0.2 h -6.42 c 3.66,3.23 4.88,4.2 6.97,5.84 2.58,2.06 4.99,4.22 4.99,7.53 0,4.22 -3.69,6.8 -8.16,6.8 -4.31,0 -7.25,-3.03 -7.25,-6.23 0,-1.79 1.5,-1.96 1.86,-1.96 0.83,0 1.84,0.6 1.84,1.85 0,0.62 -0.25,1.84 -2.06,1.84 1.08,2.47 3.45,3.23 5.09,3.23 3.49,0 5.3,-2.7 5.3,-5.53 0,-3.03 -2.16,-5.43 -3.28,-6.68 l -8.39,-8.3 c -0.36,-0.31 -0.36,-0.39 -0.36,-1.36 h 14.36 z"
         inkscape:connector-curvature="0"
         style="fill:#000000;stroke-width:0" /></g>  </g>
  <g
     id="g8204"
     transform="matrix(0.64337453,0,0,0.64337453,305.75606,75.631644)">
    <g
       id="g8206"
       transform="matrix(0.37919254,0,0,-0.37919254,-66.358695,387.37134)"
       xml:space="preserve"
       stroke-miterlimit="10.433"
       font-style="normal"
       font-variant="normal"
       font-weight="normal"
       font-stretch="normal"
       font-size-adjust="none"
       letter-spacing="normal"
       word-spacing="normal"
       style="font-style:normal;font-variant:normal;font-weight:normal;font-stretch:normal;letter-spacing:normal;word-spacing:normal;text-anchor:start;fill:none;stroke:#000000;stroke-width:1.5543046;stroke-linecap:butt;stroke-linejoin:miter;stroke-miterlimit:10.43299961;stroke-opacity:1;stroke-dasharray:none;stroke-dashoffset:0"><path
         d="m 468.72,424.78 h 5.63 c -1.64,-7.38 -2.1,-9.52 -2.1,-12.85 0,-0.75 0,-2.09 0.41,-3.79 0.5,-2.19 1.05,-2.49 1.8,-2.49 0.98,0 2.03,0.89 2.03,1.89 0,0.3 0,0.41 -0.3,1.1 -1.44,3.59 -1.44,6.82 -1.44,8.22 0,2.64 0.35,5.34 0.89,7.92 h 5.69 c 0.64,0 2.44,0 2.44,1.7 0,1.19 -1.05,1.19 -2,1.19 h -16.69 c -1.09,0 -2.98,0 -5.17,-2.35 -1.75,-1.93 -3.05,-4.23 -3.05,-4.48 0,-0.05 0,-0.48 0.6,-0.48 0.4,0 0.5,0.18 0.79,0.59 2.46,3.83 5.35,3.83 6.33,3.83 h 2.85 c -1.6,-6.02 -4.29,-12.05 -6.38,-16.58 -0.41,-0.75 -0.41,-0.86 -0.41,-1.2 0,-0.96 0.8,-1.35 1.46,-1.35 1.5,0 1.89,1.39 2.48,3.24 0.71,2.29 0.71,2.39 1.35,4.89 z"
         id="path8208"
         inkscape:connector-curvature="0"
         style="fill:#000000;stroke-width:0" /><path
         d="m 498.96,424.78 h 5.63 c -1.64,-7.38 -2.1,-9.52 -2.1,-12.85 0,-0.75 0,-2.09 0.41,-3.79 0.5,-2.19 1.05,-2.49 1.8,-2.49 0.98,0 2.03,0.89 2.03,1.89 0,0.3 0,0.41 -0.3,1.1 -1.44,3.59 -1.44,6.82 -1.44,8.22 0,2.64 0.35,5.34 0.89,7.92 h 5.69 c 0.64,0 2.44,0 2.44,1.7 0,1.19 -1.05,1.19 -2,1.19 h -16.69 c -1.09,0 -2.98,0 -5.17,-2.35 -1.75,-1.93 -3.05,-4.23 -3.05,-4.48 0,-0.05 0,-0.48 0.6,-0.48 0.4,0 0.5,0.18 0.79,0.59 2.46,3.83 5.35,3.83 6.33,3.83 h 2.84 c -1.59,-6.02 -4.28,-12.05 -6.37,-16.58 -0.41,-0.75 -0.41,-0.86 -0.41,-1.2 0,-0.96 0.8,-1.35 1.46,-1.35 1.5,0 1.89,1.39 2.48,3.24 0.7,2.29 0.7,2.39 1.34,4.89 z"
         id="path8210"
         inkscape:connector-curvature="0"
         style="fill:#000000;stroke-width:0" /></g>  </g>
  <g
     id="g8342"
     transform="matrix(0.64337453,0,0,0.64337453,-68.909738,-139.47616)">
    <g
       word-spacing="normal"
       letter-spacing="normal"
       font-size-adjust="none"
       font-stretch="normal"
       font-weight="normal"
       font-variant="normal"
       font-style="normal"
       stroke-miterlimit="10.433"
       xml:space="preserve"
       transform="matrix(0.37919254,0,0,-0.37919254,-66.358695,387.37134)"
       id="g8344"
       style="font-style:normal;font-variant:normal;font-weight:normal;font-stretch:normal;letter-spacing:normal;word-spacing:normal;text-anchor:start;fill:none;stroke:#000000;stroke-width:1.5543046;stroke-linecap:butt;stroke-linejoin:miter;stroke-miterlimit:10.43299961;stroke-opacity:1;stroke-dasharray:none;stroke-dashoffset:0"><path
         id="path8346"
         d="m 493.19,435 0.1,0.37 0.05,0.18 0.06,0.17 0.06,0.18 0.07,0.17 0.07,0.16 0.08,0.16 0.08,0.16 0.09,0.16 0.1,0.15 0.1,0.14 0.12,0.14 0.12,0.14 0.13,0.13 0.15,0.12 0.15,0.12 0.16,0.11 0.18,0.11 0.18,0.11 0.2,0.09 0.21,0.09 0.23,0.09 0.23,0.07 0.26,0.07 0.26,0.07 0.28,0.05 0.3,0.05 0.31,0.04 0.33,0.04 0.35,0.03 0.18,0.01 0.19,0 c 0.25,0 0.84,0.05 0.84,1 0,0.05 0,0.55 -0.64,0.55 -1.66,0 -3.39,-0.16 -5.03,-0.16 -1.7,0 -3.44,0.16 -5.1,0.16 -0.29,0 -0.89,0 -0.89,-1 0,-0.55 0.5,-0.55 0.89,-0.55 2.85,-0.04 3.4,-1.09 3.4,-2.18 0,-0.16 -0.1,-0.91 -0.15,-1.05 l -5.57,-22.17 -11.02,26 c -0.41,0.9 -0.45,0.95 -1.59,0.95 h -6.67 c -1,0 -1.46,0 -1.46,-1 0,-0.55 0.46,-0.55 1.39,-0.55 0.25,0 3.39,0 3.39,-0.45 l -6.67,-26.75 c -0.5,-2 -1.34,-3.59 -5.37,-3.73 -0.32,0 -0.86,-0.05 -0.86,-1 0,-0.35 0.25,-0.55 0.65,-0.55 1.6,0 3.33,0.16 4.99,0.16 1.69,0 3.48,-0.16 5.12,-0.16 0.25,0 0.89,0 0.89,1 0,0.5 -0.43,0.55 -0.98,0.55 -2.89,0.09 -3.3,1.18 -3.3,2.18 0,0.35 0.05,0.6 0.21,1.14 l 6.57,26.32 c 0.21,-0.3 0.21,-0.39 0.46,-0.89 l 12.4,-29.35 c 0.35,-0.86 0.49,-0.95 0.94,-0.95 0.55,0 0.55,0.16 0.8,1.05 z"
         inkscape:connector-curvature="0"
         style="fill:#000000;stroke-width:0" /><path
         id="path8348"
         d="m 497.48,393.15 -0.01,-0.05 -0.02,-0.04 0,-0.04 -0.01,-0.05 -0.01,-0.04 -0.01,-0.03 -0.01,-0.04 -0.01,-0.04 0,-0.03 -0.01,-0.03 0,-0.03 -0.01,-0.03 0,-0.03 -0.01,-0.02 0,-0.02 0,-0.03 -0.01,-0.02 0,-0.02 0,-0.02 0,-0.01 0,-0.02 0,-0.01 -0.01,-0.01 0,-0.02 0,-0.01 0,-0.01 0,-0.01 0,0 0,-0.01 0,0 0,-0.01 0,0 c 0,-0.77 0.63,-1.11 1.17,-1.11 1.27,0 1.53,1.05 1.78,2.15 0.49,1.82 1.47,5.79 1.82,7.11 0.31,-0.51 1.42,-2.15 3.83,-2.15 l -0.04,0.97 c -2.57,0 -3.34,2.57 -3.34,3.03 0,0.08 0.2,0.84 0.31,1.25 1.05,4.29 1.25,5.09 2.27,6.62 1.25,1.85 3,2.86 4.39,2.86 1.42,0 2.78,-1.01 2.78,-3.51 0,-1.61 -0.91,-5.47 -1.98,-7.22 -1.6,-2.47 -3.35,-3.03 -4.43,-3.03 h 0 l 0.04,-0.97 c 4.46,0 9.2,4.73 9.2,9.83 0,3.68 -2.47,5.87 -5.55,5.87 -3.4,0 -7.62,-2.98 -8.84,-7.91 z"
         inkscape:connector-curvature="0"
         style="fill:#000000;stroke-width:0" /></g>  </g>
  <g
     transform="matrix(0.64337453,0,0,0.64337453,204.90914,-43.819677)"
     id="g8488">
    <g
       style="font-style:normal;font-variant:normal;font-weight:normal;font-stretch:normal;letter-spacing:normal;word-spacing:normal;text-anchor:start;fill:none;stroke:#000000;stroke-width:1.5543046;stroke-linecap:butt;stroke-linejoin:miter;stroke-miterlimit:10.43299961;stroke-opacity:1;stroke-dasharray:none;stroke-dashoffset:0"
       id="g8490"
       transform="matrix(0.37919254,0,0,-0.37919254,-66.358695,387.37134)"
       xml:space="preserve"
       stroke-miterlimit="10.433"
       font-style="normal"
       font-variant="normal"
       font-weight="normal"
       font-stretch="normal"
       font-size-adjust="none"
       letter-spacing="normal"
       word-spacing="normal"><path
         style="fill:#000000;stroke-width:0"
         inkscape:connector-curvature="0"
         d="m 484.52,422.07 h -27.36 v -1.54 h 1.2 c 3.83,0 3.94,-0.55 3.94,-2.33 v -26.11 c 0,-1.8 -0.11,-2.34 -3.94,-2.34 h -1.2 v -1.55 c 1.75,0.16 5.64,0.16 7.58,0.16 2.05,0 6.58,0 8.37,-0.16 v 1.55 h -1.65 c -4.74,0 -4.74,0.64 -4.74,2.39 v 12.25 h 4.3 c 4.78,0 5.28,-1.6 5.28,-5.83 h 1.24 v 13.2 h -1.24 c 0,-4.19 -0.5,-5.83 -5.28,-5.83 h -4.3 v 12.61 c 0,1.64 0.11,1.99 2.46,1.99 h 5.96 c 7.49,0 8.72,-2.78 9.52,-9.66 h 1.25 z"
         id="path8492" /><path
         style="fill:#000000;stroke-width:0"
         inkscape:connector-curvature="0"
         d="m 503.32,392.14 v -4.49 l 7.18,0.55 v 1.55 c -3.49,0 -3.89,0.34 -3.89,2.78 v 17.68 l -7.33,-0.54 v -1.55 c 3.5,0 3.89,-0.34 3.89,-2.78 v -8.88 c 0,-4.32 -2.39,-7.71 -6.03,-7.71 -4.18,0 -4.38,2.34 -4.38,4.93 v 16.53 l -7.33,-0.54 v -1.55 c 3.89,0 3.89,-0.14 3.89,-4.58 v -7.47 c 0,-3.89 0,-8.42 7.57,-8.42 2.79,0 4.98,1.39 6.43,4.49 z"
         id="path8494" /><path
         style="fill:#000000;stroke-width:0"
         inkscape:connector-curvature="0"
         d="m 520.37,422.78 -7.17,-0.55 v -1.55 c 3.48,0 3.89,-0.34 3.89,-2.79 v -25.91 c 0,-2.23 -0.55,-2.23 -3.89,-2.23 v -1.55 c 1.64,0.05 4.28,0.16 5.53,0.16 1.25,0 3.69,-0.11 5.53,-0.16 v 1.55 c -3.34,0 -3.89,0 -3.89,2.23 z"
         id="path8496" /><path
         style="fill:#000000;stroke-width:0"
         inkscape:connector-curvature="0"
         d="M 534.17,422.78 527,422.23 v -1.55 c 3.48,0 3.89,-0.34 3.89,-2.79 v -25.91 c 0,-2.23 -0.55,-2.23 -3.89,-2.23 v -1.55 c 1.64,0.05 4.28,0.16 5.53,0.16 1.25,0 3.69,-0.11 5.53,-0.16 v 1.55 c -3.34,0 -3.89,0 -3.89,2.23 z"
         id="path8498" /><path
         style="fill:#000000;stroke-width:0"
         inkscape:connector-curvature="0"
         d="m 586.68,404.93 0.08,0.23 0.09,0.22 0.09,0.21 0.1,0.2 0.1,0.18 0.1,0.18 0.11,0.17 0.11,0.16 0.11,0.15 0.12,0.14 0.12,0.13 0.12,0.13 0.13,0.11 0.12,0.11 0.13,0.1 0.14,0.1 0.13,0.08 0.14,0.08 0.14,0.08 0.14,0.06 0.15,0.06 0.15,0.05 0.14,0.05 0.16,0.04 0.15,0.04 0.15,0.03 0.16,0.03 0.16,0.02 0.16,0.02 0.16,0.01 0.16,0.01 0.16,0.01 v 1.55 c -1.11,-0.1 -2.54,-0.14 -3.64,-0.14 -1.45,0 -3.69,0.09 -4.64,0.14 v -1.55 c 1.8,-0.05 2.89,-0.94 2.89,-2.39 0,-0.3 0,-0.39 -0.25,-1.05 l -4.53,-12.75 -4.94,13.91 c -0.18,0.59 -0.25,0.69 -0.25,0.94 0,1.34 1.96,1.34 2.96,1.34 v 1.55 c -1.46,-0.05 -3.99,-0.14 -5.19,-0.14 -1.5,0 -2.94,0.04 -4.44,0.14 v -1.55 c 1.85,0 2.64,-0.09 3.14,-0.73 0.25,-0.32 0.8,-1.8 1.14,-2.75 l -4.28,-12.05 -4.73,13.3 c -0.25,0.59 -0.25,0.7 -0.25,0.89 0,1.34 1.95,1.34 2.93,1.34 v 1.55 c -1.48,-0.05 -4.28,-0.14 -5.42,-0.14 -0.2,0 -2.84,0.04 -4.64,0.14 v -1.55 c 2.5,0 3.1,-0.14 3.69,-1.73 l 6.28,-17.64 c 0.25,-0.71 0.41,-1.1 1.05,-1.1 0.66,0 0.75,0.3 1,1 l 5.03,14.1 5.08,-14.14 c 0.2,-0.57 0.34,-0.96 1,-0.96 0.64,0 0.8,0.46 1,0.96 z"
         id="path8500" /><path
         style="fill:#000000;stroke-width:0"
         inkscape:connector-curvature="0"
         d="m 600.65,410.21 -6.97,-0.54 v -1.55 c 3.23,0 3.68,-0.3 3.68,-2.73 v -13.41 c 0,-2.23 -0.54,-2.23 -3.89,-2.23 v -1.55 c 1.6,0.05 4.28,0.16 5.49,0.16 1.75,0 3.48,-0.11 5.19,-0.16 v 1.55 c -3.3,0 -3.5,0.25 -3.5,2.18 z"
         id="path8502" /><path
         style="fill:#000000;stroke-width:0"
         inkscape:connector-curvature="0"
         d="m 600.85,418.89 -0.01,0.14 -0.01,0.15 -0.01,0.14 -0.03,0.14 -0.03,0.13 -0.04,0.13 -0.04,0.13 -0.05,0.12 -0.05,0.12 -0.06,0.12 -0.07,0.11 -0.07,0.1 -0.08,0.1 -0.08,0.1 -0.08,0.1 -0.09,0.08 -0.09,0.09 -0.1,0.08 -0.1,0.07 -0.11,0.07 -0.1,0.07 -0.11,0.06 -0.12,0.05 -0.11,0.05 -0.12,0.04 -0.12,0.04 -0.13,0.03 -0.12,0.03 -0.13,0.02 -0.12,0.01 -0.13,0.01 -0.13,0.01 c -1.55,0 -2.64,-1.35 -2.64,-2.64 0,-1.35 1.09,-2.64 2.64,-2.64 1.39,0 2.64,1.04 2.64,2.64 z"
         id="path8504" /><path
         style="fill:#000000;stroke-width:0"
         inkscape:connector-curvature="0"
         d="m 624.57,390.93 v -3.28 l 7.31,0.55 v 1.55 c -3.48,0 -3.88,0.34 -3.88,2.78 v 30.25 l -7.17,-0.55 v -1.55 c 3.49,0 3.88,-0.34 3.88,-2.79 v -10.75 c -1.44,1.78 -3.58,3.07 -6.28,3.07 l 0.2,-1.09 c 1.75,0 3.84,-0.75 5.39,-2.98 0.55,-0.85 0.55,-0.96 0.55,-1.85 h 0 v -10.22 c 0,-0.89 0,-1 -0.55,-1.84 -1.5,-2.39 -3.75,-3.48 -5.89,-3.48 -2.23,0 -4.03,1.29 -5.22,3.18 -1.3,2.05 -1.45,4.89 -1.45,6.93 0,1.84 0.09,4.84 1.54,7.07 1.05,1.55 2.94,3.19 5.63,3.19 l -0.2,1.09 c -5.88,0 -11.11,-4.87 -11.11,-11.29 0,-6.33 4.89,-11.27 10.56,-11.27 3.19,0 5.44,1.69 6.69,3.28 z"
         id="path8506" /><path
         style="fill:#000000;stroke-width:0"
         inkscape:connector-curvature="0"
         d="m 641.97,408.12 h 7.13 v 1.55 h -7.13 v 9.17 h -1.25 c -0.04,-4.08 -1.54,-9.42 -6.42,-9.61 v -1.11 h 4.23 v -13.75 c 0,-6.12 4.63,-6.72 6.43,-6.72 3.53,0 4.94,3.53 4.94,6.72 v 2.84 h -1.25 v -2.73 c 0,-3.69 -1.5,-5.58 -3.35,-5.58 -3.33,0 -3.33,4.53 -3.33,5.38 z"
         id="path8508" /><path
         style="fill:#000000;stroke-width:0"
         inkscape:connector-curvature="0"
         d="m 658.15,391.98 0,-0.1 0,-0.1 -0.01,-0.19 -0.01,-0.18 -0.01,-0.17 -0.02,-0.15 -0.02,-0.15 -0.03,-0.13 -0.04,-0.12 -0.04,-0.11 -0.05,-0.11 -0.06,-0.09 -0.06,-0.09 -0.07,-0.08 -0.08,-0.07 -0.09,-0.06 -0.1,-0.05 -0.11,-0.05 -0.12,-0.05 -0.13,-0.03 -0.14,-0.04 -0.15,-0.02 -0.17,-0.03 -0.17,-0.01 -0.1,-0.01 -0.09,-0.01 -0.1,-0.01 -0.11,0 -0.1,-0.01 -0.11,0 -0.11,0 -0.12,-0.01 -0.12,0 -0.12,0 -0.13,0 -0.13,0 -0.14,0 -0.14,0 -0.14,0 -0.15,0 -0.15,0 -0.15,0 v -1.55 c 1.75,0.05 4.28,0.16 5.62,0.16 1.3,0 3.89,-0.11 5.58,-0.16 v 1.55 c -3.33,0 -3.87,0 -3.87,2.23 v 9.17 c 0,5.19 3.53,7.97 6.71,7.97 3.15,0 3.69,-2.69 3.69,-5.53 v -11.61 c 0,-2.23 -0.54,-2.23 -3.89,-2.23 v -1.55 c 1.75,0.05 4.3,0.16 5.64,0.16 1.3,0 3.88,-0.11 5.58,-0.16 v 1.55 c -2.59,0 -3.84,0 -3.89,1.5 v 9.51 c 0,4.28 0,5.83 -1.55,7.61 -0.68,0.86 -2.34,1.84 -5.22,1.84 -4.18,0 -6.39,-2.98 -7.23,-4.87 v 17.44 l -7.17,-0.55 v -1.55 c 3.48,0 3.89,-0.34 3.89,-2.79 z"
         id="path8510" /><path
         style="fill:#000000;stroke-width:0"
         inkscape:connector-curvature="0"
         d="m 702.43,391.98 0,-0.1 -0.01,-0.1 0,-0.19 -0.01,-0.18 -0.01,-0.17 -0.02,-0.15 -0.03,-0.15 -0.03,-0.13 -0.03,-0.12 -0.04,-0.11 -0.05,-0.11 -0.06,-0.09 -0.06,-0.09 -0.08,-0.08 -0.08,-0.07 -0.09,-0.06 -0.1,-0.05 -0.1,-0.05 -0.12,-0.05 -0.13,-0.03 -0.14,-0.04 -0.16,-0.02 -0.16,-0.03 -0.18,-0.01 -0.09,-0.01 -0.1,-0.01 -0.1,-0.01 -0.1,0 -0.1,-0.01 -0.11,0 -0.12,0 -0.11,-0.01 -0.12,0 -0.13,0 -0.13,0 -0.13,0 -0.13,0 -0.14,0 -0.14,0 -0.15,0 -0.15,0 -0.16,0 v -1.55 c 1.75,0.05 4.29,0.16 5.63,0.16 1.3,0 3.89,-0.11 5.58,-0.16 v 1.55 c -3.33,0 -3.88,0 -3.88,2.23 v 9.17 c 0,5.19 3.54,7.97 6.72,7.97 3.14,0 3.69,-2.69 3.69,-5.53 v -11.61 c 0,-2.23 -0.55,-2.23 -3.89,-2.23 v -1.55 c 1.75,0.05 4.3,0.16 5.64,0.16 1.3,0 3.88,-0.11 5.58,-0.16 v 1.55 c -2.6,0 -3.85,0 -3.89,1.5 v 9.51 c 0,4.28 0,5.83 -1.55,7.61 -0.69,0.86 -2.34,1.84 -5.22,1.84 -4.19,0 -6.39,-2.98 -7.23,-4.87 v 17.44 l -7.18,-0.55 v -1.55 c 3.49,0 3.9,-0.34 3.9,-2.79 z"
         id="path8512" /><path
         style="fill:#000000;stroke-width:0"
         inkscape:connector-curvature="0"
         d="m 741.25,391.98 0.03,-0.19 0.03,-0.18 0.03,-0.19 0.04,-0.18 0.05,-0.19 0.06,-0.18 0.06,-0.18 0.07,-0.18 0.07,-0.18 0.08,-0.17 0.09,-0.18 0.1,-0.16 0.1,-0.16 0.1,-0.16 0.12,-0.16 0.12,-0.14 0.12,-0.14 0.13,-0.14 0.14,-0.13 0.15,-0.12 0.15,-0.12 0.15,-0.1 0.17,-0.1 0.17,-0.09 0.17,-0.08 0.18,-0.07 0.19,-0.06 0.19,-0.05 0.2,-0.04 0.21,-0.03 0.21,-0.02 0.22,-0.01 c 1.03,0 4.07,0.71 4.07,4.74 v 2.78 h -1.25 v -2.78 c 0,-2.89 -1.23,-3.19 -1.79,-3.19 -1.65,0 -1.85,2.23 -1.85,2.48 v 9.97 c 0,2.1 0,4.03 -1.78,5.88 -1.95,1.93 -4.44,2.73 -6.83,2.73 -4.09,0 -7.53,-2.33 -7.53,-5.62 0,-1.49 1,-2.35 2.3,-2.35 1.39,0 2.29,1 2.29,2.3 0,0.59 -0.25,2.23 -2.54,2.3 1.34,1.73 3.78,2.28 5.37,2.28 2.46,0 5.29,-1.94 5.29,-6.38 v -1.84 -1.05 -4.98 c 0,-4.74 -3.58,-6.42 -5.83,-6.42 -2.44,0 -4.49,1.75 -4.49,4.23 0,2.73 2.1,6.88 10.32,7.17 h 0 v 1.05 c -2.54,-0.14 -6.02,-0.3 -9.16,-1.8 -3.74,-1.69 -4.99,-4.28 -4.99,-6.47 0,-4.03 4.83,-5.28 7.97,-5.28 3.3,0 5.58,1.99 6.53,4.33 z"
         id="path8514" /><path
         style="fill:#000000;stroke-width:0"
         inkscape:connector-curvature="0"
         d="m 758.43,422.78 -7.17,-0.55 v -1.55 c 3.48,0 3.89,-0.34 3.89,-2.79 v -25.91 c 0,-2.23 -0.55,-2.23 -3.89,-2.23 v -1.55 c 1.64,0.05 4.28,0.16 5.53,0.16 1.25,0 3.69,-0.11 5.53,-0.16 v 1.55 c -3.34,0 -3.89,0 -3.89,2.23 z"
         id="path8516" /><path
         style="fill:#000000;stroke-width:0"
         inkscape:connector-curvature="0"
         d="m 772.13,409.67 v 5.78 c 0,4.39 2.39,6.78 4.58,6.78 0.16,0 0.91,0 1.66,-0.36 -0.61,-0.19 -1.5,-0.84 -1.5,-2.08 0,-1.15 0.79,-2.15 2.14,-2.15 1.44,0 2.19,1 2.19,2.2 0,1.84 -1.85,3.48 -4.49,3.48 -3.48,0 -7.72,-2.64 -7.72,-7.92 v -5.73 h -3.94 v -1.55 h 3.94 v -16.14 c 0,-2.23 -0.54,-2.23 -3.89,-2.23 v -1.55 c 1.95,0.05 4.3,0.16 5.69,0.16 1.98,0 4.33,0 6.33,-0.16 v 1.55 h -1.05 c -3.69,0 -3.78,0.54 -3.78,2.34 v 16.03 h 5.67 v 1.55 z"
         id="path8518" /><path
         style="fill:#000000;stroke-width:0"
         inkscape:connector-curvature="0"
         d="m 800.7,405.34 v -13.36 c 0,-2.23 -0.55,-2.23 -3.89,-2.23 v -1.55 c 1.75,0.05 4.28,0.16 5.62,0.16 1.3,0 3.89,-0.11 5.58,-0.16 v 1.55 c -3.33,0 -3.87,0 -3.87,2.23 v 9.17 c 0,5.19 3.53,7.97 6.71,7.97 3.15,0 3.69,-2.69 3.69,-5.53 v -11.61 c 0,-2.23 -0.54,-2.23 -3.89,-2.23 v -1.55 c 1.75,0.05 4.3,0.16 5.64,0.16 1.3,0 3.88,-0.11 5.58,-0.16 v 1.55 c -3.34,0 -3.89,0 -3.89,2.23 v 9.17 c 0,5.19 3.55,7.97 6.74,7.97 3.13,0 3.68,-2.69 3.68,-5.53 v -11.61 c 0,-2.23 -0.55,-2.23 -3.89,-2.23 v -1.55 c 1.74,0.05 4.28,0.16 5.63,0.16 1.29,0 3.89,-0.11 5.58,-0.16 v 1.55 c -2.58,0 -3.83,0 -3.88,1.5 v 9.51 c 0,4.28 0,5.83 -1.55,7.61 -0.7,0.86 -2.34,1.84 -5.23,1.84 -4.19,0 -6.38,-2.98 -7.22,-4.87 -0.7,4.33 -4.39,4.87 -6.62,4.87 -3.65,0 -5.99,-2.14 -7.38,-5.21 v 5.21 l -7.03,-0.54 v -1.55 c 3.48,0 3.89,-0.34 3.89,-2.78 z"
         id="path8520" /><path
         style="fill:#000000;stroke-width:0"
         inkscape:connector-curvature="0"
         d="m 853.33,391.98 0.02,-0.19 0.03,-0.18 0.04,-0.19 0.04,-0.18 0.05,-0.19 0.05,-0.18 0.06,-0.18 0.07,-0.18 0.08,-0.18 0.08,-0.17 0.09,-0.18 0.09,-0.16 0.1,-0.16 0.11,-0.16 0.11,-0.16 0.12,-0.14 0.13,-0.14 0.13,-0.14 0.14,-0.13 0.14,-0.12 0.15,-0.12 0.16,-0.1 0.16,-0.1 0.17,-0.09 0.18,-0.08 0.18,-0.07 0.18,-0.06 0.2,-0.05 0.2,-0.04 0.2,-0.03 0.21,-0.02 0.22,-0.01 c 1.03,0 4.08,0.71 4.08,4.74 v 2.78 h -1.25 v -2.78 c 0,-2.89 -1.24,-3.19 -1.8,-3.19 -1.64,0 -1.84,2.23 -1.84,2.48 v 9.97 c 0,2.1 0,4.03 -1.79,5.88 -1.95,1.93 -4.43,2.73 -6.82,2.73 -4.1,0 -7.53,-2.33 -7.53,-5.62 0,-1.49 1,-2.35 2.29,-2.35 1.39,0 2.3,1 2.3,2.3 0,0.59 -0.25,2.23 -2.55,2.3 1.35,1.73 3.78,2.28 5.38,2.28 2.45,0 5.28,-1.94 5.28,-6.38 v -1.84 -1.05 -4.98 c 0,-4.74 -3.58,-6.42 -5.83,-6.42 -2.44,0 -4.48,1.75 -4.48,4.23 0,2.73 2.09,6.88 10.31,7.17 h 0 v 1.05 c -2.53,-0.14 -6.02,-0.3 -9.16,-1.8 -3.73,-1.69 -4.98,-4.28 -4.98,-6.47 0,-4.03 4.83,-5.28 7.97,-5.28 3.29,0 5.58,1.99 6.53,4.33 z"
         id="path8522" /><path
         style="fill:#000000;stroke-width:0"
         inkscape:connector-curvature="0"
         d="m 875.99,399.9 0.28,0.36 0.3,0.37 0.3,0.38 0.3,0.39 0.61,0.78 0.31,0.38 0.3,0.39 0.31,0.37 0.29,0.37 0.29,0.35 0.28,0.34 0.14,0.16 0.13,0.16 0.13,0.16 0.13,0.15 0.12,0.14 0.13,0.14 0.11,0.13 0.12,0.12 c 1.54,1.78 3.59,2.53 5.93,2.58 v 1.55 c -1.29,-0.1 -2.79,-0.14 -4.09,-0.14 -1.48,0 -4.13,0.09 -4.78,0.14 v -1.55 c 1.05,-0.09 1.45,-0.73 1.45,-1.53 0,-0.8 -0.5,-1.45 -0.75,-1.75 l -3.09,-3.89 -3.88,5.03 c -0.45,0.5 -0.45,0.61 -0.45,0.91 0,0.75 0.75,1.18 1.74,1.23 v 1.55 c -1.29,-0.05 -4.58,-0.14 -5.38,-0.14 -1.05,0 -3.39,0.04 -4.74,0.14 v -1.55 c 3.49,0 3.55,-0.05 5.88,-3.03 l 4.94,-6.42 -4.69,-5.94 c -2.39,-2.89 -5.33,-2.98 -6.38,-2.98 v -1.55 c 1.3,0.09 2.85,0.16 4.15,0.16 1.43,0 3.53,-0.11 4.73,-0.16 v 1.55 c -1.09,0.14 -1.45,0.79 -1.45,1.54 0,1.1 1.45,2.74 4.48,6.33 l 3.8,-4.98 c 0.39,-0.55 1.04,-1.35 1.04,-1.64 0,-0.46 -0.45,-1.21 -1.79,-1.25 v -1.55 c 1.48,0.05 4.28,0.16 5.37,0.16 1.35,0 3.3,-0.07 4.79,-0.16 v 1.55 c -2.69,0 -3.58,0.09 -4.74,1.54 z"
         id="path8524" /><path
         style="fill:#000000;stroke-width:0"
         inkscape:connector-curvature="0"
         d="m 896.78,410.21 -6.97,-0.54 v -1.55 c 3.24,0 3.69,-0.3 3.69,-2.73 v -13.41 c 0,-2.23 -0.55,-2.23 -3.89,-2.23 v -1.55 c 1.59,0.05 4.28,0.16 5.48,0.16 1.75,0 3.49,-0.11 5.19,-0.16 v 1.55 c -3.3,0 -3.5,0.25 -3.5,2.18 z"
         id="path8526" /><path
         style="fill:#000000;stroke-width:0"
         inkscape:connector-curvature="0"
         d="m 896.98,418.89 0,0.14 -0.01,0.15 -0.02,0.14 -0.02,0.14 -0.03,0.13 -0.04,0.13 -0.04,0.13 -0.05,0.12 -0.06,0.12 -0.06,0.12 -0.06,0.11 -0.07,0.1 -0.08,0.1 -0.08,0.1 -0.09,0.1 -0.08,0.08 -0.1,0.09 -0.09,0.08 -0.11,0.07 -0.1,0.07 -0.11,0.07 -0.11,0.06 -0.11,0.05 -0.12,0.05 -0.12,0.04 -0.12,0.04 -0.12,0.03 -0.12,0.03 -0.13,0.02 -0.13,0.01 -0.13,0.01 -0.13,0.01 c -1.54,0 -2.64,-1.35 -2.64,-2.64 0,-1.35 1.1,-2.64 2.64,-2.64 1.39,0 2.64,1.04 2.64,2.64 z"
         id="path8528" /><path
         style="fill:#000000;stroke-width:0"
         inkscape:connector-curvature="0"
         d="m 907.25,405.34 v -13.36 c 0,-2.23 -0.55,-2.23 -3.89,-2.23 v -1.55 c 1.75,0.05 4.28,0.16 5.62,0.16 1.3,0 3.9,-0.11 5.58,-0.16 v 1.55 c -3.33,0 -3.87,0 -3.87,2.23 v 9.17 c 0,5.19 3.53,7.97 6.72,7.97 3.14,0 3.68,-2.69 3.68,-5.53 v -11.61 c 0,-2.23 -0.54,-2.23 -3.89,-2.23 v -1.55 c 1.75,0.05 4.3,0.16 5.64,0.16 1.3,0 3.88,-0.11 5.58,-0.16 v 1.55 c -3.34,0 -3.89,0 -3.89,2.23 v 9.17 c 0,5.19 3.55,7.97 6.74,7.97 3.14,0 3.68,-2.69 3.68,-5.53 v -11.61 c 0,-2.23 -0.54,-2.23 -3.89,-2.23 v -1.55 c 1.74,0.05 4.28,0.16 5.63,0.16 1.29,0 3.89,-0.11 5.58,-0.16 v 1.55 c -2.58,0 -3.83,0 -3.88,1.5 v 9.51 c 0,4.28 0,5.83 -1.55,7.61 -0.7,0.86 -2.34,1.84 -5.23,1.84 -4.19,0 -6.38,-2.98 -7.22,-4.87 -0.7,4.33 -4.39,4.87 -6.62,4.87 -3.65,0 -5.99,-2.14 -7.38,-5.21 v 5.21 l -7.03,-0.54 v -1.55 c 3.48,0 3.89,-0.34 3.89,-2.78 z"
         id="path8530" /><path
         style="fill:#000000;stroke-width:0"
         inkscape:connector-curvature="0"
         d="m 961.33,392.14 v -4.49 l 7.17,0.55 v 1.55 c -3.48,0 -3.89,0.34 -3.89,2.78 v 17.68 l -7.33,-0.54 v -1.55 c 3.5,0 3.89,-0.34 3.89,-2.78 v -8.88 c 0,-4.32 -2.39,-7.71 -6.03,-7.71 -4.17,0 -4.37,2.34 -4.37,4.93 v 16.53 l -7.33,-0.54 v -1.55 c 3.89,0 3.89,-0.14 3.89,-4.58 v -7.47 c 0,-3.89 0,-8.42 7.56,-8.42 2.8,0 4.99,1.39 6.44,4.49 z"
         id="path8532" /><path
         style="fill:#000000;stroke-width:0"
         inkscape:connector-curvature="0"
         d="m 975.05,405.34 v -13.36 c 0,-2.23 -0.55,-2.23 -3.89,-2.23 v -1.55 c 1.75,0.05 4.28,0.16 5.62,0.16 1.3,0 3.89,-0.11 5.58,-0.16 v 1.55 c -3.33,0 -3.88,0 -3.88,2.23 v 9.17 c 0,5.19 3.54,7.97 6.72,7.97 3.14,0 3.69,-2.69 3.69,-5.53 v -11.61 c 0,-2.23 -0.55,-2.23 -3.89,-2.23 v -1.55 c 1.75,0.05 4.3,0.16 5.64,0.16 1.3,0 3.88,-0.11 5.58,-0.16 v 1.55 c -3.34,0 -3.89,0 -3.89,2.23 v 9.17 c 0,5.19 3.55,7.97 6.73,7.97 3.14,0 3.74,-2.69 3.74,-5.53 v -11.61 c 0,-2.23 -0.6,-2.23 -3.94,-2.23 v -1.55 c 1.74,0.05 4.24,0.16 5.64,0.16 1.3,0 3.9,-0.11 5.6,-0.16 v 1.55 c -2.6,0 -3.9,0 -3.9,1.5 v 9.51 c 0,4.28 0,5.83 -1.6,7.61 -0.7,0.86 -2.3,1.84 -5.19,1.84 -4.19,0 -6.38,-2.98 -7.22,-4.87 -0.71,4.33 -4.39,4.87 -6.63,4.87 -3.64,0 -5.98,-2.14 -7.37,-5.21 v 5.21 l -7.03,-0.54 v -1.55 c 3.48,0 3.89,-0.34 3.89,-2.78 z"
         id="path8534" /><path
         style="fill:#000000;stroke-width:0"
         inkscape:connector-curvature="0"
         d="m 1060.8,410.71 0,0.1 0,0.09 0,0.09 0,0.09 0,0.08 0,0.08 0,0.08 0,0.07 0,0.07 0,0.07 -0.1,0.06 0,0.06 0,0.06 0,0.05 0,0.05 -0.1,0.05 0,0.04 0,0.04 0,0.04 -0.1,0.04 0,0.03 0,0.03 -0.1,0.02 0,0.03 0,0.02 0,0.02 -0.1,0.01 0,0.01 0,0.01 -0.1,0.01 0,0 0,0 c -0.2,0 -0.7,-0.2 -0.7,-1.34 -0.2,-3.44 -3.7,-5.48 -7,-5.48 -2.8,0 -5.3,1.54 -7.9,3.29 -2.7,1.78 -5.4,3.58 -8.7,3.58 -4.6,0 -8.3,-3.53 -8.3,-8.12 0,-1.1 0.4,-1.49 0.7,-1.49 0.5,0 0.7,0.94 0.7,1.14 0.3,4.19 4.3,5.69 6.9,5.69 2.9,0 5.4,-1.55 8,-3.3 2.7,-1.79 5.4,-3.59 8.6,-3.59 4.7,0 8.3,3.55 8.3,8.12 z"
         id="path8536" /><path
         style="fill:#000000;stroke-width:0"
         inkscape:connector-curvature="0"
         d="m 1060.8,399.06 0,0.07 0,0.06 0,0.06 0,0.07 0,0.06 0,0.05 0,0.06 0,0.05 0,0.05 0,0.06 0,0.04 0,0.05 0,0.05 0,0.04 0,0.04 0,0.04 -0.1,0.04 0,0.04 0,0.04 0,0.03 0,0.03 0,0.04 0,0.03 0,0.03 -0.1,0.02 0,0.03 0,0.05 0,0.05 -0.1,0.04 0,0.03 0,0.04 0,0.02 -0.1,0.03 0,0.02 0,0.02 -0.1,0.01 0,0.02 0,0.01 0,0.01 -0.1,0 0,0.01 0,0 0,0 0,0 0,0.01 c -0.2,0 -0.7,-0.25 -0.7,-1.35 -0.2,-3.44 -3.7,-5.48 -7,-5.48 -2.8,0 -5.3,1.54 -7.9,3.29 -2.7,1.79 -5.4,3.58 -8.7,3.58 -4.6,0 -8.3,-3.53 -8.3,-8.12 0,-1.1 0.4,-1.49 0.7,-1.49 0.5,0 0.7,0.94 0.7,1.14 0.3,4.19 4.3,5.69 6.9,5.69 2.9,0 5.4,-1.55 8,-3.3 2.7,-1.79 5.4,-3.57 8.6,-3.57 4.8,0 8.3,3.68 8.3,8.06 z"
         id="path8538" /><path
         style="fill:#000000;stroke-width:0"
         inkscape:connector-curvature="0"
         d="m 1092.1,420.09 0,0.05 0,0.06 0,0.05 0,0.05 0,0.05 0,0.05 0,0.04 0,0.05 0,0.04 0,0.04 0,0.04 0,0.04 0,0.04 0,0.03 0,0.04 0,0.03 0,0.07 -0.1,0.06 0,0.05 0,0.05 0,0.05 0,0.04 0,0.04 -0.1,0.03 0,0.03 0,0.03 -0.1,0.03 0,0.02 0,0.02 -0.1,0.01 0,0.01 0,0 0,0.01 -0.1,0.01 0,0 0,0.01 -0.1,0 0,0.01 0,0 -0.1,0 0,0.01 0,0 -0.1,0 0,0 -0.1,0 0,0 -0.1,0.01 0,0 -0.1,0 0,0 -0.1,0 c -3.1,-3.19 -7.4,-3.19 -9,-3.19 v -1.55 c 1,0 3.9,0 6.5,1.3 v -25.81 c 0,-1.8 -0.2,-2.39 -4.6,-2.39 h -1.6 v -1.55 c 1.7,0.16 6,0.16 8,0.16 2,0 6.4,0 8.1,-0.16 v 1.55 h -1.6 c -4.5,0 -4.6,0.54 -4.6,2.39 z"
         id="path8540" /><path
         style="fill:#000000;stroke-width:0"
         inkscape:connector-curvature="0"
         d="m 1124.8,398.21 0,0.56 -0.1,0.54 0,0.54 -0.1,0.53 -0.1,0.53 -0.1,0.51 -0.2,0.5 -0.2,0.5 -0.1,0.48 -0.2,0.47 -0.3,0.46 -0.2,0.44 -0.3,0.43 -0.2,0.41 -0.3,0.4 -0.3,0.38 -0.4,0.36 -0.3,0.35 -0.4,0.32 -0.3,0.31 -0.4,0.29 -0.4,0.26 -0.4,0.25 -0.5,0.22 -0.4,0.2 -0.4,0.17 -0.5,0.15 -0.4,0.13 -0.5,0.09 -0.5,0.07 -0.5,0.05 -0.5,0.01 c -2.4,0 -4.5,-0.8 -6.3,-2.53 v 9.7 c 1,-0.29 2.6,-0.64 4.2,-0.64 6.1,0 9.6,4.53 9.6,5.19 0,0.3 -0.1,0.55 -0.5,0.55 0,0 -0.1,0 -0.4,-0.16 -1,-0.45 -3.4,-1.44 -6.7,-1.44 -2,0 -4.3,0.35 -6.7,1.39 -0.4,0.14 -0.5,0.14 -0.6,0.14 -0.5,0 -0.5,-0.39 -0.5,-1.18 v -14.75 c 0,-0.89 0,-1.3 0.7,-1.3 0.4,0 0.5,0.16 0.7,0.45 0.5,0.8 2.4,3.49 6.4,3.49 2.6,0 3.8,-2.3 4.2,-3.19 0.8,-1.84 0.9,-3.78 0.9,-6.28 0,-1.74 0,-4.74 -1.2,-6.83 -1.2,-1.94 -3,-3.23 -5.3,-3.23 -3.6,0 -6.5,2.64 -7.3,5.57 0.1,-0.04 0.3,-0.09 0.8,-0.09 1.7,0 2.5,1.25 2.5,2.44 0,1.2 -0.8,2.44 -2.5,2.44 -0.7,0 -2.4,-0.35 -2.4,-2.65 0,-4.28 3.4,-9.1 9,-9.1 5.8,0 10.9,4.78 10.9,11.1 z"
         id="path8542" /><path
         style="fill:#000000;stroke-width:0"
         inkscape:connector-curvature="0"
         d="m 1150.3,404.14 0,0.74 0,0.75 -0.1,0.75 0,0.74 0,0.75 -0.1,0.74 -0.1,0.74 -0.1,0.73 -0.1,0.73 -0.1,0.73 -0.2,0.72 -0.2,0.72 -0.2,0.72 -0.2,0.7 -0.3,0.7 -0.2,0.35 -0.1,0.34 c -2.3,4.8 -6.4,5.6 -8.5,5.6 -3,0 -6.6,-1.3 -8.7,-5.94 -1.6,-3.44 -1.8,-7.33 -1.8,-11.31 0,-3.74 0.2,-8.22 2.2,-12 2.2,-4.03 5.8,-5.03 8.3,-5.03 v 1.09 c -2,0 -4.9,1.25 -5.8,6.03 -0.6,2.98 -0.6,7.56 -0.6,10.52 0,3.18 0,6.46 0.4,9.15 1,5.94 4.7,6.38 6,6.38 1.6,0 4.9,-0.89 5.8,-5.83 0.5,-2.78 0.5,-6.58 0.5,-9.7 0,-3.75 0,-7.13 -0.5,-10.32 -0.8,-4.73 -3.6,-6.23 -5.8,-6.23 h 0 v -1.09 c 2.6,0 6.4,1.04 8.6,5.78 1.6,3.43 1.9,7.31 1.9,11.25 z"
         id="path8544" /><path
         style="fill:#000000;stroke-width:0"
         inkscape:connector-curvature="0"
         d="m 1204.5,452.11 0,0.16 0.1,0.16 0,0.15 0.1,0.14 0,0.14 0,0.13 0.1,0.12 0,0.12 0.1,0.11 0,0.1 0.1,0.09 0.1,0.1 0,0.08 0.1,0.08 0.1,0.07 0.1,0.07 0.1,0.06 0.1,0.06 0.2,0.06 0.1,0.04 0.2,0.05 0,0.02 0.1,0.02 0.1,0.01 0.1,0.02 0.1,0.02 0.1,0.01 0.1,0.01 0.1,0.02 0.1,0.01 0.1,0.01 0.2,0.01 0.1,0.01 0.1,0 0.1,0.01 0.2,0.01 0.1,0 0.2,0.01 0.1,0 0.2,0 0.1,0 0.2,0.01 0.2,0 c 1.1,0 1.6,0 1.6,1 0,0.54 -0.5,0.54 -1.4,0.54 h -6.6 c -1.2,0 -1.3,0 -1.9,-0.95 l -18.2,-28.39 -3.9,28.19 c -0.1,1.15 -0.2,1.15 -1.5,1.15 h -6.8 c -1,0 -1.5,0 -1.5,-0.95 0,-0.59 0.4,-0.59 1.4,-0.59 0.7,0 1.6,-0.05 2.2,-0.1 0.7,-0.11 1,-0.25 1,-0.79 0,-0.21 0,-0.36 -0.1,-0.96 l -6.4,-25.36 c -0.5,-2 -1.3,-3.59 -5.4,-3.73 -0.2,0 -0.9,-0.05 -0.9,-0.95 0,-0.44 0.4,-0.6 0.8,-0.6 1.6,0 3.3,0.16 4.9,0.16 1.7,0 3.5,-0.16 5.2,-0.16 0.2,0 0.9,0 0.9,1 0,0.55 -0.6,0.55 -0.9,0.55 -2.9,0.05 -3.4,1.05 -3.4,2.19 0,0.34 0,0.59 0.2,1.14 l 6.7,27.15 h 0.1 l 4.3,-30.89 c 0.1,-0.59 0.1,-1.14 0.7,-1.14 0.6,0 0.9,0.55 1.1,0.89 l 20.2,31.55 h 0 l -7.1,-28.55 c -0.5,-1.95 -0.6,-2.34 -4.5,-2.34 -0.9,0 -1.4,0 -1.4,-0.95 0,-0.6 0.6,-0.6 0.7,-0.6 1.4,0 4.8,0.16 6.2,0.16 2,0 4.2,-0.16 6.2,-0.16 0.3,0 0.9,0 0.9,1 0,0.55 -0.4,0.55 -1.3,0.55 -1.9,0 -3.3,0 -3.3,0.89 0,0.2 0,0.3 0.3,1.2 z"
         id="path8546" /><path
         style="fill:#000000;stroke-width:0"
         inkscape:connector-curvature="0"
         d="m 1221.4,433.44 0.2,0 0.1,0 0.2,0 0.2,0 0.2,0.01 0.2,0 0.2,0.01 0.2,0.01 0.2,0.01 0.2,0.01 0.3,0.02 0.2,0.01 0.3,0.02 0.2,0.02 0.6,0.06 0.5,0.06 0.5,0.08 0.6,0.09 0.5,0.11 0.6,0.12 0.2,0.07 0.3,0.08 0.2,0.08 0.3,0.08 0.2,0.09 0.3,0.1 c 3.4,1.5 3.7,4.44 3.7,5.12 0,2.21 -1.9,4.24 -5.3,4.24 v -1.1 c 2.3,0 3.7,-1.43 3.7,-3.14 0,-5.17 -8,-5.17 -10.1,-5.17 h -2 c 1.9,7.56 7.1,8.31 8.4,8.31 v 1.1 c -5.6,0 -13.1,-4.83 -13.1,-13.55 0,-5.08 3,-9.01 7.8,-9.01 7.2,0 11.3,5.28 11.3,5.87 0,0.3 -0.3,0.66 -0.6,0.66 -0.2,0 -0.3,-0.11 -0.6,-0.5 -3.9,-4.94 -9.4,-4.94 -10,-4.94 -3.9,0 -4.3,4.19 -4.3,5.78 0,0.59 0,2.14 0.8,5.19 z"
         id="path8548" /><path
         style="fill:#000000;stroke-width:0"
         inkscape:connector-curvature="0"
         d="m 1266.6,450.27 0.2,0.35 0.2,0.33 0.2,0.31 0.3,0.3 0.2,0.27 0.2,0.25 0.2,0.24 0.2,0.22 0.2,0.2 0.3,0.19 0.2,0.17 0.2,0.16 0.2,0.14 0.2,0.13 0.2,0.12 0.2,0.11 0.2,0.09 0.2,0.09 0.2,0.07 0.2,0.07 0.2,0.06 0.1,0.05 0.2,0.04 0.2,0.04 0.2,0.03 0.2,0.02 0.3,0.04 0.4,0.03 0.3,0.02 c 0.6,0.04 0.7,0.89 0.7,0.95 0,0.39 -0.3,0.59 -0.7,0.59 -1.2,0 -2.7,-0.15 -4,-0.15 -1.7,0 -3.4,0.15 -5,0.15 -0.3,0 -0.9,0 -0.9,-0.95 0,-0.55 0.4,-0.59 0.8,-0.59 1.3,-0.1 2.3,-0.6 2.3,-1.64 0,-0.75 -0.8,-1.85 -0.8,-1.89 l -15.3,-24.32 -3.4,26.35 c 0,0.84 1.2,1.5 3.5,1.5 0.7,0 1.2,0 1.2,1 0,0.43 -0.4,0.54 -0.7,0.54 -2,0 -4.1,-0.15 -6.2,-0.15 -0.9,0 -1.8,0.04 -2.7,0.04 -0.9,0 -1.8,0.11 -2.7,0.11 -0.3,0 -0.9,0 -0.9,-0.95 0,-0.59 0.4,-0.59 1.2,-0.59 2.8,0 2.9,-0.46 3,-1.69 l 3.9,-30.75 c 0.2,-1 0.4,-1.14 1,-1.14 0.8,0 1,0.25 1.4,0.89 z"
         id="path8550" /><polyline
         style="fill:#000000;fill-rule:nonzero;stroke-width:0"
         points="1158,400 1275.1,400 1275.1,402.04 1158,402.04 "
         id="polyline8552" /><path
         style="fill:#000000;stroke-width:0"
         inkscape:connector-curvature="0"
         d="m 1214.6,373.06 -0.2,0 -0.1,0 -0.2,-0.01 -0.1,0 -0.1,-0.01 -0.2,-0.02 -0.1,-0.01 0,-0.01 -0.1,-0.01 -0.1,-0.02 0,-0.02 -0.1,-0.02 -0.1,-0.02 0,-0.02 -0.1,-0.03 -0.1,-0.03 0,-0.03 -0.1,-0.04 -0.1,-0.04 0,-0.04 -0.1,-0.04 -0.1,-0.05 0,-0.05 -0.1,-0.06 -0.1,-0.06 0,-0.06 c -0.8,-0.75 -0.9,-1.6 -0.9,-1.94 0,-1.21 0.9,-1.75 1.8,-1.75 1.5,0 2.8,1.2 2.8,3.19 0,2.43 -2.3,4.28 -5.9,4.28 -6.7,0 -13.3,-7.13 -13.3,-14.14 0,-4.49 2.9,-8.43 8,-8.43 7.2,0 11.4,5.29 11.4,5.88 0,0.3 -0.3,0.66 -0.6,0.66 -0.3,0 -0.4,-0.11 -0.7,-0.5 -3.9,-4.94 -9.3,-4.94 -9.9,-4.94 -3.2,0 -4.5,2.44 -4.5,5.44 0,2.03 1,6.87 2.7,9.95 1.5,2.84 4.2,4.98 7,4.98 1.7,0 3.6,-0.64 4.3,-1.98 z"
         id="path8554" /><path
         style="fill:#000000;stroke-width:0"
         inkscape:connector-curvature="0"
         d="m 1234,374.86 h -1.2 c 0,-0.76 -0.4,-2.82 -0.9,-3.17 -0.2,-0.2 -2.9,-0.2 -3.4,-0.2 h -6.4 c 3.6,3.23 4.9,4.2 7,5.84 2.5,2.06 4.9,4.22 4.9,7.53 0,4.22 -3.7,6.8 -8.1,6.8 -4.3,0 -7.3,-3.03 -7.3,-6.23 0,-1.79 1.5,-1.96 1.9,-1.96 0.8,0 1.8,0.6 1.8,1.85 0,0.62 -0.2,1.84 -2,1.84 1,2.47 3.4,3.23 5.1,3.23 3.4,0 5.3,-2.7 5.3,-5.53 0,-3.03 -2.2,-5.43 -3.3,-6.68 l -8.4,-8.3 c -0.4,-0.31 -0.4,-0.39 -0.4,-1.36 h 14.4 z"
         id="path8556" /></g>  </g>
  <g
     id="g8766"
     transform="matrix(0.64337453,0,0,0.64337453,305.26054,-15.85819)">
    <g
       word-spacing="normal"
       letter-spacing="normal"
       font-size-adjust="none"
       font-stretch="normal"
       font-weight="normal"
       font-variant="normal"
       font-style="normal"
       stroke-miterlimit="10.433"
       xml:space="preserve"
       transform="matrix(0.37919254,0,0,-0.37919254,-66.358695,387.37134)"
       id="g8768"
       style="font-style:normal;font-variant:normal;font-weight:normal;font-stretch:normal;letter-spacing:normal;word-spacing:normal;text-anchor:start;fill:none;stroke:#000000;stroke-width:1.5543046;stroke-linecap:butt;stroke-linejoin:miter;stroke-miterlimit:10.43299961;stroke-opacity:1;stroke-dasharray:none;stroke-dashoffset:0"><path
         id="path8770"
         d="m 491.69,422.5 0.4,-0.34 0.4,-0.31 0.42,-0.31 0.41,-0.3 0.42,-0.28 0.42,-0.27 0.42,-0.26 0.42,-0.25 0.41,-0.23 0.4,-0.23 0.39,-0.21 0.39,-0.19 0.37,-0.19 0.35,-0.17 0.18,-0.08 0.16,-0.08 0.17,-0.08 0.15,-0.07 c -1.79,-0.79 -4.23,-2.09 -6.28,-3.83 h -31.64 c -0.84,0 -1.8,0 -1.8,-1 0,-1 0.91,-1 1.75,-1 h 29.44 c -2.39,-2.29 -4.97,-6.67 -4.97,-7.32 0,-0.55 0.64,-0.55 0.94,-0.55 0.41,0 0.75,0 0.95,0.41 1.05,1.89 2.44,4.53 5.68,7.42 3.43,3.03 6.78,4.37 9.37,5.12 0.84,0.3 0.89,0.36 0.98,0.46 0.11,0.04 0.11,0.2 0.11,0.29 0,0.11 0,0.21 -0.04,0.3 l -0.16,0.11 c -0.09,0.05 -0.16,0.09 -1.09,0.39 -6.74,2 -11.71,6.53 -14.5,11.86 -0.55,1 -0.6,1.05 -1.3,1.05 -0.3,0 -0.94,0 -0.94,-0.55 0,-0.66 2.53,-4.99 4.97,-7.33 H 460 c -0.84,0 -1.75,0 -1.75,-1 0,-0.98 0.96,-0.98 1.8,-0.98 z"
         inkscape:connector-curvature="0"
         style="fill:#000000;stroke-width:0" /><path
         id="path8772"
         d="m 541.25,440.98 -0.03,0.06 -0.03,0.06 -0.03,0.05 -0.03,0.05 -0.02,0.05 -0.03,0.05 -0.03,0.05 -0.02,0.04 -0.03,0.04 -0.03,0.04 -0.02,0.04 -0.03,0.03 -0.03,0.04 -0.03,0.03 -0.03,0.03 -0.03,0.03 -0.03,0.02 -0.04,0.03 -0.04,0.02 -0.04,0.02 -0.04,0.02 -0.04,0.01 -0.05,0.02 -0.05,0.01 -0.05,0.01 -0.05,0.01 -0.06,0.01 -0.06,0.01 -0.07,0 -0.07,0.01 -0.07,0 -0.08,0 c -0.85,0 -0.94,-0.25 -1.28,-0.89 l -0.32,-4.09 13.41,-26.91 h -26.86 l 13.45,26.91 0.32,4.09 -16.85,-33.78 c -0.25,-0.45 -0.25,-0.55 -0.25,-0.59 0,-0.41 0.3,-0.41 1.1,-0.41 h 34.57 c 0.8,0 1.1,0 1.1,0.41 0,0.04 0,0.14 -0.25,0.59 z"
         inkscape:connector-curvature="0"
         style="fill:#000000;stroke-width:0" /><path
         id="path8774"
         d="m 596.04,417.81 0.01,0.02 0.01,0.03 0.02,0.05 0.02,0.05 0.02,0.05 0.01,0.05 0.02,0.05 0.02,0.05 0.02,0.05 0.01,0.03 0.01,0.02 0.01,0.02 0,0.03 0.01,0.02 0.01,0.02 0,0.02 0.01,0.02 0,0.02 0.01,0.02 0,0.01 0.01,0.02 0,0.02 0,0.01 0,0.01 0,0.01 c 0,0.05 0,0.55 -0.59,0.55 -0.45,0 -0.55,-0.3 -0.64,-0.61 -3.25,-7.38 -5.08,-10.7 -13.61,-10.7 h -7.27 c -0.7,0 -0.79,0 -1.09,0.04 -0.5,0.05 -0.66,0.1 -0.66,0.5 0,0.14 0,0.25 0.25,1.14 l 3.39,13.61 h 4.94 c 4.24,0 4.24,-1.04 4.24,-2.29 0,-0.35 0,-0.96 -0.36,-2.44 -0.1,-0.25 -0.14,-0.41 -0.14,-0.55 0,-0.25 0.18,-0.55 0.64,-0.55 0.4,0 0.54,0.25 0.75,0.99 l 2.84,11.67 c 0,0.3 -0.25,0.55 -0.61,0.55 -0.44,0 -0.55,-0.3 -0.69,-0.91 -1.04,-3.78 -1.95,-4.92 -6.53,-4.92 h -4.68 l 3,12 c 0.43,1.75 0.5,1.94 2.68,1.94 h 7.02 c 6.08,0 7.58,-1.44 7.58,-5.53 0,-1.19 0,-1.29 -0.21,-2.64 0,-0.3 -0.04,-0.65 -0.04,-0.9 0,-0.25 0.15,-0.59 0.59,-0.59 0.56,0 0.61,0.3 0.7,1.25 l 1,8.61 c 0.14,1.34 -0.09,1.34 -1.34,1.34 h -25.16 c -1,0 -1.5,0 -1.5,-1 0,-0.54 0.46,-0.54 1.39,-0.54 1.85,0 3.24,0 3.24,-0.89 0,-0.21 0,-0.3 -0.25,-1.21 l -6.56,-26.34 c -0.5,-1.95 -0.61,-2.34 -4.55,-2.34 -0.84,0 -1.39,0 -1.39,-0.96 0,-0.59 0.45,-0.59 1.39,-0.59 h 25.86 c 1.15,0 1.2,0.05 1.55,0.84 z"
         inkscape:connector-curvature="0"
         style="fill:#000000;stroke-width:0" /><path
         id="path8776"
         d="m 648.39,422.5 0.14,0 0.14,0 0.15,0 0.07,0.01 0.07,0 0.08,0.01 0.07,0.01 0.07,0.01 0.07,0.01 0.07,0.01 0.06,0.02 0.07,0.02 0.06,0.02 0.06,0.02 0.06,0.03 0.05,0.03 0.06,0.04 0.05,0.03 0.04,0.05 0.05,0.04 0.04,0.05 0.02,0.03 0.01,0.03 0.02,0.02 0.02,0.03 0.01,0.03 0.01,0.04 0.01,0.03 0.02,0.04 0.01,0.03 0,0.04 0.01,0.04 0.01,0.04 0,0.04 0.01,0.04 0,0.04 0,0.05 c 0,1 -0.96,1 -1.64,1 h -29.85 c -0.7,0 -1.64,0 -1.64,-1 0,-0.98 0.94,-0.98 1.69,-0.98 z"
         inkscape:connector-curvature="0"
         style="fill:#000000;stroke-width:0" /><path
         id="path8778"
         d="m 648.44,412.82 0.06,0 0.07,0 0.14,0.01 0.13,0 0.07,0 0.07,0.01 0.07,0.01 0.07,0 0.07,0.01 0.07,0.02 0.07,0.01 0.06,0.02 0.06,0.02 0.07,0.02 0.06,0.02 0.05,0.03 0.06,0.03 0.05,0.04 0.05,0.04 0.05,0.04 0.04,0.05 0.02,0.02 0.02,0.03 0.02,0.02 0.01,0.03 0.02,0.03 0.02,0.03 0.01,0.03 0.01,0.03 0.01,0.04 0.02,0.03 0.01,0.04 0,0.04 0.01,0.04 0.01,0.04 0,0.04 0.01,0.04 0,0.05 0,0.04 c 0,1 -0.96,1 -1.69,1 h -29.75 c -0.75,0 -1.69,0 -1.69,-1 0,-1 0.94,-1 1.64,-1 z"
         inkscape:connector-curvature="0"
         style="fill:#000000;stroke-width:0" /><path
         id="path8780"
         d="m 690.55,436.54 0.04,0.06 0.04,0.05 0.03,0.05 0.04,0.05 0.03,0.04 0.02,0.04 0.03,0.05 0.02,0.04 0.03,0.04 0.02,0.04 0.01,0.04 0.02,0.04 0.02,0.04 0.01,0.04 0.01,0.04 0.01,0.04 0.01,0.04 0.01,0.05 0.01,0.05 0,0.04 0.01,0.06 0,0.05 0.01,0.06 0,0.06 0,0.06 0.01,0.07 0,0.07 0,0.08 0,0.08 0,0.08 0,0.09 0,0.05 0,0.05 H 678.9 c -6.08,0 -6.19,0.65 -6.4,1.59 h -1.23 l -1.64,-10.25 h 1.23 c 0.16,0.8 0.61,3.94 1.25,4.53 0.35,0.3 4.24,0.3 4.88,0.3 h 10.33 c -0.57,-0.8 -4.49,-6.24 -5.6,-7.88 -4.48,-6.71 -6.12,-13.65 -6.12,-18.73 0,-0.5 0,-2.73 2.3,-2.73 2.29,0 2.29,2.23 2.29,2.73 v 2.55 c 0,2.73 0.14,5.48 0.55,8.17 0.19,1.14 0.89,5.42 3.08,8.51 z"
         inkscape:connector-curvature="0"
         style="fill:#000000;stroke-width:0" /><path
         id="path8782"
         d="m 714.16,416.21 -0.01,0.56 -0.03,0.54 -0.06,0.54 -0.08,0.53 -0.11,0.53 -0.12,0.51 -0.14,0.5 -0.17,0.5 -0.18,0.48 -0.21,0.47 -0.22,0.46 -0.24,0.44 -0.26,0.43 -0.28,0.41 -0.29,0.4 -0.31,0.38 -0.33,0.36 -0.34,0.35 -0.36,0.32 -0.37,0.31 -0.38,0.29 -0.4,0.26 -0.41,0.25 -0.42,0.22 -0.43,0.2 -0.45,0.17 -0.45,0.15 -0.46,0.13 -0.48,0.09 -0.48,0.07 -0.49,0.05 -0.5,0.01 c -2.4,0 -4.54,-0.8 -6.33,-2.53 v 9.7 c 1,-0.29 2.64,-0.64 4.23,-0.64 6.13,0 9.61,4.53 9.61,5.19 0,0.3 -0.14,0.55 -0.5,0.55 -0.05,0 -0.14,0 -0.39,-0.16 -1,-0.45 -3.44,-1.44 -6.78,-1.44 -1.99,0 -4.28,0.35 -6.63,1.39 -0.39,0.14 -0.5,0.14 -0.59,0.14 -0.5,0 -0.5,-0.39 -0.5,-1.18 v -14.75 c 0,-0.89 0,-1.3 0.7,-1.3 0.35,0 0.44,0.16 0.64,0.45 0.55,0.8 2.39,3.49 6.43,3.49 2.59,0 3.84,-2.3 4.23,-3.19 0.81,-1.84 0.91,-3.78 0.91,-6.28 0,-1.74 0,-4.74 -1.21,-6.83 -1.18,-1.94 -3.03,-3.23 -5.32,-3.23 -3.65,0 -6.47,2.64 -7.33,5.57 0.15,-0.04 0.31,-0.09 0.86,-0.09 1.64,0 2.48,1.25 2.48,2.44 0,1.2 -0.84,2.44 -2.48,2.44 -0.71,0 -2.46,-0.35 -2.46,-2.65 0,-4.28 3.44,-9.1 9.03,-9.1 5.77,0 10.86,4.78 10.86,11.1 z"
         inkscape:connector-curvature="0"
         style="fill:#000000;stroke-width:0" /><path
         id="path8784"
         d="m 728.75,439.14 -0.02,0.05 -0.02,0.05 -0.02,0.04 -0.02,0.05 -0.04,0.09 -0.04,0.08 -0.03,0.07 -0.04,0.07 -0.03,0.07 -0.04,0.06 -0.03,0.05 -0.04,0.05 -0.04,0.05 -0.03,0.04 -0.04,0.04 -0.04,0.04 -0.04,0.03 -0.05,0.02 -0.04,0.03 -0.05,0.02 -0.05,0.02 -0.05,0.01 -0.06,0.02 -0.06,0.01 -0.06,0.01 -0.07,0 -0.07,0.01 -0.07,0 -0.08,0.01 -0.08,0 -0.09,0 -0.1,0 -0.09,0 -0.11,0 h -8.42 v -1.55 h 1.2 c 3.83,0 3.93,-0.54 3.93,-2.34 v -24.91 c 0,-1.34 0,-3.68 -5.13,-3.68 v -1.55 c 1.75,0.05 4.19,0.16 5.83,0.16 1.64,0 4.09,-0.11 5.83,-0.16 v 1.55 c -5.13,0 -5.13,2.34 -5.13,3.68 v 26.85 h 0.05 l 12,-30.99 c 0.25,-0.64 0.5,-1.09 1,-1.09 0.55,0 0.7,0.41 0.89,0.95 l 12.26,31.53 h 0.05 v -28.59 c 0,-1.8 -0.09,-2.34 -3.94,-2.34 h -1.18 v -1.55 c 1.84,0.16 5.22,0.16 7.17,0.16 1.93,0 5.28,0 7.12,-0.16 v 1.55 h -1.2 c -3.83,0 -3.94,0.54 -3.94,2.34 v 26.25 c 0,1.8 0.11,2.34 3.94,2.34 h 1.2 v 1.55 h -8.42 c -1.3,0 -1.3,-0.05 -1.64,-0.95 l -10.92,-28.05 z"
         inkscape:connector-curvature="0"
         style="fill:#000000;stroke-width:0" /><path
         id="path8786"
         d="m 768,417.71 0.04,1.05 c 0.3,7.42 4.49,8.66 6.19,8.66 5.12,0 5.62,-6.72 5.62,-8.66 H 768.04 L 768,417.71 h 13.9 c 1.1,0 1.24,0 1.24,1.05 0,4.92 -2.69,9.75 -8.91,9.75 -5.78,0 -10.38,-5.12 -10.38,-11.36 0,-6.67 5.24,-11.5 10.97,-11.5 6.08,0 8.32,5.53 8.32,6.47 0,0.5 -0.39,0.61 -0.64,0.61 -0.46,0 -0.55,-0.3 -0.66,-0.7 -1.74,-5.13 -6.22,-5.13 -6.72,-5.13 -2.5,0 -4.48,1.49 -5.62,3.33 -1.5,2.39 -1.5,5.69 -1.5,7.48 z"
         inkscape:connector-curvature="0"
         style="fill:#000000;stroke-width:0" /><path
         id="path8788"
         d="m 815.48,435.34 0.07,0.17 0.07,0.17 0.08,0.17 0.08,0.16 0.08,0.16 0.09,0.16 0.1,0.15 0.1,0.15 0.11,0.15 0.11,0.14 0.12,0.14 0.13,0.14 0.13,0.13 0.14,0.12 0.15,0.12 0.15,0.12 0.16,0.11 0.18,0.1 0.17,0.1 0.19,0.09 0.2,0.09 0.21,0.08 0.21,0.07 0.23,0.07 0.23,0.06 0.25,0.06 0.25,0.04 0.27,0.04 0.28,0.03 0.29,0.03 0.3,0.02 0.31,0 v 1.55 c -1.55,-0.11 -3.55,-0.16 -4.85,-0.16 -1.48,0 -4.37,0.11 -5.67,0.16 v -1.55 c 2.6,-0.04 3.64,-1.34 3.64,-2.48 0,-0.41 -0.15,-0.7 -0.25,-1 l -9.12,-24.02 -9.52,25.16 c -0.3,0.7 -0.3,0.8 -0.3,0.89 0,1.45 2.85,1.45 4.08,1.45 v 1.55 c -1.78,-0.16 -5.21,-0.16 -7.11,-0.16 -2.4,0 -4.54,0.11 -6.32,0.16 v -1.55 c 3.23,0 4.17,0 4.87,-1.89 l 11.56,-30.59 c 0.35,-0.95 0.6,-1.09 1.25,-1.09 0.85,0 0.94,0.25 1.19,0.93 z"
         inkscape:connector-curvature="0"
         style="fill:#000000;stroke-width:0" /></g>  </g>
</svg>
