<?xml version="1.0" encoding="UTF-8" standalone="no"?>
<!-- Created with Inkscape (http://www.inkscape.org/) -->

<svg
   xmlns:dc="http://purl.org/dc/elements/1.1/"
   xmlns:cc="http://creativecommons.org/ns#"
   xmlns:rdf="http://www.w3.org/1999/02/22-rdf-syntax-ns#"
   xmlns:svg="http://www.w3.org/2000/svg"
   xmlns="http://www.w3.org/2000/svg"
   xmlns:sodipodi="http://sodipodi.sourceforge.net/DTD/sodipodi-0.dtd"
   xmlns:inkscape="http://www.inkscape.org/namespaces/inkscape"
   sodipodi:docname="square wells with waves.svg"
   width="355.13229"
   height="362.07755"
   id="svg2"
   version="1.1"
   inkscape:version="0.48.2 r9819">
  <sodipodi:namedview
     id="base"
     pagecolor="#ffffff"
     bordercolor="#666666"
     borderopacity="1.0"
     inkscape:pageopacity="0.0"
     inkscape:pageshadow="2"
     inkscape:zoom="1.5935813"
     inkscape:cx="75.324489"
     inkscape:cy="193.58913"
     inkscape:document-units="px"
     inkscape:current-layer="layer1"
     showgrid="false"
     inkscape:snap-bbox="false"
     inkscape:snap-bbox-edge-midpoints="false"
     inkscape:snap-global="true"
     inkscape:object-paths="false"
     inkscape:window-width="1024"
     inkscape:window-height="741"
     inkscape:window-x="1365"
     inkscape:window-y="177"
     inkscape:window-maximized="1"
     fit-margin-top="0"
     fit-margin-left="0"
     fit-margin-right="0"
     fit-margin-bottom="0" />
  <defs
     id="defs4">
    <marker
       style="overflow:visible"
       id="Arrow2Send"
       refX="0"
       refY="0"
       orient="auto"
       inkscape:stockid="Arrow2Send">
      <path
         transform="matrix(-0.3,0,0,-0.3,0.69,0)"
         d="M 8.7185878,4.0337352 -2.2072895,0.01601326 8.7185884,-4.0017078 c -1.7454984,2.3720609 -1.7354408,5.6174519 -6e-7,8.035443 z"
         style="font-size:12px;fill-rule:evenodd;stroke-width:0.625;stroke-linejoin:round"
         id="path4311"
         inkscape:connector-curvature="0" />
    </marker>
    <marker
       style="overflow:visible"
       id="Arrow1Send"
       refX="0"
       refY="0"
       orient="auto"
       inkscape:stockid="Arrow1Send">
      <path
         transform="matrix(-0.2,0,0,-0.2,-1.2,0)"
         style="fill-rule:evenodd;stroke:#000000;stroke-width:1pt;marker-start:none"
         d="M 0,0 5,-5 -12.5,0 5,5 0,0 z"
         id="path4293"
         inkscape:connector-curvature="0" />
    </marker>
    <marker
       style="overflow:visible"
       id="Arrow2Sstart"
       refX="0"
       refY="0"
       orient="auto"
       inkscape:stockid="Arrow2Sstart">
      <path
         transform="matrix(0.3,0,0,0.3,-0.69,0)"
         d="M 8.7185878,4.0337352 -2.2072895,0.01601326 8.7185884,-4.0017078 c -1.7454984,2.3720609 -1.7354408,5.6174519 -6e-7,8.035443 z"
         style="font-size:12px;fill-rule:evenodd;stroke-width:0.625;stroke-linejoin:round"
         id="path4308"
         inkscape:connector-curvature="0" />
    </marker>
    <marker
       style="overflow:visible"
       id="Tail"
       refX="0"
       refY="0"
       orient="auto"
       inkscape:stockid="Tail">
      <g
         transform="scale(-1.2,-1.2)"
         id="g3800">
        <path
           inkscape:connector-curvature="0"
           style="fill:none;stroke:#000000;stroke-width:0.80000001;stroke-linecap:round;marker-start:none;marker-end:none"
           d="M -3.8048674,-3.9585227 0.54352094,0"
           id="path3802" />
        <path
           inkscape:connector-curvature="0"
           style="fill:none;stroke:#000000;stroke-width:0.80000001;stroke-linecap:round;marker-start:none;marker-end:none"
           d="M -1.2866832,-3.9585227 3.0617053,0"
           id="path3804" />
        <path
           inkscape:connector-curvature="0"
           style="fill:none;stroke:#000000;stroke-width:0.80000001;stroke-linecap:round;marker-start:none;marker-end:none"
           d="M 1.3053582,-3.9585227 5.6537466,0"
           id="path3806" />
        <path
           inkscape:connector-curvature="0"
           style="fill:none;stroke:#000000;stroke-width:0.80000001;stroke-linecap:round;marker-start:none;marker-end:none"
           d="M -3.8048674,4.1775838 0.54352094,0.21974226"
           id="path3808" />
        <path
           inkscape:connector-curvature="0"
           style="fill:none;stroke:#000000;stroke-width:0.80000001;stroke-linecap:round;marker-start:none;marker-end:none"
           d="M -1.2866832,4.1775838 3.0617053,0.21974226"
           id="path3810" />
        <path
           inkscape:connector-curvature="0"
           style="fill:none;stroke:#000000;stroke-width:0.80000001;stroke-linecap:round;marker-start:none;marker-end:none"
           d="M 1.3053582,4.1775838 5.6537466,0.21974226"
           id="path3812" />
      </g>
    </marker>
    <marker
       style="overflow:visible"
       id="StopM"
       refX="0"
       refY="0"
       orient="auto"
       inkscape:stockid="StopM">
      <path
         inkscape:connector-curvature="0"
         transform="scale(0.4,0.4)"
         style="fill:none;stroke:#000000;stroke-width:1pt"
         d="M 0,5.65 0,-5.65"
         id="path3937" />
    </marker>
    <marker
       style="overflow:visible"
       id="Arrow2SstartX"
       refX="0"
       refY="0"
       orient="auto"
       inkscape:stockid="Arrow2SstartX">
      <path
         transform="matrix(0.3,0,0,0.3,-0.69,0)"
         d="M 8.7185878,4.0337352 -2.2072895,0.01601326 8.7185884,-4.0017078 c -1.7454984,2.3720609 -1.7354408,5.6174519 -6e-7,8.035443 z"
         style="font-size:12px;fill:#0000ff;fill-rule:evenodd;stroke:#0000ff;stroke-width:0.625;stroke-linejoin:round"
         id="path5531"
         inkscape:connector-curvature="0" />
    </marker>
    <marker
       style="overflow:visible"
       id="Arrow2Sendj"
       refX="0"
       refY="0"
       orient="auto"
       inkscape:stockid="Arrow2Sendj">
      <path
         transform="matrix(-0.3,0,0,-0.3,0.69,0)"
         d="M 8.7185878,4.0337352 -2.2072895,0.01601326 8.7185884,-4.0017078 c -1.7454984,2.3720609 -1.7354408,5.6174519 -6e-7,8.035443 z"
         style="font-size:12px;fill:#0000ff;fill-rule:evenodd;stroke:#0000ff;stroke-width:0.625;stroke-linejoin:round"
         id="path5534"
         inkscape:connector-curvature="0" />
    </marker>
    <marker
       style="overflow:visible"
       id="Arrow2SstartX-5"
       refX="0"
       refY="0"
       orient="auto"
       inkscape:stockid="Arrow2SstartX">
      <path
         inkscape:connector-curvature="0"
         transform="matrix(0.3,0,0,0.3,-0.69,0)"
         d="M 8.7185878,4.0337352 -2.2072895,0.01601326 8.7185884,-4.0017078 c -1.7454984,2.3720609 -1.7354408,5.6174519 -6e-7,8.035443 z"
         style="font-size:12px;fill:#0000ff;fill-rule:evenodd;stroke:#0000ff;stroke-width:0.625;stroke-linejoin:round"
         id="path5531-2" />
    </marker>
    <marker
       style="overflow:visible"
       id="Arrow2Sendj-6"
       refX="0"
       refY="0"
       orient="auto"
       inkscape:stockid="Arrow2Sendj">
      <path
         inkscape:connector-curvature="0"
         transform="matrix(-0.3,0,0,-0.3,0.69,0)"
         d="M 8.7185878,4.0337352 -2.2072895,0.01601326 8.7185884,-4.0017078 c -1.7454984,2.3720609 -1.7354408,5.6174519 -6e-7,8.035443 z"
         style="font-size:12px;fill:#0000ff;fill-rule:evenodd;stroke:#0000ff;stroke-width:0.625;stroke-linejoin:round"
         id="path5534-7" />
    </marker>
    <marker
       style="overflow:visible"
       id="Arrow2SstartX-1"
       refX="0"
       refY="0"
       orient="auto"
       inkscape:stockid="Arrow2SstartX">
      <path
         inkscape:connector-curvature="0"
         transform="matrix(0.3,0,0,0.3,-0.69,0)"
         d="M 8.7185878,4.0337352 -2.2072895,0.01601326 8.7185884,-4.0017078 c -1.7454984,2.3720609 -1.7354408,5.6174519 -6e-7,8.035443 z"
         style="font-size:12px;fill:#0000ff;fill-rule:evenodd;stroke:#0000ff;stroke-width:0.625;stroke-linejoin:round"
         id="path5531-1" />
    </marker>
    <marker
       style="overflow:visible"
       id="Arrow2Sendj-8"
       refX="0"
       refY="0"
       orient="auto"
       inkscape:stockid="Arrow2Sendj">
      <path
         inkscape:connector-curvature="0"
         transform="matrix(-0.3,0,0,-0.3,0.69,0)"
         d="M 8.7185878,4.0337352 -2.2072895,0.01601326 8.7185884,-4.0017078 c -1.7454984,2.3720609 -1.7354408,5.6174519 -6e-7,8.035443 z"
         style="font-size:12px;fill:#0000ff;fill-rule:evenodd;stroke:#0000ff;stroke-width:0.625;stroke-linejoin:round"
         id="path5534-0" />
    </marker>
    <marker
       style="overflow:visible"
       id="Arrow2SstartX-6"
       refX="0"
       refY="0"
       orient="auto"
       inkscape:stockid="Arrow2SstartX">
      <path
         inkscape:connector-curvature="0"
         transform="matrix(0.3,0,0,0.3,-0.69,0)"
         d="M 8.7185878,4.0337352 -2.2072895,0.01601326 8.7185884,-4.0017078 c -1.7454984,2.3720609 -1.7354408,5.6174519 -6e-7,8.035443 z"
         style="font-size:12px;fill:#0000ff;fill-rule:evenodd;stroke:#0000ff;stroke-width:0.625;stroke-linejoin:round"
         id="path5531-0" />
    </marker>
    <marker
       style="overflow:visible"
       id="Arrow2Sendj-9"
       refX="0"
       refY="0"
       orient="auto"
       inkscape:stockid="Arrow2Sendj">
      <path
         inkscape:connector-curvature="0"
         transform="matrix(-0.3,0,0,-0.3,0.69,0)"
         d="M 8.7185878,4.0337352 -2.2072895,0.01601326 8.7185884,-4.0017078 c -1.7454984,2.3720609 -1.7354408,5.6174519 -6e-7,8.035443 z"
         style="font-size:12px;fill:#0000ff;fill-rule:evenodd;stroke:#0000ff;stroke-width:0.625;stroke-linejoin:round"
         id="path5534-05" />
    </marker>
  </defs>
  <metadata
     id="metadata7">
    <rdf:RDF>
      <cc:Work
         rdf:about="">
        <dc:format>image/svg+xml</dc:format>
        <dc:type
           rdf:resource="http://purl.org/dc/dcmitype/StillImage" />
        <dc:title></dc:title>
      </cc:Work>
    </rdf:RDF>
  </metadata>
  <g
     style="display:inline"
     transform="translate(-32.498714,-764.82071)"
     id="layer1"
     inkscape:groupmode="layer"
     inkscape:label="Layer 1">
    <g
       transform="matrix(0.48123795,0,0,0.48123795,358.65238,704.34347)"
       id="g6060">
      <g
         style="font-style:normal;font-variant:normal;font-weight:normal;font-stretch:normal;letter-spacing:normal;word-spacing:normal;text-anchor:start;fill:none;stroke:#000000;stroke-width:2.07797408;stroke-linecap:butt;stroke-linejoin:miter;stroke-miterlimit:10.43299961;stroke-opacity:1;stroke-dasharray:none;stroke-dashoffset:0"
         id="g6062"
         transform="matrix(0.53149606,0,0,-0.53149606,-93.01181,393.30707)"
         xml:space="preserve"
         stroke-miterlimit="10.433"
         font-style="normal"
         font-variant="normal"
         font-weight="normal"
         font-stretch="normal"
         font-size-adjust="none"
         letter-spacing="normal"
         word-spacing="normal" />    </g>
    <path
       style="fill:none;stroke:#ff0000;stroke-width:1;stroke-linecap:butt;stroke-linejoin:miter;stroke-miterlimit:4;stroke-opacity:1;stroke-dasharray:none;stroke-dashoffset:0"
       d="m 82.049357,897.93613 c 0.420489,-0.74052 0.840989,-1.48104 1.261489,-2.22119 0.420489,-0.74015 0.840988,-1.47992 1.261477,-2.21895 0.4205,-0.73903 0.840989,-1.47732 1.261489,-2.21449 0.420489,-0.73717 0.84099,-1.47321 1.26149,-2.20778 0.420489,-0.73457 0.840989,-1.46764 1.261478,-2.19886 0.4205,-0.73122 0.840989,-1.46058 1.261489,-2.18772 0.420489,-0.72714 0.840989,-1.45205 1.261489,-2.17438 0.420489,-0.72233 0.840989,-1.44206 1.261478,-2.15885 0.4205,-0.71679 0.840989,-1.43062 1.26149,-2.14115 0.420489,-0.71053 0.840989,-1.41774 1.261489,-2.12129 0.420489,-0.70355 0.840989,-1.40342 1.261478,-2.09929 0.4205,-0.69587 0.840989,-1.3877 1.261484,-2.07518 0.4205,-0.68748 0.840989,-1.37058 1.261489,-2.04899 0.420489,-0.6784 0.840989,-1.35208 1.261478,-2.02072 0.420496,-0.66864 0.840986,-1.33221 1.261486,-1.99042 0.4205,-0.65821 0.84099,-1.31101 1.26149,-1.95812 0.42049,-0.64711 0.84099,-1.28849 1.26148,-1.92385 0.4205,-0.63537 0.84099,-1.26467 1.26149,-1.88765 0.4205,-0.62297 0.84099,-1.23957 1.26149,-1.84953 0.42049,-0.60995 0.84099,-1.21323 1.26148,-1.80955 0.4205,-0.59633 0.84099,-1.18567 1.26149,-1.76776 0.4205,-0.5821 0.84099,-1.15691 1.26149,-1.72419 0.42049,-0.56728 0.84099,-1.12698 1.26148,-1.67888 0.4205,-0.55189 0.841,-1.09592 1.26149,-1.63187 0.4205,-0.53595 0.84098,-1.06376 1.26148,-1.58323 0.42049,-0.51947 0.84099,-1.03053 1.26148,-1.53299 0.4205,-0.50246 0.841,-0.99626 1.26149,-1.48121 0.4205,-0.48495 0.84099,-0.96099 1.26149,-1.42793 0.42049,-0.46695 0.84099,-0.92475 1.26148,-1.37322 0.4205,-0.44848 0.841,-0.88758 1.26149,-1.31713 0.4205,-0.42956 0.84099,-0.84951 1.26149,-1.25971 0.42049,-0.4102 0.84099,-0.81059 1.26148,-1.20102 0.4205,-0.39043 0.841,-0.77085 1.26148,-1.14112 0.4205,-0.37027 0.84099,-0.73033 1.26149,-1.08007 0.42049,-0.34974 0.84099,-0.68908 1.26149,-1.01794 0.42049,-0.32885 0.84099,-0.64714 1.26148,-0.95477 0.4205,-0.30764 0.84099,-0.60455 1.26149,-0.89066 0.42049,-0.28611 0.84099,-0.56134 1.26149,-0.82564 0.42049,-0.26429 0.84099,-0.51757 1.26148,-0.75978 0.4205,-0.24222 0.84099,-0.47329 1.26149,-0.69318 0.42049,-0.21988 0.84099,-0.42852 1.26149,-0.62586 0.42049,-0.19734 0.84099,-0.38332 1.26147,-0.55792 0.4205,-0.17459 0.84099,-0.33773 1.26149,-0.48941 0.4205,-0.15167 0.84099,-0.29181 1.26149,-0.42041 0.42049,-0.12861 0.84099,-0.2456 1.26148,-0.351 0.4205,-0.1054 0.84099,-0.19913 1.26149,-0.28122 0.4205,-0.0821 0.84099,-0.15247 1.26149,-0.21117 0.42049,-0.0587 0.84099,-0.10564 1.26148,-0.14089 0.4205,-0.0353 0.84099,-0.0587 1.26149,-0.0705 0.4205,-0.0118 0.84099,-0.0117 1.26149,0 0.42049,0.0117 0.84099,0.0353 1.26147,0.0705 0.4205,0.0352 0.84099,0.0822 1.26149,0.14089 0.4205,0.0587 0.84099,0.1291 1.26149,0.21117 0.42049,0.0821 0.84099,0.17584 1.26148,0.28122 0.4205,0.10538 0.841,0.22242 1.26149,0.351 0.4205,0.12857 0.84099,0.26876 1.26149,0.42041 0.42049,0.15165 0.84099,0.31484 1.26148,0.48941 0.4205,0.17458 0.841,0.3606 1.26149,0.55792 0.4205,0.19732 0.84099,0.406 1.26149,0.62586 0.42048,0.21987 0.84099,0.45099 1.26147,0.69318 0.4205,0.24219 0.841,0.49551 1.26149,0.75978 0.4205,0.26428 0.84099,0.53956 1.26149,0.82564 0.42049,0.28609 0.84099,0.58304 1.26148,0.89066 0.4205,0.30761 0.841,0.62594 1.26149,0.95477 0.4205,0.32883 0.84099,0.66822 1.26149,1.01794 0.42049,0.34972 0.84099,0.70982 1.26149,1.08007 0.42049,0.37025 0.84099,0.75071 1.26148,1.14112 0.4205,0.39041 0.84099,0.79084 1.26149,1.20102 0.42048,0.41018 0.84098,0.83017 1.26148,1.25971 0.42049,0.42953 0.84099,0.86867 1.26148,1.31713 0.4205,0.44845 0.84099,0.90629 1.26149,1.37322 0.42049,0.46693 0.84099,0.943 1.26149,1.42793 0.42049,0.48493 0.84099,0.97877 1.26148,1.48121 0.4205,0.50244 0.84099,1.01354 1.26149,1.53299 0.42049,0.51945 0.84099,1.0473 1.26149,1.58323 0.42049,0.53593 0.84099,1.08 1.26148,1.63187 0.4205,0.55188 0.84099,1.11161 1.26149,1.67888 0.4205,0.56726 0.84098,1.1421 1.26148,1.72419 0.42049,0.58208 0.84099,1.17145 1.26148,1.76776 0.4205,0.59631 0.84099,1.19961 1.26149,1.80955 0.4205,0.60995 0.84099,1.22657 1.26149,1.84953 0.42049,0.62296 0.84099,1.2523 1.26148,1.88765 0.4205,0.63534 0.84099,1.27675 1.26149,1.92385 0.4205,0.64709 0.84099,1.29992 1.26149,1.95812 0.42049,0.65819 0.84099,1.32179 1.26148,1.99042 0.4205,0.66863 0.84099,1.34233 1.26149,2.02072 0.4205,0.6784 0.84098,1.36152 1.26148,2.04899 0.42049,0.68747 0.84099,1.37932 1.26148,2.07518 0.4205,0.69586 0.841,1.39575 1.26149,2.09929 0.4205,0.70355 0.84099,1.41077 1.26149,2.12129 0.42049,0.71052 0.84099,1.42436 1.26148,2.14115 0.4205,0.71678 0.841,1.43652 1.26149,2.15885 0.4205,0.72232 0.84099,1.44724 1.26149,2.17438 0.42049,0.72714 0.84099,1.4565 1.26148,2.18772 0.4205,0.73122 0.841,1.4643 1.26148,2.19886 0.4205,0.73456 0.84099,1.47062 1.26149,2.20778 0.42049,0.73717 0.84099,1.47546 1.26148,2.21449 0.4205,0.73903 0.841,1.4788 1.26149,2.21895 0.4205,0.74015 0.84099,1.48067 1.26149,2.22119"
       title="sin(x)"
       id="path8676"
       inkscape:connector-curvature="0" />
    <path
       style="fill:none;stroke:#ff0000;stroke-width:1;stroke-linecap:butt;stroke-linejoin:miter;stroke-miterlimit:4;stroke-opacity:1;stroke-dasharray:none;stroke-dashoffset:0;display:inline"
       d="m 260.45085,1062.2937 c 0.42234,-10e-5 0.84465,-0.086 1.26699,-0.256 0.42231,-0.1704 0.84465,-0.4259 1.26696,-0.764 0.42234,-0.338 0.84467,-0.7592 1.26699,-1.2595 0.42234,-0.5003 0.84465,-1.0803 1.26699,-1.7348 0.42231,-0.6546 0.84465,-1.3841 1.26697,-2.1823 0.42232,-0.7983 0.84466,-1.6656 1.26697,-2.5947 0.42234,-0.929 0.84465,-1.9202 1.26699,-2.9651 0.42232,-1.045 0.84466,-2.144 1.26698,-3.2881 0.42232,-1.144 0.84466,-2.3332 1.26697,-3.5579 0.42234,-1.2247 0.84465,-2.4851 1.26699,-3.7707 0.42231,-1.2857 0.84465,-2.5968 1.26697,-3.9228 0.42232,-1.3259 0.84466,-2.6667 1.26698,-4.0116 0.42234,-1.3449 0.84465,-2.6938 1.26699,-4.036 0.42231,-1.3422 0.84464,-2.6775 1.26698,-3.9954 0.42231,-1.3179 0.84465,-2.6182 1.26696,-3.8905 0.42234,-1.2724 0.84465,-2.5167 1.26699,-3.7231 0.42232,-1.2064 0.84465,-2.3747 1.26699,-3.4957 0.42231,-1.1211 0.84465,-2.1945 1.26696,-3.2121 0.42234,-1.0176 0.84465,-1.979 1.26699,-2.8768 0.42233,-0.8978 0.84464,-1.7316 1.26698,-2.4952 0.42231,-0.7636 0.84465,-1.4564 1.26696,-2.0735 0.42235,-0.617 0.84467,-1.1577 1.267,-1.6183 0.42233,-0.4606 0.84464,-0.84038 1.26698,-1.13709 0.42231,-0.29671 0.84465,-0.5097 1.26696,-0.63777 0.42234,-0.12807 0.84467,-0.1707 1.26698,-0.12807 0.42234,0.0426 0.84465,0.17104 1.267,0.38369 0.42231,0.21265 0.84465,0.51004 1.26696,0.88918 0.42234,0.37916 0.84467,0.84076 1.26698,1.38056 0.42234,0.5397 0.84465,1.158 1.26699,1.8496 0.42231,0.6915 0.84465,1.4567 1.26697,2.2889 0.42233,0.8323 0.84467,1.7319 1.26698,2.6914 0.42234,0.9596 0.84465,1.9793 1.26699,3.0506 0.42231,1.0714 0.84465,2.1947 1.26697,3.3607 0.42232,1.166 0.84466,2.3748 1.26697,3.6167 0.42234,1.2418 0.84465,2.5168 1.26699,3.8145 0.42233,1.2976 0.84466,2.6182 1.26699,3.9509 0.42231,1.3327 0.84465,2.6776 1.26696,4.0238 0.42234,1.3462 0.84465,2.6938 1.26699,4.0319 0.42232,1.3381 0.84465,2.6667 1.26698,3.9752 0.42231,1.3085 0.84465,2.5967 1.26697,3.8545 0.42234,1.2577 0.84466,2.4849 1.26699,3.6717 0.42232,1.1868 0.84464,2.3331 1.26698,3.4299 0.42231,1.0968 0.84465,2.1438 1.26696,3.1329 0.42234,0.9891 0.84466,1.92 1.26699,2.7855 0.42232,0.8655 0.84465,1.6653 1.26699,2.3933 0.42231,0.728 0.84465,1.3838 1.26696,1.9625 0.42234,0.5788 0.84466,1.08 1.26699,1.5002 0.42233,0.4203 0.84464,0.7589 1.26698,1.0138 0.42231,0.2549 0.84465,0.4255 1.26697,0.511 0.42234,0.085 0.84466,0.085 1.26699,0 0.42233,-0.085 0.84464,-0.2563 1.26698,-0.511 0.42231,-0.2547 0.84465,-0.5937 1.26697,-1.0138 0.42233,-0.42 0.84465,-0.9216 1.26697,-1.5002 0.42234,-0.5786 0.84465,-1.2346 1.267,-1.9625 0.42232,-0.7278 0.84465,-1.5279 1.26697,-2.3933 0.42233,-0.8654 0.84465,-1.7965 1.26697,-2.7855 0.42234,-0.989 0.84465,-2.0362 1.26699,-3.1329 0.42232,-1.0967 0.84465,-2.2431 1.26697,-3.4299 0.42233,-1.1867 0.84467,-2.414 1.26698,-3.6717 0.42234,-1.2577 0.84466,-2.5461 1.26699,-3.8545 0.42232,-1.3084 0.84465,-2.6371 1.26697,-3.9752 0.42232,-1.3381 0.84466,-2.6857 1.26697,-4.0319 0.42234,-1.3462 0.84466,-2.6911 1.26699,-4.0238 0.42233,-1.3327 0.84466,-2.6532 1.26698,-3.9509 0.42232,-1.2978 0.84466,-2.5726 1.26698,-3.8145 0.42233,-1.2419 0.84465,-2.4507 1.26698,-3.6167 0.42232,-1.1661 0.84465,-2.2892 1.26697,-3.3607 0.42232,-1.0714 0.84466,-2.0909 1.26699,-3.0506 0.42233,-0.9596 0.84465,-1.859 1.26698,-2.6914 0.42232,-0.8323 0.84465,-1.5972 1.26698,-2.2889 0.42231,-0.6917 0.84465,-1.3097 1.26697,-1.8496 0.42233,-0.5399 0.84465,-1.0012 1.26698,-1.38056 0.42232,-0.3793 0.84465,-0.67636 1.26699,-0.88918 0.42232,-0.21282 0.84465,-0.34089 1.26697,-0.38369 0.42233,-0.0428 0.84465,1.7e-4 1.26698,0.12807 0.42232,0.1279 0.84464,0.34123 1.26698,0.63777 0.42232,0.29654 0.84465,0.67669 1.26697,1.13709 0.42234,0.4604 0.84466,1.0015 1.26699,1.6183 0.42232,0.6169 0.84465,1.3101 1.26698,2.0735 0.42232,0.7634 0.84465,1.5975 1.26697,2.4952 0.42233,0.8977 0.84465,1.8593 1.26697,2.8768 0.42234,1.0175 0.84466,2.0911 1.267,3.2121 0.42232,1.1209 0.84465,2.2893 1.26697,3.4957 0.42233,1.2063 0.84465,2.4507 1.26698,3.7231 0.42233,1.2723 0.84465,2.5727 1.26698,3.8905 0.42232,1.3178 0.84465,2.6532 1.26697,3.9954 0.42233,1.3422 0.84466,2.6911 1.26699,4.036 0.42233,1.3449 0.84465,2.6857 1.26698,4.0116 0.42232,1.326 0.84465,2.6371 1.26697,3.9228 0.42233,1.2857 0.84465,2.5459 1.26698,3.7707 0.42233,1.2247 0.84465,2.4138 1.26698,3.5579 0.42233,1.1442 0.84466,2.243 1.26698,3.2881 0.42233,1.045 0.84466,2.036 1.26698,2.9651 0.42233,0.9292 0.84465,1.7963 1.26698,2.5947 0.42232,0.7983 0.84465,1.5276 1.26697,2.1823 0.42233,0.6546 0.84466,1.2343 1.26699,1.7348 0.42233,0.5005 0.84465,0.9213 1.26698,1.2595 0.42232,0.3383 0.84465,0.5934 1.26697,0.764 0.42233,0.1705 0.84466,0.2559 1.26698,0.256"
       title="pow(sin(x),2)"
       id="path8838"
       inkscape:connector-curvature="0" />
    <path
       id="path8903"
       title="pow(sin(x),2)"
       d="m 261.09983,897.45185 c 0.42017,-2e-5 0.84035,-0.0214 1.26052,-0.0641 0.42019,-0.0427 0.84037,-0.10675 1.26054,-0.19195 0.42018,-0.0852 0.84036,-0.19166 1.26054,-0.31904 0.42017,-0.12739 0.84035,-0.27582 1.26053,-0.44487 0.42018,-0.16905 0.84036,-0.35885 1.26053,-0.56889 0.42019,-0.21004 0.84036,-0.44045 1.26055,-0.69063 0.42017,-0.25018 0.84036,-0.52027 1.26053,-0.80959 0.42018,-0.28931 0.84036,-0.59799 1.26054,-0.92528 0.42018,-0.32729 0.84035,-0.6733 1.26053,-1.03725 0.42018,-0.36394 0.84036,-0.74591 1.26054,-1.14504 0.42017,-0.39913 0.84036,-0.81552 1.26053,-1.24823 0.42018,-0.43271 0.84035,-0.88183 1.26054,-1.34638 0.42017,-0.46455 0.84035,-0.94461 1.26054,-1.43912 0.42018,-0.49451 0.84036,-1.00357 1.26053,-1.52606 0.42018,-0.52249 0.84036,-1.05849 1.26054,-1.60685 0.42017,-0.54836 0.84035,-1.10916 1.26054,-1.68118 0.42017,-0.57203 0.84035,-1.15535 1.26052,-1.74874 0.42019,-0.59338 0.84036,-1.19689 1.26054,-1.80924 0.42017,-0.61236 0.84036,-1.23362 1.26054,-1.86248 0.42017,-0.62886 0.84035,-1.26537 1.26053,-1.90821 0.42019,-0.64283 0.84036,-1.29203 1.26054,-1.94625 0.42019,-0.65422 0.84036,-1.31349 1.26054,-1.97646 0.42017,-0.66297 0.84036,-1.32966 1.26053,-1.99871 0.42018,-0.66906 0.84035,-1.34048 1.26054,-2.01292 0.42018,-0.67244 0.84035,-1.34589 1.26053,-2.01901 0.42018,-0.67312 0.84036,-1.34589 1.26053,-2.01698 0.42019,-0.67108 0.84036,-1.34047 1.26054,-2.00682 0.42019,-0.66635 0.84037,-1.32965 1.26055,-1.98859 0.42017,-0.65893 0.84035,-1.31348 1.26053,-1.96234 0.42018,-0.64887 0.84035,-1.29202 1.26053,-1.9282 0.42019,-0.63619 0.84036,-1.26536 1.26054,-1.88629 0.42017,-0.62094 0.84036,-1.2336 1.26053,-1.83679 0.42018,-0.6032 0.84036,-1.19687 1.26054,-1.77989 0.42018,-0.58302 0.84035,-1.15532 1.26053,-1.71582 0.42018,-0.5605 0.84037,-1.10913 1.26054,-1.64485 0.42018,-0.53572 0.84037,-1.05846 1.26054,-1.56724 0.42018,-0.50879 0.84035,-1.00353 1.26054,-1.48334 0.42017,-0.4798 0.84035,-0.94456 1.26052,-1.39345 0.42019,-0.44888 0.84037,-0.8818 1.26054,-1.29796 0.42018,-0.41616 0.84036,-0.81547 1.26054,-1.19724 0.42017,-0.38176 0.84035,-0.74587 1.26053,-1.09169 0.42018,-0.34583 0.84037,-0.67326 1.26054,-0.98176 0.42019,-0.3085 0.84036,-0.59795 1.26054,-0.86787 0.42017,-0.26993 0.84036,-0.52022 1.26054,-0.75049 0.42017,-0.23027 0.84035,-0.44039 1.26053,-0.63008 0.42018,-0.18968 0.84035,-0.3588 1.26053,-0.50713 0.42018,-0.14833 0.84036,-0.27576 1.26054,-0.38215 0.42017,-0.10639 0.84036,-0.19161 1.26053,-0.25562 0.42018,-0.064 0.84035,-0.10669 1.26055,-0.12807 0.42017,-0.0214 0.84035,-0.0213 1.26053,0 0.42018,0.0213 0.84036,0.0641 1.26053,0.12807 0.42018,0.064 0.84036,0.14928 1.26054,0.25562 0.42017,0.10635 0.84035,0.23386 1.26054,0.38215 0.42017,0.14829 0.84035,0.31749 1.26052,0.50713 0.42019,0.18965 0.84036,0.39985 1.26054,0.63008 0.42019,0.23023 0.84036,0.4806 1.26055,0.75049 0.42017,0.26989 0.84035,0.55941 1.26053,0.86787 0.42018,0.30846 0.84035,0.63597 1.26053,0.98176 0.42019,0.34579 0.84036,0.70997 1.26054,1.09169 0.42017,0.38173 0.84036,0.78111 1.26053,1.19724 0.42018,0.41613 0.84035,0.84911 1.26054,1.29796 0.42018,0.44885 0.84035,0.91368 1.26053,1.39345 0.42018,0.47978 0.84037,0.97458 1.26054,1.48334 0.42018,0.50876 0.84036,1.03155 1.26054,1.56724 0.42018,0.5357 0.84035,1.08437 1.26054,1.64485 0.42017,0.56047 0.84035,1.13282 1.26053,1.71582 0.42018,0.583 0.84036,1.17671 1.26053,1.77989 0.42019,0.60317 0.84036,1.21586 1.26054,1.83679 0.42017,0.62092 0.84036,1.25012 1.26053,1.88629 0.42018,0.63617 0.84037,1.27934 1.26055,1.9282 0.42018,0.64885 0.84035,1.30342 1.26053,1.96234 0.42018,0.65893 0.84036,1.32224 1.26053,1.98859 0.42018,0.66635 0.84037,1.33574 1.26054,2.00682 0.42018,0.67109 0.84035,1.34386 1.26054,2.01698 0.42017,0.67312 0.84035,1.34657 1.26052,2.01901 0.42019,0.67244 0.84037,1.34386 1.26054,2.01292 0.42018,0.66905 0.84036,1.33573 1.26055,1.99871 0.42017,0.66297 0.84035,1.32223 1.26054,1.97646 0.42017,0.65423 0.84035,1.3034 1.26052,1.94625 0.42019,0.64285 0.84036,1.27933 1.26054,1.90821 0.42017,0.62888 0.84036,1.2501 1.26054,1.86248 0.42017,0.61237 0.84035,1.21584 1.26053,1.80924 0.42018,0.59341 0.84035,1.17669 1.26053,1.74874 0.42018,0.57205 0.84036,1.13279 1.26055,1.68118 0.42017,0.54838 0.84036,1.08434 1.26053,1.60685 0.42018,0.52252 0.84035,1.03152 1.26054,1.52606 0.42018,0.49454 0.84035,0.97454 1.26053,1.43912 0.42018,0.46458 0.84036,0.91364 1.26053,1.34638 0.42018,0.43274 0.84036,0.84907 1.26054,1.24823 0.42018,0.39916 0.84035,0.78107 1.26054,1.14504 0.42017,0.36398 0.84035,0.70993 1.26052,1.03725 0.4202,0.32733 0.84037,0.63593 1.26055,0.92528 0.42018,0.28936 0.84036,0.55937 1.26054,0.80959 0.42017,0.25022 0.84035,0.48055 1.26053,0.69063 0.42018,0.21008 0.84035,0.3998 1.26053,0.56889 0.42019,0.1691 0.84036,0.31744 1.26054,0.44487 0.42017,0.12742 0.84036,0.2338 1.26053,0.31904 0.42018,0.0853 0.84036,0.14923 1.26054,0.19195 0.42019,0.0427 0.84036,0.064 1.26054,0.0641"
       style="fill:none;stroke:#ff0000;stroke-width:1;stroke-linecap:butt;stroke-linejoin:miter;stroke-miterlimit:4;stroke-opacity:1;stroke-dasharray:none;stroke-dashoffset:0;display:inline"
       inkscape:connector-curvature="0" />
    <path
       id="path8756"
       title="sin(x)"
       d="m 82.182056,1062.7553 c 0.419664,-1.3464 0.839339,-2.6928 1.259014,-4.0365 0.419664,-1.3437 0.839339,-2.6846 1.259003,-4.0202 0.419674,-1.3356 0.839338,-2.6657 1.259013,-3.9878 0.419675,-1.3221 0.839339,-2.6361 1.259014,-3.9393 0.419664,-1.3033 0.839339,-2.5958 1.259003,-3.875 0.419675,-1.2792 0.839338,-2.545 1.259013,-3.7949 0.419675,-1.25 0.839339,-2.4841 1.259014,-3.6998 0.419664,-1.2157 0.839339,-2.413 1.259003,-3.5896 0.419675,-1.1765 0.839339,-2.3323 1.259013,-3.465 0.419675,-1.1326 0.839339,-2.2422 1.259014,-3.3264 0.419664,-1.0842 0.839339,-2.1431 1.259003,-3.1745 0.419675,-1.0314 0.83935,-2.0353 1.259014,-3.0098 0.419675,-0.9744 0.839338,-1.9193 1.259013,-2.8329 0.419664,-0.9135 0.839339,-1.7956 1.259003,-2.6446 0.419677,-0.849 0.839347,-1.6648 1.259017,-2.4458 0.41967,-0.781 0.83934,-1.5271 1.25901,-2.237 0.41966,-0.7099 0.83934,-1.3834 1.259,-2.0193 0.41968,-0.6359 0.83935,-1.234 1.25902,-1.7934 0.41967,-0.5593 0.83934,-1.0797 1.25901,-1.5602 0.41966,-0.4806 0.83934,-0.9211 1.259,-1.3209 0.41968,-0.3998 0.83935,-0.7587 1.25902,-1.0762 0.41967,-0.3175 0.83934,-0.5933 1.25901,-0.8271 0.41966,-0.23386 0.83934,-0.42549 1.25901,-0.57476 0.41967,-0.14928 0.83934,-0.25595 1.25901,-0.32006 0.41967,-0.0641 0.83934,-0.0854 1.25901,-0.0641 0.41966,0.0213 0.83934,0.0855 1.25901,0.19216 0.41967,0.10666 0.83934,0.25605 1.25901,0.44762 0.41967,0.19157 0.83934,0.42554 1.25901,0.70124 0.41966,0.2758 0.83934,0.5935 1.25901,0.9522 0.41967,0.3587 0.83934,0.7588 1.25901,1.1991 0.41967,0.4403 0.83934,0.9212 1.25901,1.4413 0.41967,0.5202 0.83934,1.0798 1.25901,1.6777 0.41967,0.5978 0.83934,1.2341 1.25901,1.9073 0.41967,0.6731 0.83934,1.3834 1.25901,2.1292 0.41968,0.7457 0.83934,1.5272 1.25901,2.3426 0.41967,0.8153 0.83934,1.6648 1.25901,2.5465 0.41967,0.8816 0.83934,1.7957 1.25901,2.7401 0.41968,0.9444 0.83934,1.9194 1.25902,2.9228 0.41966,1.0034 0.83933,2.0354 1.259,3.0937 0.41967,1.0583 0.83934,2.1432 1.25901,3.2521 0.41968,1.109 0.83934,2.2423 1.25902,3.3975 0.41966,1.1551 0.83933,2.3323 1.259,3.529 0.41967,1.1967 0.83934,2.4131 1.25901,3.6465 0.41968,1.2334 0.83934,2.4841 1.25902,3.7493 0.41966,1.2651 0.83933,2.545 1.259,3.8368 0.41967,1.2919 0.83935,2.5958 1.25901,3.9091 0.41968,1.3133 0.83934,2.6361 1.25902,3.9656 0.41966,1.3295 0.83933,2.6657 1.259,4.006 0.41967,1.3403 0.83935,2.6847 1.25901,4.0304 0.41968,1.3457 0.83934,2.6928 1.25902,4.0386 0.41966,1.3457 0.83933,2.69 1.259,4.0304 0.41967,1.3403 0.83935,2.6765 1.25901,4.006 0.41968,1.3295 0.83934,2.6522 1.25902,3.9655 0.41966,1.3134 0.83933,2.6173 1.259,3.9091 0.41967,1.2919 0.83935,2.5717 1.25901,3.8369 0.41968,1.2652 0.83934,2.5158 1.25902,3.7493 0.41966,1.2334 0.83933,2.4497 1.25901,3.6465 0.41966,1.1967 0.83934,2.3738 1.259,3.529 0.41968,1.1552 0.83934,2.2884 1.25902,3.3975 0.41966,1.109 0.83933,2.1937 1.25901,3.2521 0.41966,1.0583 0.83934,2.0902 1.259,3.0937 0.41968,1.0034 0.83934,1.9783 1.25902,2.9228 0.41966,0.9445 0.83933,1.8584 1.25901,2.7402 0.41966,0.8817 0.83934,1.731 1.259,2.5465 0.41968,0.8154 0.83934,1.5967 1.25902,2.3425 0.41966,0.7459 0.83934,1.456 1.25901,2.1293 0.41966,0.6732 0.83934,1.3093 1.259,1.9072 0.41968,0.598 0.83934,1.1575 1.25902,1.6777 0.41967,0.5202 0.83934,1.0009 1.25901,1.4413 0.41966,0.4404 0.83934,0.8403 1.259,1.1991 0.41968,0.3588 0.83934,0.6763 1.25902,0.9521 0.41967,0.2758 0.83934,0.5097 1.25901,0.7013 0.41966,0.1917 0.83934,0.3409 1.259,0.4476 0.41968,0.1068 0.83934,0.1708 1.25902,0.1922 0.41967,0.021 0.83934,0 1.25901,-0.064 0.41966,-0.064 0.83934,-0.1709 1.259,-0.32 0.41968,-0.1492 0.83934,-0.341 1.25902,-0.5748 0.41967,-0.2337 0.83934,-0.5097 1.25901,-0.8271 0.41966,-0.3174 0.83934,-0.6764 1.259,-1.0762 0.41968,-0.3997 0.83935,-0.8404 1.25902,-1.3208 0.41967,-0.4805 0.83934,-1.001 1.25901,-1.5603 0.41966,-0.5593 0.83934,-1.1576 1.259,-1.7934 0.41968,-0.6358 0.83935,-1.3094 1.25902,-2.0192 0.41967,-0.7099 0.83934,-1.4561 1.25901,-2.2371 0.41966,-0.7809 0.83934,-1.5968 1.259,-2.4457 0.41968,-0.849 0.83935,-1.7312 1.25902,-2.6447 0.41967,-0.9135 0.83934,-1.8585 1.25901,-2.8329 0.41966,-0.9745 0.83934,-1.9784 1.259,-3.0098 0.41968,-1.0314 0.83935,-2.0903 1.25902,-3.1745 0.41967,-1.0842 0.83934,-2.1938 1.25901,-3.3265 0.41966,-1.1326 0.83934,-2.2884 1.25901,-3.465 0.41967,-1.1765 0.83934,-2.3739 1.25901,-3.5895 0.41967,-1.2157 0.83934,-2.4498 1.25901,-3.6998 0.41967,-1.2499 0.83934,-2.5158 1.25901,-3.7949 0.41967,-1.2792 0.83934,-2.5718 1.25901,-3.875 0.41967,-1.3032 0.83934,-2.6172 1.25901,-3.9393 0.41967,-1.3221 0.83934,-2.6522 1.25901,-3.9878 0.41967,-1.3356 0.83934,-2.6765 1.25901,-4.0202 0.41967,-1.3437 0.83934,-2.6901 1.25901,-4.0365"
       style="fill:none;stroke:#ff0000;stroke-width:0.99999994;stroke-linecap:butt;stroke-linejoin:miter;stroke-miterlimit:4;stroke-opacity:1;stroke-dasharray:none;stroke-dashoffset:0;display:inline"
       inkscape:connector-curvature="0" />
    <g
       id="g9051"
       transform="translate(22,0)">
      <path
         style="fill:none;stroke:#0000ff;stroke-width:1px;stroke-linecap:butt;stroke-linejoin:miter;stroke-opacity:1;marker-start:url(#Arrow2SstartX);marker-end:url(#Arrow2Sendj)"
         d="m 59.581269,766.42784 0,132.02197 125.735211,0 0,-132.18316"
         id="path2985"
         inkscape:connector-curvature="0"
         sodipodi:nodetypes="cccc" />
      <path
         style="fill:none;stroke:#0000ff;stroke-width:1px;stroke-linecap:butt;stroke-linejoin:miter;stroke-opacity:1"
         d="m 122.44296,898.61261 0,4.09691"
         id="path6517"
         inkscape:connector-curvature="0" />
    </g>
    <g
       id="g9055"
       transform="translate(28.92262,0)">
      <path
         style="fill:none;stroke:#0000ff;stroke-width:1px;stroke-linecap:butt;stroke-linejoin:miter;stroke-opacity:1;marker-start:url(#Arrow2SstartX);marker-end:url(#Arrow2Sendj);display:inline"
         d="m 52.658654,931.19155 0,132.02195 125.735206,0 0,-132.18314"
         id="path2985-4"
         inkscape:connector-curvature="0"
         sodipodi:nodetypes="cccc" />
      <path
         style="fill:none;stroke:#0000ff;stroke-width:1px;stroke-linecap:butt;stroke-linejoin:miter;stroke-opacity:1;display:inline"
         d="m 115.52034,1063.3763 0,4.0969"
         id="path6517-7"
         inkscape:connector-curvature="0" />
    </g>
    <g
       id="g9059"
       transform="translate(-8.317713,-10.88599)">
      <path
         style="fill:none;stroke:#0000ff;stroke-width:1px;stroke-linecap:butt;stroke-linejoin:miter;stroke-opacity:1;marker-start:url(#Arrow2SstartX);marker-end:url(#Arrow2Sendj);display:inline"
         d="m 268.91924,777.31383 0,132.02193 125.73521,0 0,-132.18312"
         id="path2985-4-6"
         inkscape:connector-curvature="0"
         sodipodi:nodetypes="cccc" />
      <path
         style="fill:none;stroke:#0000ff;stroke-width:1px;stroke-linecap:butt;stroke-linejoin:miter;stroke-opacity:1;display:inline"
         d="m 331.78092,909.49856 0,4.0969"
         id="path6517-7-6"
         inkscape:connector-curvature="0" />
    </g>
    <g
       id="g9063"
       transform="translate(-12.476573,-58.22402)">
      <path
         style="fill:none;stroke:#0000ff;stroke-width:1px;stroke-linecap:butt;stroke-linejoin:miter;stroke-opacity:1;marker-start:url(#Arrow2SstartX);marker-end:url(#Arrow2Sendj);display:inline"
         d="m 273.0781,989.41557 0,132.02193 125.73521,0 0,-132.18312"
         id="path2985-4-6-8"
         inkscape:connector-curvature="0"
         sodipodi:nodetypes="cccc" />
      <path
         style="fill:none;stroke:#0000ff;stroke-width:1px;stroke-linecap:butt;stroke-linejoin:miter;stroke-opacity:1;display:inline"
         d="m 335.93978,1121.6003 0,4.0969"
         id="path6517-7-6-7"
         inkscape:connector-curvature="0" />
    </g>
    <g
       id="g9122"
       transform="matrix(0.55040654,0,0,0.55040654,-35.280231,782.76288)">
      <g
         id="content"
         transform="matrix(0.43907659,0,0,-0.43907659,-76.838402,271.55816)"
         xml:space="preserve"
         stroke-miterlimit="10.433"
         font-style="normal"
         font-variant="normal"
         font-weight="normal"
         font-stretch="normal"
         font-size-adjust="none"
         letter-spacing="normal"
         word-spacing="normal"
         style="font-style:normal;font-variant:normal;font-weight:normal;font-stretch:normal;letter-spacing:normal;word-spacing:normal;text-anchor:start;fill:none;stroke:#000000;stroke-width:1.81683886;stroke-linecap:butt;stroke-linejoin:miter;stroke-miterlimit:10.43299961;stroke-opacity:1;stroke-dasharray:none;stroke-dashoffset:0"><path
           d="m 459.91,409.14 -0.02,-0.07 -0.01,-0.08 -0.02,-0.07 -0.01,-0.08 -0.04,-0.16 -0.04,-0.16 -0.03,-0.16 -0.04,-0.16 -0.04,-0.16 -0.04,-0.16 -0.01,-0.08 -0.02,-0.07 -0.02,-0.07 -0.01,-0.07 -0.02,-0.07 -0.01,-0.07 -0.01,-0.06 -0.01,-0.06 -0.01,-0.06 -0.01,-0.05 -0.01,-0.05 -0.01,-0.04 -0.01,-0.04 0,-0.04 0,-0.03 0,-0.02 c 0,-0.89 0.7,-1.35 1.43,-1.35 0.61,0 1.5,0.39 1.85,1.39 0.06,0.11 0.65,2.44 0.95,3.69 l 1.1,4.48 c 0.29,1.1 0.59,2.19 0.84,3.35 0.2,0.84 0.61,2.28 0.66,2.48 0.75,1.55 3.39,6.08 8.1,6.08 2.25,0 2.71,-1.84 2.71,-3.48 0,-3.1 -2.46,-9.47 -3.25,-11.61 -0.44,-1.14 -0.49,-1.75 -0.49,-2.3 0,-2.33 1.74,-4.08 4.08,-4.08 4.69,0 6.53,7.27 6.53,7.67 0,0.5 -0.45,0.5 -0.61,0.5 -0.48,0 -0.48,-0.15 -0.73,-0.9 -1,-3.38 -2.64,-6.17 -5.09,-6.17 -0.85,0 -1.19,0.5 -1.19,1.64 0,1.25 0.45,2.45 0.89,3.54 0.95,2.64 3.05,8.11 3.05,10.96 0,3.34 -2.15,5.32 -5.74,5.32 -4.48,0 -6.92,-3.18 -7.76,-4.32 -0.25,2.79 -2.3,4.32 -4.6,4.32 -2.28,0 -3.23,-1.93 -3.73,-2.82 -0.8,-1.71 -1.5,-4.64 -1.5,-4.85 0,-0.5 0.5,-0.5 0.61,-0.5 0.5,0 0.54,0.07 0.84,1.16 0.84,3.53 1.84,5.92 3.64,5.92 0.99,0 1.55,-0.64 1.55,-2.28 0,-1.05 -0.16,-1.61 -0.8,-4.19 z"
           id="path9125"
           inkscape:connector-curvature="0"
           style="fill:#000000;stroke-width:0" /><path
           d="m 533.55,422.5 0.14,0 0.15,0 0.14,0 0.08,0.01 0.07,0 0.07,0.01 0.07,0.01 0.07,0.01 0.07,0.01 0.07,0.01 0.07,0.02 0.06,0.02 0.06,0.02 0.06,0.02 0.06,0.03 0.06,0.03 0.05,0.04 0.05,0.03 0.05,0.05 0.04,0.04 0.04,0.05 0.02,0.03 0.02,0.03 0.01,0.02 0.02,0.03 0.01,0.03 0.02,0.04 0.01,0.03 0.01,0.04 0.01,0.03 0.01,0.04 0.01,0.04 0,0.04 0.01,0.04 0,0.04 0,0.04 0,0.05 c 0,1 -0.95,1 -1.64,1 h -29.84 c -0.71,0 -1.64,0 -1.64,-1 0,-0.98 0.93,-0.98 1.68,-0.98 z"
           id="path9127"
           inkscape:connector-curvature="0"
           style="fill:#000000;stroke-width:0" /><path
           d="m 533.6,412.82 0.07,0 0.06,0 0.14,0.01 0.14,0 0.07,0 0.07,0.01 0.07,0.01 0.07,0 0.07,0.01 0.06,0.02 0.07,0.01 0.06,0.02 0.07,0.02 0.06,0.02 0.06,0.02 0.06,0.03 0.05,0.03 0.05,0.04 0.05,0.04 0.05,0.04 0.04,0.05 0.02,0.02 0.02,0.03 0.02,0.02 0.02,0.03 0.01,0.03 0.02,0.03 0.01,0.03 0.02,0.03 0.01,0.04 0.01,0.03 0.01,0.04 0.01,0.04 0.01,0.04 0,0.04 0.01,0.04 0,0.04 0,0.05 0,0.04 c 0,1 -0.95,1 -1.69,1 H 503.8 c -0.75,0 -1.68,0 -1.68,-1 0,-1 0.93,-1 1.64,-1 z"
           id="path9129"
           inkscape:connector-curvature="0"
           style="fill:#000000;stroke-width:0" /><path
           d="m 566.52,438.09 0,0.05 0,0.06 0,0.05 0,0.05 0,0.05 0,0.05 -0.01,0.04 0,0.05 0,0.04 0,0.04 0,0.04 0,0.04 0,0.04 -0.01,0.03 0,0.04 0,0.03 -0.01,0.07 -0.01,0.06 -0.01,0.05 -0.01,0.05 -0.02,0.05 -0.02,0.04 -0.02,0.04 -0.03,0.03 -0.03,0.03 -0.03,0.03 -0.03,0.03 -0.04,0.02 -0.05,0.02 -0.02,0.01 -0.02,0.01 -0.03,0 -0.03,0.01 -0.03,0.01 -0.03,0 -0.03,0.01 -0.03,0 -0.03,0.01 -0.04,0 -0.03,0 -0.04,0.01 -0.04,0 -0.04,0 -0.04,0 -0.04,0 -0.05,0 -0.04,0.01 -0.05,0 -0.05,0 -0.05,0 -0.05,0 c -3.1,-3.19 -7.47,-3.19 -9.07,-3.19 v -1.55 c 1,0 3.94,0 6.52,1.3 v -25.81 c 0,-1.8 -0.14,-2.39 -4.63,-2.39 h -1.59 v -1.55 c 1.75,0.16 6.08,0.16 8.06,0.16 2,0 6.33,0 8.08,-0.16 v 1.55 h -1.59 c -4.49,0 -4.64,0.54 -4.64,2.39 z"
           id="path9131"
           inkscape:connector-curvature="0"
           style="fill:#000000;stroke-width:0" /></g>    </g>
    <g
       id="g9253"
       transform="matrix(0.55040654,0,0,0.55040654,-35.642737,947.79996)">
      <g
         word-spacing="normal"
         letter-spacing="normal"
         font-size-adjust="none"
         font-stretch="normal"
         font-weight="normal"
         font-variant="normal"
         font-style="normal"
         stroke-miterlimit="10.433"
         xml:space="preserve"
         transform="matrix(0.43907659,0,0,-0.43907659,-76.838402,271.55816)"
         id="g9255"
         style="font-style:normal;font-variant:normal;font-weight:normal;font-stretch:normal;letter-spacing:normal;word-spacing:normal;text-anchor:start;fill:none;stroke:#000000;stroke-width:1.81683886;stroke-linecap:butt;stroke-linejoin:miter;stroke-miterlimit:10.43299961;stroke-opacity:1;stroke-dasharray:none;stroke-dashoffset:0"><path
           id="path9257"
           d="m 459.91,409.14 -0.02,-0.07 -0.01,-0.08 -0.02,-0.07 -0.01,-0.08 -0.04,-0.16 -0.04,-0.16 -0.03,-0.16 -0.04,-0.16 -0.04,-0.16 -0.04,-0.16 -0.01,-0.08 -0.02,-0.07 -0.02,-0.07 -0.01,-0.07 -0.02,-0.07 -0.01,-0.07 -0.01,-0.06 -0.01,-0.06 -0.01,-0.06 -0.01,-0.05 -0.01,-0.05 -0.01,-0.04 -0.01,-0.04 0,-0.04 0,-0.03 0,-0.02 c 0,-0.89 0.7,-1.35 1.43,-1.35 0.61,0 1.5,0.39 1.85,1.39 0.06,0.11 0.65,2.44 0.95,3.69 l 1.1,4.48 c 0.29,1.1 0.59,2.19 0.84,3.35 0.2,0.84 0.61,2.28 0.66,2.48 0.75,1.55 3.39,6.08 8.1,6.08 2.25,0 2.71,-1.84 2.71,-3.48 0,-3.1 -2.46,-9.47 -3.25,-11.61 -0.44,-1.14 -0.49,-1.75 -0.49,-2.3 0,-2.33 1.74,-4.08 4.08,-4.08 4.69,0 6.53,7.27 6.53,7.67 0,0.5 -0.45,0.5 -0.61,0.5 -0.48,0 -0.48,-0.15 -0.73,-0.9 -1,-3.38 -2.64,-6.17 -5.09,-6.17 -0.85,0 -1.19,0.5 -1.19,1.64 0,1.25 0.45,2.45 0.89,3.54 0.95,2.64 3.05,8.11 3.05,10.96 0,3.34 -2.15,5.32 -5.74,5.32 -4.48,0 -6.92,-3.18 -7.76,-4.32 -0.25,2.79 -2.3,4.32 -4.6,4.32 -2.28,0 -3.23,-1.93 -3.73,-2.82 -0.8,-1.71 -1.5,-4.64 -1.5,-4.85 0,-0.5 0.5,-0.5 0.61,-0.5 0.5,0 0.54,0.07 0.84,1.16 0.84,3.53 1.84,5.92 3.64,5.92 0.99,0 1.55,-0.64 1.55,-2.28 0,-1.05 -0.16,-1.61 -0.8,-4.19 z"
           inkscape:connector-curvature="0"
           style="fill:#000000;stroke-width:0" /><path
           id="path9259"
           d="m 533.55,422.5 0.14,0 0.15,0 0.14,0 0.08,0.01 0.07,0 0.07,0.01 0.07,0.01 0.07,0.01 0.07,0.01 0.07,0.01 0.07,0.02 0.06,0.02 0.06,0.02 0.06,0.02 0.06,0.03 0.06,0.03 0.05,0.04 0.05,0.03 0.05,0.05 0.04,0.04 0.04,0.05 0.02,0.03 0.02,0.03 0.01,0.02 0.02,0.03 0.01,0.03 0.02,0.04 0.01,0.03 0.01,0.04 0.01,0.03 0.01,0.04 0.01,0.04 0,0.04 0.01,0.04 0,0.04 0,0.04 0,0.05 c 0,1 -0.95,1 -1.64,1 h -29.84 c -0.71,0 -1.64,0 -1.64,-1 0,-0.98 0.93,-0.98 1.68,-0.98 z"
           inkscape:connector-curvature="0"
           style="fill:#000000;stroke-width:0" /><path
           id="path9261"
           d="m 533.6,412.82 0.07,0 0.06,0 0.14,0.01 0.14,0 0.07,0 0.07,0.01 0.07,0.01 0.07,0 0.07,0.01 0.06,0.02 0.07,0.01 0.06,0.02 0.07,0.02 0.06,0.02 0.06,0.02 0.06,0.03 0.05,0.03 0.05,0.04 0.05,0.04 0.05,0.04 0.04,0.05 0.02,0.02 0.02,0.03 0.02,0.02 0.02,0.03 0.01,0.03 0.02,0.03 0.01,0.03 0.02,0.03 0.01,0.04 0.01,0.03 0.01,0.04 0.01,0.04 0.01,0.04 0,0.04 0.01,0.04 0,0.04 0,0.05 0,0.04 c 0,1 -0.95,1 -1.69,1 H 503.8 c -0.75,0 -1.68,0 -1.68,-1 0,-1 0.93,-1 1.64,-1 z"
           inkscape:connector-curvature="0"
           style="fill:#000000;stroke-width:0" /><path
           id="path9263"
           d="m 558.2,410.04 5.28,5.13 c 7.77,6.87 10.77,9.56 10.77,14.54 0,5.69 -4.48,9.68 -10.56,9.68 -5.64,0 -9.33,-4.6 -9.33,-9.03 0,-2.79 2.5,-2.79 2.64,-2.79 0.86,0 2.59,0.6 2.59,2.64 0,1.3 -0.89,2.6 -2.64,2.6 -0.39,0 -0.5,0 -0.64,-0.05 1.14,3.24 3.83,5.08 6.72,5.08 4.53,0 6.69,-4.05 6.69,-8.13 0,-3.98 -2.5,-7.92 -5.24,-11.01 l -9.56,-10.66 c -0.56,-0.54 -0.56,-0.64 -0.56,-1.84 h 18.48 l 1.41,8.67 H 573 c -0.25,-1.5 -0.59,-3.69 -1.09,-4.44 -0.36,-0.39 -3.64,-0.39 -4.74,-0.39 z"
           inkscape:connector-curvature="0"
           style="fill:#000000;stroke-width:0" /></g>    </g>
    <g
       id="g9397"
       transform="matrix(0.55040654,0,0,0.55040654,1.38079,886.64061)">
      <g
         id="g9399"
         transform="matrix(0.43907659,0,0,-0.43907659,-76.838402,271.55816)"
         xml:space="preserve"
         stroke-miterlimit="10.433"
         font-style="normal"
         font-variant="normal"
         font-weight="normal"
         font-stretch="normal"
         font-size-adjust="none"
         letter-spacing="normal"
         word-spacing="normal"
         style="font-style:normal;font-variant:normal;font-weight:normal;font-stretch:normal;letter-spacing:normal;word-spacing:normal;text-anchor:start;fill:none;stroke:#000000;stroke-width:1.81683886;stroke-linecap:butt;stroke-linejoin:miter;stroke-miterlimit:10.43299961;stroke-opacity:1;stroke-dasharray:none;stroke-dashoffset:0"><path
           d="m 479.54,439.48 0,0.02 0,0.02 0.01,0.04 0.02,0.04 0.01,0.05 0.01,0.04 0.01,0.05 0.01,0.05 0.01,0.05 0.01,0.05 0.01,0.05 0.01,0.05 0.01,0.05 0.01,0.05 0,0.04 0,0.05 0.01,0.03 0,0.02 c 0,0.5 -0.35,0.55 -0.6,0.55 -0.5,0 -0.54,-0.11 -0.75,-1 l -8.26,-32.94 c -3.78,0.45 -5.68,2.3 -5.68,5.59 0,0.99 0,2.28 2.69,9.27 0.21,0.59 0.55,1.44 0.55,2.44 0,2.23 -1.59,4.07 -4.09,4.07 -4.74,0 -6.58,-7.21 -6.58,-7.67 0,-0.5 0.5,-0.5 0.61,-0.5 0.5,0 0.54,0.11 0.79,0.91 1.35,4.73 3.33,6.17 5.03,6.17 0.4,0 1.25,0 1.25,-1.59 0,-1.3 -0.5,-2.53 -1.15,-4.28 -2.39,-6.29 -2.39,-7.58 -2.39,-8.43 0,-4.73 3.89,-6.78 8.67,-7.07 -0.41,-1.79 -0.41,-1.89 -1.09,-4.54 -0.16,-0.54 -1.16,-4.57 -1.16,-4.73 0,-0.05 0,-0.5 0.61,-0.5 0.09,0 0.34,0 0.44,0.2 0.15,0.1 0.45,1.35 0.61,2.05 l 1.89,7.42 c 1.84,0 6.22,0 10.9,5.33 2.05,2.3 3.1,4.48 3.64,5.98 0.46,1.24 1.55,5.58 1.55,7.77 0,2.8 -1.34,3.48 -2.2,3.48 -1.24,0 -2.49,-1.29 -2.49,-2.39 0,-0.64 0.3,-0.93 0.75,-1.34 0.55,-0.55 1.8,-1.84 1.8,-4.23 0,-3.19 -2.59,-7.27 -4.34,-9.07 -4.38,-4.43 -7.57,-4.43 -9.36,-4.43 z"
           id="path9401"
           inkscape:connector-curvature="0"
           style="fill:#000000;stroke-width:0" /></g>    </g>
    <g
       id="g9541"
       transform="matrix(0.55040654,0,0,0.55040654,0.0083074,721.8769)">
      <g
         word-spacing="normal"
         letter-spacing="normal"
         font-size-adjust="none"
         font-stretch="normal"
         font-weight="normal"
         font-variant="normal"
         font-style="normal"
         stroke-miterlimit="10.433"
         xml:space="preserve"
         transform="matrix(0.43907659,0,0,-0.43907659,-76.838402,271.55816)"
         id="g9543"
         style="font-style:normal;font-variant:normal;font-weight:normal;font-stretch:normal;letter-spacing:normal;word-spacing:normal;text-anchor:start;fill:none;stroke:#000000;stroke-width:1.81683886;stroke-linecap:butt;stroke-linejoin:miter;stroke-miterlimit:10.43299961;stroke-opacity:1;stroke-dasharray:none;stroke-dashoffset:0"><path
           id="path9545"
           d="m 479.54,439.48 0,0.02 0,0.02 0.01,0.04 0.02,0.04 0.01,0.05 0.01,0.04 0.01,0.05 0.01,0.05 0.01,0.05 0.01,0.05 0.01,0.05 0.01,0.05 0.01,0.05 0.01,0.05 0,0.04 0,0.05 0.01,0.03 0,0.02 c 0,0.5 -0.35,0.55 -0.6,0.55 -0.5,0 -0.54,-0.11 -0.75,-1 l -8.26,-32.94 c -3.78,0.45 -5.68,2.3 -5.68,5.59 0,0.99 0,2.28 2.69,9.27 0.21,0.59 0.55,1.44 0.55,2.44 0,2.23 -1.59,4.07 -4.09,4.07 -4.74,0 -6.58,-7.21 -6.58,-7.67 0,-0.5 0.5,-0.5 0.61,-0.5 0.5,0 0.54,0.11 0.79,0.91 1.35,4.73 3.33,6.17 5.03,6.17 0.4,0 1.25,0 1.25,-1.59 0,-1.3 -0.5,-2.53 -1.15,-4.28 -2.39,-6.29 -2.39,-7.58 -2.39,-8.43 0,-4.73 3.89,-6.78 8.67,-7.07 -0.41,-1.79 -0.41,-1.89 -1.09,-4.54 -0.16,-0.54 -1.16,-4.57 -1.16,-4.73 0,-0.05 0,-0.5 0.61,-0.5 0.09,0 0.34,0 0.44,0.2 0.15,0.1 0.45,1.35 0.61,2.05 l 1.89,7.42 c 1.84,0 6.22,0 10.9,5.33 2.05,2.3 3.1,4.48 3.64,5.98 0.46,1.24 1.55,5.58 1.55,7.77 0,2.8 -1.34,3.48 -2.2,3.48 -1.24,0 -2.49,-1.29 -2.49,-2.39 0,-0.64 0.3,-0.93 0.75,-1.34 0.55,-0.55 1.8,-1.84 1.8,-4.23 0,-3.19 -2.59,-7.27 -4.34,-9.07 -4.38,-4.43 -7.57,-4.43 -9.36,-4.43 z"
           inkscape:connector-curvature="0"
           style="fill:#000000;stroke-width:0" /></g>    </g>
    <g
       id="g9691"
       transform="matrix(0.55040654,0,0,0.55040654,167.55546,888.83498)">
      <g
         id="g9693"
         transform="matrix(0.43907659,0,0,-0.43907659,-76.838402,271.55816)"
         xml:space="preserve"
         stroke-miterlimit="10.433"
         font-style="normal"
         font-variant="normal"
         font-weight="normal"
         font-stretch="normal"
         font-size-adjust="none"
         letter-spacing="normal"
         word-spacing="normal"
         style="font-style:normal;font-variant:normal;font-weight:normal;font-stretch:normal;letter-spacing:normal;word-spacing:normal;text-anchor:start;fill:none;stroke:#000000;stroke-width:1.81683886;stroke-linecap:butt;stroke-linejoin:miter;stroke-miterlimit:10.43299961;stroke-opacity:1;stroke-dasharray:none;stroke-dashoffset:0"><path
           d="m 463.44,441.78 0,0.16 0,0.17 -0.01,0.16 0,0.08 0,0.08 -0.01,0.08 -0.01,0.08 -0.01,0.07 -0.01,0.07 -0.02,0.07 -0.01,0.07 -0.02,0.07 -0.02,0.06 -0.03,0.06 -0.03,0.06 -0.03,0.06 -0.03,0.05 -0.04,0.05 -0.04,0.05 -0.05,0.04 -0.05,0.04 -0.03,0.01 -0.03,0.02 -0.03,0.02 -0.03,0.01 -0.03,0.01 -0.03,0.02 -0.03,0.01 -0.04,0.01 -0.04,0.01 -0.03,0.01 -0.04,0 -0.04,0.01 -0.04,0 -0.05,0.01 -0.04,0 -0.05,0 c -1,0 -1,-0.89 -1,-1.78 v -46.24 c 0,-0.9 0,-1.79 1,-1.79 1,0 1,0.89 1,1.79 z"
           id="path9695"
           inkscape:connector-curvature="0"
           style="fill:#000000;stroke-width:0" /><path
           d="m 493.33,439.48 0.01,0.02 0,0.02 0.01,0.04 0.01,0.04 0.01,0.05 0.02,0.04 0.01,0.05 0.01,0.05 0.01,0.05 0.01,0.05 0.01,0.05 0.01,0.05 0.01,0.05 0,0.05 0.01,0.04 0,0.05 0,0.03 0,0.02 c 0,0.5 -0.34,0.55 -0.59,0.55 -0.5,0 -0.55,-0.11 -0.75,-1 l -8.27,-32.94 c -3.78,0.45 -5.67,2.3 -5.67,5.59 0,0.99 0,2.28 2.69,9.27 0.2,0.59 0.55,1.44 0.55,2.44 0,2.23 -1.6,4.07 -4.1,4.07 -4.73,0 -6.58,-7.21 -6.58,-7.67 0,-0.5 0.5,-0.5 0.61,-0.5 0.5,0 0.55,0.11 0.8,0.91 1.34,4.73 3.33,6.17 5.03,6.17 0.39,0 1.25,0 1.25,-1.59 0,-1.3 -0.5,-2.53 -1.15,-4.28 -2.4,-6.29 -2.4,-7.58 -2.4,-8.43 0,-4.73 3.9,-6.78 8.68,-7.07 -0.41,-1.79 -0.41,-1.89 -1.1,-4.54 -0.15,-0.54 -1.15,-4.57 -1.15,-4.73 0,-0.05 0,-0.5 0.61,-0.5 0.09,0 0.34,0 0.43,0.2 0.16,0.1 0.46,1.35 0.61,2.05 l 1.89,7.42 c 1.85,0 6.22,0 10.91,5.33 2.05,2.3 3.09,4.48 3.64,5.98 0.45,1.24 1.55,5.58 1.55,7.77 0,2.8 -1.35,3.48 -2.21,3.48 -1.23,0 -2.48,-1.29 -2.48,-2.39 0,-0.64 0.3,-0.93 0.75,-1.34 0.55,-0.55 1.8,-1.84 1.8,-4.23 0,-3.19 -2.6,-7.27 -4.35,-9.07 -4.37,-4.43 -7.56,-4.43 -9.36,-4.43 z"
           id="path9697"
           inkscape:connector-curvature="0"
           style="fill:#000000;stroke-width:0" /><path
           d="m 511.44,441.78 0,0.16 0,0.17 -0.01,0.16 0,0.08 -0.01,0.08 0,0.08 -0.01,0.08 -0.01,0.07 -0.01,0.07 -0.02,0.07 -0.02,0.07 -0.02,0.07 -0.02,0.06 -0.02,0.06 -0.03,0.06 -0.03,0.06 -0.04,0.05 -0.03,0.05 -0.05,0.05 -0.04,0.04 -0.05,0.04 -0.03,0.01 -0.03,0.02 -0.03,0.02 -0.03,0.01 -0.03,0.01 -0.03,0.02 -0.04,0.01 -0.03,0.01 -0.04,0.01 -0.04,0.01 -0.04,0 -0.04,0.01 -0.04,0 -0.04,0.01 -0.05,0 -0.04,0 c -1,0 -1,-0.89 -1,-1.78 v -46.24 c 0,-0.9 0,-1.79 1,-1.79 1,0 1,0.89 1,1.79 z"
           id="path9699"
           inkscape:connector-curvature="0"
           style="fill:#000000;stroke-width:0" /><path
           d="m 534.91,433.06 h -1.18 c -0.1,-0.76 -0.46,-2.83 -0.91,-3.17 -0.27,-0.2 -2.95,-0.2 -3.44,-0.2 h -6.42 c 3.66,3.23 4.88,4.2 6.97,5.84 2.58,2.06 4.98,4.22 4.98,7.53 0,4.22 -3.68,6.8 -8.15,6.8 -4.31,0 -7.25,-3.03 -7.25,-6.24 0,-1.78 1.5,-1.95 1.86,-1.95 0.83,0 1.84,0.6 1.84,1.85 0,0.62 -0.25,1.84 -2.06,1.84 1.08,2.47 3.45,3.23 5.09,3.23 3.49,0 5.3,-2.7 5.3,-5.53 0,-3.03 -2.16,-5.44 -3.28,-6.68 l -8.39,-8.3 c -0.36,-0.31 -0.36,-0.39 -0.36,-1.36 h 14.36 z"
           id="path9701"
           inkscape:connector-curvature="0"
           style="fill:#000000;stroke-width:0" /></g>    </g>
    <g
       id="g9859"
       transform="matrix(0.55040654,0,0,0.55040654,168.11971,724.07127)">
      <g
         word-spacing="normal"
         letter-spacing="normal"
         font-size-adjust="none"
         font-stretch="normal"
         font-weight="normal"
         font-variant="normal"
         font-style="normal"
         stroke-miterlimit="10.433"
         xml:space="preserve"
         transform="matrix(0.43907659,0,0,-0.43907659,-76.838402,271.55816)"
         id="g9861"
         style="font-style:normal;font-variant:normal;font-weight:normal;font-stretch:normal;letter-spacing:normal;word-spacing:normal;text-anchor:start;fill:none;stroke:#000000;stroke-width:1.81683886;stroke-linecap:butt;stroke-linejoin:miter;stroke-miterlimit:10.43299961;stroke-opacity:1;stroke-dasharray:none;stroke-dashoffset:0"><path
           id="path9863"
           d="m 463.44,441.78 0,0.16 0,0.17 -0.01,0.16 0,0.08 0,0.08 -0.01,0.08 -0.01,0.08 -0.01,0.07 -0.01,0.07 -0.02,0.07 -0.01,0.07 -0.02,0.07 -0.02,0.06 -0.03,0.06 -0.03,0.06 -0.03,0.06 -0.03,0.05 -0.04,0.05 -0.04,0.05 -0.05,0.04 -0.05,0.04 -0.03,0.01 -0.03,0.02 -0.03,0.02 -0.03,0.01 -0.03,0.01 -0.03,0.02 -0.03,0.01 -0.04,0.01 -0.04,0.01 -0.03,0.01 -0.04,0 -0.04,0.01 -0.04,0 -0.05,0.01 -0.04,0 -0.05,0 c -1,0 -1,-0.89 -1,-1.78 v -46.24 c 0,-0.9 0,-1.79 1,-1.79 1,0 1,0.89 1,1.79 z"
           inkscape:connector-curvature="0"
           style="fill:#000000;stroke-width:0" /><path
           id="path9865"
           d="m 493.33,439.48 0.01,0.02 0,0.02 0.01,0.04 0.01,0.04 0.01,0.05 0.02,0.04 0.01,0.05 0.01,0.05 0.01,0.05 0.01,0.05 0.01,0.05 0.01,0.05 0.01,0.05 0,0.05 0.01,0.04 0,0.05 0,0.03 0,0.02 c 0,0.5 -0.34,0.55 -0.59,0.55 -0.5,0 -0.55,-0.11 -0.75,-1 l -8.27,-32.94 c -3.78,0.45 -5.67,2.3 -5.67,5.59 0,0.99 0,2.28 2.69,9.27 0.2,0.59 0.55,1.44 0.55,2.44 0,2.23 -1.6,4.07 -4.1,4.07 -4.73,0 -6.58,-7.21 -6.58,-7.67 0,-0.5 0.5,-0.5 0.61,-0.5 0.5,0 0.55,0.11 0.8,0.91 1.34,4.73 3.33,6.17 5.03,6.17 0.39,0 1.25,0 1.25,-1.59 0,-1.3 -0.5,-2.53 -1.15,-4.28 -2.4,-6.29 -2.4,-7.58 -2.4,-8.43 0,-4.73 3.9,-6.78 8.68,-7.07 -0.41,-1.79 -0.41,-1.89 -1.1,-4.54 -0.15,-0.54 -1.15,-4.57 -1.15,-4.73 0,-0.05 0,-0.5 0.61,-0.5 0.09,0 0.34,0 0.43,0.2 0.16,0.1 0.46,1.35 0.61,2.05 l 1.89,7.42 c 1.85,0 6.22,0 10.91,5.33 2.05,2.3 3.09,4.48 3.64,5.98 0.45,1.24 1.55,5.58 1.55,7.77 0,2.8 -1.35,3.48 -2.21,3.48 -1.23,0 -2.48,-1.29 -2.48,-2.39 0,-0.64 0.3,-0.93 0.75,-1.34 0.55,-0.55 1.8,-1.84 1.8,-4.23 0,-3.19 -2.6,-7.27 -4.35,-9.07 -4.37,-4.43 -7.56,-4.43 -9.36,-4.43 z"
           inkscape:connector-curvature="0"
           style="fill:#000000;stroke-width:0" /><path
           id="path9867"
           d="m 511.44,441.78 0,0.16 0,0.17 -0.01,0.16 0,0.08 -0.01,0.08 0,0.08 -0.01,0.08 -0.01,0.07 -0.01,0.07 -0.02,0.07 -0.02,0.07 -0.02,0.07 -0.02,0.06 -0.02,0.06 -0.03,0.06 -0.03,0.06 -0.04,0.05 -0.03,0.05 -0.05,0.05 -0.04,0.04 -0.05,0.04 -0.03,0.01 -0.03,0.02 -0.03,0.02 -0.03,0.01 -0.03,0.01 -0.03,0.02 -0.04,0.01 -0.03,0.01 -0.04,0.01 -0.04,0.01 -0.04,0 -0.04,0.01 -0.04,0 -0.04,0.01 -0.05,0 -0.04,0 c -1,0 -1,-0.89 -1,-1.78 v -46.24 c 0,-0.9 0,-1.79 1,-1.79 1,0 1,0.89 1,1.79 z"
           inkscape:connector-curvature="0"
           style="fill:#000000;stroke-width:0" /><path
           id="path9869"
           d="m 534.91,433.06 h -1.18 c -0.1,-0.76 -0.46,-2.83 -0.91,-3.17 -0.27,-0.2 -2.95,-0.2 -3.44,-0.2 h -6.42 c 3.66,3.23 4.88,4.2 6.97,5.84 2.58,2.06 4.98,4.22 4.98,7.53 0,4.22 -3.68,6.8 -8.15,6.8 -4.31,0 -7.25,-3.03 -7.25,-6.24 0,-1.78 1.5,-1.95 1.86,-1.95 0.83,0 1.84,0.6 1.84,1.85 0,0.62 -0.25,1.84 -2.06,1.84 1.08,2.47 3.45,3.23 5.09,3.23 3.49,0 5.3,-2.7 5.3,-5.53 0,-3.03 -2.16,-5.44 -3.28,-6.68 l -8.39,-8.3 c -0.36,-0.31 -0.36,-0.39 -0.36,-1.36 h 14.36 z"
           inkscape:connector-curvature="0"
           style="fill:#000000;stroke-width:0" /></g>    </g>
  </g>
</svg>
