<?xml version="1.0" encoding="UTF-8" standalone="no"?>
<!-- Created with Inkscape (http://www.inkscape.org/) -->

<svg
   xmlns:dc="http://purl.org/dc/elements/1.1/"
   xmlns:cc="http://creativecommons.org/ns#"
   xmlns:rdf="http://www.w3.org/1999/02/22-rdf-syntax-ns#"
   xmlns:svg="http://www.w3.org/2000/svg"
   xmlns="http://www.w3.org/2000/svg"
   xmlns:sodipodi="http://sodipodi.sourceforge.net/DTD/sodipodi-0.dtd"
   xmlns:inkscape="http://www.inkscape.org/namespaces/inkscape"
   id="svg2"
   version="1.1"
   inkscape:version="0.48.2 r9819"
   width="269.77817"
   height="173.5233"
   xml:space="preserve"
   sodipodi:docname="Transmission with V0.eps"><sodipodi:namedview
     pagecolor="#ffffff"
     bordercolor="#666666"
     borderopacity="1"
     objecttolerance="10"
     gridtolerance="10"
     guidetolerance="10"
     inkscape:pageopacity="0"
     inkscape:pageshadow="2"
     inkscape:window-width="1024"
     inkscape:window-height="741"
     id="namedview4"
     showgrid="false"
     inkscape:zoom="3.0321208"
     inkscape:cx="134.88908"
     inkscape:cy="86.76165"
     inkscape:window-x="-1"
     inkscape:window-y="148"
     inkscape:window-maximized="1"
     inkscape:current-layer="g10"
     fit-margin-top="0"
     fit-margin-left="0"
     fit-margin-right="0"
     fit-margin-bottom="0" /><metadata
     id="metadata8"><rdf:RDF><cc:Work
         rdf:about=""><dc:format>image/svg+xml</dc:format><dc:type
           rdf:resource="http://purl.org/dc/dcmitype/StillImage" /><dc:title></dc:title></cc:Work></rdf:RDF></metadata><defs
     id="defs6"><marker
       style="overflow:visible"
       id="Arrow1Send"
       refX="0"
       refY="0"
       orient="auto"
       inkscape:stockid="Arrow1Send"><path
         transform="matrix(-0.2,0,0,-0.2,-1.2,0)"
         style="fill-rule:evenodd;stroke:#000000;stroke-width:1pt;marker-start:none"
         d="M 0,0 5,-5 -12.5,0 5,5 0,0 z"
         id="path3827"
         inkscape:connector-curvature="0" /></marker><marker
       style="overflow:visible"
       id="Arrow1Sstart"
       refX="0"
       refY="0"
       orient="auto"
       inkscape:stockid="Arrow1Sstart"><path
         transform="matrix(0.2,0,0,0.2,1.2,0)"
         style="fill-rule:evenodd;stroke:#000000;stroke-width:1pt;marker-start:none"
         d="M 0,0 5,-5 -12.5,0 5,5 0,0 z"
         id="path3824"
         inkscape:connector-curvature="0" /></marker></defs><g
     transform="matrix(1.25,0,0,-1.25,-53.240356,276.06236)"
     inkscape:label="ink_ext_XXXXXX"
     inkscape:groupmode="layer"
     id="g10"><path
       inkscape:connector-curvature="0"
       id="path3037"
       d="m 73.549803,216.22805 0,-134.209984"
       style="fill:none;stroke:#000000;stroke-width:0.80000001px;stroke-linecap:butt;stroke-linejoin:miter;stroke-opacity:1;marker-start:url(#Arrow1Sstart)" /><path
       inkscape:connector-curvature="0"
       id="path3039"
       d="m 61.384571,94.398152 191.375429,0"
       style="fill:none;stroke:#000000;stroke-width:0.80000001px;stroke-linecap:butt;stroke-linejoin:miter;stroke-opacity:1;marker-end:url(#Arrow1Send)" /><path
       sodipodi:nodetypes="cc"
       inkscape:connector-curvature="0"
       id="path4447"
       d="m 74.160979,194.85222 c 0,0 148.045141,1.03167 147.529301,-100.072339"
       style="fill:none;stroke:#0000ff;stroke-width:0.80000001px;stroke-linecap:butt;stroke-linejoin:miter;stroke-opacity:1" /><g
       id="g4461"
       transform="matrix(0.34589835,0,0,-0.34589835,-6.1120583,252.92671)"><g
         word-spacing="normal"
         letter-spacing="normal"
         font-size-adjust="none"
         font-stretch="normal"
         font-weight="normal"
         font-variant="normal"
         font-style="normal"
         stroke-miterlimit="10.433"
         xml:space="preserve"
         transform="matrix(0.53149606,0,0,-0.53149606,-93.01181,393.30707)"
         id="content"
         style="font-style:normal;font-variant:normal;font-weight:normal;font-stretch:normal;letter-spacing:normal;word-spacing:normal;text-anchor:start;fill:none;stroke:#000000;stroke-width:2.89102268;stroke-linecap:butt;stroke-linejoin:miter;stroke-miterlimit:10.43299961;stroke-opacity:1;stroke-dasharray:none;stroke-dashoffset:0"><path
           id="path4464"
           d="m 476.8,436.43 0.02,0.07 0.01,0.06 0.03,0.12 0.03,0.12 0.03,0.11 0.03,0.11 0.03,0.09 0.03,0.1 0.03,0.09 0.03,0.08 0.03,0.08 0.03,0.07 0.03,0.07 0.03,0.06 0.03,0.06 0.03,0.06 0.03,0.05 0.03,0.05 0.03,0.04 0.04,0.04 0.03,0.04 0.04,0.04 0.03,0.03 0.04,0.03 0.04,0.03 0.04,0.02 0.05,0.03 0.04,0.02 0.05,0.02 0.04,0.01 0.05,0.02 0.06,0.01 0.05,0.02 c 0.45,0.11 2.1,0.11 3.14,0.11 5.03,0 7.27,-0.21 7.27,-4.1 0,-0.73 -0.19,-2.68 -0.39,-3.98 -0.05,-0.19 -0.16,-0.8 -0.16,-0.94 0,-0.3 0.16,-0.66 0.59,-0.66 0.57,0 0.66,0.41 0.75,1.16 l 1.35,8.66 c 0.06,0.2 0.11,0.7 0.11,0.86 0,0.54 -0.5,0.54 -1.35,0.54 H 461.6 c -1.21,0 -1.25,-0.06 -1.6,-1 l -2.98,-8.76 c -0.06,-0.11 -0.3,-0.8 -0.3,-0.91 0,-0.3 0.24,-0.55 0.6,-0.55 0.5,0 0.54,0.25 0.84,1.05 2.69,7.72 3.98,8.63 11.36,8.63 h 1.94 c 1.4,0 1.4,-0.21 1.4,-0.6 0,-0.31 -0.15,-0.9 -0.2,-1.04 l -6.67,-26.61 c -0.45,-1.85 -0.61,-2.39 -5.94,-2.39 -1.8,0 -2.09,0 -2.09,-0.96 0,-0.59 0.54,-0.59 0.84,-0.59 1.36,0 2.75,0.09 4.09,0.09 1.4,0 2.85,0.07 4.24,0.07 1.39,0 2.78,-0.07 4.14,-0.07 1.44,0 2.94,-0.09 4.33,-0.09 0.5,0 1.09,0 1.09,1 0,0.55 -0.39,0.55 -1.69,0.55 -1.25,0 -1.89,0 -3.18,0.09 -1.46,0.16 -1.85,0.3 -1.85,1.09 0,0.07 0,0.32 0.19,1.05 z"
           inkscape:connector-curvature="0"
           style="fill:#000000;stroke-width:0" /><path
           id="path4466"
           d="m 539.67,422.5 0.14,0 0.15,0 0.14,0 0.07,0.01 0.08,0 0.07,0.01 0.07,0.01 0.07,0.01 0.07,0.01 0.07,0.01 0.06,0.02 0.07,0.02 0.06,0.02 0.06,0.02 0.06,0.03 0.06,0.03 0.05,0.04 0.05,0.03 0.05,0.05 0.04,0.04 0.04,0.05 0.02,0.03 0.01,0.03 0.02,0.02 0.02,0.03 0.01,0.03 0.01,0.04 0.02,0.03 0.01,0.04 0.01,0.03 0,0.04 0.01,0.04 0.01,0.04 0,0.04 0.01,0.04 0,0.04 0,0.05 c 0,1 -0.95,1 -1.64,1 h -29.84 c -0.71,0 -1.65,0 -1.65,-1 0,-0.98 0.94,-0.98 1.69,-0.98 z"
           inkscape:connector-curvature="0"
           style="fill:#000000;stroke-width:0" /><path
           id="path4468"
           d="m 539.72,412.82 0.06,0 0.07,0 0.14,0.01 0.14,0 0.07,0 0.07,0.01 0.06,0.01 0.07,0 0.07,0.01 0.07,0.02 0.07,0.01 0.06,0.02 0.06,0.02 0.07,0.02 0.06,0.02 0.05,0.03 0.06,0.03 0.05,0.04 0.05,0.04 0.05,0.04 0.04,0.05 0.02,0.02 0.02,0.03 0.02,0.02 0.01,0.03 0.02,0.03 0.02,0.03 0.01,0.03 0.01,0.03 0.02,0.04 0.01,0.03 0.01,0.04 0,0.04 0.01,0.04 0.01,0.04 0,0.04 0.01,0.04 0,0.05 0,0.04 c 0,1 -0.95,1 -1.69,1 h -29.75 c -0.75,0 -1.69,0 -1.69,-1 0,-1 0.94,-1 1.65,-1 z"
           inkscape:connector-curvature="0"
           style="fill:#000000;stroke-width:0" /><path
           id="path4470"
           d="m 572.63,438.09 0,0.05 0,0.06 0,0.05 0,0.05 0,0.05 0,0.05 0,0.04 0,0.05 0,0.04 0,0.04 0,0.04 0,0.04 -0.01,0.04 0,0.03 0,0.04 0,0.03 -0.01,0.07 -0.01,0.06 -0.01,0.05 -0.02,0.05 -0.01,0.05 -0.02,0.04 -0.02,0.04 -0.03,0.03 -0.03,0.03 -0.03,0.03 -0.04,0.03 -0.04,0.02 -0.04,0.02 -0.02,0.01 -0.03,0.01 -0.02,0 -0.03,0.01 -0.03,0.01 -0.03,0 -0.03,0.01 -0.03,0 -0.03,0.01 -0.04,0 -0.03,0 -0.04,0.01 -0.04,0 -0.04,0 -0.04,0 -0.05,0 -0.04,0 -0.05,0.01 -0.04,0 -0.05,0 -0.06,0 -0.05,0 c -3.09,-3.19 -7.47,-3.19 -9.06,-3.19 v -1.55 c 1,0 3.94,0 6.52,1.3 v -25.81 c 0,-1.8 -0.15,-2.39 -4.63,-2.39 h -1.59 v -1.55 c 1.75,0.16 6.07,0.16 8.06,0.16 2,0 6.33,0 8.08,-0.16 v 1.55 h -1.6 c -4.48,0 -4.64,0.54 -4.64,2.39 z"
           inkscape:connector-curvature="0"
           style="fill:#000000;stroke-width:0" /></g></g><g
       transform="matrix(0.34589835,0,0,-0.34589835,-9.4871627,146.48661)"
       id="g4506"><g
         style="font-style:normal;font-variant:normal;font-weight:normal;font-stretch:normal;letter-spacing:normal;word-spacing:normal;text-anchor:start;fill:none;stroke:#000000;stroke-width:2.89102268;stroke-linecap:butt;stroke-linejoin:miter;stroke-miterlimit:10.43299961;stroke-opacity:1;stroke-dasharray:none;stroke-dashoffset:0"
         id="g4508"
         transform="matrix(0.53149606,0,0,-0.53149606,-93.01181,393.30707)"
         xml:space="preserve"
         stroke-miterlimit="10.433"
         font-style="normal"
         font-variant="normal"
         font-weight="normal"
         font-stretch="normal"
         font-size-adjust="none"
         letter-spacing="normal"
         word-spacing="normal"><path
           style="fill:#000000;stroke-width:0"
           inkscape:connector-curvature="0"
           d="m 486.8,434.54 0.23,0.36 0.23,0.33 0.22,0.31 0.22,0.29 0.22,0.28 0.22,0.25 0.22,0.24 0.22,0.22 0.21,0.2 0.21,0.19 0.21,0.17 0.2,0.16 0.21,0.14 0.2,0.13 0.21,0.12 0.19,0.11 0.2,0.09 0.2,0.09 0.19,0.07 0.2,0.07 0.19,0.06 0.19,0.05 0.18,0.04 0.19,0.03 0.18,0.03 0.19,0.03 0.36,0.04 0.35,0.02 0.35,0.02 c 0.6,0.05 0.64,0.89 0.64,0.96 0,0.39 -0.25,0.59 -0.64,0.59 -1.3,0 -2.75,-0.16 -4.09,-0.16 -1.64,0 -3.35,0.16 -4.94,0.16 -0.3,0 -0.94,0 -0.94,-0.95 0,-0.55 0.46,-0.6 0.8,-0.6 1.34,-0.09 2.3,-0.59 2.3,-1.64 0,-0.75 -0.75,-1.84 -0.75,-1.89 l -15.3,-24.31 -3.39,26.34 c 0,0.85 1.14,1.5 3.44,1.5 0.7,0 1.25,0 1.25,1 0,0.44 -0.41,0.55 -0.71,0.55 -1.98,0 -4.14,-0.16 -6.17,-0.16 -0.9,0 -1.84,0.05 -2.75,0.05 -0.89,0 -1.84,0.11 -2.69,0.11 -0.34,0 -0.93,0 -0.93,-0.95 0,-0.6 0.43,-0.6 1.23,-0.6 2.8,0 2.84,-0.45 3,-1.68 l 3.92,-30.75 c 0.16,-1 0.36,-1.14 1,-1.14 0.8,0 1,0.25 1.41,0.89 z"
           id="path4510" /><path
           style="fill:#000000;stroke-width:0"
           inkscape:connector-curvature="0"
           d="m 502.54,409.87 0,0.71 -0.02,0.68 -0.03,0.66 -0.04,0.64 -0.06,0.62 -0.08,0.6 -0.09,0.57 -0.1,0.56 -0.13,0.55 -0.15,0.53 -0.17,0.51 -0.19,0.5 -0.21,0.49 -0.24,0.48 -0.26,0.47 -0.14,0.23 -0.15,0.23 c -1.08,1.61 -3.23,3 -6.03,3 v -0.98 c 1.89,0 3.7,-1.14 4.33,-3.17 0.56,-1.88 0.59,-4.39 0.59,-7.43 0,-2.57 0,-5.15 -0.45,-7.34 -0.71,-3.17 -3.06,-3.94 -4.47,-3.94 h 0 c -1.59,0 -3.72,0.94 -4.42,3.8 -0.49,2.05 -0.49,4.91 -0.49,7.48 0,2.55 0,5.21 0.52,7.11 0.73,2.75 2.97,3.49 4.39,3.49 v 0.98 c -8.08,0 -8.08,-9.51 -8.08,-12.03 0,-2.5 0,-11.81 8.08,-11.81 8.09,0 8.09,9.31 8.09,11.81 z"
           id="path4512" /><path
           style="fill:#000000;stroke-width:0"
           inkscape:connector-curvature="0"
           d="m 555.03,422.5 0.15,0 0.14,0 0.14,0 0.08,0.01 0.07,0 0.07,0.01 0.07,0.01 0.07,0.01 0.07,0.01 0.07,0.01 0.07,0.02 0.06,0.02 0.06,0.02 0.07,0.02 0.05,0.03 0.06,0.03 0.05,0.04 0.05,0.03 0.05,0.05 0.04,0.04 0.04,0.05 0.02,0.03 0.02,0.03 0.01,0.02 0.02,0.03 0.01,0.03 0.02,0.04 0.01,0.03 0.01,0.04 0.01,0.03 0.01,0.04 0.01,0.04 0,0.04 0.01,0.04 0,0.04 0,0.04 0,0.05 c 0,1 -0.95,1 -1.64,1 h -29.84 c -0.71,0 -1.64,0 -1.64,-1 0,-0.98 0.93,-0.98 1.68,-0.98 z"
           id="path4514" /><path
           style="fill:#000000;stroke-width:0"
           inkscape:connector-curvature="0"
           d="m 555.08,412.82 0.07,0 0.06,0 0.14,0.01 0.14,0 0.07,0 0.07,0.01 0.07,0.01 0.07,0 0.07,0.01 0.06,0.02 0.07,0.01 0.07,0.02 0.06,0.02 0.06,0.02 0.06,0.02 0.06,0.03 0.05,0.03 0.06,0.04 0.04,0.04 0.05,0.04 0.04,0.05 0.02,0.02 0.02,0.03 0.02,0.02 0.02,0.03 0.02,0.03 0.01,0.03 0.01,0.03 0.02,0.03 0.01,0.04 0.01,0.03 0.01,0.04 0.01,0.04 0.01,0.04 0,0.04 0.01,0.04 0,0.04 0,0.05 0,0.04 c 0,1 -0.95,1 -1.69,1 h -29.75 c -0.75,0 -1.68,0 -1.68,-1 0,-1 0.93,-1 1.64,-1 z"
           id="path4516" /><path
           style="fill:#000000;stroke-width:0"
           inkscape:connector-curvature="0"
           d="m 596.28,422.14 0,0.74 -0.01,0.75 -0.02,0.75 -0.04,0.74 -0.04,0.75 -0.06,0.74 -0.08,0.74 -0.09,0.73 -0.12,0.73 -0.14,0.73 -0.16,0.72 -0.19,0.72 -0.21,0.72 -0.25,0.7 -0.28,0.7 -0.15,0.35 -0.16,0.34 c -2.28,4.8 -6.37,5.6 -8.47,5.6 -2.98,0 -6.62,-1.3 -8.67,-5.94 -1.59,-3.44 -1.84,-7.33 -1.84,-11.31 0,-3.74 0.2,-8.22 2.25,-12 2.14,-4.03 5.78,-5.03 8.22,-5.03 v 1.09 c -1.94,0 -4.89,1.25 -5.79,6.03 -0.54,2.98 -0.54,7.56 -0.54,10.52 0,3.18 0,6.46 0.4,9.15 0.94,5.94 4.68,6.38 5.93,6.38 1.64,0 4.93,-0.89 5.87,-5.83 0.5,-2.78 0.5,-6.58 0.5,-9.7 0,-3.75 0,-7.13 -0.55,-10.32 -0.75,-4.73 -3.59,-6.23 -5.82,-6.23 h 0 v -1.09 c 2.68,0 6.46,1.04 8.67,5.78 1.59,3.43 1.84,7.31 1.84,11.25 z"
           id="path4518" /></g></g><g
       id="g4568"
       transform="matrix(0.34589835,0,0,-0.34589835,153.59586,146.45988)"><g
         word-spacing="normal"
         letter-spacing="normal"
         font-size-adjust="none"
         font-stretch="normal"
         font-weight="normal"
         font-variant="normal"
         font-style="normal"
         stroke-miterlimit="10.433"
         xml:space="preserve"
         transform="matrix(0.53149606,0,0,-0.53149606,-93.01181,393.30707)"
         id="g4570"
         style="font-style:normal;font-variant:normal;font-weight:normal;font-stretch:normal;letter-spacing:normal;word-spacing:normal;text-anchor:start;fill:none;stroke:#000000;stroke-width:2.89102268;stroke-linecap:butt;stroke-linejoin:miter;stroke-miterlimit:10.43299961;stroke-opacity:1;stroke-dasharray:none;stroke-dashoffset:0"><path
           id="path4572"
           d="m 486.8,434.54 0.23,0.36 0.23,0.33 0.22,0.31 0.22,0.29 0.22,0.28 0.22,0.25 0.22,0.24 0.22,0.22 0.21,0.2 0.21,0.19 0.21,0.17 0.2,0.16 0.21,0.14 0.2,0.13 0.21,0.12 0.19,0.11 0.2,0.09 0.2,0.09 0.19,0.07 0.2,0.07 0.19,0.06 0.19,0.05 0.18,0.04 0.19,0.03 0.18,0.03 0.19,0.03 0.36,0.04 0.35,0.02 0.35,0.02 c 0.6,0.05 0.64,0.89 0.64,0.96 0,0.39 -0.25,0.59 -0.64,0.59 -1.3,0 -2.75,-0.16 -4.09,-0.16 -1.64,0 -3.35,0.16 -4.94,0.16 -0.3,0 -0.94,0 -0.94,-0.95 0,-0.55 0.46,-0.6 0.8,-0.6 1.34,-0.09 2.3,-0.59 2.3,-1.64 0,-0.75 -0.75,-1.84 -0.75,-1.89 l -15.3,-24.31 -3.39,26.34 c 0,0.85 1.14,1.5 3.44,1.5 0.7,0 1.25,0 1.25,1 0,0.44 -0.41,0.55 -0.71,0.55 -1.98,0 -4.14,-0.16 -6.17,-0.16 -0.9,0 -1.84,0.05 -2.75,0.05 -0.89,0 -1.84,0.11 -2.69,0.11 -0.34,0 -0.93,0 -0.93,-0.95 0,-0.6 0.43,-0.6 1.23,-0.6 2.8,0 2.84,-0.45 3,-1.68 l 3.92,-30.75 c 0.16,-1 0.36,-1.14 1,-1.14 0.8,0 1,0.25 1.41,0.89 z"
           inkscape:connector-curvature="0"
           style="fill:#000000;stroke-width:0" /><path
           id="path4574"
           d="m 502.54,409.87 0,0.71 -0.02,0.68 -0.03,0.66 -0.04,0.64 -0.06,0.62 -0.08,0.6 -0.09,0.57 -0.1,0.56 -0.13,0.55 -0.15,0.53 -0.17,0.51 -0.19,0.5 -0.21,0.49 -0.24,0.48 -0.26,0.47 -0.14,0.23 -0.15,0.23 c -1.08,1.61 -3.23,3 -6.03,3 v -0.98 c 1.89,0 3.7,-1.14 4.33,-3.17 0.56,-1.88 0.59,-4.39 0.59,-7.43 0,-2.57 0,-5.15 -0.45,-7.34 -0.71,-3.17 -3.06,-3.94 -4.47,-3.94 h 0 c -1.59,0 -3.72,0.94 -4.42,3.8 -0.49,2.05 -0.49,4.91 -0.49,7.48 0,2.55 0,5.21 0.52,7.11 0.73,2.75 2.97,3.49 4.39,3.49 v 0.98 c -8.08,0 -8.08,-9.51 -8.08,-12.03 0,-2.5 0,-11.81 8.08,-11.81 8.09,0 8.09,9.31 8.09,11.81 z"
           inkscape:connector-curvature="0"
           style="fill:#000000;stroke-width:0" /><path
           id="path4576"
           d="m 555.03,422.5 0.15,0 0.14,0 0.14,0 0.08,0.01 0.07,0 0.07,0.01 0.07,0.01 0.07,0.01 0.07,0.01 0.07,0.01 0.07,0.02 0.06,0.02 0.06,0.02 0.07,0.02 0.05,0.03 0.06,0.03 0.05,0.04 0.05,0.03 0.05,0.05 0.04,0.04 0.04,0.05 0.02,0.03 0.02,0.03 0.01,0.02 0.02,0.03 0.01,0.03 0.02,0.04 0.01,0.03 0.01,0.04 0.01,0.03 0.01,0.04 0.01,0.04 0,0.04 0.01,0.04 0,0.04 0,0.04 0,0.05 c 0,1 -0.95,1 -1.64,1 h -29.84 c -0.71,0 -1.64,0 -1.64,-1 0,-0.98 0.93,-0.98 1.68,-0.98 z"
           inkscape:connector-curvature="0"
           style="fill:#000000;stroke-width:0" /><path
           id="path4578"
           d="m 555.08,412.82 0.07,0 0.06,0 0.14,0.01 0.14,0 0.07,0 0.07,0.01 0.07,0.01 0.07,0 0.07,0.01 0.06,0.02 0.07,0.01 0.07,0.02 0.06,0.02 0.06,0.02 0.06,0.02 0.06,0.03 0.05,0.03 0.06,0.04 0.04,0.04 0.05,0.04 0.04,0.05 0.02,0.02 0.02,0.03 0.02,0.02 0.02,0.03 0.02,0.03 0.01,0.03 0.01,0.03 0.02,0.03 0.01,0.04 0.01,0.03 0.01,0.04 0.01,0.04 0.01,0.04 0,0.04 0.01,0.04 0,0.04 0,0.05 0,0.04 c 0,1 -0.95,1 -1.69,1 h -29.75 c -0.75,0 -1.68,0 -1.68,-1 0,-1 0.93,-1 1.64,-1 z"
           inkscape:connector-curvature="0"
           style="fill:#000000;stroke-width:0" /><path
           id="path4580"
           d="m 608.64,417.81 0.01,0.02 0.01,0.03 0.02,0.05 0.02,0.05 0.02,0.05 0.02,0.05 0.02,0.05 0.01,0.05 0.02,0.05 0.01,0.03 0.01,0.02 0.01,0.02 0.01,0.03 0,0.02 0.01,0.02 0.01,0.02 0,0.02 0.01,0.02 0,0.02 0.01,0.01 0,0.02 0,0.02 0,0.01 0,0.01 0.01,0.01 c 0,0.05 0,0.55 -0.6,0.55 -0.45,0 -0.55,-0.3 -0.64,-0.61 -3.25,-7.38 -5.08,-10.7 -13.61,-10.7 h -7.26 c -0.71,0 -0.8,0 -1.1,0.04 -0.5,0.05 -0.65,0.1 -0.65,0.5 0,0.14 0,0.25 0.25,1.14 l 3.39,13.61 h 4.93 c 4.24,0 4.24,-1.04 4.24,-2.29 0,-0.35 0,-0.96 -0.36,-2.44 -0.09,-0.25 -0.14,-0.41 -0.14,-0.55 0,-0.25 0.19,-0.55 0.64,-0.55 0.41,0 0.55,0.25 0.75,0.99 l 2.84,11.67 c 0,0.3 -0.25,0.55 -0.61,0.55 -0.43,0 -0.54,-0.3 -0.68,-0.91 -1.05,-3.78 -1.96,-4.92 -6.54,-4.92 h -4.68 l 3,12 c 0.43,1.75 0.5,1.94 2.68,1.94 h 7.02 c 6.08,0 7.58,-1.44 7.58,-5.53 0,-1.19 0,-1.29 -0.21,-2.64 0,-0.3 -0.04,-0.65 -0.04,-0.9 0,-0.25 0.15,-0.59 0.59,-0.59 0.56,0 0.61,0.3 0.71,1.25 l 1,8.61 c 0.14,1.34 -0.1,1.34 -1.35,1.34 h -25.15 c -1,0 -1.5,0 -1.5,-1 0,-0.54 0.45,-0.54 1.39,-0.54 1.84,0 3.23,0 3.23,-0.89 0,-0.21 0,-0.3 -0.25,-1.21 l -6.56,-26.34 c -0.5,-1.95 -0.61,-2.34 -4.55,-2.34 -0.84,0 -1.39,0 -1.39,-0.96 0,-0.59 0.45,-0.59 1.39,-0.59 h 25.86 c 1.16,0 1.2,0.05 1.55,0.84 z"
           inkscape:connector-curvature="0"
           style="fill:#000000;stroke-width:0" /></g></g><g
       transform="matrix(0.34589835,0,0,-0.34589835,198.18881,147.65469)"
       id="g4644"><g
         style="font-style:normal;font-variant:normal;font-weight:normal;font-stretch:normal;letter-spacing:normal;word-spacing:normal;text-anchor:start;fill:none;stroke:#000000;stroke-width:2.89102268;stroke-linecap:butt;stroke-linejoin:miter;stroke-miterlimit:10.43299961;stroke-opacity:1;stroke-dasharray:none;stroke-dashoffset:0"
         id="g4646"
         transform="matrix(0.53149606,0,0,-0.53149606,-93.01181,393.30707)"
         xml:space="preserve"
         stroke-miterlimit="10.433"
         font-style="normal"
         font-variant="normal"
         font-weight="normal"
         font-stretch="normal"
         font-size-adjust="none"
         letter-spacing="normal"
         word-spacing="normal"><path
           style="fill:#000000;stroke-width:0"
           inkscape:connector-curvature="0"
           d="m 486.8,434.54 0.23,0.36 0.23,0.33 0.22,0.31 0.22,0.29 0.22,0.28 0.22,0.25 0.22,0.24 0.22,0.22 0.21,0.2 0.21,0.19 0.21,0.17 0.2,0.16 0.21,0.14 0.2,0.13 0.21,0.12 0.19,0.11 0.2,0.09 0.2,0.09 0.19,0.07 0.2,0.07 0.19,0.06 0.19,0.05 0.18,0.04 0.19,0.03 0.18,0.03 0.19,0.03 0.36,0.04 0.35,0.02 0.35,0.02 c 0.6,0.05 0.64,0.89 0.64,0.96 0,0.39 -0.25,0.59 -0.64,0.59 -1.3,0 -2.75,-0.16 -4.09,-0.16 -1.64,0 -3.35,0.16 -4.94,0.16 -0.3,0 -0.94,0 -0.94,-0.95 0,-0.55 0.46,-0.6 0.8,-0.6 1.34,-0.09 2.3,-0.59 2.3,-1.64 0,-0.75 -0.75,-1.84 -0.75,-1.89 l -15.3,-24.31 -3.39,26.34 c 0,0.85 1.14,1.5 3.44,1.5 0.7,0 1.25,0 1.25,1 0,0.44 -0.41,0.55 -0.71,0.55 -1.98,0 -4.14,-0.16 -6.17,-0.16 -0.9,0 -1.84,0.05 -2.75,0.05 -0.89,0 -1.84,0.11 -2.69,0.11 -0.34,0 -0.93,0 -0.93,-0.95 0,-0.6 0.43,-0.6 1.23,-0.6 2.8,0 2.84,-0.45 3,-1.68 l 3.92,-30.75 c 0.16,-1 0.36,-1.14 1,-1.14 0.8,0 1,0.25 1.41,0.89 z"
           id="path4648" /><path
           style="fill:#000000;stroke-width:0"
           inkscape:connector-curvature="0"
           d="m 502.54,409.87 0,0.71 -0.02,0.68 -0.03,0.66 -0.04,0.64 -0.06,0.62 -0.08,0.6 -0.09,0.57 -0.1,0.56 -0.13,0.55 -0.15,0.53 -0.17,0.51 -0.19,0.5 -0.21,0.49 -0.24,0.48 -0.26,0.47 -0.14,0.23 -0.15,0.23 c -1.08,1.61 -3.23,3 -6.03,3 v -0.98 c 1.89,0 3.7,-1.14 4.33,-3.17 0.56,-1.88 0.59,-4.39 0.59,-7.43 0,-2.57 0,-5.15 -0.45,-7.34 -0.71,-3.17 -3.06,-3.94 -4.47,-3.94 h 0 c -1.59,0 -3.72,0.94 -4.42,3.8 -0.49,2.05 -0.49,4.91 -0.49,7.48 0,2.55 0,5.21 0.52,7.11 0.73,2.75 2.97,3.49 4.39,3.49 v 0.98 c -8.08,0 -8.08,-9.51 -8.08,-12.03 0,-2.5 0,-11.81 8.08,-11.81 8.09,0 8.09,9.31 8.09,11.81 z"
           id="path4650" /></g></g><g
       id="g4722"
       transform="matrix(0.34589835,0,0,-0.34589835,12.652024,276.00865)"><g
         word-spacing="normal"
         letter-spacing="normal"
         font-size-adjust="none"
         font-stretch="normal"
         font-weight="normal"
         font-variant="normal"
         font-style="normal"
         stroke-miterlimit="10.433"
         xml:space="preserve"
         transform="matrix(0.53149606,0,0,-0.53149606,-93.01181,393.30707)"
         id="g4724"
         style="font-style:normal;font-variant:normal;font-weight:normal;font-stretch:normal;letter-spacing:normal;word-spacing:normal;text-anchor:start;fill:none;stroke:#000000;stroke-width:2.89102268;stroke-linecap:butt;stroke-linejoin:miter;stroke-miterlimit:10.43299961;stroke-opacity:1;stroke-dasharray:none;stroke-dashoffset:0"><path
           id="path4726"
           d="m 476.8,436.43 0.02,0.07 0.01,0.06 0.03,0.12 0.03,0.12 0.03,0.11 0.03,0.11 0.03,0.09 0.03,0.1 0.03,0.09 0.03,0.08 0.03,0.08 0.03,0.07 0.03,0.07 0.03,0.06 0.03,0.06 0.03,0.06 0.03,0.05 0.03,0.05 0.03,0.04 0.04,0.04 0.03,0.04 0.04,0.04 0.03,0.03 0.04,0.03 0.04,0.03 0.04,0.02 0.05,0.03 0.04,0.02 0.05,0.02 0.04,0.01 0.05,0.02 0.06,0.01 0.05,0.02 c 0.45,0.11 2.1,0.11 3.14,0.11 5.03,0 7.27,-0.21 7.27,-4.1 0,-0.73 -0.19,-2.68 -0.39,-3.98 -0.05,-0.19 -0.16,-0.8 -0.16,-0.94 0,-0.3 0.16,-0.66 0.59,-0.66 0.57,0 0.66,0.41 0.75,1.16 l 1.35,8.66 c 0.06,0.2 0.11,0.7 0.11,0.86 0,0.54 -0.5,0.54 -1.35,0.54 H 461.6 c -1.21,0 -1.25,-0.06 -1.6,-1 l -2.98,-8.76 c -0.06,-0.11 -0.3,-0.8 -0.3,-0.91 0,-0.3 0.24,-0.55 0.6,-0.55 0.5,0 0.54,0.25 0.84,1.05 2.69,7.72 3.98,8.63 11.36,8.63 h 1.94 c 1.4,0 1.4,-0.21 1.4,-0.6 0,-0.31 -0.15,-0.9 -0.2,-1.04 l -6.67,-26.61 c -0.45,-1.85 -0.61,-2.39 -5.94,-2.39 -1.8,0 -2.09,0 -2.09,-0.96 0,-0.59 0.54,-0.59 0.84,-0.59 1.36,0 2.75,0.09 4.09,0.09 1.4,0 2.85,0.07 4.24,0.07 1.39,0 2.78,-0.07 4.14,-0.07 1.44,0 2.94,-0.09 4.33,-0.09 0.5,0 1.09,0 1.09,1 0,0.55 -0.39,0.55 -1.69,0.55 -1.25,0 -1.89,0 -3.18,0.09 -1.46,0.16 -1.85,0.3 -1.85,1.09 0,0.07 0,0.32 0.19,1.05 z"
           inkscape:connector-curvature="0"
           style="fill:#000000;stroke-width:0" /></g></g></g></svg>