<?xml version="1.0" encoding="UTF-8" standalone="no"?>
<!-- Created with Inkscape (http://www.inkscape.org/) -->

<svg
   xmlns:dc="http://purl.org/dc/elements/1.1/"
   xmlns:cc="http://creativecommons.org/ns#"
   xmlns:rdf="http://www.w3.org/1999/02/22-rdf-syntax-ns#"
   xmlns:svg="http://www.w3.org/2000/svg"
   xmlns="http://www.w3.org/2000/svg"
   xmlns:sodipodi="http://sodipodi.sourceforge.net/DTD/sodipodi-0.dtd"
   xmlns:inkscape="http://www.inkscape.org/namespaces/inkscape"
   sodipodi:docname="bowling ball motion.svg"
   xml:space="preserve"
   height="92.09919"
   width="317.15851"
   inkscape:version="0.48.2 r9819"
   version="1.1"
   id="svg2"><sodipodi:namedview
     pagecolor="#ffffff"
     bordercolor="#666666"
     borderopacity="1"
     objecttolerance="10"
     gridtolerance="10"
     guidetolerance="10"
     inkscape:pageopacity="0"
     inkscape:pageshadow="2"
     inkscape:window-width="1366"
     inkscape:window-height="718"
     id="namedview4"
     showgrid="false"
     inkscape:zoom="2.6832009"
     inkscape:cx="145.90782"
     inkscape:cy="46.004773"
     inkscape:window-x="0"
     inkscape:window-y="25"
     inkscape:window-maximized="1"
     inkscape:current-layer="g10"
     fit-margin-top="0"
     fit-margin-left="0"
     fit-margin-right="0"
     fit-margin-bottom="0"
     inkscape:snap-bbox="true"
     inkscape:bbox-paths="true"
     inkscape:bbox-nodes="true"
     inkscape:snap-bbox-edge-midpoints="true"
     inkscape:snap-bbox-midpoints="true"
     inkscape:object-paths="true"
     inkscape:object-nodes="true"
     inkscape:snap-intersection-paths="true"
     inkscape:snap-smooth-nodes="true"
     inkscape:snap-midpoints="true"
     inkscape:snap-object-midpoints="true"
     inkscape:snap-center="true"
     inkscape:snap-global="false" /><metadata
     id="metadata8"><rdf:RDF><cc:Work
         rdf:about=""><dc:format>image/svg+xml</dc:format><dc:type
           rdf:resource="http://purl.org/dc/dcmitype/StillImage" /><dc:title /></cc:Work></rdf:RDF></metadata><defs
     id="defs6"><marker
       inkscape:stockid="Arrow1Mstart"
       orient="auto"
       refY="0"
       refX="0"
       id="Arrow1Mstart"
       style="overflow:visible"><path
         id="path3901"
         d="M 0,0 5,-5 -12.5,0 5,5 0,0 z"
         style="fill-rule:evenodd;stroke:#000000;stroke-width:1pt;marker-start:none"
         transform="matrix(0.4,0,0,0.4,4,0)"
         inkscape:connector-curvature="0" /></marker><marker
       inkscape:stockid="EmptyTriangleOutM"
       orient="auto"
       refY="0"
       refX="0"
       id="EmptyTriangleOutM"
       style="overflow:visible"><path
         id="path4059"
         d="m 5.77,0 -8.65,5 0,-10 8.65,5 z"
         style="fill:#ffffff;fill-rule:evenodd;stroke:#000000;stroke-width:1pt;marker-start:none"
         transform="matrix(0.4,0,0,0.4,-1.8,0)"
         inkscape:connector-curvature="0" /></marker><marker
       inkscape:stockid="Arrow1Mend"
       orient="auto"
       refY="0"
       refX="0"
       id="Arrow1Mend"
       style="overflow:visible"><path
         id="path3904"
         d="M 0,0 5,-5 -12.5,0 5,5 0,0 z"
         style="fill-rule:evenodd;stroke:#000000;stroke-width:1pt;marker-start:none"
         transform="matrix(-0.4,0,0,-0.4,-4,0)"
         inkscape:connector-curvature="0" /></marker><marker
       inkscape:stockid="Arrow2Mend"
       orient="auto"
       refY="0"
       refX="0"
       id="Arrow2Mend"
       style="overflow:visible"><path
         id="path3922"
         style="font-size:12px;fill-rule:evenodd;stroke-width:0.625;stroke-linejoin:round"
         d="M 8.7185878,4.0337352 -2.2072895,0.01601326 8.7185884,-4.0017078 c -1.7454984,2.3720609 -1.7354408,5.6174519 -6e-7,8.035443 z"
         transform="scale(-0.6,-0.6)"
         inkscape:connector-curvature="0" /></marker><marker
       inkscape:stockid="Tail"
       orient="auto"
       refY="0"
       refX="0"
       id="Tail"
       style="overflow:visible"><g
         id="g3931"
         transform="scale(-1.2,-1.2)"><path
           id="path3933"
           d="M -3.8048674,-3.9585227 0.54352094,0"
           style="fill:none;stroke:#000000;stroke-width:0.80000001;stroke-linecap:round;marker-start:none;marker-end:none"
           inkscape:connector-curvature="0" /><path
           id="path3935"
           d="M -1.2866832,-3.9585227 3.0617053,0"
           style="fill:none;stroke:#000000;stroke-width:0.80000001;stroke-linecap:round;marker-start:none;marker-end:none"
           inkscape:connector-curvature="0" /><path
           id="path3937"
           d="M 1.3053582,-3.9585227 5.6537466,0"
           style="fill:none;stroke:#000000;stroke-width:0.80000001;stroke-linecap:round;marker-start:none;marker-end:none"
           inkscape:connector-curvature="0" /><path
           id="path3939"
           d="M -3.8048674,4.1775838 0.54352094,0.21974226"
           style="fill:none;stroke:#000000;stroke-width:0.80000001;stroke-linecap:round;marker-start:none;marker-end:none"
           inkscape:connector-curvature="0" /><path
           id="path3941"
           d="M -1.2866832,4.1775838 3.0617053,0.21974226"
           style="fill:none;stroke:#000000;stroke-width:0.80000001;stroke-linecap:round;marker-start:none;marker-end:none"
           inkscape:connector-curvature="0" /><path
           id="path3943"
           d="M 1.3053582,4.1775838 5.6537466,0.21974226"
           style="fill:none;stroke:#000000;stroke-width:0.80000001;stroke-linecap:round;marker-start:none;marker-end:none"
           inkscape:connector-curvature="0" /></g></marker><marker
       inkscape:stockid="StopM"
       orient="auto"
       refY="0"
       refX="0"
       id="StopM"
       style="overflow:visible"><path
         id="path4068"
         d="M 0,5.65 0,-5.65"
         style="fill:none;stroke:#000000;stroke-width:1pt"
         transform="scale(0.4,0.4)"
         inkscape:connector-curvature="0" /></marker><marker
       inkscape:stockid="Arrow1Send"
       orient="auto"
       refY="0"
       refX="0"
       id="Arrow1Send"
       style="overflow:visible"><path
         inkscape:connector-curvature="0"
         id="path3827"
         d="M 0,0 5,-5 -12.5,0 5,5 0,0 z"
         style="fill-rule:evenodd;stroke:#000000;stroke-width:1pt;marker-start:none"
         transform="matrix(-0.2,0,0,-0.2,-1.2,0)" /></marker><marker
       inkscape:stockid="Arrow1Sstart"
       orient="auto"
       refY="0"
       refX="0"
       id="Arrow1Sstart"
       style="overflow:visible"><path
         inkscape:connector-curvature="0"
         id="path3824"
         d="M 0,0 5,-5 -12.5,0 5,5 0,0 z"
         style="fill-rule:evenodd;stroke:#000000;stroke-width:1pt;marker-start:none"
         transform="matrix(0.2,0,0,0.2,1.2,0)" /></marker><marker
       inkscape:stockid="Arrow1Send3"
       orient="auto"
       refY="0"
       refX="0"
       id="Arrow1Send3"
       style="overflow:visible"><path
         inkscape:connector-curvature="0"
         id="path4385"
         d="M 0,0 5,-5 -12.5,0 5,5 0,0 z"
         style="fill:#ff0000;fill-rule:evenodd;stroke:#ff0000;stroke-width:1pt;marker-start:none"
         transform="matrix(-0.2,0,0,-0.2,-1.2,0)" /></marker><marker
       inkscape:stockid="Arrow1SendP"
       orient="auto"
       refY="0"
       refX="0"
       id="Arrow1SendP"
       style="overflow:visible"><path
         inkscape:connector-curvature="0"
         id="path4388"
         d="M 0,0 5,-5 -12.5,0 5,5 0,0 z"
         style="fill:#ff0000;fill-rule:evenodd;stroke:#ff0000;stroke-width:1pt;marker-start:none"
         transform="matrix(-0.2,0,0,-0.2,-1.2,0)" /></marker><marker
       inkscape:stockid="Arrow1SendG"
       orient="auto"
       refY="0"
       refX="0"
       id="Arrow1SendG"
       style="overflow:visible"><path
         inkscape:connector-curvature="0"
         id="path4391"
         d="M 0,0 5,-5 -12.5,0 5,5 0,0 z"
         style="fill:#ff0000;fill-rule:evenodd;stroke:#ff0000;stroke-width:1pt;marker-start:none"
         transform="matrix(-0.2,0,0,-0.2,-1.2,0)" /></marker><marker
       inkscape:stockid="Arrow1Sendm"
       orient="auto"
       refY="0"
       refX="0"
       id="Arrow1Sendm"
       style="overflow:visible"><path
         inkscape:connector-curvature="0"
         id="path4394"
         d="M 0,0 5,-5 -12.5,0 5,5 0,0 z"
         style="fill:#ff0000;fill-rule:evenodd;stroke:#ff0000;stroke-width:1pt;marker-start:none"
         transform="matrix(-0.2,0,0,-0.2,-1.2,0)" /></marker><marker
       inkscape:stockid="Arrow1Mend"
       orient="auto"
       refY="0"
       refX="0"
       id="Arrow1Mend-4"
       style="overflow:visible"><path
         inkscape:connector-curvature="0"
         id="path3904-9"
         d="M 0,0 5,-5 -12.5,0 5,5 0,0 z"
         style="fill-rule:evenodd;stroke:#000000;stroke-width:1pt;marker-start:none"
         transform="matrix(-0.4,0,0,-0.4,-4,0)" /></marker><marker
       inkscape:stockid="EmptyTriangleOutM"
       orient="auto"
       refY="0"
       refX="0"
       id="EmptyTriangleOutM-9"
       style="overflow:visible"><path
         inkscape:connector-curvature="0"
         id="path4059-0"
         d="m 5.77,0 -8.65,5 0,-10 8.65,5 z"
         style="fill:#ffffff;fill-rule:evenodd;stroke:#000000;stroke-width:1pt;marker-start:none"
         transform="matrix(0.4,0,0,0.4,-1.8,0)" /></marker><marker
       inkscape:stockid="Arrow1Send"
       orient="auto"
       refY="0"
       refX="0"
       id="Arrow1Send-3"
       style="overflow:visible"><path
         inkscape:connector-curvature="0"
         id="path3827-1"
         d="M 0,0 5,-5 -12.5,0 5,5 0,0 z"
         style="fill-rule:evenodd;stroke:#000000;stroke-width:1pt;marker-start:none"
         transform="matrix(-0.2,0,0,-0.2,-1.2,0)" /></marker><marker
       inkscape:stockid="Arrow1Send"
       orient="auto"
       refY="0"
       refX="0"
       id="Arrow1Send-2"
       style="overflow:visible"><path
         inkscape:connector-curvature="0"
         id="path3827-0"
         d="M 0,0 5,-5 -12.5,0 5,5 0,0 z"
         style="fill-rule:evenodd;stroke:#000000;stroke-width:1pt;marker-start:none"
         transform="matrix(-0.2,0,0,-0.2,-1.2,0)" /></marker><marker
       inkscape:stockid="Arrow1Send"
       orient="auto"
       refY="0"
       refX="0"
       id="marker6807"
       style="overflow:visible"><path
         inkscape:connector-curvature="0"
         id="path6809"
         d="M 0,0 5,-5 -12.5,0 5,5 0,0 z"
         style="fill-rule:evenodd;stroke:#000000;stroke-width:1pt;marker-start:none"
         transform="matrix(-0.2,0,0,-0.2,-1.2,0)" /></marker><marker
       inkscape:stockid="Arrow1Sstart"
       orient="auto"
       refY="0"
       refX="0"
       id="Arrow1Sstart-4"
       style="overflow:visible"><path
         inkscape:connector-curvature="0"
         id="path3824-0"
         d="M 0,0 5,-5 -12.5,0 5,5 0,0 z"
         style="fill-rule:evenodd;stroke:#000000;stroke-width:1pt;marker-start:none"
         transform="matrix(0.2,0,0,0.2,1.2,0)" /></marker><marker
       inkscape:stockid="Arrow1Sstart"
       orient="auto"
       refY="0"
       refX="0"
       id="Arrow1Sstart-8"
       style="overflow:visible"><path
         inkscape:connector-curvature="0"
         id="path3824-6"
         d="M 0,0 5,-5 -12.5,0 5,5 0,0 z"
         style="fill-rule:evenodd;stroke:#000000;stroke-width:1pt;marker-start:none"
         transform="matrix(0.2,0,0,0.2,1.2,0)" /></marker><marker
       inkscape:stockid="Arrow1Sstart"
       orient="auto"
       refY="0"
       refX="0"
       id="marker8938"
       style="overflow:visible"><path
         inkscape:connector-curvature="0"
         id="path8940"
         d="M 0,0 5,-5 -12.5,0 5,5 0,0 z"
         style="fill-rule:evenodd;stroke:#000000;stroke-width:1pt;marker-start:none"
         transform="matrix(0.2,0,0,0.2,1.2,0)" /></marker><marker
       inkscape:stockid="Arrow1SendPa"
       orient="auto"
       refY="0"
       refX="0"
       id="Arrow1SendPa"
       style="overflow:visible"><path
         inkscape:connector-curvature="0"
         id="path9015"
         d="M 0,0 5,-5 -12.5,0 5,5 0,0 z"
         style="fill:#0000ff;fill-rule:evenodd;stroke:#0000ff;stroke-width:1pt;marker-start:none"
         transform="matrix(-0.2,0,0,-0.2,-1.2,0)" /></marker><marker
       inkscape:stockid="StopMi"
       orient="auto"
       refY="0"
       refX="0"
       id="StopMi"
       style="overflow:visible"><path
         id="path9018"
         d="M 0,5.65 0,-5.65"
         style="fill:none;stroke:#ff0000;stroke-width:1pt"
         transform="scale(0.4,0.4)"
         inkscape:connector-curvature="0" /></marker><marker
       inkscape:stockid="StopMX"
       orient="auto"
       refY="0"
       refX="0"
       id="StopMX"
       style="overflow:visible"><path
         id="path9021"
         d="M 0,5.65 0,-5.65"
         style="fill:none;stroke:#ff0000;stroke-width:1pt"
         transform="scale(0.4,0.4)"
         inkscape:connector-curvature="0" /></marker><marker
       inkscape:stockid="Arrow1Send3J"
       orient="auto"
       refY="0"
       refX="0"
       id="Arrow1Send3J"
       style="overflow:visible"><path
         inkscape:connector-curvature="0"
         id="path9024"
         d="M 0,0 5,-5 -12.5,0 5,5 0,0 z"
         style="fill:#0000ff;fill-rule:evenodd;stroke:#0000ff;stroke-width:1pt;marker-start:none"
         transform="matrix(-0.2,0,0,-0.2,-1.2,0)" /></marker><marker
       inkscape:stockid="Arrow1SendPaz"
       orient="auto"
       refY="0"
       refX="0"
       id="Arrow1SendPaz"
       style="overflow:visible"><path
         inkscape:connector-curvature="0"
         id="path9259"
         d="M 0,0 5,-5 -12.5,0 5,5 0,0 z"
         style="fill:#0000ff;fill-rule:evenodd;stroke:#0000ff;stroke-width:1pt;marker-start:none"
         transform="matrix(-0.2,0,0,-0.2,-1.2,0)" /></marker><marker
       inkscape:stockid="StopMiP"
       orient="auto"
       refY="0"
       refX="0"
       id="StopMiP"
       style="overflow:visible"><path
         id="path9262"
         d="M 0,5.65 0,-5.65"
         style="fill:none;stroke:#ff0000;stroke-width:1pt"
         transform="scale(0.4,0.4)"
         inkscape:connector-curvature="0" /></marker><marker
       inkscape:stockid="StopMXy"
       orient="auto"
       refY="0"
       refX="0"
       id="StopMXy"
       style="overflow:visible"><path
         id="path9265"
         d="M 0,5.65 0,-5.65"
         style="fill:none;stroke:#ff0000;stroke-width:1pt"
         transform="scale(0.4,0.4)"
         inkscape:connector-curvature="0" /></marker><marker
       inkscape:stockid="Arrow1Send3Jz"
       orient="auto"
       refY="0"
       refX="0"
       id="Arrow1Send3Jz"
       style="overflow:visible"><path
         inkscape:connector-curvature="0"
         id="path9268"
         d="M 0,0 5,-5 -12.5,0 5,5 0,0 z"
         style="fill:#0000ff;fill-rule:evenodd;stroke:#0000ff;stroke-width:1pt;marker-start:none"
         transform="matrix(-0.2,0,0,-0.2,-1.2,0)" /></marker><marker
       inkscape:stockid="Arrow1Sstartv"
       orient="auto"
       refY="0"
       refX="0"
       id="Arrow1Sstartv"
       style="overflow:visible"><path
         inkscape:connector-curvature="0"
         id="path9527"
         d="M 0,0 5,-5 -12.5,0 5,5 0,0 z"
         style="fill:#0000ff;fill-rule:evenodd;stroke:#0000ff;stroke-width:1pt;marker-start:none"
         transform="matrix(0.2,0,0,0.2,1.2,0)" /></marker><marker
       inkscape:stockid="Arrow1Sstartq"
       orient="auto"
       refY="0"
       refX="0"
       id="Arrow1Sstartq"
       style="overflow:visible"><path
         inkscape:connector-curvature="0"
         id="path9530"
         d="M 0,0 5,-5 -12.5,0 5,5 0,0 z"
         style="fill:#0000ff;fill-rule:evenodd;stroke:#0000ff;stroke-width:1pt;marker-start:none"
         transform="matrix(0.2,0,0,0.2,1.2,0)" /></marker><marker
       inkscape:stockid="Arrow1SendY"
       orient="auto"
       refY="0"
       refX="0"
       id="Arrow1SendY"
       style="overflow:visible"><path
         inkscape:connector-curvature="0"
         id="path9533"
         d="M 0,0 5,-5 -12.5,0 5,5 0,0 z"
         style="fill:#000000;fill-rule:evenodd;stroke:#000000;stroke-width:1pt;marker-start:none"
         transform="matrix(-0.2,0,0,-0.2,-1.2,0)" /></marker><marker
       inkscape:stockid="Arrow1SendL"
       orient="auto"
       refY="0"
       refX="0"
       id="Arrow1SendL"
       style="overflow:visible"><path
         inkscape:connector-curvature="0"
         id="path9536"
         d="M 0,0 5,-5 -12.5,0 5,5 0,0 z"
         style="fill:#ff0000;fill-rule:evenodd;stroke:#ff0000;stroke-width:1pt;marker-start:none"
         transform="matrix(-0.2,0,0,-0.2,-1.2,0)" /></marker><marker
       inkscape:stockid="Arrow1SstartV"
       orient="auto"
       refY="0"
       refX="0"
       id="Arrow1SstartV"
       style="overflow:visible"><path
         inkscape:connector-curvature="0"
         id="path9539"
         d="M 0,0 5,-5 -12.5,0 5,5 0,0 z"
         style="fill:#0000ff;fill-rule:evenodd;stroke:#0000ff;stroke-width:1pt;marker-start:none"
         transform="matrix(0.2,0,0,0.2,1.2,0)" /></marker><marker
       inkscape:stockid="Arrow1Send8"
       orient="auto"
       refY="0"
       refX="0"
       id="Arrow1Send8"
       style="overflow:visible"><path
         inkscape:connector-curvature="0"
         id="path9542"
         d="M 0,0 5,-5 -12.5,0 5,5 0,0 z"
         style="fill:#ff0000;fill-rule:evenodd;stroke:#ff0000;stroke-width:1pt;marker-start:none"
         transform="matrix(-0.2,0,0,-0.2,-1.2,0)" /></marker><marker
       inkscape:stockid="Arrow1SstartS"
       orient="auto"
       refY="0"
       refX="0"
       id="Arrow1SstartS"
       style="overflow:visible"><path
         inkscape:connector-curvature="0"
         id="path9545"
         d="M 0,0 5,-5 -12.5,0 5,5 0,0 z"
         style="fill:#0000ff;fill-rule:evenodd;stroke:#0000ff;stroke-width:1pt;marker-start:none"
         transform="matrix(0.2,0,0,0.2,1.2,0)" /></marker><marker
       inkscape:stockid="Arrow1Send5"
       orient="auto"
       refY="0"
       refX="0"
       id="Arrow1Send5"
       style="overflow:visible"><path
         inkscape:connector-curvature="0"
         id="path9548"
         d="M 0,0 5,-5 -12.5,0 5,5 0,0 z"
         style="fill:#ff0000;fill-rule:evenodd;stroke:#ff0000;stroke-width:1pt;marker-start:none"
         transform="matrix(-0.2,0,0,-0.2,-1.2,0)" /></marker><marker
       inkscape:stockid="Arrow1SendYL"
       orient="auto"
       refY="0"
       refX="0"
       id="Arrow1SendYL"
       style="overflow:visible"><path
         inkscape:connector-curvature="0"
         id="path9823"
         d="M 0,0 5,-5 -12.5,0 5,5 0,0 z"
         style="fill:#ff0000;fill-rule:evenodd;stroke:#ff0000;stroke-width:1pt;marker-start:none"
         transform="matrix(-0.2,0,0,-0.2,-1.2,0)" /></marker><marker
       inkscape:stockid="Arrow1Sstartvf"
       orient="auto"
       refY="0"
       refX="0"
       id="Arrow1Sstartvf"
       style="overflow:visible"><path
         inkscape:connector-curvature="0"
         id="path12271"
         d="M 0,0 5,-5 -12.5,0 5,5 0,0 z"
         style="fill:#ff0000;fill-rule:evenodd;stroke:#ff0000;stroke-width:1pt;marker-start:none"
         transform="matrix(0.2,0,0,0.2,1.2,0)" /></marker><marker
       inkscape:stockid="Arrow1SendPZ"
       orient="auto"
       refY="0"
       refX="0"
       id="Arrow1SendPZ"
       style="overflow:visible"><path
         inkscape:connector-curvature="0"
         id="path12274"
         d="M 0,0 5,-5 -12.5,0 5,5 0,0 z"
         style="fill:#ff0000;fill-rule:evenodd;stroke:#ff0000;stroke-width:1pt;marker-start:none"
         transform="matrix(-0.2,0,0,-0.2,-1.2,0)" /></marker><marker
       inkscape:stockid="StopMib"
       orient="auto"
       refY="0"
       refX="0"
       id="StopMib"
       style="overflow:visible"><path
         id="path13041"
         d="M 0,5.65 0,-5.65"
         style="fill:none;stroke:#0000ff;stroke-width:1pt"
         transform="scale(0.4,0.4)"
         inkscape:connector-curvature="0" /></marker><marker
       inkscape:stockid="StopMiP6"
       orient="auto"
       refY="0"
       refX="0"
       id="StopMiP6"
       style="overflow:visible"><path
         id="path13044"
         d="M 0,5.65 0,-5.65"
         style="fill:none;stroke:#0000ff;stroke-width:1pt"
         transform="scale(0.4,0.4)"
         inkscape:connector-curvature="0" /></marker><marker
       inkscape:stockid="Arrow1SendG1"
       orient="auto"
       refY="0"
       refX="0"
       id="Arrow1SendG1"
       style="overflow:visible"><path
         inkscape:connector-curvature="0"
         id="path20909"
         d="M 0,0 5,-5 -12.5,0 5,5 0,0 z"
         style="fill:#0000ff;fill-rule:evenodd;stroke:#0000ff;stroke-width:1pt;marker-start:none"
         transform="matrix(-0.2,0,0,-0.2,-1.2,0)" /></marker></defs><g
     id="g10"
     inkscape:groupmode="layer"
     inkscape:label="ink_ext_XXXXXX"
     transform="matrix(1.25,0,0,-1.25,180.82895,249.61659)"><g
       id="g13926"
       transform="matrix(0.79816275,0,0,-0.79816275,-137.56361,200.42354)"><g
         word-spacing="normal"
         letter-spacing="normal"
         font-size-adjust="none"
         font-stretch="normal"
         font-weight="normal"
         font-variant="normal"
         font-style="normal"
         stroke-miterlimit="10.433"
         xml:space="preserve"
         transform="matrix(0.23666367,0,0,-0.23666367,-41.416142,155.06115)"
         id="g13928"
         style="font-style:normal;font-variant:normal;font-weight:normal;font-stretch:normal;letter-spacing:normal;word-spacing:normal;text-anchor:start;fill:none;stroke:#000000;stroke-linecap:butt;stroke-linejoin:miter;stroke-miterlimit:10.43299961;stroke-opacity:1;stroke-dasharray:none;stroke-dashoffset:0"><path
           id="path13930"
           d="m 473.8,426.12 h 4.28 c 1,0 1.5,0 1.5,1 0,0.55 -0.5,0.55 -1.34,0.55 h -4.14 l 1.04,5.69 c 0.21,1.04 0.91,4.57 1.21,5.17 0.45,0.95 1.29,1.7 2.34,1.7 0.19,0 1.49,0 2.44,-0.91 -2.19,-0.18 -2.69,-1.93 -2.69,-2.68 0,-1.14 0.89,-1.74 1.85,-1.74 1.29,0 2.73,1.1 2.73,2.99 0,2.29 -2.3,3.43 -4.33,3.43 -1.7,0 -4.84,-0.89 -6.33,-5.82 -0.29,-1.05 -0.45,-1.55 -1.64,-7.83 h -3.43 c -0.96,0 -1.5,0 -1.5,-0.94 0,-0.61 0.45,-0.61 1.39,-0.61 h 3.29 l -3.75,-19.67 c -0.89,-4.83 -1.73,-9.38 -4.33,-9.38 -0.2,0 -1.43,0 -2.39,0.91 2.3,0.14 2.74,1.94 2.74,2.69 0,1.14 -0.89,1.75 -1.85,1.75 -1.29,0 -2.73,-1.1 -2.73,-3 0,-2.24 2.19,-3.44 4.23,-3.44 2.74,0 4.74,2.94 5.63,4.84 1.59,3.14 2.75,9.16 2.8,9.52 z"
           inkscape:connector-curvature="0"
           style="fill:#000000;stroke-width:0" /></g></g><g
       id="g14160"
       transform="matrix(0.79816275,0,0,-0.79816275,-6.2244384,209.25182)"><g
         id="g14162"
         transform="matrix(0.23666367,0,0,-0.23666367,-41.416142,155.06115)"
         xml:space="preserve"
         stroke-miterlimit="10.433"
         font-style="normal"
         font-variant="normal"
         font-weight="normal"
         font-stretch="normal"
         font-size-adjust="none"
         letter-spacing="normal"
         word-spacing="normal"
         style="font-style:normal;font-variant:normal;font-weight:normal;font-stretch:normal;letter-spacing:normal;word-spacing:normal;text-anchor:start;fill:none;stroke:#000000;stroke-linecap:butt;stroke-linejoin:miter;stroke-miterlimit:10.43299961;stroke-opacity:1;stroke-dasharray:none;stroke-dashoffset:0"><path
           d="m 474.1,425.03 -0.09,0.17 -0.09,0.17 -0.09,0.16 -0.09,0.16 -0.1,0.16 -0.1,0.16 -0.11,0.15 -0.11,0.14 -0.11,0.15 -0.12,0.13 -0.12,0.14 -0.12,0.13 -0.13,0.12 -0.13,0.12 -0.14,0.11 -0.14,0.11 -0.14,0.11 -0.15,0.09 -0.15,0.1 -0.15,0.08 -0.16,0.08 -0.17,0.08 -0.17,0.06 -0.17,0.07 -0.17,0.05 -0.18,0.05 -0.19,0.04 -0.19,0.03 -0.19,0.03 -0.2,0.02 -0.2,0.01 -0.21,0 0.05,-1.09 c 3.23,0 3.93,-4.08 3.93,-4.37 0,-0.32 -0.09,-0.61 -0.14,-0.86 l -2.5,-9.77 c -0.25,-0.89 -0.25,-0.98 -1,-1.84 -2.18,-2.74 -4.23,-3.53 -5.62,-3.53 -2.49,0 -3.19,2.73 -3.19,4.68 0,2.49 1.59,8.61 2.74,10.91 1.54,2.94 3.79,4.78 5.78,4.78 l -0.05,1.09 c -5.83,0 -12,-7.31 -12,-14.59 0,-4.69 2.73,-7.97 6.62,-7.97 0.99,0 3.49,0.21 6.47,3.74 0.41,-2.1 2.14,-3.74 4.53,-3.74 1.75,0 2.9,1.14 3.69,2.74 0.85,1.79 1.5,4.84 1.5,4.93 0,0.5 -0.45,0.5 -0.59,0.5 -0.5,0 -0.55,-0.2 -0.7,-0.9 -0.85,-3.24 -1.75,-6.17 -3.79,-6.17 -1.34,0 -1.5,1.29 -1.5,2.29 0,1.1 0.1,1.49 0.64,3.69 0.57,2.09 0.66,2.59 1.11,4.48 l 1.79,6.97 c 0.35,1.39 0.35,1.5 0.35,1.69 0,0.86 -0.6,1.36 -1.45,1.36 -1.19,0 -1.94,-1.11 -2.09,-2.2 z"
           id="path14164"
           inkscape:connector-curvature="0"
           style="fill:#000000;stroke-width:0" /></g></g><g
       id="g14400"
       transform="matrix(0.79816275,0,0,-0.79816275,-95.609746,216.27264)"><g
         word-spacing="normal"
         letter-spacing="normal"
         font-size-adjust="none"
         font-stretch="normal"
         font-weight="normal"
         font-variant="normal"
         font-style="normal"
         stroke-miterlimit="10.433"
         xml:space="preserve"
         transform="matrix(0.23666367,0,0,-0.23666367,-41.416142,155.06115)"
         id="g14402"
         style="font-style:normal;font-variant:normal;font-weight:normal;font-stretch:normal;letter-spacing:normal;word-spacing:normal;text-anchor:start;fill:none;stroke:#000000;stroke-linecap:butt;stroke-linejoin:miter;stroke-miterlimit:10.43299961;stroke-opacity:1;stroke-dasharray:none;stroke-dashoffset:0"><path
           id="path14404"
           d="m 481.38,423.14 0.47,0.11 0.48,0.12 0.48,0.14 0.48,0.15 0.49,0.16 0.48,0.18 0.48,0.19 0.47,0.2 0.47,0.22 0.47,0.23 0.46,0.24 0.45,0.25 0.43,0.27 0.43,0.28 0.42,0.29 0.4,0.3 0.39,0.31 0.37,0.32 0.36,0.34 0.33,0.35 0.32,0.35 0.29,0.37 0.28,0.38 0.25,0.39 0.22,0.4 0.2,0.41 0.17,0.42 0.15,0.43 0.11,0.44 0.08,0.45 0.05,0.46 0.02,0.47 c 0,4.28 -4.48,7.47 -11,7.47 h -14.2 c -1,0 -1.45,0 -1.45,-1 0,-0.55 0.45,-0.55 1.4,-0.55 0.1,0 1.05,0 1.89,-0.09 0.89,-0.11 1.35,-0.16 1.35,-0.8 0,-0.2 -0.05,-0.36 -0.21,-0.95 l -6.67,-26.75 c -0.5,-1.95 -0.59,-2.34 -4.53,-2.34 -0.91,0 -1.34,0 -1.34,-1 0,-0.55 0.59,-0.55 0.68,-0.55 1.41,0 4.89,0.16 6.29,0.16 1.39,0 4.93,-0.16 6.32,-0.16 0.41,0 1,0 1,1 0,0.55 -0.45,0.55 -1.39,0.55 -1.84,0 -3.25,0 -3.25,0.89 0,0.29 0.11,0.54 0.16,0.84 l 3.28,13.2 h 5.94 l -0.05,1.11 h -5.59 l 3.25,13 c 0.29,1.19 0.43,1.69 1.39,1.85 0.45,0.04 2.04,0.04 3.03,0.04 3.55,0 9.08,0 9.08,-4.93 0,-1.69 -0.8,-5.13 -2.75,-7.07 -1.28,-1.29 -3.92,-2.89 -8.41,-2.89 l 0.05,-1.11 c 4.53,0 5.42,-2.78 5.42,-4.53 0,-0.75 -0.39,-2.28 -0.69,-3.44 -0.36,-1.39 -0.79,-3.23 -0.79,-4.23 0,-5.37 5.96,-5.37 6.62,-5.37 4.23,0 5.97,5.03 5.97,5.73 0,0.59 -0.55,0.59 -0.59,0.59 -0.46,0 -0.55,-0.36 -0.65,-0.7 -1.25,-3.69 -3.39,-4.53 -4.54,-4.53 -1.64,0 -1.99,1.09 -1.99,3.05 0,1.53 0.3,4.07 0.5,5.67 0.1,0.7 0.21,1.64 0.21,2.34 0,3.83 -3.35,5.38 -4.69,5.88 z"
           inkscape:connector-curvature="0"
           style="fill:#000000;stroke-width:0" /></g></g><g
       transform="matrix(0.8693484,0,0,-0.8693484,-79.438997,226.36049)"
       id="g15557"><g
         style="font-style:normal;font-variant:normal;font-weight:normal;font-stretch:normal;letter-spacing:normal;word-spacing:normal;text-anchor:start;fill:none;stroke:#000000;stroke-linecap:butt;stroke-linejoin:miter;stroke-miterlimit:10.43299961;stroke-opacity:1;stroke-dasharray:none;stroke-dashoffset:0"
         id="g15559"
         transform="matrix(0.22577716,0,0,-0.22577716,-39.511002,201.14051)"
         xml:space="preserve"
         stroke-miterlimit="10.433"
         font-style="normal"
         font-variant="normal"
         font-weight="normal"
         font-stretch="normal"
         font-size-adjust="none"
         letter-spacing="normal"
         word-spacing="normal"><path
           style="fill:#000000;stroke-width:0"
           inkscape:connector-curvature="0"
           d="m 459.91,409.14 -0.02,-0.07 -0.01,-0.08 -0.02,-0.07 -0.01,-0.08 -0.04,-0.16 -0.04,-0.16 -0.03,-0.16 -0.04,-0.16 -0.04,-0.16 -0.04,-0.16 -0.01,-0.08 -0.02,-0.07 -0.02,-0.07 -0.01,-0.07 -0.02,-0.07 -0.01,-0.07 -0.01,-0.06 -0.01,-0.06 -0.01,-0.06 -0.01,-0.05 -0.01,-0.05 -0.01,-0.04 -0.01,-0.04 0,-0.04 0,-0.03 0,-0.02 c 0,-0.89 0.7,-1.35 1.43,-1.35 0.61,0 1.5,0.39 1.85,1.39 0.06,0.11 0.65,2.44 0.95,3.69 l 1.1,4.48 c 0.29,1.1 0.59,2.19 0.84,3.35 0.2,0.84 0.61,2.28 0.66,2.48 0.75,1.55 3.39,6.08 8.1,6.08 2.25,0 2.71,-1.84 2.71,-3.48 0,-1.25 -0.36,-2.64 -0.75,-4.14 l -1.39,-5.79 -1,-3.78 c -0.21,-1 -0.66,-2.68 -0.66,-2.93 0,-0.89 0.7,-1.35 1.45,-1.35 1.55,0 1.85,1.25 2.24,2.85 0.7,2.78 2.55,10.06 3,12 0.14,0.65 2.78,6.62 8.22,6.62 2.14,0 2.68,-1.69 2.68,-3.48 0,-2.85 -2.09,-8.52 -3.09,-11.16 -0.45,-1.2 -0.64,-1.75 -0.64,-2.75 0,-2.33 1.73,-4.08 4.08,-4.08 4.69,0 6.53,7.27 6.53,7.67 0,0.5 -0.45,0.5 -0.59,0.5 -0.5,0 -0.5,-0.15 -0.75,-0.9 -0.75,-2.64 -2.35,-6.17 -5.08,-6.17 -0.86,0 -1.21,0.5 -1.21,1.64 0,1.25 0.46,2.45 0.9,3.54 0.95,2.58 3.04,8.11 3.04,10.96 0,3.23 -2,5.32 -5.73,5.32 -3.74,0 -6.27,-2.18 -8.11,-4.82 -0.06,0.65 -0.2,2.34 -1.61,3.53 -1.24,1.04 -2.83,1.29 -4.08,1.29 -4.48,0 -6.92,-3.18 -7.76,-4.32 -0.25,2.84 -2.35,4.32 -4.6,4.32 -2.28,0 -3.23,-1.93 -3.69,-2.82 -0.89,-1.75 -1.54,-4.69 -1.54,-4.85 0,-0.5 0.5,-0.5 0.61,-0.5 0.5,0 0.54,0.07 0.84,1.16 0.84,3.53 1.84,5.92 3.64,5.92 0.8,0 1.55,-0.39 1.55,-2.28 0,-1.05 -0.16,-1.61 -0.8,-4.19 z"
           id="path15561" /><path
           style="fill:#000000;stroke-width:0"
           inkscape:connector-curvature="0"
           d="m 522.67,424.98 0.01,0.06 0.01,0.05 0.01,0.05 0.01,0.06 0.02,0.1 0.01,0.05 0.02,0.06 0.01,0.05 0.01,0.06 0.01,0.05 0,0.06 0.01,0.06 0,0.06 0.01,0.03 0,0.03 0,0.03 0,0.03 c 0,0.86 -0.59,1.36 -1.44,1.36 -0.5,0 -1.84,-0.36 -2.05,-2.16 -0.89,1.85 -2.64,3.14 -4.62,3.14 l 0.05,-1.09 c 3.28,0 3.98,-4.03 3.98,-4.28 0,-0.25 -0.09,-0.55 -0.16,-0.75 l -2.39,-9.52 c -0.29,-1.29 -1.43,-2.53 -2.53,-3.48 -1.05,-0.89 -2.59,-1.8 -4.04,-1.8 -2.49,0 -3.24,2.6 -3.24,4.58 0,2.41 1.45,8.28 2.8,10.81 1.34,2.46 3.48,4.44 5.58,4.44 l -0.05,1.09 c -5.69,0 -11.86,-6.96 -11.86,-14.14 0,-4.93 3.03,-7.87 6.62,-7.87 2.94,0 5.29,2.34 5.79,2.89 l 0.04,-0.05 c -1.04,-4.43 -1.64,-6.48 -1.64,-6.58 -0.2,-0.45 -1.89,-5.39 -7.17,-5.39 -0.95,0 -2.59,0.07 -4,0.5 1.5,0.46 2.05,1.75 2.05,2.6 0,0.79 -0.55,1.75 -1.89,1.75 -1.1,0 -2.69,-0.91 -2.69,-2.89 0,-2.05 1.84,-3.05 6.62,-3.05 6.22,0 9.82,3.89 10.57,6.88 z"
           id="path15563" /></g></g><g
       id="g15815"
       transform="matrix(0.8693484,0,0,-0.8693484,-60.294167,290.50582)"><g
         word-spacing="normal"
         letter-spacing="normal"
         font-size-adjust="none"
         font-stretch="normal"
         font-weight="normal"
         font-variant="normal"
         font-style="normal"
         stroke-miterlimit="10.433"
         xml:space="preserve"
         transform="matrix(0.22577716,0,0,-0.22577716,-39.511002,201.14051)"
         id="g15817"
         style="font-style:normal;font-variant:normal;font-weight:normal;font-stretch:normal;letter-spacing:normal;word-spacing:normal;text-anchor:start;fill:none;stroke:#000000;stroke-linecap:butt;stroke-linejoin:miter;stroke-miterlimit:10.43299961;stroke-opacity:1;stroke-dasharray:none;stroke-dashoffset:0"><path
           id="path15819"
           d="m 479.29,417.96 -0.01,0.37 -0.01,0.35 -0.02,0.35 -0.02,0.34 -0.06,0.65 -0.09,0.63 -0.11,0.59 -0.14,0.57 -0.15,0.54 -0.18,0.51 -0.19,0.49 -0.21,0.45 -0.23,0.44 -0.25,0.4 -0.26,0.38 -0.27,0.36 -0.29,0.33 -0.3,0.31 -0.31,0.29 -0.31,0.26 -0.33,0.24 -0.34,0.22 -0.34,0.2 -0.35,0.18 -0.35,0.16 -0.36,0.14 -0.35,0.12 -0.36,0.11 -0.37,0.09 -0.36,0.06 -0.36,0.06 -0.35,0.04 -0.35,0.02 -0.35,0 -0.05,-1.09 c 4.94,0 4.94,-6.53 4.94,-10.41 0,-1.84 0,-4.73 0.09,-5.57 h 0 c -4.37,-3.85 -8.22,-4.39 -10.2,-4.39 -3,0 -4.49,2.25 -4.49,5.43 0,2.44 1.3,7.82 2.89,10.36 2.33,3.64 5.04,4.58 6.77,4.58 l 0.05,1.09 c -6.82,0 -13.39,-7.12 -13.39,-14.14 0,-4.64 2.98,-8.42 8.06,-8.42 3.14,0 6.73,1.14 10.51,4.19 0.66,-2.64 2.3,-4.19 4.54,-4.19 2.64,0 4.18,2.74 4.18,3.53 0,0.36 -0.29,0.5 -0.59,0.5 -0.36,0 -0.5,-0.14 -0.66,-0.5 -0.89,-2.43 -2.68,-2.43 -2.78,-2.43 -1.54,0 -1.54,3.89 -1.54,5.07 0,1.05 0,1.16 0.5,1.75 4.68,5.88 5.73,11.66 5.73,11.71 0,0.11 -0.06,0.5 -0.61,0.5 -0.5,0 -0.5,-0.14 -0.75,-1.05 -0.89,-3.14 -2.53,-6.92 -4.87,-9.86 z"
           inkscape:connector-curvature="0"
           style="fill:#000000;stroke-width:0" /></g></g><path
       style="fill:none;stroke:#000000;stroke-width:1;stroke-linecap:butt;stroke-linejoin:miter;stroke-miterlimit:4;stroke-opacity:1;stroke-dasharray:none"
       d="m 108.56365,148.00345 -252.72681,0.0469"
       id="path10092"
       inkscape:connector-curvature="0"
       sodipodi:nodetypes="cc" /><g
       id="g13698"
       transform="matrix(1.0561555,0.60961413,0.60961413,-1.0561555,14.30959,153.8151)"
       style="stroke-width:0.820032;stroke-miterlimit:4;stroke-dasharray:none"><g
         id="g13700"
         transform="matrix(0.23666367,0,0,-0.23666367,-41.416142,155.06115)"
         xml:space="preserve"
         stroke-miterlimit="10.433"
         font-style="normal"
         font-variant="normal"
         font-weight="normal"
         font-stretch="normal"
         font-size-adjust="none"
         letter-spacing="normal"
         word-spacing="normal"
         style="font-style:normal;font-variant:normal;font-weight:normal;font-stretch:normal;letter-spacing:normal;word-spacing:normal;text-anchor:start;fill:none;stroke:#000000;stroke-width:3.46496797;stroke-linecap:butt;stroke-linejoin:miter;stroke-miterlimit:4;stroke-opacity:1;stroke-dasharray:none;stroke-dashoffset:0" /></g><path
       sodipodi:type="arc"
       style="fill:none;stroke:#0000ff;stroke-width:3.35767388;stroke-linejoin:miter;stroke-miterlimit:4;stroke-opacity:1;stroke-dasharray:none;stroke-dashoffset:0"
       id="path15125"
       sodipodi:cx="181.75244"
       sodipodi:cy="105.43146"
       sodipodi:rx="69.011261"
       sodipodi:ry="69.011261"
       d="m 250.7637,105.43146 c 0,38.11386 -30.89739,69.01126 -69.01126,69.01126 -38.11387,0 -69.01126,-30.8974 -69.01126,-69.01126 0,-38.113869 30.89739,-69.011263 69.01126,-69.011263 38.11387,0 69.01126,30.897394 69.01126,69.011263 z"
       transform="matrix(0.25794088,0.14888376,0.14888376,-0.25794088,-90.678556,169.72025)" /><path
       sodipodi:type="arc"
       style="fill:none;stroke:#0000ff;stroke-width:2.26187944;stroke-linejoin:miter;stroke-miterlimit:4;stroke-opacity:1;stroke-dasharray:none;stroke-dashoffset:0;marker-end:url(#Arrow1SendG1)"
       id="path15125-6"
       sodipodi:cx="181.75244"
       sodipodi:cy="105.43146"
       sodipodi:rx="69.011261"
       sodipodi:ry="69.011261"
       d="m 229.66029,55.758602 c 15.66397,15.107389 23.28432,36.718206 20.56087,58.309318"
       transform="matrix(0.38290339,0.22101226,0.22101226,-0.38290339,-120.99541,169.78569)"
       sodipodi:start="5.4797014"
       sodipodi:end="6.40866"
       sodipodi:open="true" /><path
       style="fill:none;stroke:#ff0000;stroke-width:1;stroke-linecap:butt;stroke-linejoin:miter;stroke-miterlimit:4;stroke-opacity:1;stroke-dasharray:none;marker-end:url(#Arrow1Sendm)"
       d="m -28.235008,149.029 -85.676882,0.009"
       id="path10102"
       inkscape:connector-curvature="0" /><path
       style="fill:none;stroke:#ff0000;stroke-width:1;stroke-linecap:butt;stroke-linejoin:bevel;stroke-miterlimit:4;stroke-opacity:1;stroke-dasharray:none;marker-start:url(#Arrow1Sstartvf);marker-end:url(#Arrow1SendPZ)"
       d="m -28.274486,127.43892 0.07766,42.47258 100.321181,-0.008"
       id="path10098"
       inkscape:connector-curvature="0"
       sodipodi:nodetypes="ccc" /><path
       sodipodi:nodetypes="cc"
       style="fill:none;stroke:#ff0000;stroke-width:1;stroke-linecap:butt;stroke-linejoin:miter;stroke-miterlimit:4;stroke-opacity:1;stroke-dasharray:none;marker-end:none"
       d="m -28.100541,169.53232 -10.274253,17.85366"
       id="path10100"
       inkscape:connector-curvature="0" /><g
       transform="matrix(0.8693484,0,0,-0.8693484,-91.154269,235.18566)"
       id="g20388"><g
         style="font-style:normal;font-variant:normal;font-weight:normal;font-stretch:normal;letter-spacing:normal;word-spacing:normal;text-anchor:start;fill:none;stroke:#000000;stroke-linecap:butt;stroke-linejoin:miter;stroke-miterlimit:10.43299961;stroke-opacity:1;stroke-dasharray:none;stroke-dashoffset:0"
         id="content"
         transform="matrix(0.22577716,0,0,-0.22577716,-39.511002,201.14051)"
         xml:space="preserve"
         stroke-miterlimit="10.433"
         font-style="normal"
         font-variant="normal"
         font-weight="normal"
         font-stretch="normal"
         font-size-adjust="none"
         letter-spacing="normal"
         word-spacing="normal"><path
           style="fill:#000000;stroke-width:0"
           inkscape:connector-curvature="0"
           d="m 466.83,421.95 -0.15,1.28 v 13.45 c 0,1.66 0.11,2 2.43,2 h 4.44 c 7.92,0 7.92,-5.28 7.92,-7.72 0,-2.34 0,-7.73 -7.92,-7.73 h -6.87 l 0.15,-1.28 h 8.42 c 5.97,0 11.36,4.03 11.36,9.01 0,4.88 -4.93,9.27 -11.76,9.27 h -17.58 v -1.55 h 1.19 c 3.84,0 3.93,-0.54 3.93,-2.34 v -26.25 c 0,-1.8 -0.09,-2.34 -3.93,-2.34 h -1.19 v -1.55 c 1.73,0.16 5.42,0.16 7.31,0.16 1.89,0 5.64,0 7.38,-0.16 v 1.55 h -1.19 c -3.84,0 -3.94,0.54 -3.94,2.34 z"
           id="path20391" /></g></g></g></svg>