<?xml version="1.0" encoding="UTF-8" standalone="no"?>
<!-- Created with Inkscape (http://www.inkscape.org/) -->

<svg
   xmlns:dc="http://purl.org/dc/elements/1.1/"
   xmlns:cc="http://creativecommons.org/ns#"
   xmlns:rdf="http://www.w3.org/1999/02/22-rdf-syntax-ns#"
   xmlns:svg="http://www.w3.org/2000/svg"
   xmlns="http://www.w3.org/2000/svg"
   xmlns:sodipodi="http://sodipodi.sourceforge.net/DTD/sodipodi-0.dtd"
   xmlns:inkscape="http://www.inkscape.org/namespaces/inkscape"
   width="339.19888"
   height="132.29047"
   id="svg2"
   version="1.1"
   inkscape:version="0.48.2 r9819"
   sodipodi:docname="direction of coriolis force.svg">
  <sodipodi:namedview
     id="base"
     pagecolor="#ffffff"
     bordercolor="#666666"
     borderopacity="1.0"
     inkscape:pageopacity="0"
     inkscape:pageshadow="2"
     inkscape:zoom="1.8371599"
     inkscape:cx="100.51526"
     inkscape:cy="100.73037"
     inkscape:document-units="px"
     inkscape:current-layer="layer1"
     showgrid="false"
     inkscape:snap-bbox="true"
     inkscape:bbox-paths="false"
     inkscape:bbox-nodes="true"
     inkscape:snap-bbox-midpoints="true"
     inkscape:snap-bbox-edge-midpoints="false"
     inkscape:object-paths="true"
     inkscape:snap-intersection-paths="true"
     inkscape:object-nodes="true"
     inkscape:snap-smooth-nodes="true"
     inkscape:snap-midpoints="true"
     inkscape:snap-object-midpoints="true"
     inkscape:snap-center="true"
     inkscape:snap-page="true"
     inkscape:window-width="1366"
     inkscape:window-height="743"
     inkscape:window-x="0"
     inkscape:window-y="3"
     inkscape:window-maximized="1"
     inkscape:snap-global="false"
     fit-margin-top="0"
     fit-margin-left="0"
     fit-margin-right="0"
     fit-margin-bottom="0" />
  <defs
     id="defs4">
    <marker
       style="overflow:visible"
       id="Arrow1Mend"
       refX="0"
       refY="0"
       orient="auto"
       inkscape:stockid="Arrow1Mend">
      <path
         transform="matrix(-0.4,0,0,-0.4,-4,0)"
         style="fill-rule:evenodd;stroke:#000000;stroke-width:1pt;marker-start:none"
         d="M 0,0 5,-5 -12.5,0 5,5 0,0 z"
         id="path3836"
         inkscape:connector-curvature="0" />
    </marker>
    <marker
       style="overflow:visible"
       id="Arrow1Mstart"
       refX="0"
       refY="0"
       orient="auto"
       inkscape:stockid="Arrow1Mstart">
      <path
         transform="matrix(0.4,0,0,0.4,4,0)"
         style="fill-rule:evenodd;stroke:#000000;stroke-width:1pt;marker-start:none"
         d="M 0,0 5,-5 -12.5,0 5,5 0,0 z"
         id="path3833"
         inkscape:connector-curvature="0" />
    </marker>
    <marker
       style="overflow:visible"
       id="Arrow1Mstart-3"
       refX="0"
       refY="0"
       orient="auto"
       inkscape:stockid="Arrow1Mstart">
      <path
         transform="matrix(0.4,0,0,0.4,4,0)"
         style="fill-rule:evenodd;stroke:#000000;stroke-width:1pt;marker-start:none"
         d="M 0,0 5,-5 -12.5,0 5,5 0,0 z"
         id="path3833-9"
         inkscape:connector-curvature="0" />
    </marker>
  </defs>
  <metadata
     id="metadata7">
    <rdf:RDF>
      <cc:Work
         rdf:about="">
        <dc:format>image/svg+xml</dc:format>
        <dc:type
           rdf:resource="http://purl.org/dc/dcmitype/StillImage" />
        <dc:title></dc:title>
      </cc:Work>
    </rdf:RDF>
  </metadata>
  <g
     transform="translate(-150.78315,-806.67967)"
     id="layer1"
     inkscape:groupmode="layer"
     inkscape:label="Layer 1">
    <path
       transform="matrix(0.73777351,0,0,0.73687354,161.96576,748.24238)"
       d="m 166.40889,190.45276 c 0,37.39104 -30.31143,67.70248 -67.702477,67.70248 -37.391045,0 -67.702476,-30.31144 -67.702476,-67.70248 0,-37.39105 30.311431,-67.70248 67.702476,-67.70248 37.391047,0 67.702477,30.31143 67.702477,67.70248 z"
       sodipodi:ry="67.702477"
       sodipodi:rx="67.702477"
       sodipodi:cy="190.45276"
       sodipodi:cx="98.706413"
       id="path2985"
       style="fill:none;stroke:#0000ff;stroke-width:1.35625696;stroke-linecap:butt;stroke-linejoin:miter;stroke-miterlimit:4;stroke-opacity:1;stroke-dasharray:none;stroke-dashoffset:0"
       sodipodi:type="arc" />
    <path
       transform="matrix(0.73777351,0,0,0.73687354,173.286,755.35262)"
       d="m 85.419009,180.80357 c 0,1.13571 -0.920675,2.05639 -2.056384,2.05639 -1.135709,0 -2.056383,-0.92068 -2.056383,-2.05639 0,-1.13571 0.920674,-2.05638 2.056383,-2.05638 1.135709,0 2.056384,0.92067 2.056384,2.05638 z"
       sodipodi:ry="2.0563836"
       sodipodi:rx="2.0563836"
       sodipodi:cy="180.80357"
       sodipodi:cx="83.362625"
       id="path2987"
       style="fill:#0000ff;stroke:#0000ff;stroke-width:1.35625696;stroke-linecap:butt;stroke-linejoin:miter;stroke-miterlimit:4;stroke-opacity:1;stroke-dasharray:none;stroke-dashoffset:0"
       sodipodi:type="arc" />
    <path
       d="m 166.40889,190.45276 c 0,37.39104 -30.31143,67.70248 -67.702477,67.70248 -37.391045,0 -67.702476,-30.31144 -67.702476,-67.70248 0,-37.39105 30.311431,-67.70248 67.702476,-67.70248 37.391047,0 67.702477,30.31143 67.702477,67.70248 z"
       sodipodi:ry="67.702477"
       sodipodi:rx="67.702477"
       sodipodi:cy="190.45276"
       sodipodi:cx="98.706413"
       id="path2985-9"
       style="fill:none;stroke:#0000ff;stroke-width:1.35625696;stroke-linecap:butt;stroke-linejoin:miter;stroke-miterlimit:4;stroke-opacity:1;stroke-dasharray:none;stroke-dashoffset:0"
       sodipodi:type="arc"
       transform="matrix(0.73777351,0,0,0.73687354,339.82187,748.24238)" />
    <path
       transform="matrix(0.73777351,0,0,0.73687354,351.14211,755.35262)"
       d="m 85.419009,180.80357 c 0,1.13571 -0.920675,2.05639 -2.056384,2.05639 -1.135709,0 -2.056383,-0.92068 -2.056383,-2.05639 0,-1.13571 0.920674,-2.05638 2.056383,-2.05638 1.135709,0 2.056384,0.92067 2.056384,2.05638 z"
       sodipodi:ry="2.0563836"
       sodipodi:rx="2.0563836"
       sodipodi:cy="180.80357"
       sodipodi:cx="83.362625"
       id="path2987-4"
       style="fill:#0000ff;stroke:#0000ff;stroke-width:1.35625696;stroke-linecap:butt;stroke-linejoin:miter;stroke-miterlimit:4;stroke-opacity:1;stroke-dasharray:none;stroke-dashoffset:0"
       sodipodi:type="arc" />
    <path
       transform="matrix(0.04623735,0,0,0.04618095,149.84961,874.97421)"
       d="m 166.40889,190.45276 c 0,37.39104 -30.31143,67.70248 -67.702477,67.70248 -37.391045,0 -67.702476,-30.31144 -67.702476,-67.70248 0,-37.39105 30.311431,-67.70248 67.702476,-67.70248 37.391047,0 67.702477,30.31143 67.702477,67.70248 z"
       sodipodi:ry="67.702477"
       sodipodi:rx="67.702477"
       sodipodi:cy="190.45276"
       sodipodi:cx="98.706413"
       id="path2985-6"
       style="fill:none;stroke:#0000ff;stroke-width:21.64073944;stroke-linecap:butt;stroke-linejoin:miter;stroke-miterlimit:4;stroke-opacity:1;stroke-dasharray:none;stroke-dashoffset:0"
       sodipodi:type="arc" />
    <path
       transform="matrix(0.17234805,0,0,0.17213781,140.04615,852.64638)"
       d="m 85.419009,180.80357 c 0,1.13571 -0.920675,2.05639 -2.056384,2.05639 -1.135709,0 -2.056383,-0.92068 -2.056383,-2.05639 0,-1.13571 0.920674,-2.05638 2.056383,-2.05638 1.135709,0 2.056384,0.92067 2.056384,2.05638 z"
       sodipodi:ry="2.0563836"
       sodipodi:rx="2.0563836"
       sodipodi:cy="180.80357"
       sodipodi:cx="83.362625"
       id="path2987-2"
       style="fill:#0000ff;stroke:#0000ff;stroke-width:5.80575466;stroke-linecap:butt;stroke-linejoin:miter;stroke-miterlimit:4;stroke-opacity:1;stroke-dasharray:none;stroke-dashoffset:0"
       sodipodi:type="arc" />
    <path
       transform="matrix(0.04623735,0,0,0.04618095,481.78773,875.20734)"
       d="m 166.40889,190.45276 c 0,37.39104 -30.31143,67.70248 -67.702477,67.70248 -37.391045,0 -67.702476,-30.31144 -67.702476,-67.70248 0,-37.39105 30.311431,-67.70248 67.702476,-67.70248 37.391047,0 67.702477,30.31143 67.702477,67.70248 z"
       sodipodi:ry="67.702477"
       sodipodi:rx="67.702477"
       sodipodi:cy="190.45276"
       sodipodi:cx="98.706413"
       id="path2985-6-7"
       style="fill:none;stroke:#0000ff;stroke-width:21.64073944;stroke-linecap:butt;stroke-linejoin:miter;stroke-miterlimit:4;stroke-opacity:1;stroke-dasharray:none;stroke-dashoffset:0"
       sodipodi:type="arc" />
    <path
       transform="matrix(0.17234805,0,0,0.17213781,471.98427,852.8795)"
       d="m 85.419009,180.80357 c 0,1.13571 -0.920675,2.05639 -2.056384,2.05639 -1.135709,0 -2.056383,-0.92068 -2.056383,-2.05639 0,-1.13571 0.920674,-2.05638 2.056383,-2.05638 1.135709,0 2.056384,0.92067 2.056384,2.05638 z"
       sodipodi:ry="2.0563836"
       sodipodi:rx="2.0563836"
       sodipodi:cy="180.80357"
       sodipodi:cx="83.362625"
       id="path2987-2-4"
       style="fill:#0000ff;stroke:#0000ff;stroke-width:5.80575466;stroke-linecap:butt;stroke-linejoin:miter;stroke-miterlimit:4;stroke-opacity:1;stroke-dasharray:none;stroke-dashoffset:0"
       sodipodi:type="arc" />
    <path
       inkscape:connector-curvature="0"
       id="path3052"
       d="m 233.88546,807.92967 0,30.77214 c -41.54643,0 -42.01325,0 -42.01325,0"
       style="fill:none;stroke:#000000;stroke-width:1px;stroke-linecap:butt;stroke-linejoin:miter;stroke-opacity:1;marker-start:url(#Arrow1Mstart);marker-end:url(#Arrow1Mend)" />
    <path
       inkscape:connector-curvature="0"
       id="path3054"
       d="m 412.64485,868.99971 0,-30.30589 c 34.07742,0 34.07742,0 34.07742,0"
       style="fill:none;stroke:#000000;stroke-width:1px;stroke-linecap:butt;stroke-linejoin:miter;stroke-opacity:1;marker-start:url(#Arrow1Mstart);marker-end:url(#Arrow1Mend)" />
    <path
       sodipodi:open="true"
       sodipodi:end="10.053345"
       sodipodi:start="5.6915168"
       transform="matrix(0.29648844,0,0,0.29612677,205.52343,832.18382)"
       d="m 154.90023,152.69193 c 20.85473,31.03498 12.602,73.09991 -18.43299,93.95464 C 105.43226,267.50131 63.367329,259.24858 42.512597,228.21359 26.65869,204.62058 27.230384,173.63673 43.94385,150.64463"
       sodipodi:ry="67.702477"
       sodipodi:rx="67.702477"
       sodipodi:cy="190.45276"
       sodipodi:cx="98.706413"
       id="path2985-3"
       style="fill:none;stroke:#0000ff;stroke-width:3.37487173;stroke-linecap:butt;stroke-linejoin:miter;stroke-miterlimit:4;stroke-opacity:1;stroke-dasharray:none;stroke-dashoffset:0;marker-start:url(#Arrow1Mstart);marker-end:none"
       sodipodi:type="arc" />
    <path
       sodipodi:open="true"
       sodipodi:end="10.037573"
       sodipodi:start="5.7434125"
       transform="matrix(0.29648844,0,0,0.29612677,383.1841,832.68912)"
       d="m 156.78332,155.65767 c 19.2168,32.07499 8.79317,73.6552 -23.28182,92.872 -32.07499,19.21679 -73.6552,8.79317 -92.871995,-23.28183 -13.750573,-22.95125 -12.695063,-51.8477 2.693329,-73.73458"
       sodipodi:ry="67.702477"
       sodipodi:rx="67.702477"
       sodipodi:cy="190.45276"
       sodipodi:cx="98.706413"
       id="path2985-3-0"
       style="fill:none;stroke:#0000ff;stroke-width:3.37487173;stroke-linecap:butt;stroke-linejoin:miter;stroke-miterlimit:4;stroke-opacity:1;stroke-dasharray:none;stroke-dashoffset:0;marker-start:url(#Arrow1Mstart);marker-end:none"
       sodipodi:type="arc" />
    <g
       transform="matrix(0.63768145,0,0,0.63690358,376.94739,780.92687)"
       id="g5435">
      <g
         style="font-style:normal;font-variant:normal;font-weight:normal;font-stretch:normal;letter-spacing:normal;word-spacing:normal;text-anchor:start;fill:none;stroke:#000000;stroke-width:1.56913853;stroke-linecap:butt;stroke-linejoin:miter;stroke-miterlimit:10.43299961;stroke-opacity:1;stroke-dasharray:none;stroke-dashoffset:0"
         word-spacing="normal"
         letter-spacing="normal"
         font-size-adjust="none"
         font-stretch="normal"
         font-weight="normal"
         font-variant="normal"
         font-style="normal"
         stroke-miterlimit="10.433"
         xml:space="preserve"
         transform="matrix(0.53149606,0,0,-0.53149606,-93.01181,393.30707)"
         id="content"><path
           style="fill:#000000;stroke-width:0"
           inkscape:connector-curvature="0"
           id="path5438"
           d="m 485.66,424.73 0,0.21 -0.01,0.2 -0.01,0.2 -0.02,0.19 -0.02,0.18 -0.03,0.18 -0.03,0.17 -0.04,0.16 -0.04,0.16 -0.04,0.16 -0.05,0.14 -0.05,0.14 -0.05,0.13 -0.06,0.13 -0.07,0.12 -0.06,0.12 -0.07,0.1 -0.07,0.1 -0.08,0.1 -0.08,0.09 -0.08,0.08 -0.08,0.07 -0.08,0.07 -0.09,0.06 -0.09,0.05 -0.09,0.05 -0.1,0.04 -0.09,0.03 -0.1,0.02 -0.1,0.02 -0.1,0.01 -0.1,0 c -1.3,0 -2.64,-1.18 -2.64,-2.34 0,-0.48 0.23,-1.03 0.73,-1.48 0.86,-0.75 1.75,-2.1 1.75,-4.19 0,-2 -0.95,-4.83 -2.48,-7.13 -1.5,-2.14 -3.35,-3.82 -5.69,-3.82 -2.85,0 -4.39,1.78 -4.83,4.46 0.55,1.3 1.69,4.49 1.69,5.9 0,0.59 -0.25,1.09 -0.89,1.09 -0.41,0 -0.96,-0.11 -1.35,-0.84 -0.54,-1 -1.15,-4.24 -1.15,-6.04 -1.64,-2.34 -3.63,-4.57 -6.77,-4.57 -3.3,0 -4.34,2.93 -4.34,5.71 0,6.24 5.09,11.47 5.09,12.11 0,0.55 -0.41,0.96 -0.95,0.96 -0.66,0 -1,-0.66 -1.3,-1.11 -2.55,-3.69 -4.44,-9.61 -4.44,-14.14 0,-3.44 1.16,-7.13 5.24,-7.13 3.53,0 5.87,2.49 7.67,5.24 0.45,-2.89 2.39,-5.24 5.48,-5.24 3.89,0 6.29,3.03 8.07,6.78 1.2,2.44 3.09,9.21 3.09,12.3 z" /></g>    </g>
    <g
       transform="matrix(0.63768145,0,0,0.63690358,61.807934,782.73605)"
       id="g5490">
      <g
         style="font-style:normal;font-variant:normal;font-weight:normal;font-stretch:normal;letter-spacing:normal;word-spacing:normal;text-anchor:start;fill:none;stroke:#000000;stroke-width:1.56913853;stroke-linecap:butt;stroke-linejoin:miter;stroke-miterlimit:10.43299961;stroke-opacity:1;stroke-dasharray:none;stroke-dashoffset:0"
         id="g5492"
         transform="matrix(0.53149606,0,0,-0.53149606,-93.01181,393.30707)"
         xml:space="preserve"
         stroke-miterlimit="10.433"
         font-style="normal"
         font-variant="normal"
         font-weight="normal"
         font-stretch="normal"
         font-size-adjust="none"
         letter-spacing="normal"
         word-spacing="normal"><path
           style="fill:#000000;stroke-width:0"
           inkscape:connector-curvature="0"
           d="m 485.66,424.73 0,0.21 -0.01,0.2 -0.01,0.2 -0.02,0.19 -0.02,0.18 -0.03,0.18 -0.03,0.17 -0.04,0.16 -0.04,0.16 -0.04,0.16 -0.05,0.14 -0.05,0.14 -0.05,0.13 -0.06,0.13 -0.07,0.12 -0.06,0.12 -0.07,0.1 -0.07,0.1 -0.08,0.1 -0.08,0.09 -0.08,0.08 -0.08,0.07 -0.08,0.07 -0.09,0.06 -0.09,0.05 -0.09,0.05 -0.1,0.04 -0.09,0.03 -0.1,0.02 -0.1,0.02 -0.1,0.01 -0.1,0 c -1.3,0 -2.64,-1.18 -2.64,-2.34 0,-0.48 0.23,-1.03 0.73,-1.48 0.86,-0.75 1.75,-2.1 1.75,-4.19 0,-2 -0.95,-4.83 -2.48,-7.13 -1.5,-2.14 -3.35,-3.82 -5.69,-3.82 -2.85,0 -4.39,1.78 -4.83,4.46 0.55,1.3 1.69,4.49 1.69,5.9 0,0.59 -0.25,1.09 -0.89,1.09 -0.41,0 -0.96,-0.11 -1.35,-0.84 -0.54,-1 -1.15,-4.24 -1.15,-6.04 -1.64,-2.34 -3.63,-4.57 -6.77,-4.57 -3.3,0 -4.34,2.93 -4.34,5.71 0,6.24 5.09,11.47 5.09,12.11 0,0.55 -0.41,0.96 -0.95,0.96 -0.66,0 -1,-0.66 -1.3,-1.11 -2.55,-3.69 -4.44,-9.61 -4.44,-14.14 0,-3.44 1.16,-7.13 5.24,-7.13 3.53,0 5.87,2.49 7.67,5.24 0.45,-2.89 2.39,-5.24 5.48,-5.24 3.89,0 6.29,3.03 8.07,6.78 1.2,2.44 3.09,9.21 3.09,12.3 z"
           id="path5494" /></g>    </g>
    <g
       id="g5632"
       transform="matrix(0.63768145,0,0,0.63690358,141.54738,717.16652)">
      <g
         id="g5634"
         transform="matrix(0.53149606,0,0,-0.53149606,-93.01181,393.30707)"
         xml:space="preserve"
         stroke-miterlimit="10.433"
         font-style="normal"
         font-variant="normal"
         font-weight="normal"
         font-stretch="normal"
         font-size-adjust="none"
         letter-spacing="normal"
         word-spacing="normal"
         style="font-style:normal;font-variant:normal;font-weight:normal;font-stretch:normal;letter-spacing:normal;word-spacing:normal;text-anchor:start;fill:none;stroke:#000000;stroke-width:1.56913853;stroke-linecap:butt;stroke-linejoin:miter;stroke-miterlimit:10.43299961;stroke-opacity:1;stroke-dasharray:none;stroke-dashoffset:0"><path
           d="m 470.61,422.39 h 4.83 c 3.75,0 4.14,-0.8 4.14,-2.24 0,-0.36 0,-0.95 -0.34,-2.44 -0.11,-0.25 -0.16,-0.45 -0.16,-0.56 0,-0.39 0.3,-0.59 0.6,-0.59 0.5,0 0.5,0.15 0.75,1.05 l 2.75,10.81 c 0.14,0.54 0.14,0.65 0.14,0.79 0,0.1 -0.1,0.55 -0.6,0.55 -0.5,0 -0.54,-0.25 -0.75,-1.05 -1.04,-3.87 -2.18,-4.78 -6.42,-4.78 h -4.53 l 3.19,12.66 c 0.43,1.75 0.5,1.94 2.68,1.94 h 6.58 c 6.13,0 7.27,-1.64 7.27,-5.47 0,-1.16 0,-1.35 -0.14,-2.7 -0.11,-0.65 -0.11,-0.74 -0.11,-0.9 0,-0.25 0.15,-0.59 0.61,-0.59 0.54,0 0.59,0.3 0.69,1.25 l 1,8.61 c 0.15,1.34 -0.1,1.34 -1.35,1.34 h -24.4 c -1,0 -1.5,0 -1.5,-1 0,-0.54 0.45,-0.54 1.39,-0.54 1.84,0 3.23,0 3.23,-0.89 0,-0.21 0,-0.3 -0.25,-1.21 l -6.56,-26.34 c -0.5,-1.95 -0.61,-2.34 -4.55,-2.34 -0.84,0 -1.39,0 -1.39,-0.96 0,-0.59 0.59,-0.59 0.75,-0.59 1.44,0 5.13,0.16 6.58,0.16 1.64,0 5.78,-0.16 7.42,-0.16 0.45,0 1.05,0 1.05,0.95 0,0.39 -0.3,0.49 -0.3,0.55 -0.16,0.05 -0.25,0.05 -1.39,0.05 -1.11,0 -1.36,0 -2.59,0.09 -1.46,0.16 -1.6,0.36 -1.6,1 0,0.09 0,0.41 0.19,1.14 z"
           id="path5636"
           inkscape:connector-curvature="0"
           style="fill:#000000;stroke-width:0" /><path
           d="m 513.48,422.36 0,0.05 0,0.05 0,0.05 0,0.05 0,0.05 0,0.05 -0.01,0.04 0,0.05 0,0.04 0,0.04 -0.01,0.04 -0.01,0.03 0,0.04 -0.01,0.03 -0.01,0.03 -0.01,0.03 -0.01,0.03 -0.02,0.02 -0.01,0.03 -0.02,0.02 -0.02,0.02 -0.02,0.02 -0.02,0.02 -0.02,0.01 -0.03,0.02 -0.03,0.01 -0.03,0.01 -0.03,0.01 -0.02,0 -0.02,0 -0.02,0.01 -0.02,0 -0.02,0 -0.02,0 -0.02,0 -0.02,0 c -0.15,0 -0.32,0 -0.6,-0.42 l -1.84,-2.66 c -1.47,1.47 -3.88,3.08 -7.22,3.08 -7.31,0 -13.34,-5.65 -13.34,-12.58 0,-7.07 6.14,-12.62 13.34,-12.62 6.17,0 10.14,4.61 10.14,8.86 0,0.37 -0.03,0.65 -0.59,0.65 -0.21,0 -0.55,0 -0.6,-0.45 -0.28,-5.61 -5.01,-7.8 -8.47,-7.8 -3.71,0 -10.09,2.27 -10.09,11.32 0,9.45 6.75,11.36 10.03,11.36 3.45,0 7.56,-2.3 8.47,-8.29 0.06,-0.42 0.37,-0.42 0.62,-0.42 0.63,0 0.63,0.21 0.63,0.91 z"
           id="path5638"
           inkscape:connector-curvature="0"
           style="fill:#000000;stroke-width:0" /><path
           d="m 534.43,406.18 -0.01,0.41 -0.03,0.4 -0.05,0.4 -0.08,0.39 -0.09,0.39 -0.11,0.38 -0.13,0.38 -0.15,0.36 -0.17,0.36 -0.19,0.35 -0.2,0.34 -0.22,0.33 -0.24,0.32 -0.25,0.31 -0.26,0.3 -0.28,0.28 -0.3,0.27 -0.31,0.26 -0.32,0.25 -0.33,0.23 -0.35,0.21 -0.36,0.2 -0.37,0.19 -0.38,0.16 -0.39,0.15 -0.4,0.13 -0.41,0.12 -0.41,0.09 -0.43,0.07 -0.43,0.06 -0.45,0.03 -0.44,0.01 v -0.99 c 2.06,0 3.53,-0.96 4.29,-2.04 0.97,-1.36 1.08,-3.11 1.08,-4.78 0,-1.68 -0.11,-3.52 -1.12,-4.96 -0.94,-1.31 -2.54,-2.01 -4.25,-2.01 h 0 c -1.29,0 -3.17,0.42 -4.32,2.12 -0.93,1.44 -1.04,3.24 -1.04,4.85 0,1.5 0.03,3.56 1.25,5.04 0.87,1.02 2.34,1.78 4.11,1.78 v 0.99 c -4.8,0 -8.54,-3.77 -8.54,-8.13 0,-4.32 3.83,-7.76 8.54,-7.76 4.7,0 8.54,3.44 8.54,7.76 z"
           id="path5640"
           inkscape:connector-curvature="0"
           style="fill:#000000;stroke-width:0" /><path
           d="m 542.73,406.7 0,0.28 0.02,0.28 0.02,0.28 0.02,0.28 0.04,0.28 0.05,0.29 0.05,0.28 0.06,0.28 0.08,0.27 0.08,0.28 0.09,0.27 0.09,0.26 0.11,0.26 0.12,0.25 0.13,0.25 0.13,0.24 0.15,0.23 0.16,0.22 0.16,0.21 0.18,0.19 0.18,0.19 0.2,0.18 0.21,0.16 0.21,0.15 0.23,0.13 0.24,0.12 0.25,0.1 0.26,0.09 0.27,0.06 0.28,0.05 0.3,0.03 0.3,0.01 c -0.31,-0.25 -0.59,-0.7 -0.59,-1.25 0,-1.15 0.91,-1.61 1.56,-1.61 0.85,0 1.61,0.57 1.61,1.61 0,1.19 -1.13,2.22 -2.76,2.22 -1.74,0 -3.66,-1.08 -4.71,-3.72 h -0.03 v 3.72 l -4.98,-0.37 v -1.25 c 2.34,0 2.62,-0.25 2.62,-1.96 v -9.03 c 0,-1.5 -0.36,-1.5 -2.62,-1.5 v -1.25 c 0.17,0 2.54,0.14 3.97,0.14 1.5,0 3.04,-0.08 4.53,-0.14 v 1.25 h -0.69 c -2.58,0 -2.58,0.39 -2.58,1.58 z"
           id="path5642"
           inkscape:connector-curvature="0"
           style="fill:#000000;stroke-width:0" /></g>    </g>
    <g
       id="g5718"
       transform="matrix(0.63768145,0,0,0.63690358,282.64052,752.37823)">
      <g
         word-spacing="normal"
         letter-spacing="normal"
         font-size-adjust="none"
         font-stretch="normal"
         font-weight="normal"
         font-variant="normal"
         font-style="normal"
         stroke-miterlimit="10.433"
         xml:space="preserve"
         transform="matrix(0.53149606,0,0,-0.53149606,-93.01181,393.30707)"
         id="g5720"
         style="font-style:normal;font-variant:normal;font-weight:normal;font-stretch:normal;letter-spacing:normal;word-spacing:normal;text-anchor:start;fill:none;stroke:#000000;stroke-width:1.56913853;stroke-linecap:butt;stroke-linejoin:miter;stroke-miterlimit:10.43299961;stroke-opacity:1;stroke-dasharray:none;stroke-dashoffset:0"><path
           id="path5722"
           d="m 470.61,422.39 h 4.83 c 3.75,0 4.14,-0.8 4.14,-2.24 0,-0.36 0,-0.95 -0.34,-2.44 -0.11,-0.25 -0.16,-0.45 -0.16,-0.56 0,-0.39 0.3,-0.59 0.6,-0.59 0.5,0 0.5,0.15 0.75,1.05 l 2.75,10.81 c 0.14,0.54 0.14,0.65 0.14,0.79 0,0.1 -0.1,0.55 -0.6,0.55 -0.5,0 -0.54,-0.25 -0.75,-1.05 -1.04,-3.87 -2.18,-4.78 -6.42,-4.78 h -4.53 l 3.19,12.66 c 0.43,1.75 0.5,1.94 2.68,1.94 h 6.58 c 6.13,0 7.27,-1.64 7.27,-5.47 0,-1.16 0,-1.35 -0.14,-2.7 -0.11,-0.65 -0.11,-0.74 -0.11,-0.9 0,-0.25 0.15,-0.59 0.61,-0.59 0.54,0 0.59,0.3 0.69,1.25 l 1,8.61 c 0.15,1.34 -0.1,1.34 -1.35,1.34 h -24.4 c -1,0 -1.5,0 -1.5,-1 0,-0.54 0.45,-0.54 1.39,-0.54 1.84,0 3.23,0 3.23,-0.89 0,-0.21 0,-0.3 -0.25,-1.21 l -6.56,-26.34 c -0.5,-1.95 -0.61,-2.34 -4.55,-2.34 -0.84,0 -1.39,0 -1.39,-0.96 0,-0.59 0.59,-0.59 0.75,-0.59 1.44,0 5.13,0.16 6.58,0.16 1.64,0 5.78,-0.16 7.42,-0.16 0.45,0 1.05,0 1.05,0.95 0,0.39 -0.3,0.49 -0.3,0.55 -0.16,0.05 -0.25,0.05 -1.39,0.05 -1.11,0 -1.36,0 -2.59,0.09 -1.46,0.16 -1.6,0.36 -1.6,1 0,0.09 0,0.41 0.19,1.14 z"
           inkscape:connector-curvature="0"
           style="fill:#000000;stroke-width:0" /><path
           id="path5724"
           d="m 513.48,422.36 0,0.05 0,0.05 0,0.05 0,0.05 0,0.05 0,0.05 -0.01,0.04 0,0.05 0,0.04 0,0.04 -0.01,0.04 -0.01,0.03 0,0.04 -0.01,0.03 -0.01,0.03 -0.01,0.03 -0.01,0.03 -0.02,0.02 -0.01,0.03 -0.02,0.02 -0.02,0.02 -0.02,0.02 -0.02,0.02 -0.02,0.01 -0.03,0.02 -0.03,0.01 -0.03,0.01 -0.03,0.01 -0.02,0 -0.02,0 -0.02,0.01 -0.02,0 -0.02,0 -0.02,0 -0.02,0 -0.02,0 c -0.15,0 -0.32,0 -0.6,-0.42 l -1.84,-2.66 c -1.47,1.47 -3.88,3.08 -7.22,3.08 -7.31,0 -13.34,-5.65 -13.34,-12.58 0,-7.07 6.14,-12.62 13.34,-12.62 6.17,0 10.14,4.61 10.14,8.86 0,0.37 -0.03,0.65 -0.59,0.65 -0.21,0 -0.55,0 -0.6,-0.45 -0.28,-5.61 -5.01,-7.8 -8.47,-7.8 -3.71,0 -10.09,2.27 -10.09,11.32 0,9.45 6.75,11.36 10.03,11.36 3.45,0 7.56,-2.3 8.47,-8.29 0.06,-0.42 0.37,-0.42 0.62,-0.42 0.63,0 0.63,0.21 0.63,0.91 z"
           inkscape:connector-curvature="0"
           style="fill:#000000;stroke-width:0" /><path
           id="path5726"
           d="m 534.43,406.18 -0.01,0.41 -0.03,0.4 -0.05,0.4 -0.08,0.39 -0.09,0.39 -0.11,0.38 -0.13,0.38 -0.15,0.36 -0.17,0.36 -0.19,0.35 -0.2,0.34 -0.22,0.33 -0.24,0.32 -0.25,0.31 -0.26,0.3 -0.28,0.28 -0.3,0.27 -0.31,0.26 -0.32,0.25 -0.33,0.23 -0.35,0.21 -0.36,0.2 -0.37,0.19 -0.38,0.16 -0.39,0.15 -0.4,0.13 -0.41,0.12 -0.41,0.09 -0.43,0.07 -0.43,0.06 -0.45,0.03 -0.44,0.01 v -0.99 c 2.06,0 3.53,-0.96 4.29,-2.04 0.97,-1.36 1.08,-3.11 1.08,-4.78 0,-1.68 -0.11,-3.52 -1.12,-4.96 -0.94,-1.31 -2.54,-2.01 -4.25,-2.01 h 0 c -1.29,0 -3.17,0.42 -4.32,2.12 -0.93,1.44 -1.04,3.24 -1.04,4.85 0,1.5 0.03,3.56 1.25,5.04 0.87,1.02 2.34,1.78 4.11,1.78 v 0.99 c -4.8,0 -8.54,-3.77 -8.54,-8.13 0,-4.32 3.83,-7.76 8.54,-7.76 4.7,0 8.54,3.44 8.54,7.76 z"
           inkscape:connector-curvature="0"
           style="fill:#000000;stroke-width:0" /><path
           id="path5728"
           d="m 542.73,406.7 0,0.28 0.02,0.28 0.02,0.28 0.02,0.28 0.04,0.28 0.05,0.29 0.05,0.28 0.06,0.28 0.08,0.27 0.08,0.28 0.09,0.27 0.09,0.26 0.11,0.26 0.12,0.25 0.13,0.25 0.13,0.24 0.15,0.23 0.16,0.22 0.16,0.21 0.18,0.19 0.18,0.19 0.2,0.18 0.21,0.16 0.21,0.15 0.23,0.13 0.24,0.12 0.25,0.1 0.26,0.09 0.27,0.06 0.28,0.05 0.3,0.03 0.3,0.01 c -0.31,-0.25 -0.59,-0.7 -0.59,-1.25 0,-1.15 0.91,-1.61 1.56,-1.61 0.85,0 1.61,0.57 1.61,1.61 0,1.19 -1.13,2.22 -2.76,2.22 -1.74,0 -3.66,-1.08 -4.71,-3.72 h -0.03 v 3.72 l -4.98,-0.37 v -1.25 c 2.34,0 2.62,-0.25 2.62,-1.96 v -9.03 c 0,-1.5 -0.36,-1.5 -2.62,-1.5 v -1.25 c 0.17,0 2.54,0.14 3.97,0.14 1.5,0 3.04,-0.08 4.53,-0.14 v 1.25 h -0.69 c -2.58,0 -2.58,0.39 -2.58,1.58 z"
           inkscape:connector-curvature="0"
           style="fill:#000000;stroke-width:0" /></g>    </g>
    <g
       transform="matrix(0.63768145,0,0,0.63690358,356.43661,734.17714)"
       id="g5810">
      <g
         style="font-style:normal;font-variant:normal;font-weight:normal;font-stretch:normal;letter-spacing:normal;word-spacing:normal;text-anchor:start;fill:none;stroke:#000000;stroke-width:1.56913853;stroke-linecap:butt;stroke-linejoin:miter;stroke-miterlimit:10.43299961;stroke-opacity:1;stroke-dasharray:none;stroke-dashoffset:0"
         id="g5812"
         transform="matrix(0.53149606,0,0,-0.53149606,-93.01181,393.30707)"
         xml:space="preserve"
         stroke-miterlimit="10.433"
         font-style="normal"
         font-variant="normal"
         font-weight="normal"
         font-stretch="normal"
         font-size-adjust="none"
         letter-spacing="normal"
         word-spacing="normal"><path
           style="fill:#000000;stroke-width:0"
           inkscape:connector-curvature="0"
           d="m 478.83,424.73 0,0.12 0,0.13 -0.01,0.12 0,0.11 -0.01,0.12 -0.01,0.11 -0.01,0.11 -0.02,0.1 -0.03,0.21 -0.03,0.19 -0.05,0.18 -0.04,0.18 -0.06,0.16 -0.06,0.16 -0.06,0.15 -0.07,0.13 -0.07,0.13 -0.07,0.12 -0.08,0.12 -0.08,0.1 -0.08,0.1 -0.09,0.09 -0.08,0.08 -0.09,0.07 -0.09,0.07 -0.09,0.06 -0.1,0.05 -0.09,0.05 -0.09,0.04 -0.09,0.03 -0.09,0.03 -0.1,0.03 -0.09,0.01 -0.08,0.02 -0.09,0 -0.09,0 c -1.25,0 -2.43,-1.29 -2.43,-2.39 0,-0.64 0.25,-0.93 0.79,-1.48 1.05,-1 1.69,-2.3 1.69,-4.09 0,-2.1 -3.03,-13.5 -8.86,-13.5 -2.54,0 -3.69,1.75 -3.69,4.32 0,2.8 1.35,6.44 2.9,10.57 0.34,0.86 0.59,1.54 0.59,2.5 0,2.23 -1.59,4.07 -4.09,4.07 -4.68,0 -6.58,-7.21 -6.58,-7.67 0,-0.5 0.5,-0.5 0.61,-0.5 0.5,0 0.54,0.11 0.79,0.91 1.44,5.03 3.58,6.17 5.03,6.17 0.4,0 1.25,0 1.25,-1.59 0,-1.25 -0.5,-2.6 -0.85,-3.49 -2.19,-5.78 -2.83,-8.08 -2.83,-10.22 0,-5.37 4.37,-6.17 6.67,-6.17 8.37,0 11.2,16.49 11.2,19.08 z"
           id="path5814" /><polyline
           style="fill:#000000;fill-rule:nonzero;stroke-width:0"
           points="456,398 482.04,398 482.04,400.04 456,400.04 "
           id="polyline5816" /><path
           style="fill:#000000;stroke-width:0"
           inkscape:connector-curvature="0"
           d="m 491.55,440.65 0.03,0.06 0.02,0.05 0.02,0.05 0.03,0.05 0.02,0.04 0.01,0.05 0.02,0.04 0.02,0.04 0.01,0.05 0.02,0.04 0.01,0.03 0.01,0.04 0.01,0.04 0.01,0.03 0.01,0.04 0.01,0.03 0.01,0.03 0.01,0.03 0,0.03 0.01,0.03 0,0.03 0.01,0.03 0,0.03 0,0.02 0.01,0.06 0,0.05 0,0.04 0,0.05 c 0,1.08 -0.98,1.92 -2.06,1.92 -1.33,0 -1.73,-1.09 -1.91,-1.64 l -4.6,-15.09 c -0.04,-0.06 -0.18,-0.52 -0.18,-0.56 0,-0.41 1.08,-0.77 1.36,-0.77 0.25,0 0.28,0.08 0.52,0.59 z"
           id="path5818" /></g>    </g>
    <g
       id="g5910"
       transform="matrix(0.63768145,0,0,0.63690358,79.72514,732.53911)">
      <g
         word-spacing="normal"
         letter-spacing="normal"
         font-size-adjust="none"
         font-stretch="normal"
         font-weight="normal"
         font-variant="normal"
         font-style="normal"
         stroke-miterlimit="10.433"
         xml:space="preserve"
         transform="matrix(0.53149606,0,0,-0.53149606,-93.01181,393.30707)"
         id="g5912"
         style="font-style:normal;font-variant:normal;font-weight:normal;font-stretch:normal;letter-spacing:normal;word-spacing:normal;text-anchor:start;fill:none;stroke:#000000;stroke-width:1.56913853;stroke-linecap:butt;stroke-linejoin:miter;stroke-miterlimit:10.43299961;stroke-opacity:1;stroke-dasharray:none;stroke-dashoffset:0"><path
           id="path5914"
           d="m 478.83,424.73 0,0.12 0,0.13 -0.01,0.12 0,0.11 -0.01,0.12 -0.01,0.11 -0.01,0.11 -0.02,0.1 -0.03,0.21 -0.03,0.19 -0.05,0.18 -0.04,0.18 -0.06,0.16 -0.06,0.16 -0.06,0.15 -0.07,0.13 -0.07,0.13 -0.07,0.12 -0.08,0.12 -0.08,0.1 -0.08,0.1 -0.09,0.09 -0.08,0.08 -0.09,0.07 -0.09,0.07 -0.09,0.06 -0.1,0.05 -0.09,0.05 -0.09,0.04 -0.09,0.03 -0.09,0.03 -0.1,0.03 -0.09,0.01 -0.08,0.02 -0.09,0 -0.09,0 c -1.25,0 -2.43,-1.29 -2.43,-2.39 0,-0.64 0.25,-0.93 0.79,-1.48 1.05,-1 1.69,-2.3 1.69,-4.09 0,-2.1 -3.03,-13.5 -8.86,-13.5 -2.54,0 -3.69,1.75 -3.69,4.32 0,2.8 1.35,6.44 2.9,10.57 0.34,0.86 0.59,1.54 0.59,2.5 0,2.23 -1.59,4.07 -4.09,4.07 -4.68,0 -6.58,-7.21 -6.58,-7.67 0,-0.5 0.5,-0.5 0.61,-0.5 0.5,0 0.54,0.11 0.79,0.91 1.44,5.03 3.58,6.17 5.03,6.17 0.4,0 1.25,0 1.25,-1.59 0,-1.25 -0.5,-2.6 -0.85,-3.49 -2.19,-5.78 -2.83,-8.08 -2.83,-10.22 0,-5.37 4.37,-6.17 6.67,-6.17 8.37,0 11.2,16.49 11.2,19.08 z"
           inkscape:connector-curvature="0"
           style="fill:#000000;stroke-width:0" /><polyline
           id="polyline5916"
           points="456,398 482.04,398 482.04,400.04 456,400.04 "
           style="fill:#000000;fill-rule:nonzero;stroke-width:0" /><path
           id="path5918"
           d="m 491.55,440.65 0.03,0.06 0.02,0.05 0.02,0.05 0.03,0.05 0.02,0.04 0.01,0.05 0.02,0.04 0.02,0.04 0.01,0.05 0.02,0.04 0.01,0.03 0.01,0.04 0.01,0.04 0.01,0.03 0.01,0.04 0.01,0.03 0.01,0.03 0.01,0.03 0,0.03 0.01,0.03 0,0.03 0.01,0.03 0,0.03 0,0.02 0.01,0.06 0,0.05 0,0.04 0,0.05 c 0,1.08 -0.98,1.92 -2.06,1.92 -1.33,0 -1.73,-1.09 -1.91,-1.64 l -4.6,-15.09 c -0.04,-0.06 -0.18,-0.52 -0.18,-0.56 0,-0.41 1.08,-0.77 1.36,-0.77 0.25,0 0.28,0.08 0.52,0.59 z"
           inkscape:connector-curvature="0"
           style="fill:#000000;stroke-width:0" /></g>    </g>
  </g>
</svg>
