<?xml version="1.0" encoding="UTF-8" standalone="no"?>
<!-- Created with Inkscape (http://www.inkscape.org/) -->

<svg
   xmlns:dc="http://purl.org/dc/elements/1.1/"
   xmlns:cc="http://creativecommons.org/ns#"
   xmlns:rdf="http://www.w3.org/1999/02/22-rdf-syntax-ns#"
   xmlns:svg="http://www.w3.org/2000/svg"
   xmlns="http://www.w3.org/2000/svg"
   xmlns:sodipodi="http://sodipodi.sourceforge.net/DTD/sodipodi-0.dtd"
   xmlns:inkscape="http://www.inkscape.org/namespaces/inkscape"
   id="svg2"
   version="1.1"
   inkscape:version="0.48.2 r9819"
   width="165.44023"
   height="143.91844"
   xml:space="preserve"
   sodipodi:docname="equilibrium potentail.svg"><sodipodi:namedview
     pagecolor="#ffffff"
     bordercolor="#666666"
     borderopacity="1"
     objecttolerance="10"
     gridtolerance="10"
     guidetolerance="10"
     inkscape:pageopacity="0"
     inkscape:pageshadow="2"
     inkscape:window-width="1366"
     inkscape:window-height="743"
     id="namedview4"
     showgrid="false"
     inkscape:zoom="2.6488275"
     inkscape:cx="-7.532279"
     inkscape:cy="53.001241"
     inkscape:window-x="0"
     inkscape:window-y="3"
     inkscape:window-maximized="1"
     inkscape:current-layer="g10"
     fit-margin-top="0"
     fit-margin-left="0"
     fit-margin-right="0"
     fit-margin-bottom="0" /><metadata
     id="metadata8"><rdf:RDF><cc:Work
         rdf:about=""><dc:format>image/svg+xml</dc:format><dc:type
           rdf:resource="http://purl.org/dc/dcmitype/StillImage" /><dc:title /></cc:Work></rdf:RDF></metadata><defs
     id="defs6"><marker
       inkscape:stockid="Arrow1Send"
       orient="auto"
       refY="0"
       refX="0"
       id="Arrow1Send"
       style="overflow:visible"><path
         inkscape:connector-curvature="0"
         id="path3827"
         d="M 0,0 5,-5 -12.5,0 5,5 0,0 z"
         style="fill-rule:evenodd;stroke:#000000;stroke-width:1pt;marker-start:none"
         transform="matrix(-0.2,0,0,-0.2,-1.2,0)" /></marker><marker
       inkscape:stockid="Arrow1Sstart"
       orient="auto"
       refY="0"
       refX="0"
       id="Arrow1Sstart"
       style="overflow:visible"><path
         inkscape:connector-curvature="0"
         id="path3824"
         d="M 0,0 5,-5 -12.5,0 5,5 0,0 z"
         style="fill-rule:evenodd;stroke:#000000;stroke-width:1pt;marker-start:none"
         transform="matrix(0.2,0,0,0.2,1.2,0)" /></marker></defs><g
     id="g10"
     inkscape:groupmode="layer"
     inkscape:label="ink_ext_XXXXXX"
     transform="matrix(1.25,0,0,-1.25,-113.98755,225.0637)"><path
       style="fill:none;stroke:#0000ff;stroke-width:0.80000001px;stroke-linecap:butt;stroke-linejoin:miter;stroke-opacity:1;marker-end:url(#Arrow1Send)"
       d="m 91.590043,77.851917 130.812187,0"
       id="path3039"
       inkscape:connector-curvature="0" /><path
       style="fill:none;stroke:#0000ff;stroke-width:0.79999995px;stroke-linecap:butt;stroke-linejoin:miter;stroke-opacity:1;marker-start:url(#Arrow1Sstart)"
       d="m 157.58067,178.91096 0,-113.594756"
       id="path3037"
       inkscape:connector-curvature="0" /><g
       transform="matrix(0.92705468,0,0,-0.92753923,151.73523,164.59699)"
       id="g5639"><g
         style="font-style:normal;font-variant:normal;font-weight:normal;font-stretch:normal;letter-spacing:normal;word-spacing:normal;text-anchor:start;fill:none;stroke:#000000;stroke-width:1.07840323;stroke-linecap:butt;stroke-linejoin:miter;stroke-miterlimit:10.43299961;stroke-opacity:1;stroke-dasharray:none;stroke-dashoffset:0"
         word-spacing="normal"
         letter-spacing="normal"
         font-size-adjust="none"
         font-stretch="normal"
         font-weight="normal"
         font-variant="normal"
         font-style="normal"
         stroke-miterlimit="10.433"
         xml:space="preserve"
         transform="matrix(0.24789043,0,0,-0.24789043,-43.380825,202.33363)"
         id="g5641"><path
           style="fill:#000000;stroke-width:0"
           inkscape:connector-curvature="0"
           id="path5643"
           d="m 472.16,421.25 0.03,0.13 0.04,0.15 0.04,0.16 0.04,0.18 0.06,0.19 0.06,0.21 0.06,0.22 0.07,0.22 0.08,0.23 0.09,0.24 0.1,0.25 0.1,0.24 0.11,0.25 0.12,0.25 0.13,0.25 0.14,0.25 0.15,0.24 0.15,0.24 0.17,0.23 0.18,0.22 0.18,0.22 0.2,0.2 0.21,0.19 0.22,0.18 0.23,0.16 0.25,0.14 0.12,0.07 0.13,0.06 0.14,0.05 0.13,0.05 0.14,0.05 0.14,0.04 0.15,0.03 0.15,0.03 0.15,0.02 0.16,0.02 0.16,0.01 0.16,0 c 0.25,0 1.44,0 2.48,-0.64 -1.39,-0.25 -2.39,-1.5 -2.39,-2.69 0,-0.79 0.55,-1.75 1.89,-1.75 1.1,0 2.69,0.89 2.69,2.89 0,2.6 -2.94,3.28 -4.63,3.28 -2.89,0 -4.64,-2.64 -5.23,-3.78 -1.25,3.28 -3.94,3.78 -5.37,3.78 -5.19,0 -8.04,-6.42 -8.04,-7.67 0,-0.5 0.5,-0.5 0.61,-0.5 0.39,0 0.55,0.11 0.64,0.55 1.69,5.28 4.99,6.53 6.68,6.53 0.95,0 2.68,-0.44 2.68,-3.33 0,-1.54 -0.84,-4.89 -2.68,-11.86 -0.8,-3.09 -2.54,-5.18 -4.74,-5.18 -0.3,0 -1.44,0 -2.48,0.65 1.25,0.24 2.34,1.28 2.34,2.69 0,1.34 -1.09,1.73 -1.84,1.73 -1.5,0 -2.75,-1.29 -2.75,-2.89 0,-2.28 2.5,-3.28 4.68,-3.28 3.3,0 5.08,3.49 5.24,3.78 0.59,-1.84 2.39,-3.78 5.37,-3.78 5.14,0 7.99,6.42 7.99,7.67 0,0.5 -0.45,0.5 -0.61,0.5 -0.44,0 -0.55,-0.2 -0.64,-0.54 -1.64,-5.33 -5.03,-6.53 -6.63,-6.53 -1.95,0 -2.75,1.59 -2.75,3.29 0,1.1 0.3,2.19 0.86,4.38 z" /></g></g><path
       id="path5935"
       title="pow(x,2)"
       d="m 107.2762,164.60055 c 0.33875,-0.87914 0.67752,-1.74944 1.01627,-2.61085 0.33875,-0.86142 0.67749,-1.71391 1.01624,-2.55756 0.33875,-0.84365 0.6775,-1.67838 1.01625,-2.50429 0.33875,-0.82588 0.67751,-1.64286 1.01626,-2.45098 0.33875,-0.80815 0.6775,-1.60736 1.01625,-2.39772 0.33875,-0.79038 0.6775,-1.57184 1.01625,-2.34445 0.33876,-0.77262 0.67751,-1.53632 1.01626,-2.29115 0.33875,-0.75485 0.67749,-1.50078 1.01625,-2.23787 0.33874,-0.73708 0.67749,-1.46524 1.01624,-2.18459 0.33877,-0.71935 0.67751,-1.42974 1.01626,-2.1313 0.33875,-0.70157 0.6775,-1.39422 1.01625,-2.07804 0.33875,-0.6838 0.6775,-1.35867 1.01625,-2.02475 0.33876,-0.66601 0.67751,-1.32316 1.01626,-1.97143 0.33875,-0.64829 0.6775,-1.28766 1.01624,-1.91818 0.33876,-0.6305 0.6775,-1.25213 1.01627,-1.86489 0.33874,-0.61276 0.6775,-1.21662 1.01624,-1.81161 0.33875,-0.595 0.6775,-1.18108 1.01625,-1.75834 0.33875,-0.57722 0.6775,-1.14555 1.01626,-1.70503 0.33875,-0.55949 0.6775,-1.11005 1.01625,-1.65175 0.33875,-0.54174 0.6775,-1.07456 1.01625,-1.5985 0.33874,-0.52396 0.67751,-1.039 1.01626,-1.54519 0.33875,-0.50621 0.67749,-1.0035 1.01625,-1.49193 0.33874,-0.48842 0.67749,-0.96795 1.01624,-1.4386 0.33875,-0.4707 0.67751,-0.93245 1.01626,-1.38537 0.33875,-0.45292 0.6775,-0.89691 1.01625,-1.33208 0.33875,-0.43511 0.67749,-0.86138 1.01625,-1.27875 0.33876,-0.41742 0.67751,-0.82588 1.01626,-1.22553 0.33875,-0.39961 0.6775,-0.79031 1.01624,-1.1722 0.33876,-0.38188 0.6775,-0.75483 1.01625,-1.11894 0.33876,-0.36412 0.67752,-0.71931 1.01626,-1.06566 0.33875,-0.34636 0.6775,-0.68382 1.01625,-1.01241 0.33875,-0.3286 0.6775,-0.64829 1.01626,-0.95913 0.33875,-0.3108 0.6775,-0.61271 1.01625,-0.9058 0.33874,-0.29305 0.6775,-0.57721 1.01625,-0.85253 0.33874,-0.27527 0.6775,-0.54167 1.01626,-0.79921 0.33875,-0.25754 0.67749,-0.50618 1.01625,-0.74595 0.33874,-0.2398 0.67749,-0.47066 1.01624,-0.69269 0.33875,-0.22201 0.6775,-0.43513 1.01626,-0.63938 0.33875,-0.20427 0.6775,-0.39962 1.01625,-0.58613 0.33875,-0.18648 0.67749,-0.36407 1.01625,-0.53281 0.33874,-0.16878 0.67751,-0.32859 1.01625,-0.47955 0.33876,-0.15096 0.67751,-0.29304 1.01625,-0.42626 0.33876,-0.13325 0.6775,-0.25752 1.01625,-0.37299 0.33875,-0.11539 0.67752,-0.22199 1.01626,-0.31969 0.33875,-0.0977 0.6775,-0.186487 1.01625,-0.266405 0.33875,-0.07982 0.6775,-0.150954 1.01624,-0.213137 0.33877,-0.06228 0.67752,-0.115388 1.01627,-0.15971 0.33874,-0.04442 0.6775,-0.07983 1.01624,-0.106695 0.33875,-0.02671 0.67751,-0.04442 1.01625,-0.05343 0.33877,-0.01106 0.67751,-0.01106 1.01627,0 0.33874,0.0079 0.67749,0.02655 1.01624,0.05343 0.33875,0.02655 0.6775,0.06228 1.01626,0.106695 0.33875,0.04442 0.6775,0.09768 1.01625,0.15971 0.33875,0.06228 0.67749,0.13325 1.01625,0.213137 0.33874,0.07983 0.67749,0.168765 1.01625,0.266405 0.33876,0.0977 0.6775,0.20425 1.01625,0.31969 0.33876,0.11539 0.6775,0.23979 1.01625,0.37299 0.33875,0.13325 0.67752,0.27529 1.01626,0.42626 0.33875,0.15095 0.6775,0.31083 1.01625,0.47955 0.33875,0.16877 0.6775,0.34634 1.01624,0.53281 0.33876,0.18647 0.67752,0.38188 1.01627,0.58613 0.33874,0.20424 0.6775,0.41739 1.01624,0.63938 0.33875,0.22202 0.6775,0.45292 1.01625,0.69269 0.33875,0.23976 0.67751,0.48842 1.01627,0.74595 0.33874,0.2575 0.67749,0.52394 1.01624,0.79921 0.33875,0.2753 0.6775,0.5595 1.01625,0.85253 0.33876,0.29308 0.67751,0.59502 1.01626,0.9058 0.33875,0.31083 0.67749,0.63057 1.01625,0.95913 0.33874,0.32858 0.67749,0.66608 1.01624,1.01241 0.33877,0.34631 0.67751,0.70157 1.01626,1.06566 0.33875,0.36409 0.6775,0.73706 1.01625,1.11894 0.33875,0.38184 0.6775,0.77261 1.01626,1.1722 0.33875,0.39964 0.6775,0.80813 1.01625,1.22553 0.33875,0.41737 0.6775,0.84364 1.01624,1.27875 0.33876,0.43516 0.6775,0.8792 1.01627,1.33208 0.33874,0.4529 0.6775,0.9147 1.01624,1.38537 0.33875,0.47062 0.6775,0.95021 1.01625,1.4386 0.33875,0.48843 0.67751,0.98575 1.01626,1.49193 0.33875,0.50618 0.6775,1.02126 1.01625,1.54519 0.33875,0.52394 0.6775,1.05679 1.01625,1.5985 0.33874,0.54167 0.67751,1.09228 1.01626,1.65175 0.33875,0.55945 0.67749,1.12782 1.01625,1.70503 0.33874,0.57723 0.67749,1.16336 1.01624,1.75834 0.33877,0.59498 0.67751,1.19885 1.01626,1.81161 0.33875,0.61273 0.6775,1.23439 1.01625,1.86489 0.33875,0.63052 0.67749,1.2699 1.01625,1.91818 0.33876,0.64826 0.67751,1.30542 1.01626,1.97143 0.33875,0.66606 0.6775,1.34097 1.01624,2.02475 0.33876,0.68379 0.6775,1.37649 1.01625,2.07804 0.33876,0.70153 0.67752,1.412 1.01626,2.1313 0.33875,0.71931 0.6775,1.44753 1.01625,2.18459 0.33875,0.73708 0.6775,1.48305 1.01626,2.23787 0.33875,0.75481 0.6775,1.51856 1.01625,2.29115 0.33874,0.77261 0.6775,1.55409 1.01625,2.34445 0.33874,0.79035 0.6775,1.58961 1.01626,2.39772 0.33875,0.80812 0.67749,1.62511 1.01625,2.45098 0.33874,0.82588 0.67749,1.66066 1.01624,2.50429 0.33875,0.84362 0.67751,1.69619 1.01626,2.55756 0.33875,0.8614 0.6775,1.73171 1.01625,2.61085"
       style="fill:none;stroke:#ff0000;stroke-width:0.80000001;stroke-linecap:butt;stroke-linejoin:miter;stroke-miterlimit:4;stroke-opacity:1;stroke-dasharray:none;stroke-dashoffset:0"
       inkscape:connector-curvature="0" /><g
       transform="matrix(1.3552948,0,0,-1.3560032,81.283501,252.79437)"
       id="g5968"><g
         style="font-style:normal;font-variant:normal;font-weight:normal;font-stretch:normal;letter-spacing:normal;word-spacing:normal;text-anchor:start;fill:none;stroke:#000000;stroke-width:0.73765415;stroke-linecap:butt;stroke-linejoin:miter;stroke-miterlimit:10.43299961;stroke-opacity:1;stroke-dasharray:none;stroke-dashoffset:0"
         id="content"
         transform="matrix(0.15347274,0,0,-0.15347274,-26.85773,180.85822)"
         xml:space="preserve"
         stroke-miterlimit="10.433"
         font-style="normal"
         font-variant="normal"
         font-weight="normal"
         font-stretch="normal"
         font-size-adjust="none"
         letter-spacing="normal"
         word-spacing="normal"><path
           style="fill:#000000;stroke-width:0"
           inkscape:connector-curvature="0"
           d="m 486.8,434.54 0.23,0.36 0.23,0.33 0.22,0.31 0.22,0.29 0.22,0.28 0.22,0.25 0.22,0.24 0.22,0.22 0.21,0.2 0.21,0.19 0.21,0.17 0.2,0.16 0.21,0.14 0.2,0.13 0.21,0.12 0.19,0.11 0.2,0.09 0.2,0.09 0.19,0.07 0.2,0.07 0.19,0.06 0.19,0.05 0.18,0.04 0.19,0.03 0.18,0.03 0.19,0.03 0.36,0.04 0.35,0.02 0.35,0.02 c 0.6,0.05 0.64,0.89 0.64,0.96 0,0.39 -0.25,0.59 -0.64,0.59 -1.3,0 -2.75,-0.16 -4.09,-0.16 -1.64,0 -3.35,0.16 -4.94,0.16 -0.3,0 -0.94,0 -0.94,-0.95 0,-0.55 0.46,-0.6 0.8,-0.6 1.34,-0.09 2.3,-0.59 2.3,-1.64 0,-0.75 -0.75,-1.84 -0.75,-1.89 l -15.3,-24.31 -3.39,26.34 c 0,0.85 1.14,1.5 3.44,1.5 0.7,0 1.25,0 1.25,1 0,0.44 -0.41,0.55 -0.71,0.55 -1.98,0 -4.14,-0.16 -6.17,-0.16 -0.9,0 -1.84,0.05 -2.75,0.05 -0.89,0 -1.84,0.11 -2.69,0.11 -0.34,0 -0.93,0 -0.93,-0.95 0,-0.6 0.43,-0.6 1.23,-0.6 2.8,0 2.84,-0.45 3,-1.68 l 3.92,-30.75 c 0.16,-1 0.36,-1.14 1,-1.14 0.8,0 1,0.25 1.41,0.89 z"
           id="path5971" /><path
           style="fill:#000000;stroke-width:0"
           inkscape:connector-curvature="0"
           d="m 502.54,409.87 0,0.71 -0.02,0.68 -0.03,0.66 -0.04,0.64 -0.06,0.62 -0.08,0.6 -0.09,0.57 -0.1,0.56 -0.13,0.55 -0.15,0.53 -0.17,0.51 -0.19,0.5 -0.21,0.49 -0.24,0.48 -0.26,0.47 -0.14,0.23 -0.15,0.23 c -1.08,1.61 -3.23,3 -6.03,3 v -0.98 c 1.89,0 3.7,-1.14 4.33,-3.17 0.56,-1.88 0.59,-4.39 0.59,-7.43 0,-2.57 0,-5.15 -0.45,-7.34 -0.71,-3.17 -3.06,-3.94 -4.47,-3.94 h 0 c -1.59,0 -3.72,0.94 -4.42,3.8 -0.49,2.05 -0.49,4.91 -0.49,7.48 0,2.55 0,5.21 0.52,7.11 0.73,2.75 2.97,3.49 4.39,3.49 v 0.98 c -8.08,0 -8.08,-9.51 -8.08,-12.03 0,-2.5 0,-11.81 8.08,-11.81 8.09,0 8.09,9.31 8.09,11.81 z"
           id="path5973" /></g></g><g
       id="g6011"
       transform="matrix(1.2070117,0,0,-1.2076426,95.90896,314.07004)"><g
         word-spacing="normal"
         letter-spacing="normal"
         font-size-adjust="none"
         font-stretch="normal"
         font-weight="normal"
         font-variant="normal"
         font-style="normal"
         stroke-miterlimit="10.433"
         xml:space="preserve"
         transform="matrix(0.15347274,0,0,-0.15347274,-26.85773,180.85822)"
         id="g6013"
         style="font-style:normal;font-variant:normal;font-weight:normal;font-stretch:normal;letter-spacing:normal;word-spacing:normal;text-anchor:start;fill:none;stroke:#000000;stroke-width:0.82827592;stroke-linecap:butt;stroke-linejoin:miter;stroke-miterlimit:10.43299961;stroke-opacity:1;stroke-dasharray:none;stroke-dashoffset:0"><path
           id="path6015"
           d="m 486.8,434.54 0.23,0.36 0.23,0.33 0.22,0.31 0.22,0.29 0.22,0.28 0.22,0.25 0.22,0.24 0.22,0.22 0.21,0.2 0.21,0.19 0.21,0.17 0.2,0.16 0.21,0.14 0.2,0.13 0.21,0.12 0.19,0.11 0.2,0.09 0.2,0.09 0.19,0.07 0.2,0.07 0.19,0.06 0.19,0.05 0.18,0.04 0.19,0.03 0.18,0.03 0.19,0.03 0.36,0.04 0.35,0.02 0.35,0.02 c 0.6,0.05 0.64,0.89 0.64,0.96 0,0.39 -0.25,0.59 -0.64,0.59 -1.3,0 -2.75,-0.16 -4.09,-0.16 -1.64,0 -3.35,0.16 -4.94,0.16 -0.3,0 -0.94,0 -0.94,-0.95 0,-0.55 0.46,-0.6 0.8,-0.6 1.34,-0.09 2.3,-0.59 2.3,-1.64 0,-0.75 -0.75,-1.84 -0.75,-1.89 l -15.3,-24.31 -3.39,26.34 c 0,0.85 1.14,1.5 3.44,1.5 0.7,0 1.25,0 1.25,1 0,0.44 -0.41,0.55 -0.71,0.55 -1.98,0 -4.14,-0.16 -6.17,-0.16 -0.9,0 -1.84,0.05 -2.75,0.05 -0.89,0 -1.84,0.11 -2.69,0.11 -0.34,0 -0.93,0 -0.93,-0.95 0,-0.6 0.43,-0.6 1.23,-0.6 2.8,0 2.84,-0.45 3,-1.68 l 3.92,-30.75 c 0.16,-1 0.36,-1.14 1,-1.14 0.8,0 1,0.25 1.41,0.89 z"
           inkscape:connector-curvature="0"
           style="fill:#000000;stroke-width:0" /></g></g><path
       style="fill:none;stroke:#0000ff;stroke-width:0.80000001px;stroke-linecap:butt;stroke-linejoin:miter;stroke-opacity:1"
       d="m 163.4857,98.099661 -11.81003,0"
       id="path6037"
       inkscape:connector-curvature="0" /></g></svg>