<?xml version="1.0" encoding="UTF-8" standalone="no"?>
<!-- Created with Inkscape (http://www.inkscape.org/) -->

<svg
   xmlns:dc="http://purl.org/dc/elements/1.1/"
   xmlns:cc="http://creativecommons.org/ns#"
   xmlns:rdf="http://www.w3.org/1999/02/22-rdf-syntax-ns#"
   xmlns:svg="http://www.w3.org/2000/svg"
   xmlns="http://www.w3.org/2000/svg"
   xmlns:sodipodi="http://sodipodi.sourceforge.net/DTD/sodipodi-0.dtd"
   xmlns:inkscape="http://www.inkscape.org/namespaces/inkscape"
   sodipodi:docname="full width half maximum.svg"
   inkscape:version="0.48.2 r9819"
   version="1.1"
   id="svg2"
   height="142.67226"
   width="381.40793">
  <sodipodi:namedview
     id="base"
     pagecolor="#ffffff"
     bordercolor="#666666"
     borderopacity="1.0"
     inkscape:pageopacity="0.0"
     inkscape:pageshadow="2"
     inkscape:zoom="2.1604165"
     inkscape:cx="190.70396"
     inkscape:cy="28.336132"
     inkscape:document-units="px"
     inkscape:current-layer="svg2"
     showgrid="false"
     inkscape:window-width="1366"
     inkscape:window-height="721"
     inkscape:window-x="0"
     inkscape:window-y="21"
     inkscape:window-maximized="1"
     fit-margin-top="0"
     fit-margin-left="0"
     fit-margin-right="0"
     fit-margin-bottom="0"
     showguides="true"
     inkscape:guide-bbox="true" />
  <defs
     id="defs4">
    <marker
       style="overflow:visible"
       id="StopM"
       refX="0"
       refY="0"
       orient="auto"
       inkscape:stockid="StopM">
      <path
         inkscape:connector-curvature="0"
         transform="scale(0.4,0.4)"
         style="fill:none;stroke:#000000;stroke-width:1pt"
         d="M 0,5.65 0,-5.65"
         id="path7406" />
    </marker>
    <marker
       style="overflow:visible"
       id="StopL"
       refX="0"
       refY="0"
       orient="auto"
       inkscape:stockid="StopL">
      <path
         transform="scale(0.8,0.8)"
         style="fill:none;stroke:#000000;stroke-width:1pt"
         d="M 0,5.65 0,-5.65"
         id="path3932"
         inkscape:connector-curvature="0" />
    </marker>
    <marker
       inkscape:stockid="DistanceEnd"
       orient="auto"
       refY="0"
       refX="0"
       id="DistanceEnd"
       style="overflow:visible">
      <g
         id="g3818">
        <path
           id="path2316"
           d="M 0,0 -2,0"
           style="fill:none;stroke:#ffffff;stroke-width:1.14999998;stroke-linecap:square"
           inkscape:connector-curvature="0" />
        <path
           id="path2312"
           d="M 0,0 -13,4 -9,0 -13,-4 0,0 z"
           style="fill:#000000;fill-rule:evenodd;stroke:none"
           inkscape:connector-curvature="0" />
        <path
           id="path2314"
           d="M 0,-4 0,40"
           style="fill:none;stroke:#000000;stroke-width:1;stroke-linecap:square"
           inkscape:connector-curvature="0" />
      </g>
    </marker>
    <marker
       inkscape:stockid="DistanceStart"
       orient="auto"
       refY="0"
       refX="0"
       id="DistanceStart"
       style="overflow:visible">
      <g
         id="g2300">
        <path
           id="path2306"
           d="M 0,0 2,0"
           style="fill:none;stroke:#ffffff;stroke-width:1.14999998;stroke-linecap:square"
           inkscape:connector-curvature="0" />
        <path
           id="path2302"
           d="M 0,0 13,4 9,0 13,-4 0,0 z"
           style="fill:#000000;fill-rule:evenodd;stroke:none"
           inkscape:connector-curvature="0" />
        <path
           id="path2304"
           d="M 0,-4 0,40"
           style="fill:none;stroke:#000000;stroke-width:1;stroke-linecap:square"
           inkscape:connector-curvature="0" />
      </g>
    </marker>
    <marker
       style="overflow:visible"
       id="Arrow2Mstart"
       refX="0"
       refY="0"
       orient="auto"
       inkscape:stockid="Arrow2Mstart">
      <path
         transform="scale(0.6,0.6)"
         d="M 8.7185878,4.0337352 -2.2072895,0.01601326 8.7185884,-4.0017078 c -1.7454984,2.3720609 -1.7354408,5.6174519 -6e-7,8.035443 z"
         style="font-size:12px;fill-rule:evenodd;stroke-width:0.625;stroke-linejoin:round"
         id="path3786"
         inkscape:connector-curvature="0" />
    </marker>
    <marker
       style="overflow:visible"
       id="Arrow1Sstart"
       refX="0"
       refY="0"
       orient="auto"
       inkscape:stockid="Arrow1Sstart">
      <path
         transform="matrix(0.2,0,0,0.2,1.2,0)"
         style="fill-rule:evenodd;stroke:#000000;stroke-width:1pt;marker-start:none"
         d="M 0,0 5,-5 -12.5,0 5,5 0,0 z"
         id="path3774"
         inkscape:connector-curvature="0" />
    </marker>
    <marker
       style="overflow:visible"
       id="Arrow2Sstart"
       refX="0"
       refY="0"
       orient="auto"
       inkscape:stockid="Arrow2Sstart">
      <path
         transform="matrix(0.3,0,0,0.3,-0.69,0)"
         d="M 8.7185878,4.0337352 -2.2072895,0.01601326 8.7185884,-4.0017078 c -1.7454984,2.3720609 -1.7354408,5.6174519 -6e-7,8.035443 z"
         style="font-size:12px;fill-rule:evenodd;stroke-width:0.625;stroke-linejoin:round"
         id="path3792"
         inkscape:connector-curvature="0" />
    </marker>
    <marker
       style="overflow:visible"
       id="Arrow2Mend"
       refX="0"
       refY="0"
       orient="auto"
       inkscape:stockid="Arrow2Mend">
      <path
         transform="scale(-0.6,-0.6)"
         d="M 8.7185878,4.0337352 -2.2072895,0.01601326 8.7185884,-4.0017078 c -1.7454984,2.3720609 -1.7354408,5.6174519 -6e-7,8.035443 z"
         style="font-size:12px;fill-rule:evenodd;stroke-width:0.625;stroke-linejoin:round"
         id="path3789"
         inkscape:connector-curvature="0" />
    </marker>
    <marker
       style="overflow:visible"
       id="Arrow2Mstartw"
       refX="0"
       refY="0"
       orient="auto"
       inkscape:stockid="Arrow2Mstartw">
      <path
         transform="scale(0.6,0.6)"
         d="M 8.7185878,4.0337352 -2.2072895,0.01601326 8.7185884,-4.0017078 c -1.7454984,2.3720609 -1.7354408,5.6174519 -6e-7,8.035443 z"
         style="font-size:12px;fill:#0000ff;fill-rule:evenodd;stroke:#0000ff;stroke-width:0.625;stroke-linejoin:round"
         id="path7255"
         inkscape:connector-curvature="0" />
    </marker>
    <marker
       style="overflow:visible"
       id="Arrow2MendM"
       refX="0"
       refY="0"
       orient="auto"
       inkscape:stockid="Arrow2MendM">
      <path
         transform="scale(-0.6,-0.6)"
         d="M 8.7185878,4.0337352 -2.2072895,0.01601326 8.7185884,-4.0017078 c -1.7454984,2.3720609 -1.7354408,5.6174519 -6e-7,8.035443 z"
         style="font-size:12px;fill:#0000ff;fill-rule:evenodd;stroke:#0000ff;stroke-width:0.625;stroke-linejoin:round"
         id="path7598"
         inkscape:connector-curvature="0" />
    </marker>
    <marker
       style="overflow:visible"
       id="StopLQ"
       refX="0"
       refY="0"
       orient="auto"
       inkscape:stockid="StopLQ">
      <path
         transform="scale(0.8,0.8)"
         style="fill:none;stroke:#0000ff;stroke-width:1pt"
         d="M 0,5.65 0,-5.65"
         id="path16328"
         inkscape:connector-curvature="0" />
    </marker>
    <marker
       style="overflow:visible"
       id="StopLg"
       refX="0"
       refY="0"
       orient="auto"
       inkscape:stockid="StopLg">
      <path
         transform="scale(0.8,0.8)"
         style="fill:none;stroke:#0000ff;stroke-width:1pt"
         d="M 0,5.65 0,-5.65"
         id="path16331"
         inkscape:connector-curvature="0" />
    </marker>
    <marker
       style="overflow:visible"
       id="StopMM"
       refX="0"
       refY="0"
       orient="auto"
       inkscape:stockid="StopMM">
      <path
         inkscape:connector-curvature="0"
         transform="scale(0.4,0.4)"
         style="fill:none;stroke:#ff0000;stroke-width:1pt"
         d="M 0,5.65 0,-5.65"
         id="path7946" />
    </marker>
    <marker
       style="overflow:visible"
       id="StopMU"
       refX="0"
       refY="0"
       orient="auto"
       inkscape:stockid="StopMU">
      <path
         inkscape:connector-curvature="0"
         transform="scale(0.4,0.4)"
         style="fill:none;stroke:#ff0000;stroke-width:1pt"
         d="M 0,5.65 0,-5.65"
         id="path7949" />
    </marker>
  </defs>
  <metadata
     id="metadata7">
    <rdf:RDF>
      <cc:Work
         rdf:about="">
        <dc:format>image/svg+xml</dc:format>
        <dc:type
           rdf:resource="http://purl.org/dc/dcmitype/StillImage" />
        <dc:title />
      </cc:Work>
    </rdf:RDF>
  </metadata>
  <g
     transform="translate(-265.86365,-705.6957)"
     id="layer1"
     inkscape:groupmode="layer"
     inkscape:label="Layer 1" />
  <path
     style="fill:none;stroke:#0000ff;stroke-width:1px;stroke-linecap:butt;stroke-linejoin:miter;stroke-opacity:1;marker-start:url(#Arrow2Mstartw);marker-mid:none"
     d="m 19.49355,1.5118737 0,136.1603263"
     id="path4370"
     inkscape:connector-curvature="0" />
  <path
     style="fill:none;stroke:#0000ff;stroke-width:1px;stroke-linecap:butt;stroke-linejoin:miter;stroke-opacity:1;marker-start:none;marker-mid:none;marker-end:url(#Arrow2MendM)"
     d="m 0.5,131.28515 379.39605,0"
     id="path4374"
     inkscape:connector-curvature="0" />
  <g
     transform="matrix(0.63295223,0,0,0.61740269,7.50244,3.8331486)"
     id="g6801">
    <path
       inkscape:connector-curvature="0"
       style="fill:none;stroke:#0000ff;stroke-width:1.59966958;stroke-linecap:butt;stroke-linejoin:bevel;stroke-miterlimit:4;stroke-opacity:1;stroke-dasharray:none;stroke-dashoffset:0"
       d="m 254.67177,101.19949 c 0.3869,-1.351722 0.77381,-2.685362 1.16072,-4.001032 0.3869,-1.31567 0.77381,-2.61327 1.16071,-3.89289 0.38691,-1.27963 0.77382,-2.54118 1.16072,-3.78476 0.3869,-1.24358 0.77381,-2.46908 1.16071,-3.67662 0.38691,-1.20753 0.77382,-2.39699 1.16072,-3.56848 0.38691,-1.17149 0.77381,-2.32491 1.16072,-3.46035 0.38691,-1.13545 0.77381,-2.25281 1.16072,-3.35221 0.3869,-1.0994 0.7738,-2.18073 1.16071,-3.24408 0.38691,-1.06335 0.77381,-2.10863 1.16072,-3.13594 0.3869,-1.02731 0.77381,-2.03654 1.16072,-3.02781 0.3869,-0.99126 0.77381,-1.96445 1.16071,-2.91966 0.38691,-0.95522 0.77381,-1.89236 1.16072,-2.81154 0.3869,-0.91917 0.77381,-1.820267 1.16071,-2.703394 0.38691,-0.883128 0.77382,-1.748179 1.16072,-2.595261 0.38691,-0.847083 0.77381,-1.676089 1.16072,-2.487126 0.38691,-0.811037 0.77381,-1.603997 1.16071,-2.378989 0.38691,-0.774992 0.77382,-1.531907 1.16072,-2.270853 0.38691,-0.738947 0.77381,-1.459817 1.16072,-2.162718 0.3869,-0.702901 0.77381,-1.387726 1.16072,-2.054582 0.3869,-0.666856 0.77381,-1.315635 1.16071,-1.946446 0.38691,-0.63081 0.77381,-1.243544 1.16072,-1.83831 0.3869,-0.594765 0.77381,-1.171454 1.16072,-1.730174 0.3869,-0.55872 0.77381,-1.099363 1.16071,-1.622038 0.38691,-0.522675 0.77382,-1.027273 1.16072,-1.513902 0.38691,-0.48663 0.77381,-0.955182 1.16071,-1.405767 0.38691,-0.450584 0.77382,-0.883091 1.16072,-1.29763 0.38691,-0.414539 0.77381,-0.811001 1.16072,-1.189495 0.38691,-0.378494 0.77381,-0.73891 1.16072,-1.081359 0.3869,-0.342448 0.77381,-0.66682 1.16071,-0.973223 0.38691,-0.306403 0.77381,-0.594729 1.16072,-0.865087 0.3869,-0.270357 0.77381,-0.522638 1.16072,-0.756951 0.3869,-0.234312 0.77381,-0.450548 1.16071,-0.648815 0.38691,-0.198267 0.77382,-0.378458 1.16072,-0.540679 0.3869,-0.162222 0.77381,-0.306367 1.16071,-0.432544 0.38691,-0.126177 0.77382,-0.234276 1.16072,-0.324408 0.38691,-0.09013 0.77381,-0.162185 1.16072,-0.216271 0.38691,-0.05409 0.77381,-0.0901 1.16072,-0.108136 0.3869,-0.01804 0.7738,-0.018 1.16071,0 0.38691,0.018 0.77381,0.05409 1.16072,0.108136 0.3869,0.05405 0.77381,0.126176 1.16072,0.216271 0.3869,0.0901 0.77381,0.198267 1.16071,0.324408 0.38691,0.12614 0.77382,0.270358 1.16072,0.432544 0.3869,0.162185 0.77381,0.342448 1.16071,0.540679 0.38691,0.198231 0.77382,0.414539 1.16072,0.648815 0.38691,0.234277 0.77381,0.48663 1.16072,0.756951 0.38691,0.270322 0.77381,0.55872 1.16072,0.865087 0.3869,0.306367 0.7738,0.630811 1.16071,0.973223 0.38691,0.342413 0.77381,0.702902 1.16072,1.081359 0.3869,0.378458 0.77381,0.774992 1.16072,1.189495 0.3869,0.414503 0.77381,0.847082 1.16071,1.29763 0.38691,0.450548 0.77381,0.919173 1.16072,1.405767 0.3869,0.486593 0.77381,0.991263 1.16071,1.513902 0.38691,0.522639 0.77382,1.063354 1.16072,1.622038 0.38691,0.558684 0.77381,1.135445 1.16072,1.730174 0.38691,0.59473 0.77381,1.207536 1.16071,1.83831 0.38691,0.630775 0.77381,1.279626 1.16072,1.946446 0.38691,0.66682 0.77381,1.351717 1.16072,2.054582 0.3869,0.702865 0.77381,1.423807 1.16072,2.162718 0.3869,0.73891 0.77381,1.495897 1.16071,2.270853 0.3869,0.774956 0.77381,1.567988 1.16072,2.378989 0.3869,0.811001 0.77381,1.640079 1.16071,2.487126 0.38691,0.847046 0.77382,1.712169 1.16072,2.595261 0.38691,0.883091 0.77381,1.78426 1.16072,2.703394 0.3869,0.91914 0.77381,1.85635 1.16071,2.81154 0.38691,0.95518 0.77382,1.92844 1.16072,2.91966 0.38691,0.99123 0.77381,2.00054 1.16072,3.02781 0.3869,1.02727 0.77381,2.07262 1.16072,3.13594 0.3869,1.06332 0.7738,2.14471 1.16071,3.24408 0.38691,1.09936 0.77381,2.2168 1.16072,3.35221 0.3869,1.13541 0.77381,2.28889 1.16072,3.46035 0.3869,1.17145 0.77381,2.36098 1.16071,3.56848 0.38691,1.2075 0.77382,2.43308 1.16072,3.67662 0.3869,1.24355 0.77381,2.50517 1.16071,3.78476 0.38691,1.27959 0.77382,2.57725 1.16072,3.89289 0.38691,1.31563 0.77381,2.64935 1.16072,4.001032"
       title="-pow(x,2)"
       id="path6599"
       sodipodi:nodetypes="cssssssssssssssssssscsssscssssssssscccsccssssssscssssssssssssssccssssssssssc" />
    <path
       id="path6746"
       title="pow(2,x)"
       d="m 41.092233,205.01018 c 0.810583,-0.003 1.621166,-0.006 2.431749,-0.01 0.810583,-0.003 1.621166,-0.007 2.431749,-0.0104 0.810583,-0.004 1.621167,-0.007 2.43175,-0.0112 0.810583,-0.004 1.621166,-0.008 2.431749,-0.0121 0.810583,-0.004 1.621166,-0.009 2.431749,-0.0131 0.810583,-0.005 1.621166,-0.009 2.43175,-0.0141 0.810583,-0.005 1.621166,-0.01 2.431749,-0.0153 0.810583,-0.005 1.621166,-0.0108 2.431749,-0.0165 0.810583,-0.006 1.621166,-0.0116 2.431749,-0.0178 0.810583,-0.006 1.621167,-0.0126 2.43175,-0.0192 0.810583,-0.007 1.621166,-0.0136 2.431749,-0.0208 0.810583,-0.007 1.621166,-0.0147 2.431749,-0.0224 0.810583,-0.008 1.621166,-0.0158 2.43175,-0.0242 0.810583,-0.008 1.621166,-0.0171 2.431749,-0.0262 0.810583,-0.009 1.621166,-0.0185 2.431749,-0.0283 0.810583,-0.01 1.621166,-0.0199 2.431749,-0.0305 0.810584,-0.0106 1.621167,-0.0216 2.43175,-0.033 0.810583,-0.0114 1.621166,-0.0233 2.431749,-0.0356 0.810583,-0.0123 1.621166,-0.0251 2.431749,-0.0385 0.810583,-0.0133 1.621167,-0.0272 2.43175,-0.0415 0.810583,-0.0144 1.621166,-0.0293 2.431749,-0.0449 0.810583,-0.0155 1.621166,-0.0317 2.431749,-0.0485 0.810583,-0.0168 1.621166,-0.0342 2.431749,-0.0523 0.810584,-0.0181 1.621167,-0.0369 2.43175,-0.0565 0.810354,-0.0196 1.620944,-0.0399 2.431524,-0.0611 0.81058,-0.0211 1.62117,-0.0431 2.43175,-0.0659 0.81058,-0.0228 1.62117,-0.0465 2.43175,-0.0712 0.81058,-0.0247 1.62117,-0.0503 2.43175,-0.0769 0.81058,-0.0266 1.62117,-0.0543 2.43175,-0.0831 0.81058,-0.0288 1.62116,-0.0587 2.43175,-0.0897 0.81058,-0.0311 1.62116,-0.0633 2.43175,-0.0969 0.81058,-0.0336 1.62116,-0.0684 2.43175,-0.10467 0.81058,-0.0362 1.62116,-0.0739 2.43175,-0.11306 0.81058,-0.0391 1.62116,-0.0798 2.43174,-0.1221 0.81059,-0.0423 1.62117,-0.0862 2.43175,-0.13188 0.81059,-0.0457 1.62117,-0.0931 2.43175,-0.14244 0.81059,-0.0493 1.62117,-0.10057 2.43175,-0.15385 0.81059,-0.0533 1.62117,-0.10861 2.43175,-0.16616 0.81058,-0.0575 1.62117,-0.11731 2.43175,-0.17946 0.81058,-0.0622 1.62117,-0.1267 2.43175,-0.19383 0.81058,-0.0671 1.62117,-0.13685 2.43175,-0.20935 0.81058,-0.0725 1.62117,-0.1478 2.43175,-0.22611 0.81058,-0.0783 1.62117,-0.15964 2.43175,-0.24421 0.81058,-0.0846 1.62116,-0.17242 2.43175,-0.26377 0.81058,-0.0913 1.62116,-0.18622 2.43175,-0.28488 0.81058,-0.0987 1.62116,-0.20112 2.43175,-0.30768 0.81058,-0.10656 1.62116,-0.21723 2.43175,-0.33232 0.81058,-0.11509 1.62116,-0.23463 2.43174,-0.35893 0.81059,-0.1243 1.62117,-0.25341 2.43175,-0.38766 0.81059,-0.13426 1.62117,-0.2737 2.43175,-0.4187 0.81059,-0.145 1.62117,-0.29561 2.43175,-0.45222 0.81059,-0.15661 1.62117,-0.31927 2.43175,-0.48842 0.81059,-0.16915 1.62117,-0.34484 2.43175,-0.52753 0.81058,-0.18269 1.62117,-0.37244 2.43175,-0.56976 0.81058,-0.19732 1.62117,-0.40226 2.43175,-0.61538 0.81058,-0.21311 1.62117,-0.43446 2.43175,-0.66464 0.81058,-0.23018 1.62117,-0.46924 2.43175,-0.71785 0.81058,-0.24861 1.62116,-0.50681 2.43175,-0.77532 0.81058,-0.26852 1.62116,-0.54739 2.43175,-0.8374 0.81058,-0.29001 1.62116,-0.59121 2.43175,-0.90444 0.81058,-0.31323 1.62116,-0.63854 2.43175,-0.97685 0.81058,-0.3383 1.62116,-0.68966 2.43174,-1.05505 0.81059,-0.36539 1.62117,-0.74488 2.43175,-1.13952 0.81059,-0.39464 1.62117,-0.80452 2.43175,-1.23075 0.81059,-0.42624 1.62117,-0.86893 2.43175,-1.32928 0.81059,-0.46036 1.62117,-0.9385 2.43175,-1.43571 0.81059,-0.49722 1.62117,-1.01363 2.43175,-1.55065 0.81058,-0.53702 1.62117,-1.09478 2.43175,-1.67479 0.81058,-0.58002 1.62117,-1.18243 2.43175,-1.80888 0.81058,-0.62645 1.62117,-1.27709 2.43175,-1.95369 0.81058,-0.67661 1.62117,-1.37934 2.43175,-2.11011 0.81058,-0.73077 1.62116,-1.48976 2.43175,-2.27904 0.81058,-0.78928 1.62116,-1.60903 2.43175,-2.4615 0.81058,-0.85247 1.62116,-1.73785 2.43175,-2.65857 0.81058,-0.92072 1.62116,-1.87698 2.43175,-2.87141 0.81058,-0.99443 1.62116,-2.02725 2.43175,-3.1013 0.81058,-1.07404 1.62116,-2.18955 2.43174,-3.34958 0.81059,-1.16003 1.62117,-2.36485 2.43175,-3.61776 0.81059,-1.2529 1.62117,-2.55417 2.43175,-3.90738 0.81059,-1.35321 1.62117,-2.75867 2.43175,-4.22022 0.81059,-1.46155 1.62117,-2.97952 2.43175,-4.55808 0.81058,-1.57856 1.62117,-3.21806 2.43175,-4.923 0.81058,-1.70494 1.62117,-3.4757 2.43175,-5.31714 0.81058,-1.84143 1.62117,-3.75396 2.43175,-5.74282 0.81058,-1.98886 1.62117,-4.05451 2.43175,-6.20259 0.81058,-2.14809 1.62116,-4.37911 2.43175,-6.69918 0.81058,-2.32006 1.62116,-4.7297 2.43175,-7.2355 0.81058,-2.50581 1.62116,-5.10836 2.43175,-7.814779"
       style="fill:none;stroke:#0000ff;stroke-width:1.59966958;stroke-linecap:butt;stroke-linejoin:bevel;stroke-miterlimit:4;stroke-opacity:1;stroke-dasharray:none;stroke-dashoffset:0"
       inkscape:connector-curvature="0"
       sodipodi:nodetypes="ccccccccccccccccssscccssscsssscsccsccccccsccccssssssssscsscsssssssssssssssssssssssssssssc" />
    <path
       id="path6746-7"
       title="pow(2,x)"
       d="m 555.27854,205.01018 c -0.81058,-0.003 -1.62117,-0.006 -2.43175,-0.01 -0.81058,-0.003 -1.62116,-0.007 -2.43175,-0.0104 -0.81058,-0.004 -1.62116,-0.007 -2.43175,-0.0112 -0.81058,-0.004 -1.62116,-0.008 -2.43175,-0.0121 -0.81058,-0.004 -1.62116,-0.009 -2.43175,-0.0131 -0.81058,-0.005 -1.62116,-0.009 -2.43175,-0.0141 -0.81058,-0.005 -1.62116,-0.01 -2.43175,-0.0153 -0.81058,-0.005 -1.62116,-0.0108 -2.43174,-0.0165 -0.81059,-0.006 -1.62117,-0.0116 -2.43175,-0.0178 -0.81059,-0.006 -1.62117,-0.0126 -2.43175,-0.0192 -0.81059,-0.007 -1.62117,-0.0136 -2.43175,-0.0208 -0.81059,-0.007 -1.62117,-0.0147 -2.43175,-0.0224 -0.81058,-0.008 -1.62117,-0.0158 -2.43175,-0.0242 -0.81058,-0.008 -1.62117,-0.0171 -2.43175,-0.0262 -0.81058,-0.009 -1.62117,-0.0185 -2.43175,-0.0283 -0.81058,-0.01 -1.62117,-0.0199 -2.43175,-0.0305 -0.81058,-0.0106 -1.62117,-0.0216 -2.43175,-0.033 -0.81058,-0.0114 -1.62116,-0.0233 -2.43175,-0.0356 -0.81058,-0.0123 -1.62116,-0.0251 -2.43175,-0.0385 -0.81058,-0.0133 -1.62116,-0.0272 -2.43175,-0.0415 -0.81058,-0.0144 -1.62116,-0.0293 -2.43175,-0.0449 -0.81058,-0.0155 -1.62116,-0.0317 -2.43174,-0.0485 -0.81059,-0.0168 -1.62117,-0.0342 -2.43175,-0.0523 -0.81059,-0.0181 -1.62117,-0.0369 -2.43175,-0.0565 -0.81058,-0.0196 -1.62117,-0.0399 -2.43175,-0.0611 -0.81058,-0.0211 -1.62117,-0.0431 -2.43175,-0.0659 -0.81058,-0.0228 -1.62117,-0.0465 -2.43175,-0.0712 -0.81058,-0.0247 -1.62117,-0.0503 -2.43175,-0.0769 -0.81058,-0.0266 -1.62117,-0.0543 -2.43175,-0.0831 -0.81058,-0.0288 -1.62116,-0.0587 -2.43175,-0.0897 -0.81058,-0.0311 -1.62116,-0.0633 -2.43175,-0.0969 -0.81058,-0.0336 -1.62116,-0.0684 -2.43175,-0.10467 -0.81058,-0.0362 -1.62116,-0.0739 -2.43175,-0.11306 -0.81058,-0.0391 -1.62116,-0.0798 -2.43174,-0.1221 -0.81059,-0.0423 -1.62117,-0.0862 -2.43175,-0.13188 -0.81059,-0.0457 -1.62117,-0.0931 -2.43175,-0.14244 -0.81059,-0.0493 -1.62117,-0.10057 -2.43175,-0.15385 -0.81059,-0.0533 -1.62117,-0.10861 -2.43175,-0.16616 -0.81058,-0.0575 -1.62117,-0.11731 -2.43175,-0.17946 -0.81058,-0.0622 -1.62117,-0.1267 -2.43175,-0.19383 -0.81058,-0.0671 -1.62117,-0.13685 -2.43175,-0.20935 -0.81058,-0.0725 -1.62117,-0.1478 -2.43175,-0.22611 -0.81058,-0.0783 -1.62117,-0.15964 -2.43175,-0.24421 -0.81058,-0.0846 -1.62116,-0.17242 -2.43175,-0.26377 -0.81058,-0.0913 -1.62116,-0.18622 -2.43175,-0.28488 -0.81058,-0.0987 -1.62116,-0.20112 -2.43175,-0.30768 -0.81058,-0.10656 -1.62116,-0.21723 -2.43175,-0.33232 -0.81058,-0.11509 -1.62116,-0.23463 -2.43174,-0.35893 -0.81059,-0.1243 -1.62117,-0.25341 -2.43175,-0.38766 -0.81059,-0.13426 -1.62117,-0.2737 -2.43175,-0.4187 -0.81059,-0.145 -1.62117,-0.29561 -2.43175,-0.45222 -0.81059,-0.15661 -1.62117,-0.31927 -2.43175,-0.48842 -0.81059,-0.16915 -1.62117,-0.34484 -2.43175,-0.52753 -0.81058,-0.18269 -1.62117,-0.37244 -2.43175,-0.56976 -0.81058,-0.19732 -1.62117,-0.40226 -2.43175,-0.61538 -0.81058,-0.21311 -1.62117,-0.43446 -2.43175,-0.66464 -0.81058,-0.23018 -1.62117,-0.46924 -2.43175,-0.71785 -0.81058,-0.24861 -1.62116,-0.50681 -2.43175,-0.77532 -0.81058,-0.26852 -1.62116,-0.54739 -2.43175,-0.8374 -0.81058,-0.29001 -1.62116,-0.59121 -2.43175,-0.90444 -0.81058,-0.31323 -1.62116,-0.63854 -2.43175,-0.97685 -0.81058,-0.3383 -1.62116,-0.68966 -2.43174,-1.05505 -0.81059,-0.36539 -1.62117,-0.74488 -2.43175,-1.13952 -0.81059,-0.39464 -1.62117,-0.80452 -2.43175,-1.23075 -0.81059,-0.42624 -1.62117,-0.86893 -2.43175,-1.32928 -0.81059,-0.46036 -1.62117,-0.9385 -2.43175,-1.43571 -0.81059,-0.49722 -1.62117,-1.01363 -2.43175,-1.55065 -0.81058,-0.53702 -1.62117,-1.09478 -2.43175,-1.67479 -0.81058,-0.58002 -1.62117,-1.18243 -2.43175,-1.80888 -0.81058,-0.62645 -1.62117,-1.27709 -2.43175,-1.95369 -0.81058,-0.67661 -1.62117,-1.37934 -2.43175,-2.11011 -0.81058,-0.73077 -1.62116,-1.48976 -2.43175,-2.27904 -0.81058,-0.78928 -1.62116,-1.60903 -2.43175,-2.4615 -0.81058,-0.85247 -1.62116,-1.73785 -2.43175,-2.65857 -0.81058,-0.92072 -1.62116,-1.87698 -2.43175,-2.87141 -0.81058,-0.99443 -1.62116,-2.02725 -2.43175,-3.1013 -0.81058,-1.07404 -1.62116,-2.18955 -2.43174,-3.34958 -0.81059,-1.16003 -1.62117,-2.36485 -2.43175,-3.61776 -0.81059,-1.2529 -1.62117,-2.55417 -2.43175,-3.90738 -0.81059,-1.35321 -1.62117,-2.75867 -2.43175,-4.22022 -0.81059,-1.46155 -1.62117,-2.97952 -2.43175,-4.55808 -0.81058,-1.57856 -1.62117,-3.21806 -2.43175,-4.923 -0.81058,-1.70494 -1.62117,-3.4757 -2.43175,-5.31714 -0.81058,-1.84143 -1.62117,-3.75396 -2.43175,-5.74282 -0.81058,-1.98886 -1.62117,-4.05451 -2.43175,-6.20259 -0.81058,-2.14809 -1.62116,-4.37911 -2.43175,-6.69918 -0.81058,-2.32006 -1.62116,-4.7297 -2.43175,-7.2355 -0.81058,-2.50581 -1.62116,-5.10836 -2.43175,-7.814782"
       style="fill:none;stroke:#0000ff;stroke-width:1.59966958;stroke-linecap:butt;stroke-linejoin:bevel;stroke-miterlimit:4;stroke-opacity:1;stroke-dasharray:none;stroke-dashoffset:0"
       inkscape:connector-curvature="0"
       sodipodi:nodetypes="ccccccccccccccccssscccssscsssscsccsccccccsccccssssssssscsscsssssssssssssssssssssssssssssc" />
  </g>
  <path
     inkscape:connector-curvature="0"
     id="path6810"
     d="m 13.08194,75.329911 213.80155,0"
     style="fill:#ff0000;stroke:#ff0000;stroke-width:1;stroke-linecap:butt;stroke-linejoin:miter;stroke-miterlimit:4;stroke-opacity:1;stroke-dasharray:3.99999999, 3.99999999;stroke-dashoffset:0;marker-start:none;marker-end:none" />
  <path
     style="fill:none;stroke:#ff0000;stroke-width:1;stroke-linecap:butt;stroke-linejoin:miter;stroke-miterlimit:4;stroke-opacity:1;stroke-dasharray:3.99999999, 3.99999999;stroke-dashoffset:0"
     d="m 196.11669,13.770071 0,119.635899"
     id="path8004"
     inkscape:connector-curvature="0" />
  <path
     style="fill:none;stroke:#ff0000;stroke-width:1;stroke-linecap:butt;stroke-linejoin:miter;stroke-miterlimit:4;stroke-opacity:1;stroke-dasharray:3.99999999, 3.99999999;stroke-dashoffset:0"
     d="m 226.76485,75.127632 0,58.278338"
     id="path8004-3"
     inkscape:connector-curvature="0" />
  <path
     style="fill:none;stroke:#ff0000;stroke-width:1;stroke-linecap:butt;stroke-linejoin:miter;stroke-miterlimit:4;stroke-opacity:1;stroke-dasharray:3.99999999, 3.99999999;stroke-dashoffset:0"
     d="m 165.68061,75.249993 0,58.155977"
     id="path8004-0"
     inkscape:connector-curvature="0" />
  <g
     id="g12250"
     transform="matrix(0.71322348,0,0,0.71322348,90.818165,-12.673686)">
    <g
       word-spacing="normal"
       letter-spacing="normal"
       font-size-adjust="none"
       font-stretch="normal"
       font-weight="normal"
       font-variant="normal"
       font-style="normal"
       stroke-miterlimit="10.433"
       xml:space="preserve"
       transform="matrix(0.3439694,0,0,-0.3439694,-60.194645,354.96947)"
       id="content"
       style="font-style:normal;font-variant:normal;font-weight:normal;font-stretch:normal;letter-spacing:normal;word-spacing:normal;text-anchor:start;fill:none;stroke:#000000;stroke-width:1.40208507;stroke-linecap:butt;stroke-linejoin:miter;stroke-miterlimit:10.43299961;stroke-opacity:1;stroke-dasharray:none;stroke-dashoffset:0"><path
         id="path12253"
         d="m 485.66,424.73 0,0.21 -0.01,0.2 -0.01,0.2 -0.02,0.19 -0.02,0.18 -0.03,0.18 -0.03,0.17 -0.04,0.16 -0.04,0.16 -0.04,0.16 -0.05,0.14 -0.05,0.14 -0.05,0.13 -0.06,0.13 -0.07,0.12 -0.06,0.12 -0.07,0.1 -0.07,0.1 -0.08,0.1 -0.08,0.09 -0.08,0.08 -0.08,0.07 -0.08,0.07 -0.09,0.06 -0.09,0.05 -0.09,0.05 -0.1,0.04 -0.09,0.03 -0.1,0.02 -0.1,0.02 -0.1,0.01 -0.1,0 c -1.3,0 -2.64,-1.18 -2.64,-2.34 0,-0.48 0.23,-1.03 0.73,-1.48 0.86,-0.75 1.75,-2.1 1.75,-4.19 0,-2 -0.95,-4.83 -2.48,-7.13 -1.5,-2.14 -3.35,-3.82 -5.69,-3.82 -2.85,0 -4.39,1.78 -4.83,4.46 0.55,1.3 1.69,4.49 1.69,5.9 0,0.59 -0.25,1.09 -0.89,1.09 -0.41,0 -0.96,-0.11 -1.35,-0.84 -0.54,-1 -1.15,-4.24 -1.15,-6.04 -1.64,-2.34 -3.63,-4.57 -6.77,-4.57 -3.3,0 -4.34,2.93 -4.34,5.71 0,6.24 5.09,11.47 5.09,12.11 0,0.55 -0.41,0.96 -0.95,0.96 -0.66,0 -1,-0.66 -1.3,-1.11 -2.55,-3.69 -4.44,-9.61 -4.44,-14.14 0,-3.44 1.16,-7.13 5.24,-7.13 3.53,0 5.87,2.49 7.67,5.24 0.45,-2.89 2.39,-5.24 5.48,-5.24 3.89,0 6.29,3.03 8.07,6.78 1.2,2.44 3.09,9.21 3.09,12.3 z"
         inkscape:connector-curvature="0"
         style="fill:#000000;stroke-width:0" /><path
         id="path12255"
         d="m 504.07,405.11 h -1.18 c -0.1,-0.77 -0.46,-2.83 -0.91,-3.18 -0.27,-0.2 -2.95,-0.2 -3.44,-0.2 h -6.42 c 3.66,3.23 4.88,4.2 6.97,5.84 2.58,2.07 4.98,4.22 4.98,7.54 0,4.21 -3.68,6.79 -8.15,6.79 -4.31,0 -7.25,-3.03 -7.25,-6.23 0,-1.78 1.5,-1.96 1.86,-1.96 0.83,0 1.84,0.6 1.84,1.85 0,0.62 -0.25,1.84 -2.06,1.84 1.08,2.47 3.45,3.24 5.09,3.24 3.49,0 5.3,-2.71 5.3,-5.53 0,-3.04 -2.16,-5.44 -3.28,-6.69 l -8.39,-8.3 c -0.36,-0.31 -0.36,-0.39 -0.36,-1.36 h 14.36 z"
         inkscape:connector-curvature="0"
         style="fill:#000000;stroke-width:0" /></g>  </g>
  <g
     id="g12361"
     transform="matrix(0.71322348,0,0,0.71322348,150.85896,-12.673686)">
    <g
       id="g12363"
       transform="matrix(0.3439694,0,0,-0.3439694,-60.194645,354.96947)"
       xml:space="preserve"
       stroke-miterlimit="10.433"
       font-style="normal"
       font-variant="normal"
       font-weight="normal"
       font-stretch="normal"
       font-size-adjust="none"
       letter-spacing="normal"
       word-spacing="normal"
       style="font-style:normal;font-variant:normal;font-weight:normal;font-stretch:normal;letter-spacing:normal;word-spacing:normal;text-anchor:start;fill:none;stroke:#000000;stroke-width:1.40208507;stroke-linecap:butt;stroke-linejoin:miter;stroke-miterlimit:10.43299961;stroke-opacity:1;stroke-dasharray:none;stroke-dashoffset:0"><path
         d="m 485.66,424.73 0,0.21 -0.01,0.2 -0.01,0.2 -0.02,0.19 -0.02,0.18 -0.03,0.18 -0.03,0.17 -0.04,0.16 -0.04,0.16 -0.04,0.16 -0.05,0.14 -0.05,0.14 -0.05,0.13 -0.06,0.13 -0.07,0.12 -0.06,0.12 -0.07,0.1 -0.07,0.1 -0.08,0.1 -0.08,0.09 -0.08,0.08 -0.08,0.07 -0.08,0.07 -0.09,0.06 -0.09,0.05 -0.09,0.05 -0.1,0.04 -0.09,0.03 -0.1,0.02 -0.1,0.02 -0.1,0.01 -0.1,0 c -1.3,0 -2.64,-1.18 -2.64,-2.34 0,-0.48 0.23,-1.03 0.73,-1.48 0.86,-0.75 1.75,-2.1 1.75,-4.19 0,-2 -0.95,-4.83 -2.48,-7.13 -1.5,-2.14 -3.35,-3.82 -5.69,-3.82 -2.85,0 -4.39,1.78 -4.83,4.46 0.55,1.3 1.69,4.49 1.69,5.9 0,0.59 -0.25,1.09 -0.89,1.09 -0.41,0 -0.96,-0.11 -1.35,-0.84 -0.54,-1 -1.15,-4.24 -1.15,-6.04 -1.64,-2.34 -3.63,-4.57 -6.77,-4.57 -3.3,0 -4.34,2.93 -4.34,5.71 0,6.24 5.09,11.47 5.09,12.11 0,0.55 -0.41,0.96 -0.95,0.96 -0.66,0 -1,-0.66 -1.3,-1.11 -2.55,-3.69 -4.44,-9.61 -4.44,-14.14 0,-3.44 1.16,-7.13 5.24,-7.13 3.53,0 5.87,2.49 7.67,5.24 0.45,-2.89 2.39,-5.24 5.48,-5.24 3.89,0 6.29,3.03 8.07,6.78 1.2,2.44 3.09,9.21 3.09,12.3 z"
         id="path12365"
         inkscape:connector-curvature="0"
         style="fill:#000000;stroke-width:0" /><path
         d="m 498.15,420.92 0,0.04 0,0.04 0,0.05 0,0.04 0,0.03 0,0.04 0,0.04 0,0.03 0,0.04 -0.01,0.03 0,0.03 0,0.03 0,0.03 -0.01,0.03 0,0.03 0,0.02 -0.01,0.03 0,0.02 -0.01,0.03 0,0.02 -0.01,0.04 -0.02,0.04 -0.02,0.03 -0.02,0.03 -0.02,0.03 -0.02,0.03 -0.03,0.02 -0.03,0.02 -0.03,0.02 -0.04,0.01 -0.04,0.01 -0.05,0.02 -0.02,0 -0.02,0 -0.03,0.01 -0.03,0 -0.02,0.01 -0.03,0 -0.03,0 -0.03,0 -0.03,0 -0.04,0.01 -0.03,0 -0.04,0 -0.03,0 -0.04,0 -0.04,0 -0.04,0 -0.04,0 -0.05,0 -0.04,0 -0.04,0 c -2.24,-2.2 -5.4,-2.23 -6.83,-2.23 v -1.25 c 0.84,0 3.14,0 5.04,0.97 v -17.77 c 0,-1.16 0,-1.61 -3.48,-1.61 h -1.31 v -1.25 c 0.62,0.03 4.9,0.14 6.2,0.14 1.08,0 5.47,-0.11 6.23,-0.14 v 1.25 h -1.32 c -3.49,0 -3.49,0.45 -3.49,1.61 z"
         id="path12367"
         inkscape:connector-curvature="0"
         style="fill:#000000;stroke-width:0" /></g>  </g>
  <g
     id="g12481"
     transform="matrix(0.71322348,0,0,0.71322348,120.73982,-12.757096)">
    <g
       word-spacing="normal"
       letter-spacing="normal"
       font-size-adjust="none"
       font-stretch="normal"
       font-weight="normal"
       font-variant="normal"
       font-style="normal"
       stroke-miterlimit="10.433"
       xml:space="preserve"
       transform="matrix(0.3439694,0,0,-0.3439694,-60.194645,354.96947)"
       id="g12483"
       style="font-style:normal;font-variant:normal;font-weight:normal;font-stretch:normal;letter-spacing:normal;word-spacing:normal;text-anchor:start;fill:none;stroke:#000000;stroke-width:1.40208507;stroke-linecap:butt;stroke-linejoin:miter;stroke-miterlimit:10.43299961;stroke-opacity:1;stroke-dasharray:none;stroke-dashoffset:0"><path
         id="path12485"
         d="m 485.66,424.73 0,0.21 -0.01,0.2 -0.01,0.2 -0.02,0.19 -0.02,0.18 -0.03,0.18 -0.03,0.17 -0.04,0.16 -0.04,0.16 -0.04,0.16 -0.05,0.14 -0.05,0.14 -0.05,0.13 -0.06,0.13 -0.07,0.12 -0.06,0.12 -0.07,0.1 -0.07,0.1 -0.08,0.1 -0.08,0.09 -0.08,0.08 -0.08,0.07 -0.08,0.07 -0.09,0.06 -0.09,0.05 -0.09,0.05 -0.1,0.04 -0.09,0.03 -0.1,0.02 -0.1,0.02 -0.1,0.01 -0.1,0 c -1.3,0 -2.64,-1.18 -2.64,-2.34 0,-0.48 0.23,-1.03 0.73,-1.48 0.86,-0.75 1.75,-2.1 1.75,-4.19 0,-2 -0.95,-4.83 -2.48,-7.13 -1.5,-2.14 -3.35,-3.82 -5.69,-3.82 -2.85,0 -4.39,1.78 -4.83,4.46 0.55,1.3 1.69,4.49 1.69,5.9 0,0.59 -0.25,1.09 -0.89,1.09 -0.41,0 -0.96,-0.11 -1.35,-0.84 -0.54,-1 -1.15,-4.24 -1.15,-6.04 -1.64,-2.34 -3.63,-4.57 -6.77,-4.57 -3.3,0 -4.34,2.93 -4.34,5.71 0,6.24 5.09,11.47 5.09,12.11 0,0.55 -0.41,0.96 -0.95,0.96 -0.66,0 -1,-0.66 -1.3,-1.11 -2.55,-3.69 -4.44,-9.61 -4.44,-14.14 0,-3.44 1.16,-7.13 5.24,-7.13 3.53,0 5.87,2.49 7.67,5.24 0.45,-2.89 2.39,-5.24 5.48,-5.24 3.89,0 6.29,3.03 8.07,6.78 1.2,2.44 3.09,9.21 3.09,12.3 z"
         inkscape:connector-curvature="0"
         style="fill:#000000;stroke-width:0" /><path
         id="path12487"
         d="m 494.67,405.79 0,0.02 0,0.01 0.01,0.02 0,0.03 0.01,0.03 0.01,0.03 0,0.03 0.01,0.04 0.01,0.04 0.01,0.05 0.02,0.04 0.01,0.06 0.01,0.05 0.01,0.05 0.03,0.12 0.04,0.13 0.03,0.13 0.03,0.15 0.04,0.14 0.04,0.15 0.04,0.15 0.08,0.32 0.08,0.31 0.04,0.15 0.04,0.15 0.04,0.14 0.03,0.14 0.04,0.14 0.03,0.12 0.03,0.12 0.02,0.05 0.01,0.05 0.01,0.05 0.02,0.05 0.01,0.04 0.01,0.04 0.01,0.04 0.01,0.03 0.01,0.03 0,0.03 0.01,0.02 0.01,0.02 0,0.01 0,0.01 c 0.08,0.29 1.08,2.02 2.21,2.86 0.37,0.27 1.31,0.97 2.81,0.97 0.34,0 1.22,-0.03 1.92,-0.48 -1.12,-0.31 -1.53,-1.3 -1.53,-1.92 0,-0.77 0.59,-1.29 1.39,-1.29 0.8,0 1.95,0.66 1.95,2.13 0,1.81 -1.92,2.53 -3.7,2.53 -1.81,0 -3.37,-0.72 -4.91,-2.47 -0.62,2.13 -2.75,2.47 -3.59,2.47 -1.28,0 -2.16,-0.8 -2.72,-1.76 -0.79,-1.36 -1.28,-3.4 -1.28,-3.57 0,-0.45 0.49,-0.45 0.59,-0.45 0.49,0 0.52,0.11 0.77,1.05 0.52,2.12 1.19,3.76 2.55,3.76 0.9,0 1.14,-0.76 1.14,-1.7 0,-0.67 -0.31,-1.95 -0.56,-2.89 -0.24,-0.95 -0.58,-2.38 -0.77,-3.14 l -1.11,-4.47 c -0.14,-0.44 -0.34,-1.31 -0.34,-1.42 0,-0.77 0.62,-1.11 1.18,-1.11 0.52,0 1.22,0.31 1.49,1 0.08,0.22 0.45,1.75 0.67,2.62 z"
         inkscape:connector-curvature="0"
         style="fill:#000000;stroke-width:0" /></g>  </g>
</svg>
