<?xml version="1.0" encoding="UTF-8" standalone="no"?>
<!-- Created with Inkscape (http://www.inkscape.org/) -->

<svg
   xmlns:dc="http://purl.org/dc/elements/1.1/"
   xmlns:cc="http://creativecommons.org/ns#"
   xmlns:rdf="http://www.w3.org/1999/02/22-rdf-syntax-ns#"
   xmlns:svg="http://www.w3.org/2000/svg"
   xmlns="http://www.w3.org/2000/svg"
   xmlns:sodipodi="http://sodipodi.sourceforge.net/DTD/sodipodi-0.dtd"
   xmlns:inkscape="http://www.inkscape.org/namespaces/inkscape"
   width="496.49188"
   height="302.17746"
   id="svg2"
   version="1.1"
   inkscape:version="0.48.2 r9819"
   sodipodi:docname="inverse square force.svg">
  <sodipodi:namedview
     id="base"
     pagecolor="#ffffff"
     bordercolor="#666666"
     borderopacity="1.0"
     inkscape:pageopacity="0.0"
     inkscape:pageshadow="2"
     inkscape:zoom="1.6448823"
     inkscape:cx="204.51554"
     inkscape:cy="157.62835"
     inkscape:document-units="px"
     inkscape:current-layer="layer1"
     showgrid="false"
     height="524.41px"
     inkscape:window-width="1366"
     inkscape:window-height="743"
     inkscape:window-x="0"
     inkscape:window-y="3"
     inkscape:window-maximized="1"
     fit-margin-top="0"
     fit-margin-left="0"
     fit-margin-right="0"
     fit-margin-bottom="0" />
  <defs
     id="defs4">
    <marker
       inkscape:stockid="Arrow1Sstart"
       orient="auto"
       refY="0"
       refX="0"
       id="Arrow1Sstart"
       style="overflow:visible">
      <path
         id="path6961"
         d="M 0,0 5,-5 -12.5,0 5,5 0,0 z"
         style="fill-rule:evenodd;stroke:#000000;stroke-width:1pt;marker-start:none"
         transform="matrix(0.2,0,0,0.2,1.2,0)"
         inkscape:connector-curvature="0" />
    </marker>
  </defs>
  <metadata
     id="metadata7">
    <rdf:RDF>
      <cc:Work
         rdf:about="">
        <dc:format>image/svg+xml</dc:format>
        <dc:type
           rdf:resource="http://purl.org/dc/dcmitype/StillImage" />
        <dc:title />
      </cc:Work>
    </rdf:RDF>
  </metadata>
  <g
     transform="translate(-18.962249,-827.14645)"
     id="layer1"
     inkscape:groupmode="layer"
     inkscape:label="Layer 1">
    <path
       inkscape:connector-curvature="0"
       id="path2985"
       d="m 50.874149,828.57145 0,300.25245"
       style="fill:none;stroke:#000000;stroke-width:0.99999994px;stroke-linecap:butt;stroke-linejoin:miter;stroke-opacity:1;marker-start:url(#Arrow1Sstart)" />
    <path
       inkscape:connector-curvature="0"
       id="path2987"
       d="m 504.97392,978.60082 -475.261712,0"
       style="fill:none;stroke:#000000;stroke-width:0.99999994px;stroke-linecap:butt;stroke-linejoin:miter;stroke-opacity:1;marker-start:url(#Arrow1Sstart)" />
    <path
       id="path2999"
       title="y=1/r"
       d=""
       style="fill:none;stroke:#ff0000;stroke-width:0.99999994;stroke-linecap:butt;stroke-linejoin:miter;stroke-miterlimit:4;stroke-opacity:1;stroke-dasharray:none;stroke-dashoffset:0"
       inkscape:connector-curvature="0" />
    <path
       style="fill:none;stroke:#ff0000;stroke-width:0.99999994;stroke-linecap:butt;stroke-linejoin:miter;stroke-miterlimit:4;stroke-opacity:1;stroke-dasharray:none;stroke-dashoffset:0"
       d=""
       title="y=1/x"
       id="path3017"
       inkscape:connector-curvature="0" />
    <path
       id="path3037"
       title="y=pow(x,-1)"
       d=""
       style="fill:none;stroke:#ff0000;stroke-width:0.99999994;stroke-linecap:butt;stroke-linejoin:miter;stroke-miterlimit:4;stroke-opacity:1;stroke-dasharray:none;stroke-dashoffset:0"
       inkscape:connector-curvature="0" />
    <path
       style="fill:none;stroke:#ff0000;stroke-width:0.99999994;stroke-linecap:butt;stroke-linejoin:miter;stroke-miterlimit:4;stroke-opacity:1;stroke-dasharray:none;stroke-dashoffset:0"
       d=""
       title="y=1/x"
       id="path3059"
       inkscape:connector-curvature="0" />
    <path
       id="path3083"
       title="y=1/x"
       d=""
       style="fill:none;stroke:#ff0000;stroke-width:0.99999994;stroke-linecap:butt;stroke-linejoin:miter;stroke-miterlimit:4;stroke-opacity:1;stroke-dasharray:none;stroke-dashoffset:0"
       inkscape:connector-curvature="0" />
    <path
       style="fill:none;stroke:#ff0000;stroke-width:0.99999994;stroke-linecap:butt;stroke-linejoin:miter;stroke-miterlimit:4;stroke-opacity:1;stroke-dasharray:none;stroke-dashoffset:0"
       d=""
       title="y=1/x"
       id="path5536"
       inkscape:connector-curvature="0" />
    <path
       id="path5564"
       title="y=x"
       d=""
       style="fill:none;stroke:#ff0000;stroke-width:0.99999994;stroke-linecap:butt;stroke-linejoin:miter;stroke-miterlimit:4;stroke-opacity:1;stroke-dasharray:none;stroke-dashoffset:0"
       inkscape:connector-curvature="0" />
    <path
       sodipodi:nodetypes="csssssssssssssccssssssssssssscssssc"
       inkscape:connector-curvature="0"
       style="fill:none;stroke:#0000ff;stroke-width:0.99999988;stroke-linecap:butt;stroke-linejoin:bevel;stroke-miterlimit:4;stroke-opacity:1;stroke-dasharray:none;stroke-dashoffset:0"
       d="m 56.333932,1128.3643 c 3.728376,-4.9784 8.66945,-9.5792 13.004233,-14.021 4.334745,-4.4418 8.669489,-8.6588 13.004272,-12.6739 4.334706,-4.015 8.669508,-7.8269 13.004194,-11.4562 4.334783,-3.6293 8.669509,-7.0749 13.004309,-10.3556 4.33469,-3.2806 8.66947,-6.3952 13.00427,-9.3606 4.33469,-2.9654 8.66947,-5.7808 13.0042,-8.4613 4.33476,-2.6805 8.66951,-5.2254 13.00427,-7.6484 4.33472,-2.423 8.66951,-4.7234 13.00423,-6.9136 4.33477,-2.1902 8.66949,-4.2695 13.00424,-6.2493 4.3348,-1.9798 8.6695,-3.8593 13.00423,-5.6489 4.3348,-1.7896 8.66949,-3.4886 13.00431,-5.1062 4.33472,-1.6176 8.66951,-3.1534 13.00421,-4.6156 4.33478,-1.4622 8.66957,-2.8504 13.00427,-4.1722 4.33482,-1.3217 8.66949,-2.5765 13.00426,-3.7713 4.33476,-1.1947 8.66948,-2.329 13.00425,-3.409 4.33478,-1.0799 8.66949,-2.1052 13.00427,-3.0814 4.33478,-0.9762 8.66947,-1.903 13.00423,-2.7854 4.33471,-0.8824 8.66949,-1.7202 13.00427,-2.5178 4.33479,-0.7976 8.66947,-1.5549 13.00424,-2.2759 4.33474,-0.721 8.66949,-1.4055 13.00427,-2.0572 4.3347,-0.6518 8.66947,-1.2705 13.00427,-1.85962 4.33467,-0.5891 8.66945,-1.14839 13.0042,-1.68092 4.33474,-0.53251 8.6695,-1.03807 13.00431,-1.51941 4.33474,-0.48136 8.66945,-0.93836 13.00427,-1.37346 4.33466,-0.4351 8.66947,-0.84819 13.00415,-1.24147 4.33479,-0.39331 8.66957,-0.76671 13.00431,-1.12222 4.33471,-0.35551 8.66947,-0.69305 13.0042,-1.01439 4.33478,-0.32137 8.66954,-0.62645 13.00433,-0.91694 4.33468,-0.29051 8.66949,-0.56627 13.00417,-0.82886 4.33477,-0.26256 8.66951,-0.51184 13.00427,-0.7492 4.33479,-0.23734 8.66955,-0.46268 13.00427,-0.67722 4.33473,-0.21456 8.66951,-0.41822 13.00424,-0.61216 4.33478,-0.19392 8.66949,-0.37806 13.00427,-0.55336 4.33476,-0.17528 8.66951,-0.34171 13.00423,-0.50017"
       title="pow(2.718281828,-x)"
       id="path4908" />
    <g
       transform="matrix(0.40776155,0,0,0.40738199,449.95156,908.67696)"
       id="g7745">
      <g
         style="font-style:normal;font-variant:normal;font-weight:normal;font-stretch:normal;letter-spacing:normal;word-spacing:normal;text-anchor:start;fill:none;stroke:#000000;stroke-width:2.45355606;stroke-linecap:butt;stroke-linejoin:miter;stroke-miterlimit:10.43299961;stroke-opacity:1;stroke-dasharray:none;stroke-dashoffset:0"
         id="content"
         transform="matrix(0.53149606,0,0,-0.53149606,-93.01181,393.30748)"
         xml:space="preserve"
         stroke-miterlimit="10.433"
         font-style="normal"
         font-variant="normal"
         font-weight="normal"
         font-stretch="normal"
         font-size-adjust="none"
         letter-spacing="normal"
         word-spacing="normal"><path
           style="fill:#000000;stroke-width:0"
           inkscape:connector-curvature="0"
           d="m 459.91,409.14 -0.02,-0.07 -0.01,-0.08 -0.02,-0.07 -0.01,-0.08 -0.04,-0.16 -0.04,-0.16 -0.03,-0.16 -0.04,-0.16 -0.04,-0.16 -0.04,-0.16 -0.01,-0.08 -0.02,-0.07 -0.02,-0.07 -0.01,-0.07 -0.02,-0.07 -0.01,-0.07 -0.01,-0.06 -0.01,-0.06 -0.01,-0.06 -0.01,-0.05 -0.01,-0.05 -0.01,-0.04 -0.01,-0.04 0,-0.04 0,-0.03 0,-0.02 c 0,-0.89 0.7,-1.35 1.43,-1.35 0.61,0 1.5,0.39 1.85,1.39 0.11,0.21 1.8,6.99 2,7.88 0.39,1.64 1.3,5.12 1.59,6.48 0.21,0.64 1.6,2.99 2.78,4.08 0.41,0.34 1.85,1.64 4,1.64 1.28,0 2.03,-0.59 2.08,-0.59 -1.48,-0.25 -2.58,-1.46 -2.58,-2.74 0,-0.79 0.55,-1.75 1.89,-1.75 1.35,0 2.74,1.14 2.74,2.94 0,1.75 -1.6,3.23 -4.13,3.23 -3.25,0 -5.43,-2.43 -6.39,-3.82 -0.39,2.23 -2.18,3.82 -4.53,3.82 -2.28,0 -3.23,-1.93 -3.69,-2.82 -0.89,-1.71 -1.54,-4.69 -1.54,-4.85 0,-0.5 0.5,-0.5 0.61,-0.5 0.5,0 0.54,0.07 0.84,1.16 0.84,3.53 1.84,5.92 3.64,5.92 0.84,0 1.55,-0.39 1.55,-2.28 0,-1.05 -0.16,-1.61 -0.8,-4.19 z"
           id="path7748" /></g>    </g>
    <g
       id="g7802"
       transform="matrix(0.45117765,0,0,0.45075768,24.407429,795.57222)">
      <g
         word-spacing="normal"
         letter-spacing="normal"
         font-size-adjust="none"
         font-stretch="normal"
         font-weight="normal"
         font-variant="normal"
         font-style="normal"
         stroke-miterlimit="10.433"
         xml:space="preserve"
         transform="matrix(0.53149606,0,0,-0.53149606,-93.01181,393.30748)"
         id="g7804"
         style="font-style:normal;font-variant:normal;font-weight:normal;font-stretch:normal;letter-spacing:normal;word-spacing:normal;text-anchor:start;fill:none;stroke:#000000;stroke-width:2.2174542;stroke-linecap:butt;stroke-linejoin:miter;stroke-miterlimit:10.43299961;stroke-opacity:1;stroke-dasharray:none;stroke-dashoffset:0"><path
           id="path7806"
           d="m 502.31,448.06 0,0.01 0,0 0,0 0.01,0.01 0,0 0,0.01 0,0.01 0,0 0.01,0.01 0,0.01 0,0.01 0.01,0.02 0,0.02 0.01,0.02 0.01,0.02 0,0.02 0.01,0.02 0,0.03 0.01,0.02 0.01,0.05 0.01,0.04 0.01,0.03 0,0.02 0.01,0.02 0,0.02 0.01,0.02 0,0.02 0.01,0.02 0,0.01 0,0.01 0,0.01 0,0 0,0.01 0.01,0 0,0.01 0,0 0,0.01 0,0 0,0 0,0.01 0,0 c 0,0.19 -0.14,0.5 -0.56,0.5 -0.69,0 -3.6,-0.28 -4.46,-0.36 -0.25,-0.03 -0.73,-0.06 -0.73,-0.8 0,-0.48 0.48,-0.48 0.87,-0.48 1.68,0 1.68,-0.25 1.68,-0.53 0,-0.24 -0.08,-0.46 -0.14,-0.77 l -4.33,-17.2 c -0.11,-0.36 -0.14,-0.74 -0.14,-1.08 0,-2.23 1.98,-3.31 3.65,-3.31 0.85,0 1.89,0.28 2.8,1.84 0.73,1.28 1.22,3.35 1.22,3.49 0,0.45 -0.45,0.45 -0.56,0.45 -0.49,0 -0.55,-0.2 -0.69,-0.84 -0.45,-1.74 -1.13,-3.97 -2.63,-3.97 -0.93,0 -1.17,0.87 -1.17,1.7 0,0.39 0.1,1.05 0.2,1.44 z"
           inkscape:connector-curvature="0"
           style="fill:#000000;stroke-width:0" /><path
           id="path7808"
           d="m 519.99,444.73 h -1.04 c -0.08,-0.48 -0.33,-2.01 -0.72,-2.26 -0.21,-0.16 -2.3,-0.16 -2.68,-0.16 h -4.87 c 1.64,1.22 3.48,2.61 4.98,3.61 2.24,1.55 4.33,3 4.33,5.64 0,3.19 -3.01,4.96 -6.58,4.96 -3.36,0 -5.82,-1.96 -5.82,-4.4 0,-1.29 1.09,-1.51 1.45,-1.51 0.67,0 1.47,0.45 1.47,1.47 0,0.89 -0.66,1.39 -1.42,1.47 0.68,1.12 2.14,1.87 3.81,1.87 2.4,0 4.42,-1.45 4.42,-3.89 0,-2.09 -1.44,-3.69 -3.36,-5.31 l -6.08,-5.16 c -0.25,-0.22 -0.26,-0.22 -0.29,-0.39 v -0.75 h 11.57 z"
           inkscape:connector-curvature="0"
           style="fill:#000000;stroke-width:0" /><polyline
           id="polyline7810"
           points="462,417 556.32,417 556.32,419.04 462,419.04 "
           style="fill:#000000;fill-rule:nonzero;stroke-width:0" /><path
           id="path7812"
           d="m 479.11,394.42 h -1.18 c -0.1,-0.76 -0.46,-2.83 -0.91,-3.17 -0.27,-0.2 -2.95,-0.2 -3.44,-0.2 h -6.42 c 3.66,3.23 4.88,4.2 6.97,5.84 2.58,2.06 4.98,4.22 4.98,7.53 0,4.22 -3.68,6.8 -8.15,6.8 -4.32,0 -7.25,-3.03 -7.25,-6.24 0,-1.78 1.5,-1.95 1.86,-1.95 0.82,0 1.84,0.59 1.84,1.85 0,0.62 -0.25,1.84 -2.06,1.84 1.08,2.47 3.45,3.23 5.09,3.23 3.49,0 5.3,-2.7 5.3,-5.53 0,-3.03 -2.16,-5.44 -3.28,-6.69 l -8.39,-8.29 c -0.36,-0.32 -0.36,-0.39 -0.36,-1.36 h 14.36 z"
           inkscape:connector-curvature="0"
           style="fill:#000000;stroke-width:0" /><path
           id="path7814"
           d="m 496.44,390.91 -0.02,-0.07 -0.01,-0.07 -0.02,-0.07 -0.02,-0.08 -0.02,-0.07 -0.02,-0.08 -0.04,-0.16 -0.04,-0.16 -0.04,-0.16 -0.04,-0.16 -0.02,-0.08 -0.02,-0.07 -0.01,-0.08 -0.02,-0.07 -0.02,-0.07 -0.01,-0.07 -0.02,-0.07 -0.02,-0.06 -0.01,-0.06 -0.01,-0.06 -0.01,-0.05 -0.01,-0.05 -0.01,-0.05 -0.01,-0.04 -0.01,-0.03 0,-0.03 0,-0.03 0,-0.02 c 0,-0.76 0.62,-1.11 1.17,-1.11 0.64,0 1.19,0.46 1.36,0.77 0.19,0.31 0.45,1.42 0.64,2.16 0.17,0.65 0.55,2.26 0.76,3.14 0.21,0.76 0.41,1.53 0.6,2.32 0.37,1.5 0.37,1.57 1.08,2.66 1.11,1.7 2.86,3.69 5.56,3.69 1.95,0 2.06,-1.61 2.06,-2.44 0,-2.09 -1.5,-5.95 -2.06,-7.42 -0.38,-0.99 -0.52,-1.3 -0.52,-1.89 0,-1.84 1.53,-2.99 3.32,-2.99 3.48,0 5.01,4.8 5.01,5.33 0,0.46 -0.45,0.46 -0.56,0.46 -0.48,0 -0.52,-0.21 -0.66,-0.6 -0.79,-2.78 -2.29,-4.22 -3.68,-4.22 -0.74,0 -0.88,0.49 -0.88,1.22 0,0.8 0.17,1.25 0.8,2.83 0.42,1.08 1.84,4.77 1.84,6.72 0,0.56 0,2.03 -1.28,3.03 -0.59,0.45 -1.61,0.94 -3.25,0.94 -3.13,0 -5.05,-2.05 -6.16,-3.52 -0.28,2.97 -2.76,3.52 -4.53,3.52 -2.89,0 -4.84,-1.77 -5.89,-3.16 -0.25,2.39 -2.3,3.16 -3.73,3.16 -1.5,0 -2.3,-1.08 -2.75,-1.88 -0.77,-1.28 -1.25,-3.28 -1.25,-3.45 0,-0.45 0.48,-0.45 0.59,-0.45 0.49,0 0.52,0.11 0.77,1.04 0.51,2.07 1.18,3.77 2.54,3.77 0.91,0 1.14,-0.77 1.14,-1.7 0,-0.68 -0.31,-1.96 -0.56,-2.89 -0.23,-0.96 -0.58,-2.38 -0.76,-3.15 l -1.11,-4.46 c -0.14,-0.44 -0.35,-1.32 -0.35,-1.43 0,-0.76 0.63,-1.11 1.19,-1.11 0.63,0 1.17,0.46 1.36,0.77 0.17,0.31 0.45,1.42 0.62,2.16 0.18,0.65 0.55,2.26 0.77,3.14 0.2,0.76 0.42,1.53 0.59,2.32 0.38,1.44 0.46,1.71 1.46,3.15 0.98,1.39 2.62,3.2 5.23,3.2 2.02,0 2.05,-1.78 2.05,-2.44 0,-0.87 -0.1,-1.33 -0.6,-3.28 z"
           inkscape:connector-curvature="0"
           style="fill:#000000;stroke-width:0" /><path
           id="path7816"
           d="m 524.9,395.11 0,0.01 0.01,0.02 0,0.02 0.01,0.02 0,0.03 0.01,0.03 0.01,0.04 0.01,0.04 0.01,0.04 0.01,0.04 0.01,0.05 0.01,0.05 0.02,0.05 0.01,0.06 0.03,0.12 0.03,0.13 0.03,0.13 0.04,0.14 0.04,0.15 0.03,0.15 0.04,0.15 0.08,0.31 0.08,0.31 0.04,0.16 0.04,0.15 0.04,0.14 0.04,0.14 0.03,0.13 0.04,0.13 0.03,0.11 0.01,0.06 0.01,0.05 0.02,0.05 0.01,0.05 0.01,0.04 0.01,0.04 0.01,0.04 0.01,0.03 0.01,0.03 0.01,0.03 0.01,0.02 0,0.02 0.01,0.01 0,0.01 c 0.08,0.28 1.08,2.02 2.2,2.86 0.38,0.27 1.31,0.97 2.81,0.97 0.35,0 1.22,-0.03 1.93,-0.49 -1.13,-0.31 -1.53,-1.29 -1.53,-1.92 0,-0.76 0.59,-1.28 1.38,-1.28 0.8,0 1.96,0.66 1.96,2.13 0,1.81 -1.92,2.53 -3.71,2.53 -1.81,0 -3.37,-0.72 -4.9,-2.47 -0.63,2.12 -2.75,2.47 -3.6,2.47 -1.28,0 -2.15,-0.8 -2.71,-1.77 -0.8,-1.36 -1.29,-3.39 -1.29,-3.56 0,-0.45 0.49,-0.45 0.6,-0.45 0.48,0 0.52,0.11 0.77,1.04 0.51,2.13 1.18,3.77 2.54,3.77 0.91,0 1.14,-0.77 1.14,-1.7 0,-0.68 -0.31,-1.96 -0.56,-2.89 -0.24,-0.96 -0.58,-2.38 -0.77,-3.15 l -1.1,-4.46 c -0.15,-0.44 -0.35,-1.32 -0.35,-1.43 0,-0.76 0.63,-1.11 1.19,-1.11 0.51,0 1.22,0.32 1.48,1 0.08,0.22 0.46,1.75 0.68,2.63 z"
           inkscape:connector-curvature="0"
           style="fill:#000000;stroke-width:0" /><path
           id="path7818"
           d="m 550.95,402.85 h -1.04 c -0.08,-0.48 -0.33,-2.01 -0.72,-2.26 -0.21,-0.16 -2.3,-0.16 -2.67,-0.16 h -4.88 c 1.64,1.22 3.48,2.61 4.98,3.61 2.24,1.55 4.33,3 4.33,5.64 0,3.19 -3.01,4.95 -6.57,4.95 -3.36,0 -5.83,-1.95 -5.83,-4.39 0,-1.29 1.09,-1.51 1.45,-1.51 0.67,0 1.47,0.45 1.47,1.47 0,0.89 -0.66,1.39 -1.42,1.46 0.68,1.13 2.14,1.88 3.81,1.88 2.41,0 4.42,-1.45 4.42,-3.89 0,-2.1 -1.44,-3.69 -3.36,-5.31 l -6.08,-5.16 c -0.25,-0.22 -0.26,-0.22 -0.29,-0.39 v -0.75 h 11.57 z"
           inkscape:connector-curvature="0"
           style="fill:#000000;stroke-width:0" /></g>    </g>
    <path
       sodipodi:nodetypes="csssssssssssssccssssssssssssscsssssssscscccscccccccccccccccsccccc"
       inkscape:connector-curvature="0"
       style="fill:none;stroke:#0000ff;stroke-width:0.99999988;stroke-linecap:butt;stroke-linejoin:bevel;stroke-miterlimit:4;stroke-opacity:1;stroke-dasharray:none;stroke-dashoffset:0"
       d="m 55.067617,829.03625 c 1.997179,4.9785 4.643971,9.5792 6.966005,14.021 2.322015,4.4418 4.644011,8.6589 6.966044,12.6739 2.321977,4.0151 4.644011,7.8269 6.965987,11.4563 2.322034,3.6293 4.644029,7.0749 6.966044,10.3556 2.321976,3.2805 4.64401,6.3951 6.966044,9.3606 2.321976,2.9654 4.643991,5.7807 6.965986,8.4613 2.322015,2.6805 4.644033,5.2254 6.966043,7.6483 2.32198,2.423 4.64401,4.7234 6.96601,6.9136 2.32201,2.1902 4.64401,4.2696 6.966,6.2493 2.32204,1.9798 4.64403,3.8594 6.96603,5.6489 2.32203,1.7896 4.64399,3.4886 6.96604,5.1063 2.322,1.6176 4.64403,3.1533 6.96601,4.6155 2.32201,1.4622 4.64405,2.8504 6.96602,4.1722 2.32206,1.3217 4.64403,2.5766 6.96603,3.7713 2.32201,1.1947 4.64401,2.3291 6.96602,3.409 2.32202,1.0799 4.64401,2.1053 6.96603,3.0815 2.32203,0.9762 4.64401,1.903 6.96602,2.7853 2.32198,0.8824 4.64401,1.7202 6.96603,2.5178 2.32203,0.7977 4.64401,1.5549 6.966,2.2759 2.32202,0.721 4.64403,1.4055 6.96605,2.0573 2.32199,0.6517 4.64399,1.2705 6.96602,1.85951 2.32198,0.58913 4.64401,1.14842 6.96601,1.68091 2.32199,0.53258 4.64401,1.03816 6.96604,1.51949 2.32202,0.48133 4.64399,0.93833 6.96603,1.37345 2.32197,0.43512 4.64401,0.84819 6.96598,1.24149 2.32202,0.3933 4.64405,0.76665 6.96605,1.12216 2.32199,0.35551 4.64401,0.69308 6.966,1.01437 2.32202,0.32138 4.64403,0.62646 6.96607,0.917 2.32197,0.29045 4.64399,0.56625 6.96596,0.82879 2.32202,0.26263 4.64403,0.5119 6.96605,0.74927 2.32201,0.23728 4.64403,0.46266 6.96602,0.67716 2.322,0.21459 4.64403,0.41828 6.96601,0.61219 2.32203,0.1939 4.64401,0.37811 6.96604,0.55335 2.32202,0.17533 4.64401,0.34169 6.96601,0.50018 2.32201,0.15849 4.64405,0.30893 6.96602,0.45214 2.32202,0.14321 4.64403,0.27919 6.96605,0.40868 2.32201,0.12948 4.64403,0.25238 6.966,0.36942 2.322,0.11704 4.64401,0.22813 6.96605,0.33391 2.32199,0.10588 4.64399,0.20626 6.96598,0.30189 2.32206,0.0955 4.64403,0.1864 6.96605,0.27287 2.32197,0.086 4.64399,0.16847 6.96604,0.24662 2.322,0.0778 4.64401,0.15227 6.96599,0.22291 2.32203,0.0705 4.64401,0.13772 6.96604,0.2015 2.32202,0.0641 4.64401,0.12445 6.96603,0.18219 2.32201,0.0576 4.64399,0.11247 6.96602,0.16463 2.32198,0.0522 4.64401,0.10166 6.96601,0.14888 2.32203,0.0476 4.64401,0.0919 6.96602,0.13452 2.32198,0.043 4.64401,0.0833 6.96601,0.12161 2.32203,0.0384 4.64403,0.075 6.96604,0.10981 2.32202,0.0348 4.64399,0.0677 6.96603,0.0995 2.32199,0.0311 4.64401,0.0613 6.96602,0.0897 2.322,0.0284 4.64401,0.0558 6.96601,0.0814 2.32199,0.0256 4.64403,0.0503 6.96604,0.0732 2.322,0.0229 4.64399,0.0448 6.96603,0.0659 2.32197,0.021 4.64401,0.0412 6.966,0.0604 2.322,0.0192 4.64397,0.0366 6.96603,0.054 2.32201,0.0174 4.64401,0.0339 6.966,0.0494 2.32202,0.0156 4.64405,0.0302 6.96603,0.0439 2.32201,0.0137 4.64404,0.0275 6.96602,0.0403 2.32202,0.0128 4.64403,0.0247 6.96603,0.0366 2.32199,0.011 4.64403,0.022 6.96602,0.033 2.32202,0.0101 4.64401,0.0201 6.96603,0.0293 2.32201,0.0101 4.64401,0.0183 6.96602,0.0265 2.32202,0.009 4.64399,0.0165 6.96603,0.0238"
       title="pow(2.718281828,-x)"
       id="path4908-6" />
    <path
       style="fill:none;stroke:#ff0000;stroke-width:0.99999994px;stroke-linecap:butt;stroke-linejoin:miter;stroke-opacity:1"
       d="m 57.914844,857.69495 c 0,0 6.966006,213.79585 85.506896,178.30535 69.85886,-31.5673 147.46497,-44.59385 188.78144,-47.89427 75.90792,-6.06363 161.01945,-5.19336 161.01945,-5.19336"
       id="path7910"
       inkscape:connector-curvature="0"
       sodipodi:nodetypes="cssc" />
    <g
       id="g7950"
       transform="matrix(0.91505721,0,0,0.91508117,-48.849265,732.31118)">
      <g
         id="g7952"
         transform="matrix(0.26156399,0,0,-0.26156399,-45.773697,223.13557)"
         xml:space="preserve"
         stroke-miterlimit="10.433"
         font-style="normal"
         font-variant="normal"
         font-weight="normal"
         font-stretch="normal"
         font-size-adjust="none"
         letter-spacing="normal"
         word-spacing="normal"
         style="font-style:normal;font-variant:normal;font-weight:normal;font-stretch:normal;letter-spacing:normal;word-spacing:normal;text-anchor:start;fill:none;stroke:#000000;stroke-width:1.09281349;stroke-linecap:butt;stroke-linejoin:miter;stroke-miterlimit:10.43299961;stroke-opacity:1;stroke-dasharray:none;stroke-dashoffset:0"><path
           d="m 486.8,434.54 0.23,0.36 0.23,0.33 0.22,0.31 0.22,0.29 0.22,0.28 0.22,0.25 0.22,0.24 0.22,0.22 0.21,0.2 0.21,0.19 0.21,0.17 0.2,0.16 0.21,0.14 0.2,0.13 0.21,0.12 0.19,0.11 0.2,0.09 0.2,0.09 0.19,0.07 0.2,0.07 0.19,0.06 0.19,0.05 0.18,0.04 0.19,0.03 0.18,0.03 0.19,0.03 0.36,0.04 0.35,0.02 0.35,0.02 c 0.6,0.05 0.64,0.89 0.64,0.96 0,0.39 -0.25,0.59 -0.64,0.59 -1.3,0 -2.75,-0.16 -4.09,-0.16 -1.64,0 -3.35,0.16 -4.94,0.16 -0.3,0 -0.94,0 -0.94,-0.95 0,-0.55 0.46,-0.6 0.8,-0.6 1.34,-0.09 2.3,-0.59 2.3,-1.64 0,-0.75 -0.75,-1.84 -0.75,-1.89 l -15.3,-24.31 -3.39,26.34 c 0,0.85 1.14,1.5 3.44,1.5 0.7,0 1.25,0 1.25,1 0,0.44 -0.41,0.55 -0.71,0.55 -1.98,0 -4.14,-0.16 -6.17,-0.16 -0.9,0 -1.84,0.05 -2.75,0.05 -0.89,0 -1.84,0.11 -2.69,0.11 -0.34,0 -0.93,0 -0.93,-0.95 0,-0.6 0.43,-0.6 1.23,-0.6 2.8,0 2.84,-0.45 3,-1.68 l 3.92,-30.75 c 0.16,-1 0.36,-1.14 1,-1.14 0.8,0 1,0.25 1.41,0.89 z"
           id="path7954"
           inkscape:connector-curvature="0"
           style="fill:#000000;stroke-width:0" /><path
           d="m 512.2,394.25 0,0.02 0,0.03 0,0.01 0,0.02 -0.01,0.01 0,0.02 -0.01,0.01 0,0.02 -0.01,0.02 -0.01,0.02 -0.01,0.02 -0.02,0.03 -0.01,0.02 -0.02,0.03 -0.02,0.03 -0.03,0.03 -0.02,0.03 -0.03,0.04 -0.02,0.02 -0.02,0.02 -0.01,0.02 -0.02,0.02 -0.02,0.02 -0.02,0.03 -0.02,0.02 -0.02,0.02 -0.03,0.03 -0.02,0.02 -0.02,0.03 -0.03,0.03 -0.03,0.03 -0.02,0.03 -0.03,0.03 -0.03,0.03 -0.03,0.03 -0.04,0.03 -0.03,0.04 -0.03,0.03 -0.04,0.04 -0.03,0.03 -0.04,0.04 -0.04,0.04 c -6.22,6.28 -7.81,15.69 -7.81,23.31 0,8.67 1.89,17.35 8.01,23.56 0.64,0.61 0.64,0.71 0.64,0.86 0,0.35 -0.18,0.49 -0.48,0.49 -0.5,0 -4.99,-3.38 -7.92,-9.7 -2.55,-5.49 -3.14,-11.02 -3.14,-15.21 0,-3.89 0.54,-9.9 3.28,-15.54 2.98,-6.13 7.28,-9.36 7.78,-9.36 0.3,0 0.48,0.14 0.48,0.5 z"
           id="path7956"
           inkscape:connector-curvature="0"
           style="fill:#000000;stroke-width:0" /><path
           d="m 519.43,409.14 -0.02,-0.07 -0.01,-0.08 -0.02,-0.07 -0.02,-0.08 -0.03,-0.16 -0.04,-0.16 -0.04,-0.16 -0.04,-0.16 -0.03,-0.16 -0.04,-0.16 -0.02,-0.08 -0.01,-0.07 -0.02,-0.07 -0.01,-0.07 -0.02,-0.07 -0.01,-0.07 -0.02,-0.06 -0.01,-0.06 -0.01,-0.06 -0.01,-0.05 -0.01,-0.05 0,-0.04 -0.01,-0.04 0,-0.04 -0.01,-0.03 0,-0.02 c 0,-0.89 0.71,-1.35 1.44,-1.35 0.61,0 1.5,0.39 1.84,1.39 0.11,0.21 1.8,6.99 2,7.88 0.4,1.64 1.3,5.12 1.6,6.48 0.2,0.64 1.59,2.99 2.78,4.08 0.4,0.34 1.84,1.64 4,1.64 1.28,0 2.03,-0.59 2.08,-0.59 -1.49,-0.25 -2.58,-1.46 -2.58,-2.74 0,-0.79 0.55,-1.75 1.89,-1.75 1.34,0 2.73,1.14 2.73,2.94 0,1.75 -1.59,3.23 -4.12,3.23 -3.25,0 -5.44,-2.43 -6.39,-3.82 -0.39,2.23 -2.19,3.82 -4.53,3.82 -2.28,0 -3.24,-1.93 -3.69,-2.82 -0.89,-1.71 -1.55,-4.69 -1.55,-4.85 0,-0.5 0.5,-0.5 0.61,-0.5 0.5,0 0.55,0.07 0.85,1.16 0.84,3.53 1.84,5.92 3.64,5.92 0.84,0 1.54,-0.39 1.54,-2.28 0,-1.05 -0.15,-1.61 -0.79,-4.19 z"
           id="path7958"
           inkscape:connector-curvature="0"
           style="fill:#000000;stroke-width:0" /><path
           d="m 553.3,418.65 0,0.37 0,0.39 -0.01,0.39 -0.01,0.41 -0.04,0.84 -0.06,0.88 -0.09,0.92 -0.1,0.95 -0.14,0.97 -0.16,1.01 -0.2,1.02 -0.23,1.03 -0.26,1.05 -0.31,1.06 -0.35,1.07 -0.39,1.07 -0.21,0.53 -0.23,0.53 -0.24,0.53 -0.25,0.53 c -2.98,6.12 -7.26,9.36 -7.76,9.36 -0.3,0 -0.5,-0.19 -0.5,-0.49 0,-0.15 0,-0.25 0.94,-1.15 4.89,-4.92 7.73,-12.85 7.73,-23.27 0,-8.51 -1.84,-17.28 -8.03,-23.56 -0.64,-0.59 -0.64,-0.7 -0.64,-0.84 0,-0.3 0.2,-0.5 0.5,-0.5 0.5,0 4.97,3.39 7.92,9.71 2.53,5.47 3.12,11 3.12,15.19 z"
           id="path7960"
           inkscape:connector-curvature="0"
           style="fill:#000000;stroke-width:0" /></g>    </g>
    <g
       id="g8152"
       transform="matrix(0.91505721,0,0,0.91508117,-48.157737,937.0404)">
      <g
         word-spacing="normal"
         letter-spacing="normal"
         font-size-adjust="none"
         font-stretch="normal"
         font-weight="normal"
         font-variant="normal"
         font-style="normal"
         stroke-miterlimit="10.433"
         xml:space="preserve"
         transform="matrix(0.26156399,0,0,-0.26156399,-45.773697,223.13557)"
         id="g8154"
         style="font-style:normal;font-variant:normal;font-weight:normal;font-stretch:normal;letter-spacing:normal;word-spacing:normal;text-anchor:start;fill:none;stroke:#000000;stroke-width:1.09281349;stroke-linecap:butt;stroke-linejoin:miter;stroke-miterlimit:10.43299961;stroke-opacity:1;stroke-dasharray:none;stroke-dashoffset:0"><path
           id="path8156"
           d="m 486.8,434.54 0.23,0.36 0.23,0.33 0.22,0.31 0.22,0.29 0.22,0.28 0.22,0.25 0.22,0.24 0.22,0.22 0.21,0.2 0.21,0.19 0.21,0.17 0.2,0.16 0.21,0.14 0.2,0.13 0.21,0.12 0.19,0.11 0.2,0.09 0.2,0.09 0.19,0.07 0.2,0.07 0.19,0.06 0.19,0.05 0.18,0.04 0.19,0.03 0.18,0.03 0.19,0.03 0.36,0.04 0.35,0.02 0.35,0.02 c 0.6,0.05 0.64,0.89 0.64,0.96 0,0.39 -0.25,0.59 -0.64,0.59 -1.3,0 -2.75,-0.16 -4.09,-0.16 -1.64,0 -3.35,0.16 -4.94,0.16 -0.3,0 -0.94,0 -0.94,-0.95 0,-0.55 0.46,-0.6 0.8,-0.6 1.34,-0.09 2.3,-0.59 2.3,-1.64 0,-0.75 -0.75,-1.84 -0.75,-1.89 l -15.3,-24.31 -3.39,26.34 c 0,0.85 1.14,1.5 3.44,1.5 0.7,0 1.25,0 1.25,1 0,0.44 -0.41,0.55 -0.71,0.55 -1.98,0 -4.14,-0.16 -6.17,-0.16 -0.9,0 -1.84,0.05 -2.75,0.05 -0.89,0 -1.84,0.11 -2.69,0.11 -0.34,0 -0.93,0 -0.93,-0.95 0,-0.6 0.43,-0.6 1.23,-0.6 2.8,0 2.84,-0.45 3,-1.68 l 3.92,-30.75 c 0.16,-1 0.36,-1.14 1,-1.14 0.8,0 1,0.25 1.41,0.89 z"
           inkscape:connector-curvature="0"
           style="fill:#000000;stroke-width:0" /><path
           id="path8158"
           d="m 494.14,421.79 -0.03,0.07 -0.03,0.07 -0.03,0.06 -0.03,0.06 -0.03,0.05 -0.03,0.05 -0.03,0.04 -0.03,0.05 -0.03,0.03 -0.03,0.04 -0.03,0.03 -0.04,0.03 -0.03,0.03 -0.03,0.02 -0.04,0.02 -0.04,0.02 -0.04,0.02 -0.03,0.01 -0.05,0.02 -0.04,0.01 -0.04,0.01 -0.05,0.01 -0.04,0 -0.05,0.01 -0.05,0 -0.05,0 -0.06,0.01 -0.06,0 -0.05,0 -0.07,0 -0.06,0 -0.07,0 h -6.11 v -1.25 h 0.85 c 2.67,0 2.75,-0.35 2.75,-1.58 v -17.2 c 0,-0.94 0,-2.52 -3.6,-2.52 v -1.25 c 1.44,0.11 2.83,0.14 4.25,0.14 1.44,0 2.83,-0.03 4.25,-0.14 v 1.25 c -3.57,0 -3.57,1.58 -3.57,2.52 v 18.36 l 0.03,0.03 9.06,-21.36 c 0.17,-0.41 0.34,-0.8 0.86,-0.8 0.25,0 0.56,0.11 0.84,0.74 l 9.21,21.78 0.03,-0.05 v -19.64 c 0,-1.19 -0.06,-1.58 -2.75,-1.58 h -0.85 v -1.25 c 1.68,0.06 3.63,0.14 5.07,0.14 1.42,0 3.37,-0.08 5.04,-0.14 v 1.25 h -0.84 c -2.67,0 -2.75,0.36 -2.75,1.58 v 18.14 c 0,1.19 0.08,1.58 2.75,1.58 h 0.84 v 1.25 h -6.06 c -0.7,0 -1.01,0 -1.3,-0.69 l -8.36,-19.76 z"
           inkscape:connector-curvature="0"
           style="fill:#000000;stroke-width:0" /><path
           id="path8160"
           d="m 535.98,408.11 0,0.33 0,0.33 -0.01,0.32 -0.01,0.31 -0.01,0.15 -0.02,0.15 -0.01,0.14 -0.02,0.15 -0.02,0.14 -0.03,0.14 -0.03,0.14 -0.04,0.13 -0.04,0.14 -0.04,0.13 -0.05,0.13 -0.06,0.13 -0.06,0.13 -0.07,0.13 -0.07,0.13 -0.08,0.12 -0.09,0.13 -0.1,0.12 -0.1,0.12 -0.11,0.13 -0.12,0.12 -0.13,0.12 -0.14,0.12 -0.14,0.12 c -1.43,1.19 -3.1,1.75 -5.16,1.75 -3.31,0 -5.64,-1.27 -5.64,-3.39 0,-1.11 0.76,-1.71 1.67,-1.71 0.94,0 1.64,0.71 1.64,1.65 0,0.59 -0.28,1.32 -1.22,1.59 1.25,0.87 3.27,0.87 3.49,0.87 1.93,0 4.06,-1.28 4.06,-4.21 v -1.08 -0.91 -3.45 c 0,-3.35 -2.92,-4.28 -4.49,-4.28 -1.78,0 -3.45,1.18 -3.45,2.89 0,1.92 1.67,4.61 7.94,4.84 v 0.91 c -1.91,-0.07 -4.2,-0.17 -6.75,-1.11 -3.14,-1.16 -4.11,-3.06 -4.11,-4.64 0,-3 3.62,-3.86 6.09,-3.86 2.78,0 4.43,1.56 5.16,2.92 0.14,-1.42 1.08,-2.75 2.69,-2.75 0.06,0 3.43,0 3.43,3.31 v 1.91 h -1.17 v -1.88 c 0,-0.34 0,-2.01 -1.29,-2.01 -1.29,0 -1.29,1.62 -1.29,2.08 z"
           inkscape:connector-curvature="0"
           style="fill:#000000;stroke-width:0" /><path
           id="path8162"
           d="m 552.05,406.57 0,0.01 -0.01,0 0,0 0,0 0,0.01 -0.01,0 0,0 0,0.01 -0.01,0 0,0.01 -0.01,0 -0.01,0.02 -0.01,0.01 -0.01,0.01 -0.01,0.01 -0.01,0.01 -0.02,0.02 -0.01,0.01 -0.01,0.02 -0.03,0.03 -0.02,0.03 -0.01,0.01 -0.01,0.01 -0.01,0.02 -0.02,0.01 -0.01,0.01 0,0.02 -0.01,0.01 -0.01,0.01 0,0 -0.01,0.01 0,0 0,0.01 -0.01,0 0,0 0,0.01 0,0 0,0 0,0 0,0.01 0,0 c 0,0.11 2.29,2.58 2.61,2.89 1.21,1.36 2.43,2.69 5.2,2.72 v 1.25 c -0.99,-0.07 -1.99,-0.14 -2.94,-0.14 -1.05,0 -2.41,0.03 -3.44,0.14 v -1.25 c 0.58,-0.11 0.69,-0.49 0.69,-0.8 0,-0.08 0,-0.59 -0.51,-1.19 l -2.44,-2.75 -2.89,3.3 c -0.36,0.39 -0.39,0.56 -0.39,0.7 0,0.52 0.48,0.74 0.93,0.74 v 1.25 c -1.28,-0.11 -2.61,-0.14 -3.9,-0.14 -1.03,0 -2.36,0.03 -3.38,0.14 v -1.25 c 1.61,0 2.52,0 3.42,-1.05 l 4.35,-5.02 c 0.04,-0.03 0.28,-0.31 0.28,-0.34 0,-0.11 -2.61,-2.97 -2.95,-3.36 -1.3,-1.39 -2.49,-2.67 -5.27,-2.75 v -1.25 c 1.05,0.06 1.81,0.14 2.89,0.14 1.05,0 2.44,-0.03 3.49,-0.14 v 1.25 c -0.43,0.08 -0.71,0.31 -0.71,0.81 0,0.66 0.39,1.11 0.96,1.71 l 2.43,2.68 3.03,-3.45 c 0.66,-0.73 0.66,-0.81 0.66,-1.01 0,-0.69 -0.8,-0.74 -0.94,-0.74 v -1.25 c 0.32,0.03 2.83,0.14 3.94,0.14 1.11,0 2.23,-0.03 3.34,-0.14 v 1.25 c -2.32,0 -2.61,0.22 -3.42,1.13 z"
           inkscape:connector-curvature="0"
           style="fill:#000000;stroke-width:0" /></g>    </g>
    <g
       transform="matrix(0.91505721,0,0,0.91508117,-44.850883,913.68167)"
       id="g8262">
      <g
         style="font-style:normal;font-variant:normal;font-weight:normal;font-stretch:normal;letter-spacing:normal;word-spacing:normal;text-anchor:start;fill:none;stroke:#000000;stroke-width:1.09281349;stroke-linecap:butt;stroke-linejoin:miter;stroke-miterlimit:10.43299961;stroke-opacity:1;stroke-dasharray:none;stroke-dashoffset:0"
         id="g8264"
         transform="matrix(0.26156399,0,0,-0.26156399,-45.773697,223.13557)"
         xml:space="preserve"
         stroke-miterlimit="10.433"
         font-style="normal"
         font-variant="normal"
         font-weight="normal"
         font-stretch="normal"
         font-size-adjust="none"
         letter-spacing="normal"
         word-spacing="normal"><path
           style="fill:#000000;stroke-width:0"
           inkscape:connector-curvature="0"
           d="m 490.8,417.81 0.01,0.02 0.01,0.03 0.02,0.05 0.02,0.05 0.02,0.05 0.02,0.05 0.02,0.05 0.02,0.05 0.01,0.05 0.01,0.03 0.01,0.02 0.01,0.02 0.01,0.03 0,0.02 0.01,0.02 0.01,0.02 0,0.02 0.01,0.02 0,0.02 0.01,0.01 0,0.02 0,0.02 0,0.01 0,0.01 0.01,0.01 c 0,0.05 0,0.55 -0.6,0.55 -0.45,0 -0.55,-0.3 -0.64,-0.61 -3.25,-7.38 -5.08,-10.7 -13.61,-10.7 h -7.26 c -0.71,0 -0.8,0 -1.1,0.04 -0.5,0.05 -0.65,0.1 -0.65,0.5 0,0.14 0,0.25 0.25,1.14 l 3.39,13.61 h 4.93 c 4.24,0 4.24,-1.04 4.24,-2.29 0,-0.35 0,-0.96 -0.36,-2.44 -0.09,-0.25 -0.14,-0.41 -0.14,-0.55 0,-0.25 0.19,-0.55 0.64,-0.55 0.41,0 0.55,0.25 0.75,0.99 l 2.84,11.67 c 0,0.3 -0.25,0.55 -0.61,0.55 -0.43,0 -0.54,-0.3 -0.68,-0.91 -1.05,-3.78 -1.96,-4.92 -6.54,-4.92 h -4.68 l 3,12 c 0.43,1.75 0.5,1.94 2.68,1.94 h 7.02 c 6.08,0 7.58,-1.44 7.58,-5.53 0,-1.19 0,-1.29 -0.2,-2.64 0,-0.3 -0.05,-0.65 -0.05,-0.9 0,-0.25 0.15,-0.59 0.59,-0.59 0.56,0 0.61,0.3 0.71,1.25 l 1,8.61 c 0.14,1.34 -0.1,1.34 -1.35,1.34 h -25.15 c -1,0 -1.5,0 -1.5,-1 0,-0.54 0.45,-0.54 1.39,-0.54 1.84,0 3.23,0 3.23,-0.89 0,-0.21 0,-0.3 -0.25,-1.21 l -6.56,-26.34 c -0.5,-1.95 -0.61,-2.34 -4.55,-2.34 -0.84,0 -1.39,0 -1.39,-0.96 0,-0.59 0.45,-0.59 1.39,-0.59 h 25.86 c 1.16,0 1.2,0.05 1.55,0.84 z"
           id="path8266" /></g>    </g>
    <g
       transform="matrix(0.91505721,0,0,0.91508117,17.892539,865.83172)"
       id="g8372">
      <g
         style="font-style:normal;font-variant:normal;font-weight:normal;font-stretch:normal;letter-spacing:normal;word-spacing:normal;text-anchor:start;fill:none;stroke:#000000;stroke-width:1.09281349;stroke-linecap:butt;stroke-linejoin:miter;stroke-miterlimit:10.43299961;stroke-opacity:1;stroke-dasharray:none;stroke-dashoffset:0"
         word-spacing="normal"
         letter-spacing="normal"
         font-size-adjust="none"
         font-stretch="normal"
         font-weight="normal"
         font-variant="normal"
         font-style="normal"
         stroke-miterlimit="10.433"
         xml:space="preserve"
         transform="matrix(0.26156399,0,0,-0.26156399,-45.773697,223.13557)"
         id="g8374"><path
           style="fill:#000000;stroke-width:0"
           inkscape:connector-curvature="0"
           id="path8376"
           d="m 459.91,409.14 -0.02,-0.07 -0.01,-0.08 -0.02,-0.07 -0.01,-0.08 -0.04,-0.16 -0.04,-0.16 -0.03,-0.16 -0.04,-0.16 -0.04,-0.16 -0.04,-0.16 -0.01,-0.08 -0.02,-0.07 -0.02,-0.07 -0.01,-0.07 -0.02,-0.07 -0.01,-0.07 -0.01,-0.06 -0.01,-0.06 -0.01,-0.06 -0.01,-0.05 -0.01,-0.05 -0.01,-0.04 -0.01,-0.04 0,-0.04 0,-0.03 0,-0.02 c 0,-0.89 0.7,-1.35 1.43,-1.35 0.61,0 1.5,0.39 1.85,1.39 0.11,0.21 1.8,6.99 2,7.88 0.39,1.64 1.3,5.12 1.59,6.48 0.21,0.64 1.6,2.99 2.78,4.08 0.41,0.34 1.85,1.64 4,1.64 1.28,0 2.03,-0.59 2.08,-0.59 -1.48,-0.25 -2.58,-1.46 -2.58,-2.74 0,-0.79 0.55,-1.75 1.89,-1.75 1.35,0 2.74,1.14 2.74,2.94 0,1.75 -1.6,3.23 -4.13,3.23 -3.25,0 -5.43,-2.43 -6.39,-3.82 -0.39,2.23 -2.18,3.82 -4.53,3.82 -2.28,0 -3.23,-1.93 -3.69,-2.82 -0.89,-1.71 -1.54,-4.69 -1.54,-4.85 0,-0.5 0.5,-0.5 0.61,-0.5 0.5,0 0.54,0.07 0.84,1.16 0.84,3.53 1.84,5.92 3.64,5.92 0.84,0 1.55,-0.39 1.55,-2.28 0,-1.05 -0.16,-1.61 -0.8,-4.19 z" /><path
           style="fill:#000000;stroke-width:0"
           inkscape:connector-curvature="0"
           id="path8378"
           d="m 489.63,420.92 0,0.04 0,0.04 0,0.05 0,0.04 0,0.03 0,0.04 0,0.04 0,0.03 0,0.04 0,0.03 -0.01,0.03 0,0.03 0,0.03 -0.01,0.03 0,0.03 0,0.02 -0.01,0.03 0,0.02 -0.01,0.03 0,0.02 -0.01,0.04 -0.02,0.04 -0.02,0.03 -0.02,0.03 -0.02,0.03 -0.02,0.03 -0.03,0.02 -0.03,0.02 -0.03,0.02 -0.04,0.01 -0.04,0.01 -0.05,0.02 -0.02,0 -0.02,0 -0.03,0.01 -0.03,0 -0.02,0.01 -0.03,0 -0.03,0 -0.03,0 -0.03,0 -0.04,0.01 -0.03,0 -0.04,0 -0.03,0 -0.04,0 -0.04,0 -0.04,0 -0.04,0 -0.04,0 -0.05,0 -0.04,0 c -2.24,-2.2 -5.39,-2.23 -6.83,-2.23 v -1.25 c 0.84,0 3.14,0 5.04,0.97 v -17.77 c 0,-1.16 0,-1.61 -3.48,-1.61 h -1.31 v -1.25 c 0.62,0.03 4.9,0.14 6.2,0.14 1.08,0 5.47,-0.11 6.24,-0.14 v 1.25 h -1.33 c -3.49,0 -3.49,0.45 -3.49,1.61 z" /></g>    </g>
    <g
       transform="matrix(0.91505721,0,0,0.91508117,123.24676,866.83674)"
       id="g8492">
      <g
         style="font-style:normal;font-variant:normal;font-weight:normal;font-stretch:normal;letter-spacing:normal;word-spacing:normal;text-anchor:start;fill:none;stroke:#000000;stroke-width:1.09281349;stroke-linecap:butt;stroke-linejoin:miter;stroke-miterlimit:10.43299961;stroke-opacity:1;stroke-dasharray:none;stroke-dashoffset:0"
         id="g8494"
         transform="matrix(0.26156399,0,0,-0.26156399,-45.773697,223.13557)"
         xml:space="preserve"
         stroke-miterlimit="10.433"
         font-style="normal"
         font-variant="normal"
         font-weight="normal"
         font-stretch="normal"
         font-size-adjust="none"
         letter-spacing="normal"
         word-spacing="normal"><path
           style="fill:#000000;stroke-width:0"
           inkscape:connector-curvature="0"
           d="m 459.91,409.14 -0.02,-0.07 -0.01,-0.08 -0.02,-0.07 -0.01,-0.08 -0.04,-0.16 -0.04,-0.16 -0.03,-0.16 -0.04,-0.16 -0.04,-0.16 -0.04,-0.16 -0.01,-0.08 -0.02,-0.07 -0.02,-0.07 -0.01,-0.07 -0.02,-0.07 -0.01,-0.07 -0.01,-0.06 -0.01,-0.06 -0.01,-0.06 -0.01,-0.05 -0.01,-0.05 -0.01,-0.04 -0.01,-0.04 0,-0.04 0,-0.03 0,-0.02 c 0,-0.89 0.7,-1.35 1.43,-1.35 0.61,0 1.5,0.39 1.85,1.39 0.11,0.21 1.8,6.99 2,7.88 0.39,1.64 1.3,5.12 1.59,6.48 0.21,0.64 1.6,2.99 2.78,4.08 0.41,0.34 1.85,1.64 4,1.64 1.28,0 2.03,-0.59 2.08,-0.59 -1.48,-0.25 -2.58,-1.46 -2.58,-2.74 0,-0.79 0.55,-1.75 1.89,-1.75 1.35,0 2.74,1.14 2.74,2.94 0,1.75 -1.6,3.23 -4.13,3.23 -3.25,0 -5.43,-2.43 -6.39,-3.82 -0.39,2.23 -2.18,3.82 -4.53,3.82 -2.28,0 -3.23,-1.93 -3.69,-2.82 -0.89,-1.71 -1.54,-4.69 -1.54,-4.85 0,-0.5 0.5,-0.5 0.61,-0.5 0.5,0 0.54,0.07 0.84,1.16 0.84,3.53 1.84,5.92 3.64,5.92 0.84,0 1.55,-0.39 1.55,-2.28 0,-1.05 -0.16,-1.61 -0.8,-4.19 z"
           id="path8496" /><path
           style="fill:#000000;stroke-width:0"
           inkscape:connector-curvature="0"
           d="m 495.55,405.11 h -1.18 c -0.1,-0.77 -0.46,-2.83 -0.91,-3.18 -0.26,-0.2 -2.95,-0.2 -3.44,-0.2 h -6.42 c 3.66,3.23 4.88,4.2 6.97,5.84 2.58,2.07 4.98,4.22 4.98,7.54 0,4.21 -3.68,6.79 -8.15,6.79 -4.31,0 -7.25,-3.03 -7.25,-6.23 0,-1.78 1.5,-1.96 1.86,-1.96 0.83,0 1.84,0.6 1.84,1.85 0,0.62 -0.25,1.84 -2.06,1.84 1.08,2.47 3.45,3.24 5.09,3.24 3.49,0 5.3,-2.71 5.3,-5.53 0,-3.04 -2.16,-5.44 -3.28,-6.69 l -8.39,-8.3 c -0.36,-0.31 -0.36,-0.39 -0.36,-1.36 h 14.36 z"
           id="path8498" /></g>    </g>
    <g
       id="g8620"
       transform="matrix(0.91505721,0,0,0.91508117,5.7379406,837.22227)">
      <g
         word-spacing="normal"
         letter-spacing="normal"
         font-size-adjust="none"
         font-stretch="normal"
         font-weight="normal"
         font-variant="normal"
         font-style="normal"
         stroke-miterlimit="10.433"
         xml:space="preserve"
         transform="matrix(0.26156399,0,0,-0.26156399,-45.773697,223.13557)"
         id="g8622"
         style="font-style:normal;font-variant:normal;font-weight:normal;font-stretch:normal;letter-spacing:normal;word-spacing:normal;text-anchor:start;fill:none;stroke:#000000;stroke-width:1.09281349;stroke-linecap:butt;stroke-linejoin:miter;stroke-miterlimit:10.43299961;stroke-opacity:1;stroke-dasharray:none;stroke-dashoffset:0"><path
           id="path8624"
           d="m 486.8,434.54 0.23,0.36 0.23,0.33 0.22,0.31 0.22,0.29 0.22,0.28 0.22,0.25 0.22,0.24 0.22,0.22 0.21,0.2 0.21,0.19 0.21,0.17 0.2,0.16 0.21,0.14 0.2,0.13 0.21,0.12 0.19,0.11 0.2,0.09 0.2,0.09 0.19,0.07 0.2,0.07 0.19,0.06 0.19,0.05 0.18,0.04 0.19,0.03 0.18,0.03 0.19,0.03 0.36,0.04 0.35,0.02 0.35,0.02 c 0.6,0.05 0.64,0.89 0.64,0.96 0,0.39 -0.25,0.59 -0.64,0.59 -1.3,0 -2.75,-0.16 -4.09,-0.16 -1.64,0 -3.35,0.16 -4.94,0.16 -0.3,0 -0.94,0 -0.94,-0.95 0,-0.55 0.46,-0.6 0.8,-0.6 1.34,-0.09 2.3,-0.59 2.3,-1.64 0,-0.75 -0.75,-1.84 -0.75,-1.89 l -15.3,-24.31 -3.39,26.34 c 0,0.85 1.14,1.5 3.44,1.5 0.7,0 1.25,0 1.25,1 0,0.44 -0.41,0.55 -0.71,0.55 -1.98,0 -4.14,-0.16 -6.17,-0.16 -0.9,0 -1.84,0.05 -2.75,0.05 -0.89,0 -1.84,0.11 -2.69,0.11 -0.34,0 -0.93,0 -0.93,-0.95 0,-0.6 0.43,-0.6 1.23,-0.6 2.8,0 2.84,-0.45 3,-1.68 l 3.92,-30.75 c 0.16,-1 0.36,-1.14 1,-1.14 0.8,0 1,0.25 1.41,0.89 z"
           inkscape:connector-curvature="0"
           style="fill:#000000;stroke-width:0" /><path
           id="path8626"
           d="m 499.89,406.7 0.06,0 0.07,0 0.06,0 0.06,0 0.06,0 0.05,0 0.05,0.01 0.05,0 0.05,0.01 0.04,0 0.04,0.01 0.04,0.01 0.04,0.01 0.03,0.01 0.03,0.02 0.03,0.02 0.03,0.02 0.03,0.02 0.02,0.02 0.02,0.03 0.02,0.03 0.02,0.03 0.01,0.02 0.01,0.02 0,0.02 0.01,0.02 0.01,0.02 0,0.02 0.01,0.02 0,0.03 0.01,0.02 0,0.03 0.01,0.02 0,0.03 0,0.03 0,0.03 0.01,0.03 0,0.03 0,0.04 0,0.03 0,0.03 0,0.04 c 0,3.06 -1.72,6.83 -6.91,6.83 -4.56,0 -8.04,-3.63 -8.04,-7.92 0,-4.43 3.87,-7.97 8.5,-7.97 4.7,0 6.45,3.76 6.45,4.53 0,0.14 -0.08,0.48 -0.59,0.48 -0.46,0 -0.53,-0.22 -0.63,-0.56 -1.09,-2.81 -3.73,-3.34 -4.98,-3.34 -1.64,0 -3.21,0.73 -4.25,2.06 -1.3,1.62 -1.33,3.75 -1.33,5.11 l 0.03,0.91 c 0.39,4.92 3.52,5.71 4.84,5.71 4.29,0 4.43,-4.84 4.47,-5.71 h -9.31 l -0.03,-0.91 z"
           inkscape:connector-curvature="0"
           style="fill:#000000;stroke-width:0" /><path
           id="path8628"
           d="m 520.5,412.53 h 4.4 v 1.25 h -4.54 v 3.9 c 0,3.14 1.85,4.64 3.42,4.64 0.32,0 0.66,-0.07 1,-0.18 -0.48,-0.27 -0.76,-0.83 -0.76,-1.39 0,-0.94 0.67,-1.6 1.61,-1.6 0.94,0 1.59,0.66 1.59,1.6 0,1.5 -1.48,2.54 -3.4,2.54 -1.25,0 -2.79,-0.39 -4.05,-1.47 -1.14,1.27 -3.2,1.47 -4.56,1.47 l -0.11,-0.97 c 0.31,0 1.81,0 2.97,-0.56 -0.39,-0.14 -0.97,-0.59 -0.97,-1.5 0,-0.48 0.17,-1.08 0.86,-1.42 -0.06,-0.36 -0.06,-0.81 -0.06,-1.16 v -3.9 h -8.79 v 3.79 c 0,3.39 3.41,4.75 5.99,4.75 l 0.11,0.97 c -3.8,0 -8.57,-1.75 -8.57,-5.68 v -3.83 h -3 v -1.25 h 3 v -11.02 c 0,-1.5 -0.35,-1.5 -2.62,-1.5 v -1.25 c 0.08,0 2.52,0.14 3.91,0.14 1.32,0 2.61,-0.03 3.93,-0.14 v 1.25 c -2.26,0 -2.61,0 -2.61,1.5 v 11.02 h 8.65 v -11.02 c 0,-1.5 -0.35,-1.5 -2.62,-1.5 v -1.25 c 0.18,0 2.54,0.14 3.97,0.14 1.5,0 3.03,-0.08 4.53,-0.14 v 1.25 h -0.7 c -2.58,0 -2.58,0.39 -2.58,1.58 z"
           inkscape:connector-curvature="0"
           style="fill:#000000;stroke-width:0" /></g>    </g>
    <path
       inkscape:connector-curvature="0"
       id="path9161"
       d="m 32.892526,1016.9337 c 459.674024,0 459.674024,0 459.674024,0"
       style="fill:none;stroke:#000000;stroke-width:1;stroke-linecap:butt;stroke-linejoin:miter;stroke-miterlimit:4;stroke-opacity:1;stroke-dasharray:4, 4;stroke-dashoffset:0" />
    <path
       inkscape:connector-curvature="0"
       id="path9163"
       d="m 45.41683,1039.8778 c 10.988482,0 10.988482,0 10.988482,0"
       style="fill:none;stroke:#000000;stroke-width:0.99999988px;stroke-linecap:butt;stroke-linejoin:miter;stroke-opacity:1" />
    <g
       id="g10784"
       transform="matrix(0.70348069,0,0,0.70348069,45.379401,1033.2095)">
      <g
         word-spacing="normal"
         letter-spacing="normal"
         font-size-adjust="none"
         font-stretch="normal"
         font-weight="normal"
         font-variant="normal"
         font-style="normal"
         stroke-miterlimit="10.433"
         xml:space="preserve"
         transform="matrix(0.39480169,0,0,-0.39480169,-69.090295,226.63309)"
         id="g10786"
         style="font-style:normal;font-variant:normal;font-weight:normal;font-stretch:normal;letter-spacing:normal;word-spacing:normal;text-anchor:start;fill:none;stroke:#000000;stroke-width:1.42150307;stroke-linecap:butt;stroke-linejoin:miter;stroke-miterlimit:10.43299961;stroke-opacity:1;stroke-dasharray:none;stroke-dashoffset:0"><path
           id="path10788"
           d="m 488.35,417.65 0.16,0 0.16,0 0.15,0.01 0.08,0 0.08,0.01 0.07,0 0.08,0.01 0.07,0.01 0.07,0.01 0.07,0.02 0.07,0.02 0.07,0.02 0.06,0.02 0.06,0.02 0.06,0.03 0.05,0.03 0.06,0.04 0.05,0.03 0.04,0.05 0.04,0.04 0.04,0.05 0.02,0.03 0.02,0.03 0.01,0.03 0.02,0.03 0.01,0.03 0.02,0.03 0.01,0.04 0.01,0.03 0.01,0.04 0,0.04 0.01,0.04 0.01,0.04 0,0.04 0.01,0.04 0,0.05 0,0.04 c 0,1 -0.91,1 -1.75,1 h -26.96 c -0.84,0 -1.73,0 -1.73,-1 0,-1 0.89,-1 1.73,-1 z"
           inkscape:connector-curvature="0"
           style="fill:#000000;stroke-width:0" /><path
           id="path10790"
           d="m 511.19,448.9 0,0.01 0,0 0,0 0,0.01 0.01,0 0,0.01 0,0.01 0,0 0.01,0.01 0,0.01 0,0.01 0.01,0.02 0,0.02 0.01,0.02 0,0.02 0.01,0.02 0.01,0.02 0,0.03 0.01,0.02 0.01,0.05 0.01,0.04 0.01,0.03 0,0.02 0.01,0.02 0,0.02 0.01,0.02 0,0.02 0,0.02 0.01,0.01 0,0.01 0,0.01 0,0 0,0.01 0,0 0.01,0.01 0,0 0,0.01 0,0 0,0 0,0.01 0,0 c 0,0.19 -0.14,0.5 -0.56,0.5 -0.69,0 -3.58,-0.28 -4.46,-0.36 -0.28,-0.03 -0.76,-0.06 -0.76,-0.8 0,-0.48 0.48,-0.48 0.9,-0.48 1.67,0 1.67,-0.25 1.67,-0.53 0,-0.24 -0.07,-0.46 -0.14,-0.77 l -4.92,-19.72 c -0.17,-0.62 -0.17,-0.68 -0.17,-0.76 0,-0.52 0.42,-1.11 1.19,-1.11 0.94,0 1.39,0.69 1.61,1.45 0.06,0.14 1.56,6.28 1.7,6.77 2.47,-0.25 4.45,-1.05 4.45,-2.86 0,-0.17 0,-0.35 -0.06,-0.69 -0.14,-0.53 -0.14,-0.7 -0.14,-1.09 0,-2.47 2.02,-3.58 3.69,-3.58 3.39,0 4.44,5.29 4.44,5.33 0,0.45 -0.46,0.45 -0.57,0.45 -0.48,0 -0.53,-0.17 -0.7,-0.84 -0.41,-1.5 -1.36,-3.97 -3.06,-3.97 -0.94,0 -1.22,0.87 -1.22,1.81 0,0.59 0,0.66 0.2,1.56 0.05,0.11 0.19,0.7 0.19,1.1 0,3.09 -4.19,3.57 -5.66,3.68 1.02,0.63 2.3,1.78 2.89,2.3 1.78,1.67 3.54,3.31 5.47,3.31 0.42,0 0.88,-0.11 1.16,-0.45 -1.5,-0.25 -1.81,-1.42 -1.81,-1.95 0,-0.77 0.59,-1.29 1.39,-1.29 0.95,0 1.98,0.77 1.98,2.22 0,1.16 -0.83,2.44 -2.67,2.44 -1.98,0 -3.8,-1.42 -5.58,-3.06 -1.47,-1.39 -2.61,-2.47 -4.05,-3.06 z"
           inkscape:connector-curvature="0"
           style="fill:#000000;stroke-width:0" /><polyline
           id="polyline10792"
           points="500,418 522.08,418 522.08,420.04 500,420.04 "
           style="fill:#000000;fill-rule:nonzero;stroke-width:0" /><path
           id="path10794"
           d="m 509.67,396.07 0,0.01 0,0.02 0.01,0.02 0,0.02 0.01,0.03 0.01,0.03 0,0.04 0.01,0.04 0.01,0.04 0.01,0.04 0.02,0.05 0.01,0.05 0.01,0.06 0.01,0.05 0.03,0.12 0.04,0.13 0.03,0.13 0.03,0.14 0.04,0.15 0.04,0.15 0.04,0.15 0.08,0.31 0.08,0.31 0.04,0.16 0.04,0.15 0.04,0.14 0.03,0.14 0.04,0.13 0.03,0.13 0.03,0.11 0.02,0.06 0.01,0.05 0.01,0.05 0.02,0.05 0.01,0.04 0.01,0.04 0.01,0.04 0.01,0.03 0.01,0.03 0,0.03 0.01,0.02 0.01,0.02 0,0.01 0,0.01 c 0.08,0.28 1.08,2.02 2.21,2.86 0.37,0.27 1.31,0.97 2.81,0.97 0.34,0 1.22,-0.03 1.92,-0.48 -1.12,-0.32 -1.53,-1.3 -1.53,-1.93 0,-0.76 0.59,-1.28 1.39,-1.28 0.8,0 1.95,0.66 1.95,2.13 0,1.81 -1.92,2.53 -3.7,2.53 -1.81,0 -3.37,-0.72 -4.91,-2.47 -0.62,2.12 -2.75,2.47 -3.59,2.47 -1.28,0 -2.16,-0.8 -2.72,-1.77 -0.79,-1.36 -1.28,-3.39 -1.28,-3.56 0,-0.45 0.49,-0.45 0.59,-0.45 0.49,0 0.52,0.11 0.77,1.04 0.52,2.13 1.19,3.77 2.55,3.77 0.9,0 1.14,-0.77 1.14,-1.7 0,-0.68 -0.31,-1.96 -0.56,-2.89 -0.24,-0.96 -0.58,-2.38 -0.77,-3.14 l -1.11,-4.47 c -0.14,-0.44 -0.34,-1.32 -0.34,-1.43 0,-0.76 0.62,-1.1 1.18,-1.1 0.52,0 1.22,0.31 1.49,1 0.08,0.21 0.45,1.75 0.67,2.62 z"
           inkscape:connector-curvature="0"
           style="fill:#000000;stroke-width:0" /></g>    </g>
  </g>
</svg>
