<?xml version="1.0" encoding="UTF-8" standalone="no"?>
<!-- Created with Inkscape (http://www.inkscape.org/) -->

<svg
   xmlns:dc="http://purl.org/dc/elements/1.1/"
   xmlns:cc="http://creativecommons.org/ns#"
   xmlns:rdf="http://www.w3.org/1999/02/22-rdf-syntax-ns#"
   xmlns:svg="http://www.w3.org/2000/svg"
   xmlns="http://www.w3.org/2000/svg"
   xmlns:sodipodi="http://sodipodi.sourceforge.net/DTD/sodipodi-0.dtd"
   xmlns:inkscape="http://www.inkscape.org/namespaces/inkscape"
   width="472.20239"
   height="305.93048"
   id="svg2"
   version="1.1"
   inkscape:version="0.48.2 r9819"
   sodipodi:docname="inverse cube force.svg">
  <sodipodi:namedview
     id="base"
     pagecolor="#ffffff"
     bordercolor="#666666"
     borderopacity="1.0"
     inkscape:pageopacity="0.0"
     inkscape:pageshadow="2"
     inkscape:zoom="1.6247036"
     inkscape:cx="180.2832"
     inkscape:cy="145.98034"
     inkscape:document-units="px"
     inkscape:current-layer="layer1"
     showgrid="false"
     height="524.41px"
     inkscape:window-width="1366"
     inkscape:window-height="743"
     inkscape:window-x="0"
     inkscape:window-y="3"
     inkscape:window-maximized="1"
     fit-margin-top="0"
     fit-margin-left="0"
     fit-margin-right="0"
     fit-margin-bottom="0"
     inkscape:snap-page="false" />
  <defs
     id="defs4">
    <marker
       inkscape:stockid="Arrow1Send"
       orient="auto"
       refY="0"
       refX="0"
       id="Arrow1Send"
       style="overflow:visible">
      <path
         id="path6964"
         d="M 0,0 5,-5 -12.5,0 5,5 0,0 z"
         style="fill-rule:evenodd;stroke:#000000;stroke-width:1pt;marker-start:none"
         transform="matrix(-0.2,0,0,-0.2,-1.2,0)"
         inkscape:connector-curvature="0" />
    </marker>
    <marker
       style="overflow:visible"
       id="Arrow1Sstart"
       refX="0"
       refY="0"
       orient="auto"
       inkscape:stockid="Arrow1Sstart">
      <path
         inkscape:connector-curvature="0"
         transform="matrix(0.2,0,0,0.2,1.2,0)"
         style="fill-rule:evenodd;stroke:#000000;stroke-width:1pt;marker-start:none"
         d="M 0,0 5,-5 -12.5,0 5,5 0,0 z"
         id="path6961" />
    </marker>
    <marker
       inkscape:stockid="Arrow1Send"
       orient="auto"
       refY="0"
       refX="0"
       id="Arrow1Send-1"
       style="overflow:visible">
      <path
         inkscape:connector-curvature="0"
         id="path6964-0"
         d="M 0,0 5,-5 -12.5,0 5,5 0,0 z"
         style="fill-rule:evenodd;stroke:#000000;stroke-width:1pt;marker-start:none"
         transform="matrix(-0.2,0,0,-0.2,-1.2,0)" />
    </marker>
  </defs>
  <metadata
     id="metadata7">
    <rdf:RDF>
      <cc:Work
         rdf:about="">
        <dc:format>image/svg+xml</dc:format>
        <dc:type
           rdf:resource="http://purl.org/dc/dcmitype/StillImage" />
        <dc:title />
      </cc:Work>
    </rdf:RDF>
  </metadata>
  <g
     inkscape:label="Layer 1"
     inkscape:groupmode="layer"
     id="layer1"
     transform="translate(107.67077,-37.90681)">
    <path
       style="fill:none;stroke:#000000;stroke-width:0.99999994px;stroke-linecap:butt;stroke-linejoin:miter;stroke-opacity:1;marker-start:url(#Arrow1Sstart)"
       d="m -80.283428,40.57145 0,300.25245"
       id="path2985"
       inkscape:connector-curvature="0" />
    <path
       style="fill:none;stroke:#000000;stroke-width:0.99999994px;stroke-linecap:butt;stroke-linejoin:miter;stroke-opacity:1;marker-start:url(#Arrow1Sstart)"
       d="m 355.34303,190.60082 -455.92751,0"
       id="path2987"
       inkscape:connector-curvature="0" />
    <path
       inkscape:connector-curvature="0"
       style="fill:none;stroke:#ff0000;stroke-width:0.99999994;stroke-linecap:butt;stroke-linejoin:miter;stroke-miterlimit:4;stroke-opacity:1;stroke-dasharray:none;stroke-dashoffset:0"
       d=""
       title="y=1/r"
       id="path2999" />
    <path
       inkscape:connector-curvature="0"
       id="path3017"
       title="y=1/x"
       d=""
       style="fill:none;stroke:#ff0000;stroke-width:0.99999994;stroke-linecap:butt;stroke-linejoin:miter;stroke-miterlimit:4;stroke-opacity:1;stroke-dasharray:none;stroke-dashoffset:0" />
    <path
       inkscape:connector-curvature="0"
       style="fill:none;stroke:#ff0000;stroke-width:0.99999994;stroke-linecap:butt;stroke-linejoin:miter;stroke-miterlimit:4;stroke-opacity:1;stroke-dasharray:none;stroke-dashoffset:0"
       d=""
       title="y=pow(x,-1)"
       id="path3037" />
    <path
       inkscape:connector-curvature="0"
       id="path3059"
       title="y=1/x"
       d=""
       style="fill:none;stroke:#ff0000;stroke-width:0.99999994;stroke-linecap:butt;stroke-linejoin:miter;stroke-miterlimit:4;stroke-opacity:1;stroke-dasharray:none;stroke-dashoffset:0" />
    <path
       inkscape:connector-curvature="0"
       style="fill:none;stroke:#ff0000;stroke-width:0.99999994;stroke-linecap:butt;stroke-linejoin:miter;stroke-miterlimit:4;stroke-opacity:1;stroke-dasharray:none;stroke-dashoffset:0"
       d=""
       title="y=1/x"
       id="path3083" />
    <path
       inkscape:connector-curvature="0"
       id="path5536"
       title="y=1/x"
       d=""
       style="fill:none;stroke:#ff0000;stroke-width:0.99999994;stroke-linecap:butt;stroke-linejoin:miter;stroke-miterlimit:4;stroke-opacity:1;stroke-dasharray:none;stroke-dashoffset:0" />
    <path
       inkscape:connector-curvature="0"
       style="fill:none;stroke:#ff0000;stroke-width:0.99999994;stroke-linecap:butt;stroke-linejoin:miter;stroke-miterlimit:4;stroke-opacity:1;stroke-dasharray:none;stroke-dashoffset:0"
       d=""
       title="y=x"
       id="path5564" />
    <g
       id="g7745"
       transform="matrix(0.40776155,0,0,0.40738199,299.02906,120.67696)">
      <g
         word-spacing="normal"
         letter-spacing="normal"
         font-size-adjust="none"
         font-stretch="normal"
         font-weight="normal"
         font-variant="normal"
         font-style="normal"
         stroke-miterlimit="10.433"
         xml:space="preserve"
         transform="matrix(0.53149606,0,0,-0.53149606,-93.01181,393.30748)"
         id="content"
         style="font-style:normal;font-variant:normal;font-weight:normal;font-stretch:normal;letter-spacing:normal;word-spacing:normal;text-anchor:start;fill:none;stroke:#000000;stroke-width:2.45355606;stroke-linecap:butt;stroke-linejoin:miter;stroke-miterlimit:10.43299961;stroke-opacity:1;stroke-dasharray:none;stroke-dashoffset:0"><path
           id="path7748"
           d="m 459.91,409.14 -0.02,-0.07 -0.01,-0.08 -0.02,-0.07 -0.01,-0.08 -0.04,-0.16 -0.04,-0.16 -0.03,-0.16 -0.04,-0.16 -0.04,-0.16 -0.04,-0.16 -0.01,-0.08 -0.02,-0.07 -0.02,-0.07 -0.01,-0.07 -0.02,-0.07 -0.01,-0.07 -0.01,-0.06 -0.01,-0.06 -0.01,-0.06 -0.01,-0.05 -0.01,-0.05 -0.01,-0.04 -0.01,-0.04 0,-0.04 0,-0.03 0,-0.02 c 0,-0.89 0.7,-1.35 1.43,-1.35 0.61,0 1.5,0.39 1.85,1.39 0.11,0.21 1.8,6.99 2,7.88 0.39,1.64 1.3,5.12 1.59,6.48 0.21,0.64 1.6,2.99 2.78,4.08 0.41,0.34 1.85,1.64 4,1.64 1.28,0 2.03,-0.59 2.08,-0.59 -1.48,-0.25 -2.58,-1.46 -2.58,-2.74 0,-0.79 0.55,-1.75 1.89,-1.75 1.35,0 2.74,1.14 2.74,2.94 0,1.75 -1.6,3.23 -4.13,3.23 -3.25,0 -5.43,-2.43 -6.39,-3.82 -0.39,2.23 -2.18,3.82 -4.53,3.82 -2.28,0 -3.23,-1.93 -3.69,-2.82 -0.89,-1.71 -1.54,-4.69 -1.54,-4.85 0,-0.5 0.5,-0.5 0.61,-0.5 0.5,0 0.54,0.07 0.84,1.16 0.84,3.53 1.84,5.92 3.64,5.92 0.84,0 1.55,-0.39 1.55,-2.28 0,-1.05 -0.16,-1.61 -0.8,-4.19 z"
           inkscape:connector-curvature="0"
           style="fill:#000000;stroke-width:0" /></g>    </g>
    <g
       transform="matrix(0.45117765,0,0,0.45075768,-102.08192,6.8087477)"
       id="g7802">
      <g
         style="font-style:normal;font-variant:normal;font-weight:normal;font-stretch:normal;letter-spacing:normal;word-spacing:normal;text-anchor:start;fill:none;stroke:#000000;stroke-width:2.2174542;stroke-linecap:butt;stroke-linejoin:miter;stroke-miterlimit:10.43299961;stroke-opacity:1;stroke-dasharray:none;stroke-dashoffset:0"
         id="g7804"
         transform="matrix(0.53149606,0,0,-0.53149606,-93.01181,393.30748)"
         xml:space="preserve"
         stroke-miterlimit="10.433"
         font-style="normal"
         font-variant="normal"
         font-weight="normal"
         font-stretch="normal"
         font-size-adjust="none"
         letter-spacing="normal"
         word-spacing="normal"><path
           style="fill:#000000;stroke-width:0"
           inkscape:connector-curvature="0"
           d="m 502.31,448.06 0,0.01 0,0 0,0 0.01,0.01 0,0 0,0.01 0,0.01 0,0 0.01,0.01 0,0.01 0,0.01 0.01,0.02 0,0.02 0.01,0.02 0.01,0.02 0,0.02 0.01,0.02 0,0.03 0.01,0.02 0.01,0.05 0.01,0.04 0.01,0.03 0,0.02 0.01,0.02 0,0.02 0.01,0.02 0,0.02 0.01,0.02 0,0.01 0,0.01 0,0.01 0,0 0,0.01 0.01,0 0,0.01 0,0 0,0.01 0,0 0,0 0,0.01 0,0 c 0,0.19 -0.14,0.5 -0.56,0.5 -0.69,0 -3.6,-0.28 -4.46,-0.36 -0.25,-0.03 -0.73,-0.06 -0.73,-0.8 0,-0.48 0.48,-0.48 0.87,-0.48 1.68,0 1.68,-0.25 1.68,-0.53 0,-0.24 -0.08,-0.46 -0.14,-0.77 l -4.33,-17.2 c -0.11,-0.36 -0.14,-0.74 -0.14,-1.08 0,-2.23 1.98,-3.31 3.65,-3.31 0.85,0 1.89,0.28 2.8,1.84 0.73,1.28 1.22,3.35 1.22,3.49 0,0.45 -0.45,0.45 -0.56,0.45 -0.49,0 -0.55,-0.2 -0.69,-0.84 -0.45,-1.74 -1.13,-3.97 -2.63,-3.97 -0.93,0 -1.17,0.87 -1.17,1.7 0,0.39 0.1,1.05 0.2,1.44 z"
           id="path7806" /><path
           style="fill:#000000;stroke-width:0"
           inkscape:connector-curvature="0"
           d="m 519.99,444.73 h -1.04 c -0.08,-0.48 -0.33,-2.01 -0.72,-2.26 -0.21,-0.16 -2.3,-0.16 -2.68,-0.16 h -4.87 c 1.64,1.22 3.48,2.61 4.98,3.61 2.24,1.55 4.33,3 4.33,5.64 0,3.19 -3.01,4.96 -6.58,4.96 -3.36,0 -5.82,-1.96 -5.82,-4.4 0,-1.29 1.09,-1.51 1.45,-1.51 0.67,0 1.47,0.45 1.47,1.47 0,0.89 -0.66,1.39 -1.42,1.47 0.68,1.12 2.14,1.87 3.81,1.87 2.4,0 4.42,-1.45 4.42,-3.89 0,-2.09 -1.44,-3.69 -3.36,-5.31 l -6.08,-5.16 c -0.25,-0.22 -0.26,-0.22 -0.29,-0.39 v -0.75 h 11.57 z"
           id="path7808" /><polyline
           style="fill:#000000;fill-rule:nonzero;stroke-width:0"
           points="462,417 556.32,417 556.32,419.04 462,419.04 "
           id="polyline7810" /><path
           style="fill:#000000;stroke-width:0"
           inkscape:connector-curvature="0"
           d="m 479.11,394.42 h -1.18 c -0.1,-0.76 -0.46,-2.83 -0.91,-3.17 -0.27,-0.2 -2.95,-0.2 -3.44,-0.2 h -6.42 c 3.66,3.23 4.88,4.2 6.97,5.84 2.58,2.06 4.98,4.22 4.98,7.53 0,4.22 -3.68,6.8 -8.15,6.8 -4.32,0 -7.25,-3.03 -7.25,-6.24 0,-1.78 1.5,-1.95 1.86,-1.95 0.82,0 1.84,0.59 1.84,1.85 0,0.62 -0.25,1.84 -2.06,1.84 1.08,2.47 3.45,3.23 5.09,3.23 3.49,0 5.3,-2.7 5.3,-5.53 0,-3.03 -2.16,-5.44 -3.28,-6.69 l -8.39,-8.29 c -0.36,-0.32 -0.36,-0.39 -0.36,-1.36 h 14.36 z"
           id="path7812" /><path
           style="fill:#000000;stroke-width:0"
           inkscape:connector-curvature="0"
           d="m 496.44,390.91 -0.02,-0.07 -0.01,-0.07 -0.02,-0.07 -0.02,-0.08 -0.02,-0.07 -0.02,-0.08 -0.04,-0.16 -0.04,-0.16 -0.04,-0.16 -0.04,-0.16 -0.02,-0.08 -0.02,-0.07 -0.01,-0.08 -0.02,-0.07 -0.02,-0.07 -0.01,-0.07 -0.02,-0.07 -0.02,-0.06 -0.01,-0.06 -0.01,-0.06 -0.01,-0.05 -0.01,-0.05 -0.01,-0.05 -0.01,-0.04 -0.01,-0.03 0,-0.03 0,-0.03 0,-0.02 c 0,-0.76 0.62,-1.11 1.17,-1.11 0.64,0 1.19,0.46 1.36,0.77 0.19,0.31 0.45,1.42 0.64,2.16 0.17,0.65 0.55,2.26 0.76,3.14 0.21,0.76 0.41,1.53 0.6,2.32 0.37,1.5 0.37,1.57 1.08,2.66 1.11,1.7 2.86,3.69 5.56,3.69 1.95,0 2.06,-1.61 2.06,-2.44 0,-2.09 -1.5,-5.95 -2.06,-7.42 -0.38,-0.99 -0.52,-1.3 -0.52,-1.89 0,-1.84 1.53,-2.99 3.32,-2.99 3.48,0 5.01,4.8 5.01,5.33 0,0.46 -0.45,0.46 -0.56,0.46 -0.48,0 -0.52,-0.21 -0.66,-0.6 -0.79,-2.78 -2.29,-4.22 -3.68,-4.22 -0.74,0 -0.88,0.49 -0.88,1.22 0,0.8 0.17,1.25 0.8,2.83 0.42,1.08 1.84,4.77 1.84,6.72 0,0.56 0,2.03 -1.28,3.03 -0.59,0.45 -1.61,0.94 -3.25,0.94 -3.13,0 -5.05,-2.05 -6.16,-3.52 -0.28,2.97 -2.76,3.52 -4.53,3.52 -2.89,0 -4.84,-1.77 -5.89,-3.16 -0.25,2.39 -2.3,3.16 -3.73,3.16 -1.5,0 -2.3,-1.08 -2.75,-1.88 -0.77,-1.28 -1.25,-3.28 -1.25,-3.45 0,-0.45 0.48,-0.45 0.59,-0.45 0.49,0 0.52,0.11 0.77,1.04 0.51,2.07 1.18,3.77 2.54,3.77 0.91,0 1.14,-0.77 1.14,-1.7 0,-0.68 -0.31,-1.96 -0.56,-2.89 -0.23,-0.96 -0.58,-2.38 -0.76,-3.15 l -1.11,-4.46 c -0.14,-0.44 -0.35,-1.32 -0.35,-1.43 0,-0.76 0.63,-1.11 1.19,-1.11 0.63,0 1.17,0.46 1.36,0.77 0.17,0.31 0.45,1.42 0.62,2.16 0.18,0.65 0.55,2.26 0.77,3.14 0.2,0.76 0.42,1.53 0.59,2.32 0.38,1.44 0.46,1.71 1.46,3.15 0.98,1.39 2.62,3.2 5.23,3.2 2.02,0 2.05,-1.78 2.05,-2.44 0,-0.87 -0.1,-1.33 -0.6,-3.28 z"
           id="path7814" /><path
           style="fill:#000000;stroke-width:0"
           inkscape:connector-curvature="0"
           d="m 524.9,395.11 0,0.01 0.01,0.02 0,0.02 0.01,0.02 0,0.03 0.01,0.03 0.01,0.04 0.01,0.04 0.01,0.04 0.01,0.04 0.01,0.05 0.01,0.05 0.02,0.05 0.01,0.06 0.03,0.12 0.03,0.13 0.03,0.13 0.04,0.14 0.04,0.15 0.03,0.15 0.04,0.15 0.08,0.31 0.08,0.31 0.04,0.16 0.04,0.15 0.04,0.14 0.04,0.14 0.03,0.13 0.04,0.13 0.03,0.11 0.01,0.06 0.01,0.05 0.02,0.05 0.01,0.05 0.01,0.04 0.01,0.04 0.01,0.04 0.01,0.03 0.01,0.03 0.01,0.03 0.01,0.02 0,0.02 0.01,0.01 0,0.01 c 0.08,0.28 1.08,2.02 2.2,2.86 0.38,0.27 1.31,0.97 2.81,0.97 0.35,0 1.22,-0.03 1.93,-0.49 -1.13,-0.31 -1.53,-1.29 -1.53,-1.92 0,-0.76 0.59,-1.28 1.38,-1.28 0.8,0 1.96,0.66 1.96,2.13 0,1.81 -1.92,2.53 -3.71,2.53 -1.81,0 -3.37,-0.72 -4.9,-2.47 -0.63,2.12 -2.75,2.47 -3.6,2.47 -1.28,0 -2.15,-0.8 -2.71,-1.77 -0.8,-1.36 -1.29,-3.39 -1.29,-3.56 0,-0.45 0.49,-0.45 0.6,-0.45 0.48,0 0.52,0.11 0.77,1.04 0.51,2.13 1.18,3.77 2.54,3.77 0.91,0 1.14,-0.77 1.14,-1.7 0,-0.68 -0.31,-1.96 -0.56,-2.89 -0.24,-0.96 -0.58,-2.38 -0.77,-3.15 l -1.1,-4.46 c -0.15,-0.44 -0.35,-1.32 -0.35,-1.43 0,-0.76 0.63,-1.11 1.19,-1.11 0.51,0 1.22,0.32 1.48,1 0.08,0.22 0.46,1.75 0.68,2.63 z"
           id="path7816" /><path
           style="fill:#000000;stroke-width:0"
           inkscape:connector-curvature="0"
           d="m 550.95,402.85 h -1.04 c -0.08,-0.48 -0.33,-2.01 -0.72,-2.26 -0.21,-0.16 -2.3,-0.16 -2.67,-0.16 h -4.88 c 1.64,1.22 3.48,2.61 4.98,3.61 2.24,1.55 4.33,3 4.33,5.64 0,3.19 -3.01,4.95 -6.57,4.95 -3.36,0 -5.83,-1.95 -5.83,-4.39 0,-1.29 1.09,-1.51 1.45,-1.51 0.67,0 1.47,0.45 1.47,1.47 0,0.89 -0.66,1.39 -1.42,1.46 0.68,1.13 2.14,1.88 3.81,1.88 2.41,0 4.42,-1.45 4.42,-3.89 0,-2.1 -1.44,-3.69 -3.36,-5.31 l -6.08,-5.16 c -0.25,-0.22 -0.26,-0.22 -0.29,-0.39 v -0.75 h 11.57 z"
           id="path7818" /></g>    </g>
    <path
       id="path4908-6"
       title="pow(2.718281828,-x)"
       d="m -76.260555,343.3373 c 1.915932,-4.9785 4.455049,-9.5792 6.68262,-14.021 2.227552,-4.4418 4.455086,-8.6589 6.682657,-12.6739 2.227516,-4.0151 4.455086,-7.8269 6.682602,-11.4563 2.227571,-3.6293 4.455105,-7.0749 6.682657,-10.3556 2.227516,-3.2805 4.455087,-6.3951 6.682657,-9.3606 2.227516,-2.9654 4.455068,-5.7807 6.682602,-8.4613 2.227553,-2.6805 4.455105,-5.2254 6.682657,-7.6483 2.227516,-2.423 4.455087,-4.7234 6.682621,-6.9136 2.227552,-2.1902 4.455086,-4.2696 6.68262,-6.2493 2.227571,-1.9798 4.455105,-3.8594 6.6826387,-5.6489 2.2275708,-1.7896 4.4550678,-3.4886 6.6826572,-5.1063 2.22753389,-1.6176 4.4551048,-3.1533 6.6826202,-4.6155 2.2275524,-1.4622 4.4551233,-2.8504 6.6826389,-4.1722 2.227589,-1.3217 4.455105,-2.5766 6.682639,-3.7713 2.227552,-1.1947 4.455086,-2.3291 6.682638,-3.409 2.227553,-1.0799 4.455087,-2.1053 6.682639,-3.0815 2.227571,-0.9762 4.455086,-1.903 6.682639,-2.7853 2.227515,-0.8824 4.455086,-1.7202 6.682639,-2.5178 2.22757,-0.7977 4.455086,-1.5549 6.68262,-2.2759 2.227552,-0.721 4.455105,-1.4055 6.682657,-2.0573 2.227534,-0.6517 4.455068,-1.2705 6.682639,-1.8595 2.227515,-0.5891 4.455086,-1.1483 6.68262,-1.6808 2.227534,-0.5326 4.455086,-1.0381 6.682657,-1.51946 2.227553,-0.48133 4.455068,-0.93833 6.682639,-1.37345 2.227515,-0.43512 4.455086,-0.84819 6.682602,-1.24149 2.227552,-0.3933 4.455123,-0.76665 6.682657,-1.12216 2.227534,-0.35551 4.455082,-0.69308 6.682622,-1.01437 2.22755,-0.32138 4.4551,-0.62646 6.68267,-0.917 2.22752,-0.29045 4.45507,-0.56625 6.68259,-0.82879 2.22755,-0.26263 4.4551,-0.5119 6.68265,-0.74927 2.22756,-0.23728 4.45511,-0.46266 6.68264,-0.67716 2.22754,-0.21459 4.45511,-0.41828 6.68262,-0.61219 2.22757,-0.1939 4.45509,-0.37811 6.68266,-0.55335 2.22755,-0.17533 4.45509,-0.34169 6.68262,-0.50018 2.22755,-0.15849 4.45512,-0.30893 6.68264,-0.45214 2.22755,-0.14321 4.4551,-0.27919 6.68266,-0.40868 2.22755,-0.12948 4.4551,-0.25238 6.68262,-0.36942 2.22753,-0.11704 4.45508,-0.22813 6.68265,-0.33391 2.22754,-0.10588 4.45507,-0.20626 6.68261,-0.30189 2.22759,-0.0955 4.4551,-0.1864 6.68265,-0.27287 2.22752,-0.086 4.45507,-0.16847 6.68266,-0.24662 2.22753,-0.0778 4.45509,-0.15227 6.6826,-0.22291 2.22757,-0.0705 4.45509,-0.13772 6.68266,-0.2015 2.22755,-0.0641 4.45509,-0.12445 6.68264,-0.18219 2.22755,-0.0576 4.45507,-0.11247 6.68264,-0.16463 2.22751,-0.0522 4.45508,-0.10166 6.68262,-0.14888 2.22757,-0.0476 4.45508,-0.0919 6.68264,-0.13452 2.22751,-0.043 4.45508,-0.0833 6.68262,-0.12161 2.22757,-0.0384 4.4551,-0.075 6.68265,-0.10981 2.22756,-0.0348 4.45507,-0.0677 6.68264,-0.0995 2.22754,-0.0311 4.45509,-0.0613 6.68264,-0.0897 2.22753,-0.0284 4.45509,-0.0558 6.68262,-0.0814 2.22754,-0.0256 4.45511,-0.0503 6.68266,-0.0732 2.22753,-0.0229 4.45507,-0.0448 6.68264,-0.0659 2.22751,-0.021 4.45508,-0.0412 6.68262,-0.0604 2.22753,-0.0192 4.45505,-0.0366 6.68264,-0.054 2.22755,-0.0174 4.45508,-0.0339 6.68262,-0.0494 2.22755,-0.0156 4.45512,-0.0302 6.68264,-0.0439 2.22755,-0.0137 4.45512,-0.0275 6.68263,-0.0403 2.22756,-0.0128 4.45511,-0.0247 6.68264,-0.0366 2.22754,-0.011 4.45511,-0.022 6.68264,-0.033 2.22755,-0.0101 4.45509,-0.0201 6.68264,-0.0293 2.22755,-0.0101 4.45509,-0.0183 6.68264,-0.0265 2.22755,-0.009 4.45507,-0.0165 6.68264,-0.0238"
       style="fill:none;stroke:#0000ff;stroke-width:0.99999976;stroke-linecap:butt;stroke-linejoin:bevel;stroke-miterlimit:4;stroke-opacity:1;stroke-dasharray:none;stroke-dashoffset:0"
       inkscape:connector-curvature="0"
       sodipodi:nodetypes="csssssssssssssccssssssssssssscsssssssscscccscccccccccccccccsccccc" />
    <g
       transform="matrix(0.91505721,0,0,0.91508117,-175.48228,-51.380342)"
       id="g7950">
      <g
         style="font-style:normal;font-variant:normal;font-weight:normal;font-stretch:normal;letter-spacing:normal;word-spacing:normal;text-anchor:start;fill:none;stroke:#000000;stroke-width:1.09281349;stroke-linecap:butt;stroke-linejoin:miter;stroke-miterlimit:10.43299961;stroke-opacity:1;stroke-dasharray:none;stroke-dashoffset:0"
         word-spacing="normal"
         letter-spacing="normal"
         font-size-adjust="none"
         font-stretch="normal"
         font-weight="normal"
         font-variant="normal"
         font-style="normal"
         stroke-miterlimit="10.433"
         xml:space="preserve"
         transform="matrix(0.26156399,0,0,-0.26156399,-45.773697,223.13557)"
         id="g7952"><path
           style="fill:#000000;stroke-width:0"
           inkscape:connector-curvature="0"
           id="path7954"
           d="m 486.8,434.54 0.23,0.36 0.23,0.33 0.22,0.31 0.22,0.29 0.22,0.28 0.22,0.25 0.22,0.24 0.22,0.22 0.21,0.2 0.21,0.19 0.21,0.17 0.2,0.16 0.21,0.14 0.2,0.13 0.21,0.12 0.19,0.11 0.2,0.09 0.2,0.09 0.19,0.07 0.2,0.07 0.19,0.06 0.19,0.05 0.18,0.04 0.19,0.03 0.18,0.03 0.19,0.03 0.36,0.04 0.35,0.02 0.35,0.02 c 0.6,0.05 0.64,0.89 0.64,0.96 0,0.39 -0.25,0.59 -0.64,0.59 -1.3,0 -2.75,-0.16 -4.09,-0.16 -1.64,0 -3.35,0.16 -4.94,0.16 -0.3,0 -0.94,0 -0.94,-0.95 0,-0.55 0.46,-0.6 0.8,-0.6 1.34,-0.09 2.3,-0.59 2.3,-1.64 0,-0.75 -0.75,-1.84 -0.75,-1.89 l -15.3,-24.31 -3.39,26.34 c 0,0.85 1.14,1.5 3.44,1.5 0.7,0 1.25,0 1.25,1 0,0.44 -0.41,0.55 -0.71,0.55 -1.98,0 -4.14,-0.16 -6.17,-0.16 -0.9,0 -1.84,0.05 -2.75,0.05 -0.89,0 -1.84,0.11 -2.69,0.11 -0.34,0 -0.93,0 -0.93,-0.95 0,-0.6 0.43,-0.6 1.23,-0.6 2.8,0 2.84,-0.45 3,-1.68 l 3.92,-30.75 c 0.16,-1 0.36,-1.14 1,-1.14 0.8,0 1,0.25 1.41,0.89 z" /><path
           style="fill:#000000;stroke-width:0"
           inkscape:connector-curvature="0"
           id="path7956"
           d="m 512.2,394.25 0,0.02 0,0.03 0,0.01 0,0.02 -0.01,0.01 0,0.02 -0.01,0.01 0,0.02 -0.01,0.02 -0.01,0.02 -0.01,0.02 -0.02,0.03 -0.01,0.02 -0.02,0.03 -0.02,0.03 -0.03,0.03 -0.02,0.03 -0.03,0.04 -0.02,0.02 -0.02,0.02 -0.01,0.02 -0.02,0.02 -0.02,0.02 -0.02,0.03 -0.02,0.02 -0.02,0.02 -0.03,0.03 -0.02,0.02 -0.02,0.03 -0.03,0.03 -0.03,0.03 -0.02,0.03 -0.03,0.03 -0.03,0.03 -0.03,0.03 -0.04,0.03 -0.03,0.04 -0.03,0.03 -0.04,0.04 -0.03,0.03 -0.04,0.04 -0.04,0.04 c -6.22,6.28 -7.81,15.69 -7.81,23.31 0,8.67 1.89,17.35 8.01,23.56 0.64,0.61 0.64,0.71 0.64,0.86 0,0.35 -0.18,0.49 -0.48,0.49 -0.5,0 -4.99,-3.38 -7.92,-9.7 -2.55,-5.49 -3.14,-11.02 -3.14,-15.21 0,-3.89 0.54,-9.9 3.28,-15.54 2.98,-6.13 7.28,-9.36 7.78,-9.36 0.3,0 0.48,0.14 0.48,0.5 z" /><path
           style="fill:#000000;stroke-width:0"
           inkscape:connector-curvature="0"
           id="path7958"
           d="m 519.43,409.14 -0.02,-0.07 -0.01,-0.08 -0.02,-0.07 -0.02,-0.08 -0.03,-0.16 -0.04,-0.16 -0.04,-0.16 -0.04,-0.16 -0.03,-0.16 -0.04,-0.16 -0.02,-0.08 -0.01,-0.07 -0.02,-0.07 -0.01,-0.07 -0.02,-0.07 -0.01,-0.07 -0.02,-0.06 -0.01,-0.06 -0.01,-0.06 -0.01,-0.05 -0.01,-0.05 0,-0.04 -0.01,-0.04 0,-0.04 -0.01,-0.03 0,-0.02 c 0,-0.89 0.71,-1.35 1.44,-1.35 0.61,0 1.5,0.39 1.84,1.39 0.11,0.21 1.8,6.99 2,7.88 0.4,1.64 1.3,5.12 1.6,6.48 0.2,0.64 1.59,2.99 2.78,4.08 0.4,0.34 1.84,1.64 4,1.64 1.28,0 2.03,-0.59 2.08,-0.59 -1.49,-0.25 -2.58,-1.46 -2.58,-2.74 0,-0.79 0.55,-1.75 1.89,-1.75 1.34,0 2.73,1.14 2.73,2.94 0,1.75 -1.59,3.23 -4.12,3.23 -3.25,0 -5.44,-2.43 -6.39,-3.82 -0.39,2.23 -2.19,3.82 -4.53,3.82 -2.28,0 -3.24,-1.93 -3.69,-2.82 -0.89,-1.71 -1.55,-4.69 -1.55,-4.85 0,-0.5 0.5,-0.5 0.61,-0.5 0.5,0 0.55,0.07 0.85,1.16 0.84,3.53 1.84,5.92 3.64,5.92 0.84,0 1.54,-0.39 1.54,-2.28 0,-1.05 -0.15,-1.61 -0.79,-4.19 z" /><path
           style="fill:#000000;stroke-width:0"
           inkscape:connector-curvature="0"
           id="path7960"
           d="m 553.3,418.65 0,0.37 0,0.39 -0.01,0.39 -0.01,0.41 -0.04,0.84 -0.06,0.88 -0.09,0.92 -0.1,0.95 -0.14,0.97 -0.16,1.01 -0.2,1.02 -0.23,1.03 -0.26,1.05 -0.31,1.06 -0.35,1.07 -0.39,1.07 -0.21,0.53 -0.23,0.53 -0.24,0.53 -0.25,0.53 c -2.98,6.12 -7.26,9.36 -7.76,9.36 -0.3,0 -0.5,-0.19 -0.5,-0.49 0,-0.15 0,-0.25 0.94,-1.15 4.89,-4.92 7.73,-12.85 7.73,-23.27 0,-8.51 -1.84,-17.28 -8.03,-23.56 -0.64,-0.59 -0.64,-0.7 -0.64,-0.84 0,-0.3 0.2,-0.5 0.5,-0.5 0.5,0 4.97,3.39 7.92,9.71 2.53,5.47 3.12,11 3.12,15.19 z" /></g>    </g>
    <path
       id="path4908-6-4"
       title="pow(2.718281828,-x)"
       d="m -75.420626,38.40681 c 1.915932,4.9785 4.455049,9.5792 6.68262,14.021 2.227553,4.44177 4.455086,8.65887 6.682657,12.67387 2.227516,4.0151 4.455087,7.8269 6.682602,11.4563 2.227571,3.6293 4.455105,7.0749 6.682657,10.3556 2.227516,3.2805 4.455087,6.3951 6.682658,9.3606 2.227515,2.9654 4.455067,5.7807 6.682601,8.4613 2.227553,2.6805 4.455105,5.2254 6.682658,7.6483 2.227515,2.423 4.455086,4.7234 6.68262,6.9136 2.227552,2.1902 4.455086,4.2696 6.68262,6.2493 2.227571,1.9798 4.455105,3.8594 6.6826388,5.6489 2.2275709,1.7896 4.4550679,3.4886 6.6826572,5.1063 2.22753398,1.6176 4.4551048,3.1533 6.6826203,4.6155 2.2275524,1.4622 4.4551233,2.8504 6.6826387,4.1722 2.227589,1.3217 4.455105,2.5766 6.682639,3.7713 2.227552,1.1947 4.455086,2.3291 6.682639,3.409 2.227552,1.0799 4.455086,2.1053 6.682638,3.0815 2.227571,0.9762 4.455087,1.903 6.682639,2.7853 2.227515,0.8824 4.455086,1.7202 6.682639,2.5178 2.227571,0.7977 4.455086,1.5549 6.68262,2.2759 2.227552,0.721 4.455105,1.4055 6.682657,2.0573 2.227534,0.6517 4.455068,1.2705 6.682639,1.8596 2.227515,0.5892 4.455086,1.1484 6.68262,1.6809 2.227534,0.5326 4.455087,1.0382 6.682657,1.5195 2.227553,0.4813 4.455068,0.9383 6.682639,1.3735 2.227516,0.4351 4.455086,0.8481 6.682602,1.2414 2.227552,0.3933 4.455123,0.7667 6.682657,1.1222 2.227533,0.3555 4.455083,0.6931 6.682623,1.0144 2.22755,0.3214 4.4551,0.6264 6.68267,0.917 2.22752,0.2904 4.45507,0.5662 6.68259,0.8288 2.22755,0.2626 4.4551,0.5119 6.68265,0.7492 2.22756,0.2373 4.45511,0.4627 6.68264,0.6772 2.22754,0.2146 4.45511,0.4183 6.68262,0.6122 2.22757,0.1939 4.45509,0.3781 6.68266,0.5533 2.22755,0.1754 4.45509,0.3417 6.68262,0.5002 2.22755,0.1585 4.45512,0.3089 6.68264,0.4522 2.22755,0.1432 4.4551,0.2791 6.68266,0.4086 2.22755,0.1295 4.4551,0.2524 6.68262,0.3695 2.22753,0.117 4.45508,0.2281 6.68265,0.3339 2.22754,0.1058 4.45507,0.2062 6.68261,0.3019 2.22758,0.096 4.4551,0.1864 6.68265,0.2728 2.22752,0.086 4.45507,0.1685 6.68266,0.2466 2.22753,0.078 4.45509,0.1523 6.6826,0.223 2.22757,0.071 4.45509,0.1377 6.68266,0.2015 2.22755,0.064 4.45509,0.1244 6.68264,0.1821 2.22755,0.058 4.45507,0.1125 6.68264,0.1647 2.22751,0.052 4.45508,0.1016 6.68262,0.1489 2.22757,0.048 4.45508,0.092 6.68264,0.1345 2.22751,0.043 4.45508,0.083 6.68262,0.1216 2.22757,0.038 4.4551,0.075 6.68265,0.1098 2.22756,0.035 4.45507,0.068 6.68264,0.1 2.22754,0.031 4.45509,0.061 6.68264,0.09 2.22753,0.028 4.45509,0.056 6.68262,0.081 2.22753,0.026 4.45511,0.05 6.68266,0.073 2.22753,0.023 4.45507,0.045 6.68264,0.066 2.22751,0.021 4.45508,0.041 6.68262,0.06 2.22753,0.019 4.45505,0.037 6.68264,0.054 2.22755,0.017 4.45508,0.034 6.68262,0.049 2.22755,0.016 4.45512,0.03 6.68263,0.044 2.22756,0.014 4.45513,0.028 6.68264,0.04 2.22756,0.013 4.45511,0.025 6.68264,0.037 2.22754,0.011 4.45511,0.022 6.68264,0.033 2.22755,0.01 4.45509,0.02 6.68264,0.029 2.22755,0.01 4.45509,0.018 6.68264,0.026 2.22755,0.01 4.45507,0.016 6.68264,0.024"
       style="fill:none;stroke:#0000ff;stroke-width:0.99999976;stroke-linecap:butt;stroke-linejoin:bevel;stroke-miterlimit:4;stroke-opacity:1;stroke-dasharray:none;stroke-dashoffset:0"
       inkscape:connector-curvature="0"
       sodipodi:nodetypes="csssssssssssssccssssssssssssscsssssssscscccscccccccccccccccsccccc" />
    <path
       style="fill:none;stroke:#ff0000;stroke-width:1px;stroke-linecap:butt;stroke-linejoin:miter;stroke-opacity:1"
       d="m 347.70086,187.31487 c 0,0 -232.09198,3.24242 -298.603124,-12.48722 -66.511148,-15.72964 -98.802516,-52.32739 -98.802516,-52.32739"
       id="path9223"
       inkscape:connector-curvature="0"
       sodipodi:nodetypes="czc" />
    <path
       style="fill:none;stroke:#ff0000;stroke-width:1px;stroke-linecap:butt;stroke-linejoin:miter;stroke-opacity:1"
       d="m 347.59932,194.28739 c 0,0 -232.09198,-3.24242 -298.603125,12.48722 -66.511148,15.72969 -98.802516,52.32739 -98.802516,52.32739"
       id="path9223-7"
       inkscape:connector-curvature="0"
       sodipodi:nodetypes="czc" />
    <g
       id="g9460"
       transform="matrix(0.67835492,0,0,0.67835492,-102.59087,237.55665)">
      <g
         word-spacing="normal"
         letter-spacing="normal"
         font-size-adjust="none"
         font-stretch="normal"
         font-weight="normal"
         font-variant="normal"
         font-style="normal"
         stroke-miterlimit="10.433"
         xml:space="preserve"
         transform="matrix(0.39480169,0,0,-0.39480169,-69.090295,226.63309)"
         id="g9462"
         style="font-style:normal;font-variant:normal;font-weight:normal;font-stretch:normal;letter-spacing:normal;word-spacing:normal;text-anchor:start;fill:none;stroke:#000000;stroke-width:1.47415459;stroke-linecap:butt;stroke-linejoin:miter;stroke-miterlimit:10.43299961;stroke-opacity:1;stroke-dasharray:none;stroke-dashoffset:0"><path
           id="path9464"
           d="m 488.35,417.65 0.16,0 0.16,0 0.15,0.01 0.08,0 0.08,0.01 0.07,0 0.08,0.01 0.07,0.01 0.07,0.01 0.07,0.02 0.07,0.02 0.07,0.02 0.06,0.02 0.06,0.02 0.06,0.03 0.05,0.03 0.06,0.04 0.05,0.03 0.04,0.05 0.04,0.04 0.04,0.05 0.02,0.03 0.02,0.03 0.01,0.03 0.02,0.03 0.01,0.03 0.02,0.03 0.01,0.04 0.01,0.03 0.01,0.04 0,0.04 0.01,0.04 0.01,0.04 0,0.04 0.01,0.04 0,0.05 0,0.04 c 0,1 -0.91,1 -1.75,1 h -26.96 c -0.84,0 -1.73,0 -1.73,-1 0,-1 0.89,-1 1.73,-1 z"
           inkscape:connector-curvature="0"
           style="fill:#000000;stroke-width:0" /><path
           id="path9466"
           d="m 519.71,448.9 0,0.01 0,0 0,0 0,0.01 0.01,0 0,0.01 0,0.01 0,0 0,0.01 0.01,0.01 0,0.01 0.01,0.02 0,0.02 0.01,0.02 0,0.02 0.01,0.02 0.01,0.02 0,0.03 0.01,0.02 0.01,0.05 0.01,0.04 0.01,0.03 0,0.02 0.01,0.02 0,0.02 0.01,0.02 0,0.02 0,0.02 0.01,0.01 0,0.01 0,0.01 0,0 0,0.01 0,0 0.01,0.01 0,0 0,0.01 0,0 0,0 0,0.01 0,0 c 0,0.19 -0.14,0.5 -0.57,0.5 -0.68,0 -3.57,-0.28 -4.45,-0.36 -0.28,-0.03 -0.76,-0.06 -0.76,-0.8 0,-0.48 0.48,-0.48 0.9,-0.48 1.68,0 1.68,-0.25 1.68,-0.53 0,-0.24 -0.08,-0.46 -0.15,-0.77 l -4.92,-19.72 c -0.17,-0.62 -0.17,-0.68 -0.17,-0.76 0,-0.52 0.42,-1.11 1.19,-1.11 0.93,0 1.39,0.69 1.61,1.45 0.06,0.14 1.56,6.28 1.7,6.77 2.47,-0.25 4.45,-1.05 4.45,-2.86 0,-0.17 0,-0.35 -0.06,-0.69 -0.14,-0.53 -0.14,-0.7 -0.14,-1.09 0,-2.47 2.02,-3.58 3.69,-3.58 3.39,0 4.43,5.29 4.43,5.33 0,0.45 -0.45,0.45 -0.56,0.45 -0.48,0 -0.53,-0.17 -0.7,-0.84 -0.41,-1.5 -1.36,-3.97 -3.06,-3.97 -0.94,0 -1.22,0.87 -1.22,1.81 0,0.59 0,0.66 0.2,1.56 0.05,0.11 0.19,0.7 0.19,1.1 0,3.09 -4.19,3.57 -5.66,3.68 1.02,0.63 2.3,1.78 2.89,2.3 1.79,1.67 3.54,3.31 5.47,3.31 0.42,0 0.88,-0.11 1.16,-0.45 -1.5,-0.25 -1.81,-1.42 -1.81,-1.95 0,-0.77 0.59,-1.29 1.39,-1.29 0.95,0 1.98,0.77 1.98,2.22 0,1.16 -0.83,2.44 -2.67,2.44 -1.98,0 -3.8,-1.42 -5.58,-3.06 -1.47,-1.39 -2.61,-2.47 -4.05,-3.06 z"
           inkscape:connector-curvature="0"
           style="fill:#000000;stroke-width:0" /><polyline
           id="polyline9468"
           points="500,418 539.12,418 539.12,420.04 500,420.04 "
           style="fill:#000000;fill-rule:nonzero;stroke-width:0" /><path
           id="path9470"
           d="m 508.47,396.07 0,0.01 0,0.02 0.01,0.02 0,0.02 0.01,0.03 0.01,0.03 0.01,0.04 0,0.04 0.01,0.04 0.01,0.04 0.02,0.05 0.01,0.05 0.01,0.06 0.02,0.05 0.02,0.12 0.04,0.13 0.03,0.13 0.04,0.14 0.03,0.15 0.04,0.15 0.04,0.15 0.08,0.31 0.08,0.31 0.04,0.16 0.04,0.15 0.04,0.14 0.03,0.14 0.04,0.13 0.03,0.13 0.03,0.11 0.02,0.06 0.01,0.05 0.01,0.05 0.02,0.05 0.01,0.04 0.01,0.04 0.01,0.04 0.01,0.03 0.01,0.03 0,0.03 0.01,0.02 0.01,0.02 0,0.01 0.01,0.01 c 0.07,0.28 1.07,2.02 2.2,2.86 0.37,0.27 1.31,0.97 2.81,0.97 0.34,0 1.22,-0.03 1.92,-0.48 -1.12,-0.32 -1.53,-1.3 -1.53,-1.93 0,-0.76 0.6,-1.28 1.39,-1.28 0.8,0 1.95,0.66 1.95,2.13 0,1.81 -1.92,2.53 -3.7,2.53 -1.81,0 -3.37,-0.72 -4.9,-2.47 -0.63,2.12 -2.75,2.47 -3.6,2.47 -1.28,0 -2.15,-0.8 -2.72,-1.77 -0.79,-1.36 -1.28,-3.39 -1.28,-3.56 0,-0.45 0.49,-0.45 0.6,-0.45 0.48,0 0.51,0.11 0.76,1.04 0.52,2.13 1.19,3.77 2.55,3.77 0.9,0 1.14,-0.77 1.14,-1.7 0,-0.68 -0.31,-1.96 -0.56,-2.89 -0.24,-0.96 -0.58,-2.38 -0.77,-3.14 l -1.11,-4.47 c -0.14,-0.44 -0.34,-1.32 -0.34,-1.43 0,-0.76 0.62,-1.1 1.19,-1.1 0.51,0 1.21,0.31 1.48,1 0.08,0.21 0.45,1.75 0.67,2.62 z"
           inkscape:connector-curvature="0"
           style="fill:#000000;stroke-width:0" /><path
           id="path9472"
           d="m 534.51,403.81 h -1.04 c -0.08,-0.48 -0.33,-2.01 -0.72,-2.26 -0.21,-0.16 -2.3,-0.16 -2.68,-0.16 h -4.87 c 1.64,1.22 3.48,2.61 4.98,3.61 2.24,1.55 4.33,3 4.33,5.64 0,3.19 -3.01,4.95 -6.58,4.95 -3.36,0 -5.83,-1.95 -5.83,-4.39 0,-1.29 1.1,-1.51 1.46,-1.51 0.67,0 1.47,0.45 1.47,1.47 0,0.89 -0.66,1.39 -1.43,1.46 0.69,1.13 2.15,1.88 3.82,1.88 2.4,0 4.42,-1.45 4.42,-3.89 0,-2.09 -1.44,-3.69 -3.36,-5.31 l -6.08,-5.16 c -0.25,-0.22 -0.26,-0.22 -0.3,-0.39 V 399 h 11.58 z"
           inkscape:connector-curvature="0"
           style="fill:#000000;stroke-width:0" /></g>    </g>
    <g
       transform="matrix(0.60813244,0,0,0.60813244,-47.601889,87.481304)"
       id="g9584">
      <g
         style="font-style:normal;font-variant:normal;font-weight:normal;font-stretch:normal;letter-spacing:normal;word-spacing:normal;text-anchor:start;fill:none;stroke:#000000;stroke-width:1.64437866;stroke-linecap:butt;stroke-linejoin:miter;stroke-miterlimit:10.43299961;stroke-opacity:1;stroke-dasharray:none;stroke-dashoffset:0"
         id="g9586"
         transform="matrix(0.39480169,0,0,-0.39480169,-69.090295,226.63309)"
         xml:space="preserve"
         stroke-miterlimit="10.433"
         font-style="normal"
         font-variant="normal"
         font-weight="normal"
         font-stretch="normal"
         font-size-adjust="none"
         letter-spacing="normal"
         word-spacing="normal"><path
           style="fill:#000000;stroke-width:0"
           inkscape:connector-curvature="0"
           d="m 486.8,427.11 0.23,0.35 0.23,0.33 0.22,0.31 0.22,0.3 0.22,0.27 0.22,0.25 0.22,0.24 0.22,0.22 0.21,0.2 0.21,0.19 0.21,0.17 0.2,0.16 0.21,0.14 0.2,0.13 0.21,0.12 0.19,0.11 0.2,0.09 0.2,0.09 0.19,0.07 0.2,0.07 0.19,0.06 0.19,0.05 0.18,0.04 0.19,0.04 0.18,0.03 0.19,0.02 0.36,0.04 0.35,0.03 0.35,0.02 c 0.6,0.04 0.64,0.89 0.64,0.95 0,0.39 -0.25,0.59 -0.64,0.59 -1.3,0 -2.75,-0.15 -4.09,-0.15 -1.64,0 -3.35,0.15 -4.94,0.15 -0.3,0 -0.94,0 -0.94,-0.95 0,-0.55 0.46,-0.59 0.8,-0.59 1.34,-0.1 2.3,-0.6 2.3,-1.64 0,-0.75 -0.75,-1.85 -0.75,-1.9 l -15.3,-24.31 -3.39,26.35 c 0,0.84 1.14,1.5 3.44,1.5 0.7,0 1.25,0 1.25,1 0,0.43 -0.41,0.54 -0.71,0.54 -1.98,0 -4.14,-0.15 -6.17,-0.15 -0.9,0 -1.84,0.04 -2.75,0.04 -0.89,0 -1.84,0.11 -2.69,0.11 -0.34,0 -0.93,0 -0.93,-0.95 0,-0.59 0.43,-0.59 1.23,-0.59 2.8,0 2.84,-0.46 3,-1.69 l 3.92,-30.75 c 0.16,-1 0.36,-1.14 1,-1.14 0.8,0 1,0.25 1.41,0.89 z"
           id="path9588" /><path
           style="fill:#000000;stroke-width:0"
           inkscape:connector-curvature="0"
           d="m 499.89,399.14 0.06,0 0.07,0 0.06,0 0.06,0 0.06,0 0.05,0 0.05,0.01 0.05,0 0.05,0 0.04,0.01 0.04,0.01 0.04,0.01 0.04,0.01 0.03,0.01 0.03,0.02 0.03,0.01 0.03,0.02 0.03,0.03 0.02,0.02 0.02,0.03 0.02,0.03 0.02,0.03 0.01,0.02 0.01,0.02 0,0.02 0.01,0.02 0.01,0.02 0,0.02 0.01,0.02 0,0.03 0.01,0.02 0,0.03 0.01,0.02 0,0.03 0,0.03 0,0.03 0.01,0.03 0,0.03 0,0.03 0,0.04 0,0.03 0,0.04 c 0,3.06 -1.72,6.83 -6.91,6.83 -4.56,0 -8.04,-3.63 -8.04,-7.93 0,-4.42 3.87,-7.96 8.5,-7.96 4.7,0 6.45,3.76 6.45,4.53 0,0.14 -0.08,0.48 -0.59,0.48 -0.46,0 -0.53,-0.22 -0.63,-0.56 -1.09,-2.81 -3.73,-3.35 -4.98,-3.35 -1.64,0 -3.21,0.74 -4.25,2.07 -1.3,1.62 -1.33,3.75 -1.33,5.11 l 0.03,0.9 c 0.39,4.92 3.52,5.72 4.84,5.72 4.29,0 4.43,-4.84 4.47,-5.72 h -9.31 l -0.03,-0.9 z"
           id="path9590" /><path
           style="fill:#000000;stroke-width:0"
           inkscape:connector-curvature="0"
           d="m 520.5,404.96 h 4.4 v 1.25 h -4.54 v 3.91 c 0,3.14 1.85,4.64 3.42,4.64 0.32,0 0.66,-0.08 1,-0.19 -0.48,-0.26 -0.76,-0.82 -0.76,-1.39 0,-0.93 0.67,-1.59 1.61,-1.59 0.94,0 1.59,0.66 1.59,1.59 0,1.5 -1.48,2.55 -3.4,2.55 -1.25,0 -2.79,-0.39 -4.05,-1.47 -1.14,1.27 -3.2,1.47 -4.56,1.47 l -0.11,-0.97 c 0.31,0 1.81,0 2.97,-0.56 -0.39,-0.14 -0.97,-0.59 -0.97,-1.5 0,-0.49 0.17,-1.08 0.86,-1.42 -0.06,-0.36 -0.06,-0.82 -0.06,-1.16 v -3.91 h -8.79 v 3.8 c 0,3.39 3.41,4.75 5.99,4.75 l 0.11,0.97 c -3.8,0 -8.57,-1.75 -8.57,-5.69 v -3.83 h -3 v -1.25 h 3 v -11.01 c 0,-1.5 -0.35,-1.5 -2.62,-1.5 v -1.25 c 0.08,0 2.52,0.14 3.91,0.14 1.32,0 2.61,-0.03 3.93,-0.14 v 1.25 c -2.26,0 -2.61,0 -2.61,1.5 v 11.01 h 8.65 v -11.01 c 0,-1.5 -0.35,-1.5 -2.62,-1.5 v -1.25 c 0.18,0 2.54,0.14 3.97,0.14 1.5,0 3.03,-0.08 4.53,-0.14 v 1.25 h -0.7 c -2.58,0 -2.58,0.39 -2.58,1.58 z"
           id="path9592" /><path
           style="fill:#000000;stroke-width:0"
           inkscape:connector-curvature="0"
           d="m 562.42,366.87 0,-0.01 0.01,0 0,0 0.01,-0.01 0.01,0 0,-0.01 0.01,0 0.01,-0.01 0.01,-0.01 0.01,0 0.01,-0.02 0.02,-0.02 0.02,-0.02 0.03,-0.02 0.02,-0.02 0.02,-0.02 0.02,-0.03 0.03,-0.02 0.02,-0.02 0.05,-0.05 0.03,-0.03 0.02,-0.02 0.03,-0.03 0.02,-0.02 0.02,-0.02 0.02,-0.02 0.02,-0.02 0.02,-0.02 0.02,-0.02 0.01,-0.01 0.01,0 0.01,-0.01 0,-0.01 0.01,0 0.01,-0.01 0,0 0.01,-0.01 0,0 0.01,0 0,-0.01 0.01,0 0,0 0,0 h 1.11 c 0.14,0 0.55,0.05 0.55,0.5 0,0.2 -0.11,0.3 -0.2,0.45 -1.8,1.8 -4.49,4.53 -7.58,10.02 -5.38,9.56 -7.38,21.87 -7.38,33.83 0,22.12 6.28,35.12 15,43.93 0.16,0.16 0.16,0.3 0.16,0.41 0,0.5 -0.36,0.5 -0.95,0.5 -0.65,0 -0.75,0 -1.21,-0.41 -4.72,-4.07 -10.06,-11.01 -13.5,-21.51 -2.14,-6.58 -3.28,-14.61 -3.28,-22.88 0,-11.81 2.14,-25.15 9.97,-36.71 1.34,-1.94 3.19,-3.99 3.19,-4.04 0.5,-0.59 1.18,-1.4 1.59,-1.75 z"
           id="path9594" /><path
           style="fill:#000000;stroke-width:0"
           inkscape:connector-curvature="0"
           d="m 593.75,441.46 0,0 0,0.01 0,0 0.01,0.01 0,0 0,0.01 0,0 0,0.01 0.01,0.01 0,0.01 0,0.01 0.01,0.02 0.01,0.02 0,0.02 0.01,0.02 0,0.02 0.01,0.02 0,0.03 0.01,0.02 0.01,0.05 0.01,0.04 0.01,0.03 0,0.02 0.01,0.02 0,0.02 0.01,0.02 0,0.02 0.01,0.02 0,0.01 0,0.01 0,0.01 0,0 0.01,0.01 0,0 0,0.01 0,0 0,0.01 0,0 0,0 0,0.01 0,0 c 0,0.19 -0.14,0.5 -0.56,0.5 -0.69,0 -3.6,-0.28 -4.45,-0.36 -0.26,-0.03 -0.74,-0.06 -0.74,-0.8 0,-0.48 0.48,-0.48 0.88,-0.48 1.67,0 1.67,-0.25 1.67,-0.53 0,-0.24 -0.08,-0.46 -0.14,-0.77 l -4.33,-17.2 c -0.11,-0.36 -0.14,-0.74 -0.14,-1.08 0,-2.24 1.98,-3.31 3.65,-3.31 0.85,0 1.89,0.28 2.8,1.84 0.74,1.28 1.22,3.34 1.22,3.48 0,0.46 -0.45,0.46 -0.56,0.46 -0.49,0 -0.55,-0.21 -0.69,-0.85 -0.45,-1.73 -1.12,-3.96 -2.62,-3.96 -0.94,0 -1.18,0.87 -1.18,1.7 0,0.39 0.1,1.05 0.21,1.44 z"
           id="path9596" /><path
           style="fill:#000000;stroke-width:0"
           inkscape:connector-curvature="0"
           d="m 611.43,438.13 h -1.04 c -0.08,-0.48 -0.33,-2.01 -0.72,-2.26 -0.2,-0.16 -2.3,-0.16 -2.67,-0.16 h -4.88 c 1.64,1.22 3.48,2.61 4.98,3.61 2.24,1.55 4.33,3 4.33,5.64 0,3.19 -3.01,4.95 -6.58,4.95 -3.35,0 -5.82,-1.95 -5.82,-4.39 0,-1.29 1.09,-1.51 1.45,-1.51 0.67,0 1.47,0.45 1.47,1.47 0,0.89 -0.66,1.39 -1.42,1.47 0.69,1.12 2.14,1.87 3.81,1.87 2.41,0 4.42,-1.45 4.42,-3.89 0,-2.09 -1.44,-3.69 -3.36,-5.31 l -6.08,-5.16 c -0.25,-0.22 -0.26,-0.22 -0.29,-0.39 v -0.75 h 11.57 z"
           id="path9598" /><polyline
           style="fill:#000000;fill-rule:nonzero;stroke-width:0"
           points="573,410 628.32,410 628.32,412.04 573,412.04 "
           id="polyline9600" /><path
           style="fill:#000000;stroke-width:0"
           inkscape:connector-curvature="0"
           d="m 590.11,387.82 h -1.18 c -0.1,-0.76 -0.46,-2.82 -0.91,-3.17 -0.27,-0.2 -2.95,-0.2 -3.44,-0.2 h -6.42 c 3.66,3.23 4.87,4.2 6.97,5.84 2.58,2.07 4.98,4.22 4.98,7.53 0,4.22 -3.68,6.8 -8.15,6.8 -4.31,0 -7.25,-3.03 -7.25,-6.23 0,-1.78 1.5,-1.96 1.86,-1.96 0.83,0 1.84,0.6 1.84,1.85 0,0.62 -0.25,1.84 -2.06,1.84 1.08,2.47 3.45,3.24 5.09,3.24 3.49,0 5.3,-2.71 5.3,-5.54 0,-3.03 -2.16,-5.43 -3.28,-6.68 l -8.39,-8.3 c -0.36,-0.31 -0.36,-0.39 -0.36,-1.36 h 14.36 z"
           id="path9602" /><path
           style="fill:#000000;stroke-width:0"
           inkscape:connector-curvature="0"
           d="m 607.44,384.31 -0.02,-0.07 -0.01,-0.07 -0.02,-0.07 -0.02,-0.07 -0.02,-0.08 -0.02,-0.08 -0.04,-0.16 -0.04,-0.16 -0.04,-0.16 -0.04,-0.16 -0.02,-0.08 -0.02,-0.07 -0.01,-0.08 -0.02,-0.07 -0.02,-0.07 -0.01,-0.07 -0.02,-0.07 -0.02,-0.06 -0.01,-0.06 -0.01,-0.06 -0.01,-0.05 -0.01,-0.05 -0.01,-0.04 -0.01,-0.04 -0.01,-0.04 0,-0.03 0,-0.02 0,-0.02 c 0,-0.77 0.62,-1.11 1.17,-1.11 0.64,0 1.19,0.45 1.36,0.76 0.19,0.31 0.45,1.42 0.64,2.16 0.17,0.65 0.55,2.26 0.77,3.14 0.2,0.76 0.4,1.53 0.59,2.33 0.37,1.5 0.37,1.56 1.08,2.65 1.11,1.71 2.86,3.69 5.56,3.69 1.95,0 2.06,-1.61 2.06,-2.44 0,-2.09 -1.5,-5.95 -2.06,-7.42 -0.38,-0.98 -0.52,-1.3 -0.52,-1.89 0,-1.84 1.54,-2.98 3.32,-2.98 3.48,0 5.01,4.79 5.01,5.32 0,0.46 -0.45,0.46 -0.56,0.46 -0.48,0 -0.52,-0.21 -0.66,-0.6 -0.79,-2.78 -2.29,-4.21 -3.69,-4.21 -0.73,0 -0.87,0.48 -0.87,1.21 0,0.8 0.17,1.25 0.8,2.83 0.42,1.08 1.84,4.77 1.84,6.72 0,0.56 0,2.03 -1.28,3.03 -0.59,0.46 -1.61,0.94 -3.25,0.94 -3.12,0 -5.05,-2.05 -6.16,-3.52 -0.28,2.97 -2.76,3.52 -4.53,3.52 -2.89,0 -4.84,-1.77 -5.89,-3.16 -0.25,2.39 -2.29,3.16 -3.73,3.16 -1.5,0 -2.3,-1.08 -2.75,-1.88 -0.77,-1.28 -1.25,-3.28 -1.25,-3.45 0,-0.45 0.48,-0.45 0.59,-0.45 0.48,0 0.52,0.11 0.77,1.05 0.51,2.06 1.18,3.76 2.54,3.76 0.91,0 1.14,-0.76 1.14,-1.7 0,-0.67 -0.31,-1.96 -0.56,-2.89 -0.23,-0.96 -0.58,-2.38 -0.76,-3.14 l -1.11,-4.47 c -0.14,-0.44 -0.35,-1.31 -0.35,-1.42 0,-0.77 0.63,-1.11 1.19,-1.11 0.62,0 1.17,0.45 1.36,0.76 0.17,0.31 0.45,1.42 0.63,2.16 0.17,0.65 0.54,2.26 0.76,3.14 0.2,0.76 0.42,1.53 0.59,2.33 0.38,1.43 0.46,1.7 1.46,3.14 0.98,1.39 2.62,3.2 5.23,3.2 2.02,0 2.05,-1.78 2.05,-2.44 0,-0.87 -0.09,-1.32 -0.59,-3.28 z"
           id="path9604" /><path
           style="fill:#000000;stroke-width:0"
           inkscape:connector-curvature="0"
           d="m 681.15,410.12 0.1,0.05 0.09,0.05 0.05,0.02 0.05,0.02 0.04,0.03 0.04,0.02 0.05,0.03 0.04,0.03 0.04,0.02 0.04,0.03 0.03,0.03 0.04,0.03 0.03,0.03 0.04,0.03 0.03,0.03 0.03,0.03 0.02,0.04 0.03,0.03 0.02,0.04 0.03,0.04 0.02,0.04 0.02,0.04 0.01,0.04 0.02,0.04 0.01,0.05 0.01,0.05 0.01,0.05 0,0.05 0.01,0.05 0,0.05 c 0,0.6 -0.41,0.85 -0.95,1.1 l -27.6,13.01 c -0.65,0.35 -0.75,0.35 -0.9,0.35 -0.55,0 -0.99,-0.46 -0.99,-1 0,-0.46 0.25,-0.75 0.94,-1.1 l 26.15,-12.36 -26.15,-12.35 c -0.69,-0.35 -0.94,-0.65 -0.94,-1.1 0,-0.55 0.44,-1 0.99,-1 0.15,0 0.25,0 0.9,0.36 z"
           id="path9606" /><path
           style="fill:#000000;stroke-width:0"
           inkscape:connector-curvature="0"
           d="m 714.38,432.79 -0.01,0.01 0,0 0,0.01 0,0.01 0,0.01 0,0.01 0,0.02 0,0.02 -0.01,0.02 0,0.02 0,0.02 -0.01,0.02 -0.01,0.03 -0.01,0.02 -0.01,0.03 -0.01,0.02 -0.02,0.02 -0.01,0.03 -0.02,0.02 -0.02,0.03 -0.02,0.02 -0.01,0.01 -0.02,0.01 -0.01,0.01 -0.01,0.01 -0.02,0.01 -0.01,0.01 -0.02,0.01 -0.02,0.01 -0.01,0.01 -0.02,0.01 -0.02,0.01 -0.02,0 -0.02,0.01 -0.02,0.01 -0.02,0 -0.02,0.01 -0.03,0 -0.02,0.01 -0.03,0 -0.02,0 -0.03,0.01 -0.03,0 -0.03,0 -0.03,0 c -1.15,0 -4.78,-0.41 -6.07,-0.5 -0.41,-0.05 -0.96,-0.09 -0.96,-1 0,-0.59 0.46,-0.59 1.21,-0.59 2.39,0 2.48,-0.35 2.48,-0.85 l -0.16,-1 -7.21,-28.7 c -0.21,-0.69 -0.21,-0.8 -0.21,-1.09 0,-1.15 1,-1.4 1.46,-1.4 0.64,0 1.39,0.46 1.68,1.05 0.25,0.45 2.5,9.66 2.8,10.91 1.69,-0.14 5.78,-0.94 5.78,-4.24 0,-0.34 0,-0.54 -0.15,-1.04 -0.1,-0.6 -0.21,-1.19 -0.21,-1.74 0,-2.95 2,-4.94 4.6,-4.94 1.48,0 2.82,0.8 3.93,2.65 1.24,2.18 1.78,4.93 1.78,5.03 0,0.5 -0.43,0.5 -0.59,0.5 -0.5,0 -0.55,-0.21 -0.7,-0.91 -0.99,-3.62 -2.14,-6.17 -4.33,-6.17 -0.94,0 -1.59,0.55 -1.59,2.34 0,0.85 0.2,1.99 0.4,2.78 0.19,0.86 0.19,1.05 0.19,1.55 0,3.25 -3.14,4.69 -7.38,5.23 1.55,0.91 3.14,2.5 4.3,3.69 2.39,2.64 4.67,4.78 7.13,4.78 0.29,0 0.34,0 0.43,-0.04 0.61,-0.1 0.66,-0.1 1.05,-0.39 0.11,-0.07 0.11,-0.11 0.2,-0.21 -2.39,-0.15 -2.84,-2.09 -2.84,-2.68 0,-0.8 0.55,-1.75 1.89,-1.75 1.3,0 2.75,1.09 2.75,3.03 0,1.5 -1.16,3.14 -3.39,3.14 -1.39,0 -3.69,-0.39 -7.28,-4.38 -1.69,-1.89 -3.63,-3.89 -5.52,-4.64 z"
           id="path9608" /><path
           style="fill:#000000;stroke-width:0"
           inkscape:connector-curvature="0"
           d="m 748.28,411.16 -0.04,2.69 -0.13,2.71 -0.2,2.71 -0.31,2.71 -0.39,2.7 -0.5,2.69 -0.61,2.67 -0.71,2.64 -0.83,2.6 -0.46,1.28 -0.49,1.27 -0.52,1.27 -0.56,1.24 -0.58,1.23 -0.62,1.22 -0.65,1.2 -0.69,1.19 -0.72,1.16 -0.75,1.15 -0.79,1.12 -0.83,1.11 -0.86,1.09 -0.9,1.06 c -0.71,0.79 -2.55,2.73 -3.74,3.78 -0.36,0.31 -0.45,0.31 -1.11,0.31 -0.5,0 -0.94,0 -0.94,-0.5 0,-0.2 0.21,-0.41 0.3,-0.5 1.69,-1.75 4.39,-4.48 7.47,-9.97 5.39,-9.56 7.38,-21.87 7.38,-33.83 0,-21.62 -5.99,-34.82 -14.94,-43.93 -0.11,-0.11 -0.21,-0.25 -0.21,-0.41 0,-0.5 0.44,-0.5 0.94,-0.5 0.66,0 0.75,0 1.21,0.41 4.73,4.07 10.06,11 13.5,21.51 2.18,6.83 3.28,14.91 3.28,22.92 z"
           id="path9610" /></g>    </g>
    <g
       id="g9728"
       transform="matrix(0.60813244,0,0,0.60813244,-13.896571,204.99997)">
      <g
         word-spacing="normal"
         letter-spacing="normal"
         font-size-adjust="none"
         font-stretch="normal"
         font-weight="normal"
         font-variant="normal"
         font-style="normal"
         stroke-miterlimit="10.433"
         xml:space="preserve"
         transform="matrix(0.39480169,0,0,-0.39480169,-69.090295,226.63309)"
         id="g9730"
         style="font-style:normal;font-variant:normal;font-weight:normal;font-stretch:normal;letter-spacing:normal;word-spacing:normal;text-anchor:start;fill:none;stroke:#000000;stroke-width:1.64437866;stroke-linecap:butt;stroke-linejoin:miter;stroke-miterlimit:10.43299961;stroke-opacity:1;stroke-dasharray:none;stroke-dashoffset:0"><path
           id="path9732"
           d="m 486.8,427.11 0.23,0.35 0.23,0.33 0.22,0.31 0.22,0.3 0.22,0.27 0.22,0.25 0.22,0.24 0.22,0.22 0.21,0.2 0.21,0.19 0.21,0.17 0.2,0.16 0.21,0.14 0.2,0.13 0.21,0.12 0.19,0.11 0.2,0.09 0.2,0.09 0.19,0.07 0.2,0.07 0.19,0.06 0.19,0.05 0.18,0.04 0.19,0.04 0.18,0.03 0.19,0.02 0.36,0.04 0.35,0.03 0.35,0.02 c 0.6,0.04 0.64,0.89 0.64,0.95 0,0.39 -0.25,0.59 -0.64,0.59 -1.3,0 -2.75,-0.15 -4.09,-0.15 -1.64,0 -3.35,0.15 -4.94,0.15 -0.3,0 -0.94,0 -0.94,-0.95 0,-0.55 0.46,-0.59 0.8,-0.59 1.34,-0.1 2.3,-0.6 2.3,-1.64 0,-0.75 -0.75,-1.85 -0.75,-1.9 l -15.3,-24.31 -3.39,26.35 c 0,0.84 1.14,1.5 3.44,1.5 0.7,0 1.25,0 1.25,1 0,0.43 -0.41,0.54 -0.71,0.54 -1.98,0 -4.14,-0.15 -6.17,-0.15 -0.9,0 -1.84,0.04 -2.75,0.04 -0.89,0 -1.84,0.11 -2.69,0.11 -0.34,0 -0.93,0 -0.93,-0.95 0,-0.59 0.43,-0.59 1.23,-0.59 2.8,0 2.84,-0.46 3,-1.69 l 3.92,-30.75 c 0.16,-1 0.36,-1.14 1,-1.14 0.8,0 1,0.25 1.41,0.89 z"
           inkscape:connector-curvature="0"
           style="fill:#000000;stroke-width:0" /><path
           id="path9734"
           d="m 499.89,399.14 0.06,0 0.07,0 0.06,0 0.06,0 0.06,0 0.05,0 0.05,0.01 0.05,0 0.05,0 0.04,0.01 0.04,0.01 0.04,0.01 0.04,0.01 0.03,0.01 0.03,0.02 0.03,0.01 0.03,0.02 0.03,0.03 0.02,0.02 0.02,0.03 0.02,0.03 0.02,0.03 0.01,0.02 0.01,0.02 0,0.02 0.01,0.02 0.01,0.02 0,0.02 0.01,0.02 0,0.03 0.01,0.02 0,0.03 0.01,0.02 0,0.03 0,0.03 0,0.03 0.01,0.03 0,0.03 0,0.03 0,0.04 0,0.03 0,0.04 c 0,3.06 -1.72,6.83 -6.91,6.83 -4.56,0 -8.04,-3.63 -8.04,-7.93 0,-4.42 3.87,-7.96 8.5,-7.96 4.7,0 6.45,3.76 6.45,4.53 0,0.14 -0.08,0.48 -0.59,0.48 -0.46,0 -0.53,-0.22 -0.63,-0.56 -1.09,-2.81 -3.73,-3.35 -4.98,-3.35 -1.64,0 -3.21,0.74 -4.25,2.07 -1.3,1.62 -1.33,3.75 -1.33,5.11 l 0.03,0.9 c 0.39,4.92 3.52,5.72 4.84,5.72 4.29,0 4.43,-4.84 4.47,-5.72 h -9.31 l -0.03,-0.9 z"
           inkscape:connector-curvature="0"
           style="fill:#000000;stroke-width:0" /><path
           id="path9736"
           d="m 520.5,404.96 h 4.4 v 1.25 h -4.54 v 3.91 c 0,3.14 1.85,4.64 3.42,4.64 0.32,0 0.66,-0.08 1,-0.19 -0.48,-0.26 -0.76,-0.82 -0.76,-1.39 0,-0.93 0.67,-1.59 1.61,-1.59 0.94,0 1.59,0.66 1.59,1.59 0,1.5 -1.48,2.55 -3.4,2.55 -1.25,0 -2.79,-0.39 -4.05,-1.47 -1.14,1.27 -3.2,1.47 -4.56,1.47 l -0.11,-0.97 c 0.31,0 1.81,0 2.97,-0.56 -0.39,-0.14 -0.97,-0.59 -0.97,-1.5 0,-0.49 0.17,-1.08 0.86,-1.42 -0.06,-0.36 -0.06,-0.82 -0.06,-1.16 v -3.91 h -8.79 v 3.8 c 0,3.39 3.41,4.75 5.99,4.75 l 0.11,0.97 c -3.8,0 -8.57,-1.75 -8.57,-5.69 v -3.83 h -3 v -1.25 h 3 v -11.01 c 0,-1.5 -0.35,-1.5 -2.62,-1.5 v -1.25 c 0.08,0 2.52,0.14 3.91,0.14 1.32,0 2.61,-0.03 3.93,-0.14 v 1.25 c -2.26,0 -2.61,0 -2.61,1.5 v 11.01 h 8.65 v -11.01 c 0,-1.5 -0.35,-1.5 -2.62,-1.5 v -1.25 c 0.18,0 2.54,0.14 3.97,0.14 1.5,0 3.03,-0.08 4.53,-0.14 v 1.25 h -0.7 c -2.58,0 -2.58,0.39 -2.58,1.58 z"
           inkscape:connector-curvature="0"
           style="fill:#000000;stroke-width:0" /><path
           id="path9738"
           d="m 562.42,366.87 0,-0.01 0.01,0 0,0 0.01,-0.01 0.01,0 0,-0.01 0.01,0 0.01,-0.01 0.01,-0.01 0.01,0 0.01,-0.02 0.02,-0.02 0.02,-0.02 0.03,-0.02 0.02,-0.02 0.02,-0.02 0.02,-0.03 0.03,-0.02 0.02,-0.02 0.05,-0.05 0.03,-0.03 0.02,-0.02 0.03,-0.03 0.02,-0.02 0.02,-0.02 0.02,-0.02 0.02,-0.02 0.02,-0.02 0.02,-0.02 0.01,-0.01 0.01,0 0.01,-0.01 0,-0.01 0.01,0 0.01,-0.01 0,0 0.01,-0.01 0,0 0.01,0 0,-0.01 0.01,0 0,0 0,0 h 1.11 c 0.14,0 0.55,0.05 0.55,0.5 0,0.2 -0.11,0.3 -0.2,0.45 -1.8,1.8 -4.49,4.53 -7.58,10.02 -5.38,9.56 -7.38,21.87 -7.38,33.83 0,22.12 6.28,35.12 15,43.93 0.16,0.16 0.16,0.3 0.16,0.41 0,0.5 -0.36,0.5 -0.95,0.5 -0.65,0 -0.75,0 -1.21,-0.41 -4.72,-4.07 -10.06,-11.01 -13.5,-21.51 -2.14,-6.58 -3.28,-14.61 -3.28,-22.88 0,-11.81 2.14,-25.15 9.97,-36.71 1.34,-1.94 3.19,-3.99 3.19,-4.04 0.5,-0.59 1.18,-1.4 1.59,-1.75 z"
           inkscape:connector-curvature="0"
           style="fill:#000000;stroke-width:0" /><path
           id="path9740"
           d="m 593.75,441.46 0,0 0,0.01 0,0 0.01,0.01 0,0 0,0.01 0,0 0,0.01 0.01,0.01 0,0.01 0,0.01 0.01,0.02 0.01,0.02 0,0.02 0.01,0.02 0,0.02 0.01,0.02 0,0.03 0.01,0.02 0.01,0.05 0.01,0.04 0.01,0.03 0,0.02 0.01,0.02 0,0.02 0.01,0.02 0,0.02 0.01,0.02 0,0.01 0,0.01 0,0.01 0,0 0.01,0.01 0,0 0,0.01 0,0 0,0.01 0,0 0,0 0,0.01 0,0 c 0,0.19 -0.14,0.5 -0.56,0.5 -0.69,0 -3.6,-0.28 -4.45,-0.36 -0.26,-0.03 -0.74,-0.06 -0.74,-0.8 0,-0.48 0.48,-0.48 0.88,-0.48 1.67,0 1.67,-0.25 1.67,-0.53 0,-0.24 -0.08,-0.46 -0.14,-0.77 l -4.33,-17.2 c -0.11,-0.36 -0.14,-0.74 -0.14,-1.08 0,-2.24 1.98,-3.31 3.65,-3.31 0.85,0 1.89,0.28 2.8,1.84 0.74,1.28 1.22,3.34 1.22,3.48 0,0.46 -0.45,0.46 -0.56,0.46 -0.49,0 -0.55,-0.21 -0.69,-0.85 -0.45,-1.73 -1.12,-3.96 -2.62,-3.96 -0.94,0 -1.18,0.87 -1.18,1.7 0,0.39 0.1,1.05 0.21,1.44 z"
           inkscape:connector-curvature="0"
           style="fill:#000000;stroke-width:0" /><path
           id="path9742"
           d="m 611.43,438.13 h -1.04 c -0.08,-0.48 -0.33,-2.01 -0.72,-2.26 -0.2,-0.16 -2.3,-0.16 -2.67,-0.16 h -4.88 c 1.64,1.22 3.48,2.61 4.98,3.61 2.24,1.55 4.33,3 4.33,5.64 0,3.19 -3.01,4.95 -6.58,4.95 -3.35,0 -5.82,-1.95 -5.82,-4.39 0,-1.29 1.09,-1.51 1.45,-1.51 0.67,0 1.47,0.45 1.47,1.47 0,0.89 -0.66,1.39 -1.42,1.47 0.69,1.12 2.14,1.87 3.81,1.87 2.41,0 4.42,-1.45 4.42,-3.89 0,-2.09 -1.44,-3.69 -3.36,-5.31 l -6.08,-5.16 c -0.25,-0.22 -0.26,-0.22 -0.29,-0.39 v -0.75 h 11.57 z"
           inkscape:connector-curvature="0"
           style="fill:#000000;stroke-width:0" /><polyline
           id="polyline9744"
           points="573,410 628.32,410 628.32,412.04 573,412.04 "
           style="fill:#000000;fill-rule:nonzero;stroke-width:0" /><path
           id="path9746"
           d="m 590.11,387.82 h -1.18 c -0.1,-0.76 -0.46,-2.82 -0.91,-3.17 -0.27,-0.2 -2.95,-0.2 -3.44,-0.2 h -6.42 c 3.66,3.23 4.87,4.2 6.97,5.84 2.58,2.07 4.98,4.22 4.98,7.53 0,4.22 -3.68,6.8 -8.15,6.8 -4.31,0 -7.25,-3.03 -7.25,-6.23 0,-1.78 1.5,-1.96 1.86,-1.96 0.83,0 1.84,0.6 1.84,1.85 0,0.62 -0.25,1.84 -2.06,1.84 1.08,2.47 3.45,3.24 5.09,3.24 3.49,0 5.3,-2.71 5.3,-5.54 0,-3.03 -2.16,-5.43 -3.28,-6.68 l -8.39,-8.3 c -0.36,-0.31 -0.36,-0.39 -0.36,-1.36 h 14.36 z"
           inkscape:connector-curvature="0"
           style="fill:#000000;stroke-width:0" /><path
           id="path9748"
           d="m 607.44,384.31 -0.02,-0.07 -0.01,-0.07 -0.02,-0.07 -0.02,-0.07 -0.02,-0.08 -0.02,-0.08 -0.04,-0.16 -0.04,-0.16 -0.04,-0.16 -0.04,-0.16 -0.02,-0.08 -0.02,-0.07 -0.01,-0.08 -0.02,-0.07 -0.02,-0.07 -0.01,-0.07 -0.02,-0.07 -0.02,-0.06 -0.01,-0.06 -0.01,-0.06 -0.01,-0.05 -0.01,-0.05 -0.01,-0.04 -0.01,-0.04 -0.01,-0.04 0,-0.03 0,-0.02 0,-0.02 c 0,-0.77 0.62,-1.11 1.17,-1.11 0.64,0 1.19,0.45 1.36,0.76 0.19,0.31 0.45,1.42 0.64,2.16 0.17,0.65 0.55,2.26 0.77,3.14 0.2,0.76 0.4,1.53 0.59,2.33 0.37,1.5 0.37,1.56 1.08,2.65 1.11,1.71 2.86,3.69 5.56,3.69 1.95,0 2.06,-1.61 2.06,-2.44 0,-2.09 -1.5,-5.95 -2.06,-7.42 -0.38,-0.98 -0.52,-1.3 -0.52,-1.89 0,-1.84 1.54,-2.98 3.32,-2.98 3.48,0 5.01,4.79 5.01,5.32 0,0.46 -0.45,0.46 -0.56,0.46 -0.48,0 -0.52,-0.21 -0.66,-0.6 -0.79,-2.78 -2.29,-4.21 -3.69,-4.21 -0.73,0 -0.87,0.48 -0.87,1.21 0,0.8 0.17,1.25 0.8,2.83 0.42,1.08 1.84,4.77 1.84,6.72 0,0.56 0,2.03 -1.28,3.03 -0.59,0.46 -1.61,0.94 -3.25,0.94 -3.12,0 -5.05,-2.05 -6.16,-3.52 -0.28,2.97 -2.76,3.52 -4.53,3.52 -2.89,0 -4.84,-1.77 -5.89,-3.16 -0.25,2.39 -2.29,3.16 -3.73,3.16 -1.5,0 -2.3,-1.08 -2.75,-1.88 -0.77,-1.28 -1.25,-3.28 -1.25,-3.45 0,-0.45 0.48,-0.45 0.59,-0.45 0.48,0 0.52,0.11 0.77,1.05 0.51,2.06 1.18,3.76 2.54,3.76 0.91,0 1.14,-0.76 1.14,-1.7 0,-0.67 -0.31,-1.96 -0.56,-2.89 -0.23,-0.96 -0.58,-2.38 -0.76,-3.14 l -1.11,-4.47 c -0.14,-0.44 -0.35,-1.31 -0.35,-1.42 0,-0.77 0.63,-1.11 1.19,-1.11 0.62,0 1.17,0.45 1.36,0.76 0.17,0.31 0.45,1.42 0.63,2.16 0.17,0.65 0.54,2.26 0.76,3.14 0.2,0.76 0.42,1.53 0.59,2.33 0.38,1.43 0.46,1.7 1.46,3.14 0.98,1.39 2.62,3.2 5.23,3.2 2.02,0 2.05,-1.78 2.05,-2.44 0,-0.87 -0.09,-1.32 -0.59,-3.28 z"
           inkscape:connector-curvature="0"
           style="fill:#000000;stroke-width:0" /><path
           id="path9750"
           d="m 681.15,423.57 0.05,0.03 0.06,0.03 0.05,0.03 0.05,0.02 0.05,0.03 0.05,0.03 0.05,0.03 0.04,0.02 0.04,0.03 0.05,0.03 0.04,0.03 0.03,0.03 0.04,0.03 0.04,0.03 0.03,0.03 0.03,0.03 0.03,0.03 0.03,0.03 0.02,0.04 0.03,0.03 0.02,0.04 0.02,0.03 0.02,0.04 0.01,0.04 0.02,0.04 0.01,0.04 0.01,0.04 0.01,0.05 0.01,0.04 0,0.05 0.01,0.05 0,0.05 c 0,0.54 -0.45,1 -1,1 -0.14,0 -0.25,0 -0.89,-0.35 L 652.6,412.31 c -0.55,-0.25 -0.94,-0.5 -0.94,-1.1 0,-0.59 0.39,-0.84 0.94,-1.09 l 27.61,-13 c 0.64,-0.36 0.75,-0.36 0.89,-0.36 0.55,0 1,0.45 1,1 0,0.55 -0.35,0.8 -0.95,1.1 l -26.16,12.35 z"
           inkscape:connector-curvature="0"
           style="fill:#000000;stroke-width:0" /><path
           id="path9752"
           d="m 714.38,432.79 -0.01,0.01 0,0 0,0.01 0,0.01 0,0.01 0,0.01 0,0.02 0,0.02 -0.01,0.02 0,0.02 0,0.02 -0.01,0.02 -0.01,0.03 -0.01,0.02 -0.01,0.03 -0.01,0.02 -0.02,0.02 -0.01,0.03 -0.02,0.02 -0.02,0.03 -0.02,0.02 -0.01,0.01 -0.02,0.01 -0.01,0.01 -0.01,0.01 -0.02,0.01 -0.01,0.01 -0.02,0.01 -0.02,0.01 -0.01,0.01 -0.02,0.01 -0.02,0.01 -0.02,0 -0.02,0.01 -0.02,0.01 -0.02,0 -0.02,0.01 -0.03,0 -0.02,0.01 -0.03,0 -0.02,0 -0.03,0.01 -0.03,0 -0.03,0 -0.03,0 c -1.15,0 -4.78,-0.41 -6.07,-0.5 -0.41,-0.05 -0.96,-0.09 -0.96,-1 0,-0.59 0.46,-0.59 1.21,-0.59 2.39,0 2.48,-0.35 2.48,-0.85 l -0.16,-1 -7.21,-28.7 c -0.21,-0.69 -0.21,-0.8 -0.21,-1.09 0,-1.15 1,-1.4 1.46,-1.4 0.64,0 1.39,0.46 1.68,1.05 0.25,0.45 2.5,9.66 2.8,10.91 1.69,-0.14 5.78,-0.94 5.78,-4.24 0,-0.34 0,-0.54 -0.15,-1.04 -0.1,-0.6 -0.21,-1.19 -0.21,-1.74 0,-2.95 2,-4.94 4.6,-4.94 1.48,0 2.82,0.8 3.93,2.65 1.24,2.18 1.78,4.93 1.78,5.03 0,0.5 -0.43,0.5 -0.59,0.5 -0.5,0 -0.55,-0.21 -0.7,-0.91 -0.99,-3.62 -2.14,-6.17 -4.33,-6.17 -0.94,0 -1.59,0.55 -1.59,2.34 0,0.85 0.2,1.99 0.4,2.78 0.19,0.86 0.19,1.05 0.19,1.55 0,3.25 -3.14,4.69 -7.38,5.23 1.55,0.91 3.14,2.5 4.3,3.69 2.39,2.64 4.67,4.78 7.13,4.78 0.29,0 0.34,0 0.43,-0.04 0.61,-0.1 0.66,-0.1 1.05,-0.39 0.11,-0.07 0.11,-0.11 0.2,-0.21 -2.39,-0.15 -2.84,-2.09 -2.84,-2.68 0,-0.8 0.55,-1.75 1.89,-1.75 1.3,0 2.75,1.09 2.75,3.03 0,1.5 -1.16,3.14 -3.39,3.14 -1.39,0 -3.69,-0.39 -7.28,-4.38 -1.69,-1.89 -3.63,-3.89 -5.52,-4.64 z"
           inkscape:connector-curvature="0"
           style="fill:#000000;stroke-width:0" /><path
           id="path9754"
           d="m 748.28,411.16 -0.04,2.69 -0.13,2.71 -0.2,2.71 -0.31,2.71 -0.39,2.7 -0.5,2.69 -0.61,2.67 -0.71,2.64 -0.83,2.6 -0.46,1.28 -0.49,1.27 -0.52,1.27 -0.56,1.24 -0.58,1.23 -0.62,1.22 -0.65,1.2 -0.69,1.19 -0.72,1.16 -0.75,1.15 -0.79,1.12 -0.83,1.11 -0.86,1.09 -0.9,1.06 c -0.71,0.79 -2.55,2.73 -3.74,3.78 -0.36,0.31 -0.45,0.31 -1.11,0.31 -0.5,0 -0.94,0 -0.94,-0.5 0,-0.2 0.21,-0.41 0.3,-0.5 1.69,-1.75 4.39,-4.48 7.47,-9.97 5.39,-9.56 7.38,-21.87 7.38,-33.83 0,-21.62 -5.99,-34.82 -14.94,-43.93 -0.11,-0.11 -0.21,-0.25 -0.21,-0.41 0,-0.5 0.44,-0.5 0.94,-0.5 0.66,0 0.75,0 1.21,0.41 4.73,4.07 10.06,11 13.5,21.51 2.18,6.83 3.28,14.91 3.28,22.92 z"
           inkscape:connector-curvature="0"
           style="fill:#000000;stroke-width:0" /></g>    </g>
    <path
       style="fill:none;stroke:#000000;stroke-width:1px;stroke-linecap:butt;stroke-linejoin:miter;stroke-opacity:1;marker-start:none;marker-end:url(#Arrow1Send)"
       d="M 47.902833,240.05139 1.9522536,228.12528"
       id="path9827"
       inkscape:connector-curvature="0"
       sodipodi:nodetypes="cc" />
    <path
       style="fill:none;stroke:#000000;stroke-width:1px;stroke-linecap:butt;stroke-linejoin:miter;stroke-opacity:1;marker-start:none;marker-end:url(#Arrow1Send)"
       d="m 15.133245,127.88383 -37.334846,10.37052"
       id="path9827-7"
       inkscape:connector-curvature="0"
       sodipodi:nodetypes="cc" />
  </g>
</svg>
