<?xml version="1.0" encoding="UTF-8" standalone="no"?>
<!-- Created with Inkscape (http://www.inkscape.org/) -->

<svg
   xmlns:dc="http://purl.org/dc/elements/1.1/"
   xmlns:cc="http://creativecommons.org/ns#"
   xmlns:rdf="http://www.w3.org/1999/02/22-rdf-syntax-ns#"
   xmlns:svg="http://www.w3.org/2000/svg"
   xmlns="http://www.w3.org/2000/svg"
   xmlns:sodipodi="http://sodipodi.sourceforge.net/DTD/sodipodi-0.dtd"
   xmlns:inkscape="http://www.inkscape.org/namespaces/inkscape"
   width="285.3223"
   height="142.18619"
   id="svg2"
   version="1.1"
   inkscape:version="0.48.2 r9819"
   sodipodi:docname="large Q.svg">
  <sodipodi:namedview
     id="base"
     pagecolor="#ffffff"
     bordercolor="#666666"
     borderopacity="1.0"
     inkscape:pageopacity="0.0"
     inkscape:pageshadow="2"
     inkscape:zoom="2.3628324"
     inkscape:cx="66.546629"
     inkscape:cy="56.076777"
     inkscape:document-units="px"
     inkscape:current-layer="layer1"
     showgrid="false"
     inkscape:window-width="1366"
     inkscape:window-height="721"
     inkscape:window-x="0"
     inkscape:window-y="21"
     inkscape:window-maximized="1"
     fit-margin-top="0"
     fit-margin-left="0"
     fit-margin-right="0"
     fit-margin-bottom="0" />
  <defs
     id="defs4">
    <marker
       style="overflow:visible"
       id="StopM"
       refX="0"
       refY="0"
       orient="auto"
       inkscape:stockid="StopM">
      <path
         inkscape:connector-curvature="0"
         transform="scale(0.4,0.4)"
         style="fill:none;stroke:#000000;stroke-width:1pt"
         d="M 0,5.65 0,-5.65"
         id="path4128" />
    </marker>
    <marker
       inkscape:stockid="StopL"
       orient="auto"
       refY="0"
       refX="0"
       id="StopL"
       style="overflow:visible">
      <path
         inkscape:connector-curvature="0"
         id="path3932"
         d="M 0,5.65 0,-5.65"
         style="fill:none;stroke:#000000;stroke-width:1pt"
         transform="scale(0.8,0.8)" />
    </marker>
    <marker
       style="overflow:visible"
       id="DistanceEnd"
       refX="0"
       refY="0"
       orient="auto"
       inkscape:stockid="DistanceEnd">
      <g
         id="g3818">
        <path
           inkscape:connector-curvature="0"
           style="fill:none;stroke:#ffffff;stroke-width:1.14999998;stroke-linecap:square"
           d="M 0,0 -2,0"
           id="path2316" />
        <path
           inkscape:connector-curvature="0"
           style="fill:#000000;fill-rule:evenodd;stroke:none"
           d="M 0,0 -13,4 -9,0 -13,-4 0,0 z"
           id="path2312" />
        <path
           inkscape:connector-curvature="0"
           style="fill:none;stroke:#000000;stroke-width:1;stroke-linecap:square"
           d="M 0,-4 0,40"
           id="path2314" />
      </g>
    </marker>
    <marker
       style="overflow:visible"
       id="DistanceStart"
       refX="0"
       refY="0"
       orient="auto"
       inkscape:stockid="DistanceStart">
      <g
         id="g2300">
        <path
           inkscape:connector-curvature="0"
           style="fill:none;stroke:#ffffff;stroke-width:1.14999998;stroke-linecap:square"
           d="M 0,0 2,0"
           id="path2306" />
        <path
           inkscape:connector-curvature="0"
           style="fill:#000000;fill-rule:evenodd;stroke:none"
           d="M 0,0 13,4 9,0 13,-4 0,0 z"
           id="path2302" />
        <path
           inkscape:connector-curvature="0"
           style="fill:none;stroke:#000000;stroke-width:1;stroke-linecap:square"
           d="M 0,-4 0,40"
           id="path2304" />
      </g>
    </marker>
    <marker
       inkscape:stockid="Arrow2Mstart"
       orient="auto"
       refY="0"
       refX="0"
       id="Arrow2Mstart"
       style="overflow:visible">
      <path
         inkscape:connector-curvature="0"
         id="path3786"
         style="font-size:12px;fill-rule:evenodd;stroke-width:0.625;stroke-linejoin:round"
         d="M 8.7185878,4.0337352 -2.2072895,0.01601326 8.7185884,-4.0017078 c -1.7454984,2.3720609 -1.7354408,5.6174519 -6e-7,8.035443 z"
         transform="scale(0.6,0.6)" />
    </marker>
    <marker
       inkscape:stockid="Arrow1Sstart"
       orient="auto"
       refY="0"
       refX="0"
       id="Arrow1Sstart"
       style="overflow:visible">
      <path
         inkscape:connector-curvature="0"
         id="path3774"
         d="M 0,0 5,-5 -12.5,0 5,5 0,0 z"
         style="fill-rule:evenodd;stroke:#000000;stroke-width:1pt;marker-start:none"
         transform="matrix(0.2,0,0,0.2,1.2,0)" />
    </marker>
    <marker
       inkscape:stockid="Arrow2Sstart"
       orient="auto"
       refY="0"
       refX="0"
       id="Arrow2Sstart"
       style="overflow:visible">
      <path
         inkscape:connector-curvature="0"
         id="path3792"
         style="font-size:12px;fill-rule:evenodd;stroke-width:0.625;stroke-linejoin:round"
         d="M 8.7185878,4.0337352 -2.2072895,0.01601326 8.7185884,-4.0017078 c -1.7454984,2.3720609 -1.7354408,5.6174519 -6e-7,8.035443 z"
         transform="matrix(0.3,0,0,0.3,-0.69,0)" />
    </marker>
    <marker
       inkscape:stockid="Arrow2Mend"
       orient="auto"
       refY="0"
       refX="0"
       id="Arrow2Mend"
       style="overflow:visible">
      <path
         inkscape:connector-curvature="0"
         id="path3789"
         style="font-size:12px;fill-rule:evenodd;stroke-width:0.625;stroke-linejoin:round"
         d="M 8.7185878,4.0337352 -2.2072895,0.01601326 8.7185884,-4.0017078 c -1.7454984,2.3720609 -1.7354408,5.6174519 -6e-7,8.035443 z"
         transform="scale(-0.6,-0.6)" />
    </marker>
    <marker
       inkscape:stockid="Arrow2Mstartw"
       orient="auto"
       refY="0"
       refX="0"
       id="Arrow2Mstartw"
       style="overflow:visible">
      <path
         inkscape:connector-curvature="0"
         id="path7255"
         style="font-size:12px;fill:#0000ff;fill-rule:evenodd;stroke:#0000ff;stroke-width:0.625;stroke-linejoin:round"
         d="M 8.7185878,4.0337352 -2.2072895,0.01601326 8.7185884,-4.0017078 c -1.7454984,2.3720609 -1.7354408,5.6174519 -6e-7,8.035443 z"
         transform="scale(0.6,0.6)" />
    </marker>
    <marker
       inkscape:stockid="Arrow2MendM"
       orient="auto"
       refY="0"
       refX="0"
       id="Arrow2MendM"
       style="overflow:visible">
      <path
         inkscape:connector-curvature="0"
         id="path7598"
         style="font-size:12px;fill:#0000ff;fill-rule:evenodd;stroke:#0000ff;stroke-width:0.625;stroke-linejoin:round"
         d="M 8.7185878,4.0337352 -2.2072895,0.01601326 8.7185884,-4.0017078 c -1.7454984,2.3720609 -1.7354408,5.6174519 -6e-7,8.035443 z"
         transform="scale(-0.6,-0.6)" />
    </marker>
    <marker
       inkscape:stockid="StopLQ"
       orient="auto"
       refY="0"
       refX="0"
       id="StopLQ"
       style="overflow:visible">
      <path
         inkscape:connector-curvature="0"
         id="path16328"
         d="M 0,5.65 0,-5.65"
         style="fill:none;stroke:#0000ff;stroke-width:1pt"
         transform="scale(0.8,0.8)" />
    </marker>
    <marker
       inkscape:stockid="StopLg"
       orient="auto"
       refY="0"
       refX="0"
       id="StopLg"
       style="overflow:visible">
      <path
         inkscape:connector-curvature="0"
         id="path16331"
         d="M 0,5.65 0,-5.65"
         style="fill:none;stroke:#0000ff;stroke-width:1pt"
         transform="scale(0.8,0.8)" />
    </marker>
    <marker
       style="overflow:visible"
       id="StopM2"
       refX="0"
       refY="0"
       orient="auto"
       inkscape:stockid="StopM2">
      <path
         inkscape:connector-curvature="0"
         transform="scale(0.4,0.4)"
         style="fill:none;stroke:#ff0000;stroke-width:1pt"
         d="M 0,5.65 0,-5.65"
         id="path4668" />
    </marker>
    <marker
       style="overflow:visible"
       id="StopMi"
       refX="0"
       refY="0"
       orient="auto"
       inkscape:stockid="StopMi">
      <path
         inkscape:connector-curvature="0"
         transform="scale(0.4,0.4)"
         style="fill:none;stroke:#ff0000;stroke-width:1pt"
         d="M 0,5.65 0,-5.65"
         id="path4671" />
    </marker>
    <marker
       style="overflow:visible"
       id="StopM9"
       refX="0"
       refY="0"
       orient="auto"
       inkscape:stockid="StopM9">
      <path
         inkscape:connector-curvature="0"
         transform="scale(0.4,0.4)"
         style="fill:none;stroke:#ff0000;stroke-width:1pt"
         d="M 0,5.65 0,-5.65"
         id="path4674" />
    </marker>
    <marker
       style="overflow:visible"
       id="StopMt"
       refX="0"
       refY="0"
       orient="auto"
       inkscape:stockid="StopMt">
      <path
         inkscape:connector-curvature="0"
         transform="scale(0.4,0.4)"
         style="fill:none;stroke:#ff0000;stroke-width:1pt"
         d="M 0,5.65 0,-5.65"
         id="path4677" />
    </marker>
    <marker
       style="overflow:visible"
       id="StopM4"
       refX="0"
       refY="0"
       orient="auto"
       inkscape:stockid="StopM4">
      <path
         inkscape:connector-curvature="0"
         transform="scale(0.4,0.4)"
         style="fill:none;stroke:#ff0000;stroke-width:1pt"
         d="M 0,5.65 0,-5.65"
         id="path4680" />
    </marker>
    <marker
       style="overflow:visible"
       id="StopMk"
       refX="0"
       refY="0"
       orient="auto"
       inkscape:stockid="StopMk">
      <path
         inkscape:connector-curvature="0"
         transform="scale(0.4,0.4)"
         style="fill:none;stroke:#ff0000;stroke-width:1pt"
         d="M 0,5.65 0,-5.65"
         id="path4683" />
    </marker>
    <marker
       style="overflow:visible"
       id="StopMX"
       refX="0"
       refY="0"
       orient="auto"
       inkscape:stockid="StopMX">
      <path
         inkscape:connector-curvature="0"
         transform="scale(0.4,0.4)"
         style="fill:none;stroke:#ff0000;stroke-width:1pt"
         d="M 0,5.65 0,-5.65"
         id="path4686" />
    </marker>
    <marker
       style="overflow:visible"
       id="StopMK"
       refX="0"
       refY="0"
       orient="auto"
       inkscape:stockid="StopMK">
      <path
         inkscape:connector-curvature="0"
         transform="scale(0.4,0.4)"
         style="fill:none;stroke:#ff0000;stroke-width:1pt"
         d="M 0,5.65 0,-5.65"
         id="path4689" />
    </marker>
    <marker
       style="overflow:visible"
       id="StopM9-6"
       refX="0"
       refY="0"
       orient="auto"
       inkscape:stockid="StopM9">
      <path
         transform="scale(0.4,0.4)"
         style="fill:none;stroke:#ff0000;stroke-width:1pt"
         d="M 0,5.65 0,-5.65"
         id="path4674-9"
         inkscape:connector-curvature="0" />
    </marker>
    <marker
       style="overflow:visible"
       id="StopMt-1"
       refX="0"
       refY="0"
       orient="auto"
       inkscape:stockid="StopMt">
      <path
         transform="scale(0.4,0.4)"
         style="fill:none;stroke:#ff0000;stroke-width:1pt"
         d="M 0,5.65 0,-5.65"
         id="path4677-0"
         inkscape:connector-curvature="0" />
    </marker>
  </defs>
  <metadata
     id="metadata7">
    <rdf:RDF>
      <cc:Work
         rdf:about="">
        <dc:format>image/svg+xml</dc:format>
        <dc:type
           rdf:resource="http://purl.org/dc/dcmitype/StillImage" />
        <dc:title />
      </cc:Work>
    </rdf:RDF>
  </metadata>
  <g
     inkscape:label="Layer 1"
     inkscape:groupmode="layer"
     id="layer1"
     transform="translate(-338.51281,-752.09819)">
    <path
       style="fill:none;stroke:#0000ff;stroke-width:0.99999994px;stroke-linecap:butt;stroke-linejoin:miter;stroke-opacity:1;marker-start:url(#Arrow2Mstartw)"
       d="m 355.89001,753.61006 0,140.17432"
       id="path2987"
       inkscape:connector-curvature="0" />
    <path
       style="fill:none;stroke:#0000ff;stroke-width:0.99999994px;stroke-linecap:butt;stroke-linejoin:miter;stroke-opacity:1;marker-end:url(#Arrow2MendM)"
       d="m 348.111,831.31022 274.21222,0"
       id="path2989"
       inkscape:connector-curvature="0" />
    <g
       id="g4959"
       transform="matrix(0.43197526,0,0,0.43178131,247.26576,654.81988)">
      <g
         word-spacing="normal"
         letter-spacing="normal"
         font-size-adjust="none"
         font-stretch="normal"
         font-weight="normal"
         font-variant="normal"
         font-style="normal"
         stroke-miterlimit="10.433"
         xml:space="preserve"
         transform="matrix(0.74915631,0,0,-0.74915631,-131.10235,558.07086)"
         id="content"
         style="font-style:normal;font-variant:normal;font-weight:normal;font-stretch:normal;letter-spacing:normal;word-spacing:normal;text-anchor:start;fill:none;stroke:#000000;stroke-width:2.31546736;stroke-linecap:butt;stroke-linejoin:miter;stroke-miterlimit:10.43299961;stroke-opacity:1;stroke-dasharray:none;stroke-dashoffset:0"><path
           id="path4962"
           d="m 479.74,425.18 0.01,0.04 0.01,0.03 0.01,0.06 0.02,0.05 0.01,0.06 0.01,0.05 0.02,0.04 0.01,0.05 0.01,0.04 0.01,0.04 0,0.04 0.01,0.04 0.01,0.04 0.01,0.03 0,0.03 0.01,0.03 0,0.03 0.01,0.03 0,0.03 0.01,0.05 0,0.06 0,0.05 0,0.05 0.01,0.05 0,0.03 0,0.03 0,0.03 0,0.03 c 0,0.91 -0.69,1.35 -1.44,1.35 -0.5,0 -1.3,-0.3 -1.75,-1.05 -0.1,-0.25 -0.5,-1.78 -0.69,-2.69 -0.36,-1.29 -0.7,-2.64 -1,-3.98 l -2.25,-8.97 c -0.19,-0.75 -2.33,-4.23 -5.62,-4.23 -2.54,0 -3.1,2.18 -3.1,4.03 0,2.29 0.86,5.39 2.55,9.76 0.8,2.05 1,2.6 1,3.6 0,2.23 -1.59,4.07 -4.09,4.07 -4.74,0 -6.58,-7.21 -6.58,-7.67 0,-0.5 0.5,-0.5 0.61,-0.5 0.5,0 0.54,0.11 0.79,0.91 1.35,4.69 3.33,6.17 5.03,6.17 0.4,0 1.25,0 1.25,-1.59 0,-1.25 -0.5,-2.53 -0.85,-3.49 -1.99,-5.28 -2.9,-8.12 -2.9,-10.47 0,-4.42 3.15,-5.92 6.08,-5.92 1.96,0 3.64,0.85 5.03,2.24 -0.64,-2.58 -1.23,-5.03 -3.23,-7.68 -1.3,-1.68 -3.19,-3.14 -5.48,-3.14 -0.69,0 -2.94,0.16 -3.79,2.1 0.8,0 1.46,0 2.14,0.61 0.5,0.43 1,1.09 1,2.03 0,1.55 -1.34,1.75 -1.84,1.75 -1.14,0 -2.8,-0.8 -2.8,-3.24 0,-2.5 2.21,-4.34 5.29,-4.34 5.14,0 10.26,4.55 11.67,10.17 z"
           inkscape:connector-curvature="0"
           style="fill:#000000;stroke-width:0" /></g>    </g>
    <g
       transform="matrix(0.43197526,0,0,0.43178131,525.63573,740.01323)"
       id="g5002">
      <g
         style="font-style:normal;font-variant:normal;font-weight:normal;font-stretch:normal;letter-spacing:normal;word-spacing:normal;text-anchor:start;fill:none;stroke:#000000;stroke-width:2.31546736;stroke-linecap:butt;stroke-linejoin:miter;stroke-miterlimit:10.43299961;stroke-opacity:1;stroke-dasharray:none;stroke-dashoffset:0"
         id="g5004"
         transform="matrix(0.74915631,0,0,-0.74915631,-131.10235,558.07086)"
         xml:space="preserve"
         stroke-miterlimit="10.433"
         font-style="normal"
         font-variant="normal"
         font-weight="normal"
         font-stretch="normal"
         font-size-adjust="none"
         letter-spacing="normal"
         word-spacing="normal"><path
           style="fill:#000000;stroke-width:0"
           inkscape:connector-curvature="0"
           d="m 465.79,426.12 h 4.68 c 0.99,0 1.49,0 1.49,1 0,0.55 -0.5,0.55 -1.39,0.55 h -4.39 c 1.79,7.08 2.04,8.08 2.04,8.37 0,0.85 -0.59,1.35 -1.43,1.35 -0.16,0 -1.55,-0.05 -2,-1.8 l -1.94,-7.92 h -4.69 c -1,0 -1.5,0 -1.5,-0.94 0,-0.61 0.41,-0.61 1.41,-0.61 h 4.37 c -3.58,-14.14 -3.78,-14.98 -3.78,-15.89 0,-2.69 1.89,-4.58 4.58,-4.58 5.08,0 7.92,7.27 7.92,7.67 0,0.5 -0.39,0.5 -0.59,0.5 -0.46,0 -0.5,-0.15 -0.75,-0.7 -2.14,-5.17 -4.78,-6.37 -6.47,-6.37 -1.05,0 -1.55,0.65 -1.55,2.29 0,1.19 0.09,1.55 0.3,2.39 z"
           id="path5006" /></g>    </g>
    <path
       inkscape:connector-curvature="0"
       style="fill:none;stroke:#0000ff;stroke-width:0.99999994;stroke-linecap:butt;stroke-linejoin:bevel;stroke-miterlimit:4;stroke-opacity:1;stroke-dasharray:none;stroke-dashoffset:0"
       d="m 356.11024,760.97386 c 0.82719,0.0971 1.65438,4.57375 2.48157,12.54928 0.82718,7.97552 1.65437,19.41647 2.48156,32.11721 0.82718,12.70074 1.65437,26.60008 2.48156,39.05967 0.82719,12.45961 1.65437,23.40608 2.48156,30.7952 0.82719,7.38912 1.65437,11.16388 2.48157,10.66167 0.82718,-0.50221 1.65437,-5.30009 2.48156,-13.4298 0.82718,-8.12964 1.65437,-19.56457 2.48156,-32.10247 0.82719,-12.53789 1.65437,-26.11762 2.48157,-38.16331 0.82718,-12.04568 1.65436,-22.48563 2.48156,-29.37247 0.82718,-6.88685 1.65437,-10.16622 2.48156,-9.26891 0.82718,0.89732 1.65437,5.98743 2.48156,14.25276 0.82719,8.26534 1.65437,19.67784 2.48156,32.04161 0.82719,12.36377 1.65437,25.61785 2.48156,37.24987 0.82719,11.63202 1.65438,21.57203 2.48156,27.96815 0.8272,6.39617 1.65438,9.19669 2.48157,7.92258 0.82719,-1.27411 1.65437,-6.63646 2.48156,-15.01954 0.82719,-8.38312 1.65438,-19.75752 2.48156,-31.93662 0.82719,-12.17911 1.65438,-25.10224 2.48156,-36.32143 0.8272,-11.21918 1.65438,-20.66629 2.48157,-26.5835 0.82719,-5.91721 1.65437,-8.25544 2.48156,-6.62261 0.82719,1.63283 1.65438,7.24789 2.48156,15.73146 0.82719,8.48357 1.65438,19.8049 2.48156,31.78954 0.8272,11.98464 1.65438,24.57219 2.48157,35.37996 0.82719,10.80775 1.65437,19.76936 2.48156,25.21968 0.82719,5.45026 1.65438,7.34263 2.48156,5.36893 0.82719,-1.9737 1.65438,-7.82243 2.48156,-16.38977 0.82719,-8.56735 1.65438,-19.8214 2.48157,-31.60245 0.82718,-11.78105 1.65438,-24.02914 2.48156,-34.42742 0.82718,-10.39829 1.65438,-18.88226 2.48156,-23.87775 0.82719,-4.99549 1.65438,-6.4585 2.48157,-4.16142 0.82718,2.29707 1.65437,8.36083 2.48156,16.99585 0.82719,8.63503 1.65438,19.80828 2.48156,31.37734 0.82719,11.56906 1.65438,23.47441 2.48156,33.46567 0.82719,9.99126 1.65438,18.00579 2.48157,22.55878 0.82718,4.55293 1.65437,5.60294 2.48156,2.99975 0.82718,-2.60313 1.65437,-8.86384 2.48156,-17.55104 0.82719,-8.6872 1.65437,-19.76684 2.48156,-31.11615 0.82719,-11.34931 1.65437,-22.90932 2.48157,-32.49651 0.82718,-9.58719 1.65438,-17.14075 2.48156,-21.26364 0.82718,-4.12289 1.65438,-4.77606 2.48156,-1.88378 0.82719,2.89227 1.65438,9.33233 2.48157,18.05679 0.82718,8.72445 1.65437,19.69835 2.48156,30.82081 0.82718,11.12247 1.65437,22.33515 2.48156,31.52167 0.82718,9.18653 1.65437,16.28794 2.48156,19.99326 0.82719,3.70531 1.65437,3.97781 2.48156,0.81301 0.82719,-3.16468 1.65437,-9.76699 2.48157,-18.51437 0.82718,-8.74738 1.65437,-19.60408 2.48156,-30.49326 0.82719,-10.88917 1.65438,-21.7531 2.48156,-30.54281 0.82719,-8.78971 1.65438,-15.44812 2.48157,-18.74839 0.82718,-3.30026 1.65437,-3.20806 2.48156,0.21278 0.82718,3.42084 1.65437,10.16877 2.48156,18.92534 0.82719,8.75657 1.65437,19.48529 2.48156,30.13532 0.82719,10.65004 1.65437,21.16439 2.48156,29.56155 0.82719,8.39715 1.65438,14.62192 2.48156,17.52976 0.82719,2.90784 1.65438,2.46676 2.48156,-1.19415 0.8272,-3.66098 1.65438,-10.5384 2.48158,-19.29099 0.82718,-8.75259 1.65436,-19.34318 2.48156,-29.74884 0.82718,-10.40566 1.65437,-20.57016 2.48156,-28.5794 0.82719,-8.00926 1.65437,-13.80992 2.48156,-16.33801 0.82719,-2.52809 1.65437,-1.75382 2.48156,2.13155 0.82719,3.88536 1.65438,10.87673 2.48156,19.61275 0.82719,8.73602 1.65438,19.17899 2.48156,29.33561 0.82719,10.15663 1.65438,19.9715 2.48157,27.59785 0.82718,7.62636 1.65437,13.01272 2.48156,15.17371 0.82718,2.16098 1.65438,1.06901 2.48156,-3.02545 0.82718,-4.09449 1.65438,-11.18468 2.48156,-19.8921 0.8272,-8.70743 1.65438,-18.9939 2.48157,-28.89739 0.82719,-9.9035 1.65437,-19.36948 2.48156,-26.6183 0.82719,-7.24882 1.65438,-12.23088 2.48156,-14.03741 0.82719,-1.80654 1.65438,-0.41206 2.48156,3.87654 0.82719,4.2886 1.65438,11.46302 2.48157,20.13038 0.82718,8.66735 1.65437,18.78906 2.48156,28.43588 0.82718,9.64682 1.65437,18.76512 2.48156,25.64208 0.82719,6.87697 1.65437,11.46484 2.48157,12.92951 0.82719,1.46474 1.65436,-0.21716 2.48156,-4.68529 0.82719,-4.46812 1.65438,-11.71268 2.48156,-20.32905 0.82719,-8.61638 1.65438,-18.56565 2.48156,-27.95278 0.82719,-9.38712 1.65438,-18.1594 2.48157,-24.67048 0.82718,-6.51109 1.65437,-10.71506 2.48156,-11.8505 0.82718,-1.13543 1.65437,0.81905 2.48156,5.45246 0.82719,4.63341 1.65437,11.93451 2.48156,20.48954 0.82719,8.55502 1.65437,18.32478 2.48156,27.44969 0.82719,9.12492 1.65439,17.55327 2.48156,23.70473 0.82719,6.15145 1.65439,9.98193 2.48157,10.80062 0.82719,0.81869 1.65438,-1.3938 2.48157,-6.17864 0.82718,-4.78482 1.65437,-12.12939 2.48156,-20.61323 0.82718,-8.48384 1.65437,-18.06755 2.48156,-26.92824 0.82718,-8.86068 1.65437,-16.94764 2.48156,-22.74596 0.82719,-5.79833 1.65437,-9.26577 2.48156,-9.78015 0.82719,-0.51439 1.65437,1.94178 2.48156,6.86452 0.82719,4.92274 1.65438,12.2982 2.48156,20.70155 0.8272,8.40334 1.65438,17.79504 2.48156,26.38994 0.8272,8.59491 1.65438,16.34335 2.48158,21.7953 0.82718,5.45194 1.65437,8.56693 2.48156,8.78936 0.82718,0.22242 1.65437,-2.46336 2.48156,-7.5109 0.82719,-5.04754 1.65437,-12.44182 2.48156,-20.75588 0.82719,-8.31405 1.65437,-17.5083 2.48156,-25.83633 0.82719,-8.32803 1.65438,-15.74124 2.48156,-20.85376 0.82719,-5.11252 1.65438,-7.88567 2.48156,-7.82838"
       title="pow(2,-0.01*x)*cos(x)"
       id="path8065" />
    <path
       id="path9086"
       title="pow(2,-0.01*x)"
       d="m 355.88909,760.35531 c 2.00985,0.20265 4.01973,0.40484 6.02958,0.6066 2.00986,0.20175 4.01973,0.40306 6.02959,0.60392 2.00985,0.20087 4.01972,0.4013 6.02957,0.60128 2.00985,0.19998 4.01973,0.39953 6.02958,0.59864 2.00985,0.19911 4.01973,0.39777 6.02958,0.596 2.00985,0.19824 4.01973,0.39603 6.02958,0.5934 2.00985,0.19736 4.01973,0.39429 6.02958,0.59079 2.00985,0.1965 4.01973,0.39256 6.02958,0.58819 2.00985,0.19564 4.01973,0.39084 6.02958,0.58562 2.00986,0.19477 4.01973,0.38912 6.02958,0.58304 2.00986,0.19392 4.01972,0.38741 6.02958,0.58049 2.00985,0.19307 4.01973,0.38571 6.02958,0.57793 2.00985,0.19223 4.01973,0.38402 6.02958,0.5754 2.00986,0.19138 4.01972,0.38234 6.02959,0.57288 2.00985,0.19053 4.01972,0.38065 6.02957,0.57035 2.00986,0.18971 4.01973,0.37899 6.02959,0.56786 2.00985,0.18887 4.01973,0.37732 6.02958,0.56536 2.00987,0.18804 4.01972,0.37567 6.02956,0.56288 2.00988,0.18722 4.01973,0.37402 6.02959,0.56041 2.00987,0.18639 4.01973,0.37238 6.02958,0.55795 2.00987,0.18558 4.01973,0.37074 6.02958,0.5555 2.00987,0.18476 4.01972,0.36912 6.02958,0.55307 2.00987,0.18395 4.01973,0.36749 6.02958,0.55063 2.00988,0.18315 4.01973,0.36588 6.02958,0.54822 2.00987,0.18234 4.01973,0.36427 6.02958,0.54581 2.00987,0.18154 4.01972,0.36267 6.02957,0.54342 2.00988,0.18074 4.01974,0.36108 6.02959,0.54103 2.00988,0.17994 4.01973,0.3595 6.02958,0.53865 2.00987,0.17916 4.01973,0.35792 6.02958,0.53629 2.00988,0.17837 4.01973,0.35635 6.02958,0.53394 2.00988,0.17759 4.01973,0.35479 6.02958,0.5316 2.00988,0.1768 4.01973,0.35322 6.02958,0.52925 2.00987,0.17604 4.01972,0.35168 6.02958,0.52694 2.00987,0.17526 4.01973,0.35013 6.02958,0.52462 2.00988,0.1745 4.01973,0.3486 6.02958,0.52233 2.00988,0.17372 4.01973,0.34706 6.02958,0.52003 2.00987,0.17295 4.01973,0.34554 6.02958,0.51774 2.00988,0.1722 4.01973,0.34402 6.02958,0.51547 2.00988,0.17145 4.01973,0.34252 6.02958,0.51321 2.00987,0.1707 4.01973,0.34101 6.02958,0.51096 2.00987,0.16995 4.01972,0.33952 6.02958,0.50872"
       style="fill:none;stroke:#0000ff;stroke-width:0.99999994;stroke-linecap:butt;stroke-linejoin:bevel;stroke-miterlimit:4;stroke-opacity:1;stroke-dasharray:5.99999993, 5.99999993;stroke-dashoffset:0"
       inkscape:connector-curvature="0"
       sodipodi:nodetypes="cssssssssssssssssssssssssssssssssssssssssc" />
    <path
       id="path9086-6"
       title="pow(2,-0.01*x)"
       d="m 355.76042,887.77423 c 2.00985,-0.20265 4.01973,-0.40484 6.02958,-0.6066 2.00985,-0.20175 4.01972,-0.40305 6.02958,-0.60392 2.00985,-0.20087 4.01973,-0.4013 6.02958,-0.60128 2.00985,-0.19998 4.01972,-0.39953 6.02957,-0.59864 2.00986,-0.19911 4.01973,-0.39777 6.02959,-0.596 2.00985,-0.19824 4.01972,-0.39603 6.02958,-0.5934 2.00985,-0.19736 4.01972,-0.39429 6.02957,-0.59079 2.00986,-0.19649 4.01973,-0.39256 6.02959,-0.58819 2.00985,-0.19564 4.01973,-0.39084 6.02958,-0.58562 2.00985,-0.19477 4.01972,-0.38912 6.02957,-0.58304 2.00986,-0.19392 4.01973,-0.38741 6.02958,-0.58049 2.00985,-0.19306 4.01973,-0.38571 6.02958,-0.57793 2.00986,-0.19223 4.01973,-0.38402 6.02959,-0.5754 2.00985,-0.19138 4.01972,-0.38234 6.02958,-0.57288 2.00985,-0.19053 4.01972,-0.38065 6.02957,-0.57035 2.00986,-0.18971 4.01973,-0.37899 6.02959,-0.56786 2.00985,-0.18887 4.01973,-0.37732 6.02958,-0.56536 2.00987,-0.18804 4.01972,-0.37566 6.02957,-0.56288 2.00988,-0.18722 4.01973,-0.37402 6.02958,-0.56041 2.00988,-0.18639 4.01973,-0.37238 6.02958,-0.55795 2.00988,-0.18557 4.01973,-0.37074 6.02958,-0.5555 2.00988,-0.18476 4.01973,-0.36912 6.02958,-0.55307 2.00988,-0.18394 4.01973,-0.36749 6.02958,-0.55063 2.00988,-0.18315 4.01973,-0.36588 6.02958,-0.54822 2.00988,-0.18234 4.01973,-0.36427 6.02958,-0.54581 2.00987,-0.18154 4.01973,-0.36267 6.02958,-0.54342 2.00988,-0.18074 4.01973,-0.36108 6.02958,-0.54103 2.00988,-0.17994 4.01973,-0.3595 6.02958,-0.53865 2.00987,-0.17916 4.01973,-0.35792 6.02958,-0.53629 2.00988,-0.17837 4.01973,-0.35635 6.02959,-0.53394 2.00987,-0.17759 4.01973,-0.35479 6.02958,-0.53159 2.00987,-0.17681 4.01973,-0.35323 6.02958,-0.52926 2.00986,-0.17604 4.01971,-0.35168 6.02958,-0.52694 2.00986,-0.17526 4.01972,-0.35013 6.02957,-0.52462 2.00988,-0.1745 4.01973,-0.3486 6.02958,-0.52233 2.00988,-0.17372 4.01973,-0.34706 6.02959,-0.52002 2.00986,-0.17296 4.01973,-0.34555 6.02958,-0.51775 2.00987,-0.1722 4.01972,-0.34402 6.02957,-0.51547 2.00988,-0.17145 4.01973,-0.34252 6.02959,-0.51321 2.00986,-0.1707 4.01972,-0.34101 6.02957,-0.51096 2.00987,-0.16995 4.01972,-0.33952 6.02958,-0.50872"
       style="fill:none;stroke:#0000ff;stroke-width:0.99999994;stroke-linecap:butt;stroke-linejoin:bevel;stroke-miterlimit:4;stroke-opacity:1;stroke-dasharray:5.99999993, 5.99999993;stroke-dashoffset:0"
       inkscape:connector-curvature="0"
       sodipodi:nodetypes="cssssssssssssssssssssssssssssssssssssssssc" />
  </g>
</svg>
