<?xml version="1.0" encoding="UTF-8" standalone="no"?>
<!-- Created with Inkscape (http://www.inkscape.org/) -->

<svg
   xmlns:dc="http://purl.org/dc/elements/1.1/"
   xmlns:cc="http://creativecommons.org/ns#"
   xmlns:rdf="http://www.w3.org/1999/02/22-rdf-syntax-ns#"
   xmlns:svg="http://www.w3.org/2000/svg"
   xmlns="http://www.w3.org/2000/svg"
   xmlns:sodipodi="http://sodipodi.sourceforge.net/DTD/sodipodi-0.dtd"
   xmlns:inkscape="http://www.inkscape.org/namespaces/inkscape"
   width="169.33998"
   height="82.079987"
   id="svg2"
   version="1.1"
   inkscape:version="0.48.2 r9819"
   sodipodi:docname="LC Circuit.svg">
  <sodipodi:namedview
     id="base"
     pagecolor="#ffffff"
     bordercolor="#666666"
     borderopacity="1.0"
     inkscape:pageopacity="0.0"
     inkscape:pageshadow="2"
     inkscape:zoom="2.5164332"
     inkscape:cx="25.418323"
     inkscape:cy="24.832581"
     inkscape:document-units="px"
     inkscape:current-layer="layer1"
     showgrid="false"
     inkscape:window-width="1366"
     inkscape:window-height="743"
     inkscape:window-x="0"
     inkscape:window-y="3"
     inkscape:window-maximized="1"
     fit-margin-top="0"
     fit-margin-left="0"
     fit-margin-right="0"
     fit-margin-bottom="0"
     inkscape:snap-object-midpoints="true"
     inkscape:snap-bbox="true"
     inkscape:snap-bbox-midpoints="true"
     inkscape:snap-global="false" />
  <defs
     id="defs4">
    <marker
       style="overflow:visible"
       id="Arrow1Mstart"
       refX="0"
       refY="0"
       orient="auto"
       inkscape:stockid="Arrow1Mstart">
      <path
         transform="matrix(0.4,0,0,0.4,4,0)"
         style="fill-rule:evenodd;stroke:#000000;stroke-width:1pt;marker-start:none"
         d="M 0,0 5,-5 -12.5,0 5,5 0,0 z"
         id="path3768"
         inkscape:connector-curvature="0" />
    </marker>
    <marker
       style="overflow:visible"
       id="Arrow1Mend"
       refX="0"
       refY="0"
       orient="auto"
       inkscape:stockid="Arrow1Mend">
      <path
         transform="matrix(-0.4,0,0,-0.4,-4,0)"
         style="fill-rule:evenodd;stroke:#000000;stroke-width:1pt;marker-start:none"
         d="M 0,0 5,-5 -12.5,0 5,5 0,0 z"
         id="path3771"
         inkscape:connector-curvature="0" />
    </marker>
    <marker
       style="overflow:visible"
       id="Arrow1Mend-4"
       refX="0"
       refY="0"
       orient="auto"
       inkscape:stockid="Arrow1Mend">
      <path
         transform="matrix(-0.4,0,0,-0.4,-4,0)"
         style="fill-rule:evenodd;stroke:#000000;stroke-width:1pt;marker-start:none"
         d="M 0,0 5,-5 -12.5,0 5,5 0,0 z"
         id="path3771-4"
         inkscape:connector-curvature="0" />
    </marker>
    <marker
       style="overflow:visible"
       id="Arrow1Mend-4-4"
       refX="0"
       refY="0"
       orient="auto"
       inkscape:stockid="Arrow1Mend">
      <path
         transform="matrix(-0.4,0,0,-0.4,-4,0)"
         style="fill-rule:evenodd;stroke:#000000;stroke-width:1pt;marker-start:none"
         d="M 0,0 5,-5 -12.5,0 5,5 0,0 z"
         id="path3771-4-6"
         inkscape:connector-curvature="0" />
    </marker>
    <marker
       style="overflow:visible"
       id="Arrow1Mend-4-43"
       refX="0"
       refY="0"
       orient="auto"
       inkscape:stockid="Arrow1Mend">
      <path
         transform="matrix(-0.4,0,0,-0.4,-4,0)"
         style="fill-rule:evenodd;stroke:#000000;stroke-width:1pt;marker-start:none"
         d="M 0,0 5,-5 -12.5,0 5,5 0,0 z"
         id="path3771-4-8"
         inkscape:connector-curvature="0" />
    </marker>
    <marker
       style="overflow:visible"
       id="Arrow1Mend-4V"
       refX="0"
       refY="0"
       orient="auto"
       inkscape:stockid="Arrow1Mend-4V">
      <path
         transform="matrix(-0.4,0,0,-0.4,-4,0)"
         style="fill:#0000ff;fill-rule:evenodd;stroke:#0000ff;stroke-width:1pt;marker-start:none"
         d="M 0,0 5,-5 -12.5,0 5,5 0,0 z"
         id="path6702"
         inkscape:connector-curvature="0" />
    </marker>
    <marker
       style="overflow:visible"
       id="Arrow1Mend-4m"
       refX="0"
       refY="0"
       orient="auto"
       inkscape:stockid="Arrow1Mend-4m">
      <path
         transform="matrix(-0.4,0,0,-0.4,-4,0)"
         style="fill:#0000ff;fill-rule:evenodd;stroke:#0000ff;stroke-width:1pt;marker-start:none"
         d="M 0,0 5,-5 -12.5,0 5,5 0,0 z"
         id="path6705"
         inkscape:connector-curvature="0" />
    </marker>
    <marker
       style="overflow:visible"
       id="Arrow1Mend-4B"
       refX="0"
       refY="0"
       orient="auto"
       inkscape:stockid="Arrow1Mend-4B">
      <path
         transform="matrix(-0.4,0,0,-0.4,-4,0)"
         style="fill:#0000ff;fill-rule:evenodd;stroke:#0000ff;stroke-width:1pt;marker-start:none"
         d="M 0,0 5,-5 -12.5,0 5,5 0,0 z"
         id="path6708"
         inkscape:connector-curvature="0" />
    </marker>
  </defs>
  <metadata
     id="metadata7">
    <rdf:RDF>
      <cc:Work
         rdf:about="">
        <dc:format>image/svg+xml</dc:format>
        <dc:type
           rdf:resource="http://purl.org/dc/dcmitype/StillImage" />
        <dc:title />
      </cc:Work>
    </rdf:RDF>
  </metadata>
  <g
     transform="translate(-105.03364,-753.65776)"
     id="layer1"
     inkscape:groupmode="layer"
     inkscape:label="Layer 1">
    <path
       id="path2164"
       d="m 118.59714,754.15776 0,33.56091"
       style="fill:none;stroke:#0000ff;stroke-width:0.99999994px;stroke-linecap:butt;stroke-linejoin:miter;stroke-opacity:1"
       inkscape:connector-curvature="0"
       sodipodi:nodetypes="cc" />
    <path
       id="path2166"
       d="m 131.66063,787.71867 -26.12699,0"
       style="fill:none;stroke:#0000ff;stroke-width:0.99999994px;stroke-linecap:butt;stroke-linejoin:miter;stroke-opacity:1"
       inkscape:connector-curvature="0" />
    <path
       id="path2168"
       d="m 131.66063,800.78234 -26.12699,0"
       style="fill:none;stroke:#0000ff;stroke-width:0.99999994px;stroke-linecap:butt;stroke-linejoin:miter;stroke-opacity:1"
       inkscape:connector-curvature="0" />
    <path
       id="path2170"
       d="m 118.15138,800.77679 -0.0416,34.46096"
       style="fill:none;stroke:#0000ff;stroke-width:0.99999994px;stroke-linecap:butt;stroke-linejoin:miter;stroke-opacity:1"
       inkscape:connector-curvature="0"
       sodipodi:nodetypes="cc" />
    <path
       sodipodi:nodetypes="ccc"
       id="path2241"
       d="m 175.37512,767.89312 c 24.73113,6.53184 0,13.06367 0,13.06367 l 0,0"
       style="fill:none;stroke:#0000ff;stroke-width:0.99999994px;stroke-linecap:butt;stroke-linejoin:miter;stroke-opacity:1"
       inkscape:connector-curvature="0" />
    <path
       sodipodi:nodetypes="ccc"
       id="path2243"
       d="m 175.37512,781.06565 c 24.73113,6.53184 0,13.06367 0,13.06367 l 0,0"
       style="fill:none;stroke:#0000ff;stroke-width:0.99999994px;stroke-linecap:butt;stroke-linejoin:miter;stroke-opacity:1"
       inkscape:connector-curvature="0" />
    <path
       sodipodi:nodetypes="ccc"
       id="path2245"
       d="m 175.37512,794.23818 c 24.73113,6.53183 0,13.06367 0,13.06367 l 0,0"
       style="fill:none;stroke:#0000ff;stroke-width:0.99999994px;stroke-linecap:butt;stroke-linejoin:miter;stroke-opacity:1"
       inkscape:connector-curvature="0" />
    <path
       sodipodi:nodetypes="ccc"
       id="path2247"
       d="m 175.37512,807.41071 c 24.73113,6.53183 0,13.06367 0,13.06367 l 0,0"
       style="fill:none;stroke:#0000ff;stroke-width:0.99999994px;stroke-linecap:butt;stroke-linejoin:miter;stroke-opacity:1"
       inkscape:connector-curvature="0" />
    <path
       id="path2249"
       d="m 175.39775,754.44689 0,13.80936"
       style="fill:none;stroke:#0000ff;stroke-width:1.10982311px;stroke-linecap:butt;stroke-linejoin:miter;stroke-opacity:1"
       inkscape:connector-curvature="0"
       sodipodi:nodetypes="cc" />
    <path
       id="path2251"
       d="m 175.37512,820.14779 0,15.08876"
       style="fill:none;stroke:#0000ff;stroke-width:0.99999994px;stroke-linecap:butt;stroke-linejoin:miter;stroke-opacity:1"
       inkscape:connector-curvature="0"
       sodipodi:nodetypes="cc" />
    <path
       inkscape:connector-curvature="0"
       id="path3153"
       d="m 118.27219,754.26782 57.48543,0"
       style="fill:none;stroke:#0000ff;stroke-width:0.99999994px;stroke-linecap:butt;stroke-linejoin:miter;stroke-opacity:1" />
    <path
       inkscape:connector-curvature="0"
       id="path3155"
       d="m 175.16039,834.90932 -56.74828,0"
       style="fill:none;stroke:#0000ff;stroke-width:0.99999994px;stroke-linecap:butt;stroke-linejoin:miter;stroke-opacity:1" />
    <g
       id="g4016"
       transform="matrix(1.3578323,0,0,1.3578323,156.73832,760.68353)">
      <g
         word-spacing="normal"
         letter-spacing="normal"
         font-size-adjust="none"
         font-stretch="normal"
         font-weight="normal"
         font-variant="normal"
         font-style="normal"
         stroke-miterlimit="10.433"
         xml:space="preserve"
         transform="matrix(0.17822021,0,0,-0.17822021,-31.188537,93.847898)"
         id="content"
         style="font-style:normal;font-variant:normal;font-weight:normal;font-stretch:normal;letter-spacing:normal;word-spacing:normal;text-anchor:start;fill:none;stroke:#000000;stroke-width:0.73646796;stroke-linecap:butt;stroke-linejoin:miter;stroke-miterlimit:10.43299961;stroke-opacity:1;stroke-dasharray:none;stroke-dashoffset:0"><path
           id="path4019"
           d="m 467.55,419.04 0,0.11 -0.01,0.12 -0.01,0.11 -0.02,0.11 -0.03,0.11 -0.03,0.11 -0.04,0.11 -0.04,0.11 -0.04,0.11 -0.05,0.11 -0.06,0.1 -0.06,0.1 -0.07,0.1 -0.07,0.1 -0.07,0.09 -0.08,0.09 -0.08,0.09 -0.09,0.08 -0.09,0.08 -0.1,0.07 -0.1,0.07 -0.1,0.07 -0.11,0.06 -0.11,0.06 -0.12,0.05 -0.12,0.04 -0.12,0.04 -0.13,0.03 -0.13,0.02 -0.13,0.02 -0.13,0.01 -0.14,0.01 c -1.39,0 -2.5,-1.1 -2.5,-2.49 0,-1.4 1.11,-2.5 2.5,-2.5 1.5,0 2.48,1.3 2.48,2.5 z"
           inkscape:connector-curvature="0"
           style="fill:#000000;stroke-width:0" /><path
           id="path4021"
           d="m 477.18,419.04 -0.01,0.13 -0.01,0.13 -0.01,0.13 -0.02,0.12 -0.03,0.12 -0.03,0.12 -0.04,0.11 -0.05,0.12 -0.05,0.11 -0.05,0.11 -0.06,0.1 -0.06,0.1 -0.07,0.1 -0.08,0.09 -0.07,0.09 -0.09,0.09 -0.08,0.08 -0.09,0.08 -0.1,0.07 -0.1,0.07 -0.1,0.06 -0.1,0.06 -0.11,0.06 -0.11,0.04 -0.11,0.05 -0.12,0.04 -0.12,0.03 -0.12,0.03 -0.13,0.02 -0.12,0.01 -0.13,0.01 -0.13,0.01 c -1.49,0 -2.49,-1.3 -2.49,-2.49 0,-1.2 1,-2.5 2.49,-2.5 1.4,0 2.5,1.1 2.5,2.5 z"
           inkscape:connector-curvature="0"
           style="fill:#000000;stroke-width:0" /><path
           id="path4023"
           d="m 478.83,406.73 0,0.12 -0.01,0.13 0,0.12 -0.01,0.11 0,0.12 -0.01,0.11 -0.02,0.11 -0.01,0.1 -0.03,0.21 -0.04,0.19 -0.04,0.18 -0.05,0.18 -0.05,0.16 -0.06,0.16 -0.06,0.15 -0.07,0.13 -0.07,0.13 -0.07,0.12 -0.08,0.12 -0.08,0.1 -0.08,0.1 -0.09,0.09 -0.09,0.08 -0.09,0.07 -0.09,0.07 -0.09,0.06 -0.09,0.05 -0.09,0.05 -0.09,0.04 -0.1,0.03 -0.09,0.03 -0.09,0.03 -0.09,0.01 -0.09,0.02 -0.08,0 -0.09,0 c -1.25,0 -2.44,-1.29 -2.44,-2.39 0,-0.64 0.25,-0.93 0.8,-1.48 1.05,-1 1.69,-2.3 1.69,-4.09 0,-2.1 -3.03,-13.5 -8.86,-13.5 -2.55,0 -3.69,1.75 -3.69,4.32 0,2.8 1.34,6.44 2.89,10.57 0.35,0.86 0.59,1.54 0.59,2.5 0,2.23 -1.59,4.07 -4.09,4.07 -4.67,0 -6.58,-7.21 -6.58,-7.67 0,-0.5 0.5,-0.5 0.61,-0.5 0.5,0 0.55,0.11 0.8,0.91 1.44,5.03 3.58,6.17 5.03,6.17 0.39,0 1.25,0 1.25,-1.59 0,-1.25 -0.5,-2.6 -0.86,-3.49 -2.19,-5.78 -2.83,-8.08 -2.83,-10.22 0,-5.37 4.38,-6.17 6.67,-6.17 8.38,0 11.21,16.49 11.21,19.08 z"
           inkscape:connector-curvature="0"
           style="fill:#000000;stroke-width:0" /><path
           id="path4025"
           d="m 529.59,404.5 0.14,0 0.14,0 0.15,0 0.07,0.01 0.07,0 0.08,0.01 0.07,0.01 0.07,0.01 0.07,0.01 0.06,0.01 0.07,0.02 0.07,0.02 0.06,0.02 0.06,0.02 0.06,0.03 0.05,0.03 0.06,0.04 0.05,0.03 0.04,0.05 0.05,0.04 0.04,0.05 0.02,0.03 0.01,0.03 0.02,0.02 0.01,0.03 0.02,0.03 0.01,0.04 0.01,0.03 0.01,0.04 0.01,0.03 0.01,0.04 0.01,0.04 0.01,0.04 0,0.04 0,0.04 0.01,0.04 0,0.05 c 0,1 -0.96,1 -1.64,1 h -29.85 c -0.7,0 -1.64,0 -1.64,-1 0,-0.98 0.94,-0.98 1.69,-0.98 z"
           inkscape:connector-curvature="0"
           style="fill:#000000;stroke-width:0" /><path
           id="path4027"
           d="m 529.64,394.82 0.06,0 0.07,0 0.13,0.01 0.14,0 0.07,0 0.07,0.01 0.07,0.01 0.07,0 0.07,0.01 0.07,0.02 0.06,0.01 0.07,0.02 0.06,0.02 0.06,0.02 0.06,0.02 0.06,0.03 0.06,0.03 0.05,0.04 0.05,0.04 0.04,0.04 0.05,0.05 0.02,0.02 0.02,0.03 0.02,0.02 0.01,0.03 0.02,0.03 0.01,0.03 0.02,0.03 0.01,0.03 0.01,0.04 0.01,0.03 0.01,0.04 0.01,0.04 0.01,0.04 0.01,0.04 0,0.04 0,0.04 0.01,0.05 0,0.04 c 0,1 -0.96,1 -1.69,1 h -29.75 c -0.75,0 -1.69,0 -1.69,-1 0,-1 0.94,-1 1.64,-1 z"
           inkscape:connector-curvature="0"
           style="fill:#000000;stroke-width:0" /><path
           id="path4029"
           d="m 580.74,399.65 0.16,0 0.16,0 0.15,0.01 0.08,0 0.08,0.01 0.07,0 0.08,0.01 0.07,0.01 0.07,0.01 0.07,0.02 0.07,0.02 0.07,0.02 0.06,0.02 0.06,0.02 0.06,0.03 0.05,0.03 0.06,0.04 0.05,0.03 0.04,0.05 0.04,0.04 0.04,0.05 0.02,0.03 0.02,0.03 0.01,0.03 0.02,0.03 0.01,0.03 0.02,0.03 0.01,0.04 0.01,0.03 0.01,0.04 0,0.04 0.01,0.04 0.01,0.04 0,0.04 0.01,0.04 0,0.05 0,0.04 c 0,1 -0.91,1 -1.75,1 h -26.96 c -0.84,0 -1.73,0 -1.73,-1 0,-1 0.89,-1 1.73,-1 z"
           inkscape:connector-curvature="0"
           style="fill:#000000;stroke-width:0" /><path
           id="path4031"
           d="m 630.54,456.55 0,0.01 0,0.02 0,0.02 -0.01,0.01 0,0.02 0,0.02 -0.01,0.02 0,0.02 -0.01,0.02 -0.01,0.02 -0.01,0.02 0,0.02 -0.02,0.02 -0.01,0.03 -0.01,0.02 -0.01,0.02 -0.02,0.02 -0.02,0.01 -0.02,0.02 -0.02,0.02 -0.02,0.02 -0.02,0.01 -0.03,0.02 -0.02,0.01 -0.03,0.01 -0.01,0.01 -0.02,0 -0.01,0.01 -0.02,0 -0.02,0.01 -0.01,0 -0.02,0.01 -0.02,0 -0.02,0 -0.02,0 -0.02,0 -0.02,0.01 -0.02,0 -0.02,0 c -0.14,0 -0.2,-0.05 -0.75,-0.6 l -3.48,-3.84 c -0.44,0.7 -2.74,4.44 -8.27,4.44 -11.11,0 -22.33,-11.02 -22.33,-22.57 0,-8.23 5.89,-13.65 13.52,-13.65 4.33,0 8.11,1.98 10.75,4.28 4.64,4.09 5.48,8.62 5.48,8.77 0,0.5 -0.5,0.5 -0.59,0.5 -0.3,0 -0.55,-0.1 -0.66,-0.5 -0.43,-1.44 -1.59,-4.99 -5.03,-7.88 -3.43,-2.78 -6.58,-3.62 -9.15,-3.62 -4.49,0 -9.77,2.59 -9.77,10.35 0,2.85 1.05,10.91 6.02,16.74 3.04,3.55 7.73,6.03 12.15,6.03 5.1,0 8.03,-3.83 8.03,-9.61 0,-2 -0.15,-2.05 -0.15,-2.55 0,-0.5 0.54,-0.5 0.75,-0.5 0.64,0 0.64,0.11 0.89,1 z"
           inkscape:connector-curvature="0"
           style="fill:#000000;stroke-width:0" /><polyline
           id="polyline4033"
           points="593,400 632.24,400 632.24,402.04 593,402.04 "
           style="fill:#000000;fill-rule:nonzero;stroke-width:0" /><path
           id="path4035"
           d="m 613.96,384.26 0.04,0.17 0.04,0.15 0.04,0.15 0.04,0.15 0.04,0.14 0.05,0.13 0.05,0.12 0.05,0.12 0.06,0.11 0.07,0.1 0.07,0.1 0.08,0.09 0.09,0.09 0.1,0.08 0.11,0.08 0.12,0.07 0.13,0.06 0.15,0.06 0.16,0.06 0.18,0.05 0.09,0.02 0.1,0.02 0.1,0.02 0.11,0.02 0.11,0.02 0.12,0.02 0.12,0.02 0.12,0.01 0.13,0.02 0.14,0.01 0.14,0.01 0.14,0.01 0.15,0.01 0.16,0.01 0.16,0.01 0.17,0.01 0.17,0 0.18,0.01 0.18,0 0.2,0.01 0.19,0 0.21,0 0.21,0 0.21,0.01 c 1.49,0 1.89,0 1.89,0.95 0,0.59 -0.54,0.59 -0.79,0.59 -1.66,0 -5.74,-0.15 -7.38,-0.15 -1.5,0 -5.14,0.15 -6.62,0.15 -0.36,0 -0.96,0 -0.96,-1 0,-0.54 0.46,-0.54 1.39,-0.54 0.11,0 1.05,0 1.91,-0.1 0.89,-0.11 1.34,-0.15 1.34,-0.8 0,-0.2 -0.06,-0.35 -0.2,-0.95 l -6.67,-26.75 c -0.5,-1.95 -0.61,-2.34 -4.55,-2.34 -0.84,0 -1.34,0 -1.34,-1 0,-0.55 0.45,-0.55 1.34,-0.55 h 23.08 c 1.19,0 1.23,0 1.55,0.84 l 3.92,10.77 c 0.2,0.55 0.2,0.64 0.2,0.7 0,0.19 -0.14,0.55 -0.59,0.55 -0.46,0 -0.5,-0.25 -0.85,-1.05 -1.7,-4.59 -3.89,-10.26 -12.51,-10.26 h -4.67 c -0.71,0 -0.8,0 -1.1,0.04 -0.5,0.05 -0.65,0.1 -0.65,0.5 0,0.15 0,0.25 0.25,1.15 z"
           inkscape:connector-curvature="0"
           style="fill:#000000;stroke-width:0" /><path
           id="path4037"
           d="m 661.11,406.73 0,0.12 0,0.13 -0.01,0.12 0,0.11 -0.01,0.12 -0.01,0.11 -0.01,0.11 -0.01,0.1 -0.04,0.21 -0.03,0.19 -0.05,0.18 -0.04,0.18 -0.06,0.16 -0.06,0.16 -0.06,0.15 -0.06,0.13 -0.07,0.13 -0.08,0.12 -0.08,0.12 -0.08,0.1 -0.08,0.1 -0.08,0.09 -0.09,0.08 -0.09,0.07 -0.09,0.07 -0.09,0.06 -0.09,0.05 -0.1,0.05 -0.09,0.04 -0.09,0.03 -0.09,0.03 -0.09,0.03 -0.09,0.01 -0.09,0.02 -0.09,0 -0.08,0 c -1.25,0 -2.44,-1.29 -2.44,-2.39 0,-0.64 0.25,-0.93 0.79,-1.48 1.05,-1 1.69,-2.3 1.69,-4.09 0,-2.1 -3.03,-13.5 -8.86,-13.5 -2.54,0 -3.68,1.75 -3.68,4.32 0,2.8 1.34,6.44 2.89,10.57 0.34,0.86 0.59,1.54 0.59,2.5 0,2.23 -1.59,4.07 -4.09,4.07 -4.67,0 -6.58,-7.21 -6.58,-7.67 0,-0.5 0.5,-0.5 0.61,-0.5 0.5,0 0.55,0.11 0.8,0.91 1.43,5.03 3.57,6.17 5.03,6.17 0.39,0 1.25,0 1.25,-1.59 0,-1.25 -0.5,-2.6 -0.86,-3.49 -2.19,-5.78 -2.83,-8.08 -2.83,-10.22 0,-5.37 4.37,-6.17 6.67,-6.17 8.37,0 11.2,16.49 11.2,19.08 z"
           inkscape:connector-curvature="0"
           style="fill:#000000;stroke-width:0" /></g>    </g>
  </g>
</svg>
