<?xml version="1.0" encoding="UTF-8" standalone="no"?>
<!-- Created with Inkscape (http://www.inkscape.org/) -->

<svg
   xmlns:dc="http://purl.org/dc/elements/1.1/"
   xmlns:cc="http://creativecommons.org/ns#"
   xmlns:rdf="http://www.w3.org/1999/02/22-rdf-syntax-ns#"
   xmlns:svg="http://www.w3.org/2000/svg"
   xmlns="http://www.w3.org/2000/svg"
   xmlns:sodipodi="http://sodipodi.sourceforge.net/DTD/sodipodi-0.dtd"
   xmlns:inkscape="http://www.inkscape.org/namespaces/inkscape"
   sodipodi:docname="small Q.svg"
   inkscape:version="0.48.2 r9819"
   version="1.1"
   id="svg2"
   height="158.80278"
   width="294.89093">
  <sodipodi:namedview
     id="base"
     pagecolor="#ffffff"
     bordercolor="#666666"
     borderopacity="1.0"
     inkscape:pageopacity="0.0"
     inkscape:pageshadow="2"
     inkscape:zoom="1.8807187"
     inkscape:cx="150.47854"
     inkscape:cy="47.572606"
     inkscape:document-units="px"
     inkscape:current-layer="layer1"
     showgrid="false"
     inkscape:window-width="1366"
     inkscape:window-height="721"
     inkscape:window-x="0"
     inkscape:window-y="21"
     inkscape:window-maximized="1"
     fit-margin-top="0"
     fit-margin-left="0"
     fit-margin-right="0"
     fit-margin-bottom="0" />
  <defs
     id="defs4">
    <marker
       inkscape:stockid="StopM"
       orient="auto"
       refY="0"
       refX="0"
       id="StopM"
       style="overflow:visible">
      <path
         id="path4128"
         d="M 0,5.65 0,-5.65"
         style="fill:none;stroke:#000000;stroke-width:1pt"
         transform="scale(0.4,0.4)"
         inkscape:connector-curvature="0" />
    </marker>
    <marker
       style="overflow:visible"
       id="StopL"
       refX="0"
       refY="0"
       orient="auto"
       inkscape:stockid="StopL">
      <path
         transform="scale(0.8,0.8)"
         style="fill:none;stroke:#000000;stroke-width:1pt"
         d="M 0,5.65 0,-5.65"
         id="path3932"
         inkscape:connector-curvature="0" />
    </marker>
    <marker
       inkscape:stockid="DistanceEnd"
       orient="auto"
       refY="0"
       refX="0"
       id="DistanceEnd"
       style="overflow:visible">
      <g
         id="g3818">
        <path
           id="path2316"
           d="M 0,0 -2,0"
           style="fill:none;stroke:#ffffff;stroke-width:1.14999998;stroke-linecap:square"
           inkscape:connector-curvature="0" />
        <path
           id="path2312"
           d="M 0,0 -13,4 -9,0 -13,-4 0,0 z"
           style="fill:#000000;fill-rule:evenodd;stroke:none"
           inkscape:connector-curvature="0" />
        <path
           id="path2314"
           d="M 0,-4 0,40"
           style="fill:none;stroke:#000000;stroke-width:1;stroke-linecap:square"
           inkscape:connector-curvature="0" />
      </g>
    </marker>
    <marker
       inkscape:stockid="DistanceStart"
       orient="auto"
       refY="0"
       refX="0"
       id="DistanceStart"
       style="overflow:visible">
      <g
         id="g2300">
        <path
           id="path2306"
           d="M 0,0 2,0"
           style="fill:none;stroke:#ffffff;stroke-width:1.14999998;stroke-linecap:square"
           inkscape:connector-curvature="0" />
        <path
           id="path2302"
           d="M 0,0 13,4 9,0 13,-4 0,0 z"
           style="fill:#000000;fill-rule:evenodd;stroke:none"
           inkscape:connector-curvature="0" />
        <path
           id="path2304"
           d="M 0,-4 0,40"
           style="fill:none;stroke:#000000;stroke-width:1;stroke-linecap:square"
           inkscape:connector-curvature="0" />
      </g>
    </marker>
    <marker
       style="overflow:visible"
       id="Arrow2Mstart"
       refX="0"
       refY="0"
       orient="auto"
       inkscape:stockid="Arrow2Mstart">
      <path
         transform="scale(0.6,0.6)"
         d="M 8.7185878,4.0337352 -2.2072895,0.01601326 8.7185884,-4.0017078 c -1.7454984,2.3720609 -1.7354408,5.6174519 -6e-7,8.035443 z"
         style="font-size:12px;fill-rule:evenodd;stroke-width:0.625;stroke-linejoin:round"
         id="path3786"
         inkscape:connector-curvature="0" />
    </marker>
    <marker
       style="overflow:visible"
       id="Arrow1Sstart"
       refX="0"
       refY="0"
       orient="auto"
       inkscape:stockid="Arrow1Sstart">
      <path
         transform="matrix(0.2,0,0,0.2,1.2,0)"
         style="fill-rule:evenodd;stroke:#000000;stroke-width:1pt;marker-start:none"
         d="M 0,0 5,-5 -12.5,0 5,5 0,0 z"
         id="path3774"
         inkscape:connector-curvature="0" />
    </marker>
    <marker
       style="overflow:visible"
       id="Arrow2Sstart"
       refX="0"
       refY="0"
       orient="auto"
       inkscape:stockid="Arrow2Sstart">
      <path
         transform="matrix(0.3,0,0,0.3,-0.69,0)"
         d="M 8.7185878,4.0337352 -2.2072895,0.01601326 8.7185884,-4.0017078 c -1.7454984,2.3720609 -1.7354408,5.6174519 -6e-7,8.035443 z"
         style="font-size:12px;fill-rule:evenodd;stroke-width:0.625;stroke-linejoin:round"
         id="path3792"
         inkscape:connector-curvature="0" />
    </marker>
    <marker
       style="overflow:visible"
       id="Arrow2Mend"
       refX="0"
       refY="0"
       orient="auto"
       inkscape:stockid="Arrow2Mend">
      <path
         transform="scale(-0.6,-0.6)"
         d="M 8.7185878,4.0337352 -2.2072895,0.01601326 8.7185884,-4.0017078 c -1.7454984,2.3720609 -1.7354408,5.6174519 -6e-7,8.035443 z"
         style="font-size:12px;fill-rule:evenodd;stroke-width:0.625;stroke-linejoin:round"
         id="path3789"
         inkscape:connector-curvature="0" />
    </marker>
    <marker
       style="overflow:visible"
       id="Arrow2Mstartw"
       refX="0"
       refY="0"
       orient="auto"
       inkscape:stockid="Arrow2Mstartw">
      <path
         transform="scale(0.6,0.6)"
         d="M 8.7185878,4.0337352 -2.2072895,0.01601326 8.7185884,-4.0017078 c -1.7454984,2.3720609 -1.7354408,5.6174519 -6e-7,8.035443 z"
         style="font-size:12px;fill:#0000ff;fill-rule:evenodd;stroke:#0000ff;stroke-width:0.625;stroke-linejoin:round"
         id="path7255"
         inkscape:connector-curvature="0" />
    </marker>
    <marker
       style="overflow:visible"
       id="Arrow2MendM"
       refX="0"
       refY="0"
       orient="auto"
       inkscape:stockid="Arrow2MendM">
      <path
         transform="scale(-0.6,-0.6)"
         d="M 8.7185878,4.0337352 -2.2072895,0.01601326 8.7185884,-4.0017078 c -1.7454984,2.3720609 -1.7354408,5.6174519 -6e-7,8.035443 z"
         style="font-size:12px;fill:#0000ff;fill-rule:evenodd;stroke:#0000ff;stroke-width:0.625;stroke-linejoin:round"
         id="path7598"
         inkscape:connector-curvature="0" />
    </marker>
    <marker
       style="overflow:visible"
       id="StopLQ"
       refX="0"
       refY="0"
       orient="auto"
       inkscape:stockid="StopLQ">
      <path
         transform="scale(0.8,0.8)"
         style="fill:none;stroke:#0000ff;stroke-width:1pt"
         d="M 0,5.65 0,-5.65"
         id="path16328"
         inkscape:connector-curvature="0" />
    </marker>
    <marker
       style="overflow:visible"
       id="StopLg"
       refX="0"
       refY="0"
       orient="auto"
       inkscape:stockid="StopLg">
      <path
         transform="scale(0.8,0.8)"
         style="fill:none;stroke:#0000ff;stroke-width:1pt"
         d="M 0,5.65 0,-5.65"
         id="path16331"
         inkscape:connector-curvature="0" />
    </marker>
    <marker
       inkscape:stockid="StopM2"
       orient="auto"
       refY="0"
       refX="0"
       id="StopM2"
       style="overflow:visible">
      <path
         id="path4668"
         d="M 0,5.65 0,-5.65"
         style="fill:none;stroke:#ff0000;stroke-width:1pt"
         transform="scale(0.4,0.4)"
         inkscape:connector-curvature="0" />
    </marker>
    <marker
       inkscape:stockid="StopMi"
       orient="auto"
       refY="0"
       refX="0"
       id="StopMi"
       style="overflow:visible">
      <path
         id="path4671"
         d="M 0,5.65 0,-5.65"
         style="fill:none;stroke:#ff0000;stroke-width:1pt"
         transform="scale(0.4,0.4)"
         inkscape:connector-curvature="0" />
    </marker>
    <marker
       inkscape:stockid="StopM9"
       orient="auto"
       refY="0"
       refX="0"
       id="StopM9"
       style="overflow:visible">
      <path
         id="path4674"
         d="M 0,5.65 0,-5.65"
         style="fill:none;stroke:#ff0000;stroke-width:1pt"
         transform="scale(0.4,0.4)"
         inkscape:connector-curvature="0" />
    </marker>
    <marker
       inkscape:stockid="StopMt"
       orient="auto"
       refY="0"
       refX="0"
       id="StopMt"
       style="overflow:visible">
      <path
         id="path4677"
         d="M 0,5.65 0,-5.65"
         style="fill:none;stroke:#ff0000;stroke-width:1pt"
         transform="scale(0.4,0.4)"
         inkscape:connector-curvature="0" />
    </marker>
    <marker
       inkscape:stockid="StopM4"
       orient="auto"
       refY="0"
       refX="0"
       id="StopM4"
       style="overflow:visible">
      <path
         id="path4680"
         d="M 0,5.65 0,-5.65"
         style="fill:none;stroke:#ff0000;stroke-width:1pt"
         transform="scale(0.4,0.4)"
         inkscape:connector-curvature="0" />
    </marker>
    <marker
       inkscape:stockid="StopMk"
       orient="auto"
       refY="0"
       refX="0"
       id="StopMk"
       style="overflow:visible">
      <path
         id="path4683"
         d="M 0,5.65 0,-5.65"
         style="fill:none;stroke:#ff0000;stroke-width:1pt"
         transform="scale(0.4,0.4)"
         inkscape:connector-curvature="0" />
    </marker>
    <marker
       inkscape:stockid="StopMX"
       orient="auto"
       refY="0"
       refX="0"
       id="StopMX"
       style="overflow:visible">
      <path
         id="path4686"
         d="M 0,5.65 0,-5.65"
         style="fill:none;stroke:#ff0000;stroke-width:1pt"
         transform="scale(0.4,0.4)"
         inkscape:connector-curvature="0" />
    </marker>
    <marker
       inkscape:stockid="StopMK"
       orient="auto"
       refY="0"
       refX="0"
       id="StopMK"
       style="overflow:visible">
      <path
         id="path4689"
         d="M 0,5.65 0,-5.65"
         style="fill:none;stroke:#ff0000;stroke-width:1pt"
         transform="scale(0.4,0.4)"
         inkscape:connector-curvature="0" />
    </marker>
    <marker
       inkscape:stockid="StopM9"
       orient="auto"
       refY="0"
       refX="0"
       id="StopM9-6"
       style="overflow:visible">
      <path
         inkscape:connector-curvature="0"
         id="path4674-9"
         d="M 0,5.65 0,-5.65"
         style="fill:none;stroke:#ff0000;stroke-width:1pt"
         transform="scale(0.4,0.4)" />
    </marker>
    <marker
       inkscape:stockid="StopMt"
       orient="auto"
       refY="0"
       refX="0"
       id="StopMt-1"
       style="overflow:visible">
      <path
         inkscape:connector-curvature="0"
         id="path4677-0"
         d="M 0,5.65 0,-5.65"
         style="fill:none;stroke:#ff0000;stroke-width:1pt"
         transform="scale(0.4,0.4)" />
    </marker>
  </defs>
  <metadata
     id="metadata7">
    <rdf:RDF>
      <cc:Work
         rdf:about="">
        <dc:format>image/svg+xml</dc:format>
        <dc:type
           rdf:resource="http://purl.org/dc/dcmitype/StillImage" />
        <dc:title />
      </cc:Work>
    </rdf:RDF>
  </metadata>
  <g
     transform="translate(-320.41959,-732.29455)"
     id="layer1"
     inkscape:groupmode="layer"
     inkscape:label="Layer 1">
    <path
       inkscape:connector-curvature="0"
       id="path2987"
       d="m 337.19258,733.80642 0,156.79091"
       style="fill:none;stroke:#0000ff;stroke-width:1px;stroke-linecap:butt;stroke-linejoin:miter;stroke-opacity:1;marker-start:url(#Arrow2Mstartw)" />
    <path
       inkscape:connector-curvature="0"
       id="path2989"
       d="m 329.11656,814.4984 284.68209,0"
       style="fill:none;stroke:#0000ff;stroke-width:1px;stroke-linecap:butt;stroke-linejoin:miter;stroke-opacity:1;marker-end:url(#Arrow2MendM)" />
    <g
       transform="matrix(0.43197526,0,0,0.43178131,229.17254,635.72016)"
       id="g4959">
      <g
         style="font-style:normal;font-variant:normal;font-weight:normal;font-stretch:normal;letter-spacing:normal;word-spacing:normal;text-anchor:start;fill:none;stroke:#000000;stroke-width:2.31546736;stroke-linecap:butt;stroke-linejoin:miter;stroke-miterlimit:10.43299961;stroke-opacity:1;stroke-dasharray:none;stroke-dashoffset:0"
         id="content"
         transform="matrix(0.74915631,0,0,-0.74915631,-131.10235,558.07086)"
         xml:space="preserve"
         stroke-miterlimit="10.433"
         font-style="normal"
         font-variant="normal"
         font-weight="normal"
         font-stretch="normal"
         font-size-adjust="none"
         letter-spacing="normal"
         word-spacing="normal"><path
           style="fill:#000000;stroke-width:0"
           inkscape:connector-curvature="0"
           d="m 479.74,425.18 0.01,0.04 0.01,0.03 0.01,0.06 0.02,0.05 0.01,0.06 0.01,0.05 0.02,0.04 0.01,0.05 0.01,0.04 0.01,0.04 0,0.04 0.01,0.04 0.01,0.04 0.01,0.03 0,0.03 0.01,0.03 0,0.03 0.01,0.03 0,0.03 0.01,0.05 0,0.06 0,0.05 0,0.05 0.01,0.05 0,0.03 0,0.03 0,0.03 0,0.03 c 0,0.91 -0.69,1.35 -1.44,1.35 -0.5,0 -1.3,-0.3 -1.75,-1.05 -0.1,-0.25 -0.5,-1.78 -0.69,-2.69 -0.36,-1.29 -0.7,-2.64 -1,-3.98 l -2.25,-8.97 c -0.19,-0.75 -2.33,-4.23 -5.62,-4.23 -2.54,0 -3.1,2.18 -3.1,4.03 0,2.29 0.86,5.39 2.55,9.76 0.8,2.05 1,2.6 1,3.6 0,2.23 -1.59,4.07 -4.09,4.07 -4.74,0 -6.58,-7.21 -6.58,-7.67 0,-0.5 0.5,-0.5 0.61,-0.5 0.5,0 0.54,0.11 0.79,0.91 1.35,4.69 3.33,6.17 5.03,6.17 0.4,0 1.25,0 1.25,-1.59 0,-1.25 -0.5,-2.53 -0.85,-3.49 -1.99,-5.28 -2.9,-8.12 -2.9,-10.47 0,-4.42 3.15,-5.92 6.08,-5.92 1.96,0 3.64,0.85 5.03,2.24 -0.64,-2.58 -1.23,-5.03 -3.23,-7.68 -1.3,-1.68 -3.19,-3.14 -5.48,-3.14 -0.69,0 -2.94,0.16 -3.79,2.1 0.8,0 1.46,0 2.14,0.61 0.5,0.43 1,1.09 1,2.03 0,1.55 -1.34,1.75 -1.84,1.75 -1.14,0 -2.8,-0.8 -2.8,-3.24 0,-2.5 2.21,-4.34 5.29,-4.34 5.14,0 10.26,4.55 11.67,10.17 z"
           id="path4962" /></g>    </g>
    <g
       id="g5002"
       transform="matrix(0.43197526,0,0,0.43178131,514.35483,725.54959)">
      <g
         word-spacing="normal"
         letter-spacing="normal"
         font-size-adjust="none"
         font-stretch="normal"
         font-weight="normal"
         font-variant="normal"
         font-style="normal"
         stroke-miterlimit="10.433"
         xml:space="preserve"
         transform="matrix(0.74915631,0,0,-0.74915631,-131.10235,558.07086)"
         id="g5004"
         style="font-style:normal;font-variant:normal;font-weight:normal;font-stretch:normal;letter-spacing:normal;word-spacing:normal;text-anchor:start;fill:none;stroke:#000000;stroke-width:2.31546736;stroke-linecap:butt;stroke-linejoin:miter;stroke-miterlimit:10.43299961;stroke-opacity:1;stroke-dasharray:none;stroke-dashoffset:0"><path
           id="path5006"
           d="m 465.79,426.12 h 4.68 c 0.99,0 1.49,0 1.49,1 0,0.55 -0.5,0.55 -1.39,0.55 h -4.39 c 1.79,7.08 2.04,8.08 2.04,8.37 0,0.85 -0.59,1.35 -1.43,1.35 -0.16,0 -1.55,-0.05 -2,-1.8 l -1.94,-7.92 h -4.69 c -1,0 -1.5,0 -1.5,-0.94 0,-0.61 0.41,-0.61 1.41,-0.61 h 4.37 c -3.58,-14.14 -3.78,-14.98 -3.78,-15.89 0,-2.69 1.89,-4.58 4.58,-4.58 5.08,0 7.92,7.27 7.92,7.67 0,0.5 -0.39,0.5 -0.59,0.5 -0.46,0 -0.5,-0.15 -0.75,-0.7 -2.14,-5.17 -4.78,-6.37 -6.47,-6.37 -1.05,0 -1.55,0.65 -1.55,2.29 0,1.19 0.09,1.55 0.3,2.39 z"
           inkscape:connector-curvature="0"
           style="fill:#000000;stroke-width:0" /></g>    </g>
    <path
       inkscape:connector-curvature="0"
       style="fill:none;stroke:#0000ff;stroke-width:0.99999994;stroke-linecap:butt;stroke-linejoin:bevel;stroke-miterlimit:4;stroke-opacity:1;stroke-dasharray:none;stroke-dashoffset:0"
       d="m 337.19807,745.29265 c 0.82282,2.03453 1.64564,8.7279 2.46846,18.17304 0.82281,9.44513 1.64563,21.57597 2.46845,33.80795 0.82282,12.23199 1.64564,24.50268 2.46845,34.62243 0.82283,10.11976 1.64564,18.04426 2.46846,22.71153 0.82282,4.66727 1.64564,6.06431 2.46846,4.46115 0.82281,-1.60316 1.64563,-6.18852 2.46845,-12.46721 0.82282,-6.27868 1.64564,-14.21324 2.46845,-22.12914 0.82283,-7.91591 1.64564,-15.77304 2.46846,-22.18258 0.82282,-6.40955 1.64563,-11.3437 2.46846,-14.15846 0.82281,-2.81475 1.64563,-3.50276 2.46845,-2.27889 0.82282,1.22387 1.64564,4.34715 2.46845,8.51281 0.82283,4.16566 1.64564,9.34915 2.46846,14.46667 0.82282,5.11752 1.64563,10.14331 2.46846,14.19759 0.82281,4.05429 1.64563,7.11968 2.46845,8.80753 0.82282,1.68786 1.64564,1.99413 2.46845,1.08343 0.82282,-0.9107 1.64563,-3.02976 2.46846,-5.78846 0.82282,-2.7587 1.64564,-6.14094 2.46846,-9.44598 0.8228,-3.30504 1.64563,-6.51635 2.46844,-9.07736 0.82283,-2.56101 1.64564,-4.46085 2.46847,-5.46631 0.82281,-1.00546 1.64562,-1.11437 2.46845,-0.44954 0.82281,0.66483 1.64564,2.09748 2.46845,3.92127 0.82281,1.82378 1.64564,4.02814 2.46845,6.16046 0.82282,2.13233 1.64564,4.18204 2.46846,5.79749 0.82282,1.61545 1.64563,2.78987 2.46845,3.38423 0.82282,0.59435 1.64564,0.60752 2.46846,0.12934 0.82282,-0.47818 1.64564,-1.44368 2.46845,-2.64741 0.82282,-1.20372 1.64564,-2.63878 2.46846,-4.01311 0.82282,-1.37434 1.64564,-2.68118 2.46845,-3.69869 0.82282,-1.0175 1.64564,-1.74145 2.46846,-2.08958 0.82282,-0.34813 1.64563,-0.31991 2.46846,0.02 0.82281,0.33987 1.64563,0.98864 2.46845,1.78188 0.82282,0.79323 1.64564,1.72642 2.46845,2.61132 0.82282,0.8849 1.64564,1.71718 2.46846,2.35708 0.82282,0.63989 1.64563,1.0848 2.46846,1.28645 0.82281,0.20167 1.64563,0.15987 2.46845,-0.0793 0.82281,-0.23922 1.64564,-0.674 2.46845,-1.19594 0.82282,-0.52194 1.64564,-1.12812 2.46846,-1.69732 0.82282,-0.56919 1.64563,-1.09863 2.46845,-1.5004 0.82282,-0.40177 1.64564,-0.67427 2.46846,-0.78948 0.82281,-0.11523 1.64564,-0.0731 2.46845,0.0939 0.82282,0.167 1.64564,0.45765 2.46846,0.80059 0.82282,0.34295 1.64563,0.73629 2.46845,1.10204 0.82282,0.36575 1.64564,0.70215 2.46846,0.95398 0.82281,0.25183 1.64564,0.4181 2.46845,0.48279 0.82282,0.0647 1.64564,0.0278 2.46846,-0.088 0.82282,-0.11579 1.64563,-0.30962 2.46845,-0.53465 0.82282,-0.22503 1.64564,-0.47999 2.46846,-0.71477 0.82282,-0.23478 1.64563,-0.44827 2.46845,-0.60583 0.82282,-0.15757 1.64564,-0.25861 2.46846,-0.2941 0.82282,-0.0355 1.64564,-0.006 2.46845,0.0743 0.82282,0.0798 1.64564,0.20879 2.46846,0.35625 0.82282,0.14745 1.64563,0.31254 2.46846,0.46311 0.82281,0.15056 1.64563,0.28587 2.46845,0.38426 0.82281,0.0984 1.64564,0.15951 2.46845,0.17837 0.82282,0.0189 1.64564,-0.004 2.46846,-0.0592 0.82282,-0.0547 1.64563,-0.14039 2.46845,-0.23689 0.82282,-0.0965 1.64563,-0.20329 2.46846,-0.29974 0.82281,-0.0964 1.64564,-0.1821 2.46845,-0.24343 0.82282,-0.0613 1.64564,-0.0981 2.46845,-0.10765 0.82283,-0.01 1.64564,0.008 2.46846,0.0454 0.82282,0.0373 1.64564,0.0941 2.46846,0.1572 0.82281,0.0631 1.64564,0.13208 2.46844,0.19381 0.82283,0.0617 1.64564,0.11586 2.46847,0.154 0.82281,0.0381 1.64563,0.0601 2.46845,0.0646 0.82281,0.004 1.64564,-0.008 2.46845,-0.0338 0.82282,-0.0254 1.64564,-0.063 2.46845,-0.10414 0.82283,-0.0412 1.64564,-0.0857 2.46846,-0.12518 0.82282,-0.0395 1.64563,-0.0736 2.46846,-0.0973 0.82281,-0.0237 1.64563,-0.0367 2.46845,-0.0385 0.82282,-0.002 1.64564,0.008 2.46845,0.0248 0.82283,0.0172 1.64564,0.042 2.46846,0.0689 0.82282,0.0269 1.64564,0.0556 2.46846,0.0808 0.82281,0.0252 1.64563,0.0467 2.46845,0.0614 0.82282,0.0146 1.64564,0.0223 2.46846,0.0228 0.82281,4e-4 1.64563,-0.006 2.46845,-0.0179 0.82282,-0.0116 1.64564,-0.028 2.46846,-0.0455 0.82281,-0.0175 1.64563,-0.036 2.46845,-0.0521 0.82282,-0.0161 1.64564,-0.0297 2.46846,-0.0387 0.82281,-0.009 1.64563,-0.0135 2.46845,-0.0134 0.82282,1.5e-4 1.64564,0.005 2.46845,0.0127 0.82283,0.008 1.64564,0.0186 2.46846,0.03 0.82282,0.0114 1.64564,0.0233 2.46846,0.0335 0.82281,0.0102 1.64563,0.0188 2.46845,0.0243 0.82282,0.006 1.64564,0.008 2.46845,0.008 0.82283,-3.9e-4 1.64564,-0.004 2.46846,-0.009 0.82282,-0.005 1.64563,-0.0123 2.46846,-0.0197 0.82281,-0.007 1.64563,-0.0151 2.46845,-0.0215 0.82282,-0.007 1.64564,-0.0118 2.46845,-0.0153 0.82283,-0.003 1.64564,-0.005 2.46846,-0.004 0.82282,4e-4 1.64563,0.003 2.46846,0.006 0.82281,0.004 1.64563,0.008 2.46845,0.013 0.82282,0.005 1.64564,0.01 2.46845,0.0139 0.82282,0.004 1.64564,0.007 2.46846,0.01 0.82282,0.002 1.64564,0.003 2.46846,0.002 0.82281,-4e-4 1.64563,-0.002 2.46845,-0.004 0.82282,-0.002 1.64564,-0.006 2.46846,-0.009 0.82281,-0.003 1.64563,-0.006 2.46845,-0.009 0.82282,-0.002 1.64564,-0.005 2.46845,-0.006 0.82282,-10e-4 1.64564,-0.002 2.46846,-10e-4"
       title="pow(2,-0.2*x)*cos(x)"
       id="path8608" />
    <path
       id="path8738"
       title="pow(2,-0.2*x)"
       d="m 337.06948,743.73947 c 0.82983,2.0755 1.65965,4.05984 2.48948,5.9607 0.82983,1.90085 1.65965,3.7179 2.48948,5.45866 0.82983,1.74076 1.65965,3.40477 2.48948,4.99891 0.82983,1.59415 1.65965,3.11801 2.48948,4.57789 0.82982,1.45988 1.65965,2.85539 2.48948,4.19232 0.82983,1.33693 1.65965,2.6149 2.48948,3.83923 0.82982,1.22432 1.65965,2.39466 2.48948,3.51587 0.82982,1.1212 1.65965,2.19297 2.48948,3.21975 0.82982,1.02677 1.65965,2.00827 2.48948,2.94857 0.82982,0.94029 1.65965,1.83913 2.48948,2.70023 0.82982,0.8611 1.65965,1.68423 2.48948,2.47281 0.82982,0.78857 1.65965,1.54238 2.48948,2.26454 0.82982,0.72216 1.65964,1.41247 2.48947,2.07381 0.82983,0.66133 1.65965,1.29351 2.48948,1.89914 0.82982,0.60564 1.65965,1.18457 2.48948,1.7392 0.82983,0.55462 1.65966,1.0848 2.48948,1.59271 0.82983,0.50791 1.65966,0.99343 2.48948,1.45857 0.82983,0.46513 1.65966,0.90975 2.48948,1.33572 0.82983,0.42595 1.65965,0.83313 2.48948,1.22322 0.82983,0.39008 1.65966,0.76297 2.48947,1.12019 0.82983,0.35724 1.65966,0.69871 2.48949,1.02586 0.82983,0.32714 1.65965,0.63985 2.48947,0.93944 0.82983,0.29959 1.65966,0.58597 2.48949,0.86033 0.82982,0.27435 1.65965,0.53661 2.48947,0.78786 0.82983,0.25125 1.65966,0.49142 2.48948,0.72151 0.82983,0.23009 1.65966,0.45003 2.48949,0.66074 0.82983,0.21071 1.65965,0.41213 2.48948,0.60509 0.82983,0.19296 1.65965,0.37742 2.48947,0.55413 0.82983,0.17671 1.65966,0.34563 2.48949,0.50745 0.82983,0.16183 1.65964,0.31652 2.48947,0.46472 0.82983,0.1482 1.65966,0.28986 2.48949,0.42558 0.82982,0.13571 1.65964,0.26545 2.48947,0.38973 0.82983,0.12429 1.65966,0.2431 2.48948,0.35691 0.82983,0.11381 1.65965,0.22262 2.48948,0.32684 0.82983,0.10424 1.65965,0.20387 2.48948,0.29932 0.82983,0.0955 1.65965,0.1867 2.48948,0.27412 0.82982,0.0874 1.65965,0.17097 2.48948,0.25102 0.82983,0.0801 1.65965,0.15657 2.48948,0.22988 0.82982,0.0733 1.65965,0.14338 2.48948,0.21052 0.82982,0.0671 1.65965,0.1313 2.48948,0.19279 0.82982,0.0615 1.65965,0.12025 2.48948,0.17655 0.82982,0.0563 1.65965,0.11012 2.48948,0.16168 0.82982,0.0516 1.65965,0.10085 2.48948,0.14806 0.82982,0.0472 1.65965,0.0924 2.48947,0.1356 0.82983,0.0432 1.65966,0.0846 2.48949,0.12417 0.82982,0.0396 1.65964,0.0774 2.48947,0.11371 0.82983,0.0362 1.65966,0.0709 2.48948,0.10414 0.82983,0.0332 1.65966,0.065 2.48948,0.0954 0.82983,0.0304 1.65966,0.0594 2.48948,0.0873 0.82983,0.0279 1.65966,0.0545 2.48948,0.08 0.82983,0.0255 1.65966,0.0499 2.48948,0.0733 0.82983,0.0233 1.65966,0.0457 2.48948,0.0671 0.82983,0.0214 1.65966,0.0418 2.48948,0.0614 0.82983,0.0195 1.65965,0.0383 2.48948,0.0562 0.82983,0.0179 1.65966,0.0351 2.48948,0.0515 0.82982,0.0164 1.65965,0.0322 2.48948,0.0472 0.82983,0.015 1.65965,0.0294 2.48947,0.0432 0.82983,0.0138 1.65966,0.0269 2.48949,0.0395 0.82982,0.0126 1.65965,0.0247 2.48948,0.0362 0.82983,0.0115 1.65965,0.0226 2.48947,0.0332 0.82983,0.0105 1.65966,0.0207 2.48949,0.0304 0.82983,0.01 1.65964,0.0189 2.48947,0.0278 0.82983,0.009 1.65966,0.0174 2.48949,0.0254 0.82982,0.008 1.65964,0.0159 2.48947,0.0233 0.82983,0.007 1.65966,0.0146 2.48948,0.0213 0.82983,0.007 1.65965,0.0133 2.48948,0.0196 0.82983,0.006 1.65965,0.0122 2.48948,0.0179 0.82983,0.006 1.65965,0.0112 2.48948,0.0164 0.82983,0.005 1.65966,0.0102 2.48949,0.015 0.82982,0.005 1.65964,0.009 2.48947,0.0138 0.82983,0.004 1.65966,0.009 2.48949,0.0126 0.82981,0.004 1.65964,0.008 2.48947,0.0115 0.82983,0.004 1.65966,0.007 2.48948,0.0106 0.82982,0.003 1.65965,0.007 2.48948,0.01 0.82982,0.003 1.65965,0.006 2.48948,0.009 0.82982,0.003 1.65965,0.006 2.48948,0.008 0.82982,0.002 1.65965,0.005 2.48948,0.007 0.82982,0.002 1.65965,0.004 2.48948,0.007 0.82982,0.002 1.65965,0.004 2.48947,0.006 0.82983,0.002 1.65966,0.004 2.48948,0.006 0.82983,0.002 1.65966,0.004 2.48948,0.005 0.82983,0.002 1.65966,0.003 2.48948,0.005 0.82983,0.002 1.65966,0.003 2.48948,0.004 0.82983,0.001 1.65966,0.002 2.48948,0.004 0.82983,10e-4 1.65966,0.002 2.48948,0.004 0.82983,10e-4 1.65965,0.002 2.48948,0.003 0.82983,10e-4 1.65966,0.002 2.48948,0.003 0.82982,10e-4 1.65965,0.002 2.48948,0.003 0.82983,6.2e-4 1.65965,0.002 2.48947,0.002 0.82983,6.2e-4 1.65966,0.002 2.48949,0.002 0.82983,6.2e-4 1.65965,10e-4 2.48948,0.002 0.82983,6.2e-4 1.65965,10e-4 2.48948,0.002 0.82983,5.5e-4 1.65965,0.001 2.48948,0.002 0.82983,5.6e-4 1.65965,10e-4 2.48948,0.002 0.82983,5.5e-4 1.65965,0.001 2.48948,0.002 0.82982,5.4e-4 1.65965,6.2e-4 2.48948,10e-4 0.82983,5.5e-4 1.65964,6.2e-4 2.48947,10e-4 0.82983,2.8e-4 1.65966,6.2e-4 2.48949,10e-4 0.82982,2.7e-4 1.65964,6.2e-4 2.48947,0.001"
       style="fill:none;stroke:#0000ff;stroke-width:1;stroke-linecap:butt;stroke-linejoin:bevel;stroke-miterlimit:4;stroke-opacity:1;stroke-dasharray:5.99999998, 5.99999998;stroke-dashoffset:0"
       inkscape:connector-curvature="0" />
    <path
       id="path8738-9"
       title="pow(2,-0.2*x)"
       d="m 337.55696,885.25849 c 0.82983,-2.0755 1.65965,-4.05984 2.48947,-5.9607 0.82983,-1.90085 1.65966,-3.7179 2.48949,-5.45866 0.82983,-1.74075 1.65964,-3.40477 2.48947,-4.99891 0.82983,-1.59415 1.65966,-3.118 2.48949,-4.57789 0.82982,-1.45987 1.65965,-2.85539 2.48948,-4.19231 0.82982,-1.33693 1.65965,-2.61491 2.48948,-3.83923 0.82982,-1.22433 1.65965,-2.39466 2.48948,-3.51587 0.82982,-1.1212 1.65965,-2.19297 2.48948,-3.21975 0.82982,-1.02677 1.65965,-2.00828 2.48947,-2.94857 0.82983,-0.9403 1.65966,-1.83914 2.48949,-2.70023 0.82982,-0.86111 1.65964,-1.68424 2.48947,-2.47281 0.82983,-0.78858 1.65966,-1.54238 2.48949,-2.26454 0.82981,-0.72216 1.65964,-1.41248 2.48947,-2.07381 0.82983,-0.66134 1.65965,-1.29351 2.48948,-1.89915 0.82982,-0.60563 1.65965,-1.18456 2.48948,-1.73919 0.82983,-0.55463 1.65966,-1.0848 2.48948,-1.59271 0.82983,-0.50791 1.65966,-0.99344 2.48948,-1.45857 0.82983,-0.46513 1.65966,-0.90976 2.48948,-1.33572 0.82983,-0.42596 1.65965,-0.83314 2.48948,-1.22322 0.82983,-0.39009 1.65965,-0.76297 2.48947,-1.1202 0.82983,-0.35723 1.65966,-0.6987 2.48949,-1.02585 0.82982,-0.32714 1.65965,-0.63986 2.48947,-0.93945 0.82983,-0.29958 1.65966,-0.58597 2.48948,-0.86032 0.82983,-0.27436 1.65966,-0.53662 2.48948,-0.78787 0.82983,-0.25125 1.65966,-0.49142 2.48948,-0.72151 0.82983,-0.23009 1.65966,-0.45003 2.48949,-0.66074 0.82983,-0.21071 1.65964,-0.41213 2.48947,-0.60509 0.82983,-0.19296 1.65966,-0.37741 2.48948,-0.55412 0.82983,-0.17671 1.65965,-0.34563 2.48948,-0.50746 0.82983,-0.16182 1.65965,-0.31652 2.48948,-0.46472 0.82983,-0.14819 1.65965,-0.28986 2.48948,-0.42557 0.82983,-0.13572 1.65965,-0.26545 2.48948,-0.38974 0.82983,-0.12428 1.65965,-0.24309 2.48948,-0.3569 0.82983,-0.11382 1.65965,-0.22262 2.48948,-0.32685 0.82983,-0.10423 1.65965,-0.20387 2.48948,-0.29932 0.82983,-0.0954 1.65965,-0.1867 2.48948,-0.27411 0.82982,-0.0874 1.65965,-0.17097 2.48948,-0.25102 0.82983,-0.0801 1.65965,-0.15658 2.48948,-0.22988 0.82982,-0.0733 1.65965,-0.14339 2.48948,-0.21052 0.82982,-0.0671 1.65965,-0.13131 2.48948,-0.19279 0.82982,-0.0615 1.65965,-0.12025 2.48948,-0.17655 0.82982,-0.0563 1.65965,-0.11012 2.48948,-0.16168 0.82982,-0.0516 1.65965,-0.10085 2.48948,-0.14807 0.82982,-0.0472 1.65965,-0.0924 2.48947,-0.13559 0.82983,-0.0433 1.65965,-0.0846 2.48948,-0.12418 0.82983,-0.0396 1.65965,-0.0774 2.48948,-0.11371 0.82982,-0.0362 1.65965,-0.0709 2.48948,-0.10414 0.82983,-0.0332 1.65966,-0.065 2.48948,-0.0954 0.82983,-0.0304 1.65966,-0.0595 2.48948,-0.0873 0.82983,-0.0279 1.65966,-0.0545 2.48948,-0.08 0.82983,-0.0255 1.65965,-0.0499 2.48948,-0.0732 0.82983,-0.0233 1.65966,-0.0457 2.48947,-0.0671 0.82983,-0.0214 1.65966,-0.0418 2.48949,-0.0614 0.82983,-0.0196 1.65965,-0.0383 2.48947,-0.0562 0.82983,-0.0179 1.65966,-0.0351 2.48949,-0.0515 0.82982,-0.0164 1.65965,-0.0321 2.48947,-0.0472 0.82983,-0.015 1.65966,-0.0294 2.48948,-0.0432 0.82983,-0.0138 1.65966,-0.0269 2.48948,-0.0395 0.82983,-0.0126 1.65966,-0.0247 2.48949,-0.0362 0.82983,-0.0115 1.65965,-0.0226 2.48947,-0.0332 0.82983,-0.0105 1.65966,-0.0207 2.48949,-0.0304 0.82983,-0.01 1.65964,-0.0189 2.48947,-0.0278 0.82983,-0.009 1.65966,-0.0174 2.48949,-0.0255 0.82982,-0.008 1.65964,-0.0159 2.48947,-0.0233 0.82983,-0.007 1.65966,-0.0146 2.48948,-0.0213 0.82983,-0.007 1.65965,-0.0133 2.48948,-0.0196 0.82983,-0.006 1.65965,-0.0122 2.48948,-0.0179 0.82983,-0.006 1.65965,-0.0112 2.48948,-0.0164 0.82982,-0.005 1.65965,-0.0102 2.48948,-0.015 0.82983,-0.005 1.65965,-0.009 2.48948,-0.0138 0.82982,-0.004 1.65965,-0.009 2.48948,-0.0126 0.82982,-0.004 1.65965,-0.008 2.48948,-0.0115 0.82982,-0.004 1.65965,-0.007 2.48948,-0.0106 0.82982,-0.003 1.65965,-0.007 2.48948,-0.01 0.82982,-0.003 1.65965,-0.006 2.48948,-0.009 0.82982,-0.003 1.65965,-0.006 2.48947,-0.008 0.82983,-0.002 1.65966,-0.005 2.48949,-0.007 0.82982,-0.002 1.65964,-0.004 2.48947,-0.007 0.82983,-0.002 1.65966,-0.004 2.48948,-0.006 0.82983,-0.002 1.65966,-0.004 2.48948,-0.006 0.82983,-0.002 1.65966,-0.004 2.48948,-0.005 0.82983,-0.002 1.65966,-0.003 2.48948,-0.005 0.82983,-0.002 1.65966,-0.003 2.48948,-0.004 0.82983,-10e-4 1.65966,-0.002 2.48948,-0.004 0.82983,-0.001 1.65966,-0.002 2.48948,-0.004 0.82983,-10e-4 1.65965,-0.002 2.48948,-0.003 0.82983,-10e-4 1.65966,-0.002 2.48948,-0.003 0.82982,-10e-4 1.65965,-0.002 2.48948,-0.003 0.82983,-6.2e-4 1.65965,-0.002 2.48947,-0.002 0.82983,-6.2e-4 1.65966,-0.002 2.48949,-0.002 0.82982,-6.2e-4 1.65965,-10e-4 2.48948,-0.002 0.82983,-6.3e-4 1.65965,-0.001 2.48947,-0.002 0.82983,-5.4e-4 1.65966,-10e-4 2.48949,-0.002 0.82983,-5.5e-4 1.65964,-10e-4 2.48947,-0.002 0.82983,-5.5e-4 1.65966,-10e-4 2.48949,-0.002 0.82982,-5.5e-4 1.65964,-6.2e-4 2.48947,-10e-4 0.82983,-5.6e-4 1.65965,-6.2e-4 2.48948,-10e-4 0.82983,-2.8e-4 1.65965,-6.2e-4 2.48948,-0.001 0.82983,-2.7e-4 1.65965,-6.2e-4 2.48948,-10e-4"
       style="fill:none;stroke:#0000ff;stroke-width:1;stroke-linecap:butt;stroke-linejoin:bevel;stroke-miterlimit:4;stroke-opacity:1;stroke-dasharray:5.99999998, 5.99999998;stroke-dashoffset:0"
       inkscape:connector-curvature="0" />
  </g>
</svg>
