<?xml version="1.0" encoding="UTF-8" standalone="no"?>
<!-- Created with Inkscape (http://www.inkscape.org/) -->

<svg
   xmlns:dc="http://purl.org/dc/elements/1.1/"
   xmlns:cc="http://creativecommons.org/ns#"
   xmlns:rdf="http://www.w3.org/1999/02/22-rdf-syntax-ns#"
   xmlns:svg="http://www.w3.org/2000/svg"
   xmlns="http://www.w3.org/2000/svg"
   xmlns:sodipodi="http://sodipodi.sourceforge.net/DTD/sodipodi-0.dtd"
   xmlns:inkscape="http://www.inkscape.org/namespaces/inkscape"
   width="191.60854"
   height="114.39713"
   id="svg2"
   version="1.1"
   inkscape:version="0.48.2 r9819"
   sodipodi:docname="tilted spinning wheel.svg">
  <sodipodi:namedview
     id="base"
     pagecolor="#ffffff"
     bordercolor="#666666"
     borderopacity="1.0"
     inkscape:pageopacity="0.0"
     inkscape:pageshadow="2"
     inkscape:zoom="4.3091374"
     inkscape:cx="106.62004"
     inkscape:cy="64.614712"
     inkscape:document-units="px"
     inkscape:current-layer="layer1"
     showgrid="false"
     showguides="true"
     inkscape:guide-bbox="true"
     inkscape:snap-bbox="true"
     inkscape:bbox-paths="true"
     inkscape:bbox-nodes="true"
     inkscape:snap-bbox-edge-midpoints="true"
     inkscape:object-paths="true"
     inkscape:snap-intersection-paths="true"
     inkscape:object-nodes="true"
     inkscape:snap-smooth-nodes="true"
     inkscape:snap-midpoints="true"
     inkscape:snap-object-midpoints="true"
     inkscape:snap-center="true"
     inkscape:snap-global="false"
     inkscape:window-width="1366"
     inkscape:window-height="743"
     inkscape:window-x="0"
     inkscape:window-y="3"
     inkscape:window-maximized="1"
     fit-margin-top="0"
     fit-margin-left="0"
     fit-margin-right="0"
     fit-margin-bottom="0" />
  <defs
     id="defs4">
    <marker
       style="overflow:visible"
       id="Arrow1Sstart"
       refX="0"
       refY="0"
       orient="auto"
       inkscape:stockid="Arrow1Sstart">
      <path
         transform="matrix(0.2,0,0,0.2,1.2,0)"
         style="fill-rule:evenodd;stroke:#000000;stroke-width:1pt;marker-start:none"
         d="M 0,0 5,-5 -12.5,0 5,5 0,0 z"
         id="path6299"
         inkscape:connector-curvature="0" />
    </marker>
    <marker
       style="overflow:visible"
       id="Arrow1Mend"
       refX="0"
       refY="0"
       orient="auto"
       inkscape:stockid="Arrow1Mend">
      <path
         transform="matrix(-0.4,0,0,-0.4,-4,0)"
         style="fill-rule:evenodd;stroke:#000000;stroke-width:1pt;marker-start:none"
         d="M 0,0 5,-5 -12.5,0 5,5 0,0 z"
         id="path3771"
         inkscape:connector-curvature="0" />
    </marker>
    <marker
       style="overflow:visible"
       id="DotS"
       refX="0"
       refY="0"
       orient="auto"
       inkscape:stockid="DotS">
      <path
         transform="matrix(0.2,0,0,0.2,1.48,0.2)"
         style="fill-rule:evenodd;stroke:#000000;stroke-width:1pt;marker-start:none;marker-end:none"
         d="m -2.5,-1 c 0,2.76 -2.24,5 -5,5 -2.76,0 -5,-2.24 -5,-5 0,-2.76 2.24,-5 5,-5 2.76,0 5,2.24 5,5 z"
         id="path3830"
         inkscape:connector-curvature="0" />
    </marker>
    <marker
       style="overflow:visible"
       id="DotM"
       refX="0"
       refY="0"
       orient="auto"
       inkscape:stockid="DotM">
      <path
         transform="matrix(0.4,0,0,0.4,2.96,0.4)"
         style="fill-rule:evenodd;stroke:#000000;stroke-width:1pt;marker-start:none;marker-end:none"
         d="m -2.5,-1 c 0,2.76 -2.24,5 -5,5 -2.76,0 -5,-2.24 -5,-5 0,-2.76 2.24,-5 5,-5 2.76,0 5,2.24 5,5 z"
         id="path3827"
         inkscape:connector-curvature="0" />
    </marker>
    <marker
       orient="auto"
       refY="0"
       refX="0"
       id="InfiniteLineStart"
       inkscape:stockid="InfiniteLineStart"
       style="overflow:visible">
      <g
         transform="translate(-13,0)"
         id="g4007">
        <circle
           cx="3"
           cy="0"
           r="0.80000001"
           id="circle4009"
           d="M 3.8,0 C 3.8,0.44182781 3.4418278,0.80000001 3,0.80000001 2.5581722,0.80000001 2.2,0.44182781 2.2,0 c 0,-0.44182781 0.3581722,-0.80000001 0.8,-0.80000001 0.4418278,0 0.8,0.3581722 0.8,0.80000001 z"
           sodipodi:cx="3"
           sodipodi:cy="0"
           sodipodi:rx="0.80000001"
           sodipodi:ry="0.80000001" />
        <circle
           cx="6.5"
           cy="0"
           r="0.80000001"
           id="circle4011"
           d="M 7.3,0 C 7.3,0.44182781 6.9418278,0.80000001 6.5,0.80000001 6.0581722,0.80000001 5.7,0.44182781 5.7,0 c 0,-0.44182781 0.3581722,-0.80000001 0.8,-0.80000001 0.4418278,0 0.8,0.3581722 0.8,0.80000001 z"
           sodipodi:cx="6.5"
           sodipodi:cy="0"
           sodipodi:rx="0.80000001"
           sodipodi:ry="0.80000001" />
        <circle
           cx="10"
           cy="0"
           r="0.80000001"
           id="circle4013"
           d="M 10.8,0 C 10.8,0.44182781 10.441828,0.80000001 10,0.80000001 9.5581722,0.80000001 9.2,0.44182781 9.2,0 c 0,-0.44182781 0.3581722,-0.80000001 0.8,-0.80000001 0.441828,0 0.8,0.3581722 0.8,0.80000001 z"
           sodipodi:cx="10"
           sodipodi:cy="0"
           sodipodi:rx="0.80000001"
           sodipodi:ry="0.80000001" />
      </g>
    </marker>
    <marker
       style="overflow:visible"
       id="DotL"
       refX="0"
       refY="0"
       orient="auto"
       inkscape:stockid="DotL">
      <path
         transform="matrix(0.8,0,0,0.8,5.92,0.8)"
         style="fill-rule:evenodd;stroke:#000000;stroke-width:1pt;marker-start:none;marker-end:none"
         d="m -2.5,-1 c 0,2.76 -2.24,5 -5,5 -2.76,0 -5,-2.24 -5,-5 0,-2.76 2.24,-5 5,-5 2.76,0 5,2.24 5,5 z"
         id="path3824"
         inkscape:connector-curvature="0" />
    </marker>
    <inkscape:path-effect
       is_visible="true"
       id="path-effect5386"
       effect="spiro" />
    <inkscape:path-effect
       is_visible="true"
       id="path-effect5378"
       effect="spiro" />
    <inkscape:path-effect
       is_visible="true"
       id="path-effect5374"
       effect="spiro" />
    <inkscape:path-effect
       is_visible="true"
       id="path-effect5370"
       effect="spiro" />
    <inkscape:path-effect
       is_visible="true"
       id="path-effect5366"
       effect="spiro" />
    <inkscape:path-effect
       is_visible="true"
       id="path-effect5344"
       effect="spiro" />
    <marker
       inkscape:stockid="StopM"
       orient="auto"
       refY="0"
       refX="0"
       id="StopM"
       style="overflow:visible">
      <path
         id="path3935"
         d="M 0,5.65 0,-5.65"
         style="fill:none;stroke:#000000;stroke-width:1pt"
         transform="scale(0.4,0.4)"
         inkscape:connector-curvature="0" />
    </marker>
    <marker
       style="overflow:visible"
       id="DistanceEnd"
       refX="0"
       refY="0"
       orient="auto"
       inkscape:stockid="DistanceEnd">
      <g
         id="g3818">
        <path
           style="fill:none;stroke:#ffffff;stroke-width:1.14999998;stroke-linecap:square"
           d="M 0,0 -2,0"
           id="path2316"
           inkscape:connector-curvature="0" />
        <path
           style="fill:#000000;fill-rule:evenodd;stroke:none"
           d="M 0,0 -13,4 -9,0 -13,-4 0,0 z"
           id="path2312"
           inkscape:connector-curvature="0" />
        <path
           style="fill:none;stroke:#000000;stroke-width:1;stroke-linecap:square"
           d="M 0,-4 0,40"
           id="path2314"
           inkscape:connector-curvature="0" />
      </g>
    </marker>
    <marker
       inkscape:stockid="Arrow1Lstart"
       orient="auto"
       refY="0"
       refX="0"
       id="Arrow1Lstart"
       style="overflow:visible">
      <path
         id="path3762"
         d="M 0,0 5,-5 -12.5,0 5,5 0,0 z"
         style="fill-rule:evenodd;stroke:#000000;stroke-width:1pt;marker-start:none"
         transform="matrix(0.8,0,0,0.8,10,0)"
         inkscape:connector-curvature="0" />
    </marker>
    <marker
       style="overflow:visible"
       id="Arrow1Send"
       refX="0"
       refY="0"
       orient="auto"
       inkscape:stockid="Arrow1Send">
      <path
         inkscape:connector-curvature="0"
         transform="matrix(-0.2,0,0,-0.2,-1.2,0)"
         style="fill-rule:evenodd;stroke:#000000;stroke-width:1pt;marker-start:none"
         d="M 0,0 5,-5 -12.5,0 5,5 0,0 z"
         id="path3777" />
    </marker>
    <marker
       style="overflow:visible"
       id="Arrow1SendD"
       refX="0"
       refY="0"
       orient="auto"
       inkscape:stockid="Arrow1SendD">
      <path
         inkscape:connector-curvature="0"
         transform="matrix(-0.2,0,0,-0.2,-1.2,0)"
         style="fill:#ff0000;fill-rule:evenodd;stroke:#ff0000;stroke-width:1pt;marker-start:none"
         d="M 0,0 5,-5 -12.5,0 5,5 0,0 z"
         id="path4348" />
    </marker>
    <marker
       inkscape:stockid="StopMZ"
       orient="auto"
       refY="0"
       refX="0"
       id="StopMZ"
       style="overflow:visible">
      <path
         id="path5267"
         d="M 0,5.65 0,-5.65"
         style="fill:none;stroke:#ff0000;stroke-width:1pt"
         transform="scale(0.4,0.4)"
         inkscape:connector-curvature="0" />
    </marker>
    <marker
       style="overflow:visible"
       id="Arrow1SendDC"
       refX="0"
       refY="0"
       orient="auto"
       inkscape:stockid="Arrow1SendDC">
      <path
         inkscape:connector-curvature="0"
         transform="matrix(-0.2,0,0,-0.2,-1.2,0)"
         style="fill:#ff0000;fill-rule:evenodd;stroke:#ff0000;stroke-width:1pt;marker-start:none"
         d="M 0,0 5,-5 -12.5,0 5,5 0,0 z"
         id="path5270" />
    </marker>
    <marker
       style="overflow:visible"
       id="Arrow1SendU"
       refX="0"
       refY="0"
       orient="auto"
       inkscape:stockid="Arrow1SendU">
      <path
         inkscape:connector-curvature="0"
         transform="matrix(-0.2,0,0,-0.2,-1.2,0)"
         style="fill:#ff0000;fill-rule:evenodd;stroke:#ff0000;stroke-width:1pt;marker-start:none"
         d="M 0,0 5,-5 -12.5,0 5,5 0,0 z"
         id="path7693" />
    </marker>
    <marker
       style="overflow:visible"
       id="DotSH"
       refX="0"
       refY="0"
       orient="auto"
       inkscape:stockid="DotSH">
      <path
         transform="matrix(0.2,0,0,0.2,1.48,0.2)"
         style="fill:#ff0000;fill-rule:evenodd;stroke:#ff0000;stroke-width:1pt;marker-start:none;marker-end:none"
         d="m -2.5,-1 c 0,2.76 -2.24,5 -5,5 -2.76,0 -5,-2.24 -5,-5 0,-2.76 2.24,-5 5,-5 2.76,0 5,2.24 5,5 z"
         id="path7696"
         inkscape:connector-curvature="0" />
    </marker>
    <marker
       style="overflow:visible"
       id="DotSy"
       refX="0"
       refY="0"
       orient="auto"
       inkscape:stockid="DotSy">
      <path
         transform="matrix(0.2,0,0,0.2,1.48,0.2)"
         style="fill:#ff0000;fill-rule:evenodd;stroke:#ff0000;stroke-width:1pt;marker-start:none;marker-end:none"
         d="m -2.5,-1 c 0,2.76 -2.24,5 -5,5 -2.76,0 -5,-2.24 -5,-5 0,-2.76 2.24,-5 5,-5 2.76,0 5,2.24 5,5 z"
         id="path7699"
         inkscape:connector-curvature="0" />
    </marker>
    <marker
       style="overflow:visible"
       id="Arrow1Sstarts"
       refX="0"
       refY="0"
       orient="auto"
       inkscape:stockid="Arrow1Sstarts">
      <path
         transform="matrix(0.2,0,0,0.2,1.2,0)"
         style="fill:#ff0000;fill-rule:evenodd;stroke:#ff0000;stroke-width:1pt;marker-start:none"
         d="M 0,0 5,-5 -12.5,0 5,5 0,0 z"
         id="path7466"
         inkscape:connector-curvature="0" />
    </marker>
    <marker
       style="overflow:visible"
       id="Arrow1SendF"
       refX="0"
       refY="0"
       orient="auto"
       inkscape:stockid="Arrow1SendF">
      <path
         inkscape:connector-curvature="0"
         transform="matrix(-0.2,0,0,-0.2,-1.2,0)"
         style="fill:#ff0000;fill-rule:evenodd;stroke:#ff0000;stroke-width:1pt;marker-start:none"
         d="M 0,0 5,-5 -12.5,0 5,5 0,0 z"
         id="path7469" />
    </marker>
    <marker
       inkscape:stockid="StopMk"
       orient="auto"
       refY="0"
       refX="0"
       id="StopMk"
       style="overflow:visible">
      <path
         id="path7472"
         d="M 0,5.65 0,-5.65"
         style="fill:none;stroke:#ff0000;stroke-width:1pt"
         transform="scale(0.4,0.4)"
         inkscape:connector-curvature="0" />
    </marker>
    <marker
       inkscape:stockid="StopMw"
       orient="auto"
       refY="0"
       refX="0"
       id="StopMw"
       style="overflow:visible">
      <path
         id="path7475"
         d="M 0,5.65 0,-5.65"
         style="fill:none;stroke:#ff0000;stroke-width:1pt"
         transform="scale(0.4,0.4)"
         inkscape:connector-curvature="0" />
    </marker>
  </defs>
  <metadata
     id="metadata7">
    <rdf:RDF>
      <cc:Work
         rdf:about="">
        <dc:format>image/svg+xml</dc:format>
        <dc:type
           rdf:resource="http://purl.org/dc/dcmitype/StillImage" />
        <dc:title></dc:title>
      </cc:Work>
    </rdf:RDF>
  </metadata>
  <g
     transform="translate(-263.95427,-702.917)"
     id="layer1"
     inkscape:groupmode="layer"
     inkscape:label="Layer 1">
    <path
       inkscape:connector-curvature="0"
       id="path5257"
       d="m 264.57927,805.28338 187.33432,0"
       style="fill:none;stroke:#0000ff;stroke-width:1.25;stroke-linecap:butt;stroke-linejoin:miter;stroke-miterlimit:4;stroke-opacity:1;stroke-dasharray:none" />
    <path
       inkscape:connector-curvature="0"
       id="path5259"
       d="m 269.07853,805.18205 6.34331,11.50707"
       style="fill:none;stroke:#0000ff;stroke-width:1.25;stroke-linecap:butt;stroke-linejoin:miter;stroke-miterlimit:4;stroke-opacity:1;stroke-dasharray:none" />
    <path
       inkscape:connector-curvature="0"
       id="path5259-0"
       d="m 424.88559,805.18205 6.34332,11.50707"
       style="fill:none;stroke:#0000ff;stroke-width:1.25;stroke-linecap:butt;stroke-linejoin:miter;stroke-miterlimit:4;stroke-opacity:1;stroke-dasharray:none" />
    <path
       inkscape:connector-curvature="0"
       id="path5259-1"
       d="m 407.5737,805.18205 6.34333,11.50707"
       style="fill:none;stroke:#0000ff;stroke-width:1.25;stroke-linecap:butt;stroke-linejoin:miter;stroke-miterlimit:4;stroke-opacity:1;stroke-dasharray:none" />
    <path
       inkscape:connector-curvature="0"
       id="path5259-3"
       d="m 390.2618,805.18205 6.34332,11.50707"
       style="fill:none;stroke:#0000ff;stroke-width:1.25;stroke-linecap:butt;stroke-linejoin:miter;stroke-miterlimit:4;stroke-opacity:1;stroke-dasharray:none" />
    <path
       inkscape:connector-curvature="0"
       id="path5259-7"
       d="m 372.9499,805.18205 6.34333,11.50707"
       style="fill:none;stroke:#0000ff;stroke-width:1.25;stroke-linecap:butt;stroke-linejoin:miter;stroke-miterlimit:4;stroke-opacity:1;stroke-dasharray:none" />
    <path
       inkscape:connector-curvature="0"
       id="path5259-72"
       d="m 355.638,805.18205 6.34332,11.50707"
       style="fill:none;stroke:#0000ff;stroke-width:1.25;stroke-linecap:butt;stroke-linejoin:miter;stroke-miterlimit:4;stroke-opacity:1;stroke-dasharray:none" />
    <path
       inkscape:connector-curvature="0"
       id="path5259-6"
       d="m 338.32612,805.18205 6.34332,11.50707"
       style="fill:none;stroke:#0000ff;stroke-width:1.25;stroke-linecap:butt;stroke-linejoin:miter;stroke-miterlimit:4;stroke-opacity:1;stroke-dasharray:none" />
    <path
       inkscape:connector-curvature="0"
       id="path5259-4"
       d="m 321.01421,805.18205 6.34332,11.50707"
       style="fill:none;stroke:#0000ff;stroke-width:1.25;stroke-linecap:butt;stroke-linejoin:miter;stroke-miterlimit:4;stroke-opacity:1;stroke-dasharray:none" />
    <path
       inkscape:connector-curvature="0"
       id="path5259-5"
       d="m 303.70232,805.18205 6.34332,11.50707"
       style="fill:none;stroke:#0000ff;stroke-width:1.25;stroke-linecap:butt;stroke-linejoin:miter;stroke-miterlimit:4;stroke-opacity:1;stroke-dasharray:none" />
    <path
       inkscape:connector-curvature="0"
       id="path5259-2"
       d="m 286.39042,805.18205 6.34333,11.50707"
       style="fill:none;stroke:#0000ff;stroke-width:1.25;stroke-linecap:butt;stroke-linejoin:miter;stroke-miterlimit:4;stroke-opacity:1;stroke-dasharray:none" />
    <path
       inkscape:connector-curvature="0"
       id="path5259-02"
       d="m 442.19748,805.18205 6.34332,11.50707"
       style="fill:none;stroke:#0000ff;stroke-width:1.25;stroke-linecap:butt;stroke-linejoin:miter;stroke-miterlimit:4;stroke-opacity:1;stroke-dasharray:none" />
    <rect
       transform="matrix(0.70710678,-0.70710678,0.70710678,0.70710678,0,0)"
       y="791.32587"
       x="-338.96088"
       height="6.4308805"
       width="135.32811"
       id="rect6242"
       style="fill:none;stroke:#0000ff;stroke-width:1.25;stroke-linecap:butt;stroke-linejoin:miter;stroke-miterlimit:4;stroke-opacity:1;stroke-dasharray:none;stroke-dashoffset:0" />
    <path
       inkscape:connector-curvature="0"
       id="path6244"
       d="m 369.98972,788.1924 c 0,0 0,0 0,-34.53105 -25.51379,-25.51379 -25.51379,-25.51379 -25.51379,-25.51379"
       style="fill:none;stroke:#ff0000;stroke-width:1.25;stroke-linecap:butt;stroke-linejoin:miter;stroke-miterlimit:4;stroke-opacity:1;stroke-dasharray:none;marker-start:url(#Arrow1Sstarts);marker-end:url(#Arrow1SendF)" />
    <path
       inkscape:connector-curvature="0"
       id="path6246"
       d="m 353.70283,741.84813 c -43.97438,43.97438 -44.10744,44.10744 -44.10744,44.10744"
       style="fill:none;stroke:#ff0000;stroke-width:1.25;stroke-linecap:butt;stroke-linejoin:miter;stroke-miterlimit:4;stroke-opacity:1;stroke-dasharray:none;marker-start:url(#StopMk);marker-end:url(#StopMw)" />
    <g
       style="stroke-width:1.03747368;stroke-miterlimit:4;stroke-dasharray:none"
       transform="matrix(1.2048499,0,0,1.2048499,-94.999607,-180.31468)"
       id="g6278">
      <g
         id="g6274"
         transform="matrix(0.43098469,0,0,0.43098469,243.84275,412.40382)"
         style="stroke:#ff0000;stroke-width:2.40721679;stroke-miterlimit:4;stroke-dasharray:none">
        <path
           inkscape:connector-curvature="0"
           id="path6252"
           d="m 462.91893,756.09307 11.37118,11.37119"
           style="fill:none;stroke:#ff0000;stroke-width:2.40721679;stroke-linecap:butt;stroke-linejoin:miter;stroke-miterlimit:4;stroke-opacity:1;stroke-dasharray:none" />
        <path
           inkscape:connector-curvature="0"
           id="path6252-9"
           d="m 474.29012,756.09307 -11.37119,11.37118"
           style="fill:none;stroke:#ff0000;stroke-width:2.40721679;stroke-linecap:butt;stroke-linejoin:miter;stroke-miterlimit:4;stroke-opacity:1;stroke-dasharray:none" />
      </g>
      <path
         sodipodi:type="arc"
         style="fill:none;stroke:#ff0000;stroke-width:2.04597068;stroke-linecap:butt;stroke-linejoin:miter;stroke-miterlimit:4;stroke-opacity:1;stroke-dasharray:none;stroke-dashoffset:0"
         id="path6248"
         sodipodi:cx="166.39061"
         sodipodi:cy="32.953232"
         sodipodi:rx="6.9619503"
         sodipodi:ry="6.9619503"
         d="m 173.35256,32.953232 c 0,3.844979 -3.11697,6.96195 -6.96195,6.96195 -3.84498,0 -6.96195,-3.116971 -6.96195,-6.96195 0,-3.844979 3.11697,-6.96195 6.96195,-6.96195 3.84498,0 6.96195,3.116971 6.96195,6.96195 z"
         transform="matrix(0.50708139,0,0,0.50708139,361.43054,724.00879)" />
    </g>
    <g
       id="g7651"
       transform="matrix(1.2048499,0,0,1.2048499,256.15278,672.22778)">
      <g
         id="content"
         transform="matrix(0.1949346,0,0,-0.1949346,-34.113555,152.68632)"
         xml:space="preserve"
         stroke-miterlimit="10.433"
         font-style="normal"
         font-variant="normal"
         font-weight="normal"
         font-stretch="normal"
         font-size-adjust="none"
         letter-spacing="normal"
         word-spacing="normal"
         style="font-style:normal;font-variant:normal;font-weight:normal;font-stretch:normal;letter-spacing:normal;word-spacing:normal;text-anchor:start;fill:none;stroke:#000000;stroke-width:0.82997894;stroke-linecap:butt;stroke-linejoin:miter;stroke-miterlimit:10.43299961;stroke-opacity:1;stroke-dasharray:none;stroke-dashoffset:0"><path
           d="m 459.91,409.14 -0.02,-0.07 -0.01,-0.08 -0.02,-0.07 -0.01,-0.08 -0.04,-0.16 -0.04,-0.16 -0.03,-0.16 -0.04,-0.16 -0.04,-0.16 -0.04,-0.16 -0.01,-0.08 -0.02,-0.07 -0.02,-0.07 -0.01,-0.07 -0.02,-0.07 -0.01,-0.07 -0.01,-0.06 -0.01,-0.06 -0.01,-0.06 -0.01,-0.05 -0.01,-0.05 -0.01,-0.04 -0.01,-0.04 0,-0.04 0,-0.03 0,-0.02 c 0,-0.89 0.7,-1.35 1.43,-1.35 0.61,0 1.5,0.39 1.85,1.39 0.11,0.21 1.8,6.99 2,7.88 0.39,1.64 1.3,5.12 1.59,6.48 0.21,0.64 1.6,2.99 2.78,4.08 0.41,0.34 1.85,1.64 4,1.64 1.28,0 2.03,-0.59 2.08,-0.59 -1.48,-0.25 -2.58,-1.46 -2.58,-2.74 0,-0.79 0.55,-1.75 1.89,-1.75 1.35,0 2.74,1.14 2.74,2.94 0,1.75 -1.6,3.23 -4.13,3.23 -3.25,0 -5.43,-2.43 -6.39,-3.82 -0.39,2.23 -2.18,3.82 -4.53,3.82 -2.28,0 -3.23,-1.93 -3.69,-2.82 -0.89,-1.71 -1.54,-4.69 -1.54,-4.85 0,-0.5 0.5,-0.5 0.61,-0.5 0.5,0 0.54,0.07 0.84,1.16 0.84,3.53 1.84,5.92 3.64,5.92 0.84,0 1.55,-0.39 1.55,-2.28 0,-1.05 -0.16,-1.61 -0.8,-4.19 z"
           id="path7654"
           inkscape:connector-curvature="0"
           style="fill:#000000;stroke-width:0" /></g>    </g>
    <g
       id="g7814"
       transform="matrix(1.2048499,0,0,1.2048499,307.4887,695.68899)">
      <g
         word-spacing="normal"
         letter-spacing="normal"
         font-size-adjust="none"
         font-stretch="normal"
         font-weight="normal"
         font-variant="normal"
         font-style="normal"
         stroke-miterlimit="10.433"
         xml:space="preserve"
         transform="matrix(0.1949346,0,0,-0.1949346,-34.113555,152.68632)"
         id="g7816"
         style="font-style:normal;font-variant:normal;font-weight:normal;font-stretch:normal;letter-spacing:normal;word-spacing:normal;text-anchor:start;fill:none;stroke:#000000;stroke-width:0.82997894;stroke-linecap:butt;stroke-linejoin:miter;stroke-miterlimit:10.43299961;stroke-opacity:1;stroke-dasharray:none;stroke-dashoffset:0"><path
           id="path7818"
           d="m 459.91,409.14 -0.02,-0.07 -0.01,-0.08 -0.02,-0.07 -0.01,-0.08 -0.04,-0.16 -0.04,-0.16 -0.03,-0.16 -0.04,-0.16 -0.04,-0.16 -0.04,-0.16 -0.01,-0.08 -0.02,-0.07 -0.02,-0.07 -0.01,-0.07 -0.02,-0.07 -0.01,-0.07 -0.01,-0.06 -0.01,-0.06 -0.01,-0.06 -0.01,-0.05 -0.01,-0.05 -0.01,-0.04 -0.01,-0.04 0,-0.04 0,-0.03 0,-0.02 c 0,-0.89 0.7,-1.35 1.43,-1.35 0.61,0 1.5,0.39 1.85,1.39 0.06,0.11 0.65,2.44 0.95,3.69 l 1.1,4.48 c 0.29,1.1 0.59,2.19 0.84,3.35 0.2,0.84 0.61,2.28 0.66,2.48 0.75,1.55 3.39,6.08 8.1,6.08 2.25,0 2.71,-1.84 2.71,-3.48 0,-1.25 -0.36,-2.64 -0.75,-4.14 l -1.39,-5.79 -1,-3.78 c -0.21,-1 -0.66,-2.68 -0.66,-2.93 0,-0.89 0.7,-1.35 1.45,-1.35 1.55,0 1.85,1.25 2.24,2.85 0.7,2.78 2.55,10.06 3,12 0.14,0.65 2.78,6.62 8.22,6.62 2.14,0 2.68,-1.69 2.68,-3.48 0,-2.85 -2.09,-8.52 -3.09,-11.16 -0.45,-1.2 -0.64,-1.75 -0.64,-2.75 0,-2.33 1.73,-4.08 4.08,-4.08 4.69,0 6.53,7.27 6.53,7.67 0,0.5 -0.45,0.5 -0.59,0.5 -0.5,0 -0.5,-0.15 -0.75,-0.9 -0.75,-2.64 -2.35,-6.17 -5.08,-6.17 -0.86,0 -1.21,0.5 -1.21,1.64 0,1.25 0.46,2.45 0.9,3.54 0.95,2.58 3.04,8.11 3.04,10.96 0,3.23 -2,5.32 -5.73,5.32 -3.74,0 -6.27,-2.18 -8.11,-4.82 -0.06,0.65 -0.2,2.34 -1.61,3.53 -1.24,1.04 -2.83,1.29 -4.08,1.29 -4.48,0 -6.92,-3.18 -7.76,-4.32 -0.25,2.84 -2.35,4.32 -4.6,4.32 -2.28,0 -3.23,-1.93 -3.69,-2.82 -0.89,-1.75 -1.54,-4.69 -1.54,-4.85 0,-0.5 0.5,-0.5 0.61,-0.5 0.5,0 0.54,0.07 0.84,1.16 0.84,3.53 1.84,5.92 3.64,5.92 0.8,0 1.55,-0.39 1.55,-2.28 0,-1.05 -0.16,-1.61 -0.8,-4.19 z"
           inkscape:connector-curvature="0"
           style="fill:#000000;stroke-width:0" /><path
           id="path7820"
           d="m 522.67,424.98 0.01,0.06 0.01,0.05 0.01,0.05 0.01,0.06 0.02,0.1 0.01,0.05 0.02,0.06 0.01,0.05 0.01,0.06 0.01,0.05 0,0.06 0.01,0.06 0,0.06 0.01,0.03 0,0.03 0,0.03 0,0.03 c 0,0.86 -0.59,1.36 -1.44,1.36 -0.5,0 -1.84,-0.36 -2.05,-2.16 -0.89,1.85 -2.64,3.14 -4.62,3.14 l 0.05,-1.09 c 3.28,0 3.98,-4.03 3.98,-4.28 0,-0.25 -0.09,-0.55 -0.16,-0.75 l -2.39,-9.52 c -0.29,-1.29 -1.43,-2.53 -2.53,-3.48 -1.05,-0.89 -2.59,-1.8 -4.04,-1.8 -2.49,0 -3.24,2.6 -3.24,4.58 0,2.41 1.45,8.28 2.8,10.81 1.34,2.46 3.48,4.44 5.58,4.44 l -0.05,1.09 c -5.69,0 -11.86,-6.96 -11.86,-14.14 0,-4.93 3.03,-7.87 6.62,-7.87 2.94,0 5.29,2.34 5.79,2.89 l 0.04,-0.05 c -1.04,-4.43 -1.64,-6.48 -1.64,-6.58 -0.2,-0.45 -1.89,-5.39 -7.17,-5.39 -0.95,0 -2.59,0.07 -4,0.5 1.5,0.46 2.05,1.75 2.05,2.6 0,0.79 -0.55,1.75 -1.89,1.75 -1.1,0 -2.69,-0.91 -2.69,-2.89 0,-2.05 1.84,-3.05 6.62,-3.05 6.22,0 9.82,3.89 10.57,6.88 z"
           inkscape:connector-curvature="0"
           style="fill:#000000;stroke-width:0" /></g>    </g>
    <g
       id="g7988"
       transform="matrix(1.2048499,0,0,1.2048499,246.16434,726.81575)">
      <g
         id="g7990"
         transform="matrix(0.1949346,0,0,-0.1949346,-34.113555,152.68632)"
         xml:space="preserve"
         stroke-miterlimit="10.433"
         font-style="normal"
         font-variant="normal"
         font-weight="normal"
         font-stretch="normal"
         font-size-adjust="none"
         letter-spacing="normal"
         word-spacing="normal"
         style="font-style:normal;font-variant:normal;font-weight:normal;font-stretch:normal;letter-spacing:normal;word-spacing:normal;text-anchor:start;fill:none;stroke:#000000;stroke-width:0.82997894;stroke-linecap:butt;stroke-linejoin:miter;stroke-miterlimit:10.43299961;stroke-opacity:1;stroke-dasharray:none;stroke-dashoffset:0"><path
           d="m 492.39,427.92 -0.01,0.74 -0.05,0.73 -0.07,0.71 -0.11,0.7 -0.13,0.68 -0.16,0.66 -0.19,0.64 -0.22,0.62 -0.24,0.6 -0.27,0.59 -0.29,0.56 -0.32,0.54 -0.34,0.52 -0.37,0.5 -0.38,0.47 -0.42,0.45 -0.43,0.43 -0.45,0.41 -0.48,0.38 -0.49,0.35 -0.52,0.33 -0.53,0.3 -0.55,0.28 -0.57,0.25 -0.59,0.22 -0.6,0.2 -0.62,0.16 -0.63,0.14 -0.65,0.1 -0.67,0.08 -0.67,0.05 -0.69,0.01 -0.3,-1.25 c 4.09,0 8.58,-2.78 8.58,-10.2 0,-3.59 -1.35,-11.36 -6.28,-17.5 -2.39,-3.03 -6.49,-5.97 -10.66,-5.97 h 0 c -4.94,0 -8.42,4.03 -8.42,10.61 0,2.19 0.69,9.47 4.53,15.3 3.44,5.17 8.31,7.76 12.25,7.76 l 0.3,1.25 c -10.75,0 -21.72,-11.31 -21.72,-22.92 0,-8.26 5.58,-13.29 12.76,-13.29 10.55,0 21.67,10.9 21.67,22.81 z"
           id="path7992"
           inkscape:connector-curvature="0"
           style="fill:#000000;stroke-width:0" /></g>    </g>
    <g
       id="g8166"
       transform="matrix(1.2048499,0,0,1.2048499,383.70057,623.52652)">
      <g
         word-spacing="normal"
         letter-spacing="normal"
         font-size-adjust="none"
         font-stretch="normal"
         font-weight="normal"
         font-variant="normal"
         font-style="normal"
         stroke-miterlimit="10.433"
         xml:space="preserve"
         transform="matrix(0.1949346,0,0,-0.1949346,-34.113555,152.68632)"
         id="g8168"
         style="font-style:normal;font-variant:normal;font-weight:normal;font-stretch:normal;letter-spacing:normal;word-spacing:normal;text-anchor:start;fill:none;stroke:#000000;stroke-width:0.82997894;stroke-linecap:butt;stroke-linejoin:miter;stroke-miterlimit:10.43299961;stroke-opacity:1;stroke-dasharray:none;stroke-dashoffset:0"><path
           id="path8170"
           d="m 470.16,424.78 h 8.38 c 0.65,0 2.43,0 2.43,1.7 0,1.19 -1.04,1.19 -1.98,1.19 h -13.95 c -1,0 -2.94,0 -5.13,-2.35 -1.66,-1.78 -3.05,-4.17 -3.05,-4.48 0,-0.05 0,-0.48 0.6,-0.48 0.4,0 0.5,0.18 0.79,0.59 2.46,3.83 5.29,3.83 6.33,3.83 h 4.14 l -4.89,-15.99 c -0.19,-0.59 -0.48,-1.64 -0.48,-1.84 0,-0.55 0.34,-1.34 1.44,-1.34 1.64,0 1.89,1.39 2.04,2.14 z"
           inkscape:connector-curvature="0"
           style="fill:#000000;stroke-width:0" /></g>    </g>
    <path
       sodipodi:type="arc"
       style="fill:#0000ff;stroke:#0000ff;stroke-width:1.03747368;stroke-linecap:butt;stroke-linejoin:miter;stroke-miterlimit:4;stroke-opacity:1;stroke-dasharray:none;stroke-dashoffset:0"
       id="path8260"
       sodipodi:cx="33.835548"
       sodipodi:cy="41.117023"
       sodipodi:rx="0.86757815"
       sodipodi:ry="0.86757815"
       d="m 34.703127,41.117023 c 0,0.479151 -0.388428,0.867579 -0.867579,0.867579 -0.47915,0 -0.867578,-0.388428 -0.867578,-0.867579 0,-0.47915 0.388428,-0.867578 0.867578,-0.867578 0.479151,0 0.867579,0.388428 0.867579,0.867578 z"
       transform="matrix(1.2048499,0,0,1.2048499,283.51063,755.1796)" />
  </g>
</svg>
