<?xml version="1.0" encoding="UTF-8" standalone="no"?>
<!-- Created with Inkscape (http://www.inkscape.org/) -->

<svg
   xmlns:ns0="http://www.iki.fi/pav/software/textext/"
   xmlns:dc="http://purl.org/dc/elements/1.1/"
   xmlns:cc="http://creativecommons.org/ns#"
   xmlns:rdf="http://www.w3.org/1999/02/22-rdf-syntax-ns#"
   xmlns:svg="http://www.w3.org/2000/svg"
   xmlns="http://www.w3.org/2000/svg"
   xmlns:sodipodi="http://sodipodi.sourceforge.net/DTD/sodipodi-0.dtd"
   xmlns:inkscape="http://www.inkscape.org/namespaces/inkscape"
   inkscape:version="0.48.2 r9819"
   version="1.1"
   id="svg2"
   height="171.71992"
   width="254.36459"
   sodipodi:docname="space-time diagram.svg">
  <sodipodi:namedview
     id="base"
     pagecolor="#ffffff"
     bordercolor="#666666"
     borderopacity="1.0"
     inkscape:pageopacity="0.0"
     inkscape:pageshadow="2"
     inkscape:zoom="3.4358272"
     inkscape:cx="127.1823"
     inkscape:cy="85.85996"
     inkscape:document-units="px"
     inkscape:current-layer="layer1"
     showgrid="false"
     inkscape:snap-bbox="true"
     inkscape:bbox-paths="true"
     inkscape:bbox-nodes="true"
     inkscape:snap-bbox-midpoints="true"
     inkscape:snap-bbox-edge-midpoints="true"
     inkscape:object-paths="true"
     inkscape:snap-intersection-paths="true"
     inkscape:object-nodes="true"
     inkscape:snap-smooth-nodes="true"
     inkscape:snap-midpoints="true"
     inkscape:snap-object-midpoints="true"
     inkscape:snap-center="true"
     inkscape:window-width="1366"
     inkscape:window-height="743"
     inkscape:window-x="0"
     inkscape:window-y="3"
     inkscape:window-maximized="1"
     inkscape:snap-global="false"
     fit-margin-top="0"
     fit-margin-left="0"
     fit-margin-right="0"
     fit-margin-bottom="0" />
  <defs
     id="defs4">
    <marker
       style="overflow:visible"
       id="Arrow1Send"
       refX="0"
       refY="0"
       orient="auto"
       inkscape:stockid="Arrow1Send">
      <path
         inkscape:connector-curvature="0"
         transform="matrix(-0.2,0,0,-0.2,-1.2,0)"
         style="fill-rule:evenodd;stroke:#000000;stroke-width:1pt;marker-start:none"
         d="M 0,0 5,-5 -12.5,0 5,5 0,0 z"
         id="path4265" />
    </marker>
    <marker
       style="overflow:visible"
       id="Arrow1Sstart"
       refX="0"
       refY="0"
       orient="auto"
       inkscape:stockid="Arrow1Sstart">
      <path
         inkscape:connector-curvature="0"
         transform="matrix(0.2,0,0,0.2,1.2,0)"
         style="fill-rule:evenodd;stroke:#000000;stroke-width:1pt;marker-start:none"
         d="M 0,0 5,-5 -12.5,0 5,5 0,0 z"
         id="path4262" />
    </marker>
    <marker
       style="overflow:visible"
       id="Arrow1SendA"
       refX="0"
       refY="0"
       orient="auto"
       inkscape:stockid="Arrow1SendA">
      <path
         inkscape:connector-curvature="0"
         transform="matrix(-0.2,0,0,-0.2,-1.2,0)"
         style="fill:#0000ff;fill-rule:evenodd;stroke:#0000ff;stroke-width:1pt;marker-start:none"
         d="M 0,0 5,-5 -12.5,0 5,5 0,0 z"
         id="path3097" />
    </marker>
    <marker
       style="overflow:visible"
       id="Arrow1Sstarts"
       refX="0"
       refY="0"
       orient="auto"
       inkscape:stockid="Arrow1Sstarts">
      <path
         inkscape:connector-curvature="0"
         transform="matrix(0.2,0,0,0.2,1.2,0)"
         style="fill:#0000ff;fill-rule:evenodd;stroke:#0000ff;stroke-width:1pt;marker-start:none"
         d="M 0,0 5,-5 -12.5,0 5,5 0,0 z"
         id="path3100" />
    </marker>
    <marker
       style="overflow:visible"
       id="Arrow1Sendr"
       refX="0"
       refY="0"
       orient="auto"
       inkscape:stockid="Arrow1Sendr">
      <path
         inkscape:connector-curvature="0"
         transform="matrix(-0.2,0,0,-0.2,-1.2,0)"
         style="fill:#0000ff;fill-rule:evenodd;stroke:#0000ff;stroke-width:1pt;marker-start:none"
         d="M 0,0 5,-5 -12.5,0 5,5 0,0 z"
         id="path3103" />
    </marker>
    <marker
       style="overflow:visible"
       id="Arrow1Sstartc"
       refX="0"
       refY="0"
       orient="auto"
       inkscape:stockid="Arrow1Sstartc">
      <path
         inkscape:connector-curvature="0"
         transform="matrix(0.2,0,0,0.2,1.2,0)"
         style="fill:#0000ff;fill-rule:evenodd;stroke:#0000ff;stroke-width:1pt;marker-start:none"
         d="M 0,0 5,-5 -12.5,0 5,5 0,0 z"
         id="path3106" />
    </marker>
    <marker
       style="overflow:visible"
       id="Arrow1SendAe"
       refX="0"
       refY="0"
       orient="auto"
       inkscape:stockid="Arrow1SendAe">
      <path
         inkscape:connector-curvature="0"
         transform="matrix(-0.2,0,0,-0.2,-1.2,0)"
         style="fill:#000000;fill-rule:evenodd;stroke:#000000;stroke-width:1pt;marker-start:none"
         d="M 0,0 5,-5 -12.5,0 5,5 0,0 z"
         id="path8348" />
    </marker>
    <marker
       style="overflow:visible"
       id="Arrow1SendAe-3"
       refX="0"
       refY="0"
       orient="auto"
       inkscape:stockid="Arrow1SendAe">
      <path
         inkscape:connector-curvature="0"
         transform="matrix(-0.2,0,0,-0.2,-1.2,0)"
         style="fill:#000000;fill-rule:evenodd;stroke:#000000;stroke-width:1pt;marker-start:none"
         d="M 0,0 5,-5 -12.5,0 5,5 0,0 z"
         id="path8348-0" />
    </marker>
  </defs>
  <metadata
     id="metadata7">
    <rdf:RDF>
      <cc:Work
         rdf:about="">
        <dc:format>image/svg+xml</dc:format>
        <dc:type
           rdf:resource="http://purl.org/dc/dcmitype/StillImage" />
        <dc:title></dc:title>
      </cc:Work>
    </rdf:RDF>
  </metadata>
  <g
     transform="translate(-98.63124,-39.961571)"
     id="layer1"
     inkscape:groupmode="layer"
     inkscape:label="Layer 1">
    <path
       inkscape:connector-curvature="0"
       id="path2985"
       d="m 113.86683,41.386571 0,162.719349"
       style="fill:none;stroke:#0000ff;stroke-width:0.99999994px;stroke-linecap:butt;stroke-linejoin:miter;stroke-opacity:1;marker-start:url(#Arrow1Sstartc)" />
    <path
       inkscape:connector-curvature="0"
       id="path2987"
       d="m 109.2694,199.82777 232.71476,0"
       style="fill:none;stroke:#0000ff;stroke-width:0.99999994px;stroke-linecap:butt;stroke-linejoin:miter;stroke-opacity:1;marker-start:none;marker-end:url(#Arrow1SendA)" />
    <path
       inkscape:connector-curvature="0"
       id="path2991"
       d="m 109.35739,201.04999 228.37749,-61.2722"
       style="fill:none;stroke:#0000ff;stroke-width:0.99999994px;stroke-linecap:butt;stroke-linejoin:miter;stroke-opacity:1;marker-start:none;marker-end:url(#Arrow1Sendr)" />
    <path
       inkscape:connector-curvature="0"
       id="path2991-7"
       d="M 156.26745,41.38562 112.75213,204.10687"
       style="fill:none;stroke:#0000ff;stroke-width:0.99999994px;stroke-linecap:butt;stroke-linejoin:miter;stroke-opacity:1;marker-start:url(#Arrow1Sstarts)" />
    <path
       inkscape:connector-curvature="0"
       id="path3439"
       d="m 295.395,104.57865 -184.88661,0"
       style="fill:none;stroke:#ff0000;stroke-width:0.99999988px;stroke-linecap:butt;stroke-linejoin:miter;stroke-opacity:1" />
    <path
       inkscape:connector-curvature="0"
       id="path3441"
       d="m 295.41253,104.77903 0,97.18229"
       style="fill:none;stroke:#ff0000;stroke-width:0.99999988px;stroke-linecap:butt;stroke-linejoin:miter;stroke-opacity:1" />
    <path
       transform="matrix(0.29477769,0,0,0.29537448,238.00908,75.617436)"
       d="m 198.1228,98.049194 a 3.3880935,3.3880935 0 1 1 -6.77618,0 3.3880935,3.3880935 0 1 1 6.77618,0 z"
       sodipodi:ry="3.3880935"
       sodipodi:rx="3.3880935"
       sodipodi:cy="98.049194"
       sodipodi:cx="194.73471"
       id="path3437"
       style="fill:#ff0000;stroke:#ff0000;stroke-width:3.38895822;stroke-linecap:butt;stroke-linejoin:miter;stroke-miterlimit:4;stroke-opacity:1;stroke-dasharray:none;stroke-dashoffset:0"
       sodipodi:type="arc" />
    <path
       inkscape:connector-curvature="0"
       id="path2991-7-5"
       d="m 294.95428,105.12067 -18.03775,52.18709"
       style="fill:none;stroke:#ff0000;stroke-width:0.99999988;stroke-linecap:butt;stroke-linejoin:miter;stroke-miterlimit:4;stroke-opacity:1;stroke-dasharray:2.99999992, 2.99999992;stroke-dashoffset:0" />
    <path
       inkscape:connector-curvature="0"
       id="path2991-0"
       d="M 125.5239,149.67948 294.9543,104.57865"
       style="fill:none;stroke:#ff0000;stroke-width:0.99999988;stroke-linecap:butt;stroke-linejoin:miter;stroke-miterlimit:4;stroke-opacity:1;stroke-dasharray:2.99999978, 2.99999978;stroke-dashoffset:0" />
    <g
       id="g5079"
       transform="matrix(0.23399596,0,0,0.23389368,30.448831,-33.113934)">
      <g
         word-spacing="normal"
         letter-spacing="normal"
         font-size-adjust="none"
         font-stretch="normal"
         font-weight="normal"
         font-variant="normal"
         font-style="normal"
         stroke-miterlimit="10.433"
         xml:space="preserve"
         transform="matrix(1.0629921,0,0,-1.0629921,-186.02362,789.27165)"
         id="content"
         style="font-style:normal;font-variant:normal;font-weight:normal;font-stretch:normal;letter-spacing:normal;word-spacing:normal;text-anchor:start;fill:none;stroke:#000000;stroke-width:4.27451229;stroke-linecap:butt;stroke-linejoin:miter;stroke-miterlimit:10.43299961;stroke-opacity:1;stroke-dasharray:none;stroke-dashoffset:0"><path
           id="path5082"
           d="m 475.25,425.14 -0.14,0 -0.15,0 -0.15,-0.01 -0.14,0 -0.14,-0.01 -0.14,-0.02 -0.07,-0.01 -0.07,-0.01 -0.06,-0.02 -0.07,-0.01 -0.07,-0.02 -0.07,-0.02 -0.07,-0.02 -0.06,-0.02 -0.07,-0.03 -0.07,-0.03 -0.06,-0.03 -0.07,-0.04 -0.07,-0.04 -0.06,-0.04 -0.07,-0.05 -0.07,-0.04 -0.06,-0.06 -0.07,-0.05 -0.06,-0.06 -0.07,-0.07 c -0.8,-0.75 -0.89,-1.59 -0.89,-1.93 0,-1.21 0.89,-1.75 1.84,-1.75 1.44,0 2.8,1.2 2.8,3.18 0,2.44 -2.34,4.28 -5.89,4.28 -6.72,0 -13.34,-7.12 -13.34,-14.14 0,-4.48 2.89,-8.42 8.06,-8.42 7.12,0 11.31,5.28 11.31,5.88 0,0.29 -0.3,0.65 -0.59,0.65 -0.25,0 -0.35,-0.11 -0.66,-0.5 -3.94,-4.93 -9.36,-4.93 -9.95,-4.93 -3.14,0 -4.49,2.43 -4.49,5.43 0,2.03 0.99,6.88 2.69,9.96 1.55,2.84 4.28,4.98 7.02,4.98 1.7,0 3.59,-0.64 4.29,-1.98 z"
           inkscape:connector-curvature="0"
           style="fill:#000000;stroke-width:0" /><path
           id="path5084"
           d="m 487.38,426.12 h 4.69 c 0.98,0 1.48,0 1.48,1 0,0.55 -0.5,0.55 -1.39,0.55 h -4.39 c 1.8,7.08 2.05,8.08 2.05,8.37 0,0.85 -0.59,1.35 -1.44,1.35 -0.15,0 -1.54,-0.05 -2,-1.8 l -1.93,-7.92 h -4.69 c -1,0 -1.5,0 -1.5,-0.94 0,-0.61 0.4,-0.61 1.4,-0.61 h 4.38 c -3.58,-14.14 -3.78,-14.98 -3.78,-15.89 0,-2.69 1.89,-4.58 4.58,-4.58 5.07,0 7.92,7.27 7.92,7.67 0,0.5 -0.39,0.5 -0.6,0.5 -0.45,0 -0.5,-0.15 -0.75,-0.7 -2.14,-5.17 -4.78,-6.37 -6.46,-6.37 -1.05,0 -1.55,0.65 -1.55,2.29 0,1.19 0.09,1.55 0.3,2.39 z"
           inkscape:connector-curvature="0"
           style="fill:#000000;stroke-width:0" /></g>    </g>
    <g
       id="g5132"
       transform="matrix(0.23399596,0,0,0.23389368,69.003196,-30.065196)">
      <g
         id="g5134"
         transform="matrix(1.0629921,0,0,-1.0629921,-186.02362,789.27165)"
         xml:space="preserve"
         stroke-miterlimit="10.433"
         font-style="normal"
         font-variant="normal"
         font-weight="normal"
         font-stretch="normal"
         font-size-adjust="none"
         letter-spacing="normal"
         word-spacing="normal"
         style="font-style:normal;font-variant:normal;font-weight:normal;font-stretch:normal;letter-spacing:normal;word-spacing:normal;text-anchor:start;fill:none;stroke:#000000;stroke-width:4.27451229;stroke-linecap:butt;stroke-linejoin:miter;stroke-miterlimit:10.43299961;stroke-opacity:1;stroke-dasharray:none;stroke-dashoffset:0"><path
           d="m 475.25,425.14 -0.14,0 -0.15,0 -0.15,-0.01 -0.14,0 -0.14,-0.01 -0.14,-0.02 -0.07,-0.01 -0.07,-0.01 -0.06,-0.02 -0.07,-0.01 -0.07,-0.02 -0.07,-0.02 -0.07,-0.02 -0.06,-0.02 -0.07,-0.03 -0.07,-0.03 -0.06,-0.03 -0.07,-0.04 -0.07,-0.04 -0.06,-0.04 -0.07,-0.05 -0.07,-0.04 -0.06,-0.06 -0.07,-0.05 -0.06,-0.06 -0.07,-0.07 c -0.8,-0.75 -0.89,-1.59 -0.89,-1.93 0,-1.21 0.89,-1.75 1.84,-1.75 1.44,0 2.8,1.2 2.8,3.18 0,2.44 -2.34,4.28 -5.89,4.28 -6.72,0 -13.34,-7.12 -13.34,-14.14 0,-4.48 2.89,-8.42 8.06,-8.42 7.12,0 11.31,5.28 11.31,5.88 0,0.29 -0.3,0.65 -0.59,0.65 -0.25,0 -0.35,-0.11 -0.66,-0.5 -3.94,-4.93 -9.36,-4.93 -9.95,-4.93 -3.14,0 -4.49,2.43 -4.49,5.43 0,2.03 0.99,6.88 2.69,9.96 1.55,2.84 4.28,4.98 7.02,4.98 1.7,0 3.59,-0.64 4.29,-1.98 z"
           id="path5136"
           inkscape:connector-curvature="0"
           style="fill:#000000;stroke-width:0" /><path
           d="m 487.38,426.12 h 4.69 c 0.98,0 1.48,0 1.48,1 0,0.55 -0.5,0.55 -1.39,0.55 h -4.39 c 1.8,7.08 2.05,8.08 2.05,8.37 0,0.85 -0.59,1.35 -1.44,1.35 -0.15,0 -1.54,-0.05 -2,-1.8 l -1.93,-7.92 h -4.69 c -1,0 -1.5,0 -1.5,-0.94 0,-0.61 0.4,-0.61 1.4,-0.61 h 4.38 c -3.58,-14.14 -3.78,-14.98 -3.78,-15.89 0,-2.69 1.89,-4.58 4.58,-4.58 5.07,0 7.92,7.27 7.92,7.67 0,0.5 -0.39,0.5 -0.6,0.5 -0.45,0 -0.5,-0.15 -0.75,-0.7 -2.14,-5.17 -4.78,-6.37 -6.46,-6.37 -1.05,0 -1.55,0.65 -1.55,2.29 0,1.19 0.09,1.55 0.3,2.39 z"
           id="path5138"
           inkscape:connector-curvature="0"
           style="fill:#000000;stroke-width:0" /><path
           d="m 505.23,440.65 0.03,0.06 0.02,0.05 0.02,0.05 0.02,0.05 0.02,0.04 0.02,0.05 0.02,0.04 0.02,0.04 0.01,0.05 0.02,0.04 0.01,0.03 0.01,0.04 0.01,0.04 0.01,0.03 0.01,0.04 0.01,0.03 0.01,0.03 0.01,0.03 0,0.03 0.01,0.03 0,0.03 0.01,0.03 0,0.03 0,0.02 0.01,0.06 0,0.05 0,0.04 0,0.05 c 0,1.08 -0.98,1.92 -2.06,1.92 -1.33,0 -1.73,-1.09 -1.91,-1.64 l -4.61,-15.09 c -0.03,-0.06 -0.17,-0.52 -0.17,-0.56 0,-0.41 1.08,-0.77 1.36,-0.77 0.25,0 0.28,0.08 0.52,0.59 z"
           id="path5140"
           inkscape:connector-curvature="0"
           style="fill:#000000;stroke-width:0" /></g>    </g>
    <g
       id="g5420"
       transform="matrix(0.23399596,0,0,0.23389368,276.69114,119.65174)">
      <g
         id="g5422"
         transform="matrix(1.0629921,0,0,-1.0629921,-186.02362,789.27165)"
         xml:space="preserve"
         stroke-miterlimit="10.433"
         font-style="normal"
         font-variant="normal"
         font-weight="normal"
         font-stretch="normal"
         font-size-adjust="none"
         letter-spacing="normal"
         word-spacing="normal"
         style="font-style:normal;font-variant:normal;font-weight:normal;font-stretch:normal;letter-spacing:normal;word-spacing:normal;text-anchor:start;fill:none;stroke:#000000;stroke-width:4.27451229;stroke-linecap:butt;stroke-linejoin:miter;stroke-miterlimit:10.43299961;stroke-opacity:1;stroke-dasharray:none;stroke-dashoffset:0"><path
           d="m 472.16,421.25 0.03,0.13 0.04,0.15 0.04,0.16 0.04,0.18 0.06,0.19 0.06,0.21 0.06,0.22 0.07,0.22 0.08,0.23 0.09,0.24 0.1,0.25 0.1,0.24 0.11,0.25 0.12,0.25 0.13,0.25 0.14,0.25 0.15,0.24 0.15,0.24 0.17,0.23 0.18,0.22 0.18,0.22 0.2,0.2 0.21,0.19 0.22,0.18 0.23,0.16 0.25,0.14 0.12,0.07 0.13,0.06 0.14,0.05 0.13,0.05 0.14,0.05 0.14,0.04 0.15,0.03 0.15,0.03 0.15,0.02 0.16,0.02 0.16,0.01 0.16,0 c 0.25,0 1.44,0 2.48,-0.64 -1.39,-0.25 -2.39,-1.5 -2.39,-2.69 0,-0.79 0.55,-1.75 1.89,-1.75 1.1,0 2.69,0.89 2.69,2.89 0,2.6 -2.94,3.28 -4.63,3.28 -2.89,0 -4.64,-2.64 -5.23,-3.78 -1.25,3.28 -3.94,3.78 -5.37,3.78 -5.19,0 -8.04,-6.42 -8.04,-7.67 0,-0.5 0.5,-0.5 0.61,-0.5 0.39,0 0.55,0.11 0.64,0.55 1.69,5.28 4.99,6.53 6.68,6.53 0.95,0 2.68,-0.44 2.68,-3.33 0,-1.54 -0.84,-4.89 -2.68,-11.86 -0.8,-3.09 -2.54,-5.18 -4.74,-5.18 -0.3,0 -1.44,0 -2.48,0.65 1.25,0.24 2.34,1.28 2.34,2.69 0,1.34 -1.09,1.73 -1.84,1.73 -1.5,0 -2.75,-1.29 -2.75,-2.89 0,-2.28 2.5,-3.28 4.68,-3.28 3.3,0 5.08,3.49 5.24,3.78 0.59,-1.84 2.39,-3.78 5.37,-3.78 5.14,0 7.99,6.42 7.99,7.67 0,0.5 -0.45,0.5 -0.61,0.5 -0.44,0 -0.55,-0.2 -0.64,-0.54 -1.64,-5.33 -5.03,-6.53 -6.63,-6.53 -1.95,0 -2.75,1.59 -2.75,3.29 0,1.1 0.3,2.19 0.86,4.38 z"
           id="path5424"
           inkscape:connector-curvature="0"
           style="fill:#000000;stroke-width:0" /></g>    </g>
    <g
       id="g5506"
       transform="matrix(0.23399596,0,0,0.23389368,273.13527,56.89505)">
      <g
         word-spacing="normal"
         letter-spacing="normal"
         font-size-adjust="none"
         font-stretch="normal"
         font-weight="normal"
         font-variant="normal"
         font-style="normal"
         stroke-miterlimit="10.433"
         xml:space="preserve"
         transform="matrix(1.0629921,0,0,-1.0629921,-186.02362,789.27165)"
         id="g5508"
         style="font-style:normal;font-variant:normal;font-weight:normal;font-stretch:normal;letter-spacing:normal;word-spacing:normal;text-anchor:start;fill:none;stroke:#000000;stroke-width:4.27451229;stroke-linecap:butt;stroke-linejoin:miter;stroke-miterlimit:10.43299961;stroke-opacity:1;stroke-dasharray:none;stroke-dashoffset:0"><path
           id="path5510"
           d="m 472.16,421.25 0.03,0.13 0.04,0.15 0.04,0.16 0.04,0.18 0.06,0.19 0.06,0.21 0.06,0.22 0.07,0.22 0.08,0.23 0.09,0.24 0.1,0.25 0.1,0.24 0.11,0.25 0.12,0.25 0.13,0.25 0.14,0.25 0.15,0.24 0.15,0.24 0.17,0.23 0.18,0.22 0.18,0.22 0.2,0.2 0.21,0.19 0.22,0.18 0.23,0.16 0.25,0.14 0.12,0.07 0.13,0.06 0.14,0.05 0.13,0.05 0.14,0.05 0.14,0.04 0.15,0.03 0.15,0.03 0.15,0.02 0.16,0.02 0.16,0.01 0.16,0 c 0.25,0 1.44,0 2.48,-0.64 -1.39,-0.25 -2.39,-1.5 -2.39,-2.69 0,-0.79 0.55,-1.75 1.89,-1.75 1.1,0 2.69,0.89 2.69,2.89 0,2.6 -2.94,3.28 -4.63,3.28 -2.89,0 -4.64,-2.64 -5.23,-3.78 -1.25,3.28 -3.94,3.78 -5.37,3.78 -5.19,0 -8.04,-6.42 -8.04,-7.67 0,-0.5 0.5,-0.5 0.61,-0.5 0.39,0 0.55,0.11 0.64,0.55 1.69,5.28 4.99,6.53 6.68,6.53 0.95,0 2.68,-0.44 2.68,-3.33 0,-1.54 -0.84,-4.89 -2.68,-11.86 -0.8,-3.09 -2.54,-5.18 -4.74,-5.18 -0.3,0 -1.44,0 -2.48,0.65 1.25,0.24 2.34,1.28 2.34,2.69 0,1.34 -1.09,1.73 -1.84,1.73 -1.5,0 -2.75,-1.29 -2.75,-2.89 0,-2.28 2.5,-3.28 4.68,-3.28 3.3,0 5.08,3.49 5.24,3.78 0.59,-1.84 2.39,-3.78 5.37,-3.78 5.14,0 7.99,6.42 7.99,7.67 0,0.5 -0.45,0.5 -0.61,0.5 -0.44,0 -0.55,-0.2 -0.64,-0.54 -1.64,-5.33 -5.03,-6.53 -6.63,-6.53 -1.95,0 -2.75,1.59 -2.75,3.29 0,1.1 0.3,2.19 0.86,4.38 z"
           inkscape:connector-curvature="0"
           style="fill:#000000;stroke-width:0" /><path
           id="path5512"
           d="m 494.07,440.65 0.03,0.06 0.02,0.05 0.02,0.05 0.02,0.05 0.02,0.04 0.02,0.05 0.02,0.04 0.02,0.04 0.01,0.05 0.02,0.04 0.01,0.03 0.01,0.04 0.01,0.04 0.01,0.03 0.01,0.04 0.01,0.03 0.01,0.03 0.01,0.03 0,0.03 0.01,0.03 0,0.03 0.01,0.03 0,0.03 0,0.02 0.01,0.06 0,0.05 0,0.04 0,0.05 c 0,1.08 -0.98,1.92 -2.06,1.92 -1.33,0 -1.73,-1.09 -1.91,-1.64 l -4.61,-15.09 c -0.03,-0.06 -0.17,-0.52 -0.17,-0.56 0,-0.41 1.08,-0.77 1.36,-0.77 0.25,0 0.28,0.08 0.52,0.59 z"
           inkscape:connector-curvature="0"
           style="fill:#000000;stroke-width:0" /></g>    </g>
    <g
       style="font-style:normal;font-variant:normal;font-weight:normal;font-stretch:normal;letter-spacing:normal;word-spacing:normal;text-anchor:start;fill:none;stroke:#000000;stroke-linecap:butt;stroke-linejoin:miter;stroke-miterlimit:10.43299961;stroke-opacity:1;stroke-dasharray:none;stroke-dashoffset:0"
       id="g6562"
       transform="matrix(1,0,0,-1,50.030308,872.25684)"
       xml:space="preserve"
       stroke-miterlimit="10.433"
       font-style="normal"
       font-variant="normal"
       font-weight="normal"
       font-stretch="normal"
       font-size-adjust="none"
       letter-spacing="normal"
       word-spacing="normal"
       ns0:text="$x\'_2$"
       ns0:preamble="">
<path
   style="fill:#000000;stroke-width:0"
   inkscape:connector-curvature="0"
   d="m 226.76,710.13 0.01,0.03 0,0.03 0.01,0.03 0.01,0.04 0.01,0.03 0.01,0.05 0.02,0.04 0.01,0.04 0.02,0.05 0.02,0.05 0.02,0.05 0.02,0.05 0.02,0.05 0.02,0.05 0.03,0.05 0.03,0.04 0.03,0.05 0.03,0.05 0.03,0.05 0.04,0.04 0.03,0.04 0.04,0.04 0.04,0.04 0.05,0.04 0.04,0.03 0.05,0.03 0.03,0.01 0.02,0.01 0.03,0.02 0.03,0.01 0.03,0 0.02,0.01 0.03,0.01 0.03,0 0.03,0.01 0.03,0 0.04,0 0.03,0 c 0.05,0 0.29,0 0.5,-0.12 -0.28,-0.05 -0.48,-0.3 -0.48,-0.54 0,-0.16 0.11,-0.35 0.38,-0.35 0.22,0 0.53,0.18 0.53,0.58 0,0.52 -0.58,0.65 -0.92,0.65 -0.58,0 -0.93,-0.52 -1.05,-0.75 -0.25,0.65 -0.79,0.75 -1.08,0.75 -1.03,0 -1.6,-1.28 -1.6,-1.53 0,-0.1 0.1,-0.1 0.12,-0.1 0.08,0 0.11,0.02 0.13,0.11 0.34,1.06 1,1.3 1.34,1.3 0.18,0 0.53,-0.08 0.53,-0.66 0,-0.31 -0.17,-0.98 -0.53,-2.37 -0.16,-0.62 -0.51,-1.04 -0.95,-1.04 -0.06,0 -0.29,0 -0.5,0.13 0.25,0.05 0.47,0.26 0.47,0.54 0,0.27 -0.22,0.35 -0.37,0.35 -0.3,0 -0.55,-0.26 -0.55,-0.58 0,-0.45 0.5,-0.65 0.94,-0.65 0.66,0 1.02,0.69 1.05,0.75 0.11,-0.37 0.47,-0.75 1.07,-0.75 1.03,0 1.6,1.28 1.6,1.53 0,0.1 -0.09,0.1 -0.12,0.1 -0.09,0 -0.11,-0.04 -0.13,-0.11 -0.33,-1.07 -1.01,-1.31 -1.33,-1.31 -0.39,0 -0.55,0.32 -0.55,0.66 0,0.22 0.06,0.44 0.17,0.88 z"
   id="path6564" />
<path
   style="fill:#000000;stroke-width:0"
   inkscape:connector-curvature="0"
   d="m 231.15,714.02 0,0.01 0.01,0.01 0,0.01 0,0.01 0.01,0.01 0,0.01 0.01,0.01 0,0.01 0,0.01 0,0.01 0.01,0 0,0.01 0,0.01 0,0.01 0.01,0 0,0.01 0,0.01 0,0 0,0.01 0,0 0,0.01 0,0.01 0.01,0 0,0.01 0,0.01 0,0.01 0,0.01 0,0 c 0,0.22 -0.2,0.39 -0.41,0.39 -0.27,0 -0.35,-0.22 -0.39,-0.33 l -0.92,-3.01 c 0,-0.01 -0.03,-0.11 -0.03,-0.11 0,-0.09 0.22,-0.15 0.27,-0.15 0.05,0 0.06,0.01 0.11,0.11 z"
   id="path6566" />
<path
   style="fill:#000000;stroke-width:0"
   inkscape:connector-curvature="0"
   d="m 232.64,705.92 h -0.23 c -0.03,-0.15 -0.09,-0.57 -0.18,-0.64 -0.06,-0.04 -0.6,-0.04 -0.69,-0.04 h -1.29 c 0.74,0.65 0.98,0.84 1.4,1.17 0.51,0.41 0.99,0.84 0.99,1.5 0,0.84 -0.74,1.36 -1.63,1.36 -0.86,0 -1.44,-0.61 -1.44,-1.25 0,-0.35 0.29,-0.38 0.36,-0.38 0.17,0 0.37,0.11 0.37,0.36 0,0.13 -0.05,0.37 -0.41,0.37 0.22,0.5 0.69,0.65 1.02,0.65 0.69,0 1.06,-0.54 1.06,-1.11 0,-0.6 -0.43,-1.08 -0.66,-1.33 l -1.68,-1.66 c -0.06,-0.06 -0.06,-0.07 -0.06,-0.27 h 2.86 z"
   id="path6568" />
</g>    <g
       style="font-style:normal;font-variant:normal;font-weight:normal;font-stretch:normal;letter-spacing:normal;word-spacing:normal;text-anchor:start;fill:none;stroke:#000000;stroke-linecap:butt;stroke-linejoin:miter;stroke-miterlimit:10.43299961;stroke-opacity:1;stroke-dasharray:none;stroke-dashoffset:0"
       ns0:preamble=""
       ns0:text="$x_2$"
       word-spacing="normal"
       letter-spacing="normal"
       font-size-adjust="none"
       font-stretch="normal"
       font-weight="normal"
       font-variant="normal"
       font-style="normal"
       stroke-miterlimit="10.433"
       xml:space="preserve"
       transform="matrix(1,0,0,-1,69.33719,915.27414)"
       id="g6712">
<path
   id="path6714"
   d="m 226.76,710.13 0.01,0.03 0,0.03 0.01,0.03 0.01,0.04 0.01,0.03 0.01,0.05 0.02,0.04 0.01,0.04 0.02,0.05 0.02,0.05 0.02,0.05 0.02,0.05 0.02,0.05 0.02,0.05 0.03,0.05 0.03,0.04 0.03,0.05 0.03,0.05 0.03,0.05 0.04,0.04 0.03,0.04 0.04,0.04 0.04,0.04 0.05,0.04 0.04,0.03 0.05,0.03 0.03,0.01 0.02,0.01 0.03,0.02 0.03,0.01 0.03,0 0.02,0.01 0.03,0.01 0.03,0 0.03,0.01 0.03,0 0.04,0 0.03,0 c 0.05,0 0.29,0 0.5,-0.12 -0.28,-0.05 -0.48,-0.3 -0.48,-0.54 0,-0.16 0.11,-0.35 0.38,-0.35 0.22,0 0.53,0.18 0.53,0.58 0,0.52 -0.58,0.65 -0.92,0.65 -0.58,0 -0.93,-0.52 -1.05,-0.75 -0.25,0.65 -0.79,0.75 -1.08,0.75 -1.03,0 -1.6,-1.28 -1.6,-1.53 0,-0.1 0.1,-0.1 0.12,-0.1 0.08,0 0.11,0.02 0.13,0.11 0.34,1.06 1,1.3 1.34,1.3 0.18,0 0.53,-0.08 0.53,-0.66 0,-0.31 -0.17,-0.98 -0.53,-2.37 -0.16,-0.62 -0.51,-1.04 -0.95,-1.04 -0.06,0 -0.29,0 -0.5,0.13 0.25,0.05 0.47,0.26 0.47,0.54 0,0.27 -0.22,0.35 -0.37,0.35 -0.3,0 -0.55,-0.26 -0.55,-0.58 0,-0.45 0.5,-0.65 0.94,-0.65 0.66,0 1.02,0.69 1.05,0.75 0.11,-0.37 0.47,-0.75 1.07,-0.75 1.03,0 1.6,1.28 1.6,1.53 0,0.1 -0.09,0.1 -0.12,0.1 -0.09,0 -0.11,-0.04 -0.13,-0.11 -0.33,-1.07 -1.01,-1.31 -1.33,-1.31 -0.39,0 -0.55,0.32 -0.55,0.66 0,0.22 0.06,0.44 0.17,0.88 z"
   inkscape:connector-curvature="0"
   style="fill:#000000;stroke-width:0" />
<path
   id="path6716"
   d="m 232.64,706.9 h -0.23 c -0.03,-0.16 -0.09,-0.57 -0.18,-0.64 -0.06,-0.04 -0.6,-0.04 -0.69,-0.04 h -1.29 c 0.74,0.65 0.98,0.84 1.4,1.17 0.51,0.41 0.99,0.84 0.99,1.5 0,0.84 -0.74,1.36 -1.63,1.36 -0.86,0 -1.44,-0.61 -1.44,-1.25 0,-0.35 0.29,-0.39 0.36,-0.39 0.17,0 0.37,0.12 0.37,0.37 0,0.13 -0.05,0.37 -0.41,0.37 0.22,0.49 0.69,0.65 1.02,0.65 0.69,0 1.06,-0.54 1.06,-1.11 0,-0.6 -0.43,-1.08 -0.66,-1.33 l -1.68,-1.66 c -0.06,-0.06 -0.06,-0.07 -0.06,-0.27 h 2.86 z"
   inkscape:connector-curvature="0"
   style="fill:#000000;stroke-width:0" />
</g>    <g
       id="g6864"
       transform="matrix(1,0,0,-1,-124.24124,867.2949)"
       xml:space="preserve"
       stroke-miterlimit="10.433"
       font-style="normal"
       font-variant="normal"
       font-weight="normal"
       font-stretch="normal"
       font-size-adjust="none"
       letter-spacing="normal"
       word-spacing="normal"
       ns0:text="$ct\'_2$"
       ns0:preamble=""
       style="font-style:normal;font-variant:normal;font-weight:normal;font-stretch:normal;letter-spacing:normal;word-spacing:normal;text-anchor:start;fill:none;stroke:#000000;stroke-linecap:butt;stroke-linejoin:miter;stroke-miterlimit:10.43299961;stroke-opacity:1;stroke-dasharray:none;stroke-dashoffset:0">
<path
   d="m 227.38,710.91 -0.03,0 -0.03,0 -0.03,0 -0.03,-0.01 -0.03,0 -0.02,0 -0.02,0 -0.01,0 -0.01,-0.01 -0.02,0 -0.01,0 -0.01,-0.01 -0.02,0 -0.01,-0.01 -0.01,0 -0.02,-0.01 -0.01,0 -0.01,-0.01 -0.02,-0.01 -0.01,-0.01 -0.01,-0.01 -0.02,-0.01 -0.01,-0.01 -0.01,-0.01 -0.02,-0.01 -0.01,-0.01 c -0.16,-0.15 -0.18,-0.32 -0.18,-0.39 0,-0.24 0.18,-0.35 0.37,-0.35 0.29,0 0.56,0.24 0.56,0.64 0,0.49 -0.47,0.85 -1.18,0.85 -1.34,0 -2.67,-1.42 -2.67,-2.82 0,-0.9 0.58,-1.68 1.62,-1.68 1.42,0 2.26,1.05 2.26,1.17 0,0.06 -0.06,0.13 -0.12,0.13 -0.05,0 -0.07,-0.02 -0.13,-0.1 -0.79,-0.99 -1.87,-0.99 -1.99,-0.99 -0.63,0 -0.9,0.49 -0.9,1.09 0,0.41 0.2,1.37 0.54,1.99 0.31,0.57 0.85,0.99 1.4,0.99 0.34,0 0.72,-0.12 0.86,-0.39 z"
   id="path6866"
   inkscape:connector-curvature="0"
   style="fill:#000000;stroke-width:0" />
<path
   d="m 229.8,711.11 h 0.93 c 0.2,0 0.3,0 0.3,0.19 0,0.11 -0.1,0.11 -0.28,0.11 h -0.87 c 0.36,1.42 0.41,1.62 0.41,1.68 0,0.17 -0.12,0.26 -0.29,0.26 -0.03,0 -0.31,-0.01 -0.4,-0.35 l -0.39,-1.59 h -0.94 c -0.2,0 -0.3,0 -0.3,-0.19 0,-0.11 0.08,-0.11 0.28,-0.11 h 0.88 c -0.72,-2.83 -0.76,-3 -0.76,-3.18 0,-0.54 0.38,-0.91 0.92,-0.91 1.02,0 1.58,1.45 1.58,1.53 0,0.1 -0.08,0.1 -0.12,0.1 -0.09,0 -0.1,-0.03 -0.15,-0.14 -0.42,-1.04 -0.95,-1.28 -1.29,-1.28 -0.21,0 -0.31,0.13 -0.31,0.46 0,0.24 0.02,0.31 0.06,0.48 z"
   id="path6868"
   inkscape:connector-curvature="0"
   style="fill:#000000;stroke-width:0" />
<path
   d="m 233.36,714.02 0.01,0.01 0,0.01 0.01,0.01 0,0.01 0,0.01 0.01,0.01 0,0.01 0,0.01 0.01,0.01 0,0.01 0,0 0,0.01 0.01,0.01 0,0.01 0,0 0,0.01 0,0.01 0.01,0 0,0.01 0,0 0,0.01 0,0.01 0,0 0,0.01 0,0.01 0,0.01 0,0.01 0,0 c 0,0.22 -0.19,0.39 -0.41,0.39 -0.26,0 -0.35,-0.22 -0.38,-0.33 l -0.92,-3.01 c -0.01,-0.01 -0.03,-0.11 -0.03,-0.11 0,-0.09 0.21,-0.15 0.27,-0.15 0.05,0 0.05,0.01 0.1,0.11 z"
   id="path6870"
   inkscape:connector-curvature="0"
   style="fill:#000000;stroke-width:0" />
<path
   d="m 234.86,705.92 h -0.24 c -0.02,-0.15 -0.09,-0.57 -0.18,-0.64 -0.06,-0.04 -0.59,-0.04 -0.69,-0.04 h -1.28 c 0.73,0.65 0.97,0.84 1.39,1.17 0.52,0.41 1,0.84 1,1.5 0,0.84 -0.74,1.36 -1.63,1.36 -0.86,0 -1.45,-0.61 -1.45,-1.25 0,-0.35 0.3,-0.38 0.37,-0.38 0.17,0 0.37,0.11 0.37,0.36 0,0.13 -0.05,0.37 -0.41,0.37 0.21,0.5 0.69,0.65 1.01,0.65 0.7,0 1.06,-0.54 1.06,-1.11 0,-0.6 -0.43,-1.08 -0.65,-1.33 l -1.68,-1.66 c -0.07,-0.06 -0.07,-0.07 -0.07,-0.27 h 2.87 z"
   id="path6872"
   inkscape:connector-curvature="0"
   style="fill:#000000;stroke-width:0" />
</g>    <g
       style="font-style:normal;font-variant:normal;font-weight:normal;font-stretch:normal;letter-spacing:normal;word-spacing:normal;text-anchor:start;fill:none;stroke:#000000;stroke-linecap:butt;stroke-linejoin:miter;stroke-miterlimit:10.43299961;stroke-opacity:1;stroke-dasharray:none;stroke-dashoffset:0"
       ns0:preamble=""
       ns0:text="$ct_2$"
       word-spacing="normal"
       letter-spacing="normal"
       font-size-adjust="none"
       font-stretch="normal"
       font-weight="normal"
       font-variant="normal"
       font-style="normal"
       stroke-miterlimit="10.433"
       xml:space="preserve"
       transform="matrix(1,0,0,-1,-126.08191,815.25957)"
       id="g7010">
<path
   id="path7012"
   d="m 227.38,710.91 -0.03,0 -0.03,0 -0.03,0 -0.03,-0.01 -0.03,0 -0.02,0 -0.02,0 -0.01,0 -0.01,-0.01 -0.02,0 -0.01,0 -0.01,-0.01 -0.02,0 -0.01,-0.01 -0.01,0 -0.02,-0.01 -0.01,0 -0.01,-0.01 -0.02,-0.01 -0.01,-0.01 -0.01,-0.01 -0.02,-0.01 -0.01,-0.01 -0.01,-0.01 -0.02,-0.01 -0.01,-0.01 c -0.16,-0.15 -0.18,-0.32 -0.18,-0.39 0,-0.24 0.18,-0.35 0.37,-0.35 0.29,0 0.56,0.24 0.56,0.64 0,0.49 -0.47,0.85 -1.18,0.85 -1.34,0 -2.67,-1.42 -2.67,-2.82 0,-0.9 0.58,-1.68 1.62,-1.68 1.42,0 2.26,1.05 2.26,1.17 0,0.06 -0.06,0.13 -0.12,0.13 -0.05,0 -0.07,-0.02 -0.13,-0.1 -0.79,-0.99 -1.87,-0.99 -1.99,-0.99 -0.63,0 -0.9,0.49 -0.9,1.09 0,0.41 0.2,1.37 0.54,1.99 0.31,0.57 0.85,0.99 1.4,0.99 0.34,0 0.72,-0.12 0.86,-0.39 z"
   inkscape:connector-curvature="0"
   style="fill:#000000;stroke-width:0" />
<path
   id="path7014"
   d="m 229.8,711.11 h 0.93 c 0.2,0 0.3,0 0.3,0.19 0,0.11 -0.1,0.11 -0.28,0.11 h -0.87 c 0.36,1.42 0.41,1.62 0.41,1.68 0,0.17 -0.12,0.26 -0.29,0.26 -0.03,0 -0.31,-0.01 -0.4,-0.35 l -0.39,-1.59 h -0.94 c -0.2,0 -0.3,0 -0.3,-0.19 0,-0.11 0.08,-0.11 0.28,-0.11 h 0.88 c -0.72,-2.83 -0.76,-3 -0.76,-3.18 0,-0.54 0.38,-0.91 0.92,-0.91 1.02,0 1.58,1.45 1.58,1.53 0,0.1 -0.08,0.1 -0.12,0.1 -0.09,0 -0.1,-0.03 -0.15,-0.14 -0.42,-1.04 -0.95,-1.28 -1.29,-1.28 -0.21,0 -0.31,0.13 -0.31,0.46 0,0.24 0.02,0.31 0.06,0.48 z"
   inkscape:connector-curvature="0"
   style="fill:#000000;stroke-width:0" />
<path
   id="path7016"
   d="m 234.86,706.9 h -0.24 c -0.02,-0.16 -0.09,-0.57 -0.18,-0.64 -0.06,-0.04 -0.59,-0.04 -0.69,-0.04 h -1.28 c 0.73,0.65 0.97,0.84 1.39,1.17 0.52,0.41 1,0.84 1,1.5 0,0.84 -0.74,1.36 -1.63,1.36 -0.86,0 -1.45,-0.61 -1.45,-1.25 0,-0.35 0.3,-0.39 0.37,-0.39 0.17,0 0.37,0.12 0.37,0.37 0,0.13 -0.05,0.37 -0.41,0.37 0.21,0.49 0.69,0.65 1.01,0.65 0.7,0 1.06,-0.54 1.06,-1.11 0,-0.6 -0.43,-1.08 -0.65,-1.33 l -1.68,-1.66 c -0.07,-0.06 -0.07,-0.07 -0.07,-0.27 h 2.87 z"
   inkscape:connector-curvature="0"
   style="fill:#000000;stroke-width:0" />
</g>    <path
       inkscape:connector-curvature="0"
       id="path3439-4"
       d="m 201.09492,117.30136 -90.58653,0"
       style="fill:none;stroke:#ff0000;stroke-width:0.99999988px;stroke-linecap:butt;stroke-linejoin:miter;stroke-opacity:1" />
    <path
       inkscape:connector-curvature="0"
       id="path3441-0"
       d="m 200.67802,116.58757 0,85.37374"
       style="fill:none;stroke:#ff0000;stroke-width:0.99999988px;stroke-linecap:butt;stroke-linejoin:miter;stroke-opacity:1" />
    <path
       inkscape:connector-curvature="0"
       id="path2991-7-5-6"
       d="m 200.43249,116.88768 -14.0388,65.08955"
       style="fill:none;stroke:#ff0000;stroke-width:0.99999988;stroke-linecap:butt;stroke-linejoin:miter;stroke-miterlimit:4;stroke-opacity:1;stroke-dasharray:2.99999987, 2.99999987;stroke-dashoffset:0" />
    <path
       inkscape:connector-curvature="0"
       id="path2991-0-0"
       d="m 128.86023,138.22183 72.45111,-20.92048"
       style="fill:none;stroke:#ff0000;stroke-width:0.99999988;stroke-linecap:butt;stroke-linejoin:miter;stroke-miterlimit:4;stroke-opacity:1;stroke-dasharray:2.99999985, 2.99999985;stroke-dashoffset:0" />
    <g
       style="font-style:normal;font-variant:normal;font-weight:normal;font-stretch:normal;letter-spacing:normal;word-spacing:normal;text-anchor:start;fill:none;stroke:#000000;stroke-linecap:butt;stroke-linejoin:miter;stroke-miterlimit:10.43299961;stroke-opacity:1;stroke-dasharray:none;stroke-dashoffset:0"
       ns0:preamble=""
       ns0:text="$ct_1$"
       word-spacing="normal"
       letter-spacing="normal"
       font-size-adjust="none"
       font-stretch="normal"
       font-weight="normal"
       font-variant="normal"
       font-style="normal"
       stroke-miterlimit="10.433"
       xml:space="preserve"
       transform="matrix(1,0,0,-1,-125.75903,828.5716)"
       id="g7327">
<path
   id="path7329"
   d="m 227.38,710.91 -0.03,0 -0.03,0 -0.03,0 -0.03,-0.01 -0.03,0 -0.02,0 -0.02,0 -0.01,0 -0.01,-0.01 -0.02,0 -0.01,0 -0.01,-0.01 -0.02,0 -0.01,-0.01 -0.01,0 -0.02,-0.01 -0.01,0 -0.01,-0.01 -0.02,-0.01 -0.01,-0.01 -0.01,-0.01 -0.02,-0.01 -0.01,-0.01 -0.01,-0.01 -0.02,-0.01 -0.01,-0.01 c -0.16,-0.15 -0.18,-0.32 -0.18,-0.39 0,-0.24 0.18,-0.35 0.37,-0.35 0.29,0 0.56,0.24 0.56,0.64 0,0.49 -0.47,0.85 -1.18,0.85 -1.34,0 -2.67,-1.42 -2.67,-2.82 0,-0.9 0.58,-1.68 1.62,-1.68 1.42,0 2.26,1.05 2.26,1.17 0,0.06 -0.06,0.13 -0.12,0.13 -0.05,0 -0.07,-0.02 -0.13,-0.1 -0.79,-0.99 -1.87,-0.99 -1.99,-0.99 -0.63,0 -0.9,0.49 -0.9,1.09 0,0.41 0.2,1.37 0.54,1.99 0.31,0.57 0.85,0.99 1.4,0.99 0.34,0 0.72,-0.12 0.86,-0.39 z"
   inkscape:connector-curvature="0"
   style="fill:#000000;stroke-width:0" />
<path
   id="path7331"
   d="m 229.8,711.11 h 0.93 c 0.2,0 0.3,0 0.3,0.19 0,0.11 -0.1,0.11 -0.28,0.11 h -0.87 c 0.36,1.42 0.41,1.62 0.41,1.68 0,0.17 -0.12,0.26 -0.29,0.26 -0.03,0 -0.31,-0.01 -0.4,-0.35 l -0.39,-1.59 h -0.94 c -0.2,0 -0.3,0 -0.3,-0.19 0,-0.11 0.08,-0.11 0.28,-0.11 h 0.88 c -0.72,-2.83 -0.76,-3 -0.76,-3.18 0,-0.54 0.38,-0.91 0.92,-0.91 1.02,0 1.58,1.45 1.58,1.53 0,0.1 -0.08,0.1 -0.12,0.1 -0.09,0 -0.1,-0.03 -0.15,-0.14 -0.42,-1.04 -0.95,-1.28 -1.29,-1.28 -0.21,0 -0.31,0.13 -0.31,0.46 0,0.24 0.02,0.31 0.06,0.48 z"
   inkscape:connector-curvature="0"
   style="fill:#000000;stroke-width:0" />
<path
   id="path7333"
   d="m 233.67,710.05 0,0.01 0,0.01 0,0.01 0,0.01 0,0 0,0.01 0,0.01 0,0.01 0,0 0,0.01 0,0 0,0.01 0,0.01 0,0 0,0.01 0,0 0,0.01 0,0 -0.01,0.01 0,0.01 0,0.01 0,0 -0.01,0.01 0,0.01 -0.01,0 0,0.01 -0.01,0 -0.01,0 0,0.01 -0.01,0 -0.01,0 -0.01,0 0,0 -0.01,0 -0.01,0 0,0.01 -0.01,0 0,0 -0.01,0 -0.01,0 0,0 -0.01,0 -0.01,0 0,0 -0.01,0 -0.01,0 -0.01,0 -0.01,0 -0.01,0 -0.01,0 c -0.44,-0.44 -1.07,-0.45 -1.36,-0.45 v -0.25 c 0.17,0 0.63,0 1.01,0.2 v -3.55 c 0,-0.23 0,-0.32 -0.7,-0.32 h -0.26 v -0.25 c 0.12,0.01 0.98,0.03 1.24,0.03 0.21,0 1.09,-0.02 1.24,-0.03 v 0.25 h -0.26 c -0.7,0 -0.7,0.09 -0.7,0.32 z"
   inkscape:connector-curvature="0"
   style="fill:#000000;stroke-width:0" />
</g>    <path
       transform="matrix(0.29477769,0,0,0.29537448,143.08701,88.981406)"
       d="m 198.1228,98.049194 a 3.3880935,3.3880935 0 1 1 -6.77618,0 3.3880935,3.3880935 0 1 1 6.77618,0 z"
       sodipodi:ry="3.3880935"
       sodipodi:rx="3.3880935"
       sodipodi:cy="98.049194"
       sodipodi:cx="194.73471"
       id="path3437-9"
       style="fill:#ff0000;stroke:#ff0000;stroke-width:3.38895822;stroke-linecap:butt;stroke-linejoin:miter;stroke-miterlimit:4;stroke-opacity:1;stroke-dasharray:none;stroke-dashoffset:0"
       sodipodi:type="arc" />
    <g
       id="g7514"
       transform="matrix(1,0,0,-1,-125.1306,850.41973)"
       xml:space="preserve"
       stroke-miterlimit="10.433"
       font-style="normal"
       font-variant="normal"
       font-weight="normal"
       font-stretch="normal"
       font-size-adjust="none"
       letter-spacing="normal"
       word-spacing="normal"
       ns0:text="$ct\'_1$"
       ns0:preamble=""
       style="font-style:normal;font-variant:normal;font-weight:normal;font-stretch:normal;letter-spacing:normal;word-spacing:normal;text-anchor:start;fill:none;stroke:#000000;stroke-linecap:butt;stroke-linejoin:miter;stroke-miterlimit:10.43299961;stroke-opacity:1;stroke-dasharray:none;stroke-dashoffset:0">
<path
   d="m 227.38,710.91 -0.03,0 -0.03,0 -0.03,0 -0.03,-0.01 -0.03,0 -0.02,0 -0.02,0 -0.01,0 -0.01,-0.01 -0.02,0 -0.01,0 -0.01,-0.01 -0.02,0 -0.01,-0.01 -0.01,0 -0.02,-0.01 -0.01,0 -0.01,-0.01 -0.02,-0.01 -0.01,-0.01 -0.01,-0.01 -0.02,-0.01 -0.01,-0.01 -0.01,-0.01 -0.02,-0.01 -0.01,-0.01 c -0.16,-0.15 -0.18,-0.32 -0.18,-0.39 0,-0.24 0.18,-0.35 0.37,-0.35 0.29,0 0.56,0.24 0.56,0.64 0,0.49 -0.47,0.85 -1.18,0.85 -1.34,0 -2.67,-1.42 -2.67,-2.82 0,-0.9 0.58,-1.68 1.62,-1.68 1.42,0 2.26,1.05 2.26,1.17 0,0.06 -0.06,0.13 -0.12,0.13 -0.05,0 -0.07,-0.02 -0.13,-0.1 -0.79,-0.99 -1.87,-0.99 -1.99,-0.99 -0.63,0 -0.9,0.49 -0.9,1.09 0,0.41 0.2,1.37 0.54,1.99 0.31,0.57 0.85,0.99 1.4,0.99 0.34,0 0.72,-0.12 0.86,-0.39 z"
   id="path7516"
   inkscape:connector-curvature="0"
   style="fill:#000000;stroke-width:0" />
<path
   d="m 229.8,711.11 h 0.93 c 0.2,0 0.3,0 0.3,0.19 0,0.11 -0.1,0.11 -0.28,0.11 h -0.87 c 0.36,1.42 0.41,1.62 0.41,1.68 0,0.17 -0.12,0.26 -0.29,0.26 -0.03,0 -0.31,-0.01 -0.4,-0.35 l -0.39,-1.59 h -0.94 c -0.2,0 -0.3,0 -0.3,-0.19 0,-0.11 0.08,-0.11 0.28,-0.11 h 0.88 c -0.72,-2.83 -0.76,-3 -0.76,-3.18 0,-0.54 0.38,-0.91 0.92,-0.91 1.02,0 1.58,1.45 1.58,1.53 0,0.1 -0.08,0.1 -0.12,0.1 -0.09,0 -0.1,-0.03 -0.15,-0.14 -0.42,-1.04 -0.95,-1.28 -1.29,-1.28 -0.21,0 -0.31,0.13 -0.31,0.46 0,0.24 0.02,0.31 0.06,0.48 z"
   id="path7518"
   inkscape:connector-curvature="0"
   style="fill:#000000;stroke-width:0" />
<path
   d="m 233.36,714.02 0.01,0.01 0,0.01 0.01,0.01 0,0.01 0,0.01 0.01,0.01 0,0.01 0,0.01 0.01,0.01 0,0.01 0,0 0,0.01 0.01,0.01 0,0.01 0,0 0,0.01 0,0.01 0.01,0 0,0.01 0,0 0,0.01 0,0.01 0,0 0,0.01 0,0.01 0,0.01 0,0.01 0,0 c 0,0.22 -0.19,0.39 -0.41,0.39 -0.26,0 -0.35,-0.22 -0.38,-0.33 l -0.92,-3.01 c -0.01,-0.01 -0.03,-0.11 -0.03,-0.11 0,-0.09 0.21,-0.15 0.27,-0.15 0.05,0 0.05,0.01 0.1,0.11 z"
   id="path7520"
   inkscape:connector-curvature="0"
   style="fill:#000000;stroke-width:0" />
<path
   d="m 233.67,709.07 0,0.01 0,0.01 0,0.01 0,0.01 0,0 0,0.01 0,0.01 0,0.01 0,0 0,0.01 0,0.01 0,0 0,0.01 0,0 0,0.01 0,0 0,0.01 0,0 -0.01,0.01 0,0.01 0,0.01 0,0.01 -0.01,0 0,0.01 -0.01,0 0,0.01 -0.01,0 -0.01,0 0,0.01 -0.01,0 -0.01,0 -0.01,0 0,0 -0.01,0 -0.01,0.01 0,0 -0.01,0 0,0 -0.01,0 -0.01,0 0,0 -0.01,0 -0.01,0 0,0 -0.01,0 -0.01,0 -0.01,0 -0.01,0 -0.01,0 -0.01,0 c -0.44,-0.44 -1.07,-0.45 -1.36,-0.45 v -0.25 c 0.17,0 0.63,0 1.01,0.2 v -3.55 c 0,-0.23 0,-0.32 -0.7,-0.32 h -0.26 v -0.25 c 0.12,0.01 0.98,0.03 1.24,0.03 0.21,0 1.09,-0.02 1.24,-0.03 v 0.25 h -0.26 c -0.7,0 -0.7,0.09 -0.7,0.32 z"
   id="path7522"
   inkscape:connector-curvature="0"
   style="fill:#000000;stroke-width:0" />
</g>    <path
       inkscape:connector-curvature="0"
       id="path7594"
       d="m 110.62252,140.19762 13.21364,-1.50821"
       style="fill:none;stroke:#000000;stroke-width:0.7;stroke-linecap:butt;stroke-linejoin:miter;stroke-opacity:1;marker-end:url(#Arrow1SendAe);stroke-miterlimit:4;stroke-dasharray:none" />
    <path
       inkscape:connector-curvature="0"
       id="path7594-0"
       d="m 111.04713,156.74282 12.43657,-5.07374"
       style="fill:none;stroke:#000000;stroke-width:0.7;stroke-linecap:butt;stroke-linejoin:miter;stroke-opacity:1;marker-end:url(#Arrow1SendAe);stroke-miterlimit:4;stroke-dasharray:none" />
    <g
       id="g8610"
       transform="matrix(1,0,0,-1,-41.017332,897.47965)"
       xml:space="preserve"
       stroke-miterlimit="10.433"
       font-style="normal"
       font-variant="normal"
       font-weight="normal"
       font-stretch="normal"
       font-size-adjust="none"
       letter-spacing="normal"
       word-spacing="normal"
       ns0:text="$x\'_1$"
       ns0:preamble=""
       style="font-style:normal;font-variant:normal;font-weight:normal;font-stretch:normal;letter-spacing:normal;word-spacing:normal;text-anchor:start;fill:none;stroke:#000000;stroke-linecap:butt;stroke-linejoin:miter;stroke-miterlimit:10.43299961;stroke-opacity:1;stroke-dasharray:none;stroke-dashoffset:0">
<path
   d="m 226.76,710.13 0.01,0.03 0,0.03 0.01,0.03 0.01,0.04 0.01,0.03 0.01,0.05 0.02,0.04 0.01,0.04 0.02,0.05 0.02,0.05 0.02,0.05 0.02,0.05 0.02,0.05 0.02,0.05 0.03,0.05 0.03,0.04 0.03,0.05 0.03,0.05 0.03,0.05 0.04,0.04 0.03,0.04 0.04,0.04 0.04,0.04 0.05,0.04 0.04,0.03 0.05,0.03 0.03,0.01 0.02,0.01 0.03,0.02 0.03,0.01 0.03,0 0.02,0.01 0.03,0.01 0.03,0 0.03,0.01 0.03,0 0.04,0 0.03,0 c 0.05,0 0.29,0 0.5,-0.12 -0.28,-0.05 -0.48,-0.3 -0.48,-0.54 0,-0.16 0.11,-0.35 0.38,-0.35 0.22,0 0.53,0.18 0.53,0.58 0,0.52 -0.58,0.65 -0.92,0.65 -0.58,0 -0.93,-0.52 -1.05,-0.75 -0.25,0.65 -0.79,0.75 -1.08,0.75 -1.03,0 -1.6,-1.28 -1.6,-1.53 0,-0.1 0.1,-0.1 0.12,-0.1 0.08,0 0.11,0.02 0.13,0.11 0.34,1.06 1,1.3 1.34,1.3 0.18,0 0.53,-0.08 0.53,-0.66 0,-0.31 -0.17,-0.98 -0.53,-2.37 -0.16,-0.62 -0.51,-1.04 -0.95,-1.04 -0.06,0 -0.29,0 -0.5,0.13 0.25,0.05 0.47,0.26 0.47,0.54 0,0.27 -0.22,0.35 -0.37,0.35 -0.3,0 -0.55,-0.26 -0.55,-0.58 0,-0.45 0.5,-0.65 0.94,-0.65 0.66,0 1.02,0.69 1.05,0.75 0.11,-0.37 0.47,-0.75 1.07,-0.75 1.03,0 1.6,1.28 1.6,1.53 0,0.1 -0.09,0.1 -0.12,0.1 -0.09,0 -0.11,-0.04 -0.13,-0.11 -0.33,-1.07 -1.01,-1.31 -1.33,-1.31 -0.39,0 -0.55,0.32 -0.55,0.66 0,0.22 0.06,0.44 0.17,0.88 z"
   id="path8612"
   inkscape:connector-curvature="0"
   style="fill:#000000;stroke-width:0" />
<path
   d="m 231.15,714.02 0,0.01 0.01,0.01 0,0.01 0,0.01 0.01,0.01 0,0.01 0.01,0.01 0,0.01 0,0.01 0,0.01 0.01,0 0,0.01 0,0.01 0,0.01 0.01,0 0,0.01 0,0.01 0,0 0,0.01 0,0 0,0.01 0,0.01 0.01,0 0,0.01 0,0.01 0,0.01 0,0.01 0,0 c 0,0.22 -0.2,0.39 -0.41,0.39 -0.27,0 -0.35,-0.22 -0.39,-0.33 l -0.92,-3.01 c 0,-0.01 -0.03,-0.11 -0.03,-0.11 0,-0.09 0.22,-0.15 0.27,-0.15 0.05,0 0.06,0.01 0.11,0.11 z"
   id="path8614"
   inkscape:connector-curvature="0"
   style="fill:#000000;stroke-width:0" />
<path
   d="m 231.46,709.07 0,0.01 0,0.01 0,0.01 0,0.01 0,0 0,0.01 0,0.01 0,0.01 0,0 0,0.01 0,0.01 0,0 0,0.01 0,0 -0.01,0.01 0,0 0,0.01 0,0 0,0.01 0,0.01 -0.01,0.01 0,0.01 0,0 -0.01,0.01 0,0 -0.01,0.01 0,0 -0.01,0 -0.01,0.01 -0.01,0 -0.01,0 0,0 -0.01,0 -0.01,0 0,0.01 -0.01,0 0,0 -0.01,0 0,0 -0.01,0 -0.01,0 -0.01,0 0,0 -0.01,0 -0.01,0 -0.01,0 0,0 -0.01,0 -0.01,0 -0.01,0 c -0.45,-0.44 -1.08,-0.45 -1.37,-0.45 v -0.25 c 0.17,0 0.63,0 1.02,0.2 v -3.55 c 0,-0.23 0,-0.32 -0.7,-0.32 h -0.27 v -0.25 c 0.13,0.01 0.99,0.03 1.24,0.03 0.22,0 1.1,-0.02 1.25,-0.03 v 0.25 h -0.26 c -0.7,0 -0.7,0.09 -0.7,0.32 z"
   id="path8616"
   inkscape:connector-curvature="0"
   style="fill:#000000;stroke-width:0" />
</g>    <g
       style="font-style:normal;font-variant:normal;font-weight:normal;font-stretch:normal;letter-spacing:normal;word-spacing:normal;text-anchor:start;fill:none;stroke:#000000;stroke-linecap:butt;stroke-linejoin:miter;stroke-miterlimit:10.43299961;stroke-opacity:1;stroke-dasharray:none;stroke-dashoffset:0"
       ns0:preamble=""
       ns0:text="$x_1$"
       word-spacing="normal"
       letter-spacing="normal"
       font-size-adjust="none"
       font-stretch="normal"
       font-weight="normal"
       font-variant="normal"
       font-style="normal"
       stroke-miterlimit="10.433"
       xml:space="preserve"
       transform="matrix(1,0,0,-1,-25.953274,916.00262)"
       id="g8807">
<path
   id="path8809"
   d="m 226.76,710.13 0.01,0.03 0,0.03 0.01,0.03 0.01,0.04 0.01,0.03 0.01,0.05 0.02,0.04 0.01,0.04 0.02,0.05 0.02,0.05 0.02,0.05 0.02,0.05 0.02,0.05 0.02,0.05 0.03,0.05 0.03,0.04 0.03,0.05 0.03,0.05 0.03,0.05 0.04,0.04 0.03,0.04 0.04,0.04 0.04,0.04 0.05,0.04 0.04,0.03 0.05,0.03 0.03,0.01 0.02,0.01 0.03,0.02 0.03,0.01 0.03,0 0.02,0.01 0.03,0.01 0.03,0 0.03,0.01 0.03,0 0.04,0 0.03,0 c 0.05,0 0.29,0 0.5,-0.12 -0.28,-0.05 -0.48,-0.3 -0.48,-0.54 0,-0.16 0.11,-0.35 0.38,-0.35 0.22,0 0.53,0.18 0.53,0.58 0,0.52 -0.58,0.65 -0.92,0.65 -0.58,0 -0.93,-0.52 -1.05,-0.75 -0.25,0.65 -0.79,0.75 -1.08,0.75 -1.03,0 -1.6,-1.28 -1.6,-1.53 0,-0.1 0.1,-0.1 0.12,-0.1 0.08,0 0.11,0.02 0.13,0.11 0.34,1.06 1,1.3 1.34,1.3 0.18,0 0.53,-0.08 0.53,-0.66 0,-0.31 -0.17,-0.98 -0.53,-2.37 -0.16,-0.62 -0.51,-1.04 -0.95,-1.04 -0.06,0 -0.29,0 -0.5,0.13 0.25,0.05 0.47,0.26 0.47,0.54 0,0.27 -0.22,0.35 -0.37,0.35 -0.3,0 -0.55,-0.26 -0.55,-0.58 0,-0.45 0.5,-0.65 0.94,-0.65 0.66,0 1.02,0.69 1.05,0.75 0.11,-0.37 0.47,-0.75 1.07,-0.75 1.03,0 1.6,1.28 1.6,1.53 0,0.1 -0.09,0.1 -0.12,0.1 -0.09,0 -0.11,-0.04 -0.13,-0.11 -0.33,-1.07 -1.01,-1.31 -1.33,-1.31 -0.39,0 -0.55,0.32 -0.55,0.66 0,0.22 0.06,0.44 0.17,0.88 z"
   inkscape:connector-curvature="0"
   style="fill:#000000;stroke-width:0" />
<path
   id="path8811"
   d="m 231.46,710.05 0,0.01 0,0.01 0,0.01 0,0.01 0,0 0,0.01 0,0.01 0,0.01 0,0 0,0.01 0,0 0,0.01 0,0.01 0,0 -0.01,0.01 0,0 0,0.01 0,0 0,0.01 0,0.01 -0.01,0.01 0,0 0,0.01 -0.01,0.01 0,0 -0.01,0.01 0,0 -0.01,0 -0.01,0.01 -0.01,0 -0.01,0 0,0 -0.01,0 -0.01,0 0,0 -0.01,0.01 0,0 -0.01,0 0,0 -0.01,0 -0.01,0 -0.01,0 0,0 -0.01,0 -0.01,0 -0.01,0 0,0 -0.01,0 -0.01,0 -0.01,0 c -0.45,-0.44 -1.08,-0.45 -1.37,-0.45 v -0.25 c 0.17,0 0.63,0 1.02,0.2 v -3.55 c 0,-0.23 0,-0.32 -0.7,-0.32 h -0.27 v -0.25 c 0.13,0.01 0.99,0.03 1.24,0.03 0.22,0 1.1,-0.02 1.25,-0.03 v 0.25 h -0.26 c -0.7,0 -0.7,0.09 -0.7,0.32 z"
   inkscape:connector-curvature="0"
   style="fill:#000000;stroke-width:0" />
</g>  </g>
</svg>
