<?xml version="1.0" encoding="UTF-8" standalone="no"?>
<!-- Created with Inkscape (http://www.inkscape.org/) -->

<svg
   xmlns:ns0="http://www.iki.fi/pav/software/textext/"
   xmlns:dc="http://purl.org/dc/elements/1.1/"
   xmlns:cc="http://creativecommons.org/ns#"
   xmlns:rdf="http://www.w3.org/1999/02/22-rdf-syntax-ns#"
   xmlns:svg="http://www.w3.org/2000/svg"
   xmlns="http://www.w3.org/2000/svg"
   xmlns:sodipodi="http://sodipodi.sourceforge.net/DTD/sodipodi-0.dtd"
   xmlns:inkscape="http://www.inkscape.org/namespaces/inkscape"
   inkscape:version="0.48.2 r9819"
   version="1.1"
   id="svg2"
   height="159.5782"
   width="271.44885"
   sodipodi:docname="New document 1">
  <sodipodi:namedview
     id="base"
     pagecolor="#ffffff"
     bordercolor="#666666"
     borderopacity="1.0"
     inkscape:pageopacity="0.0"
     inkscape:pageshadow="2"
     inkscape:zoom="1.9233207"
     inkscape:cx="79.089622"
     inkscape:cy="95.495679"
     inkscape:document-units="px"
     inkscape:current-layer="layer1"
     showgrid="false"
     inkscape:window-width="1366"
     inkscape:window-height="743"
     inkscape:window-x="0"
     inkscape:window-y="3"
     inkscape:window-maximized="1"
     fit-margin-top="0"
     fit-margin-left="0"
     fit-margin-right="0"
     fit-margin-bottom="0" />
  <defs
     id="defs4">
    <marker
       style="overflow:visible"
       id="Arrow1Sstart"
       refX="0"
       refY="0"
       orient="auto"
       inkscape:stockid="Arrow1Sstart">
      <path
         transform="matrix(0.2,0,0,0.2,1.2,0)"
         style="fill-rule:evenodd;stroke:#000000;stroke-width:1pt;marker-start:none"
         d="M 0,0 5,-5 -12.5,0 5,5 0,0 z"
         id="path3874"
         inkscape:connector-curvature="0" />
    </marker>
    <marker
       style="overflow:visible"
       id="Arrow1Send"
       refX="0"
       refY="0"
       orient="auto"
       inkscape:stockid="Arrow1Send">
      <path
         transform="matrix(-0.2,0,0,-0.2,-1.2,0)"
         style="fill-rule:evenodd;stroke:#000000;stroke-width:1pt;marker-start:none"
         d="M 0,0 5,-5 -12.5,0 5,5 0,0 z"
         id="path3877"
         inkscape:connector-curvature="0" />
    </marker>
    <marker
       style="overflow:visible"
       id="Arrow1Mend"
       refX="0"
       refY="0"
       orient="auto"
       inkscape:stockid="Arrow1Mend">
      <path
         transform="matrix(-0.4,0,0,-0.4,-4,0)"
         style="fill-rule:evenodd;stroke:#000000;stroke-width:1pt;marker-start:none"
         d="M 0,0 5,-5 -12.5,0 5,5 0,0 z"
         id="path3871"
         inkscape:connector-curvature="0" />
    </marker>
  </defs>
  <metadata
     id="metadata7">
    <rdf:RDF>
      <cc:Work
         rdf:about="">
        <dc:format>image/svg+xml</dc:format>
        <dc:type
           rdf:resource="http://purl.org/dc/dcmitype/StillImage" />
        <dc:title></dc:title>
      </cc:Work>
    </rdf:RDF>
  </metadata>
  <g
     id="layer1"
     inkscape:groupmode="layer"
     inkscape:label="Layer 1"
     transform="translate(-146.82488,-85.516738)">
    <path
       inkscape:connector-curvature="0"
       style="fill:none;stroke:#0000ff;stroke-width:0.99999994;stroke-linecap:butt;stroke-linejoin:round;stroke-miterlimit:3.9000001;stroke-opacity:1;stroke-dasharray:none;stroke-dashoffset:0"
       d="m 172.55741,235.4699 c 1.59754,-6.3e-4 3.19508,-0.85953 4.79263,-2.53952 1.59754,-1.68 3.19508,-4.18388 4.79263,-7.40102 1.59753,-3.21709 3.19508,-7.15075 4.79263,-11.63287 1.59754,-4.48213 3.19508,-9.51474 4.79262,-14.88983 1.59755,-5.37509 3.19509,-11.0933 4.79263,-16.92744 1.59755,-5.83419 3.19509,-11.78372 4.79264,-17.62423 1.59754,-5.84049 3.19507,-11.5702 4.79262,-16.98769 1.59755,-5.41755 3.19509,-10.52017 4.79263,-15.14594 1.59754,-4.62577 3.19509,-8.77139 4.79263,-12.32511 1.59755,-3.55378 3.19509,-6.51207 4.79263,-8.81853 1.59754,-2.30646 3.19509,-3.95744 4.79263,-4.95059 1.59754,-0.99316 3.19509,-1.32519 4.79262,-1.04141 1.59756,0.28378 3.1951,1.18615 4.79264,2.624 1.59754,1.43792 3.19508,3.41364 4.79264,5.81868 1.59753,2.40497 3.19507,5.24093 4.79262,8.3865 1.59754,3.14566 3.19509,6.60203 4.79263,10.24691 1.59754,3.64483 3.19508,7.47882 4.79263,11.38838 1.59755,3.90965 3.19508,7.895 4.79263,11.85874 1.59754,3.96366 3.19508,7.90545 4.79263,11.74806 1.59754,3.84257 3.19508,7.58545 4.79262,11.17324 1.59755,3.58776 3.19509,7.01965 4.79263,10.2614 1.59755,3.24169 3.19509,6.2924 4.79264,9.13641 1.59754,2.84408 3.19508,5.48055 4.79262,7.90928 1.59755,2.4288 3.1951,4.64876 4.79263,6.67145 1.59754,2.02261 3.19509,3.8469 4.79263,5.4919 1.59755,1.64507 3.19509,3.10993 4.79263,4.41811 1.59754,1.30816 3.19509,2.45873 4.79263,3.47682 1.59754,1.01803 3.19509,1.90287 4.79263,2.67888 1.59754,0.776 3.19509,1.4426 4.79263,2.02223 1.59754,0.57989 3.19508,1.07199 4.79263,1.4966 1.59754,0.4247 3.19508,0.78127 4.79263,1.08643 1.59754,0.3052 3.19509,0.55845 4.79263,0.77379 1.59753,0.21559 3.19508,0.39222 4.79263,0.54092 1.59755,0.14871 3.19508,0.27015 4.79262,0.37145 1.59755,0.10131 3.19509,0.18248 4.79264,0.25066 1.59754,0.0676 3.19508,0.12143 4.79262,0.16624 1.59755,0.0454 3.19509,0.0793 4.79263,0.1078 1.59755,0.026 3.19509,0.052 4.79263,0.0689 1.59755,0.0195 3.19509,0.0325 4.79263,0.0454 1.59755,0.013 3.19509,0.0195 4.79263,0.026 1.59754,0.007 3.19509,0.013 4.79263,0.0195 1.59755,0.004 3.19509,0.007 4.79262,0.013 1.59755,0.003 3.1951,0.004 4.79264,0.006 1.59754,0.002 3.19508,0.003 4.79262,0.003 1.59755,6.2e-4 3.1951,0.002 4.79264,0.002 1.59754,4.7e-4 3.19508,6.2e-4 4.79263,0.002 1.59754,2.7e-4 3.19508,3.9e-4 4.79263,5.8e-4 1.59754,1.3e-4 3.19509,2e-4 4.79263,3.3e-4 1.59753,6e-5 3.19508,1.3e-4 4.79263,1.3e-4"
       title="pow(x,2)*pow(2,-pow(x,2))"
       id="path3849" />
    <path
       inkscape:connector-curvature="0"
       id="path3855"
       d="m 172.15458,86.941738 0,156.500532"
       style="fill:none;stroke:#000000;stroke-width:1px;stroke-linecap:butt;stroke-linejoin:miter;stroke-opacity:1;marker-start:url(#Arrow1Sstart)" />
    <path
       inkscape:connector-curvature="0"
       id="path3857"
       d="m 165.22725,236.29619 251.62148,0"
       style="fill:none;stroke:#000000;stroke-width:0.99999994px;stroke-linecap:butt;stroke-linejoin:miter;stroke-opacity:1;marker-end:url(#Arrow1Send)" />
    <g
       ns0:preamble="/home/josh/Desktop/preamble (copy).txt"
       ns0:text="\\[\nF(v)\n\\]"
       word-spacing="normal"
       letter-spacing="normal"
       font-size-adjust="none"
       font-stretch="normal"
       font-weight="normal"
       font-variant="normal"
       font-style="normal"
       stroke-miterlimit="10.433"
       xml:space="preserve"
       transform="matrix(1,0,0,-1,-238.47512,803.03328)"
       id="content"
       style="font-style:normal;font-variant:normal;font-weight:normal;font-stretch:normal;letter-spacing:normal;word-spacing:normal;text-anchor:start;fill:none;stroke:#000000;stroke-linecap:butt;stroke-linejoin:miter;stroke-miterlimit:10.43299961;stroke-opacity:1;stroke-dasharray:none;stroke-dashoffset:0">
<path
   id="path4876"
   d="m 387.95,710.36 h 0.96 c 0.75,0 0.83,-0.16 0.83,-0.45 0,-0.07 0,-0.19 -0.07,-0.49 -0.02,-0.05 -0.03,-0.09 -0.03,-0.1 0,-0.09 0.06,-0.12 0.12,-0.12 0.1,0 0.1,0.02 0.15,0.2 l 0.55,2.16 c 0.03,0.11 0.03,0.13 0.03,0.16 0,0.02 -0.02,0.11 -0.12,0.11 -0.1,0 -0.11,-0.05 -0.15,-0.21 -0.21,-0.77 -0.44,-0.95 -1.29,-0.95 h -0.91 l 0.64,2.53 c 0.09,0.34 0.1,0.38 0.54,0.38 h 1.32 c 1.22,0 1.45,-0.32 1.45,-1.09 0,-0.23 0,-0.27 -0.03,-0.54 -0.02,-0.13 -0.02,-0.15 -0.02,-0.18 0,-0.05 0.03,-0.12 0.12,-0.12 0.11,0 0.12,0.06 0.14,0.25 l 0.2,1.72 c 0.03,0.27 -0.02,0.27 -0.27,0.27 h -4.88 c -0.2,0 -0.3,0 -0.3,-0.2 0,-0.11 0.09,-0.11 0.28,-0.11 0.37,0 0.65,0 0.65,-0.17 0,-0.05 0,-0.07 -0.05,-0.24 l -1.32,-5.27 c -0.1,-0.39 -0.12,-0.47 -0.91,-0.47 -0.17,0 -0.28,0 -0.28,-0.19 0,-0.12 0.12,-0.12 0.15,-0.12 0.29,0 1.03,0.04 1.32,0.04 0.33,0 1.15,-0.04 1.48,-0.04 0.09,0 0.21,0 0.21,0.19 0,0.08 -0.06,0.1 -0.06,0.11 -0.03,0.01 -0.05,0.01 -0.28,0.01 -0.21,0 -0.26,0 -0.51,0.02 -0.29,0.03 -0.32,0.07 -0.32,0.2 0,0.02 0,0.08 0.04,0.23 z"
   inkscape:connector-curvature="0"
   style="fill:#000000;stroke-width:0" />
<path
   id="path4878"
   d="m 396.02,704.74 -0.01,0 0,0.01 0,0 0,0 0,0.01 0,0 0,0 0,0.01 0,0 0,0 -0.01,0.01 0,0 0,0.01 -0.01,0 0,0.01 -0.01,0.01 0,0 -0.01,0.01 0,0 0,0.01 -0.01,0 0,0.01 0,0 -0.01,0 0,0.01 -0.01,0 0,0.01 -0.01,0 0,0.01 -0.01,0 0,0.01 -0.01,0.01 0,0 -0.01,0.01 -0.01,0 0,0.01 -0.01,0.01 -0.01,0.01 0,0 -0.01,0.01 -0.01,0.01 0,0.01 c -1.25,1.25 -1.57,3.13 -1.57,4.65 0,1.73 0.38,3.47 1.61,4.71 0.13,0.12 0.13,0.14 0.13,0.17 0,0.07 -0.04,0.1 -0.1,0.1 -0.1,0 -1,-0.68 -1.59,-1.94 -0.51,-1.1 -0.63,-2.2 -0.63,-3.04 0,-0.77 0.11,-1.98 0.66,-3.1 0.6,-1.23 1.46,-1.87 1.56,-1.87 0.06,0 0.1,0.03 0.1,0.1 z"
   inkscape:connector-curvature="0"
   style="fill:#000000;stroke-width:0" />
<path
   id="path4880"
   d="m 401.26,710.83 -0.01,0.02 0,0.03 0,0.02 0,0.02 0,0.03 0,0.02 0,0.02 -0.01,0.02 0,0.04 -0.01,0.04 -0.01,0.04 -0.01,0.03 -0.01,0.04 -0.01,0.03 -0.01,0.03 -0.02,0.02 -0.01,0.03 -0.02,0.02 -0.01,0.03 -0.02,0.02 -0.01,0.02 -0.02,0.01 -0.02,0.02 -0.02,0.02 -0.01,0.01 -0.02,0.01 -0.02,0.01 -0.02,0.01 -0.02,0.01 -0.02,0.01 -0.01,0 -0.02,0.01 -0.02,0 -0.02,0 -0.02,0 -0.01,0 c -0.25,0 -0.49,-0.25 -0.49,-0.47 0,-0.13 0.05,-0.19 0.16,-0.3 0.21,-0.2 0.34,-0.46 0.34,-0.82 0,-0.42 -0.61,-2.7 -1.78,-2.7 -0.51,0 -0.73,0.35 -0.73,0.87 0,0.56 0.26,1.28 0.57,2.11 0.07,0.17 0.12,0.31 0.12,0.5 0,0.45 -0.32,0.81 -0.81,0.81 -0.94,0 -1.32,-1.44 -1.32,-1.53 0,-0.1 0.1,-0.1 0.12,-0.1 0.1,0 0.11,0.02 0.16,0.18 0.29,1.01 0.72,1.23 1.01,1.23 0.07,0 0.24,0 0.24,-0.31 0,-0.25 -0.09,-0.52 -0.17,-0.7 -0.43,-1.15 -0.56,-1.61 -0.56,-2.04 0,-1.08 0.87,-1.23 1.33,-1.23 1.68,0 2.25,3.29 2.25,3.81 z"
   inkscape:connector-curvature="0"
   style="fill:#000000;stroke-width:0" />
<path
   id="path4882"
   d="m 404.66,709.61 0,0.08 0,0.07 -0.01,0.08 0,0.08 -0.01,0.17 -0.01,0.18 -0.02,0.18 -0.02,0.19 -0.02,0.2 -0.04,0.19 -0.04,0.21 -0.04,0.21 -0.06,0.21 -0.06,0.21 -0.07,0.21 -0.08,0.21 -0.04,0.11 -0.04,0.11 -0.05,0.1 -0.05,0.11 c -0.6,1.22 -1.46,1.87 -1.56,1.87 -0.06,0 -0.1,-0.04 -0.1,-0.1 0,-0.03 0,-0.05 0.19,-0.23 0.98,-0.98 1.55,-2.57 1.55,-4.65 0,-1.7 -0.37,-3.45 -1.61,-4.7 -0.13,-0.12 -0.13,-0.14 -0.13,-0.17 0,-0.06 0.04,-0.1 0.1,-0.1 0.1,0 1,0.67 1.59,1.94 0.51,1.09 0.63,2.2 0.63,3.03 z"
   inkscape:connector-curvature="0"
   style="fill:#000000;stroke-width:0" />
</g>    <g
       id="g4950"
       transform="matrix(1,0,0,-1,-228.6011,951.91987)"
       xml:space="preserve"
       stroke-miterlimit="10.433"
       font-style="normal"
       font-variant="normal"
       font-weight="normal"
       font-stretch="normal"
       font-size-adjust="none"
       letter-spacing="normal"
       word-spacing="normal"
       ns0:text="\\[\n0\n\\]"
       ns0:preamble="/home/josh/Desktop/preamble (copy).txt"
       style="font-style:normal;font-variant:normal;font-weight:normal;font-stretch:normal;letter-spacing:normal;word-spacing:normal;text-anchor:start;fill:none;stroke:#000000;stroke-linecap:butt;stroke-linejoin:miter;stroke-miterlimit:10.43299961;stroke-opacity:1;stroke-dasharray:none;stroke-dashoffset:0">
<path
   style="fill:#000000;stroke-width:0"
   inkscape:connector-curvature="0"
   d="m 397.38,710.31 0,0.15 0,0.15 0,0.15 -0.01,0.15 -0.01,0.14 -0.01,0.15 -0.02,0.15 -0.02,0.15 -0.02,0.14 -0.03,0.15 -0.03,0.14 -0.04,0.15 -0.04,0.14 -0.05,0.14 -0.05,0.14 -0.03,0.07 -0.04,0.07 c -0.46,0.95 -1.27,1.11 -1.69,1.11 -0.6,0 -1.33,-0.26 -1.74,-1.18 -0.31,-0.69 -0.36,-1.46 -0.36,-2.26 0,-0.75 0.04,-1.64 0.44,-2.4 0.43,-0.81 1.16,-1 1.65,-1 v 0.21 c -0.39,0 -0.98,0.25 -1.16,1.21 -0.11,0.6 -0.11,1.51 -0.11,2.1 0,0.64 0,1.29 0.08,1.83 0.19,1.19 0.94,1.27 1.19,1.27 0.33,0 0.99,-0.18 1.17,-1.16 0.1,-0.56 0.1,-1.31 0.1,-1.94 0,-0.75 0,-1.42 -0.1,-2.06 -0.15,-0.95 -0.72,-1.25 -1.17,-1.25 h 0 v -0.21 c 0.54,0 1.3,0.2 1.73,1.15 0.32,0.69 0.37,1.46 0.37,2.25 z"
   id="path4952" />
</g>    <g
       style="font-style:normal;font-variant:normal;font-weight:normal;font-stretch:normal;letter-spacing:normal;word-spacing:normal;text-anchor:start;fill:none;stroke:#000000;stroke-linecap:butt;stroke-linejoin:miter;stroke-miterlimit:10.43299961;stroke-opacity:1;stroke-dasharray:none;stroke-dashoffset:0"
       ns0:preamble="/home/josh/Desktop/preamble (copy).txt"
       ns0:text="\\[\nv\n\\]"
       word-spacing="normal"
       letter-spacing="normal"
       font-size-adjust="none"
       font-stretch="normal"
       font-weight="normal"
       font-variant="normal"
       font-style="normal"
       stroke-miterlimit="10.433"
       xml:space="preserve"
       transform="matrix(1,0,0,-1,20.66227,952.11494)"
       id="g5015">
<path
   id="path5017"
   d="m 397.36,710.83 0,0.02 0,0.03 0,0.02 0,0.02 -0.01,0.03 0,0.02 0,0.02 0,0.02 -0.01,0.04 -0.01,0.04 0,0.04 -0.01,0.03 -0.01,0.04 -0.02,0.03 -0.01,0.03 -0.01,0.02 -0.02,0.03 -0.01,0.02 -0.02,0.03 -0.01,0.02 -0.02,0.02 -0.02,0.01 -0.01,0.02 -0.02,0.02 -0.02,0.01 -0.02,0.01 -0.02,0.01 -0.02,0.01 -0.01,0.01 -0.02,0.01 -0.02,0 -0.02,0.01 -0.02,0 -0.01,0 -0.02,0 -0.02,0 c -0.25,0 -0.49,-0.25 -0.49,-0.47 0,-0.13 0.05,-0.19 0.16,-0.3 0.21,-0.2 0.34,-0.46 0.34,-0.82 0,-0.42 -0.61,-2.7 -1.77,-2.7 -0.51,0 -0.74,0.35 -0.74,0.87 0,0.56 0.27,1.28 0.58,2.11 0.07,0.17 0.12,0.31 0.12,0.5 0,0.45 -0.32,0.81 -0.82,0.81 -0.94,0 -1.32,-1.44 -1.32,-1.53 0,-0.1 0.1,-0.1 0.12,-0.1 0.1,0 0.11,0.02 0.16,0.18 0.29,1.01 0.72,1.23 1.01,1.23 0.08,0 0.25,0 0.25,-0.31 0,-0.25 -0.1,-0.52 -0.17,-0.7 -0.44,-1.15 -0.57,-1.61 -0.57,-2.04 0,-1.08 0.88,-1.23 1.34,-1.23 1.67,0 2.24,3.29 2.24,3.81 z"
   inkscape:connector-curvature="0"
   style="fill:#000000;stroke-width:0" />
</g>    <g
       id="g5072"
       transform="matrix(1,0,0,-1,-189.3911,920.91889)"
       xml:space="preserve"
       stroke-miterlimit="10.433"
       font-style="normal"
       font-variant="normal"
       font-weight="normal"
       font-stretch="normal"
       font-size-adjust="none"
       letter-spacing="normal"
       word-spacing="normal"
       ns0:text="\\[\n\\propto v^2\n\\]"
       ns0:preamble="/home/josh/Desktop/preamble (copy).txt"
       style="font-style:normal;font-variant:normal;font-weight:normal;font-stretch:normal;letter-spacing:normal;word-spacing:normal;text-anchor:start;fill:none;stroke:#000000;stroke-linecap:butt;stroke-linejoin:miter;stroke-miterlimit:10.43299961;stroke-opacity:1;stroke-dasharray:none;stroke-dashoffset:0">
<path
   style="fill:#000000;stroke-width:0"
   inkscape:connector-curvature="0"
   d="m 392.4,707.44 0,0 -0.01,0 0,0 -0.01,0 0,0 -0.01,0 0,0 -0.01,0 -0.01,0 -0.01,0 -0.01,0 0,0 -0.01,0 -0.02,0 -0.02,-0.01 -0.02,0 -0.01,0 0,0 -0.01,0 -0.01,0 -0.01,0 -0.01,0 0,0 -0.01,0 -0.01,0 0,-0.01 -0.01,0 0,0 0,0 -0.01,0 0,0 0,0 c -0.79,0 -1.32,0.78 -1.65,1.3 -0.1,0.17 -0.37,0.57 -0.48,0.74 0.24,0.54 0.9,1.77 2.09,1.77 0.07,0 0.16,0 0.27,-0.02 0,0.25 -0.01,0.26 -0.03,0.28 -0.07,0.02 -0.22,0.03 -0.31,0.03 -1.27,0 -2,-1.21 -2.24,-1.71 -0.4,0.61 -0.54,0.83 -0.91,1.14 -0.61,0.52 -1.16,0.57 -1.4,0.57 -1.11,0 -1.75,-1.11 -1.75,-2.25 h 0.22 c 0,0.98 0.56,1.85 1.38,1.85 0.79,0 1.32,-0.78 1.66,-1.3 0.1,-0.17 0.37,-0.58 0.48,-0.74 h 0 c -0.24,-0.54 -0.91,-1.78 -2.1,-1.78 -0.96,0 -1.42,1.06 -1.42,1.97 h -0.22 c 0,-1.12 0.62,-2.25 1.72,-2.25 1.26,0 2,1.21 2.24,1.71 0.4,-0.61 0.54,-0.83 0.9,-1.14 0.61,-0.52 1.16,-0.57 1.41,-0.57 0.12,0 0.28,0.01 0.37,0.03 z"
   id="path5074" />
<path
   style="fill:#000000;stroke-width:0"
   inkscape:connector-curvature="0"
   d="m 400.38,710.83 0,0.02 0,0.03 0,0.02 0,0.02 0,0.03 0,0.02 -0.01,0.02 0,0.02 0,0.04 -0.01,0.04 -0.01,0.04 -0.01,0.03 -0.01,0.04 -0.01,0.03 -0.02,0.03 -0.01,0.02 -0.01,0.03 -0.02,0.02 -0.01,0.03 -0.02,0.02 -0.02,0.02 -0.01,0.01 -0.02,0.02 -0.02,0.02 -0.02,0.01 -0.01,0.01 -0.02,0.01 -0.02,0.01 -0.02,0.01 -0.02,0.01 -0.02,0 -0.01,0.01 -0.02,0 -0.02,0 -0.02,0 -0.01,0 c -0.25,0 -0.49,-0.25 -0.49,-0.47 0,-0.13 0.05,-0.19 0.16,-0.3 0.21,-0.2 0.33,-0.46 0.33,-0.82 0,-0.42 -0.6,-2.7 -1.77,-2.7 -0.51,0 -0.74,0.35 -0.74,0.87 0,0.56 0.27,1.28 0.58,2.11 0.07,0.17 0.12,0.31 0.12,0.5 0,0.45 -0.32,0.81 -0.82,0.81 -0.93,0 -1.31,-1.44 -1.31,-1.53 0,-0.1 0.1,-0.1 0.12,-0.1 0.1,0 0.11,0.02 0.16,0.18 0.29,1.01 0.71,1.23 1,1.23 0.08,0 0.25,0 0.25,-0.31 0,-0.25 -0.1,-0.52 -0.17,-0.7 -0.44,-1.15 -0.57,-1.61 -0.57,-2.04 0,-1.08 0.88,-1.23 1.34,-1.23 1.68,0 2.24,3.29 2.24,3.81 z"
   id="path5076" />
<path
   style="fill:#000000;stroke-width:0"
   inkscape:connector-curvature="0"
   d="m 404.42,712.51 h -0.24 c -0.02,-0.16 -0.09,-0.57 -0.18,-0.64 -0.05,-0.04 -0.59,-0.04 -0.69,-0.04 h -1.28 c 0.73,0.65 0.98,0.84 1.39,1.17 0.52,0.41 1,0.84 1,1.5 0,0.84 -0.74,1.36 -1.63,1.36 -0.86,0 -1.45,-0.61 -1.45,-1.25 0,-0.35 0.3,-0.39 0.37,-0.39 0.17,0 0.37,0.12 0.37,0.37 0,0.13 -0.05,0.37 -0.41,0.37 0.22,0.49 0.69,0.65 1.02,0.65 0.69,0 1.05,-0.55 1.05,-1.11 0,-0.6 -0.43,-1.09 -0.65,-1.34 l -1.68,-1.65 c -0.07,-0.06 -0.07,-0.08 -0.07,-0.27 h 2.87 z"
   id="path5078" />
</g>    <g
       style="font-style:normal;font-variant:normal;font-weight:normal;font-stretch:normal;letter-spacing:normal;word-spacing:normal;text-anchor:start;fill:none;stroke:#000000;stroke-linecap:butt;stroke-linejoin:miter;stroke-miterlimit:10.43299961;stroke-opacity:1;stroke-dasharray:none;stroke-dashoffset:0"
       ns0:preamble="/home/josh/Desktop/preamble (copy).txt"
       ns0:text="\\[\n\\propto e^{-\\frac{mv^2}{2kT}}\n\\]"
       word-spacing="normal"
       letter-spacing="normal"
       font-size-adjust="none"
       font-stretch="normal"
       font-weight="normal"
       font-variant="normal"
       font-style="normal"
       stroke-miterlimit="10.433"
       xml:space="preserve"
       transform="matrix(1,0,0,-1,-112.24586,872.63516)"
       id="g5159">
<path
   id="path5161"
   d="m 383.46,705.4 0,0 -0.01,0 0,0 -0.01,0 0,0 -0.01,-0.01 -0.01,0 0,0 -0.01,0 -0.01,0 -0.01,0 -0.01,0 0,0 -0.02,0 -0.02,0 -0.02,-0.01 -0.01,0 -0.01,0 0,0 -0.01,0 -0.01,0 -0.01,0 -0.01,0 0,0 -0.01,0 0,0 -0.01,0 0,0 -0.01,0 0,0 0,0 0,0 c -0.79,0 -1.32,0.77 -1.66,1.29 -0.1,0.17 -0.37,0.58 -0.47,0.75 0.23,0.53 0.9,1.77 2.09,1.77 0.07,0 0.16,0 0.27,-0.03 0,0.26 -0.01,0.27 -0.03,0.29 -0.07,0.02 -0.22,0.03 -0.31,0.03 -1.27,0 -2,-1.22 -2.24,-1.72 -0.4,0.61 -0.54,0.83 -0.91,1.14 -0.61,0.53 -1.16,0.58 -1.41,0.58 -1.1,0 -1.74,-1.12 -1.74,-2.26 h 0.22 c 0,0.98 0.56,1.85 1.38,1.85 0.79,0 1.32,-0.78 1.66,-1.3 0.1,-0.17 0.37,-0.57 0.48,-0.74 h 0 c -0.24,-0.54 -0.91,-1.77 -2.1,-1.77 -0.96,0 -1.42,1.05 -1.42,1.96 h -0.22 c 0,-1.12 0.62,-2.25 1.71,-2.25 1.27,0 2.01,1.21 2.25,1.71 0.39,-0.61 0.54,-0.83 0.9,-1.14 0.61,-0.52 1.16,-0.57 1.41,-0.57 0.12,0 0.28,0.02 0.37,0.04 z"
   inkscape:connector-curvature="0"
   style="fill:#000000;stroke-width:0" />
<path
   id="path5163"
   d="m 388.64,707.38 0.03,0 0.03,0 0.03,0 0.04,0 0.04,0 0.04,0 0.04,0 0.04,0 0.05,0 0.04,0.01 0.05,0 0.05,0 0.05,0.01 0.05,0 0.11,0.01 0.1,0.02 0.11,0.01 0.11,0.02 0.11,0.02 0.11,0.03 0.05,0.01 0.05,0.02 0.05,0.01 0.05,0.02 0.05,0.02 0.05,0.01 c 0.69,0.3 0.74,0.89 0.74,1.03 0,0.44 -0.37,0.85 -1.06,0.85 v -0.22 c 0.47,0 0.73,-0.29 0.73,-0.63 0,-1.04 -1.59,-1.04 -2,-1.04 h -0.41 c 0.39,1.52 1.42,1.67 1.68,1.67 v 0.22 c -1.11,0 -2.61,-0.97 -2.61,-2.71 0,-1.02 0.58,-1.8 1.56,-1.8 1.43,0 2.26,1.05 2.26,1.17 0,0.06 -0.06,0.13 -0.12,0.13 -0.05,0 -0.07,-0.02 -0.13,-0.1 -0.78,-0.98 -1.87,-0.98 -1.99,-0.98 -0.78,0 -0.87,0.83 -0.87,1.15 0,0.12 0.01,0.43 0.16,1.04 z"
   inkscape:connector-curvature="0"
   style="fill:#000000;stroke-width:0" />
<path
   id="path5165"
   d="m 396.6,710.76 0.01,0 0.01,0 0.01,0 0.01,0 0.02,0 0.02,0 0.01,0 0.01,0 0.01,0.01 0.01,0 0.01,0 0.02,0 0.01,0 0.01,0.01 0.01,0 0.01,0.01 0.01,0 0.01,0.01 0.01,0 0.01,0.01 0,0.01 0.01,0 0,0.01 0.01,0 0,0.01 0,0 0.01,0.01 0,0 0,0.01 0,0 0.01,0.01 0,0 0,0.01 0,0.01 0,0 0,0.01 0,0.01 0.01,0 0,0.01 0,0.01 c 0,0.17 -0.16,0.17 -0.28,0.17 h -4.15 c -0.12,0 -0.28,0 -0.28,-0.17 0,-0.17 0.16,-0.17 0.28,-0.17 z"
   inkscape:connector-curvature="0"
   style="fill:#000000;stroke-width:0" />
<path
   id="path5167"
   d="m 401.52,712.3 0,-0.01 -0.01,-0.01 0,-0.01 0,-0.01 0,-0.01 -0.01,-0.02 0,-0.02 -0.01,-0.02 0,-0.03 -0.01,-0.02 0,-0.02 -0.01,-0.01 0,-0.02 0,-0.01 0,-0.01 -0.01,-0.01 0,-0.01 0,-0.01 0,0 0,-0.01 -0.01,-0.01 0,-0.01 0,0 0,-0.01 0,-0.01 0,0 0,0 c 0,-0.11 0.09,-0.18 0.18,-0.18 0.08,0 0.19,0.04 0.24,0.17 0.01,0.02 0.07,0.25 0.1,0.38 0.17,0.67 0.17,0.68 0.18,0.7 0.06,0.14 0.42,0.83 1.03,0.83 0.24,0 0.34,-0.13 0.34,-0.35 0,-0.29 -0.2,-0.8 -0.32,-1.08 -0.02,-0.06 -0.05,-0.13 -0.05,-0.21 0,-0.26 0.25,-0.44 0.54,-0.44 0.54,0 0.81,0.65 0.81,0.77 0,0.07 -0.09,0.07 -0.11,0.07 -0.08,0 -0.09,-0.02 -0.12,-0.11 -0.09,-0.3 -0.32,-0.56 -0.56,-0.56 -0.11,0 -0.15,0.08 -0.15,0.19 0,0.1 0.02,0.15 0.07,0.26 0.08,0.2 0.31,0.77 0.31,1.04 0,0.37 -0.26,0.59 -0.73,0.59 -0.47,0 -0.79,-0.28 -0.99,-0.54 -0.04,0.5 -0.54,0.54 -0.74,0.54 -0.49,0 -0.77,-0.3 -0.95,-0.49 -0.02,0.44 -0.47,0.49 -0.6,0.49 -0.5,0 -0.64,-0.76 -0.64,-0.77 0,-0.07 0.08,-0.07 0.1,-0.07 0.09,0 0.1,0.03 0.12,0.1 0.07,0.28 0.19,0.57 0.4,0.57 0.17,0 0.2,-0.16 0.2,-0.26 0,-0.07 -0.05,-0.26 -0.08,-0.39 -0.03,-0.13 -0.08,-0.33 -0.11,-0.44 l -0.11,-0.45 c -0.03,-0.12 -0.09,-0.34 -0.09,-0.36 0,-0.11 0.09,-0.18 0.19,-0.18 0.07,0 0.18,0.04 0.24,0.17 0,0.02 0.06,0.25 0.09,0.38 0.02,0.08 0.08,0.3 0.09,0.35 0.03,0.11 0.06,0.21 0.08,0.33 0.01,0.02 0.19,0.38 0.43,0.6 0.08,0.07 0.29,0.25 0.61,0.25 0.26,0 0.35,-0.14 0.35,-0.35 0,-0.11 -0.05,-0.31 -0.09,-0.47 z"
   inkscape:connector-curvature="0"
   style="fill:#000000;stroke-width:0" />
<path
   id="path5169"
   d="m 408.14,713.64 0,0.02 0,0.01 0,0.01 0,0.02 0,0.01 0,0.02 0,0.01 0,0.01 -0.01,0.03 0,0.02 -0.01,0.02 -0.01,0.03 0,0.02 -0.01,0.01 -0.01,0.02 -0.01,0.02 -0.01,0.02 -0.01,0.01 -0.01,0.01 -0.01,0.02 -0.01,0.01 -0.01,0.01 -0.02,0.01 -0.01,0.01 -0.01,0.01 -0.01,0 -0.01,0.01 -0.02,0.01 -0.01,0 -0.01,0.01 -0.01,0 -0.01,0 -0.01,0 -0.01,0.01 -0.01,0 -0.01,0 c -0.14,0 -0.29,-0.16 -0.29,-0.29 0,-0.1 0.06,-0.14 0.09,-0.17 0.06,-0.04 0.2,-0.15 0.2,-0.38 0,-0.26 -0.38,-1.25 -0.97,-1.25 -0.26,0 -0.49,0.1 -0.49,0.46 0,0.25 0.14,0.57 0.29,0.94 0.03,0.08 0.06,0.16 0.06,0.24 0,0.25 -0.23,0.44 -0.54,0.44 -0.53,0 -0.8,-0.64 -0.8,-0.77 0,-0.07 0.08,-0.07 0.1,-0.07 0.09,0 0.09,0.03 0.12,0.1 0.1,0.34 0.33,0.57 0.56,0.57 0.09,0 0.15,-0.05 0.15,-0.18 0,-0.11 -0.02,-0.16 -0.09,-0.3 -0.19,-0.49 -0.27,-0.72 -0.27,-0.91 0,-0.48 0.4,-0.69 0.88,-0.69 0.4,0 0.69,0.29 0.87,0.56 0.36,0.54 0.41,1.18 0.41,1.27 z"
   inkscape:connector-curvature="0"
   style="fill:#000000;stroke-width:0" />
<path
   id="path5171"
   d="m 411.66,714.84 h -0.21 c -0.01,-0.1 -0.06,-0.41 -0.14,-0.45 -0.04,-0.04 -0.46,-0.04 -0.53,-0.04 h -0.98 c 0.33,0.25 0.7,0.53 1,0.73 0.44,0.3 0.86,0.59 0.86,1.12 0,0.63 -0.6,0.99 -1.31,0.99 -0.67,0 -1.17,-0.39 -1.17,-0.88 0,-0.26 0.22,-0.3 0.29,-0.3 0.14,0 0.3,0.09 0.3,0.29 0,0.18 -0.13,0.28 -0.29,0.29 0.14,0.23 0.43,0.38 0.76,0.38 0.49,0 0.89,-0.29 0.89,-0.78 0,-0.41 -0.29,-0.73 -0.67,-1.05 l -1.22,-1.03 c -0.04,-0.05 -0.05,-0.05 -0.06,-0.08 v -0.15 h 2.32 z"
   inkscape:connector-curvature="0"
   style="fill:#000000;stroke-width:0" />
<line
   id="line5173"
   y2="710.92999"
   x2="412.62"
   y1="710.92999"
   x1="398.84"
   style="stroke-width:0.33899999" />
<path
   id="path5175"
   d="m 402.53,707.75 h -0.21 c -0.01,-0.1 -0.06,-0.4 -0.14,-0.45 -0.04,-0.03 -0.46,-0.03 -0.54,-0.03 h -0.97 c 0.33,0.24 0.7,0.52 1,0.72 0.44,0.3 0.86,0.59 0.86,1.12 0,0.63 -0.6,0.99 -1.31,0.99 -0.67,0 -1.17,-0.39 -1.17,-0.88 0,-0.25 0.22,-0.3 0.29,-0.3 0.14,0 0.3,0.09 0.3,0.29 0,0.18 -0.13,0.28 -0.29,0.3 0.14,0.22 0.43,0.37 0.76,0.37 0.49,0 0.89,-0.29 0.89,-0.78 0,-0.41 -0.29,-0.73 -0.67,-1.05 l -1.22,-1.03 c -0.05,-0.05 -0.05,-0.05 -0.06,-0.08 v -0.15 h 2.32 z"
   inkscape:connector-curvature="0"
   style="fill:#000000;stroke-width:0" />
<path
   id="path5177"
   d="m 404.82,710.05 0,0 0,0 0,0.01 0,0 0.01,0 0,0.01 0,0 0,0 0,0.01 0,0 0,0.01 0,0 0,0 0,0.01 0.01,0 0,0.01 0,0 0,0 0,0 0,0.01 0,0 0,0 0,0 0,0.01 0,0 0,0 0,0.01 0,0 0,0 0,0.01 0,0 0,0 c 0,0.09 -0.07,0.09 -0.15,0.08 l -0.62,-0.04 c -0.08,-0.01 -0.09,-0.01 -0.12,-0.03 -0.02,-0.03 -0.03,-0.09 -0.03,-0.12 0,-0.08 0.08,-0.08 0.15,-0.08 0,0 0.09,0 0.17,-0.01 0.09,-0.01 0.1,-0.03 0.1,-0.07 0,-0.01 0,-0.02 -0.03,-0.11 l -0.68,-2.74 c -0.02,-0.08 -0.02,-0.09 -0.02,-0.12 0,-0.11 0.09,-0.18 0.19,-0.18 0.19,0 0.24,0.19 0.25,0.26 l 0.23,0.91 c 0.13,0 0.75,-0.04 0.75,-0.39 0,-0.04 0,-0.05 -0.01,-0.11 -0.02,-0.07 -0.02,-0.1 -0.02,-0.13 0,-0.36 0.32,-0.54 0.61,-0.54 0.5,0 0.7,0.72 0.7,0.78 0,0.07 -0.08,0.07 -0.1,0.07 -0.09,0 -0.1,-0.03 -0.12,-0.12 -0.05,-0.17 -0.2,-0.56 -0.46,-0.56 -0.19,0 -0.21,0.19 -0.21,0.3 0,0 0,0.07 0.02,0.16 0.02,0.08 0.02,0.12 0.02,0.17 0,0.43 -0.54,0.51 -0.87,0.53 0.14,0.08 0.34,0.25 0.43,0.32 0.28,0.22 0.55,0.44 0.84,0.44 0.11,0 0.14,-0.03 0.17,-0.06 -0.01,0 -0.03,-0.02 -0.04,-0.02 -0.23,-0.08 -0.23,-0.28 -0.23,-0.3 0,-0.08 0.06,-0.2 0.22,-0.2 0.1,0 0.31,0.08 0.31,0.35 0,0.25 -0.19,0.39 -0.43,0.39 -0.33,0 -0.62,-0.22 -0.98,-0.52 -0.18,-0.13 -0.34,-0.26 -0.54,-0.34 z"
   inkscape:connector-curvature="0"
   style="fill:#000000;stroke-width:0" />
<path
   id="path5179"
   d="m 409.74,709.76 0,0.01 0,0.01 0.01,0.01 0,0.02 0,0.01 0.01,0.01 0,0.01 0,0.01 0.01,0 0,0.01 0,0.01 0.01,0 0,0.01 0.01,0.01 0,0 0.01,0 0,0.01 0.01,0 0.01,0.01 0,0 0.01,0 0.01,0 0.01,0 0.01,0 0,0.01 0.01,0 0.01,0 0,0 0.01,0 0,0 0.01,0 0.01,0 0.01,0 0,0 0.01,0 0.01,0 0.01,0 0.01,0 0.01,0 0.01,0 0,0 h 0.54 c 0.55,0 0.62,-0.15 0.62,-0.46 0,-0.04 0,-0.13 -0.03,-0.37 l -0.01,-0.05 c 0,-0.05 0.03,-0.08 0.11,-0.08 0.09,0 0.1,0.04 0.11,0.13 l 0.13,0.89 c 0.01,0.05 0.01,0.06 0.01,0.08 0,0.08 -0.08,0.08 -0.17,0.08 h -3.48 c -0.13,0 -0.14,0 -0.18,-0.1 l -0.33,-0.92 c 0,-0.01 -0.03,-0.08 -0.03,-0.08 0,-0.03 0.02,-0.08 0.11,-0.08 0.08,0 0.08,0.01 0.13,0.13 0.22,0.59 0.37,0.83 1.04,0.83 h 0.54 c 0.04,0 0.11,0 0.16,-0.01 v -0.03 l -0.67,-2.66 c -0.04,-0.16 -0.05,-0.21 -0.57,-0.21 h -0.11 c -0.11,0 -0.11,0 -0.14,-0.02 -0.02,-0.03 -0.04,-0.08 -0.04,-0.12 0,-0.03 0.02,-0.08 0.1,-0.08 0.14,0 0.3,0.01 0.45,0.01 0.16,0 0.31,0.01 0.47,0.01 0.16,0 0.32,-0.01 0.48,-0.01 0.15,0 0.31,-0.01 0.46,-0.01 0.03,0 0.13,0 0.13,0.14 0,0.08 -0.08,0.08 -0.16,0.08 h -0.11 c -0.13,0 -0.27,0 -0.4,0.03 -0.04,0 -0.06,0.01 -0.06,0.06 0,0.03 0,0.04 0.01,0.11 z"
   inkscape:connector-curvature="0"
   style="fill:#000000;stroke-width:0" />
</g>  </g>
</svg>
