<?xml version="1.0" encoding="UTF-8" standalone="no"?>
<!-- Created with Inkscape (http://www.inkscape.org/) -->

<svg
   xmlns:ns0="http://www.iki.fi/pav/software/textext/"
   xmlns:dc="http://purl.org/dc/elements/1.1/"
   xmlns:cc="http://creativecommons.org/ns#"
   xmlns:rdf="http://www.w3.org/1999/02/22-rdf-syntax-ns#"
   xmlns:svg="http://www.w3.org/2000/svg"
   xmlns="http://www.w3.org/2000/svg"
   xmlns:sodipodi="http://sodipodi.sourceforge.net/DTD/sodipodi-0.dtd"
   xmlns:inkscape="http://www.inkscape.org/namespaces/inkscape"
   width="411.07751"
   height="131.68262"
   id="svg12675"
   version="1.1"
   inkscape:version="0.48.2 r9819"
   sodipodi:docname="fiber optic total internal reflection.svg">
  <sodipodi:namedview
     id="base"
     pagecolor="#ffffff"
     bordercolor="#666666"
     borderopacity="1.0"
     inkscape:pageopacity="0.0"
     inkscape:pageshadow="2"
     inkscape:zoom="2.9507817"
     inkscape:cx="205.53876"
     inkscape:cy="65.841305"
     inkscape:document-units="cm"
     inkscape:current-layer="layer1"
     showgrid="false"
     inkscape:snap-bbox="true"
     inkscape:bbox-paths="true"
     inkscape:bbox-nodes="true"
     inkscape:snap-bbox-edge-midpoints="true"
     inkscape:snap-bbox-midpoints="true"
     inkscape:object-paths="true"
     inkscape:snap-intersection-paths="true"
     inkscape:snap-smooth-nodes="true"
     inkscape:snap-midpoints="true"
     inkscape:snap-object-midpoints="true"
     inkscape:snap-center="true"
     inkscape:object-nodes="true"
     inkscape:window-width="1366"
     inkscape:window-height="743"
     inkscape:window-x="0"
     inkscape:window-y="3"
     inkscape:window-maximized="1"
     inkscape:snap-global="false"
     showguides="true"
     inkscape:guide-bbox="true"
     fit-margin-top="0"
     fit-margin-left="0"
     fit-margin-right="0"
     fit-margin-bottom="0"
     showborder="true"
     borderlayer="false"
     inkscape:showpageshadow="true" />
  <defs
     id="defs12677">
    <marker
       inkscape:stockid="Arrow1Sstart"
       orient="auto"
       refY="0"
       refX="0"
       id="Arrow1Sstart"
       style="overflow:visible">
      <path
         inkscape:connector-curvature="0"
         id="path5431"
         d="M 0,0 5,-5 -12.5,0 5,5 0,0 z"
         style="fill-rule:evenodd;stroke:#000000;stroke-width:1pt;marker-start:none"
         transform="matrix(0.2,0,0,0.2,1.2,0)" />
    </marker>
    <marker
       inkscape:stockid="Arrow1Send"
       orient="auto"
       refY="0"
       refX="0"
       id="Arrow1Send"
       style="overflow:visible">
      <path
         inkscape:connector-curvature="0"
         id="path5434"
         d="M 0,0 5,-5 -12.5,0 5,5 0,0 z"
         style="fill-rule:evenodd;stroke:#000000;stroke-width:1pt;marker-start:none"
         transform="matrix(-0.2,0,0,-0.2,-1.2,0)" />
    </marker>
    <marker
       inkscape:stockid="Arrow1Sendz"
       orient="auto"
       refY="0"
       refX="0"
       id="Arrow1Sendz"
       style="overflow:visible">
      <path
         inkscape:connector-curvature="0"
         id="path14337"
         d="M 0,0 5,-5 -12.5,0 5,5 0,0 z"
         style="fill:#ff0000;fill-rule:evenodd;stroke:#ff0000;stroke-width:1pt;marker-start:none"
         transform="matrix(-0.2,0,0,-0.2,-1.2,0)" />
    </marker>
    <marker
       inkscape:stockid="Arrow1Send9"
       orient="auto"
       refY="0"
       refX="0"
       id="Arrow1Send9"
       style="overflow:visible">
      <path
         inkscape:connector-curvature="0"
         id="path14340"
         d="M 0,0 5,-5 -12.5,0 5,5 0,0 z"
         style="fill:#ff0000;fill-rule:evenodd;stroke:#ff0000;stroke-width:1pt;marker-start:none"
         transform="matrix(-0.2,0,0,-0.2,-1.2,0)" />
    </marker>
    <marker
       inkscape:stockid="Arrow1Sendr"
       orient="auto"
       refY="0"
       refX="0"
       id="Arrow1Sendr"
       style="overflow:visible">
      <path
         inkscape:connector-curvature="0"
         id="path14343"
         d="M 0,0 5,-5 -12.5,0 5,5 0,0 z"
         style="fill:#ff0000;fill-rule:evenodd;stroke:#ff0000;stroke-width:1pt;marker-start:none"
         transform="matrix(-0.2,0,0,-0.2,-1.2,0)" />
    </marker>
    <marker
       inkscape:stockid="Arrow1Sstarte"
       orient="auto"
       refY="0"
       refX="0"
       id="Arrow1Sstarte"
       style="overflow:visible">
      <path
         inkscape:connector-curvature="0"
         id="path14346"
         d="M 0,0 5,-5 -12.5,0 5,5 0,0 z"
         style="fill:#ff0000;fill-rule:evenodd;stroke:#ff0000;stroke-width:1pt;marker-start:none"
         transform="matrix(0.2,0,0,0.2,1.2,0)" />
    </marker>
    <marker
       inkscape:stockid="Arrow1Sendi"
       orient="auto"
       refY="0"
       refX="0"
       id="Arrow1Sendi"
       style="overflow:visible">
      <path
         inkscape:connector-curvature="0"
         id="path14349"
         d="M 0,0 5,-5 -12.5,0 5,5 0,0 z"
         style="fill:#ff0000;fill-rule:evenodd;stroke:#ff0000;stroke-width:1pt;marker-start:none"
         transform="matrix(-0.2,0,0,-0.2,-1.2,0)" />
    </marker>
    <marker
       inkscape:stockid="Arrow1Sende"
       orient="auto"
       refY="0"
       refX="0"
       id="Arrow1Sende"
       style="overflow:visible">
      <path
         inkscape:connector-curvature="0"
         id="path14352"
         d="M 0,0 5,-5 -12.5,0 5,5 0,0 z"
         style="fill:#ff0000;fill-rule:evenodd;stroke:#ff0000;stroke-width:1pt;marker-start:none"
         transform="matrix(-0.2,0,0,-0.2,-1.2,0)" />
    </marker>
    <marker
       inkscape:stockid="Arrow1Sstartk"
       orient="auto"
       refY="0"
       refX="0"
       id="Arrow1Sstartk"
       style="overflow:visible">
      <path
         inkscape:connector-curvature="0"
         id="path14355"
         d="M 0,0 5,-5 -12.5,0 5,5 0,0 z"
         style="fill:#ff0000;fill-rule:evenodd;stroke:#ff0000;stroke-width:1pt;marker-start:none"
         transform="matrix(0.2,0,0,0.2,1.2,0)" />
    </marker>
    <marker
       inkscape:stockid="Arrow1Sendw"
       orient="auto"
       refY="0"
       refX="0"
       id="Arrow1Sendw"
       style="overflow:visible">
      <path
         inkscape:connector-curvature="0"
         id="path14358"
         d="M 0,0 5,-5 -12.5,0 5,5 0,0 z"
         style="fill:#ff0000;fill-rule:evenodd;stroke:#ff0000;stroke-width:1pt;marker-start:none"
         transform="matrix(-0.2,0,0,-0.2,-1.2,0)" />
    </marker>
    <marker
       inkscape:stockid="Arrow1Send98"
       orient="auto"
       refY="0"
       refX="0"
       id="Arrow1Send98"
       style="overflow:visible">
      <path
         inkscape:connector-curvature="0"
         id="path14361"
         d="M 0,0 5,-5 -12.5,0 5,5 0,0 z"
         style="fill:#ff0000;fill-rule:evenodd;stroke:#ff0000;stroke-width:1pt;marker-start:none"
         transform="matrix(-0.2,0,0,-0.2,-1.2,0)" />
    </marker>
    <marker
       inkscape:stockid="Arrow1Send7"
       orient="auto"
       refY="0"
       refX="0"
       id="Arrow1Send7"
       style="overflow:visible">
      <path
         inkscape:connector-curvature="0"
         id="path14645"
         d="M 0,0 5,-5 -12.5,0 5,5 0,0 z"
         style="fill:#ff0000;fill-rule:evenodd;stroke:#ff0000;stroke-width:1pt;marker-start:none"
         transform="matrix(-0.2,0,0,-0.2,-1.2,0)" />
    </marker>
  </defs>
  <metadata
     id="metadata12680">
    <rdf:RDF>
      <cc:Work
         rdf:about="">
        <dc:format>image/svg+xml</dc:format>
        <dc:type
           rdf:resource="http://purl.org/dc/dcmitype/StillImage" />
        <dc:title />
      </cc:Work>
    </rdf:RDF>
  </metadata>
  <g
     inkscape:label="Layer 1"
     inkscape:groupmode="layer"
     id="layer1"
     transform="translate(66.533152,-174.13913)">
    <path
       style="fill:none;stroke:#000000;stroke-width:1;stroke-linecap:butt;stroke-linejoin:miter;stroke-miterlimit:4;stroke-opacity:0.35294118;stroke-dasharray:none"
       d="m -66.033152,223.48896 410.077512,0"
       id="path12696"
       inkscape:connector-curvature="0" />
    <rect
       style="fill:#000000;fill-opacity:0.01960784;fill-rule:nonzero;stroke:none"
       id="rect12698"
       width="410.12411"
       height="82.284508"
       x="-66.0756"
       y="223.53725" />
    <path
       style="fill:none;stroke:#ff0000;stroke-width:1px;stroke-linecap:butt;stroke-linejoin:miter;stroke-opacity:1;marker-start:url(#Arrow1Sstartk);marker-end:url(#Arrow1Sendw)"
       d="m -2.5471407,176.57291 0,115.75103 39.7140157,-68.78669 84.217715,-48.62312"
       id="path13212"
       inkscape:connector-curvature="0"
       sodipodi:nodetypes="cccc" />
    <path
       style="fill:none;stroke:#ff0000;stroke-width:1px;stroke-linecap:butt;stroke-linejoin:miter;stroke-opacity:1;marker-start:url(#Arrow1Sstarte);marker-end:url(#Arrow1Sendi)"
       d="m 149.02097,201.32069 -82.733125,22.16827 -68.8349857,68.83498 119.2256907,-68.83498 40.98793,0.0483"
       id="path13214"
       inkscape:connector-curvature="0"
       sodipodi:nodetypes="ccccc" />
    <path
       style="fill:none;stroke:#ff0000;stroke-width:1px;stroke-linecap:butt;stroke-linejoin:miter;stroke-opacity:1;marker-end:url(#Arrow1Send9)"
       d="M -2.5471407,292.32394 174.53649,223.53725 251.58968,251.05766"
       id="path13218"
       inkscape:connector-curvature="0" />
    <path
       style="fill:none;stroke:#ff0000;stroke-width:1px;stroke-linecap:butt;stroke-linejoin:miter;stroke-opacity:1;marker-end:url(#Arrow1Send98)"
       d="m 37.250515,223.48896 15.68423,27.1659"
       id="path13224"
       inkscape:connector-curvature="0" />
    <path
       style="fill:none;stroke:#ff0000;stroke-width:1px;stroke-linecap:butt;stroke-linejoin:miter;stroke-opacity:1;marker-end:url(#Arrow1Sende)"
       d="m 116.67855,223.48896 34.46092,19.89602"
       id="path13226"
       inkscape:connector-curvature="0" />
    <path
       sodipodi:type="arc"
       style="fill:#ff0000;stroke:#ff0000;stroke-width:31.83163452;stroke-linecap:butt;stroke-linejoin:miter;stroke-miterlimit:4;stroke-opacity:1;stroke-dasharray:none;stroke-dashoffset:0"
       id="path13210"
       sodipodi:cx="290.38602"
       sodipodi:cy="116.34359"
       sodipodi:rx="46.978848"
       sodipodi:ry="46.978848"
       d="m 337.36486,116.34359 c 0,25.9457 -21.03314,46.97885 -46.97884,46.97885 -25.9457,0 -46.97885,-21.03315 -46.97885,-46.97885 0,-25.945701 21.03315,-46.978848 46.97885,-46.978848 25.9457,0 46.97884,21.033147 46.97884,46.978848 z"
       transform="matrix(0.0314153,0,0,-0.0314153,-11.402157,295.97891)" />
    <path
       style="fill:none;stroke:#ff0000;stroke-width:1px;stroke-linecap:butt;stroke-linejoin:miter;stroke-opacity:1;marker-end:url(#Arrow1Sendz)"
       d="m -2.5471407,247.5679 0,1.80345"
       id="path14144"
       inkscape:connector-curvature="0" />
    <path
       inkscape:connector-curvature="0"
       id="path14415"
       d="m 66.287845,223.48896 25.31538,25.31538"
       style="fill:none;stroke:#ff0000;stroke-width:1px;stroke-linecap:butt;stroke-linejoin:miter;stroke-opacity:1;marker-end:url(#Arrow1Send7)" />
    <path
       style="fill:none;stroke:#ff0000;stroke-width:0.80000001;stroke-linecap:butt;stroke-linejoin:miter;stroke-miterlimit:4;stroke-opacity:1;stroke-dasharray:none"
       d="m -7.4060447,292.32394 c 2.578949,0 2.578949,0 2.578949,0"
       id="path14696"
       inkscape:connector-curvature="0" />
    <path
       style="fill:none;stroke:#ff0000;stroke-width:0.80000001;stroke-linecap:butt;stroke-linejoin:miter;stroke-miterlimit:4;stroke-opacity:1;stroke-dasharray:none"
       d="m -5.9165137,295.89381 c 1.823592,-1.8236 1.823592,-1.8236 1.823592,-1.8236"
       id="path14696-1"
       inkscape:connector-curvature="0" />
    <path
       style="fill:none;stroke:#ff0000;stroke-width:0.80000001;stroke-linecap:butt;stroke-linejoin:miter;stroke-miterlimit:4;stroke-opacity:1;stroke-dasharray:none"
       d="m -2.3310897,297.44351 c -4e-6,-2.57896 -4e-6,-2.57896 -4e-6,-2.57896"
       id="path14696-1-4"
       inkscape:connector-curvature="0" />
    <path
       style="fill:none;stroke:#ff0000;stroke-width:0.80000001;stroke-linecap:butt;stroke-linejoin:miter;stroke-miterlimit:4;stroke-opacity:1;stroke-dasharray:none"
       d="m 0.25765326,292.38389 c 2.57894904,0 2.57894904,0 2.57894904,0"
       id="path14696-9"
       inkscape:connector-curvature="0" />
    <path
       style="fill:none;stroke:#ff0000;stroke-width:0.80000001;stroke-linecap:butt;stroke-linejoin:miter;stroke-miterlimit:4;stroke-opacity:1;stroke-dasharray:none"
       d="m 1.2866543,295.96946 c -1.82359204,-1.8236 -1.82359204,-1.8236 -1.82359204,-1.8236"
       id="path14696-1-42"
       inkscape:connector-curvature="0" />
    <path
       style="fill:none;stroke:#ff0000;stroke-width:0.80000001;stroke-linecap:butt;stroke-linejoin:miter;stroke-miterlimit:4;stroke-opacity:1;stroke-dasharray:none"
       d="m -4.0661907,290.52114 c -1.823592,-1.8236 -1.823592,-1.8236 -1.823592,-1.8236"
       id="path14696-1-42-2"
       inkscape:connector-curvature="0" />
    <path
       style="fill:none;stroke:#0000ff;stroke-width:0.99999988;stroke-linecap:butt;stroke-linejoin:miter;stroke-miterlimit:4;stroke-opacity:1;stroke-dasharray:1.99999987, 0.99999995;stroke-dashoffset:0"
       d="m 116.67855,218.762 0,13.49934"
       id="path14788"
       inkscape:connector-curvature="0" />
    <path
       sodipodi:type="arc"
       style="fill:#000000;fill-opacity:0.01960784;fill-rule:nonzero;stroke:#0000ff;stroke-width:1;stroke-linecap:butt;stroke-linejoin:miter;stroke-miterlimit:4;stroke-opacity:1;stroke-dasharray:none;stroke-dashoffset:0"
       id="path14790"
       sodipodi:cx="211.92453"
       sodipodi:cy="135.67509"
       sodipodi:rx="4.377038"
       sodipodi:ry="4.377038"
       d="m 212.00056,140.05147 c -1.61,0.028 -3.10533,-0.8303 -3.89326,-2.23459"
       transform="translate(-95.245985,87.813867)"
       sodipodi:start="1.5534263"
       sodipodi:end="2.6302801"
       sodipodi:open="true" />
    <g
       ns0:preamble=""
       ns0:text="5"
       word-spacing="normal"
       letter-spacing="normal"
       font-size-adjust="none"
       font-stretch="normal"
       font-weight="normal"
       font-variant="normal"
       font-style="normal"
       stroke-miterlimit="10.433"
       xml:space="preserve"
       transform="matrix(1,0,0,-1,-2.0226405,958.33791)"
       id="g4655"
       style="font-style:normal;font-variant:normal;font-weight:normal;font-stretch:normal;letter-spacing:normal;word-spacing:normal;text-anchor:start;fill:none;stroke:#000000;stroke-linecap:butt;stroke-linejoin:miter;stroke-miterlimit:10.43299961;stroke-opacity:1;stroke-dasharray:none;stroke-dashoffset:0">
<path
   id="path4657"
   d="m 227.91,709.12 0,0.12 -0.01,0.1 -0.01,0.11 -0.02,0.11 -0.02,0.1 -0.02,0.11 -0.03,0.1 -0.04,0.1 -0.03,0.09 -0.04,0.1 -0.05,0.09 -0.05,0.09 -0.05,0.08 -0.05,0.08 -0.06,0.08 -0.07,0.08 -0.06,0.07 -0.07,0.07 -0.07,0.07 -0.07,0.06 -0.08,0.05 -0.08,0.06 -0.08,0.05 -0.09,0.04 -0.08,0.04 -0.09,0.04 -0.09,0.03 -0.1,0.02 -0.09,0.02 -0.1,0.01 -0.1,0.01 -0.1,0 c -0.47,0 -0.9,-0.15 -1.26,-0.5 v 1.94 c 0.2,-0.06 0.53,-0.13 0.85,-0.13 1.22,0 1.92,0.91 1.92,1.03 0,0.06 -0.03,0.11 -0.1,0.11 -0.01,0 -0.03,0 -0.08,-0.03 -0.2,-0.09 -0.69,-0.29 -1.36,-0.29 -0.39,0 -0.85,0.08 -1.32,0.28 -0.08,0.03 -0.1,0.03 -0.12,0.03 -0.1,0 -0.1,-0.08 -0.1,-0.23 v -2.95 c 0,-0.18 0,-0.26 0.14,-0.26 0.07,0 0.09,0.03 0.13,0.09 0.11,0.16 0.48,0.7 1.28,0.7 0.52,0 0.77,-0.46 0.85,-0.64 0.16,-0.37 0.18,-0.76 0.18,-1.25 0,-0.35 0,-0.95 -0.24,-1.37 -0.24,-0.39 -0.61,-0.65 -1.07,-0.65 -0.72,0 -1.29,0.53 -1.46,1.12 0.03,-0.01 0.06,-0.02 0.17,-0.02 0.33,0 0.5,0.25 0.5,0.49 0,0.24 -0.17,0.49 -0.5,0.49 -0.14,0 -0.49,-0.08 -0.49,-0.53 0,-0.86 0.69,-1.82 1.81,-1.82 1.15,0 2.17,0.95 2.17,2.21 z"
   inkscape:connector-curvature="0"
   style="fill:#000000;stroke-width:0" />
</g>    <g
       id="g3196"
       transform="matrix(1,0,0,-1,-286.79303,996.69975)"
       xml:space="preserve"
       stroke="black"
       stroke-linecap="butt"
       stroke-linejoin="miter"
       stroke-miterlimit="10.433"
       stroke-dasharray="none"
       stroke-dashoffset="0"
       stroke-opacity="1"
       fill="none"
       fill-rule="evenodd"
       fill-opacity="1"
       font-style="normal"
       font-variant="normal"
       font-weight="normal"
       font-stretch="normal"
       font-size-adjust="none"
       letter-spacing="normal"
       word-spacing="normal"
       text-anchor="start"
       ns0:text="Light source"
       ns0:preamble="/home/josh/Desktop/preamble.txt"
       style="font-style:normal;font-variant:normal;font-weight:normal;font-stretch:normal;letter-spacing:normal;word-spacing:normal;text-anchor:start;fill:none;stroke:#000000;stroke-linecap:butt;stroke-linejoin:miter;stroke-miterlimit:10.43299961;stroke-opacity:1;stroke-dasharray:none;stroke-dashoffset:0">
<path
   d="M228.95,708.77 L228.66,708.78 C228.66,708.78,228.43,707.9,228.26,707.72 C228.03,707.48,226.89,707.48,226.57,707.48 C226.12,707.48,225.55,707.48,225.55,708.08 V712.47 C225.55,713.45,225.59,713.48,226.52,713.54 V713.8 C225.6,713.76,224.64,713.77,223.71,713.8 V713.54 C224.64,713.47,224.67,713.43,224.67,712.47 V708.32 C224.67,707.72,224.6,707.4,223.93,707.34 V707.11 C225.08,707.16,226.24,707.11,227.39,707.11 H227.81 L228.71,707.42 Z "
   stroke-width="0"
   fill="black"
   id="path3198" />
<path
   d="M231.42,713.39 L231.42,713.41 L231.42,713.44 L231.42,713.47 L231.41,713.49 L231.41,713.52 L231.4,713.54 L231.39,713.57 L231.38,713.59 L231.37,713.62 L231.36,713.64 L231.34,713.67 L231.33,713.69 L231.31,713.71 L231.3,713.73 L231.28,713.75 L231.26,713.77 L231.24,713.79 L231.22,713.81 L231.2,713.83 L231.18,713.84 L231.16,713.86 L231.14,713.87 L231.11,713.88 L231.09,713.9 L231.07,713.91 L231.04,713.92 L231.02,713.92 L230.99,713.93 L230.97,713.94 L230.94,713.94 L230.91,713.94 L230.88,713.94 C230.59,713.94,230.35,713.67,230.35,713.39 C230.35,713.1,230.6,712.85,230.88,712.85 C231.17,712.85,231.42,713.1,231.42,713.39 Z "
   stroke-width="0"
   fill="black"
   id="path3200" />
<path
   d="M232.08,707.11 V707.37 C231.41,707.43,231.31,707.35,231.31,708.08 V711.62 L231.26,711.69 L229.76,711.28 V711.06 C230.43,710.99,230.51,711.12,230.51,710.35 V708.08 C230.51,707.35,230.41,707.43,229.74,707.37 V707.11 C230.52,707.14,231.3,707.14,232.08,707.11 Z "
   stroke-width="0"
   fill="black"
   id="path3202" />
<path
   d="M237.42,711.43 L236.05,711.35 C235.73,711.58,235.37,711.68,234.98,711.68 L234.76,711.38 C235.5,711.38,235.8,710.65,235.8,710.01 H235.8 C235.8,709.44,235.5,708.9,234.87,708.9 C234.15,708.9,233.84,709.57,233.84,710.2 C233.84,710.77,234.1,711.38,234.76,711.38 L234.98,711.68 C234,711.68,233.02,711.03,233.02,709.97 C233.02,709.29,233.46,708.8,234.12,708.67 C234.12,708.67,233.35,708.2,233.17,707.87 C233.17,707.22,233.94,707.12,233.94,707.12 C233.94,707.12,232.82,706.59,232.82,705.89 C232.82,704.9,233.94,704.52,234.77,704.52 L234.98,704.91 C234.29,704.91,233.59,705.27,233.59,706.04 C233.59,706.92,234.37,707.08,235.07,707.08 C235.74,707.08,236.6,707.05,236.6,706.17 H236.6 C236.6,705.3,235.74,704.91,234.98,704.91 L234.77,704.52 C236.33,704.52,237.3,705.29,237.3,706.58 C237.3,707.32,236.74,707.74,236.04,707.74 H234.69 C234.44,707.74,233.99,707.76,233.99,708.1 C233.99,708.3,234.47,708.6,234.47,708.6 C235.84,708.6,236.6,709.11,236.6,710.24 C236.6,710.49,236.4,710.93,236.4,710.93 L237.13,710.91 Z "
   stroke-width="0"
   fill="black"
   id="path3204" />
<path
   d="M243.19,707.11 V707.38 C242.54,707.43,242.47,707.38,242.47,708.08 V710.1 C242.47,711.11,241.99,711.68,240.96,711.68 C239.72,711.68,239.47,710.88,239.47,710.88 V714.17 L239.43,714.27 C238.93,714.11,238.43,714,237.91,713.91 V713.67 C238.42,713.63,238.66,713.77,238.66,713.15 V708.08 C238.66,707.36,238.58,707.43,237.92,707.37 V707.11 C238.68,707.14,239.44,707.14,240.21,707.11 V707.37 C239.55,707.43,239.47,707.36,239.47,708.08 V710.41 C239.47,710.79,240.31,711.11,240.62,711.11 C241.37,711.11,241.67,710.57,241.67,709.88 V708.17 C241.67,707.93,241.66,707.35,241.33,707.32 V707.11 C241.95,707.15,242.57,707.15,243.19,707.11 Z "
   stroke-width="0"
   fill="black"
   id="path3206" />
<path
   d="M246.64,707.57 L246.52,707.77 C246.34,707.67,246.14,707.58,245.93,707.58 C245.45,707.58,245.34,707.96,245.34,708.38 V710.98 H246.52 L246.6,711.36 H245.35 V712.9 L245.33,713.02 L244.84,712.83 C244.84,712.83,244.54,712.65,244.54,712.11 V711.36 H243.8 L243.79,710.98 H244.53 V708.14 C244.53,707.42,244.82,707.01,245.57,707.01 C246.01,707.01,246.41,707.27,246.64,707.57 Z "
   stroke-width="0"
   fill="black"
   id="path3208" />
<path
   d="M253.2,708.49 L253.2,708.56 L253.19,708.63 L253.19,708.7 L253.17,708.76 L253.16,708.82 L253.14,708.88 L253.12,708.94 L253.1,708.99 L253.07,709.04 L253.04,709.09 L253.01,709.13 L252.98,709.18 L252.94,709.22 L252.9,709.26 L252.86,709.3 L252.82,709.33 L252.77,709.36 L252.73,709.4 L252.63,709.46 L252.53,709.51 L252.43,709.56 L252.32,709.6 L252.2,709.64 L252.09,709.68 L251.98,709.72 L251.75,709.79 L251.64,709.83 L251.53,709.86 L251.42,709.9 L251.32,709.94 L251.22,709.98 L251.13,710.03 L251.05,710.08 L251.01,710.11 L250.98,710.14 L250.94,710.17 L250.91,710.2 L250.88,710.24 L250.86,710.27 L250.83,710.31 L250.81,710.35 L250.79,710.39 L250.78,710.44 L250.77,710.48 L250.76,710.53 L250.75,710.58 L250.75,710.64 C250.75,711.12,251.11,711.36,251.56,711.36 C252.2,711.36,252.52,711,252.64,710.4 L252.9,710.43 L252.82,711.47 C252.48,711.6,252.13,711.68,251.76,711.68 C250.92,711.68,250.08,711.24,250.08,710.31 C250.08,708.79,252.46,709.37,252.46,708.13 C252.46,707.59,252.01,707.3,251.51,707.3 C250.35,707.3,250.52,708.11,250.32,708.43 L250.13,708.54 L249.96,707.81 C250.29,707.14,250.46,706.97,251.29,706.97 C252.2,706.97,253.2,707.45,253.2,708.49 Z "
   stroke-width="0"
   fill="black"
   id="path3210" />
<path
   d="M258.6,709.42 L258.6,709.55 L258.59,709.66 L258.58,709.78 L258.56,709.9 L258.54,710.01 L258.51,710.12 L258.47,710.22 L258.43,710.33 L258.39,710.43 L258.34,710.53 L258.29,710.62 L258.23,710.71 L258.17,710.8 L258.1,710.88 L258.03,710.97 L257.96,711.04 L257.88,711.12 L257.8,711.19 L257.72,711.25 L257.63,711.31 L257.54,711.37 L257.44,711.42 L257.35,711.47 L257.24,711.51 L257.14,711.55 L257.03,711.59 L256.92,711.62 L256.81,711.64 L256.7,711.66 L256.58,711.67 L256.46,711.68 L256.34,711.68 L256.19,711.36 C257.3,711.36,257.69,710.01,257.69,709.12 H257.69 C257.69,708.34,257.44,707.28,256.45,707.28 C255.29,707.28,254.92,708.66,254.92,709.58 C254.92,710.39,255.22,711.36,256.19,711.36 L256.34,711.68 C254.94,711.68,254.01,710.58,254.01,709.22 C254.01,707.95,254.9,706.97,256.2,706.97 C257.61,706.97,258.6,708.04,258.6,709.42 Z "
   stroke-width="0"
   fill="black"
   id="path3212" />
<path
   d="M264.51,707.23 V707.49 C263.88,707.53,263.75,707.41,263.75,708.1 V711.6 L263.71,711.66 C262.83,711.47,263.11,711.53,262.15,711.38 V711.13 C262.78,711.09,262.93,711.2,262.93,710.5 V708.86 C262.93,708.37,262.3,707.61,261.7,707.6 C260.94,707.59,260.76,708.12,260.76,708.78 V711.6 L260.72,711.66 C259.83,711.46,260.1,711.52,259.24,711.38 V711.13 C259.84,711.09,259.95,711.16,259.95,710.5 V708.55 C259.95,707.6,260.23,707.02,261.28,707.02 C262.01,707.02,262.57,707.32,262.93,707.9 V707.09 L262.99,707.07 C263.9,707.2,263.61,707.16,264.51,707.23 Z "
   stroke-width="0"
   fill="black"
   id="path3214" />
<path
   d="M268.63,711.29 L268.63,711.3 L268.63,711.31 L268.63,711.32 L268.63,711.33 L268.63,711.34 L268.62,711.35 L268.62,711.37 L268.61,711.39 L268.6,711.4 L268.58,711.42 L268.57,711.44 L268.55,711.45 L268.53,711.47 L268.52,711.49 L268.5,711.5 L268.48,711.52 L268.45,711.53 L268.43,711.55 L268.41,711.56 L268.39,711.57 L268.36,711.58 L268.34,711.6 L268.32,711.61 L268.29,711.62 L268.27,711.63 L268.25,711.63 L268.22,711.64 L268.2,711.65 L268.18,711.66 L268.16,711.66 L268.14,711.66 L268.12,711.67 L268.1,711.67 L268.08,711.67 L268.07,711.67 C267.52,711.67,266.99,711.11,266.76,710.64 V711.62 L266.72,711.68 C265.88,711.43,266.16,711.51,265.21,711.28 V711.06 C265.88,710.99,265.95,711.12,265.95,710.35 V708.08 C265.95,707.35,265.85,707.43,265.2,707.37 V707.1 C266.02,707.12,266.84,707.12,267.67,707.1 V707.37 C266.97,707.42,266.76,707.29,266.76,708.08 V709.98 C266.76,710.33,267.18,710.89,267.59,710.89 C267.82,710.89,268.1,710.69,268.1,710.58 L268.24,710.55 Z "
   stroke-width="0"
   fill="black"
   id="path3216" />
<path
   d="M273.06,707.83 L272.95,707.97 C272.58,707.7,272.29,707.55,271.83,707.55 C270.7,707.55,270.14,708.57,270.14,709.58 C270.14,710.4,270.52,711.21,271.43,711.21 C271.71,711.21,272.22,711.17,272.34,710.88 L272.53,710.47 L272.75,710.43 L272.98,711.27 C272.98,711.52,272.11,711.68,271.91,711.68 C270.55,711.68,269.3,710.55,269.3,709.16 C269.3,707.91,270.21,706.97,271.47,706.97 C271.9,706.97,272.55,707.16,272.83,707.5 Z "
   stroke-width="0"
   fill="black"
   id="path3218" />
<path
   d="M277.71,710.04 L277.71,710.13 L277.7,710.21 L277.69,710.3 L277.68,710.38 L277.66,710.46 L277.64,710.54 L277.61,710.61 L277.59,710.69 L277.55,710.76 L277.52,710.83 L277.48,710.9 L277.44,710.97 L277.39,711.03 L277.35,711.09 L277.29,711.15 L277.24,711.21 L277.18,711.26 L277.13,711.31 L277.06,711.36 L277,711.41 L276.93,711.45 L276.87,711.49 L276.8,711.52 L276.72,711.56 L276.65,711.59 L276.57,711.61 L276.49,711.63 L276.41,711.65 L276.33,711.66 L276.25,711.67 L276.16,711.68 L276.08,711.68 C275.66,711.68,275.26,711.52,274.91,711.3 C274.15,710.82,273.83,710.09,273.83,709.21 C273.83,707.9,274.61,706.97,275.96,706.97 C276.39,706.97,277.05,707.12,277.44,707.6 L277.64,707.9 L277.51,708.02 C277.14,707.75,276.81,707.55,276.35,707.55 C275.17,707.55,274.67,708.48,274.66,709.53 L274.7,709.91 C274.73,710.6,275.1,711.34,275.89,711.34 C276.36,711.34,276.89,710.8,276.89,710.33 H276.89 C276.89,710.07,276.79,709.89,276.51,709.87 C275.9,709.82,274.7,709.91,274.7,709.91 L274.66,709.53 C274.66,709.53,275.96,709.46,276.86,709.57 L277.7,709.83 Z "
   stroke-width="0"
   fill="black"
   id="path3220" />
</g>    <g
       style="font-style:normal;font-variant:normal;font-weight:normal;font-stretch:normal;letter-spacing:normal;word-spacing:normal;text-anchor:start;fill:none;stroke:#000000;stroke-linecap:butt;stroke-linejoin:miter;stroke-miterlimit:10.43299961;stroke-opacity:1;stroke-dasharray:none;stroke-dashoffset:0"
       ns0:preamble="/home/josh/Desktop/preamble.txt"
       ns0:text="$n_1$\\newline\nHigh Index Material"
       text-anchor="start"
       word-spacing="normal"
       letter-spacing="normal"
       font-size-adjust="none"
       font-stretch="normal"
       font-weight="normal"
       font-variant="normal"
       font-style="normal"
       fill-opacity="1"
       fill-rule="evenodd"
       fill="none"
       stroke-opacity="1"
       stroke-dashoffset="0"
       stroke-dasharray="none"
       stroke-miterlimit="10.433"
       stroke-linejoin="miter"
       stroke-linecap="butt"
       stroke="black"
       xml:space="preserve"
       transform="matrix(1,0,0,-1,15.372118,983.83258)"
       id="g3430">
<path
   id="path3432"
   fill="black"
   stroke-width="0"
   d="M228.65,707.96 L228.55,708.15 C228.39,708.03,227.88,707.69,227.74,707.69 C227.68,707.69,227.66,707.77,227.66,707.86 C227.66,707.95,227.68,708.06,227.69,708.1 C227.92,709.08,228.18,710.03,228.36,711.02 C228.38,711.14,228.39,711.23,228.39,711.32 C228.39,711.67,228.23,711.74,228.08,711.74 C227.82,711.74,227.41,711.52,227,711.22 C226.41,710.8,225.8,710.26,225.39,709.67 C225.51,710.16,225.71,711.14,225.71,711.14 C225.74,711.26,225.76,711.35,225.76,711.44 C225.76,711.63,225.68,711.74,225.54,711.74 C225.25,711.74,224.27,711.04,224,710.77 L224.09,710.57 C224.2,710.68,224.74,711.05,224.86,711.05 C224.92,711.05,224.95,710.97,224.95,710.83 C224.95,710.47,224.78,709.72,224.58,708.85 C224.44,708.21,224.3,707.63,224.15,707.08 L224.93,707.24 C225.11,708.1,225.3,709.02,225.55,709.45 C225.98,710.15,226.94,711.1,227.42,711.1 C227.56,711.1,227.6,710.97,227.6,710.81 C227.6,710.6,227.52,710.32,227.5,710.23 L226.89,707.6 C226.87,707.51,226.86,707.42,226.86,707.35 C226.86,707.14,226.95,707.03,227.12,707.03 C227.32,707.03,227.92,707.35,228.65,707.96 Z " />
<path
   id="path3434"
   fill="black"
   stroke-width="0"
   d="M232.2,705.08 V705.27 C231.72,705.3,231.4,705.21,231.4,705.78 V710.03 L231.35,710.1 C230.44,709.7,230.73,709.82,229.83,709.47 L229.92,709.3 C230.1,709.3,230.48,709.53,230.69,709.53 C230.79,709.53,230.79,709.31,230.79,709.24 V705.78 C230.79,705.2,230.44,705.3,229.97,705.27 V705.08 C230.71,705.09,231.46,705.09,232.2,705.08 Z " />
<path
   id="path3436"
   fill="black"
   stroke-width="0"
   d="M231.13,701.59 V701.85 C230.21,701.81,229.26,701.82,228.35,701.85 V701.59 C229.27,701.52,229.28,701.46,229.28,700.51 V698.92 C229.04,698.91,228.8,698.91,228.57,698.91 H226.26 C226.02,698.91,225.79,698.91,225.55,698.92 V700.51 C225.55,701.46,225.57,701.52,226.48,701.59 V701.85 C225.57,701.81,224.62,701.82,223.7,701.85 V701.59 C224.64,701.53,224.67,701.49,224.67,700.51 V696.49 C224.67,695.54,224.65,695.49,223.72,695.42 V695.16 C224.64,695.19,225.59,695.19,226.5,695.16 V695.42 C225.57,695.49,225.55,695.54,225.55,696.49 V698.48 C225.74,698.49,225.93,698.49,226.12,698.49 H228.71 C228.9,698.49,229.09,698.49,229.28,698.48 V696.49 C229.28,695.51,229.24,695.48,228.31,695.42 V695.16 C229.23,695.19,230.19,695.19,231.12,695.16 V695.42 C230.19,695.49,230.17,695.54,230.17,696.49 V700.51 C230.17,701.48,230.2,701.52,231.13,701.59 Z " />
<path
   id="path3438"
   fill="black"
   stroke-width="0"
   d="M233.32,701.43 L233.32,701.46 L233.31,701.48 L233.31,701.51 L233.3,701.54 L233.3,701.56 L233.29,701.59 L233.28,701.61 L233.27,701.64 L233.26,701.66 L233.25,701.69 L233.24,701.71 L233.22,701.73 L233.21,701.76 L233.19,701.78 L233.17,701.8 L233.16,701.82 L233.14,701.84 L233.12,701.85 L233.1,701.87 L233.08,701.89 L233.05,701.9 L233.03,701.92 L233.01,701.93 L232.98,701.94 L232.96,701.95 L232.93,701.96 L232.91,701.97 L232.88,701.97 L232.86,701.98 L232.83,701.98 L232.8,701.99 L232.78,701.99 C232.48,701.99,232.24,701.72,232.24,701.43 C232.24,701.14,232.49,700.89,232.78,700.89 C233.07,700.89,233.32,701.14,233.32,701.43 Z " />
<path
   id="path3440"
   fill="black"
   stroke-width="0"
   d="M233.97,695.16 V695.42 C233.31,695.48,233.21,695.4,233.21,696.12 V699.67 L233.16,699.74 L231.65,699.33 V699.1 C232.32,699.03,232.4,699.16,232.4,698.4 V696.12 C232.4,695.4,232.3,695.48,231.63,695.42 V695.16 C232.41,695.18,233.2,695.18,233.97,695.16 Z " />
<path
   id="path3442"
   fill="black"
   stroke-width="0"
   d="M239.32,699.48 L237.94,699.4 C237.62,699.63,237.26,699.73,236.87,699.73 L236.65,699.42 C237.39,699.42,237.69,698.69,237.69,698.06 H237.69 C237.69,697.49,237.39,696.94,236.76,696.94 C236.05,696.94,235.74,697.62,235.74,698.24 C235.74,698.81,236,699.42,236.65,699.42 L236.87,699.73 C235.9,699.73,234.91,699.07,234.91,698.02 C234.91,697.34,235.36,696.84,236.02,696.71 C236.02,696.71,235.25,696.24,235.06,695.92 C235.06,695.27,235.84,695.17,235.84,695.17 C235.84,695.17,234.71,694.63,234.71,693.94 C234.71,692.94,235.84,692.56,236.66,692.56 L236.87,692.95 C236.18,692.95,235.48,693.32,235.48,694.09 C235.48,694.96,236.26,695.12,236.96,695.12 C237.63,695.12,238.49,695.1,238.49,694.22 H238.49 C238.49,693.35,237.63,692.95,236.87,692.95 L236.66,692.56 C238.22,692.56,239.2,693.34,239.2,694.62 C239.2,695.37,238.64,695.79,237.93,695.79 H236.58 C236.34,695.79,235.89,695.81,235.89,696.15 C235.89,696.34,236.37,696.64,236.37,696.64 C237.73,696.64,238.5,697.15,238.5,698.28 C238.5,698.53,238.29,698.97,238.29,698.97 L239.03,698.95 Z " />
<path
   id="path3444"
   fill="black"
   stroke-width="0"
   d="M245.08,695.16 V695.43 C244.44,695.48,244.37,695.43,244.37,696.12 V698.15 C244.37,699.15,243.88,699.73,242.85,699.73 C241.62,699.73,241.37,698.92,241.37,698.92 V702.22 L241.33,702.32 C240.83,702.16,240.32,702.05,239.8,701.96 V701.72 C240.31,701.68,240.56,701.82,240.56,701.19 V696.12 C240.56,695.41,240.47,695.48,239.81,695.42 V695.16 C240.58,695.18,241.34,695.18,242.1,695.16 V695.42 C241.45,695.48,241.37,695.41,241.37,696.12 V698.45 C241.37,698.83,242.2,699.15,242.51,699.15 C243.26,699.15,243.56,698.61,243.56,697.93 V696.22 C243.56,695.98,243.55,695.4,243.22,695.37 V695.16 C243.84,695.19,244.47,695.19,245.08,695.16 Z " />
<path
   id="path3446"
   fill="black"
   stroke-width="0"
   d="M251.08,695.16 V695.42 C250.15,695.49,250.13,695.54,250.13,696.49 V700.51 C250.13,701.47,250.15,701.52,251.08,701.59 V701.85 C250.16,701.81,249.22,701.82,248.3,701.85 V701.59 C249.23,701.52,249.25,701.47,249.25,700.51 V696.49 C249.25,695.54,249.23,695.49,248.3,695.42 V695.16 C249.22,695.19,250.16,695.19,251.08,695.16 Z " />
<path
   id="path3448"
   fill="black"
   stroke-width="0"
   d="M257.07,695.16 V695.42 C256.42,695.48,256.37,695.43,256.37,696.12 V698.2 C256.37,699.15,255.88,699.73,254.91,699.73 C254.26,699.73,253.78,699.38,253.37,698.91 V699.68 L253.32,699.74 C252.32,699.45,252.61,699.52,251.82,699.33 V699.1 C252.48,699.04,252.56,699.15,252.56,698.4 V696.12 C252.56,695.4,252.45,695.48,251.79,695.42 V695.16 C252.55,695.18,253.33,695.18,254.1,695.16 V695.42 C253.45,695.48,253.37,695.41,253.37,696.12 V698.44 C253.54,698.85,254.12,699.14,254.55,699.14 C255.26,699.14,255.56,698.63,255.56,697.98 V696.21 C255.56,695.96,255.54,695.4,255.21,695.37 V695.16 C255.82,695.19,256.45,695.19,257.07,695.16 Z " />
<path
   id="path3450"
   fill="black"
   stroke-width="0"
   d="M262.95,695.28 V695.54 C262.95,695.54,262.16,695.31,262.16,696.16 V702.22 L262.11,702.32 C261.23,702.09,261.52,702.16,260.56,701.96 V701.72 C260.56,701.72,261.35,701.96,261.35,701.19 V699.52 C261.35,699.52,260.77,699.73,260.48,699.73 L260.13,699.31 C260.35,699.31,261.35,699.06,261.35,698.74 V696.66 C261.35,696.1,260.68,695.62,260.16,695.62 C259.16,695.62,258.72,696.68,258.72,697.54 C258.72,698.42,259.12,699.31,260.13,699.31 L260.48,699.73 C259.12,699.73,257.84,698.65,257.84,697.25 C257.84,696.01,258.63,695.04,259.92,695.05 C261.07,695.06,261.37,695.86,261.37,695.86 L261.34,695.08 C262.31,695.23,262.02,695.19,262.95,695.28 Z " />
<path
   id="path3452"
   fill="black"
   stroke-width="0"
   d="M267.6,698.09 L267.6,698.17 L267.59,698.26 L267.58,698.34 L267.57,698.42 L267.55,698.5 L267.53,698.58 L267.5,698.66 L267.47,698.73 L267.44,698.81 L267.41,698.88 L267.37,698.95 L267.33,699.01 L267.28,699.08 L267.23,699.14 L267.18,699.2 L267.13,699.25 L267.07,699.31 L267.01,699.36 L266.95,699.41 L266.89,699.45 L266.82,699.49 L266.75,699.53 L266.68,699.57 L266.61,699.6 L266.54,699.63 L266.46,699.66 L266.38,699.68 L266.3,699.7 L266.22,699.71 L266.14,699.72 L266.05,699.73 L265.96,699.73 C265.55,699.73,265.15,699.57,264.8,699.35 C264.04,698.86,263.72,698.14,263.72,697.25 C263.72,695.95,264.5,695.01,265.84,695.01 C266.27,695.01,266.94,695.17,267.33,695.65 L267.53,695.95 L267.4,696.07 C267.03,695.8,266.7,695.6,266.23,695.6 C265.06,695.6,264.56,696.52,264.55,697.58 L264.59,697.96 C264.62,698.64,264.99,699.39,265.77,699.39 C266.24,699.39,266.78,698.84,266.78,698.38 H266.78 C266.78,698.12,266.68,697.94,266.4,697.92 C265.78,697.87,264.59,697.96,264.59,697.96 L264.55,697.58 C264.55,697.58,265.84,697.51,266.75,697.62 L267.59,697.88 Z " />
<path
   id="path3454"
   fill="black"
   stroke-width="0"
   d="M272.96,695.14 V695.42 C272.47,695.49,272.39,695.48,272.1,695.9 L270.86,697.67 L271.98,699.08 C272.21,699.37,272.45,699.34,272.78,699.36 V699.56 C271.99,699.54,272.26,699.54,271.4,699.56 V699.36 C271.66,699.32,271.68,699.36,271.56,699.11 L270.71,697.95 C270.71,697.95,270.23,698.56,270.01,698.96 C269.81,699.33,269.92,699.28,270.28,699.29 V699.56 C269.08,699.54,269.4,699.54,268.22,699.56 V699.3 C268.68,699.24,268.89,699.23,269.16,698.83 L270.2,697.28 L269.1,695.81 C268.81,695.43,268.62,695.41,268.22,695.39 V695.14 C269.08,695.16,268.82,695.16,269.65,695.14 V695.4 C269.27,695.39,269.4,695.56,269.44,695.66 L270.41,697.02 L271.32,695.7 C271.49,695.36,271.33,695.46,271.14,695.42 V695.14 C272.15,695.16,271.81,695.16,272.96,695.14 Z " />
<path
   id="path3456"
   fill="black"
   stroke-width="0"
   d="M284.72,695.16 V695.42 C283.75,695.49,283.77,695.53,283.76,696.49 L283.71,700.67 C283.7,701.54,283.83,701.53,284.63,701.59 V701.85 C284.04,701.83,283.46,701.83,282.87,701.85 L280.38,696.52 L277.86,701.85 C277.27,701.83,276.67,701.83,276.08,701.85 V701.59 C276.78,701.54,277.03,701.55,277.03,700.76 L276.89,696.15 C276.87,695.42,276.61,695.47,275.99,695.42 V695.16 C276.77,695.18,277.57,695.18,278.35,695.16 V695.42 C277.75,695.46,277.37,695.4,277.4,696.15 L277.56,700.45 L280,695.16 H280.23 L282.84,700.77 L282.86,696.37 C282.86,695.54,282.85,695.49,282.02,695.42 V695.16 C282.91,695.2,283.82,695.19,284.72,695.16 Z " />
<path
   id="path3458"
   fill="black"
   stroke-width="0"
   d="M289.43,695.34 L289.39,695.6 C288.97,695.5,288.7,695.61,288.7,696.1 V698.14 C288.7,699.1,288.39,699.72,287.32,699.73 C286.43,699.73,285.8,699.25,285.52,698.51 L285.87,698.32 C286.21,698.77,286.4,699.24,286.83,699.25 C287.7,699.28,287.94,698.74,287.92,697.97 V697.65 V696.2 C287.69,695.94,287.19,695.61,286.83,695.61 C286.42,695.61,286.14,696,286.13,696.39 C286.11,697.1,287.92,697.65,287.92,697.65 V697.97 L286.63,697.53 C285.9,697.29,285.28,697.05,285.28,696.23 C285.28,695.52,285.81,695.05,286.51,695.05 C287.05,695.05,287.92,695.85,287.92,695.85 C287.92,695.85,287.89,695.1,288.17,695.1 C288.9,695.27,288.66,695.21,289.43,695.34 Z " />
<path
   id="path3460"
   fill="black"
   stroke-width="0"
   d="M292.83,695.62 L292.71,695.82 C292.53,695.72,292.33,695.63,292.12,695.63 C291.65,695.63,291.54,696.01,291.54,696.42 V699.02 H292.71 L292.79,699.41 H291.55 V700.94 L291.53,701.06 L291.04,700.87 C291.04,700.87,290.74,700.69,290.74,700.16 V699.41 H289.99 L289.98,699.02 H290.73 V696.18 C290.73,695.47,291.02,695.05,291.77,695.05 C292.2,695.05,292.6,695.32,292.83,695.62 Z " />
<path
   id="path3462"
   fill="black"
   stroke-width="0"
   d="M297.49,698.09 L297.48,698.17 L297.48,698.26 L297.47,698.34 L297.45,698.42 L297.44,698.5 L297.41,698.58 L297.39,698.66 L297.36,698.73 L297.33,698.81 L297.29,698.88 L297.26,698.95 L297.21,699.01 L297.17,699.08 L297.12,699.14 L297.07,699.2 L297.02,699.25 L296.96,699.31 L296.9,699.36 L296.84,699.41 L296.78,699.45 L296.71,699.49 L296.64,699.53 L296.57,699.57 L296.5,699.6 L296.42,699.63 L296.35,699.66 L296.27,699.68 L296.19,699.7 L296.11,699.71 L296.02,699.72 L295.94,699.73 L295.85,699.73 C295.43,699.73,295.03,699.57,294.68,699.35 C293.93,698.86,293.61,698.14,293.61,697.25 C293.61,695.95,294.39,695.01,295.73,695.01 C296.16,695.01,296.83,695.17,297.22,695.65 L297.42,695.95 L297.29,696.07 C296.92,695.8,296.59,695.6,296.12,695.6 C294.94,695.6,294.45,696.52,294.44,697.58 L294.48,697.96 C294.51,698.64,294.88,699.39,295.66,699.39 C296.13,699.39,296.67,698.84,296.67,698.38 H296.67 C296.67,698.12,296.57,697.94,296.29,697.92 C295.67,697.87,294.48,697.96,294.48,697.96 L294.44,697.58 C294.44,697.58,295.73,697.51,296.64,697.62 L297.48,697.88 Z " />
<path
   id="path3464"
   fill="black"
   stroke-width="0"
   d="M301.71,699.34 L301.71,699.35 L301.71,699.36 L301.71,699.37 L301.71,699.38 L301.7,699.39 L301.7,699.4 L301.69,699.41 L301.68,699.43 L301.67,699.45 L301.66,699.47 L301.64,699.48 L301.63,699.5 L301.61,699.52 L301.59,699.53 L301.57,699.55 L301.55,699.56 L301.53,699.58 L301.51,699.59 L301.49,699.6 L301.46,699.62 L301.44,699.63 L301.42,699.64 L301.39,699.65 L301.37,699.66 L301.34,699.67 L301.32,699.68 L301.3,699.69 L301.28,699.69 L301.25,699.7 L301.23,699.71 L301.21,699.71 L301.19,699.71 L301.17,699.72 L301.16,699.72 L301.14,699.72 C300.59,699.72,300.07,699.15,299.84,698.68 V699.67 L299.8,699.73 C298.96,699.48,299.24,699.56,298.29,699.33 V699.1 C298.96,699.03,299.03,699.16,299.03,698.4 V696.12 C299.03,695.4,298.93,695.48,298.27,695.42 V695.15 C299.1,695.17,299.92,695.17,300.74,695.15 V695.42 C300.05,695.47,299.84,695.34,299.84,696.12 V698.03 C299.84,698.38,300.26,698.93,300.66,698.93 C300.89,698.93,301.17,698.73,301.17,698.62 L301.31,698.59 Z " />
<path
   id="path3466"
   fill="black"
   stroke-width="0"
   d="M304,701.43 L304,701.46 L304,701.48 L303.99,701.51 L303.99,701.54 L303.98,701.56 L303.98,701.59 L303.97,701.61 L303.96,701.64 L303.95,701.66 L303.93,701.69 L303.92,701.71 L303.91,701.73 L303.89,701.76 L303.87,701.78 L303.86,701.8 L303.84,701.82 L303.82,701.84 L303.8,701.85 L303.78,701.87 L303.76,701.89 L303.74,701.9 L303.71,701.92 L303.69,701.93 L303.67,701.94 L303.64,701.95 L303.62,701.96 L303.59,701.97 L303.57,701.97 L303.54,701.98 L303.52,701.98 L303.49,701.99 L303.46,701.99 C303.16,701.99,302.92,701.72,302.92,701.43 C302.92,701.14,303.17,700.89,303.46,700.89 C303.75,700.89,304,701.14,304,701.43 Z " />
<path
   id="path3468"
   fill="black"
   stroke-width="0"
   d="M304.66,695.16 V695.42 C303.99,695.48,303.89,695.4,303.89,696.12 V699.67 L303.84,699.74 L302.34,699.33 V699.1 C303,699.03,303.08,699.16,303.08,698.4 V696.12 C303.08,695.4,302.98,695.48,302.32,695.42 V695.16 C303.09,695.18,303.88,695.18,304.66,695.16 Z " />
<path
   id="path3470"
   fill="black"
   stroke-width="0"
   d="M309.56,695.34 L309.52,695.6 C309.1,695.5,308.83,695.61,308.83,696.1 V698.14 C308.83,699.1,308.52,699.72,307.46,699.73 C306.56,699.73,305.93,699.25,305.65,698.51 L306,698.32 C306.34,698.77,306.53,699.24,306.97,699.25 C307.84,699.28,308.08,698.74,308.06,697.97 V697.65 V696.2 C307.83,695.94,307.33,695.61,306.97,695.61 C306.55,695.61,306.27,696,306.26,696.39 C306.24,697.1,308.06,697.65,308.06,697.65 V697.97 L306.76,697.53 C306.03,697.29,305.41,697.05,305.41,696.23 C305.41,695.52,305.94,695.05,306.64,695.05 C307.19,695.05,308.06,695.85,308.06,695.85 C308.06,695.85,308.03,695.1,308.3,695.1 C309.03,695.27,308.79,695.21,309.56,695.34 Z " />
<path
   id="path3472"
   fill="black"
   stroke-width="0"
   d="M312.63,695.16 V695.42 C311.96,695.48,311.85,695.39,311.85,696.12 V702.22 L311.8,702.32 C310.93,702.09,311.22,702.16,310.29,701.96 V701.72 C310.79,701.69,311.04,701.81,311.04,701.19 V696.12 C311.04,695.39,310.93,695.48,310.27,695.42 V695.16 C311.05,695.18,311.84,695.18,312.63,695.16 Z " />
</g>    <g
       id="g3683"
       transform="matrix(1,0,0,-1,12.717766,894.56174)"
       xml:space="preserve"
       stroke="black"
       stroke-linecap="butt"
       stroke-linejoin="miter"
       stroke-miterlimit="10.433"
       stroke-dasharray="none"
       stroke-dashoffset="0"
       stroke-opacity="1"
       fill="none"
       fill-rule="evenodd"
       fill-opacity="1"
       font-style="normal"
       font-variant="normal"
       font-weight="normal"
       font-stretch="normal"
       font-size-adjust="none"
       letter-spacing="normal"
       word-spacing="normal"
       text-anchor="start"
       ns0:text="$n_2$\\newline \nLow index Material"
       ns0:preamble="/home/josh/Desktop/preamble.txt"
       style="font-style:normal;font-variant:normal;font-weight:normal;font-stretch:normal;letter-spacing:normal;word-spacing:normal;text-anchor:start;fill:none;stroke:#000000;stroke-linecap:butt;stroke-linejoin:miter;stroke-miterlimit:10.43299961;stroke-opacity:1;stroke-dasharray:none;stroke-dashoffset:0">
<path
   d="M228.65,707.96 L228.55,708.15 C228.39,708.03,227.88,707.69,227.74,707.69 C227.68,707.69,227.66,707.77,227.66,707.86 C227.66,707.95,227.68,708.06,227.69,708.1 C227.92,709.08,228.18,710.03,228.36,711.02 C228.38,711.14,228.39,711.23,228.39,711.32 C228.39,711.67,228.23,711.74,228.08,711.74 C227.82,711.74,227.41,711.52,227,711.22 C226.41,710.8,225.8,710.26,225.39,709.67 C225.51,710.16,225.71,711.14,225.71,711.14 C225.74,711.26,225.76,711.35,225.76,711.44 C225.76,711.63,225.68,711.74,225.54,711.74 C225.25,711.74,224.27,711.04,224,710.77 L224.09,710.57 C224.2,710.68,224.74,711.05,224.86,711.05 C224.92,711.05,224.95,710.97,224.95,710.83 C224.95,710.47,224.78,709.72,224.58,708.85 C224.44,708.21,224.3,707.63,224.15,707.08 L224.93,707.24 C225.11,708.1,225.3,709.02,225.55,709.45 C225.98,710.15,226.94,711.1,227.42,711.1 C227.56,711.1,227.6,710.97,227.6,710.81 C227.6,710.6,227.52,710.32,227.5,710.23 L226.89,707.6 C226.87,707.51,226.86,707.42,226.86,707.35 C226.86,707.14,226.95,707.03,227.12,707.03 C227.32,707.03,227.92,707.35,228.65,707.96 Z "
   stroke-width="0"
   fill="black"
   id="path3685" />
<path
   d="M232.86,705.53 L232.76,705.89 C232.3,705.65,231.84,705.63,231.41,705.63 C231.07,705.63,230.47,705.65,230.47,705.65 L231.6,706.94 C232.06,707.47,232.58,708.02,232.58,708.77 C232.58,709.59,231.98,710.09,231.19,710.09 C230.73,710.09,230.35,709.93,230.03,709.6 L229.76,708.79 L229.94,708.73 L230.08,709.01 C230.26,709.38,230.5,709.57,230.93,709.57 C231.57,709.57,231.94,709.14,231.94,708.52 C231.94,707.78,231.33,707.08,230.87,706.56 L229.62,705.22 V705.08 C229.89,705.08,231.57,705.06,231.65,705.08 C232.43,705.39,232.21,705.31,232.86,705.53 Z "
   stroke-width="0"
   fill="black"
   id="path3687" />
<path
   d="M228.95,696.81 L228.66,696.82 C228.66,696.82,228.43,695.95,228.26,695.77 C228.03,695.53,226.89,695.53,226.57,695.53 C226.12,695.53,225.55,695.53,225.55,696.12 V700.51 C225.55,701.49,225.59,701.53,226.52,701.59 V701.85 C225.6,701.81,224.64,701.82,223.71,701.85 V701.59 C224.64,701.52,224.67,701.48,224.67,700.51 V696.36 C224.67,695.77,224.6,695.45,223.93,695.39 V695.16 C225.08,695.21,226.24,695.16,227.39,695.16 H227.81 L228.71,695.47 Z "
   stroke-width="0"
   fill="black"
   id="path3689" />
<path
   d="M234.32,697.47 L234.32,697.59 L234.31,697.71 L234.3,697.83 L234.28,697.94 L234.26,698.05 L234.23,698.16 L234.19,698.27 L234.15,698.37 L234.11,698.47 L234.06,698.57 L234.01,698.67 L233.95,698.76 L233.89,698.84 L233.83,698.93 L233.76,699.01 L233.68,699.09 L233.6,699.16 L233.52,699.23 L233.44,699.3 L233.35,699.36 L233.26,699.41 L233.16,699.47 L233.07,699.51 L232.97,699.56 L232.86,699.6 L232.75,699.63 L232.65,699.66 L232.53,699.68 L232.42,699.7 L232.3,699.72 L232.18,699.73 L232.06,699.73 L231.91,699.41 C233.02,699.41,233.41,698.06,233.41,697.17 H233.41 C233.41,696.38,233.16,695.33,232.17,695.33 C231.01,695.33,230.65,696.7,230.65,697.63 C230.65,698.43,230.95,699.41,231.91,699.41 L232.06,699.73 C230.67,699.73,229.73,698.62,229.73,697.27 C229.73,696,230.63,695.01,231.92,695.01 C233.33,695.01,234.32,696.09,234.32,697.47 Z "
   stroke-width="0"
   fill="black"
   id="path3691" />
<path
   d="M242.19,699.33 V699.58 C241.57,699.56,240.94,699.56,240.32,699.58 V699.33 C240.55,699.31,241.01,699.35,241.01,699.02 C241.01,698.55,240.09,696.2,240.09,696.2 L238.77,699.61 H238.54 C238.54,699.61,237.15,696.22,237.16,696.23 L237.14,696.22 C237.14,696.22,236.29,698.72,236.29,699.06 C236.29,699.33,236.78,699.31,236.96,699.33 V699.58 C236.23,699.56,235.5,699.56,234.76,699.58 V699.33 C235.4,699.26,235.39,699.13,235.59,698.51 L236.69,695.07 H237.06 L238.41,698.32 L239.7,695.07 H240.07 L241.36,698.51 C241.58,699.05,241.6,699.25,242.19,699.33 Z "
   stroke-width="0"
   fill="black"
   id="path3693" />
<path
   d="M246.99,701.43 L246.98,701.46 L246.98,701.48 L246.98,701.51 L246.97,701.54 L246.97,701.56 L246.96,701.59 L246.95,701.61 L246.94,701.64 L246.93,701.66 L246.92,701.69 L246.9,701.71 L246.89,701.73 L246.88,701.76 L246.86,701.78 L246.84,701.8 L246.82,701.82 L246.8,701.84 L246.79,701.85 L246.76,701.87 L246.74,701.89 L246.72,701.9 L246.7,701.92 L246.68,701.93 L246.65,701.94 L246.63,701.95 L246.6,701.96 L246.58,701.97 L246.55,701.97 L246.53,701.98 L246.5,701.98 L246.47,701.99 L246.45,701.99 C246.15,701.99,245.91,701.72,245.91,701.43 C245.91,701.14,246.16,700.89,246.45,700.89 C246.74,700.89,246.99,701.14,246.99,701.43 Z "
   stroke-width="0"
   fill="black"
   id="path3695" />
<path
   d="M247.64,695.16 V695.42 C246.98,695.48,246.88,695.4,246.88,696.12 V699.67 L246.82,699.74 L245.32,699.33 V699.1 C245.99,699.03,246.07,699.16,246.07,698.4 V696.12 C246.07,695.4,245.97,695.48,245.3,695.42 V695.16 C246.08,695.18,246.87,695.18,247.64,695.16 Z "
   stroke-width="0"
   fill="black"
   id="path3697" />
<path
   d="M253.51,695.16 V695.42 C252.86,695.48,252.81,695.43,252.81,696.12 V698.2 C252.81,699.15,252.33,699.73,251.35,699.73 C250.7,699.73,250.22,699.38,249.81,698.91 V699.68 L249.76,699.74 C248.77,699.45,249.06,699.52,248.26,699.33 V699.1 C248.93,699.04,249.01,699.15,249.01,698.4 V696.12 C249.01,695.4,248.9,695.48,248.23,695.42 V695.16 C249,695.18,249.77,695.18,250.54,695.16 V695.42 C249.89,695.48,249.81,695.41,249.81,696.12 V698.44 C249.98,698.85,250.56,699.14,250.99,699.14 C251.71,699.14,252.01,698.63,252.01,697.98 V696.21 C252.01,695.96,251.99,695.4,251.65,695.37 V695.16 C252.27,695.19,252.89,695.19,253.51,695.16 Z "
   stroke-width="0"
   fill="black"
   id="path3699" />
<path
   d="M259.39,695.28 V695.54 C259.39,695.54,258.6,695.31,258.6,696.16 V702.22 L258.55,702.32 C257.68,702.09,257.96,702.16,257.01,701.96 V701.72 C257.01,701.72,257.8,701.96,257.8,701.19 V699.52 C257.8,699.52,257.22,699.73,256.92,699.73 L256.57,699.31 C256.79,699.31,257.8,699.06,257.8,698.74 V696.66 C257.8,696.1,257.13,695.62,256.6,695.62 C255.6,695.62,255.16,696.68,255.16,697.54 C255.16,698.42,255.56,699.31,256.57,699.31 L256.92,699.73 C255.56,699.73,254.29,698.65,254.29,697.25 C254.29,696.01,255.07,695.04,256.36,695.05 C257.52,695.06,257.82,695.86,257.82,695.86 L257.79,695.08 C258.75,695.23,258.46,695.19,259.39,695.28 Z "
   stroke-width="0"
   fill="black"
   id="path3701" />
<path
   d="M264.04,698.09 L264.04,698.17 L264.03,698.26 L264.02,698.34 L264.01,698.42 L263.99,698.5 L263.97,698.58 L263.95,698.66 L263.92,698.73 L263.88,698.81 L263.85,698.88 L263.81,698.95 L263.77,699.01 L263.72,699.08 L263.68,699.14 L263.63,699.2 L263.57,699.25 L263.52,699.31 L263.46,699.36 L263.4,699.41 L263.33,699.45 L263.27,699.49 L263.2,699.53 L263.13,699.57 L263.05,699.6 L262.98,699.63 L262.9,699.66 L262.82,699.68 L262.74,699.7 L262.66,699.71 L262.58,699.72 L262.49,699.73 L262.41,699.73 C261.99,699.73,261.59,699.57,261.24,699.35 C260.48,698.86,260.16,698.14,260.16,697.25 C260.16,695.95,260.94,695.01,262.29,695.01 C262.72,695.01,263.38,695.17,263.77,695.65 L263.97,695.95 L263.84,696.07 C263.47,695.8,263.14,695.6,262.68,695.6 C261.5,695.6,261,696.52,260.99,697.58 L261.03,697.96 C261.06,698.64,261.43,699.39,262.22,699.39 C262.69,699.39,263.22,698.84,263.22,698.38 H263.22 C263.22,698.12,263.12,697.94,262.85,697.92 C262.23,697.87,261.03,697.96,261.03,697.96 L260.99,697.58 C260.99,697.58,262.29,697.51,263.2,697.62 L264.03,697.88 Z "
   stroke-width="0"
   fill="black"
   id="path3703" />
<path
   d="M269.4,695.14 V695.42 C268.91,695.49,268.83,695.48,268.55,695.9 L267.31,697.67 L268.42,699.08 C268.65,699.37,268.89,699.34,269.22,699.36 V699.56 C268.43,699.54,268.7,699.54,267.85,699.56 V699.36 C268.11,699.32,268.13,699.36,268.01,699.11 L267.15,697.95 C267.15,697.95,266.67,698.56,266.45,698.96 C266.25,699.33,266.36,699.28,266.72,699.29 V699.56 C265.52,699.54,265.84,699.54,264.67,699.56 V699.3 C265.13,699.24,265.33,699.23,265.6,698.83 L266.64,697.28 L265.54,695.81 C265.26,695.43,265.07,695.41,264.67,695.39 V695.14 C265.52,695.16,265.27,695.16,266.09,695.14 V695.4 C265.71,695.39,265.84,695.56,265.88,695.66 L266.85,697.02 L267.77,695.7 C267.94,695.36,267.78,695.46,267.58,695.42 V695.14 C268.6,695.16,268.26,695.16,269.4,695.14 Z "
   stroke-width="0"
   fill="black"
   id="path3705" />
<path
   d="M281.16,695.16 V695.42 C280.19,695.49,280.21,695.53,280.2,696.49 L280.15,700.67 C280.14,701.54,280.27,701.53,281.07,701.59 V701.85 C280.48,701.83,279.9,701.83,279.32,701.85 L276.82,696.52 L274.3,701.85 C273.71,701.83,273.12,701.83,272.53,701.85 V701.59 C273.23,701.54,273.48,701.55,273.48,700.76 L273.33,696.15 C273.32,695.42,273.06,695.47,272.44,695.42 V695.16 C273.22,695.18,274.01,695.18,274.79,695.16 V695.42 C274.19,695.46,273.81,695.4,273.84,696.15 L274,700.45 L276.45,695.16 H276.67 L279.29,700.77 L279.31,696.37 C279.31,695.54,279.3,695.49,278.46,695.42 V695.16 C279.36,695.2,280.26,695.19,281.16,695.16 Z "
   stroke-width="0"
   fill="black"
   id="path3707" />
<path
   d="M285.87,695.34 L285.83,695.6 C285.41,695.5,285.14,695.61,285.14,696.1 V698.14 C285.14,699.1,284.83,699.72,283.77,699.73 C282.87,699.73,282.24,699.25,281.96,698.51 L282.31,698.32 C282.65,698.77,282.84,699.24,283.28,699.25 C284.15,699.28,284.39,698.74,284.36,697.97 V697.65 V696.2 C284.14,695.94,283.64,695.61,283.28,695.61 C282.86,695.61,282.58,696,282.57,696.39 C282.55,697.1,284.36,697.65,284.36,697.65 V697.97 L283.07,697.53 C282.34,697.29,281.72,697.05,281.72,696.23 C281.72,695.52,282.25,695.05,282.95,695.05 C283.5,695.05,284.36,695.85,284.36,695.85 C284.36,695.85,284.33,695.1,284.61,695.1 C285.34,695.27,285.1,695.21,285.87,695.34 Z "
   stroke-width="0"
   fill="black"
   id="path3709" />
<path
   d="M289.28,695.62 L289.16,695.82 C288.98,695.72,288.78,695.63,288.57,695.63 C288.09,695.63,287.98,696.01,287.98,696.42 V699.02 H289.16 L289.24,699.41 H287.99 V700.94 L287.97,701.06 L287.48,700.87 C287.48,700.87,287.18,700.69,287.18,700.16 V699.41 H286.43 L286.42,699.02 H287.17 V696.18 C287.17,695.47,287.46,695.05,288.21,695.05 C288.65,695.05,289.05,695.32,289.28,695.62 Z "
   stroke-width="0"
   fill="black"
   id="path3711" />
<path
   d="M293.93,698.09 L293.93,698.17 L293.92,698.26 L293.91,698.34 L293.9,698.42 L293.88,698.5 L293.86,698.58 L293.83,698.66 L293.8,698.73 L293.77,698.81 L293.74,698.88 L293.7,698.95 L293.66,699.01 L293.61,699.08 L293.56,699.14 L293.51,699.2 L293.46,699.25 L293.4,699.31 L293.34,699.36 L293.28,699.41 L293.22,699.45 L293.15,699.49 L293.08,699.53 L293.01,699.57 L292.94,699.6 L292.87,699.63 L292.79,699.66 L292.71,699.68 L292.63,699.7 L292.55,699.71 L292.47,699.72 L292.38,699.73 L292.3,699.73 C291.88,699.73,291.48,699.57,291.13,699.35 C290.37,698.86,290.05,698.14,290.05,697.25 C290.05,695.95,290.83,695.01,292.17,695.01 C292.6,695.01,293.27,695.17,293.66,695.65 L293.86,695.95 L293.73,696.07 C293.36,695.8,293.03,695.6,292.56,695.6 C291.39,695.6,290.89,696.52,290.88,697.58 L290.92,697.96 C290.95,698.64,291.32,699.39,292.11,699.39 C292.57,699.39,293.11,698.84,293.11,698.38 H293.11 C293.11,698.12,293.01,697.94,292.73,697.92 C292.11,697.87,290.92,697.96,290.92,697.96 L290.88,697.58 C290.88,697.58,292.17,697.51,293.08,697.62 L293.92,697.88 Z "
   stroke-width="0"
   fill="black"
   id="path3713" />
<path
   d="M298.15,699.34 L298.15,699.35 L298.15,699.36 L298.15,699.37 L298.15,699.38 L298.15,699.39 L298.14,699.4 L298.14,699.41 L298.13,699.43 L298.11,699.45 L298.1,699.47 L298.09,699.48 L298.07,699.5 L298.05,699.52 L298.04,699.53 L298.02,699.55 L297.99,699.56 L297.97,699.58 L297.95,699.59 L297.93,699.6 L297.91,699.62 L297.88,699.63 L297.86,699.64 L297.84,699.65 L297.81,699.66 L297.79,699.67 L297.76,699.68 L297.74,699.69 L297.72,699.69 L297.7,699.7 L297.68,699.71 L297.66,699.71 L297.64,699.71 L297.62,699.72 L297.6,699.72 L297.58,699.72 C297.04,699.72,296.51,699.15,296.28,698.68 V699.67 L296.24,699.73 C295.4,699.48,295.68,699.56,294.73,699.33 V699.1 C295.4,699.03,295.47,699.16,295.47,698.4 V696.12 C295.47,695.4,295.37,695.48,294.71,695.42 V695.15 C295.54,695.17,296.36,695.17,297.19,695.15 V695.42 C296.49,695.47,296.28,695.34,296.28,696.12 V698.03 C296.28,698.38,296.7,698.93,297.11,698.93 C297.34,698.93,297.61,698.73,297.61,698.62 L297.76,698.59 Z "
   stroke-width="0"
   fill="black"
   id="path3715" />
<path
   d="M300.44,701.43 L300.44,701.46 L300.44,701.48 L300.44,701.51 L300.43,701.54 L300.43,701.56 L300.42,701.59 L300.41,701.61 L300.4,701.64 L300.39,701.66 L300.38,701.69 L300.36,701.71 L300.35,701.73 L300.33,701.76 L300.32,701.78 L300.3,701.8 L300.28,701.82 L300.26,701.84 L300.24,701.85 L300.22,701.87 L300.2,701.89 L300.18,701.9 L300.16,701.92 L300.14,701.93 L300.11,701.94 L300.09,701.95 L300.06,701.96 L300.04,701.97 L300.01,701.97 L299.99,701.98 L299.96,701.98 L299.93,701.99 L299.91,701.99 C299.61,701.99,299.37,701.72,299.37,701.43 C299.37,701.14,299.62,700.89,299.91,700.89 C300.2,700.89,300.44,701.14,300.44,701.43 Z "
   stroke-width="0"
   fill="black"
   id="path3717" />
<path
   d="M301.1,695.16 V695.42 C300.43,695.48,300.33,695.4,300.33,696.12 V699.67 L300.28,699.74 L298.78,699.33 V699.1 C299.45,699.03,299.53,699.16,299.53,698.4 V696.12 C299.53,695.4,299.43,695.48,298.76,695.42 V695.16 C299.54,695.18,300.32,695.18,301.1,695.16 Z "
   stroke-width="0"
   fill="black"
   id="path3719" />
<path
   d="M306,695.34 L305.96,695.6 C305.55,695.5,305.28,695.61,305.28,696.1 V698.14 C305.28,699.1,304.97,699.72,303.9,699.73 C303,699.73,302.38,699.25,302.1,698.51 L302.45,698.32 C302.79,698.77,302.97,699.24,303.41,699.25 C304.28,699.28,304.52,698.74,304.5,697.97 V697.65 V696.2 C304.27,695.94,303.77,695.61,303.41,695.61 C302.99,695.61,302.71,696,302.7,696.39 C302.68,697.1,304.5,697.65,304.5,697.65 V697.97 L303.2,697.53 C302.48,697.29,301.86,697.05,301.86,696.23 C301.86,695.52,302.39,695.05,303.08,695.05 C303.63,695.05,304.5,695.85,304.5,695.85 C304.5,695.85,304.47,695.1,304.75,695.1 C305.48,695.27,305.24,695.21,306,695.34 Z "
   stroke-width="0"
   fill="black"
   id="path3721" />
<path
   d="M309.07,695.16 V695.42 C308.4,695.48,308.29,695.39,308.29,696.12 V702.22 L308.24,702.32 C307.38,702.09,307.67,702.16,306.73,701.96 V701.72 C307.24,701.69,307.49,701.81,307.49,701.19 V696.12 C307.49,695.39,307.38,695.48,306.71,695.42 V695.16 C307.5,695.18,308.28,695.18,309.07,695.16 Z "
   stroke-width="0"
   fill="black"
   id="path3723" />
</g>    <g
       style="font-style:normal;font-variant:normal;font-weight:normal;font-stretch:normal;letter-spacing:normal;word-spacing:normal;text-anchor:start;fill:none;stroke:#000000;stroke-linecap:butt;stroke-linejoin:miter;stroke-miterlimit:10.43299961;stroke-opacity:1;stroke-dasharray:none;stroke-dashoffset:0"
       ns0:preamble="/home/josh/Desktop/preamble.txt"
       ns0:text="1"
       text-anchor="start"
       word-spacing="normal"
       letter-spacing="normal"
       font-size-adjust="none"
       font-stretch="normal"
       font-weight="normal"
       font-variant="normal"
       font-style="normal"
       fill-opacity="1"
       fill-rule="evenodd"
       fill="none"
       stroke-opacity="1"
       stroke-dashoffset="0"
       stroke-dasharray="none"
       stroke-miterlimit="10.433"
       stroke-linejoin="miter"
       stroke-linecap="butt"
       stroke="black"
       xml:space="preserve"
       transform="matrix(1,0,0,-1,-233.81145,889.34042)"
       id="g3953">
<path
   id="path3955"
   fill="black"
   stroke-width="0"
   d="M227.52,707.11 V707.37 C226.89,707.41,226.46,707.29,226.46,708.05 V713.65 L226.39,713.74 C225.2,713.22,225.57,713.38,224.4,712.91 L224.51,712.69 C224.75,712.69,225.26,712.99,225.52,712.99 C225.66,712.99,225.65,712.7,225.65,712.61 V708.05 C225.65,707.28,225.2,707.41,224.58,707.37 V707.11 C225.55,707.14,226.54,707.14,227.52,707.11 Z " />
</g>    <g
       id="g4185"
       transform="matrix(1,0,0,-1,-155.18838,902.83121)"
       xml:space="preserve"
       stroke="black"
       stroke-linecap="butt"
       stroke-linejoin="miter"
       stroke-miterlimit="10.433"
       stroke-dasharray="none"
       stroke-dashoffset="0"
       stroke-opacity="1"
       fill="none"
       fill-rule="evenodd"
       fill-opacity="1"
       font-style="normal"
       font-variant="normal"
       font-weight="normal"
       font-stretch="normal"
       font-size-adjust="none"
       letter-spacing="normal"
       word-spacing="normal"
       text-anchor="start"
       ns0:text="2"
       ns0:preamble="/home/josh/Desktop/preamble.txt"
       style="font-style:normal;font-variant:normal;font-weight:normal;font-stretch:normal;letter-spacing:normal;word-spacing:normal;text-anchor:start;fill:none;stroke:#000000;stroke-linecap:butt;stroke-linejoin:miter;stroke-miterlimit:10.43299961;stroke-opacity:1;stroke-dasharray:none;stroke-dashoffset:0">
<path
   d="M228.39,707.71 L228.26,708.19 C227.66,707.87,227.05,707.84,226.48,707.84 C226.03,707.84,225.24,707.87,225.24,707.87 L226.72,709.57 C227.33,710.27,228.02,711,228.02,711.98 C228.02,713.07,227.23,713.72,226.18,713.72 C225.57,713.72,225.08,713.52,224.66,713.09 L224.3,712.01 L224.54,711.93 L224.72,712.31 C224.97,712.79,225.28,713.04,225.84,713.04 C226.69,713.04,227.18,712.48,227.18,711.65 C227.18,710.69,226.37,709.76,225.76,709.08 L224.12,707.3 V707.11 C224.47,707.12,226.68,707.09,226.8,707.12 C227.83,707.53,227.54,707.42,228.39,707.71 Z "
   stroke-width="0"
   fill="black"
   id="path4187" />
</g>    <g
       style="font-style:normal;font-variant:normal;font-weight:normal;font-stretch:normal;letter-spacing:normal;word-spacing:normal;text-anchor:start;fill:none;stroke:#000000;stroke-linecap:butt;stroke-linejoin:miter;stroke-miterlimit:10.43299961;stroke-opacity:1;stroke-dasharray:none;stroke-dashoffset:0"
       ns0:preamble="/home/josh/Desktop/preamble.txt"
       ns0:text="3"
       text-anchor="start"
       word-spacing="normal"
       letter-spacing="normal"
       font-size-adjust="none"
       font-stretch="normal"
       font-weight="normal"
       font-variant="normal"
       font-style="normal"
       fill-opacity="1"
       fill-rule="evenodd"
       fill="none"
       stroke-opacity="1"
       stroke-dashoffset="0"
       stroke-dasharray="none"
       stroke-miterlimit="10.433"
       stroke-linejoin="miter"
       stroke-linecap="butt"
       stroke="black"
       xml:space="preserve"
       transform="matrix(1,0,0,-1,-95.754025,905.66141)"
       id="g4417">
<path
   id="path4419"
   fill="black"
   stroke-width="0"
   d="M228.19,709.45 L228.19,709.53 L228.18,709.61 L228.17,709.68 L228.16,709.76 L228.14,709.83 L228.11,709.9 L228.09,709.96 L228.06,710.03 L228.03,710.09 L227.99,710.15 L227.95,710.21 L227.91,710.27 L227.86,710.32 L227.82,710.37 L227.76,710.43 L227.71,710.47 L227.66,710.52 L227.6,710.56 L227.54,710.61 L227.48,710.65 L227.42,710.69 L227.35,710.72 L227.29,710.75 L227.22,710.79 L227.15,710.82 L227.08,710.84 L227.02,710.87 L226.95,710.89 L226.87,710.91 L226.8,710.93 L226.73,710.94 L226.66,710.96 C227.16,711.28,227.76,711.69,227.76,712.36 C227.76,713.29,226.94,713.72,226.1,713.72 C225.54,713.72,225.08,713.53,224.68,713.13 L224.33,712.19 L224.56,712.15 C224.9,712.65,225.2,713.14,225.88,713.14 C226.47,713.14,226.94,712.71,226.94,712.11 C226.94,711.44,226.39,711,225.79,710.86 L225.05,710.64 L225.21,710.31 L225.99,710.49 C226.65,710.66,227.26,709.92,227.31,709.08 C227.35,708.44,226.83,707.42,225.9,707.42 C225.57,707.42,224.8,707.5,224.34,708.37 L224.1,708.17 C224.16,707.31,224.98,706.97,225.45,706.97 C226.74,706.97,228.17,707.74,228.19,709.45 Z " />
</g>    <g
       id="g4649"
       transform="matrix(1,0,0,-1,-75.47087,926.41627)"
       xml:space="preserve"
       stroke="black"
       stroke-linecap="butt"
       stroke-linejoin="miter"
       stroke-miterlimit="10.433"
       stroke-dasharray="none"
       stroke-dashoffset="0"
       stroke-opacity="1"
       fill="none"
       fill-rule="evenodd"
       fill-opacity="1"
       font-style="normal"
       font-variant="normal"
       font-weight="normal"
       font-stretch="normal"
       font-size-adjust="none"
       letter-spacing="normal"
       word-spacing="normal"
       text-anchor="start"
       ns0:text="4"
       ns0:preamble="/home/josh/Desktop/preamble.txt"
       style="font-style:normal;font-variant:normal;font-weight:normal;font-stretch:normal;letter-spacing:normal;word-spacing:normal;text-anchor:start;fill:none;stroke:#000000;stroke-linecap:butt;stroke-linejoin:miter;stroke-miterlimit:10.43299961;stroke-opacity:1;stroke-dasharray:none;stroke-dashoffset:0">
<path
   d="M228.54,707.09 V707.39 C227.79,707.43,227.46,707.32,227.46,708.18 V708.93 C227.46,708.93,228.18,708.93,228.54,708.89 V709.59 C228.16,709.56,227.46,709.56,227.46,709.56 L227.45,713.11 C227.45,713.69,227.45,713.11,227.53,713.98 L226.67,713.76 L223.85,709.16 L223.96,708.93 H226.62 V709.56 H224.48 L226.62,713.07 V709.56 V708.93 V708.18 C226.62,707.26,226.18,707.43,225.41,707.39 V707.09 C226.45,707.11,227.49,707.11,228.54,707.09 Z "
   stroke-width="0"
   fill="black"
   id="path4651" />
</g>    <g
       style="font-style:normal;font-variant:normal;font-weight:normal;font-stretch:normal;letter-spacing:normal;word-spacing:normal;text-anchor:start;fill:none;stroke:#000000;stroke-linecap:butt;stroke-linejoin:miter;stroke-miterlimit:10.43299961;stroke-opacity:1;stroke-dasharray:none;stroke-dashoffset:0"
       ns0:preamble="/home/josh/Desktop/preamble.txt"
       ns0:text="$\\theta_c$"
       text-anchor="start"
       word-spacing="normal"
       letter-spacing="normal"
       font-size-adjust="none"
       font-stretch="normal"
       font-weight="normal"
       font-variant="normal"
       font-style="normal"
       fill-opacity="1"
       fill-rule="evenodd"
       fill="none"
       stroke-opacity="1"
       stroke-dashoffset="0"
       stroke-dasharray="none"
       stroke-miterlimit="10.433"
       stroke-linejoin="miter"
       stroke-linecap="butt"
       stroke="black"
       xml:space="preserve"
       transform="matrix(1,0,0,-1,-113.81248,943.30208)"
       id="content">
<path
   id="path4881"
   fill="black"
   stroke-width="0"
   d="M229.11,712.04 L229.11,712.14 L229.11,712.25 L229.1,712.35 L229.09,712.44 L229.08,712.54 L229.07,712.63 L229.05,712.72 L229.03,712.81 L229.01,712.9 L228.98,712.98 L228.95,713.06 L228.92,713.14 L228.88,713.22 L228.84,713.29 L228.8,713.36 L228.75,713.42 L228.7,713.49 L228.65,713.55 L228.59,713.6 L228.53,713.66 L228.46,713.7 L228.39,713.75 L228.32,713.79 L228.24,713.83 L228.16,713.86 L228.07,713.89 L227.98,713.91 L227.88,713.93 L227.79,713.95 L227.68,713.96 L227.57,713.97 L227.46,713.97 L227.28,713.71 C228.12,713.71,228.3,712.84,228.3,712.17 H228.3 C228.3,711.73,228.23,711.38,228.15,710.94 L228.1,710.63 C227.87,709.53,227.34,707.25,225.94,707.25 C224.96,707.25,224.86,708.35,224.86,709.11 C224.86,709.58,224.95,709.86,225.02,710.33 L228.1,710.63 L228.15,710.94 L225.07,710.65 C225.31,711.66,226.01,713.71,227.28,713.71 L227.46,713.97 C224.92,713.97,224.02,711.15,224.02,709.07 C224.02,707.9,224.47,706.97,225.79,706.97 C228.1,706.97,229.11,710.21,229.11,712.04 Z " />
<path
   id="path4883"
   fill="black"
   stroke-width="0"
   d="M232.49,708.33 L232.49,708.34 L232.48,708.36 L232.47,708.37 L232.46,708.38 L232.45,708.4 L232.44,708.41 L232.43,708.42 L232.42,708.44 L232.4,708.45 L232.38,708.46 L232.37,708.47 L232.35,708.48 L232.33,708.49 L232.31,708.5 L232.29,708.51 L232.26,708.52 L232.24,708.53 L232.22,708.54 L232.19,708.54 L232.17,708.55 L232.14,708.56 L232.12,708.56 L232.09,708.57 L232.06,708.57 L232.04,708.58 L232.01,708.58 L231.99,708.58 L231.96,708.59 L231.93,708.59 L231.91,708.59 L231.88,708.59 L231.85,708.59 C231.26,708.59,231.06,708.49,230.55,708.03 C230.09,707.61,229.82,706.77,229.82,706.08 C229.82,705.39,230.13,705,230.67,705 C231.18,705,231.85,705.41,232.2,705.79 L232.11,705.94 C231.84,705.72,231.36,705.41,231,705.41 C230.59,705.41,230.42,705.72,230.42,706.24 C230.42,706.92,230.64,707.59,230.93,707.91 C231.1,708.11,231.28,708.23,231.51,708.23 C231.98,708.23,232.1,708.06,232.1,707.88 C232.1,707.82,232.09,707.75,232.07,707.69 L232.3,707.69 C232.41,707.93,232.5,708.12,232.5,708.27 C232.5,708.29,232.49,708.3,232.49,708.33 Z " />
</g>  </g>
</svg>
